<svg width="156" height="123" viewBox="0 0 156 123" fill="none" xmlns="http://www.w3.org/2000/svg">
<g clip-path="url(#clip0_18_53759)">
<path d="M69.983 17.1028L57.7079 26.9995C57.1039 40.4201 56.5041 53.8407 55.9001 67.2572C56.6457 69.6855 57.9578 72.4346 60.2779 74.8297C69.0542 83.8767 84.1284 79.4823 84.774 79.2824C84.8198 79.9988 85.0614 82.3397 86.9275 84.2558C89.1934 86.5883 92.6673 86.4509 94.35 86.4092C116.938 85.8469 117.068 88.2919 123.078 85.2971C124.082 84.7973 137.836 77.7162 139.485 66.0701C140.006 62.3963 139.21 59.0349 141.118 53.3034C142.359 49.5755 144.105 46.7556 145.425 44.9145C145.475 38.0584 145.525 31.2065 145.575 24.3504C142.867 20.3351 137.207 13.1374 127.46 7.9433C113.111 0.295807 99.3442 2.02857 94.7249 2.81998C89.4558 6.36048 84.1825 9.89682 78.9134 13.4373C75.9352 14.6578 72.957 15.8782 69.9789 17.0986L69.983 17.1028Z" fill="white"/>
<path d="M-56.7504 104.562C-43.0757 105.928 -32.904 103.941 -26.1646 101.888C-13.8394 98.1388 -8.82025 92.903 -0.627106 95.0565C3.7173 96.1978 3.95889 98.1055 15.705 108.123C30.8626 121.052 34.5655 121.381 36.7856 121.19C42.6462 120.677 48.7942 115.596 49.5523 109.61C50.4061 102.871 44.0832 97.7723 40.347 94.7649C31.5957 87.7089 18.8207 84.939 16.9879 87.9338C15.8008 89.879 18.8082 94.9149 21.3365 94.8607C23.1484 94.8232 25.0645 92.1574 24.9062 90.0123C24.6521 86.5343 18.8707 83.5103 10.5526 82.194" stroke="#CBCBCB" stroke-width="2.49918" stroke-linecap="round" stroke-linejoin="round"/>
<path d="M69.983 17.1029L57.7079 26.9997C57.1039 40.4202 56.5041 53.8409 55.9001 67.2573C56.6457 69.6857 57.9578 72.4347 60.2779 74.8298C69.0542 83.8768 84.1284 79.4824 84.774 79.2825C84.8198 79.9989 85.0614 82.3398 86.9275 84.2559C89.1934 86.5884 92.6673 86.451 94.35 86.4093C116.938 85.847 117.068 88.292 123.078 85.2972C124.082 84.7974 137.836 77.7163 139.485 66.0702C140.006 62.3964 139.21 59.035 141.118 53.3035C142.359 49.5756 144.105 46.7557 145.425 44.9146C145.475 38.0585 145.525 31.2066 145.575 24.3505C142.867 20.3352 137.207 13.1375 127.46 7.9434C113.111 0.295913 99.3442 2.02868 94.7249 2.82009C89.4558 6.36059 84.1825 9.89693 78.9134 13.4374" stroke="#474B4E" stroke-width="4.1653" stroke-linecap="round" stroke-linejoin="round"/>
<path d="M44.8662 51.7707C45.8867 50.8251 47.457 49.5922 49.6188 48.605C52.3388 47.3638 54.7963 47.0597 56.3416 46.9889" stroke="#474B4E" stroke-width="4.1653" stroke-linecap="round" stroke-linejoin="round"/>
<path d="M153.397 64.6623C151.998 63.5086 149.907 62.034 147.112 60.8511C144.4 59.7056 141.959 59.2266 140.185 59.0184" stroke="#474B4E" stroke-width="4.1653" stroke-linecap="round" stroke-linejoin="round"/>
<path d="M126.856 96.8059C126.46 95.2565 125.965 93.5862 125.336 91.8326C124.553 89.65 123.699 87.6923 122.849 85.9678" stroke="#474B4E" stroke-width="4.1653" stroke-linecap="round" stroke-linejoin="round"/>
<path d="M61.7065 89.5166C62.5271 88.0046 63.4268 86.4427 64.414 84.839C65.5428 83.0104 66.6757 81.3027 67.792 79.7157" stroke="#474B4E" stroke-width="4.1653" stroke-linecap="round" stroke-linejoin="round"/>
<path d="M81.625 32.3229C82.6205 33.6683 83.9826 35.7634 85.0406 38.5584C86.1152 41.3991 86.0319 42.732 86.5234 43.7567C87.6897 46.1642 92.5797 47.9345 108.795 45.2395C110.411 43.9441 112.028 42.6487 113.644 41.3533" stroke="#474B4E" stroke-width="3.33224" stroke-linecap="round" stroke-linejoin="round"/>
<path d="M69.4874 34.7388C70.8217 34.7388 71.9033 33.6571 71.9033 32.3229C71.9033 30.9886 70.8217 29.907 69.4874 29.907C68.1532 29.907 67.0715 30.9886 67.0715 32.3229C67.0715 33.6571 68.1532 34.7388 69.4874 34.7388Z" fill="#474B4E"/>
<path d="M125.906 47.9511C127.241 47.9511 128.322 46.8694 128.322 45.5352C128.322 44.2009 127.241 43.1193 125.906 43.1193C124.572 43.1193 123.49 44.2009 123.49 45.5352C123.49 46.8694 124.572 47.9511 125.906 47.9511Z" fill="#474B4E"/>
<path d="M34.603 76.9499C33.8783 76.3293 32.7953 75.4962 31.3583 74.709C30.0504 73.9926 29.0049 73.6177 27.3096 73.0179C24.0357 71.8599 23.5067 72.0016 21.8989 71.206C20.9117 70.7186 19.6371 69.9397 18.2959 68.6402L18.0293 68.3403C18.0293 68.3403 19.2206 74.155 21.6448 86.022C26.1266 83.1104 30.6085 80.1989 35.0904 77.2873C34.9279 77.1749 34.7613 77.0624 34.5989 76.9499H34.603Z" fill="white"/>
<path d="M34.603 76.9499C33.8783 76.3293 32.7953 75.4962 31.3583 74.709C30.0504 73.9925 29.0049 73.6177 27.3096 73.0178C24.0357 71.8599 23.5067 72.0015 21.8989 71.2059C20.9117 70.7186 19.6371 69.9397 18.2959 68.6401L18.0293 68.3402C18.0293 68.3402 21.9447 55.5028 24.1148 47.5429C25.5393 42.3071 27.2888 35.2302 28.9007 26.5414L29.109 26.9163C31.6582 28.3783 35.0987 30.0278 39.3515 31.2482C44.2998 32.6686 48.6693 33.0226 51.889 33.0351L52.2722 32.9893C50.0646 38.2917 47.8737 43.6941 45.7036 49.1923C41.934 58.735 38.4018 68.1111 35.0987 77.2956" fill="#FF7C7D"/>
<path d="M27.8635 81.9817C25.7934 83.3271 23.719 84.6724 21.6489 86.0178C21.0699 83.1813 20.4868 80.3447 19.9078 77.5081L19.8536 77.2332C21.0449 77.8997 22.2362 78.5661 23.4316 79.2409C24.8812 80.0573 26.3223 80.8737 27.7594 81.6901C27.7927 81.7859 27.8302 81.8817 27.8635 81.9775V81.9817Z" fill="#292A2C"/>
<path d="M29.109 26.908C31.6582 28.37 35.0987 30.0195 39.3515 31.2399C44.2998 32.6603 48.6692 33.0143 51.889 33.0268L52.2681 32.981C53.2053 30.7317 54.0508 28.7157 54.7839 26.9871C50.9518 26.9122 45.8952 26.4165 40.2137 24.7295C36.1109 23.5091 32.6745 21.9638 29.9504 20.5059C29.6047 22.5011 29.2548 24.4963 28.9091 26.4873C28.9757 26.6289 29.0424 26.7664 29.109 26.908Z" fill="#FFCB4F"/>
<path d="M50.8601 26.7706C47.8652 26.4998 44.2289 25.9208 40.2177 24.7296C36.873 23.7382 34.0031 22.5344 31.6372 21.3723L31.8455 20.8517L33.3075 17.5194C34.9778 17.8402 37.402 18.365 40.2927 19.2147C42.1588 19.7645 42.9668 20.0769 44.7704 20.6059C46.524 21.1182 48.9898 21.7597 52.0388 22.3095C51.6973 23.53 51.3557 24.7462 51.0142 25.9667C50.96 26.2332 50.9101 26.504 50.8559 26.7706H50.8601Z" fill="#AFDEF7"/>
<path d="M18.0292 68.336C18.0292 68.336 19.2205 74.1508 21.6447 86.0177C26.1265 83.1062 30.6084 80.1947 35.0903 77.2831C38.3975 68.0986 41.9255 58.7267 45.6951 49.1798C48.69 41.5948 51.7223 34.1972 54.7796 26.9829C50.9476 26.908 45.8909 26.4123 40.2094 24.7254C36.1066 23.5049 32.6702 21.9596 29.9461 20.5017C28.0759 31.9813 25.8516 41.1325 24.1105 47.5304C21.9404 55.4944 18.025 68.3319 18.025 68.3277L18.0292 68.336Z" stroke="#474B4E" stroke-width="1.66612" stroke-linecap="round" stroke-linejoin="round"/>
<path d="M31.8455 20.8517L33.3075 17.5194C34.9778 17.8402 37.402 18.365 40.2927 19.2147C42.1587 19.7645 42.9668 20.0769 44.7704 20.6059C46.524 21.1182 48.9898 21.7597 52.0388 22.3095C51.6973 23.53 51.3557 24.7462 51.0142 25.9667" stroke="#474B4E" stroke-width="1.66612" stroke-linecap="round" stroke-linejoin="round"/>
<path d="M29.1089 26.908C31.6581 28.3701 35.0986 30.0195 39.3514 31.2399C44.2997 32.6603 48.6691 33.0144 51.8889 33.0269" stroke="#474B4E" stroke-width="1.66612" stroke-linecap="round" stroke-linejoin="round"/>
<path d="M18.3 68.6402C19.6413 69.9397 20.9159 70.7186 21.903 71.206C23.515 72.0016 24.0398 71.8599 27.3138 73.0179C29.009 73.6177 30.0545 73.9926 31.3624 74.709C32.7953 75.4962 33.8824 76.3293 34.6072 76.9499" stroke="#474B4E" stroke-width="1.66612" stroke-linecap="round" stroke-linejoin="round"/>
<path d="M19.8536 77.2374C21.0449 77.9038 22.2362 78.5703 23.4316 79.2451C24.8812 80.0615 26.3223 80.8779 27.7594 81.6943" stroke="#474B4E" stroke-width="1.66612" stroke-linecap="round" stroke-linejoin="round"/>
<path d="M21.3364 70.3938C23.1608 64 24.9769 57.6105 26.7888 51.2167C28.8673 43.8816 30.9458 36.5424 33.0118 29.1989" stroke="#474B4E" stroke-width="1.66612" stroke-linecap="round" stroke-linejoin="round"/>
<path d="M25.8058 72.2848C28.4549 65.233 31.0499 57.7937 33.5366 49.9755C35.5692 43.5734 37.3978 37.3379 39.0389 31.2941" stroke="#474B4E" stroke-width="1.66612" stroke-linecap="round" stroke-linejoin="round"/>
<path d="M30.1169 73.4053C32.6328 67.9738 34.3864 63.4877 35.486 60.5262C37.7728 54.3616 38.5225 51.2667 41.0675 44.1649C42.8961 39.0582 44.5289 35.0096 45.5452 32.5645" stroke="#474B4E" stroke-width="1.66612" stroke-linecap="round" stroke-linejoin="round"/>
<path d="M30.55 27.3328C31.0374 26.6081 31.5622 25.7209 32.0329 24.6587C32.4161 23.7965 32.6952 22.9926 32.8993 22.2762" stroke="#474B4E" stroke-width="1.66612" stroke-linecap="round" stroke-linejoin="round"/>
<path d="M33.5867 28.8948C34.049 28.0826 34.5155 27.2079 34.9695 26.2707C35.4152 25.3585 35.8068 24.4796 36.1567 23.6341" stroke="#474B4E" stroke-width="1.66612" stroke-linecap="round" stroke-linejoin="round"/>
<path d="M37.8103 30.3818C38.1519 29.5654 38.4851 28.7199 38.8141 27.841C39.1973 26.8247 39.5431 25.8333 39.8596 24.8711" stroke="#474B4E" stroke-width="1.66612" stroke-linecap="round" stroke-linejoin="round"/>
<path d="M41.5715 31.3066C41.9839 30.3403 42.3879 29.3281 42.7795 28.2701C43.0669 27.4995 43.3335 26.7415 43.5792 26" stroke="#474B4E" stroke-width="1.66612" stroke-linecap="round" stroke-linejoin="round"/>
<path d="M45.8368 32.2021C46.12 31.2108 46.3991 30.2069 46.6782 29.1989C46.9114 28.3492 47.1405 27.5036 47.3696 26.6664" stroke="#474B4E" stroke-width="1.66612" stroke-linecap="round" stroke-linejoin="round"/>
<path d="M49.7021 32.6437C49.9687 31.6815 50.2145 30.636 50.4227 29.5114C50.5769 28.6866 50.6976 27.8911 50.7893 27.1371" stroke="#474B4E" stroke-width="1.66612" stroke-linecap="round" stroke-linejoin="round"/>
</g>
<defs>
<clipPath id="clip0_18_53759">
<rect width="213.48" height="122.472" fill="white" transform="translate(-58)"/>
</clipPath>
</defs>
</svg>
