<svg width="48" height="48" viewBox="0 0 48 48" fill="none" xmlns="http://www.w3.org/2000/svg">
<path d="M33.2374 0C33.3491 0 33.4608 0 33.5789 0C33.8529 3.38506 32.5608 5.91437 30.9906 7.74601C29.4498 9.56501 27.3399 11.3292 23.9275 11.0615C23.6998 7.72494 24.994 5.38322 26.5622 3.55579C28.0165 1.85272 30.6828 0.337241 33.2374 0Z" fill="#1E1E1E"/>
<path d="M43.5675 35.2333C43.5675 35.267 43.5675 35.2965 43.5675 35.3281C42.6084 38.2326 41.2405 40.7219 39.5712 43.032C38.0473 45.1292 36.1798 47.9515 32.8453 47.9515C29.964 47.9515 28.0501 46.0988 25.0972 46.0482C21.9735 45.9976 20.2557 47.5974 17.3996 48C17.0729 48 16.7462 48 16.4259 48C14.3286 47.6964 12.6361 46.0355 11.4031 44.539C7.76718 40.1169 4.95754 34.4049 4.43481 27.0952C4.43481 26.3786 4.43481 25.664 4.43481 24.9474C4.65613 19.7159 7.19809 15.4625 10.5768 13.4011C12.36 12.3051 14.8113 11.3713 17.5409 11.7886C18.7107 11.9699 19.9058 12.3704 20.9533 12.7667C21.9461 13.1482 23.1875 13.8247 24.3637 13.7889C25.1604 13.7657 25.9529 13.3505 26.756 13.0575C29.1082 12.2081 31.4141 11.2343 34.4535 11.6917C38.1063 12.2439 40.6988 13.8669 42.3007 16.3709C39.2107 18.3375 36.7678 21.301 37.1852 26.3617C37.5561 30.9587 40.2288 33.6482 43.5675 35.2333Z" fill="#1E1E1E"/>
</svg>
