<svg width="178" height="52" viewBox="0 0 178 52" fill="none" xmlns="http://www.w3.org/2000/svg">
<path d="M2 26C2 12.7452 12.7452 2 26 2H152C165.255 2 176 12.7452 176 26V26C176 39.2548 165.255 50 152 50H26C12.7452 50 2 39.2548 2 26V26Z" fill="#1E1E1E"/>
<path d="M117.951 0.822266C118.302 0.813318 118.629 0.919092 118.918 1.0918L119.199 1.25586L119.48 1.42578C119.566 1.47659 119.617 1.48425 119.645 1.48438H119.926L120.207 1.47852C120.345 1.47687 120.488 1.46105 120.629 1.43164L121.191 1.31445C121.369 1.27741 121.547 1.23554 121.725 1.19141L122.287 1.05078C122.587 0.976351 122.894 0.976668 123.195 1.04492L123.758 1.17383C123.982 1.2247 124.206 1.28869 124.426 1.37305L124.707 1.48438L124.988 1.58984C125.031 1.60618 125.055 1.60912 125.082 1.60156L125.363 1.51953L125.645 1.44336C125.876 1.37899 126.111 1.33868 126.348 1.32031L126.91 1.27344C127.157 1.25439 127.404 1.26384 127.648 1.30273L128.211 1.39648C128.271 1.40604 128.334 1.39912 128.41 1.37305L128.691 1.27344L128.973 1.17969C129.356 1.04726 129.748 1.08002 130.104 1.25L130.666 1.51953C130.779 1.57332 130.878 1.59443 130.965 1.60156L131.527 1.64844C131.534 1.64899 131.569 1.65271 131.645 1.60742L132.207 1.26758C132.492 1.09588 132.816 0.990424 133.162 0.992188H133.443L133.725 0.998047C133.956 0.999349 134.187 1.01986 134.416 1.0625L135.541 1.27344L135.822 1.32031L136.104 1.37305C136.115 1.3752 136.14 1.37832 136.197 1.34961L136.76 1.06836L137.1 0.951172C137.438 0.885673 137.774 0.969563 138.066 1.16211L138.348 1.34375L138.629 1.53125C138.638 1.5375 138.647 1.54586 138.652 1.54883L138.91 1.49023L139.191 1.43164C139.475 1.37223 139.762 1.36598 140.047 1.41992L140.328 1.47852L140.609 1.53125C140.675 1.54348 140.74 1.53616 140.814 1.51367L141.377 1.34961C141.655 1.26589 141.943 1.23206 142.232 1.26172L142.795 1.32031C142.93 1.33415 143.064 1.33514 143.199 1.32031L143.48 1.29102L143.762 1.25586C144.066 1.22245 144.366 1.26133 144.652 1.36133L144.934 1.46094L145.18 1.55469L145.455 1.40234L145.736 1.25C146.043 1.08364 146.377 1.03851 146.697 1.12109L147.014 1.25L147.295 1.40234L147.523 1.52539L147.746 1.41992L148.027 1.29102C148.253 1.18634 148.485 1.10567 148.719 1.04492L149 0.96875L149.281 0.898438C149.613 0.812395 149.949 0.824348 150.271 0.933594L150.553 1.0332L150.834 1.12695C150.992 1.18087 151.153 1.22426 151.309 1.25586L151.59 1.31445L151.871 1.36719C151.977 1.38845 152.079 1.39272 152.182 1.37891L152.463 1.34375L152.744 1.30273C152.932 1.27759 153.122 1.25734 153.312 1.23242L153.6 1.19141L153.887 1.15625C154.153 1.12145 154.42 1.12543 154.684 1.17383L155.246 1.2793C155.458 1.31844 155.666 1.37045 155.873 1.43164L156.148 1.51367L156.418 1.58984C156.52 1.61997 156.631 1.63518 156.746 1.63086L157.033 1.61914L157.326 1.60742C157.696 1.59357 158.04 1.70905 158.334 1.92383L158.58 2.09961L158.826 2.28125C158.851 2.29912 158.865 2.2999 158.891 2.29883L159.195 2.28711L159.494 2.26953L159.793 2.28711C160.087 2.3337 160.353 2.47189 160.572 2.68555L160.795 2.90234L161.012 3.11914L161.029 3.13086C161.03 3.131 161.034 3.13059 161.041 3.13086L161.639 3.1543C162.022 3.16926 162.371 3.3183 162.646 3.58789L162.863 3.79883L163.074 4.00391C163.186 4.11392 163.298 4.21134 163.414 4.29102L163.648 4.44922L163.877 4.60742C163.899 4.62279 163.943 4.6441 164.035 4.64844L164.357 4.66016L164.674 4.67773C165.009 4.69268 165.312 4.81637 165.547 5.04102L165.758 5.29883L165.928 5.55664L166.092 5.82031C166.159 5.92663 166.232 6.00087 166.303 6.05469L166.52 6.22461L166.742 6.39453C166.808 6.44494 166.893 6.49063 167.006 6.52344L167.305 6.60547L167.598 6.69336C167.897 6.77971 168.147 6.94845 168.33 7.18555L168.488 7.44336L168.623 7.71289L168.758 7.98828L168.764 8C168.765 8.00073 168.768 8.003 168.775 8.00586L169.062 8.11719L169.344 8.23438C169.717 8.38291 170.002 8.65664 170.158 9.03125L170.275 9.3125L170.387 9.58789C170.427 9.68448 170.478 9.75634 170.533 9.81055L170.738 10.0039L170.938 10.2031C171.139 10.3981 171.305 10.623 171.424 10.877L171.541 11.1348L171.664 11.3984C171.716 11.5087 171.782 11.6047 171.857 11.6914L172.221 12.1133C172.343 12.254 172.466 12.3987 172.59 12.541L172.777 12.752L172.965 12.9688C173.157 13.1905 173.3 13.4442 173.387 13.7246L173.469 14L173.557 14.2754C173.565 14.3019 173.582 14.3341 173.633 14.375L174.113 14.7617C174.472 15.048 174.646 15.4568 174.617 15.9043L174.594 16.2207L174.576 16.5371C174.571 16.6246 174.588 16.6677 174.6 16.6895L174.734 16.9355L174.869 17.1758C174.98 17.376 175.075 17.587 175.15 17.8027L175.244 18.0664L175.332 18.3301C175.406 18.5443 175.463 18.7684 175.502 18.9922L175.555 19.2676L175.602 19.543C175.628 19.6961 175.663 19.8465 175.707 19.9941L175.789 20.2637L175.865 20.5273C175.931 20.747 175.979 20.9733 176.006 21.2012L176.041 21.4766L176.07 21.7578C176.094 21.9601 176.109 22.164 176.117 22.3672L176.129 22.6426L176.135 22.9062C176.14 22.9153 176.159 22.9398 176.193 22.9766L176.686 23.4922C176.988 23.8112 177.166 24.2545 177.031 24.752L176.955 25.0391L176.873 25.3262C176.843 25.4366 176.835 25.5405 176.844 25.6367L176.873 25.918L176.896 26.2051C176.913 26.393 176.931 26.5841 176.949 26.7734L176.979 27.0547L177.002 27.3418C177.03 27.6357 177 27.9285 176.908 28.209L176.814 28.4844L176.727 28.7598C176.684 28.8918 176.656 29.0225 176.645 29.1523L176.621 29.4336L176.592 29.7148C176.572 29.9395 176.54 30.1636 176.486 30.3828L176.416 30.6582L176.352 30.9336C176.308 31.1129 176.263 31.2932 176.223 31.4727L176.158 31.748L176.1 32.0234C176.038 32.2952 175.929 32.5506 175.777 32.7852L175.613 33.0312L175.455 33.2773C175.433 33.3128 175.425 33.3484 175.426 33.4004L175.438 33.998C175.442 34.2336 175.428 34.4697 175.396 34.7012L175.355 34.9883L175.314 35.2812C175.271 35.6014 175.152 35.8962 174.957 36.1543L174.605 36.623C174.52 36.7356 174.449 36.8542 174.395 36.9746L174.16 37.4902C174.025 37.7883 173.816 38.0321 173.557 38.2227L173.305 38.4043L173.059 38.5859C172.969 38.6514 172.917 38.719 172.883 38.7793L172.742 39.0195L172.607 39.2656C172.542 39.3812 172.484 39.507 172.438 39.6465L172.344 39.9277L172.256 40.2031C172.176 40.4439 172.067 40.6755 171.934 40.8887L171.787 41.1289L171.635 41.3691C171.492 41.5976 171.315 41.8 171.107 41.9727L170.885 42.1543L170.662 42.3418C170.543 42.4409 170.435 42.547 170.334 42.6582L170.141 42.8691L169.953 43.0742C169.819 43.2223 169.684 43.3721 169.543 43.5137L169.145 43.9121C169.003 44.0545 168.854 44.1934 168.705 44.3281L168.5 44.5156L168.289 44.7031C168.128 44.8482 167.961 44.9873 167.785 45.1133L167.557 45.2773L167.322 45.4414C167.148 45.5656 166.969 45.6819 166.783 45.7871L166.537 45.9219L166.291 46.0625C166.111 46.1644 165.927 46.2619 165.74 46.3496L165.482 46.4668L165.23 46.5898C165.214 46.5978 165.179 46.6136 165.137 46.6836L164.809 47.2344C164.653 47.4945 164.451 47.7184 164.205 47.8965L163.977 48.0664L163.742 48.2363C163.531 48.389 163.301 48.5102 163.057 48.5996L162.518 48.7988C162.198 48.9153 161.865 48.9291 161.539 48.875L160.883 48.7695L160.695 48.9277L160.467 49.1152C160.182 49.3494 159.841 49.4727 159.471 49.4727H158.885C158.85 49.4728 158.822 49.4816 158.785 49.5078L158.539 49.6836L158.299 49.8535C158.049 50.0313 157.766 50.155 157.461 50.2051L157.186 50.252L156.904 50.293C156.704 50.3259 156.503 50.3549 156.301 50.375L156.02 50.4043L155.738 50.4277C155.64 50.4376 155.536 50.4655 155.428 50.5156L155.158 50.6445L154.889 50.7676C154.556 50.9215 154.197 50.9581 153.84 50.873L153.553 50.8027L153.266 50.7383C153.21 50.7251 153.161 50.726 153.107 50.7441L152.826 50.8379L152.551 50.9316C152.293 51.0187 152.024 51.0685 151.754 51.0723L151.473 51.0781H151.191C151.008 51.0807 150.824 51.0844 150.641 51.0898L150.359 51.1016L150.078 51.1074C149.886 51.1131 149.691 51.1177 149.498 51.1191H149.217L148.936 51.125C148.581 51.1271 148.254 51.013 147.969 50.832L147.688 50.6504L147.43 50.4863L147.219 50.5684L146.938 50.668C146.646 50.7732 146.34 50.8116 146.029 50.7734L145.748 50.7441L145.467 50.709C145.425 50.7039 145.371 50.7053 145.297 50.7383L144.734 50.9844C144.31 51.1722 143.867 51.1276 143.486 50.9023L143.205 50.7383L142.947 50.5859L142.725 50.668L142.443 50.7734C142.143 50.8836 141.825 50.9169 141.506 50.8672L141.225 50.8262L140.943 50.7793C140.783 50.7543 140.622 50.7394 140.463 50.7324L139.9 50.709C139.711 50.7008 139.521 50.6952 139.332 50.6855L139.051 50.668L138.77 50.6562C138.69 50.6522 138.604 50.6608 138.506 50.6973L137.943 50.9082C137.691 51.0019 137.43 51.0567 137.164 51.0723L136.602 51.1074C136.285 51.1258 135.979 51.063 135.693 50.9375L135.131 50.6914C134.981 50.6257 134.834 50.5736 134.691 50.5391L134.41 50.4746L134.129 50.4043C134.04 50.3829 133.956 50.3787 133.871 50.3926L133.309 50.4863C133.162 50.5109 133.009 50.5467 132.857 50.5977L132.576 50.6973L132.295 50.791C132.011 50.8863 131.715 50.923 131.416 50.8906L131.135 50.8555L130.854 50.8262C130.676 50.8067 130.492 50.7918 130.314 50.7793L130.033 50.7617L129.752 50.7383C129.582 50.7264 129.412 50.7213 129.242 50.7207H128.68C128.479 50.72 128.277 50.709 128.076 50.6973L127.795 50.6855L127.514 50.668C127.448 50.6641 127.371 50.6711 127.279 50.709L126.717 50.9434C126.447 51.0545 126.165 51.1179 125.873 51.1191H125.311C124.964 51.1206 124.641 51.0156 124.355 50.8438L123.793 50.5039L123.781 50.498L123.529 50.5684L123.248 50.6387C122.995 50.7048 122.735 50.739 122.475 50.7324L122.193 50.7266L121.912 50.7148C121.725 50.7101 121.537 50.7085 121.35 50.7031L121.068 50.6914L120.787 50.6855C120.648 50.6816 120.506 50.6918 120.365 50.7148L119.803 50.8086C119.449 50.8661 119.107 50.801 118.795 50.6504L118.514 50.5156L118.273 50.3926L118.039 50.5156L117.758 50.6504C117.49 50.7801 117.206 50.8636 116.908 50.8789L116.627 50.8906L116.346 50.9082C116.043 50.9237 115.747 50.8672 115.467 50.7559L114.904 50.5332L114.887 50.5273C114.885 50.5276 114.876 50.5251 114.869 50.5273L114.307 50.7266C113.961 50.8481 113.599 50.852 113.252 50.7324L112.689 50.5332C112.599 50.5018 112.517 50.4973 112.443 50.5039L112.162 50.5273L111.881 50.5566C111.681 50.5756 111.478 50.5897 111.277 50.5977L110.996 50.6094L110.715 50.6152C110.473 50.6248 110.228 50.6105 109.988 50.5684L109.707 50.5215L109.426 50.4688C109.369 50.459 109.31 50.4622 109.238 50.4863L108.957 50.5859L108.676 50.6797C108.356 50.7886 108.022 50.8024 107.691 50.7207L107.41 50.6504L107.129 50.5859C106.956 50.543 106.78 50.5006 106.607 50.4688L106.326 50.4219L106.045 50.3691C106.022 50.365 105.991 50.361 105.934 50.3867L105.371 50.6445C105.087 50.7744 104.78 50.8451 104.463 50.832L103.9 50.8086C103.762 50.803 103.624 50.8106 103.484 50.832L102.922 50.9141C102.607 50.9624 102.294 50.9311 101.996 50.8262L101.715 50.7266L101.439 50.627L101.434 50.6328L100.871 50.8906C100.578 51.0257 100.262 51.094 99.9336 51.0664L99.6523 51.043L99.3711 51.0137C99.071 50.9879 98.7809 50.8966 98.5156 50.7559L98.2344 50.6094L97.9824 50.4688L97.748 50.5684L97.4668 50.6855C97.2425 50.7764 97.012 50.8462 96.7812 50.8965L96.5 50.9609L96.2188 51.0195C95.9775 51.0719 95.7315 51.0992 95.4863 51.0957L94.9238 51.084C94.7017 51.0806 94.4768 51.0651 94.2559 51.0312L93.9746 50.9844L93.6934 50.9434C93.4516 50.9063 93.212 50.8438 92.9785 50.7559L92.6973 50.6504L92.416 50.5391H92.4102C92.4081 50.5396 92.4044 50.5425 92.3984 50.5449L91.8359 50.7676C91.5575 50.8788 91.2643 50.9331 90.9629 50.9199L90.4004 50.8965C90.1834 50.8868 89.9659 50.8613 89.75 50.8262L89.4688 50.7793L89.1875 50.7383C89.0407 50.7144 88.8933 50.7023 88.748 50.7031H88.1855C88.0376 50.704 87.8896 50.7204 87.7402 50.7441L87.459 50.7852L87.1777 50.832C86.9909 50.8619 86.802 50.89 86.6152 50.9199L86.0527 51.0137C85.7094 51.0686 85.3718 51.0114 85.0625 50.873L84.7812 50.75L84.5 50.6211C84.4168 50.5842 84.352 50.5761 84.3008 50.5801L83.7383 50.627C83.5649 50.6403 83.3904 50.6569 83.2168 50.6797L82.9355 50.7148L82.6543 50.7559C82.4494 50.7827 82.2443 50.803 82.0391 50.8145L81.7578 50.8262L81.4766 50.8438C81.1537 50.8616 80.8386 50.7902 80.5508 50.6562L80.2695 50.5273L80.1113 50.4512L79.9121 50.6094L79.6309 50.8203C79.3312 51.0454 78.9592 51.1917 78.541 51.1484L77.9785 51.0898C77.8046 51.0719 77.6308 51.0582 77.457 51.0488L77.1758 51.0371L76.8945 51.0195C76.5642 51.0018 76.2557 50.8939 75.9805 50.7266L75.6992 50.5566L75.418 50.3809C75.3291 50.327 75.2747 50.3221 75.248 50.3223H74.9668L74.6855 50.3281C74.5137 50.3289 74.3419 50.3344 74.1699 50.3457L73.6074 50.3809C73.5277 50.3861 73.4352 50.4099 73.3262 50.4629L73.0449 50.5977L72.7637 50.7383C72.5244 50.8551 72.2745 50.9388 72.0195 50.9902L71.457 51.1074C71.1612 51.1669 70.8593 51.155 70.5664 51.084L70.2852 51.0195L70.0039 50.9492C69.9049 50.9255 69.8104 50.9197 69.7168 50.9316L69.4355 50.9668L69.1543 51.0078C68.9031 51.0402 68.6496 51.0402 68.3984 51.0078L68.1172 50.9668L67.8359 50.9316C67.6446 50.9069 67.453 50.8834 67.2617 50.8555L66.6992 50.7734C66.5721 50.7549 66.4445 50.749 66.3184 50.7617L65.7559 50.8203C65.4274 50.853 65.1079 50.7939 64.8125 50.6621L64.5312 50.5332L64.25 50.4102C64.1978 50.3871 64.171 50.3882 64.1504 50.3926L63.8691 50.4512L63.5879 50.5156C63.3758 50.561 63.1627 50.5932 62.9492 50.6152L62.3867 50.6738C62.253 50.6876 62.111 50.7168 61.9707 50.7617L61.6895 50.8496L61.4082 50.9434C61.0543 51.0558 60.6903 51.0415 60.3477 50.9082L59.7852 50.6855C59.7097 50.6563 59.65 50.6548 59.5977 50.6621L59.3164 50.6973L59.0352 50.7383C58.7946 50.7719 58.5503 50.7806 58.3086 50.7617L57.7461 50.7148C57.5901 50.7028 57.4332 50.7021 57.2773 50.709L56.7148 50.7324C56.5319 50.7405 56.347 50.7504 56.1641 50.7617L55.6016 50.7969C55.483 50.8044 55.3606 50.8303 55.2324 50.873L54.6699 51.0605C54.2677 51.1947 53.8636 51.1423 53.5098 50.9492L53.2285 50.791L52.9473 50.6387L52.6953 50.7207L52.4141 50.8145C52.0704 50.9247 51.7109 50.9208 51.3711 50.8027L50.8086 50.6035C50.8027 50.6016 50.7985 50.6038 50.7969 50.6035V50.5977L50.791 50.6035C50.7879 50.6042 50.7824 50.6058 50.7734 50.6094L50.2109 50.832C49.7872 51.0005 49.3551 50.9405 48.9863 50.7207L48.7051 50.5566L48.4238 50.3867C48.3414 50.3376 48.2954 50.339 48.2773 50.3398L47.7148 50.3633C47.6127 50.3682 47.504 50.3892 47.3867 50.4336L47.1055 50.5391L46.8242 50.6504C46.5199 50.7658 46.1947 50.7983 45.8691 50.7441L45.3066 50.6504C45.1081 50.6173 44.9072 50.582 44.709 50.5391L44.4277 50.4746L44.1465 50.416C43.9971 50.3837 43.8481 50.3658 43.7012 50.3574L43.1387 50.3223C43.0028 50.3145 42.8657 50.3196 42.7285 50.3398L42.166 50.4219C41.9389 50.4554 41.7089 50.4724 41.4805 50.4688L41.1992 50.4629H40.918C40.7232 50.4597 40.5268 50.4489 40.332 50.4395L39.7695 50.416C39.711 50.4134 39.6418 50.4232 39.5527 50.4629L39.2715 50.5859L38.9902 50.7148C38.6785 50.8542 38.3396 50.9032 37.9941 50.8438L37.4316 50.75C37.3184 50.7304 37.2036 50.7235 37.0918 50.7383L36.8105 50.7793L36.5293 50.8145C36.3604 50.8368 36.189 50.8673 36.0195 50.9023L35.457 51.0195C35.1898 51.0745 34.9187 51.0845 34.6484 51.0488L34.3672 51.0078L34.0859 50.9727C33.9654 50.9566 33.8433 50.9562 33.7227 50.9727L33.4414 51.0137L33.1602 51.0488C32.8992 51.0845 32.6352 51.0847 32.375 51.043L31.8125 50.9492C31.617 50.9179 31.4219 50.8822 31.2266 50.8438L30.9453 50.791L30.6641 50.7324C30.5207 50.7042 30.3772 50.6935 30.2363 50.6914L29.6738 50.6797C29.5592 50.6781 29.4385 50.6931 29.3164 50.7266L29.0352 50.8027L28.7539 50.8848C28.5222 50.948 28.2872 50.9845 28.0508 51.002L27.4883 51.0488C27.1836 51.0713 26.8867 51.0167 26.6035 50.9082L26.041 50.6973C25.8803 50.6356 25.7205 50.5841 25.5664 50.5449L25.2852 50.4746L25.0098 50.4043C24.9647 50.3929 24.9172 50.39 24.8516 50.4102L24.2773 50.5859C23.9878 50.6747 23.6886 50.7006 23.3867 50.6562L22.8242 50.5742C22.6433 50.5474 22.4607 50.5218 22.2793 50.498L22.0039 50.4629L21.7227 50.4277C21.4604 50.3935 21.2079 50.3157 20.9668 50.2051L20.7031 50.0879L20.4453 49.9707C20.3836 49.9424 20.3133 49.9257 20.2344 49.9297L19.9414 49.9473L19.6484 49.959C19.3121 49.9758 18.9876 49.8993 18.6934 49.7305L18.4414 49.5898L18.1953 49.4434C18.1734 49.4308 18.1398 49.42 18.0723 49.4258L17.7617 49.4551L17.4453 49.4844C16.9862 49.5247 16.574 49.3417 16.2852 48.9922L16.0859 48.7461L15.8809 48.5C15.8754 48.4934 15.871 48.49 15.8691 48.4883L15.5879 48.4707L15.2891 48.4414C14.9752 48.4129 14.677 48.3163 14.4102 48.1426L14.1699 47.9844L13.9297 47.832C13.725 47.6984 13.5401 47.5385 13.3672 47.3633L12.957 46.9531C12.8839 46.879 12.804 46.8229 12.7168 46.7832L12.2012 46.5488C11.9531 46.4361 11.7249 46.2851 11.5273 46.0977L11.3223 45.8984L11.1172 45.7051C10.9945 45.5886 10.8659 45.4758 10.7363 45.3711L10.3027 45.0195C10.1387 44.8869 9.97851 44.7456 9.82812 44.5977L9.62891 44.4043L9.42969 44.2051C9.27475 44.0525 9.1308 43.8899 8.99609 43.7188L8.64453 43.2734C8.64232 43.271 8.63496 43.2667 8.62695 43.2617C8.61432 43.2543 8.58758 43.2438 8.54492 43.2324L8.22852 43.1445L7.90625 43.0625C7.49551 42.9532 7.1449 42.6867 6.96875 42.2598L6.85742 41.9844L6.74023 41.709C6.67269 41.545 6.60035 41.3877 6.52344 41.2402L6.39453 40.9883L6.25977 40.7363C6.1967 40.6155 6.122 40.5035 6.03711 40.4023L5.67383 39.9688C5.59049 39.8698 5.49233 39.7733 5.375 39.6816L5.13477 39.4941L4.90039 39.3125C4.6743 39.1364 4.48011 38.9246 4.33203 38.6797L4.03906 38.1875C3.93755 38.0193 3.83785 37.8488 3.74023 37.6777L3.59375 37.4316L3.45312 37.1797C3.32383 36.9527 3.2277 36.7077 3.16602 36.4531L3.10156 36.1719L3.03125 35.8906C2.99761 35.7521 2.9491 35.6221 2.89062 35.498L2.76758 35.2402L2.65039 34.9824C2.54519 34.7596 2.46278 34.5261 2.41016 34.2852L2.35156 34.0039L2.28711 33.7285C2.22392 33.4388 2.22399 33.1415 2.27539 32.8496L2.32812 32.5449L2.36328 32.3398L2.16406 32.1699L1.90625 31.9414C1.73141 31.788 1.57236 31.5728 1.50781 31.2969C1.44422 31.0218 1.49255 30.7627 1.58398 30.5469L1.71875 30.2305L1.81836 30.002L1.68945 29.8379L1.49609 29.5801C1.30043 29.3167 1.17053 29.0129 1.13281 28.6777L1.09766 28.3965L1.06836 28.1152C1.04937 27.9465 1.02461 27.7753 0.992188 27.6055L0.939453 27.3242L0.880859 27.0371C0.812259 26.6762 0.873782 26.3251 1.02734 26.0059L1.16211 25.7188L1.30273 25.4375L1.19727 25.1562L1.0918 24.8691C0.925727 24.4108 1.03152 23.9603 1.30859 23.6035L1.50781 23.3398L1.71289 23.0762L1.66602 22.8359L1.60742 22.543C1.55246 22.2568 1.5518 21.9673 1.61328 21.6816L1.67188 21.4062L1.73633 21.1309C1.75941 21.0241 1.76427 20.9074 1.75391 20.7793L1.70703 20.1816C1.67798 19.8205 1.76152 19.4728 1.95898 19.168L2.12305 18.9219L2.28125 18.6699C2.32942 18.5953 2.35903 18.5239 2.36914 18.4473L2.4043 18.1602L2.44531 17.8789C2.47539 17.651 2.52151 17.4247 2.58594 17.2051L2.66797 16.9297L2.74414 16.6543C2.82301 16.3859 2.94698 16.1354 3.11328 15.9102L3.28906 15.6816L3.45898 15.4473C3.50412 15.3861 3.53768 15.3144 3.55273 15.2305L3.60547 14.9434L3.6582 14.6504L3.74023 14.3574C3.85247 14.0809 4.04633 13.8556 4.29688 13.6895L4.82422 13.3379C4.95957 13.2482 5.07001 13.1547 5.1582 13.0625L5.35742 12.8574L5.55078 12.6523C5.56815 12.6341 5.5919 12.6045 5.60352 12.5352L5.65039 12.2305L5.70312 11.9258L5.78516 11.627C5.89754 11.3425 6.09776 11.1042 6.37695 10.9414L6.9043 10.6367L6.91016 10.6309L6.99219 10.332L7.08008 10.0391C7.18298 9.68826 7.39107 9.38504 7.70117 9.17188L7.93555 9.00781L8.17578 8.84375C8.29454 8.76202 8.4034 8.67172 8.49805 8.57422L8.69141 8.375L8.89062 8.17578C9.05209 8.00949 9.22337 7.85389 9.41211 7.71875L9.64648 7.55469L9.875 7.39062C10.051 7.26478 10.2359 7.14957 10.4258 7.04492L10.6719 6.91016L10.918 6.76953C11.0551 6.69395 11.1885 6.61317 11.3105 6.52344L11.7559 6.19531C11.921 6.07392 12.0911 5.95702 12.2656 5.84961L12.5 5.70898L12.7344 5.5625C12.8693 5.47945 13.0058 5.39071 13.1328 5.29297L13.3496 5.12305L13.5723 4.94727C13.6816 4.86303 13.79 4.76398 13.8945 4.64844L14.0938 4.43164L14.293 4.20898C14.5453 3.93009 14.8738 3.75863 15.248 3.71094L15.541 3.67578L15.834 3.63477C15.939 3.62139 16.0288 3.59465 16.1035 3.55273L16.3438 3.41211L16.5898 3.27734C16.7707 3.17591 16.9579 3.08276 17.1465 2.99609L17.3984 2.87891L17.6562 2.76172C17.759 2.71449 17.8635 2.64336 17.9727 2.55078L18.4414 2.15234C18.6956 1.93676 18.9962 1.79399 19.332 1.74219L19.6133 1.70117L19.9004 1.6543C20.0903 1.62501 20.2802 1.59496 20.4688 1.56641L21.0312 1.48438C21.1827 1.46143 21.3338 1.42433 21.4824 1.37891L21.7578 1.29688L22.0332 1.20898L22.332 1.15625C22.6257 1.13177 22.909 1.19789 23.1641 1.32617L23.4688 1.47852L23.7207 1.61328L23.9199 1.50195L24.1895 1.36133C24.4794 1.20698 24.8035 1.12772 25.1387 1.14453L25.4199 1.15625L25.7012 1.17383C25.7992 1.17875 25.8896 1.18423 25.959 1.19141C25.9912 1.19477 26.0363 1.19999 26.082 1.20898C26.1039 1.2133 26.1494 1.22115 26.1992 1.23828C26.2247 1.24714 26.2683 1.26495 26.3164 1.29102C26.3256 1.29604 26.3319 1.31179 26.3457 1.32031C26.3803 1.33097 26.4268 1.34428 26.4863 1.36133L26.7676 1.4375L27.0488 1.51953C27.1261 1.54164 27.1961 1.54398 27.2656 1.53125L27.8281 1.42578C27.9982 1.39389 28.1729 1.35902 28.3438 1.31445L28.625 1.23828L28.9062 1.16797C29.1476 1.1051 29.3916 1.06763 29.6387 1.0625L30.2012 1.05078C30.5051 1.04473 30.803 1.10696 31.0801 1.22656L31.6426 1.47266C31.6511 1.47622 31.6577 1.47793 31.6602 1.47852L31.666 1.47266L32.2285 1.28516C32.4781 1.20141 32.7357 1.15627 32.9961 1.14453L33.2773 1.12695L33.5586 1.11523C33.763 1.10618 33.9694 1.10435 34.1738 1.10938L34.4551 1.11523L34.7363 1.12695C34.8717 1.13029 35.0087 1.11691 35.1465 1.0918L35.4277 1.03906L35.709 0.992188C36.0074 0.937786 36.3072 0.949381 36.5996 1.02734L36.8809 1.10352L37.1621 1.17383C37.2975 1.20993 37.4307 1.23341 37.5605 1.23828L37.8418 1.25L38.123 1.25586C38.3403 1.26405 38.5573 1.28577 38.7734 1.32031L39.3359 1.41406C39.4475 1.43193 39.5588 1.43012 39.6699 1.41406L40.2324 1.33203C40.3713 1.31167 40.5151 1.27657 40.6602 1.22656L40.9414 1.13281L41.2227 1.0332C41.4985 0.937993 41.7863 0.897406 42.0781 0.916016L42.6406 0.951172C42.818 0.962582 42.9965 0.970316 43.1738 0.974609L43.7363 0.986328C43.9393 0.991235 44.1429 1.00403 44.3457 1.02148L44.9082 1.06836C45.0541 1.08091 45.2018 1.0861 45.3477 1.07422L45.9102 1.02734C46.2609 0.999226 46.5916 1.08268 46.8887 1.24414L47.4512 1.54883C47.4645 1.55606 47.4743 1.5642 47.4805 1.56641H47.4863L48.0488 1.4375C48.1943 1.40379 48.3426 1.35322 48.4941 1.29102L48.7754 1.17969L49.0566 1.0625C49.4358 0.906651 49.8389 0.915227 50.2109 1.08008L50.7734 1.32617C50.8215 1.34741 50.8438 1.3479 50.8613 1.34375L51.1426 1.27344L51.4238 1.20898C51.7143 1.14075 52.0098 1.133 52.3027 1.19141L52.584 1.25L52.8652 1.30273C52.8862 1.30692 52.9147 1.31066 52.9707 1.28516L53.5332 1.02734L53.8848 0.927734C54.1176 0.894202 54.3447 0.92733 54.5527 1.01562L54.8516 1.18555L55.1328 1.39648L55.4023 1.60156L55.625 1.54297L55.9062 1.4668C56.1429 1.40555 56.3854 1.37161 56.627 1.36133L57.1895 1.33789C57.3652 1.33037 57.541 1.3178 57.7168 1.30273L58.2793 1.25586C58.4607 1.24031 58.6428 1.22296 58.8242 1.20312L59.1055 1.16797L59.3867 1.13867C59.597 1.11567 59.8088 1.10116 60.0195 1.09766H60.3008L60.582 1.0918C60.9052 1.08655 61.2134 1.16557 61.4961 1.30859L61.7773 1.44922L61.9238 1.52539L62.3926 1.17383C62.5679 1.04257 62.7874 0.932507 63.043 0.904297C63.1727 0.890027 63.2989 0.897128 63.418 0.921875L63.7578 1.04492L64.0391 1.19727L64.3203 1.34375C64.4441 1.40901 64.5557 1.44481 64.6543 1.46094L64.9355 1.50781L65.1992 1.55469C65.2057 1.5523 65.2223 1.5469 65.2461 1.53125L65.8086 1.15625C66.0882 0.972796 66.4077 0.850258 66.7578 0.839844L67.3203 0.828125C67.7211 0.816669 68.0754 0.970375 68.3633 1.19141L68.6445 1.40234L68.8672 1.57812L69.0371 1.50781L69.3184 1.39648C69.6619 1.26013 70.0282 1.24166 70.3848 1.35547L70.666 1.44922L70.9297 1.53125L71.2109 1.37891L71.4922 1.23242L71.8027 1.10938C72.0135 1.05505 72.2298 1.05685 72.4414 1.10938L72.752 1.22656L73.3145 1.51953C73.4153 1.57162 73.4963 1.58694 73.5605 1.58984L74.123 1.61328C74.1266 1.61343 74.1371 1.6122 74.1523 1.60742C74.169 1.60203 74.1994 1.59347 74.2402 1.56641L74.5215 1.37305L74.8027 1.18555C75.0778 1.00242 75.3913 0.878187 75.7344 0.857422L76.0156 0.845703L76.2969 0.828125C76.6327 0.808307 76.9547 0.88472 77.2461 1.0332L77.5273 1.17969L77.8086 1.32031L77.8145 1.32617V1.33203L78.0957 1.24414L78.377 1.15625C78.687 1.06188 79.0088 1.04795 79.3262 1.12109L79.8887 1.25C79.9856 1.27222 80.0772 1.27502 80.1699 1.26172L80.7324 1.17969C80.9949 1.14126 81.2614 1.14381 81.5234 1.18555L82.0859 1.2793C82.1782 1.29405 82.2714 1.28911 82.3672 1.26758L82.9297 1.13867C83.2652 1.06341 83.6022 1.09597 83.9199 1.21484L84.2012 1.32031L84.4824 1.41992C84.6153 1.46962 84.7411 1.50576 84.8633 1.51953L85.4258 1.57812C85.5849 1.59593 85.7477 1.60799 85.9062 1.60742L86.1875 1.60156H86.4688C86.5659 1.60091 86.6677 1.58238 86.7793 1.54297L87.0605 1.44922L87.3418 1.34961C87.5474 1.27685 87.7559 1.21142 87.9629 1.15625L88.5254 1.00391C88.8308 0.922538 89.1431 0.919725 89.4512 0.992188L89.7324 1.05664L90.0137 1.12695C90.1148 1.15087 90.2165 1.15111 90.3125 1.13867L90.875 1.06836C91.2465 1.02081 91.5986 1.10903 91.9062 1.28516L92.1875 1.44336L92.4688 1.60742C92.4766 1.61182 92.4817 1.6171 92.4863 1.61914L92.7617 1.55469L93.043 1.48438C93.2063 1.44434 93.3701 1.39449 93.5352 1.33789L93.8164 1.24414L94.0977 1.14453C94.4341 1.02901 94.7878 1.02107 95.1289 1.12695L95.6914 1.30273C95.7825 1.33102 95.8646 1.33554 95.9434 1.32617L96.2246 1.29688L96.5059 1.26172C96.6866 1.24022 96.87 1.21775 97.0508 1.19141L97.6133 1.10938C97.9301 1.06364 98.242 1.09969 98.5391 1.20898L98.8203 1.31445L99.0723 1.4082L99.3418 1.26758L99.623 1.12109C99.9449 0.954684 100.306 0.888545 100.678 0.962891L100.959 1.02148L101.24 1.07422C101.316 1.08935 101.389 1.08858 101.469 1.06836L102.031 0.927734C102.334 0.850114 102.646 0.845899 102.951 0.916016L103.514 1.04492C103.612 1.06721 103.707 1.07014 103.801 1.05664L104.363 0.974609C104.769 0.91665 105.143 1.03521 105.453 1.24414L105.734 1.43164L105.98 1.60156L106.186 1.52539L106.467 1.42578C106.656 1.3583 106.846 1.29261 107.035 1.22656L107.598 1.02734C107.93 0.911589 108.278 0.903798 108.617 1.00391L109.18 1.16797C109.379 1.22677 109.579 1.29226 109.777 1.36133L110.34 1.56055C110.375 1.57279 110.397 1.56998 110.428 1.56055L110.709 1.47266L110.99 1.37891C111.299 1.28096 111.621 1.26887 111.939 1.33789L112.502 1.45508C112.564 1.46861 112.626 1.46965 112.695 1.44922L113.258 1.28516C113.443 1.23057 113.629 1.17138 113.814 1.11523L114.096 1.0332L114.377 0.945312C114.698 0.848421 115.031 0.845391 115.355 0.933594L115.918 1.08594C115.979 1.10227 116.034 1.10147 116.094 1.08594L116.375 1.01562L116.656 0.939453C116.896 0.877493 117.143 0.846514 117.389 0.839844L117.67 0.828125L117.951 0.822266ZM117.705 2.32812L117.424 2.33984C117.296 2.34354 117.165 2.35815 117.031 2.39258L116.75 2.46875L116.469 2.53906C116.155 2.62016 115.832 2.61829 115.52 2.5332L114.957 2.38086C114.907 2.36768 114.864 2.36482 114.811 2.38086L114.529 2.46875L114.248 2.55078C114.059 2.60807 113.869 2.66501 113.68 2.7207L113.398 2.80273L113.117 2.89062C112.812 2.98003 112.497 2.99311 112.186 2.92578L111.904 2.86133L111.623 2.80273C111.567 2.79059 111.513 2.79375 111.447 2.81445L110.885 2.99023C110.541 3.09913 110.187 3.0907 109.848 2.97266L109.566 2.87891L109.285 2.7793C109.109 2.71806 108.933 2.66124 108.758 2.60938L108.477 2.52734L108.195 2.43945C108.161 2.42938 108.131 2.43077 108.09 2.44531L107.527 2.64453C107.342 2.70934 107.156 2.77167 106.971 2.83789L106.689 2.94336L106.408 3.04297C105.964 3.20155 105.526 3.10601 105.172 2.86719L104.891 2.67969L104.609 2.48633C104.584 2.46944 104.569 2.4594 104.562 2.45703H104.557L104.293 2.49805L104.012 2.53906C103.732 2.57922 103.45 2.56732 103.174 2.50391L102.611 2.375C102.542 2.35942 102.477 2.3627 102.406 2.38086L101.844 2.52148C101.549 2.59714 101.246 2.60493 100.947 2.54492L100.666 2.49219L100.385 2.43359C100.378 2.43217 100.372 2.4328 100.367 2.43359C100.361 2.43456 100.345 2.44134 100.314 2.45703L100.033 2.59766L99.752 2.74414C99.3898 2.93137 98.9826 2.97181 98.5859 2.82617L98.0234 2.61523C97.9467 2.58694 97.881 2.58352 97.8242 2.5918L97.2617 2.67383C97.0686 2.70195 96.8748 2.72702 96.6816 2.75L96.1191 2.82031C95.8234 2.85535 95.5296 2.82626 95.2461 2.73828L94.6836 2.5625C94.6506 2.55224 94.6268 2.5502 94.5898 2.5625L94.3086 2.66211L94.0273 2.75586C93.8189 2.8274 93.6047 2.89196 93.3945 2.94336L93.1133 3.00781L92.832 3.07812C92.4357 3.17445 92.0509 3.09837 91.7188 2.9082L91.4375 2.75L91.1562 2.58594C91.0912 2.54911 91.065 2.55631 91.0625 2.55664L90.5 2.62695C90.2228 2.66257 89.9459 2.64993 89.6738 2.58594L89.3926 2.51562L89.1113 2.45117C89.0452 2.43552 88.9809 2.43871 88.9121 2.45703L88.6309 2.52734L88.3496 2.60352C88.1823 2.64809 88.0144 2.70204 87.8457 2.76172L87.2832 2.96094C87.0211 3.05371 86.7456 3.10057 86.4688 3.10156H86.1875L85.9062 3.10742C85.6912 3.10809 85.4762 3.09622 85.2617 3.07227L84.9805 3.03711L84.6992 3.00781C84.4468 2.97955 84.1969 2.91662 83.9551 2.82617L83.3926 2.61523C83.3364 2.59447 83.2966 2.5948 83.2578 2.60352L82.6953 2.73242C82.4166 2.79502 82.1337 2.80086 81.8516 2.75586L81.5703 2.71484L81.2891 2.66797C81.1774 2.65011 81.0663 2.65192 80.9551 2.66797L80.3926 2.75C80.1114 2.79117 79.8258 2.77867 79.5488 2.71484L78.9863 2.58594C78.93 2.5731 78.8743 2.57228 78.8105 2.5918L78.5293 2.67969L78.248 2.76172C77.8608 2.87967 77.475 2.8327 77.1289 2.65625L76.8477 2.51562L76.5664 2.36914C76.4851 2.32764 76.4292 2.32043 76.3906 2.32227L75.8281 2.35742C75.7979 2.35921 75.733 2.3683 75.6348 2.43359L75.0723 2.80859C74.7804 3.00326 74.4396 3.12837 74.0645 3.11328L73.502 3.08984C73.1918 3.07704 72.8956 2.99096 72.623 2.84961L72.3418 2.70312L72.125 2.5918L71.9141 2.70898L71.6328 2.85547C71.2824 3.04149 70.8863 3.0934 70.4902 2.9668L70.209 2.87891L69.9277 2.78516C69.9137 2.78073 69.9064 2.78507 69.9043 2.78516C69.9012 2.78533 69.8885 2.78331 69.8691 2.79102L69.3066 3.01367C68.828 3.20403 68.3663 3.08076 68.0117 2.80859L67.7305 2.5918L67.4492 2.38086C67.4071 2.34855 67.3799 2.33311 67.3672 2.32812L66.8047 2.33984C66.7816 2.3405 66.7231 2.34815 66.6289 2.41016L66.3477 2.59766L66.0664 2.7793C65.752 2.98608 65.3767 3.10355 64.9707 3.03711L64.4082 2.94336C64.1326 2.89806 63.8676 2.80604 63.6172 2.67383L63.1953 2.44531L63.0137 2.58594L62.7324 2.79688C62.5586 2.92696 62.3396 3.02997 62.0879 3.06055C61.8314 3.09116 61.5889 3.03788 61.3789 2.93164L61.0977 2.79102L60.8164 2.64453C60.7254 2.59881 60.6567 2.59094 60.6055 2.5918L60.3242 2.59766H60.043C59.879 2.60041 59.7152 2.61485 59.5508 2.63281L58.9883 2.69141C58.7951 2.71253 58.6015 2.73343 58.4082 2.75L57.8457 2.79688C57.6475 2.81386 57.4463 2.82359 57.248 2.83203L56.9668 2.84961L56.6855 2.86133C56.5533 2.86715 56.4183 2.8844 56.2812 2.91992L56 2.99609L55.7188 3.06641C55.2683 3.18291 54.8519 3.05047 54.5234 2.80859L54.2422 2.60352L54.0254 2.44531L53.873 2.52148L53.5918 2.65039C53.2728 2.79571 52.9263 2.84416 52.5723 2.77344L52.291 2.7207L52.0098 2.66211C51.9286 2.64591 51.8472 2.64825 51.7637 2.66797L51.4824 2.73242L51.2012 2.80273C50.8446 2.88629 50.4901 2.84174 50.1641 2.69727L49.8828 2.57422L49.6133 2.45703L49.3496 2.5625L49.0684 2.67969C48.8456 2.77126 48.6175 2.84343 48.3887 2.89648L47.8262 3.02539C47.4401 3.11481 47.066 3.04645 46.7363 2.86719L46.1738 2.5625C46.0967 2.52054 46.0504 2.5196 46.0273 2.52148L45.4648 2.56836C45.2365 2.58683 45.0076 2.58215 44.7793 2.5625L44.2168 2.51562C44.0448 2.50083 43.873 2.49049 43.7012 2.48633L43.1387 2.47461C42.9415 2.46984 42.744 2.45798 42.5469 2.44531L41.9844 2.41016C41.902 2.40485 41.8131 2.41743 41.7148 2.45117L41.4336 2.55078L41.1523 2.64453C40.9236 2.72347 40.6899 2.77983 40.4551 2.81445L39.8926 2.89648C39.6301 2.93497 39.3636 2.93827 39.1016 2.89648L38.5391 2.80273C38.3812 2.77745 38.2213 2.76174 38.0645 2.75586L37.7832 2.74414L37.502 2.73828C37.2572 2.72902 37.0146 2.69072 36.7754 2.62695L36.2129 2.47461C36.1308 2.45278 36.0547 2.44909 35.9785 2.46289L35.416 2.56836C35.1792 2.61153 34.9404 2.63279 34.7012 2.62695L34.4199 2.61523L34.1387 2.60938C33.9691 2.60519 33.7985 2.60776 33.6289 2.61523L33.0664 2.63867C32.9529 2.6437 32.8332 2.66746 32.709 2.70898L32.1465 2.89648C31.7775 3.02026 31.3961 3.00116 31.0449 2.84961L30.4824 2.60352C30.3866 2.56247 30.3062 2.54977 30.2363 2.55078L29.6738 2.5625C29.5471 2.56502 29.4137 2.58069 29.2812 2.61523L29 2.69141L28.7188 2.76172C28.5157 2.81464 28.3132 2.86408 28.1094 2.90234L27.5469 3.00781C27.2424 3.06489 26.9354 3.04577 26.6387 2.96094L26.3574 2.88477L26.0762 2.80273C25.9797 2.7751 25.8933 2.74738 25.8301 2.72656C25.8009 2.71692 25.7652 2.70538 25.7305 2.69141C25.7206 2.6874 25.7068 2.67592 25.6895 2.66797C25.6707 2.66688 25.6481 2.66913 25.625 2.66797L25.3438 2.65625L25.0625 2.63867C25.0204 2.63656 24.9691 2.64796 24.8984 2.68555L24.6289 2.82617L24.3535 2.97266C23.9345 3.19476 23.4856 3.17004 23.0938 2.97266L22.7891 2.82031L22.4902 2.66797C22.459 2.65221 22.4433 2.65037 22.4434 2.65039L22.1973 2.73242L21.9219 2.81445C21.7039 2.88107 21.4783 2.9328 21.2539 2.9668L20.6914 3.04883C20.5045 3.07714 20.3172 3.10768 20.1289 3.13672L19.8477 3.18359L19.5605 3.22461C19.5178 3.23123 19.4724 3.25125 19.4141 3.30078L19.1797 3.49414L18.9453 3.69336C18.7421 3.86577 18.5206 4.01183 18.2832 4.12109L18.0254 4.23828L17.7734 4.35547C17.6214 4.42537 17.468 4.50225 17.3223 4.58398L17.082 4.71875L16.8359 4.85938C16.5841 5.00063 16.3076 5.08662 16.0215 5.12305L15.7285 5.1582L15.4355 5.19922C15.4287 5.20019 15.4197 5.19868 15.418 5.19922C15.416 5.20075 15.4123 5.21012 15.4062 5.2168L15.207 5.43359L15.0078 5.65625C14.8467 5.83432 14.6715 5.99417 14.4863 6.13672L14.2637 6.30664L14.0469 6.47656C13.8792 6.60559 13.7047 6.72944 13.5254 6.83984L13.2852 6.98633L13.0508 7.12695C12.911 7.21297 12.7729 7.30508 12.6406 7.40234L12.1953 7.73047C12.0197 7.85965 11.8377 7.98147 11.6445 8.08789L11.3984 8.22266L11.1465 8.35742C11.0073 8.43415 10.8766 8.52324 10.748 8.61523L10.5195 8.7793L10.2852 8.94336C10.1697 9.02623 10.0612 9.11748 9.96289 9.21875L9.76953 9.41797L9.57031 9.62305C9.40515 9.79292 9.22273 9.94435 9.02539 10.0801L8.78516 10.2441L8.55078 10.4082C8.54477 10.4123 8.54096 10.4177 8.53906 10.4199C8.53718 10.4226 8.529 10.4356 8.52148 10.4609L8.43359 10.7539L8.3457 11.0527C8.23463 11.4292 7.99608 11.7324 7.6543 11.9316L7.39648 12.084L7.17383 12.2129L7.13281 12.4766L7.08008 12.7871C7.02318 13.1241 6.87844 13.4346 6.63477 13.6895L6.44141 13.8945L6.24219 14.0996C6.06925 14.2804 5.87282 14.4422 5.65625 14.5859L5.39258 14.7617L5.12891 14.9316L5.08203 15.207L5.0293 15.5C4.97431 15.8047 4.8505 16.088 4.66602 16.3379L4.49609 16.5723L4.32031 16.8008C4.25679 16.8868 4.21411 16.9794 4.18555 17.0762L4.10352 17.3516L4.02734 17.627C3.98467 17.7723 3.94785 17.9199 3.92773 18.0723L3.85742 18.6465C3.81707 18.9497 3.70678 19.2343 3.54102 19.4902L3.38281 19.7363L3.21875 19.9824C3.20191 20.0084 3.19841 20.0307 3.20117 20.0645L3.22461 20.3574L3.24805 20.6562C3.26983 20.9231 3.25724 21.1879 3.20117 21.4473L3.08398 21.998C3.06686 22.0775 3.05911 22.1633 3.07812 22.2617L3.13672 22.5488L3.19531 22.8418C3.27845 23.2751 3.1511 23.6753 2.90234 23.9961L2.69727 24.2598L2.53906 24.459L2.60938 24.6465L2.71484 24.9336C2.85582 25.3213 2.8261 25.7228 2.65039 26.0879L2.51562 26.3691L2.38086 26.6562C2.35282 26.7145 2.35443 26.74 2.35742 26.7559L2.41016 27.0371L2.46289 27.3242C2.5024 27.5311 2.5333 27.7381 2.55664 27.9453L2.5918 28.2266L2.62109 28.5137C2.62606 28.554 2.64668 28.6077 2.70312 28.6836L2.89062 28.9414L3.08398 29.1992C3.38103 29.5986 3.4147 30.0715 3.23047 30.5059L3.0957 30.8223L3.04297 30.9395L3.1543 31.0391L3.41211 31.2676C3.75691 31.5701 3.95022 32.0045 3.86328 32.498L3.81055 32.8027L3.75195 33.1074C3.73131 33.2246 3.73407 33.3239 3.75195 33.4062L3.81641 33.6875L3.875 33.9629C3.90335 34.0929 3.94773 34.2184 4.00391 34.3379L4.25 34.8535C4.35318 35.0721 4.43293 35.3026 4.49023 35.5391L4.55469 35.8203L4.625 36.1016C4.6541 36.2217 4.70078 36.332 4.75977 36.4355L4.90039 36.6875L5.04102 36.9336C5.13263 37.0941 5.22705 37.2563 5.32227 37.4141L5.46875 37.6602L5.61523 37.9004C5.66373 37.9808 5.73081 38.0592 5.82031 38.1289L6.05469 38.3105L6.29492 38.498C6.49127 38.6511 6.67181 38.8216 6.82812 39.0078L7.00391 39.2188L7.18555 39.4355C7.34134 39.6211 7.47718 39.8233 7.58984 40.0391L7.72461 40.291L7.85352 40.543C7.95232 40.7323 8.04493 40.9309 8.12891 41.1348L8.24023 41.4102L8.32812 41.6152L8.60938 41.6973L8.93164 41.7793C9.27255 41.87 9.58865 42.0515 9.82227 42.3477L10.1738 42.793C10.2697 42.9147 10.3745 43.0305 10.4844 43.1387L10.6836 43.332L10.8828 43.5312C10.9984 43.6449 11.12 43.7516 11.2461 43.8535L11.6797 44.2051C11.84 44.3346 11.9977 44.4723 12.1484 44.6152L12.3535 44.8145L12.5586 45.0078C12.6345 45.0798 12.72 45.1396 12.8164 45.1836L13.0801 45.3008L13.3379 45.418C13.5955 45.5352 13.8246 45.697 14.0234 45.8984L14.2285 46.1035L14.4336 46.3145C14.532 46.414 14.6379 46.499 14.75 46.5723L14.9902 46.7305L15.2305 46.8828C15.281 46.9156 15.34 46.9395 15.4238 46.9473L16.0215 47.0059C16.4332 47.0433 16.781 47.238 17.0352 47.5449L17.2402 47.791L17.3984 47.9785L17.627 47.9609L17.9375 47.9316C18.2845 47.9007 18.6281 47.9641 18.9395 48.1426L19.1914 48.2891L19.4375 48.4297C19.4765 48.4521 19.517 48.4615 19.5723 48.459L19.8652 48.4473L20.1641 48.4297C20.4765 48.4143 20.7807 48.4746 21.0664 48.6055L21.3301 48.7227L21.5879 48.8457C21.6951 48.8949 21.8057 48.925 21.916 48.9395L22.1973 48.9746L22.4727 49.0098C22.6633 49.0347 22.8567 49.0636 23.0469 49.0918L23.3223 49.1328L23.6035 49.1738C23.672 49.184 23.7472 49.1783 23.8379 49.1504L24.4121 48.9746C24.7274 48.878 25.055 48.869 25.3789 48.9512L25.6543 49.0215L25.9355 49.0918C26.1493 49.1461 26.3618 49.2154 26.5742 49.2969L27.1367 49.5078C27.2281 49.5429 27.3071 49.5539 27.377 49.5488L27.6582 49.5312L27.9395 49.5078C28.0771 49.4977 28.2189 49.4765 28.3613 49.4375L28.6426 49.3613L28.9238 49.2793C29.1755 49.2106 29.4323 49.1762 29.6914 49.1797L30.2539 49.1914C30.487 49.1946 30.7207 49.2164 30.9512 49.2617L31.2324 49.3203L31.5137 49.373C31.6925 49.4083 31.8741 49.4382 32.0527 49.4668L32.6152 49.5605C32.7292 49.5787 32.8419 49.5818 32.9551 49.5664L33.5176 49.4844C33.7708 49.4497 34.0259 49.4509 34.2793 49.4844L34.5605 49.5254L34.8418 49.5605C34.9448 49.5742 35.0521 49.5708 35.1582 49.5488L35.7207 49.4316C35.9249 49.3895 36.1311 49.3533 36.3359 49.3262L36.8984 49.2559C37.1604 49.2214 37.423 49.2227 37.6836 49.2676L37.9648 49.3203L38.2461 49.3672C38.2748 49.3722 38.3128 49.3714 38.375 49.3438L38.6562 49.2207L38.9375 49.0918C39.2222 48.9645 39.5298 48.9007 39.8457 48.916L40.127 48.9277L40.4082 48.9453C40.587 48.9539 40.7685 48.96 40.9473 48.9629H41.2285L41.5098 48.9688C41.6553 48.971 41.8024 48.9611 41.9492 48.9395L42.5117 48.8574C42.7488 48.8225 42.9881 48.8145 43.2266 48.8281L43.5078 48.8398L43.7891 48.8574C44.016 48.8705 44.2443 48.9025 44.4688 48.9512L44.75 49.0098L45.0312 49.0742C45.2052 49.1119 45.3791 49.1449 45.5527 49.1738L46.1152 49.2676C46.1646 49.2758 46.2204 49.2709 46.291 49.2441L46.8535 49.0332C47.1101 48.9359 47.3784 48.8757 47.6504 48.8633L48.2129 48.8398C48.5688 48.824 48.8995 48.9238 49.1914 49.0977L49.4727 49.2676L49.7188 49.4082L49.9355 49.3262L50.2168 49.2148C50.5676 49.0753 50.941 49.0614 51.3008 49.1855L51.8633 49.3848C51.8977 49.3967 51.921 49.3942 51.9512 49.3848L52.2324 49.2969L52.5137 49.2031C52.9144 49.0745 53.3172 49.1347 53.668 49.3262L53.9492 49.4785L54.2188 49.625L54.4766 49.543L54.7578 49.4492C55.0038 49.3672 55.2579 49.3185 55.5137 49.3027L56.0762 49.2676C56.2672 49.2558 56.4593 49.2467 56.6504 49.2383L56.9316 49.2207L57.2129 49.209C57.4297 49.1994 57.6467 49.2039 57.8633 49.2207L58.4258 49.2676C58.5588 49.278 58.696 49.2746 58.8301 49.2559L59.3926 49.1738C59.7146 49.1291 60.0313 49.1747 60.3301 49.291L60.6113 49.3965L60.8926 49.5078C60.9132 49.5158 60.9242 49.5194 60.9277 49.5195C60.9311 49.5196 60.9382 49.5176 60.9512 49.5137L61.2324 49.4199L61.5137 49.332C61.7477 49.2571 61.9879 49.2046 62.2285 49.1797L62.791 49.1211C62.9511 49.1046 63.1159 49.0795 63.2773 49.0449L63.8398 48.9277C64.1936 48.8524 64.5439 48.8957 64.8652 49.0391L65.1465 49.168L65.4277 49.291C65.506 49.3257 65.5637 49.3308 65.6094 49.3262L65.8906 49.2969L66.1719 49.2734C66.4202 49.2486 66.6687 49.2491 66.916 49.2852L67.4785 49.3672C67.6619 49.394 67.8459 49.4197 68.0293 49.4434L68.3105 49.4844L68.5918 49.5195C68.715 49.5354 68.8377 49.5353 68.9609 49.5195L69.2422 49.4844L69.5234 49.4434C69.8038 49.4073 70.0865 49.4236 70.3613 49.4902L70.9238 49.6309C71.0043 49.65 71.0805 49.6521 71.1582 49.6367L71.7207 49.5195C71.8393 49.4957 71.9673 49.456 72.1016 49.3906L72.3828 49.25L72.6641 49.1152C72.9293 48.9858 73.2131 48.9062 73.5078 48.8867L73.7891 48.8633L74.0703 48.8457C74.273 48.8324 74.4769 48.829 74.6797 48.8281L74.9609 48.8223H75.2422C75.5902 48.8208 75.912 48.93 76.1973 49.1035L76.7598 49.4434C76.8578 49.503 76.9262 49.5168 76.9707 49.5195L77.5332 49.5547C77.7331 49.5654 77.937 49.5809 78.1367 49.6016L78.418 49.6309L78.6699 49.6543C78.676 49.6519 78.6951 49.6442 78.7285 49.6191L79.291 49.1973C79.4616 49.0689 79.6733 48.9632 79.918 48.9277C80.0439 48.9096 80.1686 48.9144 80.2871 48.9336L80.6211 49.0391L81.1836 49.2969C81.2695 49.3369 81.3369 49.3463 81.3887 49.3438L81.6699 49.332L81.9512 49.3145C82.1197 49.3051 82.292 49.2898 82.4609 49.2676L82.7422 49.2324L83.0234 49.1914C83.2238 49.1651 83.4264 49.1482 83.627 49.1328L84.1895 49.0859C84.5121 49.0615 84.825 49.1261 85.1152 49.2559L85.3965 49.3789L85.6777 49.5078C85.7412 49.5358 85.7814 49.536 85.8125 49.5312L86.0938 49.4844L86.375 49.4434L87.2188 49.3027L87.5 49.2617C87.7248 49.2258 87.9534 49.2044 88.1797 49.2031H88.7422C88.9715 49.2019 89.2001 49.2188 89.4277 49.2559L89.9902 49.3496C90.1489 49.3754 90.3073 49.3894 90.4648 49.3965L91.0273 49.4199C91.1005 49.4232 91.1831 49.4115 91.2793 49.373L91.8418 49.1504C92.2017 49.0066 92.585 49.0014 92.9492 49.1387L93.5117 49.3496C93.6525 49.4026 93.7893 49.4406 93.9219 49.4609L94.2031 49.502L94.4844 49.5488C94.6372 49.5722 94.7897 49.5816 94.9414 49.584L95.5039 49.5957C95.6321 49.5977 95.7644 49.5832 95.8965 49.5547L96.1777 49.4902L96.459 49.4316C96.6015 49.4007 96.7495 49.357 96.8984 49.2969L97.1797 49.1797L97.4609 49.0684L97.7656 48.9805C98.0714 48.9296 98.3769 48.9853 98.6562 49.1328L98.9375 49.2852L99.2188 49.4316C99.3272 49.4892 99.4198 49.5128 99.4941 49.5195L99.7754 49.543L100.057 49.5723C100.102 49.5762 100.163 49.5686 100.244 49.5312L100.807 49.2734C101.074 49.1502 101.359 49.1035 101.645 49.1445L101.932 49.2148L102.494 49.4141C102.571 49.4409 102.634 49.4408 102.693 49.4316L103.256 49.3496C103.491 49.3136 103.728 49.2988 103.965 49.3086L104.527 49.332C104.585 49.3342 104.654 49.3203 104.744 49.2793L105.025 49.1504L105.307 49.0273C105.622 48.8831 105.969 48.8277 106.32 48.8926L106.883 48.998C107.084 49.0352 107.286 49.0771 107.486 49.127L108.049 49.2676C108.092 49.2784 108.135 49.2799 108.189 49.2617L108.471 49.1621L108.752 49.0684C109.054 48.9654 109.372 48.9364 109.689 48.9922L109.971 49.0391L110.252 49.0918C110.386 49.1153 110.519 49.1262 110.65 49.1211L111.213 49.0977C111.386 49.0908 111.561 49.0788 111.734 49.0625L112.016 49.0332L112.297 49.0098C112.596 48.9815 112.893 49.0176 113.176 49.1152L113.738 49.3145C113.765 49.3237 113.782 49.3238 113.809 49.3145L114.371 49.1152C114.732 48.9884 115.108 48.9984 115.461 49.1387L116.023 49.3613C116.118 49.3988 116.198 49.4119 116.27 49.4082L116.551 49.3906L116.832 49.3789C116.908 49.3749 117.001 49.3546 117.107 49.3027L117.389 49.168L117.67 49.0273L117.969 48.9219C118.273 48.8502 118.588 48.8847 118.883 49.0273L119.164 49.1621L119.445 49.3027C119.508 49.3331 119.542 49.3295 119.562 49.3262L120.125 49.2324C120.358 49.1944 120.593 49.1789 120.828 49.1855L121.109 49.1914L121.391 49.2031C121.577 49.2084 121.766 49.2101 121.953 49.2148L122.234 49.2266L122.516 49.2324C122.63 49.2351 122.746 49.2228 122.867 49.1914L123.148 49.1152L123.43 49.0449C123.839 48.9381 124.236 49.0183 124.572 49.2207L125.135 49.5605C125.223 49.6134 125.277 49.6193 125.305 49.6191H125.867C125.95 49.6187 126.044 49.6039 126.148 49.5605L126.711 49.3262C126.994 49.2094 127.293 49.15 127.602 49.168L128.164 49.2031C128.338 49.2132 128.512 49.2201 128.686 49.2207H129.248C129.451 49.2214 129.654 49.2299 129.857 49.2441L130.139 49.2617L130.42 49.2852C130.616 49.299 130.815 49.3164 131.012 49.3379L131.574 49.3965C131.648 49.4046 131.731 49.3973 131.82 49.3672L132.383 49.1797C132.605 49.1049 132.83 49.0478 133.057 49.0098L133.619 48.916C133.908 48.8677 134.202 48.8763 134.486 48.9453L134.768 49.0156L135.049 49.0801C135.281 49.1365 135.51 49.2158 135.734 49.3145L136.297 49.5605C136.386 49.5996 136.455 49.6108 136.514 49.6074L136.795 49.5898L137.076 49.5781C137.185 49.5718 137.3 49.5473 137.422 49.502L137.984 49.291C138.261 49.1884 138.55 49.1411 138.846 49.1562L139.127 49.168L139.408 49.1855C139.594 49.195 139.779 49.2009 139.965 49.209L140.246 49.2207L140.527 49.2383C140.742 49.2476 140.958 49.2635 141.172 49.2969L141.453 49.3438L141.734 49.3848C141.789 49.3933 141.849 49.3937 141.922 49.3672L142.484 49.1562C142.8 49.0404 143.119 49.0493 143.41 49.1504L143.691 49.2793L143.973 49.4492L144.201 49.5781L144.412 49.4902L144.693 49.3672C144.993 49.2346 145.316 49.1798 145.648 49.2207L145.93 49.25L146.211 49.2852C146.275 49.293 146.345 49.2914 146.428 49.2617L146.709 49.1562L146.99 49.0566L147.312 48.9805C147.525 48.9583 147.734 48.9892 147.928 49.0625L148.209 49.209L148.49 49.3848L148.771 49.5664C148.86 49.6222 148.911 49.6251 148.93 49.625L149.211 49.6191H149.492C149.673 49.6178 149.856 49.6128 150.037 49.6074L150.318 49.6016L150.6 49.5898C150.79 49.5842 150.983 49.5808 151.174 49.5781H151.455L151.736 49.5723C151.84 49.5706 151.949 49.5525 152.064 49.5137L152.346 49.4199L152.627 49.3203C152.948 49.2117 153.282 49.2008 153.611 49.2793L153.898 49.3438L154.191 49.4141C154.217 49.42 154.231 49.4196 154.256 49.4082L154.531 49.2793L154.801 49.1562C155.052 49.04 155.317 48.9667 155.592 48.9395L155.873 48.9102L156.148 48.8809C156.319 48.8638 156.494 48.8443 156.664 48.8164L156.939 48.7695L157.221 48.7227C157.286 48.7118 157.352 48.6865 157.426 48.6348L157.672 48.459L157.912 48.2891C158.198 48.0854 158.531 47.9729 158.885 47.9727H159.494C159.496 47.972 159.505 47.9715 159.518 47.9609L159.746 47.7676L159.969 47.5801C160.31 47.2985 160.726 47.22 161.129 47.2871L161.457 47.3398L161.785 47.3984C161.896 47.4167 161.962 47.4013 162.002 47.3867L162.271 47.2871L162.541 47.1934C162.656 47.1516 162.764 47.0955 162.863 47.0234L163.098 46.8535L163.326 46.6836C163.39 46.6373 163.458 46.5696 163.52 46.4668L163.848 45.916C164.023 45.6229 164.269 45.3818 164.592 45.2305L164.85 45.1074L165.102 44.9902C165.254 44.9187 165.405 44.8391 165.553 44.7559L165.799 44.6211L166.045 44.4805C166.186 44.4009 166.324 44.3107 166.455 44.2168L166.912 43.8887C167.041 43.7963 167.164 43.6962 167.281 43.5898L167.703 43.2148C167.832 43.0981 167.955 42.9749 168.078 42.8516L168.477 42.4531C168.6 42.329 168.722 42.202 168.84 42.0723L169.033 41.8613L169.221 41.6504C169.37 41.4852 169.534 41.3315 169.707 41.1875L169.924 41.0059L170.146 40.8184C170.232 40.7466 170.305 40.6647 170.363 40.5723L170.51 40.332L170.662 40.0918C170.73 39.9834 170.789 39.8644 170.832 39.7344L170.92 39.459L171.014 39.1777C171.09 38.9483 171.184 38.7277 171.301 38.5215L171.441 38.2812L171.576 38.041C171.725 37.7782 171.932 37.5564 172.174 37.3789L172.666 37.0156C172.737 36.9636 172.774 36.9147 172.795 36.8691L173.029 36.3535C173.131 36.1305 173.255 35.9181 173.404 35.7207L173.586 35.4863L173.762 35.252C173.8 35.2005 173.823 35.1473 173.832 35.082L173.867 34.7891L173.908 34.502C173.929 34.3465 173.94 34.183 173.938 34.0215L173.932 33.7285L173.926 33.4297C173.919 33.0853 174.008 32.7544 174.195 32.4629L174.512 31.9707C174.572 31.8775 174.613 31.7843 174.635 31.6895L174.699 31.4141L174.758 31.1387C174.8 30.9513 174.847 30.7632 174.893 30.5762L174.957 30.3008L175.027 30.0254C175.063 29.8796 175.084 29.7295 175.098 29.5801L175.127 29.2988L175.15 29.0176C175.172 28.7726 175.226 28.5328 175.303 28.2969L175.391 28.0215L175.479 27.7402C175.507 27.6526 175.516 27.569 175.508 27.4824L175.484 27.1953L175.455 26.9082C175.437 26.718 175.419 26.5286 175.402 26.3398L175.379 26.0527L175.35 25.7715C175.324 25.4898 175.352 25.2071 175.426 24.9336L175.508 24.6465L175.549 24.4766L175.35 24.2656L175.104 24.0078C174.851 23.7417 174.657 23.3958 174.641 22.9824L174.629 22.707L174.617 22.4258C174.61 22.2596 174.601 22.0933 174.582 21.9277L174.547 21.6523L174.518 21.377C174.501 21.2364 174.47 21.0963 174.43 20.9609L174.354 20.6914L174.271 20.4277C174.209 20.2211 174.162 20.0082 174.125 19.7949L174.072 19.5195L174.025 19.2441C174 19.1009 173.967 18.9588 173.92 18.8223L173.732 18.2949C173.686 18.1621 173.631 18.0325 173.562 17.9082L173.422 17.6621L173.287 17.416C173.118 17.1114 173.055 16.778 173.076 16.4434L173.1 16.127L173.111 15.8809L172.936 15.7402L172.695 15.5469C172.426 15.3322 172.225 15.0526 172.121 14.7148L172.033 14.4395L171.951 14.1699C171.926 14.087 171.888 14.0154 171.834 13.9531L171.646 13.7363L171.459 13.5254C171.335 13.3827 171.212 13.2388 171.09 13.0977L170.908 12.8867L170.721 12.6758C170.552 12.4815 170.414 12.2651 170.305 12.0312L170.182 11.7734L170.064 11.5156C170.022 11.4241 169.963 11.3472 169.895 11.2812L169.695 11.082L169.49 10.8887C169.277 10.6822 169.117 10.435 169.004 10.1621L168.887 9.88672L168.781 9.62305L168.506 9.51172L168.225 9.40039C167.862 9.25656 167.581 8.99522 167.41 8.64453L167.275 8.375L167.152 8.12305L166.889 8.04688L166.596 7.96484C166.318 7.88517 166.057 7.75926 165.828 7.58398L165.611 7.41406L165.389 7.24414C165.165 7.07245 164.978 6.86256 164.826 6.62305L164.656 6.36523L164.533 6.17188L164.287 6.16016L163.971 6.14844C163.638 6.13359 163.312 6.03985 163.027 5.84375L162.799 5.68555L162.564 5.52734C162.373 5.39593 162.195 5.2428 162.025 5.07617L161.814 4.86523L161.598 4.66016L161.592 4.6543H161.58L160.982 4.63086C160.592 4.61563 160.245 4.45979 159.969 4.19141L159.746 3.97461L159.535 3.76953L159.266 3.78711L158.961 3.79883C158.589 3.81594 158.241 3.70722 157.941 3.48828L157.695 3.3125L157.449 3.13086C157.418 3.10825 157.403 3.10676 157.385 3.10742L156.799 3.13086C156.526 3.14091 156.257 3.10839 155.996 3.03125L155.721 2.94922L155.451 2.86719C155.295 2.82075 155.131 2.7855 154.971 2.75586L154.695 2.70312L154.414 2.65039C154.306 2.6304 154.194 2.6296 154.08 2.64453L153.793 2.67969L153.512 2.71484C153.322 2.73967 153.13 2.76598 152.943 2.79102L152.662 2.83203L152.381 2.86719C152.109 2.90354 151.835 2.89255 151.566 2.83789L151.285 2.78516L151.004 2.72656C150.785 2.68193 150.569 2.61827 150.354 2.54492L149.791 2.35742C149.739 2.33971 149.699 2.34057 149.656 2.35156L149.094 2.49219C148.953 2.52868 148.809 2.58157 148.66 2.65039L148.379 2.78516L148.098 2.91406C147.688 3.10418 147.249 3.08269 146.861 2.87305L146.58 2.7207L146.375 2.60938L146.17 2.7207L145.889 2.87305C145.531 3.06688 145.125 3.11331 144.723 2.97266L144.441 2.87891L144.16 2.7793C144.073 2.74869 143.996 2.74226 143.926 2.75L143.363 2.80859C143.123 2.835 142.883 2.83909 142.643 2.81445L142.08 2.75586C141.995 2.74711 141.907 2.7562 141.811 2.78516L141.529 2.86719L141.248 2.95508C140.948 3.04525 140.637 3.06053 140.328 3.00195L139.766 2.89648C139.676 2.87963 139.587 2.87738 139.496 2.89648L139.215 2.96094L138.934 3.01953C138.519 3.10619 138.131 2.99698 137.809 2.78516L137.527 2.59766L137.322 2.45703L137.146 2.55078L136.865 2.69141C136.548 2.84984 136.197 2.91592 135.834 2.84961L135.271 2.74414C135.084 2.70992 134.896 2.67948 134.709 2.64453L134.146 2.53906C134.002 2.51216 133.855 2.49877 133.713 2.49805L133.432 2.49219H133.15C133.122 2.49238 133.067 2.49868 132.98 2.55078L132.418 2.89062C132.119 3.07038 131.778 3.17175 131.41 3.14258L130.848 3.0957C130.56 3.07267 130.282 2.99746 130.021 2.87305L129.459 2.60352L129.453 2.59766L129.184 2.69141L128.902 2.79102C128.604 2.89412 128.291 2.92307 127.977 2.87305L127.695 2.83203L127.414 2.78516C127.284 2.76451 127.155 2.75776 127.027 2.76758L126.465 2.81445C126.327 2.82508 126.185 2.85105 126.043 2.89062L125.48 3.04297C125.133 3.13926 124.781 3.11795 124.449 2.99023L124.168 2.88477L123.887 2.77344C123.732 2.71405 123.58 2.667 123.43 2.63281L122.867 2.50391C122.795 2.48746 122.724 2.49154 122.65 2.50977L122.088 2.65039C121.891 2.69915 121.693 2.74415 121.496 2.78516L120.934 2.90234C120.701 2.95076 120.466 2.97552 120.23 2.97852L119.949 2.98438H119.668C119.32 2.98852 118.994 2.88636 118.707 2.71484L118.145 2.375C118.06 2.32476 118.009 2.32165 117.986 2.32227L117.705 2.32812ZM26.4043 1.36719C26.4337 1.38966 26.4716 1.40874 26.5039 1.44336C26.4924 1.43238 26.4834 1.42156 26.4746 1.41406C26.4498 1.39291 26.4261 1.37803 26.4102 1.36719H26.4043ZM77.8262 1.33203C77.8239 1.33124 77.82 1.32878 77.8145 1.32617L77.8262 1.33203Z" fill="#1E1E1E"/>
</svg>
