<svg width="178" height="52" viewBox="0 0 178 52" fill="none" xmlns="http://www.w3.org/2000/svg">
<path d="M2 26C2 12.7452 12.7452 2 26 2H152C165.255 2 176 12.7452 176 26V26C176 39.2548 165.255 50 152 50H26C12.7452 50 2 39.2548 2 26V26Z" fill="white"/>
<path d="M148.273 2.4375L147.898 2.45312C147.727 2.45806 147.553 2.47753 147.375 2.52344L147 2.625L146.625 2.71875C146.206 2.82687 145.776 2.82439 145.359 2.71094L144.609 2.50781C144.543 2.49024 144.485 2.48643 144.414 2.50781L144.039 2.625L143.664 2.73438C143.412 2.81075 143.159 2.88668 142.906 2.96094L142.531 3.07031L142.156 3.1875C141.75 3.30671 141.33 3.32415 140.914 3.23438L140.539 3.14844L140.164 3.07031C140.089 3.05412 140.017 3.05834 139.93 3.08594L139.18 3.32031C138.722 3.4655 138.249 3.45426 137.797 3.29688L137.422 3.17188L137.047 3.03906C136.812 2.95742 136.577 2.88166 136.344 2.8125L135.969 2.70312L135.594 2.58594C135.548 2.5725 135.509 2.57436 135.453 2.59375L134.703 2.85938C134.456 2.94578 134.208 3.02889 133.961 3.11719L133.586 3.25781L133.211 3.39062C132.618 3.60206 132.035 3.47468 131.562 3.15625L131.188 2.90625L130.812 2.64844C130.779 2.62592 130.759 2.61253 130.75 2.60938H130.742L130.391 2.66406L130.016 2.71875C129.642 2.77229 129.266 2.75643 128.898 2.67188L128.148 2.5C128.056 2.47923 127.97 2.48361 127.875 2.50781L127.125 2.69531C126.731 2.79619 126.329 2.80658 125.93 2.72656L125.555 2.65625L125.18 2.57812C125.17 2.57622 125.163 2.57706 125.156 2.57812C125.148 2.57941 125.126 2.58845 125.086 2.60938L124.711 2.79688L124.336 2.99219C123.853 3.24184 123.31 3.29574 122.781 3.10156L122.031 2.82031C121.929 2.78258 121.841 2.77803 121.766 2.78906L121.016 2.89844C120.758 2.93593 120.5 2.96936 120.242 3L119.492 3.09375C119.098 3.14047 118.706 3.10168 118.328 2.98438L117.578 2.75C117.534 2.73632 117.502 2.73361 117.453 2.75L117.078 2.88281L116.703 3.00781C116.425 3.10321 116.14 3.18928 115.859 3.25781L115.484 3.34375L115.109 3.4375C114.581 3.56593 114.068 3.46449 113.625 3.21094L113.25 3L112.875 2.78125C112.788 2.73215 112.753 2.74175 112.75 2.74219L112 2.83594C111.63 2.88343 111.261 2.86657 110.898 2.78125L110.523 2.6875L110.148 2.60156C110.06 2.5807 109.975 2.58494 109.883 2.60938L109.508 2.70312L109.133 2.80469C108.91 2.86412 108.686 2.93606 108.461 3.01562L107.711 3.28125C107.361 3.40494 106.994 3.46743 106.625 3.46875H106.25L105.875 3.47656C105.588 3.47745 105.302 3.46162 105.016 3.42969L104.641 3.38281L104.266 3.34375C103.929 3.30607 103.596 3.22216 103.273 3.10156L102.523 2.82031C102.449 2.79263 102.395 2.79306 102.344 2.80469L101.594 2.97656C101.222 3.06002 100.845 3.06782 100.469 3.00781L100.094 2.95312L99.7188 2.89062C99.5698 2.86682 99.4217 2.86923 99.2734 2.89062L98.5234 3C98.1485 3.05489 97.7677 3.03823 97.3984 2.95312L96.6484 2.78125C96.5733 2.76413 96.4991 2.76304 96.4141 2.78906L96.0391 2.90625L95.6641 3.01562C95.1477 3.17289 94.6333 3.11027 94.1719 2.875L93.7969 2.6875L93.4219 2.49219C93.3134 2.43685 93.2389 2.42725 93.1875 2.42969L92.4375 2.47656C92.3972 2.47894 92.3107 2.49106 92.1797 2.57812L91.4297 3.07812C91.0405 3.33767 90.5862 3.5045 90.0859 3.48438L89.3359 3.45312C88.9224 3.43605 88.5275 3.32128 88.1641 3.13281L87.7891 2.9375L87.5 2.78906L87.2188 2.94531L86.8438 3.14062C86.3765 3.38865 85.8484 3.45787 85.3203 3.28906L84.9453 3.17188L84.5703 3.04688C84.5516 3.04097 84.5418 3.04677 84.5391 3.04688C84.5349 3.0471 84.518 3.0444 84.4922 3.05469L83.7422 3.35156C83.104 3.60537 82.4883 3.44102 82.0156 3.07812L81.6406 2.78906L81.2656 2.50781C81.2095 2.46473 81.1732 2.44414 81.1562 2.4375L80.4062 2.45312C80.3754 2.45401 80.2975 2.4642 80.1719 2.54688L79.7969 2.79688L79.4219 3.03906C79.0027 3.31477 78.5023 3.4714 77.9609 3.38281L77.2109 3.25781C76.8435 3.19741 76.4901 3.07472 76.1562 2.89844L75.5938 2.59375L75.3516 2.78125L74.9766 3.0625C74.7449 3.23595 74.4529 3.37329 74.1172 3.41406C73.7753 3.45489 73.4519 3.38385 73.1719 3.24219L72.7969 3.05469L72.4219 2.85938C72.3005 2.79841 72.2089 2.78793 72.1406 2.78906L71.7656 2.79688H71.3906C71.172 2.80054 70.9535 2.81979 70.7344 2.84375L69.9844 2.92188C69.7268 2.95005 69.4686 2.97791 69.2109 3L68.4609 3.0625C68.1967 3.08515 67.9284 3.09812 67.6641 3.10938L67.2891 3.13281L66.9141 3.14844C66.7378 3.1562 66.5578 3.1792 66.375 3.22656L66 3.32812L65.625 3.42188C65.0244 3.57721 64.4692 3.40063 64.0312 3.07812L63.6562 2.80469L63.3672 2.59375L63.1641 2.69531L62.7891 2.86719C62.3637 3.06095 61.9018 3.12555 61.4297 3.03125L61.0547 2.96094L60.6797 2.88281C60.5715 2.86121 60.463 2.86433 60.3516 2.89062L59.9766 2.97656L59.6016 3.07031C59.1262 3.18172 58.6535 3.12232 58.2188 2.92969L57.8438 2.76562L57.4844 2.60938L57.1328 2.75L56.7578 2.90625C56.4608 3.02835 56.1566 3.12458 55.8516 3.19531L55.1016 3.36719C54.5868 3.48641 54.088 3.39527 53.6484 3.15625L52.8984 2.75C52.7956 2.69405 52.7339 2.69281 52.7031 2.69531L51.9531 2.75781C51.6486 2.78243 51.3435 2.7762 51.0391 2.75L50.2891 2.6875C50.0598 2.66777 49.8306 2.65399 49.6016 2.64844L48.8516 2.63281C48.5887 2.62646 48.3253 2.61064 48.0625 2.59375L47.3125 2.54688C47.2026 2.53981 47.0841 2.55657 46.9531 2.60156L46.5781 2.73438L46.2031 2.85938C45.8982 2.96463 45.5866 3.03978 45.2734 3.08594L44.5234 3.19531C44.1734 3.24663 43.8181 3.25102 43.4688 3.19531L42.7188 3.07031C42.5082 3.0366 42.295 3.01565 42.0859 3.00781L41.7109 2.99219L41.3359 2.98438C41.0096 2.97203 40.6861 2.92095 40.3672 2.83594L39.6172 2.63281C39.5077 2.60371 39.4063 2.59879 39.3047 2.61719L38.5547 2.75781C38.2389 2.81538 37.9206 2.84372 37.6016 2.83594L37.2266 2.82031L36.8516 2.8125C36.6254 2.80692 36.3981 2.81035 36.1719 2.82031L35.4219 2.85156C35.2706 2.85827 35.1109 2.88995 34.9453 2.94531L34.1953 3.19531C33.7034 3.36035 33.1947 3.33488 32.7266 3.13281L31.9766 2.80469C31.8489 2.74996 31.7416 2.73302 31.6484 2.73438L30.8984 2.75C30.7295 2.75336 30.5516 2.77426 30.375 2.82031L30 2.92188L29.625 3.01562C29.3543 3.08619 29.0842 3.1521 28.8125 3.20312L28.0625 3.34375C27.6566 3.41986 27.2472 3.39436 26.8516 3.28125L26.4766 3.17969L26.3594 3.14062C26.3499 3.14445 26.3454 3.16055 26.3359 3.16406C26.0083 3.28467 25.7206 3.19631 25.6641 3.17969C25.489 3.12769 25.338 3.03744 25.2656 2.99219L25.0859 2.86719L24.8203 2.97656L24.4531 3.125C23.9541 3.32066 23.4377 3.30168 22.9609 3.11719L22.5625 2.96094L22.1875 2.8125L21.9062 2.97656L21.5547 3.17188C21.2689 3.33028 20.9751 3.46423 20.6719 3.5625L20.3125 3.67188L19.9531 3.78906C19.7294 3.8615 19.5081 3.94131 19.2891 4.02344L18.5859 4.28906C18.3341 4.38351 18.0781 4.46731 17.8203 4.54688L17.1016 4.76562C16.9522 4.81173 16.8123 4.88205 16.6797 4.96875L16.3594 5.17188L16.0469 5.38281C15.7026 5.60813 15.3185 5.74251 14.9141 5.79688L14.1172 5.90625H14.1016L14.0938 5.91406L13.8359 6.21875L13.5859 6.52344C13.3876 6.75995 13.1762 6.97959 12.9531 7.17969L12.3906 7.67969C12.2485 7.80734 12.1199 7.9492 12 8.10156L11.5312 8.69531C11.2469 9.05636 10.8695 9.30802 10.4453 9.45312L10.0625 9.57812L9.67969 9.71094C9.5928 9.74066 9.55557 9.78093 9.53125 9.8125L9.29688 10.1094L9.07031 10.4062C8.87928 10.6542 8.66314 10.8839 8.42969 11.0938L8.14844 11.3516L7.86719 11.6016C7.69856 11.7532 7.53231 11.9122 7.375 12.0781L7.10938 12.3594L6.85156 12.6328C6.74855 12.7415 6.66575 12.8648 6.60156 13L6.27344 13.6875C6.12075 14.0092 5.92077 14.3065 5.67969 14.5703L5.14844 15.1484C5.08258 15.2204 5.03865 15.3002 5.01562 15.3906L4.82812 16.1406C4.79276 16.2795 4.77628 16.4341 4.78906 16.6094L4.85156 17.4375C4.87899 17.807 4.85615 18.177 4.76562 18.5312L4.57812 19.25C4.51779 19.4848 4.45837 19.7193 4.39844 19.9531L4.30469 20.3125L4.21875 20.6641C4.11058 21.0861 3.88613 21.4536 3.60156 21.7656L3.30469 22.0938L3.00781 22.4141C2.92035 22.5097 2.89852 22.5767 2.89062 22.6172L2.75 23.3672C2.70468 23.6125 2.6594 23.8615 2.61719 24.1094L2.55469 24.4922L2.49219 24.8203C2.49753 24.8299 2.5101 24.8413 2.52344 24.8594L2.80469 25.2422L3.08594 25.6172C3.44302 26.0999 3.58807 26.7167 3.33594 27.3438L3.02344 28.1094C2.98592 28.2038 2.98415 28.2657 2.99219 28.3125L3.0625 28.6875L3.125 29.0547C3.16006 29.2557 3.21093 29.4535 3.27344 29.6484L3.39062 30.0156L3.5 30.375L3.96875 31.7812C4.09737 32.1688 4.13157 32.5747 4.08594 32.9766L4.03906 33.3828L3.99219 33.7969C3.98413 33.8709 3.99511 33.9 4.00781 33.9219L4.20312 34.25L4.39062 34.5859C4.50849 34.7891 4.6365 34.9868 4.76562 35.1797L4.97656 35.5L5.1875 35.8125C5.34436 36.0468 5.49131 36.2869 5.625 36.5312L5.98438 37.1875C6.12059 37.4367 6.24845 37.696 6.35938 37.9609L6.5 38.3125L6.64844 38.6641C6.72344 38.8433 6.81721 39.0184 6.92188 39.1797L7.125 39.4922L7.32812 39.8125C7.37103 39.8786 7.43746 39.9434 7.53906 40L8.24219 40.3906C8.67405 40.6315 9.00186 40.9927 9.1875 41.4531L9.33594 41.8281L9.48438 42.1953C9.5511 42.3611 9.63602 42.505 9.73438 42.6328L10.2031 43.2422C10.3192 43.393 10.4444 43.5326 10.5859 43.6562L11.1641 44.1562C11.282 44.2591 11.4136 44.3458 11.5625 44.4141L12.2656 44.7422C12.4259 44.8155 12.6014 44.8699 12.7891 44.9062L13.1875 44.9844L13.5781 45.0547C14.1269 45.1607 14.5691 45.481 14.8594 45.9375L15.0859 46.2969L15.3125 46.6484C15.3887 46.7682 15.4609 46.8407 15.5312 46.8828L16.1875 47.2734C16.2262 47.2965 16.2833 47.3165 16.3828 47.3125L17.2109 47.2812C17.7131 47.2612 18.1901 47.4026 18.5938 47.7188L18.9062 47.9609L19.2188 48.2109C19.2868 48.2643 19.3464 48.2818 19.4062 48.2891L19.7891 48.3359L20.1719 48.375C20.4653 48.4084 20.7546 48.4611 21.0391 48.5312L21.4062 48.625L21.7734 48.7109C21.8276 48.7243 21.8964 48.7342 22 48.7031L22.3906 48.5781L22.7812 48.4609C23.2034 48.3333 23.6486 48.3128 24.0859 48.4297L24.4453 48.5312L24.8125 48.625C25.053 48.6894 25.2998 48.7544 25.5469 48.8203L25.9141 48.9219L26.2891 49.0234C26.3387 49.0363 26.3864 49.0381 26.4531 49.0156L26.8281 48.8828L27.2031 48.7578C27.6059 48.6205 28.0304 48.5818 28.4531 48.6562L28.8281 48.7188L29.2031 48.7891C29.3819 48.8203 29.5586 48.8349 29.7344 48.8281L30.4844 48.7969C30.7153 48.7877 30.9486 48.7718 31.1797 48.75L31.5547 48.7109L31.9297 48.6797C32.3289 48.6419 32.7245 48.69 33.1016 48.8203L33.8516 49.0859C33.8876 49.0984 33.9086 49.0988 33.9453 49.0859L34.6953 48.8203C35.1767 48.6513 35.6781 48.6646 36.1484 48.8516L36.8984 49.1484C37.0241 49.1981 37.1312 49.2158 37.2266 49.2109L37.6016 49.1875L37.9766 49.1719C38.0775 49.1665 38.1953 49.1382 38.3359 49.0703L38.7109 48.8906L39.0859 48.7031C39.6109 48.4481 40.1854 48.449 40.7109 48.7031L41.0859 48.8828L41.4609 49.0703C41.5442 49.1106 41.5901 49.106 41.6172 49.1016L42.3672 48.9766C42.6783 48.9259 42.9912 48.9051 43.3047 48.9141L43.6797 48.9219L44.0547 48.9375C44.3036 48.9446 44.5558 48.9468 44.8047 48.9531L45.1797 48.9688L45.5547 48.9766C45.7066 48.9801 45.8625 48.9638 46.0234 48.9219L46.3984 48.8203L46.7734 48.7266C47.3178 48.5844 47.8416 48.6922 48.2891 48.9609L49.0391 49.4141C49.1587 49.4861 49.2356 49.4924 49.2734 49.4922H50.0234C50.1319 49.4915 50.253 49.4705 50.3906 49.4141L51.1406 49.1016C51.5186 48.9452 51.9235 48.8666 52.3359 48.8906L53.0859 48.9375C53.3172 48.951 53.55 48.9601 53.7812 48.9609H54.5312C54.8022 48.9619 55.073 48.9732 55.3438 48.9922L55.7188 49.0156L56.0938 49.0469C56.3561 49.0653 56.6206 49.0885 56.8828 49.1172L57.6328 49.1953C57.7315 49.2061 57.8416 49.1964 57.9609 49.1562L58.7109 48.9062C59.0075 48.8066 59.3068 48.7304 59.6094 48.6797L60.3594 48.5547C60.7445 48.4903 61.1364 48.5018 61.5156 48.5938L61.8906 48.6875L62.2656 48.7734C62.575 48.8486 62.8802 48.9545 63.1797 49.0859L63.9297 49.4141C64.0484 49.4662 64.1403 49.4811 64.2188 49.4766L64.5938 49.4531L64.9688 49.4375C65.1133 49.4291 65.2669 49.3964 65.4297 49.3359L66.1797 49.0547C66.5482 48.9181 66.9342 48.8549 67.3281 48.875L67.7031 48.8906L68.0781 48.9141C68.3253 48.9267 68.5731 48.9346 68.8203 48.9453L69.1953 48.9609L69.5703 48.9844C69.8571 48.9969 70.1441 49.018 70.4297 49.0625L70.8047 49.125L71.1797 49.1797C71.2524 49.191 71.3316 49.1918 71.4297 49.1562L72.1797 48.875C72.6008 48.7205 73.0255 48.7321 73.4141 48.8672L73.7891 49.0391L74.1641 49.2656L74.4688 49.4375L74.75 49.3203L75.125 49.1562C75.525 48.9797 75.9547 48.9063 76.3984 48.9609L76.7734 49L77.1484 49.0469C77.234 49.0574 77.327 49.0554 77.4375 49.0156L77.8125 48.875L78.1875 48.7422L78.6172 48.6406C78.9008 48.6113 79.1787 48.6522 79.4375 48.75L79.8125 48.9453L80.1875 49.1797L80.5625 49.4219C80.6747 49.4928 80.7393 49.4997 80.7656 49.5L81.1406 49.4922H81.5156C81.7582 49.4904 82.0074 49.4838 82.25 49.4766L82.625 49.4688L83 49.4531C83.254 49.4456 83.5116 49.4411 83.7656 49.4375H84.1406L84.5156 49.4297C84.6631 49.4273 84.8158 49.402 84.9766 49.3516L85.7266 49.1172C86.1724 48.9773 86.6328 48.9763 87.0781 49.1172L87.8281 49.3516C87.8766 49.3669 87.9101 49.3682 87.9609 49.3516L88.3359 49.2266L88.7109 49.1094C89.0765 48.9887 89.4593 48.936 89.8438 48.9609L90.5938 49.0078C90.8374 49.0236 91.0845 49.035 91.3281 49.0469L91.7031 49.0703L92.0781 49.0859C92.1817 49.0905 92.2932 49.0713 92.4219 49.0234L93.1719 48.7422C93.6262 48.572 94.1113 48.5568 94.5781 48.7031L95.3281 48.9375C95.3693 48.9501 95.3982 48.9535 95.4453 48.9375L96.1953 48.6719C96.6252 48.5225 97.0526 48.5491 97.4375 48.6953L97.8125 48.8828L98.1875 49.1172L98.5625 49.3594C98.7032 49.4482 98.8059 49.4775 98.875 49.4844L99.25 49.5156L99.625 49.5547C99.7967 49.5717 99.968 49.57 100.141 49.5469L100.516 49.5L100.891 49.4453C101.009 49.4294 101.147 49.389 101.305 49.3047L102.055 48.8984C102.469 48.6772 102.935 48.5762 103.422 48.6484L103.797 48.7031L104.172 48.7656C104.412 48.8017 104.658 48.8304 104.898 48.8594L105.648 48.9531C105.878 48.9807 106.107 49.0017 106.336 49.0156L107.086 49.0625C107.312 49.0762 107.539 49.0796 107.766 49.0781H108.141L108.516 49.0703C108.764 49.0686 109.018 49.0658 109.266 49.0625H109.641L110.016 49.0547C110.264 49.0514 110.517 49.0504 110.766 49.0469L111.516 49.0312C111.828 49.027 112.143 49.0548 112.453 49.1094L112.828 49.1719L113.203 49.2422C113.363 49.2701 113.522 49.2733 113.68 49.2578L114.055 49.2266L114.43 49.1875C114.613 49.1694 114.802 49.135 114.992 49.0781L115.367 48.9609L115.742 48.8516C116.065 48.7553 116.394 48.6955 116.727 48.6797L117.477 48.6484C117.897 48.6288 118.308 48.713 118.688 48.8828L119.062 49.0469L119.438 49.2188C119.558 49.2725 119.654 49.2847 119.734 49.2812L120.484 49.25C120.826 49.2354 121.165 49.2738 121.5 49.3516L122.25 49.5234C122.345 49.5454 122.435 49.5393 122.531 49.5156L122.906 49.4297L123.281 49.3359C123.497 49.2821 123.718 49.2117 123.938 49.1328L124.688 48.8672C125.135 48.7061 125.604 48.6903 126.062 48.8281L126.812 49.0469C126.97 49.0942 127.121 49.1184 127.266 49.1172H127.641L128.016 49.1094C128.286 49.1068 128.558 49.1104 128.828 49.125L129.578 49.1719C129.793 49.1835 130.011 49.1826 130.227 49.1719L130.602 49.1484L130.977 49.1328C131.32 49.1157 131.663 49.1496 132 49.2266L132.75 49.3984C132.881 49.4281 133.007 49.4315 133.133 49.4141L133.883 49.3047C134.15 49.2669 134.42 49.235 134.688 49.2109L135.438 49.1484C135.828 49.1133 136.214 49.1602 136.586 49.2812L136.961 49.3984L137.195 49.4766L137.531 49.2188L137.906 48.9219C138.303 48.6108 138.806 48.405 139.375 48.4609L139.75 48.5L140.125 48.5312C140.365 48.5548 140.604 48.5767 140.844 48.5938L141.219 48.625L141.594 48.6484C141.801 48.6632 142.012 48.6602 142.219 48.6484L142.594 48.6328L142.969 48.6094C143.273 48.592 143.579 48.5998 143.883 48.6328L144.633 48.7109C144.845 48.7341 145.062 48.7512 145.273 48.75L145.648 48.7422H146.023C146.231 48.7409 146.44 48.7303 146.648 48.7031L147.023 48.6484L147.398 48.6016C147.877 48.5394 148.333 48.6435 148.742 48.8594L149.117 49.0547L149.43 49.2188L149.734 49.0859L150.109 48.9141C150.541 48.7177 151.015 48.654 151.492 48.7578L151.867 48.8438L152.242 48.9219C152.357 48.9467 152.464 48.9507 152.57 48.9297L152.945 48.8516L153.312 48.7734C153.554 48.7246 153.794 48.6765 154.031 48.625L154.398 48.5469L154.758 48.4688C155.088 48.3971 155.427 48.3663 155.766 48.3828L156.141 48.4062L156.523 48.4219C156.651 48.4281 156.769 48.4141 156.883 48.375L157.234 48.25L157.594 48.125C157.961 47.9987 158.347 47.9535 158.734 47.9766L159.133 48L159.5 48.0156L159.781 47.7578L160.078 47.4844C160.452 47.1319 160.916 46.9316 161.43 46.9141L161.836 46.9062L162.188 46.8906L162.422 46.6094L162.68 46.2969C162.919 46.0038 163.198 45.7529 163.523 45.5625L164.164 45.1875C164.484 45.0005 164.836 44.8765 165.203 44.8047L165.609 44.7266L165.891 44.6641L166.023 44.375L166.188 43.9844C166.359 43.5801 166.623 43.2199 166.992 42.9531L167.289 42.7344L167.594 42.5156C167.84 42.3379 168.104 42.1804 168.383 42.0391L169.086 41.6797L169.094 41.6719L169.234 41.2969L169.367 40.9219C169.545 40.4371 169.882 40.0572 170.328 39.8125L170.688 39.6172L171.016 39.4375L171.102 39.0859L171.195 38.6953C171.31 38.2166 171.57 37.8058 171.953 37.5L172.273 37.25L172.586 37C172.611 36.98 172.623 36.9645 172.625 36.9609C172.627 36.9574 172.63 36.9506 172.633 36.9375L172.719 36.5547L172.797 36.1719C172.874 35.8195 173.008 35.4831 173.188 35.1719L173.562 34.5156C173.669 34.3314 173.768 34.1413 173.852 33.9453L174.148 33.2422C174.203 33.1123 174.231 32.9748 174.242 32.8281L174.305 32.0625C174.323 31.8133 174.339 31.5648 174.352 31.3203L174.367 30.9453L174.391 30.5625C174.409 30.2124 174.474 29.8692 174.594 29.5391L174.859 28.8203C174.953 28.5623 175.059 28.3011 175.172 28.0391L175.484 27.3047C175.508 27.251 175.51 27.2154 175.5 27.1719L175.414 26.7891L175.32 26.4062C175.281 26.2355 175.222 26.0635 175.133 25.8906L174.758 25.1562C174.492 24.6403 174.477 24.078 174.695 23.5547L174.859 23.1641L174.961 22.9141L174.797 22.7109L174.539 22.375C174.219 21.9641 174.057 21.4629 174.117 20.9219L174.164 20.5234L174.203 20.1328C174.214 20.0361 174.207 19.9635 174.18 19.8984L174.031 19.5547L173.883 19.2031C173.766 18.9264 173.668 18.6423 173.594 18.3516L173.508 17.9844L173.414 17.625C173.391 17.5362 173.345 17.4508 173.273 17.3672L173.023 17.0703L172.773 16.7812C172.516 16.4819 172.324 16.1369 172.211 15.7578L172.102 15.3906L171.992 15.0312C171.965 14.9397 171.926 14.8604 171.859 14.7891L171.602 14.5156L171.344 14.2344C170.974 13.8378 170.815 13.3477 170.805 12.8516L170.797 12.3984L170.789 12.1172L170.586 12.0234L170.203 11.8359C169.795 11.6407 169.446 11.3451 169.203 10.9453L169.008 10.625L168.805 10.2969C168.684 10.099 168.556 9.90403 168.422 9.71094L168.203 9.39062L167.984 9.07812C167.884 8.93297 167.77 8.80158 167.641 8.6875L167.359 8.4375L167.07 8.1875C167.056 8.17484 167.02 8.13839 166.906 8.125L166.469 8.07812L166.039 8.03125C165.598 7.98105 165.168 7.82991 164.805 7.53906L164.516 7.30469L164.227 7.07812C163.948 6.85453 163.711 6.58288 163.508 6.28125L163.273 5.9375L163.062 5.61719L162.719 5.57031L162.328 5.51562C161.931 5.46085 161.551 5.33276 161.211 5.11719L160.898 4.91406L160.578 4.71094C160.449 4.62912 160.308 4.57066 160.164 4.53125L159.445 4.32812C159.29 4.28568 159.125 4.2667 158.953 4.26562H158.57L158.188 4.25781C157.729 4.25494 157.299 4.11887 156.922 3.86719L156.594 3.64844L156.258 3.42969C156.095 3.32129 155.93 3.23224 155.758 3.16406L155.398 3.01562L155.031 2.875C154.956 2.84595 154.887 2.83927 154.805 2.85156L154.422 2.90625L154.031 2.96875C153.784 3.00569 153.537 3.04335 153.297 3.08594L152.922 3.14844L152.547 3.21875C152.246 3.27196 151.944 3.30087 151.641 3.30469L151.266 3.3125H150.891C150.427 3.31803 149.991 3.18182 149.609 2.95312L148.859 2.5C148.747 2.43301 148.679 2.42887 148.648 2.42969L148.273 2.4375ZM95.1016 1.10938C95.0985 1.10832 95.0933 1.10504 95.0859 1.10156L95.1016 1.10938ZM27.0234 1.25L27.3984 1.35938C27.5014 1.38886 27.5948 1.39197 27.6875 1.375L28.4375 1.23438C28.6643 1.19185 28.8972 1.14536 29.125 1.08594L29.5 0.984375L29.875 0.890625C30.1968 0.806798 30.5222 0.756839 30.8516 0.75L31.6016 0.734375C32.0069 0.726308 32.404 0.809283 32.7734 0.96875L33.5234 1.29688C33.5348 1.30163 33.5436 1.3039 33.5469 1.30469L33.5547 1.29688L34.3047 1.04688C34.6375 0.935217 34.981 0.875026 35.3281 0.859375L35.7031 0.835938L36.0781 0.820312C36.3506 0.808237 36.6259 0.805803 36.8984 0.8125L37.2734 0.820312L37.6484 0.835938C37.8289 0.840391 38.0116 0.822547 38.1953 0.789062L38.5703 0.71875L38.9453 0.65625C39.3432 0.583715 39.7429 0.599174 40.1328 0.703125L40.5078 0.804688L40.8828 0.898438C41.0634 0.946571 41.2409 0.977884 41.4141 0.984375L41.7891 1L42.1641 1.00781C42.4537 1.01873 42.7431 1.0477 43.0312 1.09375L43.7812 1.21875C43.9301 1.24258 44.0784 1.24016 44.2266 1.21875L44.9766 1.10938C45.1617 1.08223 45.3535 1.03543 45.5469 0.96875L45.9219 0.84375L46.2969 0.710938C46.6647 0.58399 47.0484 0.529874 47.4375 0.554688L48.1875 0.601562C48.4239 0.616775 48.6621 0.627088 48.8984 0.632812L49.6484 0.648438C49.9191 0.65498 50.1905 0.672037 50.4609 0.695312L51.2109 0.757812C51.4054 0.774552 51.6025 0.781461 51.7969 0.765625L52.5469 0.703125C53.0145 0.665635 53.4555 0.776909 53.8516 0.992188L54.6016 1.39844C54.6193 1.40808 54.6325 1.41893 54.6406 1.42188H54.6484L55.3984 1.25C55.5925 1.20506 55.7902 1.13763 55.9922 1.05469L56.3672 0.90625L56.7422 0.75C57.2477 0.542201 57.7852 0.553637 58.2812 0.773438L59.0312 1.10156C59.0953 1.12988 59.125 1.13053 59.1484 1.125L59.5234 1.03125L59.8984 0.945312C60.2858 0.854327 60.6798 0.844006 61.0703 0.921875L61.4453 1L61.8203 1.07031C61.8482 1.07589 61.8863 1.08087 61.9609 1.04688L62.7109 0.703125L63.1797 0.570312C63.4901 0.525603 63.7929 0.569774 64.0703 0.6875L64.4688 0.914062L64.8438 1.19531L65.2031 1.46875L65.5 1.39062L65.875 1.28906C66.1905 1.2074 66.5138 1.16215 66.8359 1.14844L67.5859 1.11719C67.8203 1.10716 68.0546 1.0904 68.2891 1.07031L69.0391 1.00781C69.2809 0.987078 69.5237 0.963948 69.7656 0.9375L70.1406 0.890625L70.5156 0.851562C70.796 0.8209 71.0784 0.801551 71.3594 0.796875H71.7344L72.1094 0.789062C72.5402 0.782065 72.9512 0.887423 73.3281 1.07812L73.7031 1.26562L73.8984 1.36719L74.5234 0.898438C74.7572 0.723431 75.0498 0.576676 75.3906 0.539062C75.5637 0.520036 75.7319 0.529503 75.8906 0.5625L76.3438 0.726562L76.7188 0.929688L77.0938 1.125C77.2587 1.21201 77.4076 1.25974 77.5391 1.28125L77.9141 1.34375L78.2656 1.40625C78.2743 1.40306 78.2964 1.39586 78.3281 1.375L79.0781 0.875C79.451 0.630395 79.877 0.467011 80.3438 0.453125L81.0938 0.4375C81.6282 0.422225 82.1005 0.627167 82.4844 0.921875L82.8594 1.20312L83.1562 1.4375L83.3828 1.34375L83.7578 1.19531C84.2159 1.01351 84.7043 0.98888 85.1797 1.14062L85.5547 1.26562L85.9062 1.375L86.2812 1.17188L86.6562 0.976562L87.0703 0.8125C87.3513 0.740074 87.6397 0.742469 87.9219 0.8125L88.3359 0.96875L89.0859 1.35938C89.2204 1.42882 89.3284 1.44925 89.4141 1.45312L90.1641 1.48438C90.1687 1.48457 90.1828 1.48293 90.2031 1.47656C90.2253 1.46937 90.2659 1.45796 90.3203 1.42188L90.6953 1.16406L91.0703 0.914062C91.437 0.669895 91.8551 0.50425 92.3125 0.476562L92.6875 0.460938L93.0625 0.4375C93.5103 0.411076 93.9396 0.51296 94.3281 0.710938L94.7031 0.90625L95.0781 1.09375L95.0859 1.10156V1.10938L95.4609 0.992188L95.8359 0.875C96.2493 0.749176 96.6784 0.730595 97.1016 0.828125L97.8516 1C97.9808 1.02962 98.1029 1.03336 98.2266 1.01562L98.9766 0.90625C99.3266 0.855007 99.6819 0.858407 100.031 0.914062L100.781 1.03906C100.904 1.05874 101.029 1.05215 101.156 1.02344L101.906 0.851562C102.354 0.751212 102.803 0.794627 103.227 0.953125L103.602 1.09375L103.977 1.22656C104.154 1.29282 104.321 1.34101 104.484 1.35938L105.234 1.4375C105.446 1.46124 105.664 1.47732 105.875 1.47656L106.25 1.46875H106.625C106.755 1.46788 106.89 1.44317 107.039 1.39062L107.414 1.26562L107.789 1.13281C108.063 1.03579 108.341 0.94856 108.617 0.875L109.367 0.671875C109.774 0.563384 110.191 0.559633 110.602 0.65625L110.977 0.742188L111.352 0.835938C111.486 0.867821 111.622 0.868153 111.75 0.851562L112.5 0.757812C112.995 0.69441 113.465 0.812043 113.875 1.04688L114.25 1.25781L114.625 1.47656C114.635 1.48242 114.642 1.48947 114.648 1.49219L115.016 1.40625L115.391 1.3125C115.608 1.25912 115.827 1.19265 116.047 1.11719L116.422 0.992188L116.797 0.859375C117.246 0.705347 117.717 0.694753 118.172 0.835938L118.922 1.07031C119.043 1.10803 119.153 1.11406 119.258 1.10156L119.633 1.0625L120.008 1.01562C120.249 0.986958 120.493 0.956998 120.734 0.921875L121.484 0.8125C121.907 0.751518 122.323 0.799584 122.719 0.945312L123.094 1.08594L123.43 1.21094L123.789 1.02344L124.164 0.828125C124.593 0.606242 125.075 0.518058 125.57 0.617188L125.945 0.695312L126.32 0.765625C126.421 0.7858 126.519 0.784769 126.625 0.757812L127.375 0.570312C127.779 0.466819 128.195 0.4612 128.602 0.554688L129.352 0.726562C129.482 0.756276 129.609 0.76018 129.734 0.742188L130.484 0.632812C131.025 0.555534 131.524 0.713609 131.938 0.992188L132.312 1.24219L132.641 1.46875L132.914 1.36719L133.289 1.23438C133.541 1.14439 133.795 1.05681 134.047 0.96875L134.797 0.703125C135.24 0.548785 135.703 0.538396 136.156 0.671875L136.906 0.890625C137.171 0.969033 137.439 1.05635 137.703 1.14844L138.453 1.41406C138.5 1.43039 138.53 1.42664 138.57 1.41406L138.945 1.29688L139.32 1.17188C139.732 1.04129 140.161 1.02516 140.586 1.11719L141.336 1.27344C141.419 1.29148 141.501 1.29287 141.594 1.26562L142.344 1.04688C142.591 0.974095 142.838 0.895179 143.086 0.820312L143.461 0.710938L143.836 0.59375C144.264 0.464563 144.708 0.460521 145.141 0.578125L145.891 0.78125C145.972 0.803027 146.045 0.801956 146.125 0.78125L146.5 0.6875L146.875 0.585938C147.195 0.503324 147.524 0.462019 147.852 0.453125L148.227 0.4375L148.602 0.429688C149.07 0.417759 149.506 0.558793 149.891 0.789062L150.266 1.00781L150.641 1.23438C150.754 1.30211 150.822 1.31233 150.859 1.3125H151.234L151.609 1.30469C151.804 1.30237 152.006 1.28501 152.203 1.25L152.578 1.17969L152.953 1.11719C153.212 1.07129 153.477 1.02399 153.742 0.984375L154.508 0.875C154.938 0.810705 155.369 0.855587 155.773 1.01562L156.133 1.15625L156.492 1.30469C156.799 1.42619 157.09 1.58076 157.367 1.76562L157.703 1.98438L158.031 2.20312C158.094 2.24513 158.143 2.25703 158.195 2.25781L158.586 2.26562H158.969C159.308 2.2679 159.643 2.30968 159.969 2.39844L160.336 2.5L160.695 2.60156C161.033 2.69392 161.353 2.83571 161.648 3.02344L161.969 3.21875L162.289 3.42188C162.374 3.4758 162.475 3.52152 162.602 3.53906L162.992 3.58594L163.383 3.64062C163.941 3.71768 164.398 4.02283 164.703 4.47656L164.938 4.82031L165.164 5.16406C165.268 5.31864 165.374 5.4327 165.477 5.51562L165.766 5.74219L166.055 5.97656C166.074 5.99191 166.13 6.02358 166.266 6.03906L166.695 6.09375L167.133 6.14062C167.593 6.19368 168.034 6.36514 168.398 6.6875L168.68 6.9375L168.969 7.1875C169.219 7.40913 169.442 7.66179 169.633 7.9375L169.852 8.25L170.07 8.57031C170.227 8.79578 170.374 9.0255 170.516 9.25781L170.711 9.58594L170.914 9.90625C170.934 9.93833 170.967 9.98522 171.062 10.0312L171.445 10.2109L171.828 10.3984C172.103 10.5301 172.353 10.7342 172.531 11.0234C172.707 11.309 172.775 11.6167 172.781 11.9062L172.797 12.3594L172.805 12.8047C172.805 12.8368 172.802 12.8622 172.805 12.875L173.062 13.1484L173.32 13.4297C173.596 13.7262 173.799 14.0724 173.914 14.4609L174.016 14.8281L174.125 15.1875C174.155 15.2892 174.21 15.384 174.289 15.4766L174.539 15.7734L174.797 16.0625C175.062 16.371 175.25 16.7291 175.352 17.125L175.539 17.8594C175.589 18.0531 175.649 18.245 175.727 18.4297L175.875 18.7734L176.023 19.125C176.189 19.52 176.243 19.9383 176.195 20.3594L176.148 20.75L176.102 21.1172L176.117 21.1406L176.375 21.4766L176.641 21.8125C177.036 22.3204 177.115 22.9449 176.867 23.5391L176.703 23.9375L176.555 24.2969L176.719 24.6094L176.914 24.9766C177.074 25.289 177.195 25.6152 177.273 25.9531L177.359 26.3359L177.453 26.7188C177.561 27.1864 177.509 27.6565 177.32 28.0938L177.164 28.4609L177.008 28.8359C176.909 29.0637 176.814 29.2887 176.734 29.5078L176.609 29.8672L176.477 30.2188C176.423 30.3663 176.391 30.5196 176.383 30.6719L176.367 31.0469L176.344 31.4219C176.33 31.6804 176.316 31.9482 176.297 32.2109L176.266 32.5938L176.242 32.9766C176.215 33.3403 176.127 33.6959 175.984 34.0312L175.836 34.375L175.688 34.7266C175.573 34.9971 175.444 35.2611 175.297 35.5156L175.109 35.8438L174.914 36.1719C174.841 36.2985 174.792 36.439 174.758 36.5938L174.586 37.3594C174.48 37.8468 174.219 38.2567 173.836 38.5625L173.516 38.8125L173.203 39.0703C173.166 39.1005 173.15 39.1234 173.141 39.1641L173.047 39.5469L172.953 39.9375C172.823 40.4799 172.488 40.9085 172.008 41.1719L171.648 41.3672L171.289 41.5703L171.258 41.5859C171.257 41.5879 171.253 41.5999 171.25 41.6094L170.969 42.3594C170.791 42.845 170.456 43.2259 169.992 43.4609L169.641 43.6406L169.281 43.8203C169.09 43.9171 168.921 44.0285 168.766 44.1406L168.461 44.3516L168.164 44.5703C168.131 44.5942 168.074 44.6469 168.023 44.7656L167.695 45.5469C167.46 46.0996 167.005 46.4895 166.398 46.6094L165.586 46.7656C165.417 46.7988 165.285 46.8528 165.18 46.9141L164.539 47.2891C164.439 47.3477 164.33 47.4354 164.227 47.5625L163.969 47.875L163.711 48.1953C163.358 48.6257 162.87 48.8709 162.312 48.8906L161.906 48.9062L161.5 48.9141C161.489 48.9144 161.48 48.9212 161.477 48.9219H161.469C161.466 48.9238 161.455 48.9288 161.445 48.9375L161.156 49.2188L160.859 49.4922C160.465 49.8645 159.961 50.056 159.414 50.0234L159.016 50L158.609 49.9766C158.465 49.9684 158.345 49.9801 158.242 50.0156L157.539 50.2656C157.182 50.3889 156.807 50.4398 156.43 50.4219L156.047 50.3984L155.664 50.3828C155.498 50.375 155.34 50.3889 155.188 50.4219L154.82 50.5L154.461 50.5781C154.214 50.6317 153.962 50.6836 153.711 50.7344L153.344 50.8125L152.969 50.8906C152.585 50.968 152.195 50.9582 151.812 50.875L151.438 50.7969L151.062 50.7109C151.039 50.706 151.005 50.7038 150.938 50.7344L150.188 51.0781C149.648 51.3229 149.076 51.2936 148.562 51.0234L148.188 50.8281L147.812 50.625C147.723 50.5777 147.677 50.5833 147.656 50.5859L147.281 50.6328L146.906 50.6875C146.616 50.7255 146.323 50.7406 146.031 50.7422H145.656L145.281 50.75C144.994 50.7516 144.708 50.7341 144.422 50.7031L143.672 50.625C143.477 50.6038 143.28 50.5985 143.086 50.6094L142.711 50.625L142.336 50.6484C142.043 50.6651 141.746 50.6614 141.453 50.6406L141.078 50.6172L140.703 50.5859C140.445 50.5676 140.187 50.5487 139.93 50.5234L139.555 50.4844L139.203 50.4531C139.189 50.4609 139.168 50.4786 139.141 50.5L138.766 50.7969L138.391 51.0859C137.941 51.438 137.354 51.628 136.719 51.4219L136.344 51.3047L135.969 51.1797C135.841 51.1383 135.726 51.1309 135.617 51.1406L134.867 51.2031C134.634 51.2241 134.397 51.256 134.164 51.2891L133.789 51.3359L133.414 51.3906C133.042 51.443 132.671 51.4273 132.305 51.3438L131.555 51.1719C131.392 51.1348 131.234 51.1252 131.078 51.1328L130.328 51.1641C130.043 51.1783 129.753 51.1795 129.469 51.1641L129.094 51.1484L128.719 51.125C128.492 51.1128 128.266 51.1073 128.039 51.1094L127.664 51.1172H127.289C126.936 51.1205 126.583 51.0707 126.242 50.9688L125.867 50.8516L125.492 50.7422C125.452 50.7302 125.418 50.7245 125.367 50.7422L124.992 50.8828L124.617 51.0156C124.336 51.1167 124.049 51.2027 123.766 51.2734L123.016 51.4609C122.613 51.5607 122.201 51.5627 121.797 51.4688L121.047 51.2969C120.884 51.2593 120.726 51.2434 120.57 51.25L119.82 51.2812C119.401 51.2993 118.995 51.216 118.617 51.0469L118.242 50.875L117.867 50.7109C117.746 50.6568 117.65 50.6369 117.57 50.6406L117.195 50.6641L116.82 50.6797C116.656 50.6876 116.487 50.7137 116.312 50.7656L115.938 50.8828L115.562 50.9922C115.254 51.0844 114.941 51.1486 114.625 51.1797L114.25 51.2109L113.875 51.25C113.534 51.2836 113.19 51.2706 112.852 51.2109L112.477 51.1484L112.102 51.0781C111.913 51.045 111.725 51.0286 111.539 51.0312L110.789 51.0469C110.539 51.0505 110.289 51.0514 110.039 51.0547L109.664 51.0625H109.289C109.037 51.0658 108.783 51.0686 108.531 51.0703L108.156 51.0781H107.781C107.51 51.0799 107.24 51.0711 106.969 51.0547L106.219 51.0078C105.949 50.9914 105.676 50.97 105.406 50.9375L104.656 50.8438C104.397 50.8125 104.134 50.781 103.875 50.7422L103.5 50.6875L103.125 50.625C103.111 50.6231 103.076 50.6239 103 50.6641L102.25 51.0703C101.908 51.2535 101.538 51.3781 101.156 51.4297L100.781 51.4766L100.406 51.5312C100.082 51.5748 99.7553 51.579 99.4297 51.5469L98.6797 51.4688C98.2493 51.4261 97.8505 51.2737 97.4922 51.0469L97.1172 50.8125L96.7656 50.5859L96.4766 50.6953L96.1016 50.8281C95.6522 50.9835 95.1824 50.9867 94.7266 50.8438L93.9766 50.6094C93.9442 50.5994 93.92 50.6003 93.875 50.6172L93.125 50.8984C92.7567 51.0361 92.3708 51.1051 91.9766 51.0859L91.6016 51.0625L91.2266 51.0469C90.9715 51.0345 90.716 51.0166 90.4609 51L89.7109 50.9531C89.5956 50.9457 89.4702 50.9635 89.3359 51.0078L88.9609 51.1328L88.5859 51.25C88.1389 51.397 87.6761 51.4072 87.2266 51.2656L86.8516 51.1406L86.4766 51.0234C86.4228 51.0064 86.381 51.0073 86.3281 51.0234L85.5781 51.2578C85.2402 51.3638 84.8904 51.4247 84.5391 51.4297L84.1641 51.4375H83.7891C83.5447 51.4409 83.2991 51.4459 83.0547 51.4531L82.6797 51.4688L82.3047 51.4766C82.0477 51.4842 81.7883 51.4903 81.5312 51.4922H81.1562L80.7812 51.5C80.3078 51.503 79.8728 51.3505 79.4922 51.1094L79.1172 50.8672L78.7734 50.6484L78.4922 50.7578L78.1172 50.8906C77.7285 51.0308 77.32 51.0819 76.9062 51.0312L76.5312 50.9922L76.1562 50.9453C76.1009 50.9385 76.0289 50.9405 75.9297 50.9844L75.1797 51.3125C74.6131 51.5632 74.0232 51.5036 73.5156 51.2031L73.1406 50.9844L72.7891 50.7812L72.4922 50.8906L72.1172 51.0312C71.7182 51.1771 71.2997 51.2221 70.875 51.1562L70.5 51.1016L70.125 51.0391C69.9118 51.0058 69.6964 50.9858 69.4844 50.9766L68.7344 50.9453C68.4824 50.9343 68.2286 50.9269 67.9766 50.9141L67.6016 50.8906L67.2266 50.875C67.1213 50.8696 67.0056 50.8814 66.875 50.9297L66.125 51.2109C65.7885 51.3359 65.4407 51.4089 65.0859 51.4297L64.3359 51.4766C63.9147 51.501 63.5061 51.4171 63.125 51.25L62.375 50.9219C62.1754 50.8343 61.9788 50.7648 61.7891 50.7188L61.4141 50.6328L61.0391 50.5391C60.9187 50.5101 60.8019 50.5043 60.6875 50.5234L59.9375 50.6484C59.7429 50.6812 59.5444 50.7293 59.3438 50.7969L58.9688 50.9297L58.5938 51.0547C58.2136 51.1824 57.8148 51.2314 57.4141 51.1875L57.0391 51.1406L56.6641 51.1016C56.428 51.0758 56.1891 51.0557 55.9531 51.0391L55.5781 51.0156L55.2031 50.9844C54.9765 50.9685 54.7499 50.9618 54.5234 50.9609H53.7734C53.5054 50.96 53.2367 50.9453 52.9688 50.9297L52.5938 50.9141L52.2188 50.8906C52.1312 50.8855 52.0283 50.8948 51.9062 50.9453L51.1562 51.2578C50.797 51.4062 50.4204 51.4904 50.0312 51.4922H49.2812C48.8191 51.4942 48.3882 51.3541 48.0078 51.125L47.2578 50.6719L47.2422 50.6641L46.9062 50.7578L46.5312 50.8516C46.1936 50.9397 45.8468 50.9853 45.5 50.9766L45.125 50.9688L44.75 50.9531C44.5 50.9468 44.25 50.9446 44 50.9375L43.625 50.9219L43.25 50.9141C43.0642 50.9088 42.8757 50.9224 42.6875 50.9531L41.9375 51.0781C41.4659 51.155 41.0094 51.0679 40.5938 50.8672L40.2188 50.6875L39.8984 50.5234L39.5859 50.6875L39.2109 50.8672C38.8542 51.0403 38.4754 51.1514 38.0781 51.1719L37.7031 51.1875L37.3281 51.2109C36.924 51.2317 36.5297 51.1563 36.1562 51.0078L35.4062 50.7109L35.3828 50.7031C35.3808 50.7035 35.3676 50.7004 35.3594 50.7031L34.6094 50.9688C34.1464 51.1313 33.6591 51.1375 33.1953 50.9766L32.4453 50.7109C32.3247 50.6695 32.216 50.6625 32.1172 50.6719L31.7422 50.7031L31.3672 50.7422C31.1003 50.7674 30.8296 50.7863 30.5625 50.7969L30.1875 50.8125L29.8125 50.8203C29.4912 50.8328 29.1697 50.8138 28.8516 50.7578L28.4766 50.6953L28.1016 50.625C28.0255 50.6118 27.9469 50.6164 27.8516 50.6484L27.4766 50.7812L27.1016 50.9062C26.6707 51.0531 26.2179 51.0714 25.7734 50.9531L25.3984 50.8516L25.0312 50.7578C24.7846 50.692 24.537 50.6268 24.2969 50.5625L23.9297 50.4609L23.5703 50.3672C23.5253 50.3551 23.4592 50.3448 23.3594 50.375L22.9688 50.4922L22.5781 50.6172C22.1622 50.7426 21.7281 50.762 21.2969 50.6562L20.9297 50.5625L20.5625 50.4766C20.3618 50.427 20.1554 50.3911 19.9453 50.3672L19.5625 50.3203L19.1875 50.2812C18.7426 50.2309 18.3325 50.0542 17.9844 49.7812L17.3594 49.2969C17.3455 49.286 17.3374 49.2817 17.3359 49.2812C17.3302 49.2799 17.3151 49.2724 17.2891 49.2734L16.875 49.2891L16.4609 49.3125C16.0101 49.3303 15.57 49.2282 15.1719 48.9922L14.8359 48.7969L14.5078 48.6016C14.142 48.3835 13.8508 48.0808 13.625 47.7266L13.3984 47.3672L13.1719 47.0156L12.8047 46.9453L12.4141 46.8672C12.0756 46.8018 11.7477 46.6966 11.4375 46.5547L11.0859 46.3984L10.7266 46.2344C10.4067 46.0877 10.1161 45.8947 9.85156 45.6641L9.27344 45.1641C9.03268 44.954 8.81275 44.7223 8.61719 44.4688L8.14844 43.8594C7.93431 43.5813 7.75721 43.2737 7.625 42.9453L7.47656 42.5703L7.32812 42.2031C7.31485 42.1701 7.30224 42.1532 7.26562 42.1328L6.5625 41.7422C6.19565 41.5374 5.88769 41.2551 5.65625 40.8984L5.44531 40.5859L5.24219 40.2656C5.07206 40.0034 4.92561 39.7265 4.80469 39.4375L4.50781 38.7344C4.42327 38.5326 4.32879 38.3355 4.22656 38.1484L4.04688 37.8203L3.875 37.4922C3.77025 37.3005 3.64801 37.1159 3.52344 36.9297L3.3125 36.6094L3.10156 36.2969C2.94835 36.068 2.80326 35.8259 2.66406 35.5859L2.46875 35.2578L2.28125 34.9219C2.03788 34.5018 1.94716 34.0391 2 33.5703L2.04688 33.1562L2.09375 32.75C2.11008 32.6062 2.09841 32.4987 2.07031 32.4141L1.95312 32.0625L1.36719 30.2656C1.27606 29.9821 1.20737 29.6915 1.15625 29.3984L1.08594 29.0312L1.02344 28.6562C0.94551 28.209 1.00643 27.7699 1.17188 27.3594L1.32812 26.9766L1.42969 26.7266L1.19531 26.4297L0.914062 26.0547C0.603949 25.6362 0.416978 25.1105 0.515625 24.5312L0.585938 24.1562L0.648438 23.7734C0.692077 23.5172 0.734366 23.2616 0.78125 23.0078L0.921875 22.2578C1.00686 21.7978 1.22692 21.3952 1.53125 21.0625L2.125 20.4219C2.23111 20.3059 2.26825 20.2212 2.28125 20.1719L2.36719 19.8125L2.46094 19.4609C2.52144 19.2249 2.57972 18.987 2.64062 18.75L2.73438 18.3906L2.82812 18.0391C2.85873 17.92 2.87289 17.7681 2.85938 17.5859L2.79688 16.7578C2.76915 16.3819 2.7985 16.0106 2.89062 15.6484L2.98438 15.2734L3.07812 14.8906C3.18321 14.4793 3.3856 14.1097 3.67188 13.7969L4.20312 13.2188C4.31191 13.0995 4.39581 12.9722 4.46094 12.8359L4.625 12.4844L4.78906 12.1406C4.94366 11.8149 5.15038 11.5195 5.39844 11.2578L5.66406 10.9844L5.92188 10.7031C6.11562 10.4987 6.32274 10.3046 6.53125 10.1172L6.8125 9.85938L7.09375 9.60938C7.23747 9.48018 7.368 9.33855 7.48438 9.1875L7.71094 8.89062L7.94531 8.58594C8.22824 8.21946 8.60442 7.96633 9.03125 7.82031L9.41406 7.6875L9.80469 7.55469C9.89179 7.52425 9.93437 7.4869 9.96094 7.45312L10.1953 7.15625L10.4219 6.85938C10.6129 6.61651 10.8254 6.39315 11.0547 6.1875L11.6172 5.6875C11.7653 5.55446 11.9065 5.40183 12.0469 5.23438L12.5625 4.625C12.8948 4.23056 13.3381 3.99063 13.8438 3.92188L14.25 3.86719L14.6484 3.8125C14.7781 3.79505 14.876 3.76144 14.9531 3.71094L15.2656 3.5L15.5859 3.29688C15.8733 3.10895 16.1801 2.96083 16.5078 2.85938L16.8672 2.75L17.2266 2.63281C17.447 2.5648 17.6678 2.49468 17.8828 2.41406L18.5859 2.14844C18.8331 2.05577 19.0839 1.97224 19.3359 1.89062L20.0547 1.65625C20.2279 1.60008 20.4057 1.52178 20.5859 1.42188L20.9375 1.22656L21.2812 1.03125L21.6797 0.867188C21.945 0.791527 22.2174 0.782976 22.4844 0.828125L22.8828 0.9375L23.6797 1.25C23.6959 1.25628 23.7116 1.25617 23.7188 1.25781L23.7266 1.26562L24.0859 1.11719L24.4531 0.976562C24.7156 0.87349 25.109 0.768375 25.5156 0.867188L25.9219 1.03906L25.9609 1.07031C26.0737 1.06105 26.1636 1.04264 26.2031 1.04688C26.3546 1.06337 26.5146 1.11014 26.6484 1.14844L27.0234 1.25Z" fill="#1E1E1E"/>
</svg>
