<svg width="48" height="48" viewBox="0 0 48 48" fill="none" xmlns="http://www.w3.org/2000/svg">
<path fill-rule="evenodd" clip-rule="evenodd" d="M14 4C8.47716 4 4 8.47716 4 14V34C4 39.5228 8.47716 44 14 44H34C39.5228 44 44 39.5228 44 34V14C44 8.47716 39.5228 4 34 4H14ZM31.459 21.3678C32.2146 20.562 32.1738 19.2964 31.368 18.5409C30.562 17.7855 29.2964 17.8263 28.541 18.6321L22.373 25.2112L19.3287 22.5052C18.5032 21.7714 17.239 21.8458 16.5052 22.6712C15.7714 23.4968 15.8457 24.761 16.6713 25.4948L21.1712 29.4948C21.9814 30.215 23.2178 30.1586 23.959 29.3678L31.459 21.3678Z" fill="#1E1E1E"/>
</svg>
