<svg width="48" height="48" viewBox="0 0 48 48" fill="none" xmlns="http://www.w3.org/2000/svg">
<path d="M24 32C25.1046 32 26 32.8954 26 34V34.0195C26 35.1241 25.1046 36.0195 24 36.0195C22.8954 36.0195 22 35.1241 22 34.0195V34C22 32.8954 22.8954 32 24 32Z" fill="#1E1E1E"/>
<path fill-rule="evenodd" clip-rule="evenodd" d="M32 4C33.5913 4 35.117 4.63259 36.2422 5.75781C37.3674 6.88303 38 8.4087 38 10V38C38 39.5913 37.3674 41.117 36.2422 42.2422C35.117 43.3674 33.5913 44 32 44H16C14.4087 44 12.883 43.3674 11.7578 42.2422C10.6326 41.117 10 39.5913 10 38V10C10 8.4087 10.6326 6.88303 11.7578 5.75781C12.883 4.63259 14.4087 4 16 4H32ZM16 8C15.4696 8 14.961 8.21087 14.5859 8.58594C14.2109 8.96101 14 9.46957 14 10V38L14.0098 38.1973C14.0551 38.6553 14.2577 39.0858 14.5859 39.4141C14.961 39.7891 15.4696 40 16 40H32C32.5304 40 33.039 39.7891 33.4141 39.4141C33.7891 39.039 34 38.5304 34 38V10C34 9.46957 33.7891 8.96101 33.4141 8.58594C33.039 8.21086 32.5304 8 32 8H28C28 9.10457 27.1046 10 26 10H22C20.8954 10 20 9.10457 20 8H16Z" fill="#1E1E1E"/>
</svg>
