<svg width="48" height="48" viewBox="0 0 48 48" fill="none" xmlns="http://www.w3.org/2000/svg">
<path fill-rule="evenodd" clip-rule="evenodd" d="M24 34.0002C26.4853 34.0002 28.5 36.0149 28.5 38.5002C28.5 40.9854 26.4853 43.0002 24 43.0002C21.5147 43.0002 19.5 40.9854 19.5 38.5002C19.5 36.0149 21.5147 34.0002 24 34.0002ZM24 5C26.5572 5 28.6302 7.07299 28.6302 9.63016C28.6302 9.74866 28.6256 9.86712 28.6165 9.98527L27.2301 28.0088C27.1003 29.6967 25.6928 31 24 31C22.3072 31 20.8998 29.6967 20.7699 28.0088L19.3835 9.98527C19.1874 7.43564 21.0953 5.20976 23.6449 5.01364C23.763 5.00455 23.8815 5 24 5Z" fill="#1E1E1E"/>
</svg>
