<svg width="48" height="48" viewBox="0 0 48 48" fill="none" xmlns="http://www.w3.org/2000/svg">
<path d="M45.0021 24.4661C45.0021 22.7395 44.8591 21.4795 44.5497 20.1729H24.4307V27.9661H36.2401C36.0021 29.9028 34.7164 32.8195 31.8592 34.7794L31.8191 35.0403L38.1804 39.8697L38.6211 39.9128C42.6686 36.2495 45.0021 30.8594 45.0021 24.4661Z" fill="#4285F4"/>
<path d="M24.4295 45.0002C30.2151 45.0002 35.0721 43.1334 38.6199 39.9134L31.8579 34.7799C30.0485 36.0166 27.6198 36.88 24.4295 36.88C18.7628 36.88 13.9534 33.2167 12.2389 28.1533L11.9876 28.1742L5.37312 33.191L5.28662 33.4266C8.81038 40.2866 16.0485 45.0002 24.4295 45.0002Z" fill="#34A853"/>
<path d="M12.2399 28.1534C11.7876 26.8468 11.5258 25.4467 11.5258 24.0001C11.5258 22.5533 11.7876 21.1534 12.2161 19.8467L12.2042 19.5685L5.50674 14.4712L5.28761 14.5733C3.83529 17.42 3.00195 20.6168 3.00195 24.0001C3.00195 27.3834 3.83529 30.58 5.28761 33.4267L12.2399 28.1534Z" fill="#FBBC05"/>
<path d="M24.4296 11.1199C28.4533 11.1199 31.1676 12.8233 32.7152 14.2467L38.7628 8.46C35.0487 5.07668 30.2152 3 24.4296 3C16.0485 3 8.8104 7.7133 5.28662 14.5732L12.2152 19.8466C13.9534 14.7833 18.7629 11.1199 24.4296 11.1199Z" fill="#EB4335"/>
</svg>
