<svg width="22" height="20" viewBox="0 0 22 20" fill="none" xmlns="http://www.w3.org/2000/svg">
<path d="M10.663 0.25C4.86695 0.25 0.166992 3.97883 0.166992 8.58036C0.166992 11.5555 2.13057 14.1617 5.08776 15.6413L4.02317 19.4693C4.02317 19.4693 4.00345 19.6478 4.1178 19.7153C4.23214 19.7827 4.37015 19.7311 4.37015 19.7311C4.70135 19.6835 8.19478 17.2122 8.80593 16.7838C9.4092 16.8711 10.0361 16.9147 10.6709 16.9147C16.467 16.9147 21.167 13.1859 21.167 8.58433C21.167 3.9828 16.4591 0.25 10.663 0.25Z" fill="#1E1E1E"/>
<path d="M4.85882 11.4838C4.52367 11.4838 4.25161 11.222 4.25161 10.9007V7.27898H3.30531C2.97804 7.27898 2.71387 7.0132 2.71387 6.68395C2.71387 6.35471 2.98199 6.08893 3.30531 6.08893H6.40838C6.73565 6.08893 6.99982 6.35471 6.99982 6.68395C6.99982 7.0132 6.7317 7.27898 6.40838 7.27898H5.46208V10.9007C5.46208 11.2181 5.18608 11.4838 4.85487 11.4838H4.85882ZM10.1699 11.4759C9.91758 11.4759 9.72438 11.3728 9.66524 11.2062L9.36558 10.4128H7.52029L7.22063 11.2062C7.16148 11.3728 6.96828 11.4759 6.71593 11.4759C6.58187 11.4759 6.45176 11.4481 6.32953 11.3966C6.16392 11.3172 6.00226 11.107 6.18758 10.5318L7.63463 6.69585C7.73715 6.40231 8.04864 6.10083 8.44293 6.09289C8.83722 6.08496 9.15266 6.40231 9.25123 6.69585L10.6983 10.5318C10.8836 11.107 10.7219 11.3252 10.5563 11.3966C10.438 11.4521 10.304 11.4759 10.1699 11.4759ZM9.0462 9.3338L8.44293 7.60426L7.83967 9.3338H9.0462ZM11.6722 11.3966C11.3567 11.3966 11.0926 11.1466 11.0926 10.8412V6.69585C11.0926 6.35867 11.3686 6.08496 11.7116 6.08496C12.0546 6.08496 12.3307 6.36264 12.3307 6.69585V10.2739H13.616C13.9315 10.2739 14.1957 10.5239 14.1957 10.8293C14.1957 11.1347 13.9354 11.3847 13.616 11.3847L11.6722 11.3966ZM14.4283 10.865V6.69982C14.4283 6.36264 14.7043 6.08893 15.0355 6.08893C15.3667 6.08893 15.6427 6.36661 15.6427 6.69982V8.00888L17.3382 6.30314C17.5248 6.11537 17.8776 6.13183 18.0913 6.34677C18.2919 6.54868 18.3441 6.88996 18.1346 7.10444L16.7467 8.49283L18.2371 10.4763C18.4374 10.7342 18.3888 11.1359 18.1189 11.3252C17.8527 11.5235 17.4617 11.4574 17.2711 11.2062L15.8517 9.31397L15.6427 9.52421V10.8531C15.6427 11.6446 14.4283 11.6751 14.4283 10.865Z" fill="#FFE812"/>
</svg>
