<svg width="48" height="48" viewBox="0 0 48 48" fill="none" xmlns="http://www.w3.org/2000/svg">
<path d="M23.9921 4.5C12.3999 4.5 3 11.9577 3 21.1607C3 27.111 6.92715 32.3234 12.8415 35.2827L10.7124 42.9387C10.7124 42.9387 10.6729 43.2957 10.9016 43.4306C11.1303 43.5654 11.4063 43.4623 11.4063 43.4623C12.0687 43.3671 19.0556 38.4244 20.2779 37.5676C21.4844 37.7421 22.7383 37.8294 24.0079 37.8294C35.6001 37.8294 45 30.3717 45 21.1687C45 11.9656 35.5843 4.5 23.9921 4.5Z" fill="#1E1E1E"/>
<path d="M12.3841 26.9681C11.7138 26.9681 11.1697 26.4445 11.1697 25.8019V18.5584H9.27711C8.62259 18.5584 8.09424 18.0269 8.09424 17.3684C8.09424 16.7099 8.63048 16.1783 9.27711 16.1783H15.4833C16.1378 16.1783 16.6661 16.7099 16.6661 17.3684C16.6661 18.0269 16.1299 18.5584 15.4833 18.5584H13.5907V25.8019C13.5907 26.4366 13.0387 26.9681 12.3763 26.9681H12.3841ZM23.0064 26.9523C22.5017 26.9523 22.1153 26.746 21.997 26.4128L21.3977 24.8261H17.7071L17.1078 26.4128C16.9895 26.746 16.6031 26.9523 16.0984 26.9523C15.8302 26.9523 15.57 26.8967 15.3256 26.7936C14.9943 26.6349 14.671 26.2144 15.0417 25.0641L17.9358 17.3922C18.1408 16.8051 18.7638 16.2021 19.5524 16.1863C20.341 16.1704 20.9718 16.8051 21.169 17.3922L24.0631 25.0641C24.4337 26.2144 24.1104 26.6508 23.7792 26.7936C23.5426 26.9047 23.2745 26.9523 23.0064 26.9523ZM20.7589 22.6681L19.5524 19.209L18.3458 22.6681H20.7589ZM26.0109 26.7936C25.38 26.7936 24.8517 26.2938 24.8517 25.6829V17.3922C24.8517 16.7178 25.4037 16.1704 26.0897 16.1704C26.7758 16.1704 27.3278 16.7258 27.3278 17.3922V24.5484H29.8986C30.5295 24.5484 31.0578 25.0482 31.0578 25.6591C31.0578 26.27 30.5373 26.7698 29.8986 26.7698L26.0109 26.7936ZM31.5231 25.7305V17.4001C31.5231 16.7258 32.0751 16.1783 32.7375 16.1783C33.3999 16.1783 33.9519 16.7337 33.9519 17.4001V20.0182L37.3428 16.6068C37.7161 16.2312 38.4217 16.2642 38.849 16.694C39.2504 17.0978 39.3548 17.7804 38.9358 18.2094L36.16 20.9862L39.1408 24.953C39.5413 25.4688 39.4442 26.2722 38.9042 26.6508C38.3719 27.0475 37.5899 26.9153 37.2088 26.4128L34.3699 22.6284L33.9519 23.0489V25.7067C33.9519 27.2898 31.5231 27.3507 31.5231 25.7305Z" fill="#FFE812"/>
</svg>
