<svg width="25" height="24" viewBox="0 0 25 24" fill="none" xmlns="http://www.w3.org/2000/svg">
<path fill-rule="evenodd" clip-rule="evenodd" d="M3.33398 14C3.88627 14 4.33398 14.4477 4.33398 15V19C4.33398 19.2652 4.43934 19.5196 4.62688 19.7071C4.81441 19.8946 5.06877 20 5.33398 20H19.334C19.5992 20 19.8536 19.8946 20.0411 19.7071C20.2286 19.5196 20.334 19.2652 20.334 19V15C20.334 14.4477 20.7817 14 21.334 14C21.8863 14 22.334 14.4477 22.334 15V19C22.334 19.7957 22.0179 20.5587 21.4553 21.1213C20.8927 21.6839 20.1296 22 19.334 22H5.33398C4.53833 22 3.77527 21.6839 3.21266 21.1213C2.65005 20.5587 2.33398 19.7956 2.33398 19V15C2.33398 14.4477 2.7817 14 3.33398 14Z" fill="white"/>
<path fill-rule="evenodd" clip-rule="evenodd" d="M6.62688 9.29289C7.0174 8.90237 7.65057 8.90237 8.04109 9.29289L12.334 13.5858L16.6269 9.29289C17.0174 8.90237 17.6506 8.90237 18.0411 9.29289C18.4316 9.68342 18.4316 10.3166 18.0411 10.7071L13.0411 15.7071C12.6506 16.0976 12.0174 16.0976 11.6269 15.7071L6.62688 10.7071C6.23635 10.3166 6.23635 9.68342 6.62688 9.29289Z" fill="white"/>
<path fill-rule="evenodd" clip-rule="evenodd" d="M12.334 2C12.8863 2 13.334 2.44772 13.334 3V15C13.334 15.5523 12.8863 16 12.334 16C11.7817 16 11.334 15.5523 11.334 15V3C11.334 2.44772 11.7817 2 12.334 2Z" fill="white"/>
</svg>
