<svg width="436" height="80" viewBox="0 0 436 80" fill="none" xmlns="http://www.w3.org/2000/svg">
<g filter="url(#filter0_d_826_29926)">
<path d="M358.258 12.4062L358.633 12.4141C359.1 12.4177 359.528 12.5666 359.906 12.8047L360.281 13.0391L360.547 13.2109L360.789 13.0859L361.164 12.8906C361.526 12.7044 361.918 12.5893 362.328 12.5703L363.078 12.5391C363.469 12.5212 363.852 12.5849 364.219 12.7188L364.594 12.8516L364.969 12.9922C365.048 13.021 365.107 13.0202 365.164 13.0078L365.539 12.9297L365.914 12.8438C366.184 12.7852 366.456 12.7363 366.727 12.6953L367.477 12.5859C367.908 12.5208 368.333 12.5718 368.734 12.7266L369.109 12.8672L369.484 13.0156C369.676 13.0896 369.865 13.1406 370.047 13.1719L370.422 13.2344L370.797 13.3047C370.963 13.3329 371.126 13.3336 371.289 13.3203L372.039 13.2578C372.332 13.2335 372.629 13.2282 372.922 13.2422L373.297 13.2656L373.672 13.2812C373.893 13.2918 374.115 13.297 374.336 13.2891L375.086 13.2578C375.243 13.2521 375.409 13.2248 375.578 13.1719L376.328 12.9375C376.826 12.7822 377.328 12.8277 377.789 13.0391L378.539 13.3828V13.3906L378.906 13.25L379.281 13.1172C379.608 12.9989 379.947 12.9192 380.289 12.8906L381.039 12.8281C381.415 12.797 381.794 12.8399 382.156 12.9453L382.906 13.1641C382.995 13.1896 383.075 13.1903 383.156 13.1719L383.906 13C384.158 12.943 384.412 12.8909 384.664 12.8359L385.039 12.75L385.414 12.6719C385.918 12.5622 386.409 12.6533 386.844 12.8828L387.594 13.2734L387.578 13.2891L387.602 13.2812H387.586L387.594 13.2734L387.602 13.2812L387.953 13.1641L388.328 13.0469C388.639 12.9494 388.954 12.884 389.273 12.8516L390.023 12.7734C390.44 12.7311 390.848 12.7969 391.234 12.9453L391.609 13.0859L391.914 13.2109L392.266 13.0156L392.641 12.8047L393.047 12.6328C393.325 12.5539 393.614 12.546 393.898 12.6094L394.32 12.7578L395.07 13.1328C395.196 13.1947 395.291 13.2115 395.367 13.2109H395.742L396.117 13.2031C396.303 13.2017 396.49 13.1861 396.68 13.1484L397.055 13.0703L397.43 13C397.661 12.9539 397.893 12.8959 398.125 12.8359L398.875 12.6484C399.189 12.5673 399.507 12.5148 399.828 12.5L400.578 12.4688C400.853 12.4561 401.131 12.453 401.406 12.4609L401.781 12.4688L402.156 12.4844C402.602 12.4977 403.019 12.6377 403.391 12.8594L403.766 13.0781L404.141 13.3047C404.28 13.3872 404.382 13.4151 404.453 13.4219L404.828 13.4531L405.195 13.4844C405.314 13.4947 405.448 13.4862 405.594 13.4453L405.969 13.3359L406.352 13.2344C406.774 13.116 407.212 13.1054 407.641 13.2266L408 13.3281L408.367 13.4297C408.524 13.4739 408.698 13.5016 408.891 13.5078L409.297 13.5234L409.695 13.5391C410.33 13.5596 410.835 13.8885 411.148 14.3906L411.383 14.7656L411.609 15.1406C411.666 15.231 411.704 15.2473 411.711 15.25L412.062 15.3828L412.414 15.5234C412.79 15.6719 413.119 15.903 413.391 16.2031L413.891 16.75C413.993 16.8629 414.118 16.9697 414.266 17.0625L414.602 17.2734L414.93 17.4844C415.231 17.6738 415.506 17.8981 415.742 18.1641L416 18.4609L416.258 18.75C416.52 19.0465 416.713 19.3893 416.836 19.7656L416.961 20.1328L417.078 20.5078C417.149 20.7248 417.231 20.9356 417.32 21.1406L417.633 21.8438C417.774 22.1678 417.864 22.5082 417.906 22.8594L418 23.625C418.041 23.9711 418.031 24.3195 417.977 24.6641L417.914 25.0469L417.859 25.4297C417.816 25.7032 417.763 25.9737 417.703 26.2422L417.617 26.6172L417.539 26.9609C417.543 26.9684 417.554 26.9782 417.562 26.9922L418.031 27.7422C418.349 28.247 418.43 28.8477 418.172 29.4297L418 29.8047L417.836 30.1797C417.804 30.2518 417.806 30.2902 417.812 30.3203L417.969 31.0703C418.031 31.3694 418.071 31.6744 418.086 31.9766L418.102 32.3516L418.125 32.7266C418.146 33.1502 418.056 33.5575 417.883 33.9375L417.539 34.6875C417.507 34.7573 417.511 34.7943 417.516 34.8203L417.672 35.5703C417.709 35.7497 417.761 35.941 417.844 36.1328L418.172 36.8828C418.382 37.3741 418.389 37.9001 418.188 38.3984L418.039 38.7734L417.883 39.1484C417.844 39.2453 417.842 39.3203 417.852 39.3828L417.961 40.1328C418.008 40.4521 418.015 40.7727 417.992 41.0938L417.969 41.4688L417.938 41.8438C417.922 42.0603 417.924 42.2837 417.93 42.5L417.945 43.25C417.95 43.415 417.975 43.5841 418.023 43.7578L418.133 44.1328L418.234 44.5078C418.348 44.9184 418.356 45.3423 418.258 45.7578L418.172 46.1328L418.078 46.5078C418.024 46.7362 417.983 46.9641 417.945 47.1875L417.883 47.5547L417.82 47.9297C417.758 48.3014 417.623 48.6532 417.43 48.9766L417.039 49.6328C417.006 49.6888 416.991 49.7493 416.992 49.8359V50.625C416.997 51.1276 416.833 51.6019 416.492 51.9844L416.234 52.2734L415.977 52.5547C415.888 52.6537 415.822 52.7646 415.773 52.8906L415.633 53.25L415.5 53.6094C415.332 54.0461 415.041 54.4024 414.648 54.6562L414.32 54.8672L414 55.0781C413.825 55.1908 413.666 55.3108 413.523 55.4375L412.977 55.9219C412.872 56.0149 412.761 56.1399 412.656 56.3047L412.438 56.6562L412.211 57C411.945 57.4194 411.56 57.7385 411.07 57.8906L410.703 58L410.328 58.1172C410.04 58.2068 409.748 58.2771 409.453 58.3281L409.078 58.3984L408.703 58.4609C408.422 58.5095 408.139 58.5408 407.859 58.5625L407.109 58.625C406.877 58.643 406.642 58.6677 406.414 58.6953L406.055 58.7344L405.688 58.7812C405.304 58.8277 404.918 58.7935 404.547 58.6875L404.172 58.5781L403.797 58.4766C403.686 58.4452 403.585 58.4368 403.484 58.4531L402.734 58.5781C402.522 58.6129 402.309 58.6594 402.094 58.7188L401.344 58.9219C401.04 59.0059 400.731 59.0643 400.422 59.0938L400.047 59.1328L399.672 59.1641C399.269 59.2022 398.871 59.1506 398.492 59.0156L398.117 58.8828L397.742 58.7422C397.679 58.7197 397.633 58.7223 397.586 58.7344L396.836 58.9375C396.553 59.0128 396.262 59.0725 395.977 59.1172L395.602 59.1719L395.227 59.2344C394.885 59.2875 394.538 59.2939 394.195 59.25L393.82 59.2031L393.445 59.1484C393.147 59.1101 392.849 59.0512 392.555 58.9688L392.18 58.8672L391.805 58.7578C391.65 58.7147 391.503 58.6983 391.359 58.7031L390.984 58.7188L390.609 58.7266C390.289 58.7374 389.966 58.7205 389.648 58.6641L389.273 58.5938L388.953 58.5312L388.547 58.8359L388.172 59.1094C387.777 59.4001 387.291 59.5942 386.75 59.5547L386.375 59.5234L386 59.5C385.554 59.467 385.145 59.3059 384.781 59.0703L384.406 58.8281L384.047 58.5938L383.758 58.6953L383.383 58.8125C383.065 58.9151 382.742 58.9869 382.414 59.0156L381.664 59.0781C381.439 59.0977 381.21 59.1271 380.984 59.1641L380.234 59.2891C379.879 59.347 379.52 59.3473 379.164 59.2891L378.414 59.1641C378.124 59.1165 377.834 59.0522 377.547 58.9688L376.797 58.75C376.691 58.7191 376.595 58.7104 376.5 58.7266L376.125 58.7969L375.75 58.8594C375.323 58.9339 374.897 58.8928 374.492 58.75L374.117 58.6172L373.875 58.5312L373.555 58.7734L373.18 59.0625C372.937 59.2458 372.624 59.3929 372.258 59.4141C371.887 59.4353 371.557 59.3192 371.289 59.1484L370.914 58.9062L370.547 58.6641L370.227 58.7578L369.852 58.8672C369.422 58.9889 368.976 58.9828 368.547 58.8594L368.172 58.7578L367.797 58.6484C367.775 58.6424 367.758 58.6367 367.711 58.6562L366.961 58.9688C366.67 59.0897 366.375 59.1884 366.078 59.2656L365.703 59.3672L365.328 59.4609C364.985 59.5503 364.634 59.594 364.281 59.5781L363.906 59.5547L363.531 59.5391C363.211 59.5245 362.892 59.4786 362.578 59.3984L362.203 59.3047L361.828 59.2031C361.737 59.1801 361.652 59.1811 361.562 59.2031L360.812 59.3906C360.318 59.5114 359.832 59.4402 359.391 59.2266L358.641 58.8672C358.516 58.807 358.42 58.7876 358.344 58.7891L357.594 58.8047C357.357 58.8091 357.119 58.8142 356.883 58.8281L356.133 58.875C355.902 58.8886 355.669 58.9108 355.438 58.9375L355.062 58.9766L354.688 59.0234C354.266 59.0716 353.851 59.011 353.461 58.8594L353.086 58.7109L352.711 58.5703C352.57 58.5156 352.444 58.4918 352.328 58.4922H351.578C351.373 58.4929 351.167 58.5107 350.961 58.5391L350.586 58.5859L350.211 58.6406C349.958 58.6753 349.706 58.7096 349.453 58.7422L348.703 58.8359C348.423 58.872 348.14 58.8958 347.859 58.9062L347.109 58.9375C346.991 58.9424 346.858 58.9695 346.711 59.0312L345.961 59.3438C345.417 59.5724 344.853 59.529 344.352 59.2578L343.602 58.8516C343.459 58.7742 343.341 58.7412 343.25 58.7344L342.875 58.7109L342.5 58.6797C342.281 58.6633 342.062 58.6602 341.844 58.6641L341.094 58.6797C340.81 58.6847 340.526 58.6723 340.242 58.6484L339.492 58.5859C339.271 58.5673 339.049 58.5547 338.828 58.5547H338.078C337.961 58.5547 337.83 58.5771 337.688 58.6328L336.938 58.9297C336.55 59.0808 336.138 59.1455 335.719 59.1016L334.969 59.0234C334.727 58.9981 334.484 58.9728 334.242 58.9531L333.492 58.8906C333.35 58.8793 333.204 58.8868 333.055 58.9219L332.68 59.0156L332.305 59.1016C331.792 59.222 331.292 59.1349 330.852 58.8984L330.477 58.6953L330.281 58.5859L330.047 58.7656L329.672 59.0469C329.205 59.3914 328.606 59.5455 327.984 59.3203L327.609 59.1875L327.234 59.0469C327.164 59.0217 327.114 59.0265 327.062 59.0391L326.688 59.125L326.312 59.2188C325.831 59.3364 325.353 59.2839 324.914 59.0859L324.164 58.7422C323.993 58.6647 323.829 58.623 323.68 58.6016L322.93 58.4922C322.917 58.4906 322.882 58.4891 322.805 58.5312L322.055 58.9375C321.719 59.1212 321.365 59.2574 320.992 59.3203L320.242 59.4453C319.744 59.5295 319.265 59.4255 318.844 59.1953L318.469 58.9922L318.141 58.8047L317.836 58.9375L317.461 59.0938C317.108 59.2406 316.733 59.3247 316.352 59.3359L315.977 59.3438L315.602 59.3594C315.15 59.372 314.726 59.2505 314.344 59.0391L313.594 58.6172L313.523 58.5938H313.516L313.141 58.6641L312.766 58.7422C312.498 58.7947 312.229 58.8386 311.961 58.875L311.586 58.9219L311.211 58.9766C310.964 59.01 310.716 59.0425 310.469 59.0781L309.719 59.1875C309.458 59.2251 309.198 59.2603 308.938 59.2891L308.188 59.3672C307.763 59.414 307.345 59.3521 306.953 59.1953L306.578 59.0469L306.203 58.8906C306.062 58.8342 305.935 58.8133 305.82 58.8125H305.07C304.771 58.8107 304.469 58.78 304.172 58.7344L303.422 58.625C303.292 58.6054 303.164 58.6056 303.031 58.6328L302.281 58.7891C301.905 58.867 301.518 58.8744 301.141 58.8047L300.391 58.6641C300.157 58.621 299.921 58.5786 299.688 58.5469L299.312 58.5L298.938 58.4453C298.737 58.4182 298.535 58.4117 298.336 58.4141H297.961L297.586 58.4219C297.373 58.4244 297.159 58.435 296.945 58.4609L296.195 58.5547C296.122 58.5638 296.012 58.5933 295.867 58.6875L295.492 58.9297L295.117 59.1797C294.718 59.4383 294.252 59.5897 293.742 59.5469L292.992 59.4844C292.709 59.4605 292.423 59.4197 292.141 59.3672L291.391 59.2266C291.057 59.1643 290.73 59.0648 290.414 58.9219L290.039 58.75L289.727 58.6016L289.414 58.7812L289.039 58.9766C288.707 59.1509 288.357 59.2748 287.992 59.3359L287.242 59.4609C286.749 59.5433 286.272 59.4428 285.852 59.2188L285.477 59.0234L285.102 58.8203C284.968 58.7493 284.864 58.7229 284.781 58.7188L284.031 58.6875C283.817 58.6775 283.597 58.6746 283.383 58.6875L282.633 58.7344C282.425 58.747 282.217 58.7741 282.008 58.8125L281.633 58.8828L281.258 58.9453C280.943 59.0032 280.623 59.0304 280.305 59.0234L279.555 59.0078C279.209 59.0001 278.865 58.9459 278.531 58.8438L277.781 58.6094C277.703 58.5856 277.633 58.584 277.562 58.6016L276.062 58.9766L275.688 59.0625L275.312 59.1562C274.814 59.2775 274.324 59.2036 273.883 58.9844L273.508 58.7969L273.266 58.6719L273 58.8594L272.625 59.1016C272.179 59.3936 271.638 59.5313 271.07 59.3828L270.695 59.2812L270.32 59.1875C270.016 59.1079 269.717 58.9983 269.422 58.8672L269.047 58.7031L268.672 58.5312C268.658 58.5249 268.646 58.5247 268.641 58.5234H268.625L267.875 58.7578C267.555 58.8578 267.228 58.921 266.898 58.9453L266.523 58.9766L266.148 59C265.994 59.0114 265.834 59.0484 265.664 59.1094L265.289 59.2422L264.914 59.3828C264.442 59.5525 263.946 59.5494 263.477 59.375L262.727 59.0938C262.651 59.0658 262.599 59.0664 262.547 59.0781L262.172 59.1641L261.797 59.2422C261.346 59.3438 260.894 59.3105 260.469 59.1484L260.094 59L259.719 58.8594C259.693 58.8495 259.676 58.8517 259.672 58.8516C259.666 58.8518 259.657 58.854 259.641 58.8594L259.266 58.9766L258.891 59.1016C258.421 59.2571 257.936 59.2501 257.477 59.0781L257.102 58.9375L256.766 58.8047L256.414 58.9922L256.039 59.1875C255.635 59.3988 255.182 59.5058 254.711 59.4531L254.336 59.4062L253.961 59.3672C253.682 59.3359 253.403 59.2912 253.125 59.2344L252.375 59.0781C252.257 59.0542 252.141 59.0542 252.023 59.0781L251.273 59.2344C250.945 59.301 250.614 59.3277 250.281 59.3125L249.531 59.2812C249.172 59.2646 248.817 59.1888 248.477 59.0625L247.727 58.7812C247.667 58.7592 247.628 58.7619 247.586 58.7734L246.836 58.9766C246.534 59.0585 246.229 59.1116 245.922 59.1406L245.547 59.1797L245.172 59.2109C244.887 59.2377 244.598 59.2533 244.312 59.25L243.938 59.2422H243.562C243.281 59.2389 243 59.2184 242.719 59.1875L241.969 59.1094C241.862 59.0976 241.748 59.1022 241.625 59.1406L240.875 59.375C240.468 59.5024 240.045 59.532 239.625 59.4453L238.875 59.2891C238.728 59.2585 238.58 59.2492 238.438 59.2656L238.062 59.3047L237.688 59.3516C237.375 59.3874 237.063 59.3914 236.75 59.3672L236.375 59.3438L236 59.3125C235.749 59.293 235.493 59.2703 235.242 59.25L234.492 59.1875C234.287 59.1711 234.08 59.169 233.875 59.1797L233.5 59.2031L233.125 59.2188C232.74 59.2386 232.364 59.1808 232 59.0547L231.625 58.9297L231.25 58.7969C231.055 58.7292 230.859 58.6847 230.672 58.6562L230.297 58.5938L229.945 58.5391C229.935 58.5438 229.918 58.5596 229.891 58.5781L229.516 58.8359L229.141 59.0859C228.632 59.4341 228.005 59.5356 227.398 59.25L227.023 59.0703L226.648 58.8984C226.49 58.8238 226.347 58.7869 226.219 58.7734L225.844 58.7344L225.469 58.6875C225.454 58.6862 225.409 58.6912 225.32 58.7422L224.945 58.9531L224.57 59.1719C224.11 59.4349 223.58 59.5221 223.039 59.3594L222.664 59.25L222.289 59.1328C222.221 59.1122 222.159 59.1143 222.094 59.1328L221.719 59.2422L221.344 59.3438C220.991 59.443 220.631 59.4831 220.266 59.4609L219.891 59.4375L219.516 59.4219C219.178 59.4013 218.842 59.3319 218.516 59.2266L218.141 59.1094L217.766 58.9844H217.742C217.737 58.9856 217.725 58.9864 217.711 58.9922L216.961 59.3047C216.507 59.4957 216.02 59.5347 215.539 59.3906L215.164 59.2734L214.789 59.1641C214.622 59.1139 214.46 59.0895 214.305 59.0859L213.555 59.0703C213.295 59.0646 213.033 59.0522 212.773 59.0391L212.398 59.0234L212.023 59C211.718 58.9844 211.412 58.9491 211.109 58.8828L210.359 58.7109C210.302 58.6987 210.243 58.706 210.164 58.7344L209.414 59C209.104 59.112 208.789 59.1962 208.469 59.2422L207.719 59.3516C207.308 59.4104 206.899 59.3657 206.508 59.2344L205.758 58.9844C205.56 58.9177 205.363 58.8654 205.172 58.8359L204.797 58.7812L204.422 58.7188C204.317 58.7029 204.209 58.7097 204.094 58.7422L203.719 58.8516L203.344 58.9531C202.867 59.0865 202.385 59.0473 201.938 58.8594L201.188 58.5469C201.067 58.4964 200.969 58.4803 200.883 58.4844L200.508 58.5078L200.133 58.5234C200.105 58.5249 200.027 58.536 199.898 58.625L199.523 58.8906L199.148 59.1484C198.897 59.3235 198.581 59.454 198.219 59.4609C197.855 59.4677 197.533 59.3505 197.273 59.1797L196.898 58.9297L196.523 58.6875C196.473 58.6544 196.44 58.6385 196.422 58.6328C196.411 58.6296 196.402 58.6251 196.398 58.625L196.023 58.6562L195.648 58.6797C195.392 58.6977 195.132 58.714 194.875 58.7266L194.5 58.7422L194.125 58.7656C193.952 58.7741 193.775 58.8016 193.594 58.8516L192.844 59.0547C192.545 59.1373 192.241 59.2002 191.938 59.2344L191.562 59.2734L191.188 59.3203C190.922 59.3502 190.656 59.3735 190.391 59.3906L189.641 59.4375C189.171 59.4678 188.73 59.3459 188.336 59.125L187.586 58.7031C187.44 58.6213 187.322 58.588 187.227 58.5781L186.477 58.5C186.266 58.4787 186.054 58.4732 185.844 58.4766L185.469 58.4844H185.094C184.918 58.4872 184.736 58.5116 184.555 58.5547L184.18 58.6484L183.805 58.7344C183.437 58.8213 183.062 58.8409 182.688 58.7891L182.312 58.7344L181.938 58.6875C181.873 58.6787 181.801 58.6798 181.703 58.7188L181.328 58.875L180.953 59.0234C180.585 59.172 180.195 59.2465 179.797 59.2344L179.422 59.2266L179.047 59.2109C178.728 59.2009 178.407 59.1613 178.094 59.0859L177.344 58.8984C177.216 58.8676 177.09 58.865 176.969 58.8828L176.219 58.9922C175.887 59.0407 175.551 59.0503 175.219 59.0156L174.469 58.9375C174.245 58.9142 174.021 58.8978 173.797 58.8906L173.422 58.875L173.047 58.8672C172.806 58.8596 172.561 58.8523 172.32 58.8516H171.57C171.458 58.8515 171.335 58.8743 171.195 58.9297L170.445 59.2266C169.921 59.4346 169.376 59.4002 168.883 59.1562L168.133 58.7812C167.965 58.6983 167.811 58.6547 167.672 58.6328L167.297 58.5703L166.922 58.5156C166.84 58.5028 166.752 58.5036 166.648 58.5391L166.273 58.6719L165.898 58.7969C165.534 58.9218 165.158 58.9816 164.773 58.9609L164.398 58.9375L164.023 58.9219C163.926 58.9166 163.814 58.9271 163.688 58.9766L162.938 59.2734C162.372 59.4932 161.801 59.4101 161.312 59.1172L160.562 58.6641C160.549 58.6561 160.538 58.6517 160.531 58.6484L160.18 58.7344L159.805 58.8203C159.371 58.921 158.928 58.8971 158.508 58.7578L157.758 58.5078C157.655 58.4743 157.568 58.4708 157.484 58.4844L157.109 58.5469L156.734 58.6016C156.515 58.637 156.292 58.6857 156.07 58.7422L155.32 58.9297C154.971 59.0186 154.616 59.0563 154.258 59.0312L153.883 59.0078L153.508 58.9766C153.19 58.9541 152.874 58.8979 152.562 58.8125L151.812 58.6094H151.797C151.795 58.6095 151.774 58.6102 151.742 58.625L150.992 58.9688C150.663 59.1207 150.322 59.23 149.969 59.2812L149.219 59.3906C148.782 59.4539 148.355 59.3892 147.953 59.2266L147.578 59.0781L147.203 58.9219C147.029 58.8511 146.86 58.809 146.703 58.7891L145.953 58.6953C145.843 58.6815 145.725 58.6906 145.602 58.7266L144.852 58.9453C144.455 59.0601 144.048 59.0771 143.641 59L142.891 58.8594C142.668 58.817 142.441 58.7889 142.219 58.7656L141.469 58.6875C141.301 58.6701 141.13 58.6717 140.961 58.6953L140.586 58.7422L140.211 58.7969C139.943 58.8343 139.675 58.862 139.406 58.8828L138.656 58.9453C138.294 58.9733 137.931 58.9418 137.578 58.8516L137.203 58.75L136.828 58.6562C136.706 58.6249 136.59 58.6158 136.477 58.6328L136.102 58.6953L135.727 58.75C135.555 58.776 135.372 58.8259 135.188 58.8984L134.812 59.0469L134.438 59.1875C133.856 59.4151 133.276 59.3184 132.789 59.0078L132.414 58.7734L132.117 58.5781L131.859 58.7031L131.484 58.8672C131.047 59.0639 130.573 59.1224 130.094 59.0078L129.719 58.9219L129.344 58.8281C129.119 58.7745 128.895 58.7301 128.672 58.6953L128.297 58.6406L127.938 58.5781C127.929 58.5809 127.91 58.5943 127.875 58.6172L127.5 58.8594L127.125 59.1094C126.718 59.3754 126.234 59.528 125.711 59.4688L125.336 59.4219L124.961 59.3828C124.712 59.3546 124.46 59.3248 124.211 59.2969L123.836 59.2578L123.461 59.2109C123.274 59.1902 123.085 59.189 122.898 59.2031L122.523 59.2344L122.148 59.2578C121.76 59.2869 121.376 59.2397 121.008 59.1172L120.281 58.875L119.914 59.0703L119.539 59.2656C119.142 59.4738 118.705 59.5788 118.242 59.5391L117.492 59.4766C117.044 59.4373 116.628 59.2662 116.266 59.0234L115.891 58.7734L115.641 58.6016L115.422 58.7266L115.047 58.9219C114.663 59.1263 114.237 59.2424 113.789 59.2266L113.414 59.2109L113.039 59.2031C112.842 59.1962 112.644 59.2025 112.445 59.2266L112.07 59.2734L111.695 59.3125C111.238 59.3679 110.794 59.2866 110.391 59.0938L109.641 58.7344C109.552 58.6924 109.499 58.6905 109.461 58.6953L109.086 58.7422L108.711 58.7969C108.472 58.8289 108.231 58.8661 107.992 58.9062L107.242 59.0312C106.815 59.1031 106.388 59.0593 105.984 58.9141L105.609 58.7734L105.258 58.6484L104.891 58.8281L104.516 59.0156C104.18 59.1807 103.828 59.2946 103.461 59.3438L103.086 59.3906L102.711 59.4453C102.227 59.5096 101.762 59.4009 101.352 59.1797L100.977 58.9766L100.602 58.7812C100.574 58.7666 100.559 58.7588 100.555 58.7578L100.188 58.8516L99.8125 58.9375C99.5035 59.012 99.1891 59.0554 98.875 59.0703L98.5 59.0938L98.125 59.1094C97.8472 59.1224 97.5669 59.1202 97.2891 59.1094L96.9141 59.0938L96.5391 59.0859C96.1985 59.0725 95.8602 59.0081 95.5312 58.9062L94.7812 58.6719H94.75C94.7447 58.6733 94.7367 58.6754 94.7266 58.6797L93.9766 59.0078C93.4932 59.2175 92.9674 59.2353 92.4688 59.0469L91.7188 58.7656C91.5626 58.7069 91.417 58.6776 91.2812 58.6719L90.5312 58.6406C90.4164 58.6361 90.2926 58.6474 90.1562 58.6953L89.4062 58.9609C88.984 59.1094 88.5423 59.1404 88.1016 59.0391L87.3516 58.8672C87.1207 58.8141 86.8865 58.7653 86.6562 58.7266L85.9062 58.6016C85.7679 58.5787 85.6306 58.578 85.4922 58.6016L85.1172 58.6641L84.7422 58.7344C84.3519 58.8005 83.9608 58.7783 83.5781 58.6797L83.2031 58.5859L82.9141 58.5078L82.5547 58.7812L82.1797 59.0625C81.9436 59.2398 81.6447 59.3885 81.2969 59.4219C80.9417 59.4556 80.6124 59.3659 80.3359 59.2109L79.5859 58.7891L79.5703 58.7812L79.2344 58.8828L78.8594 58.9922C78.3629 59.137 77.8614 59.0863 77.4062 58.875L77.0312 58.7031L76.6562 58.5234C76.5758 58.486 76.5301 58.4946 76.5 58.5L76.125 58.5625L75.75 58.6328C75.598 58.6601 75.4328 58.7125 75.2578 58.7969L74.5078 59.1562C73.9002 59.4485 73.2695 59.3517 72.7578 59L72.3828 58.7422L72.0391 58.5078L71.7656 58.6016L71.3906 58.7266C71.1503 58.8059 70.9047 58.889 70.6641 58.9766L70.2891 59.1094L69.9141 59.25C69.5914 59.3671 69.2584 59.443 68.9219 59.4766L68.1719 59.5547C67.8463 59.5869 67.52 59.5824 67.1953 59.5391L66.8203 59.4844L66.4453 59.4375C66.1595 59.3991 65.8696 59.3428 65.5859 59.2734L65.2109 59.1797L64.8359 59.0938C64.6142 59.0396 64.3921 58.9947 64.1719 58.9609L63.7969 58.8984L63.4219 58.8438C63.3661 58.8355 63.3018 58.8379 63.2109 58.875L62.4609 59.1875C62.0897 59.3411 61.6933 59.4204 61.2891 59.4062L60.5391 59.375C60.2869 59.3662 60.0334 59.3625 59.7812 59.3516L59.4062 59.3281L59.0312 59.3125C58.8156 59.3032 58.5986 59.3077 58.3828 59.3203L57.6328 59.3672C57.3622 59.383 57.0911 59.3842 56.8203 59.3828H56.0703C55.6234 59.3805 55.2047 59.2464 54.8281 59.0312L54.2031 58.6797L53.9609 58.8281L53.5859 59.0547C53.0568 59.3697 52.4441 59.4118 51.875 59.125L51.5 58.9297L51.125 58.7422C50.9915 58.675 50.8821 58.6506 50.7969 58.6484L50.0469 58.6328C49.8229 58.6271 49.599 58.6302 49.375 58.6406L48.625 58.6719C48.5254 58.6765 48.4056 58.706 48.2656 58.7734L47.8906 58.9609L47.5156 59.1406C47.0443 59.3694 46.5204 59.4138 46.0078 59.2422L45.2578 58.9922C45.0116 58.9097 44.7618 58.8293 44.5156 58.75L44.1406 58.6328L43.7812 58.5078L43.7734 58.5156L43.0234 58.8906C42.618 59.0934 42.169 59.1892 41.7031 59.1328L40.9531 59.0391C40.747 59.0142 40.5411 59.006 40.3359 59.0078H39.9609L39.5859 59.0156H38.0703C37.8625 59.0145 37.6541 59.0219 37.4453 59.0469L36.6953 59.1406C36.2365 59.1956 35.7943 59.1012 35.3906 58.9062L35.0156 58.7266L34.7109 58.5781L34.4062 58.7422L34.0312 58.9375C33.7051 59.1051 33.3613 59.2227 33.0078 59.2891L32.2578 59.4297C31.8346 59.5089 31.4126 59.4796 31.0078 59.3438L30.2578 59.0938C30.0738 59.0319 29.8917 58.9869 29.7188 58.9688L29.3516 58.9297L28.9766 58.8906C28.8039 58.8726 28.6252 58.8765 28.4453 58.8984L27.6797 58.9922C27.173 59.0535 26.6919 58.9227 26.2812 58.6406L25.625 58.1875C25.549 58.1353 25.4844 58.1205 25.4219 58.1172L25.0391 58.0938L24.6562 58.0781C24.3541 58.0621 24.0522 58.0198 23.75 57.9609L23.3594 57.8828L22.9688 57.8125C22.4909 57.7192 22.0769 57.4773 21.7578 57.1094L21.5 56.8125L21.2422 56.5078C21.0418 56.2766 20.8524 56.0403 20.6875 55.7891L20.2656 55.1484C20.2548 55.1319 20.2336 55.1019 20.1484 55.0703L19.7578 54.9219L19.3594 54.7734C18.9155 54.6087 18.5344 54.3247 18.2656 53.9141L18.0547 53.5938L17.8438 53.2656C17.6773 53.0108 17.5266 52.744 17.3984 52.4688L17.2344 52.125L17.0781 51.7734C16.9907 51.5859 16.8842 51.4023 16.7656 51.2188L16.5469 50.8828L16.3359 50.5469C16.0529 50.1093 15.953 49.6131 16.0312 49.1094L16.0938 48.7031L16.1562 48.2891C16.1689 48.2074 16.1594 48.1521 16.1328 48.0938L15.9688 47.7266L15.7969 47.3594C15.6382 47.017 15.5408 46.6558 15.5078 46.2812L15.4688 45.8984L15.4375 45.5156C15.3967 45.0421 15.5135 44.5964 15.7344 44.1953L16.1406 43.4453C16.2196 43.302 16.2578 43.1855 16.2656 43.0938L16.3281 42.3438C16.3336 42.2782 16.3226 42.1956 16.2734 42.0859L16.1016 41.7109L15.9375 41.3359C15.7175 40.8463 15.6998 40.3183 15.8984 39.8125L16.0469 39.4375L16.1875 39.0625C16.2121 39 16.2127 38.9591 16.2031 38.9219L16.1094 38.5469L16.0078 38.1719C15.9091 37.7863 15.8976 37.3923 15.9688 37L16.0391 36.625L16.1016 36.25C16.1432 36.022 16.1774 35.7898 16.2031 35.5625L16.25 35.1875L16.2891 34.8125C16.303 34.6884 16.2926 34.5635 16.2578 34.4297L16.1641 34.0547L16.0625 33.6797C15.9446 33.2277 15.975 32.77 16.1328 32.3359L16.2734 31.9609L16.4062 31.5859C16.436 31.5043 16.4343 31.4417 16.4219 31.3828L16.2656 30.6328C16.1826 30.2401 16.1911 29.844 16.2812 29.4531L16.4531 28.7031C16.4668 28.644 16.464 28.5844 16.4375 28.5078L16.1719 27.7578C16.0784 27.4904 15.9921 27.2162 15.9141 26.9453L15.8047 26.5703L15.6953 26.1875C15.5684 25.745 15.5762 25.2901 15.7188 24.8516L15.8438 24.4766L15.9609 24.1016C16.0502 23.8278 16.1568 23.5641 16.2656 23.3047L16.4062 22.9531L16.5547 22.6016C16.6631 22.3432 16.7793 22.0878 16.9062 21.8438L17.25 21.1875C17.321 21.0506 17.3783 20.8999 17.4141 20.7344L17.4922 20.3594L17.5781 19.9844C17.6728 19.549 17.8778 19.1592 18.1953 18.8438L18.4688 18.5781L18.7344 18.3125C18.9246 18.1235 19.1179 17.9405 19.3125 17.7656L19.5859 17.5156L19.8594 17.2734C20.0646 17.0891 20.2807 16.9127 20.5 16.75L20.7891 16.5391L21.0781 16.3203C21.2114 16.2214 21.3412 16.1055 21.4609 15.9688L21.7109 15.6797L21.9609 15.3984C22.2389 15.0803 22.5833 14.842 22.9844 14.7031L23.3359 14.5859L23.6875 14.4609C23.8733 14.3965 24.0526 14.3179 24.2266 14.2266L24.8828 13.8828C25.245 13.6927 25.6387 13.5953 26.0469 13.5938H26.7969C26.9001 13.5934 27.0042 13.5662 27.1172 13.5156L27.4766 13.3594L27.8281 13.2031C27.962 13.1429 28.1011 13.0797 28.2266 13.0391C28.3053 13.0135 28.5503 12.9362 28.8203 12.9688L28.9062 12.9844C28.9508 12.9752 29.0214 12.9555 29.1172 12.9297L29.4922 12.8359L29.8672 12.7344L30.25 12.6641C30.6327 12.6387 31.0055 12.7273 31.3438 12.9062L31.7188 13.1094L32.0938 13.3047C32.2035 13.3628 32.2757 13.3698 32.3203 13.3672L32.6953 13.3438L33.0703 13.3281C33.2145 13.3193 33.3692 13.2865 33.5312 13.2266L34.2812 12.9453C34.5702 12.8386 34.8622 12.753 35.1562 12.6875L35.5312 12.6016L35.9062 12.5234C36.2969 12.4365 36.6947 12.4312 37.0859 12.5156L37.4609 12.6016L37.8359 12.6797C37.9581 12.7061 38.0758 12.7088 38.1953 12.6875L38.9453 12.5469C39.4062 12.4636 39.8633 12.5348 40.2812 12.7188L41.0312 13.0469L41.0391 13.0547L41.4141 12.9141L41.7891 12.7812C42.1933 12.638 42.6199 12.5978 43.0469 12.6719L43.4219 12.7422L43.7969 12.8047C44.1205 12.8609 44.439 12.9518 44.75 13.0781L45.125 13.2344L45.4141 13.3516L45.7422 13.1641L46.1172 12.9375C46.5275 12.6963 46.9987 12.5768 47.5 12.6406L48.25 12.7344C48.548 12.7726 48.8467 12.8323 49.1406 12.9141L49.5156 13.0234L49.8906 13.125C50.0613 13.1725 50.2291 13.1998 50.3906 13.2031H50.7656L51.1406 13.2109C51.3062 13.2141 51.4765 13.196 51.6484 13.1562L52.3984 12.9844C52.8597 12.8776 53.3197 12.9269 53.75 13.1016L54.125 13.25L54.4219 13.375L54.7578 13.1875L55.1328 12.9766L55.5156 12.8125C55.7773 12.7294 56.0515 12.7013 56.3281 12.7422L56.7422 12.8516L57.1172 13L57.4688 13.1484L57.8359 12.9766L58.2109 12.8047L58.6172 12.6719C58.8882 12.6163 59.1633 12.6267 59.4297 12.6953L59.8281 12.8438L60.2031 13.0391L60.5469 13.2109L60.8828 13.0781L61.2578 12.9297C61.698 12.7552 62.1677 12.7196 62.6328 12.8438L63.3828 13.0469C63.566 13.0958 63.7456 13.1238 63.9219 13.1328L64.2969 13.1484L64.6719 13.1719C64.9261 13.1845 65.1833 13.1948 65.4375 13.2109L66.1875 13.2578C66.4855 13.2767 66.7829 13.3209 67.0781 13.3828L67.8281 13.5391C67.8909 13.5523 67.9565 13.5522 68.0391 13.5234L68.7891 13.2578C69.1731 13.1221 69.5767 13.0722 69.9844 13.1172L70.7344 13.1953C70.9054 13.2142 71.0785 13.2174 71.25 13.1953L71.625 13.1484L72 13.0938C72.2009 13.0678 72.4047 13.0328 72.6094 12.9766L72.9844 12.8672L73.3594 12.7656C73.6651 12.6816 73.9776 12.6294 74.2891 12.6016L74.6641 12.5625L75.0391 12.5312C75.4053 12.4988 75.7687 12.532 76.125 12.625L76.5 12.7266L76.875 12.8203C77.0176 12.8577 77.1564 12.8699 77.2891 12.8594L78.0391 12.7969C78.4774 12.7608 78.906 12.8509 79.2969 13.0312L79.6719 13.2031L80.0156 13.3672L80.3672 13.2188L80.7422 13.0625C81.1853 12.8786 81.6602 12.8419 82.1328 12.9688L82.8828 13.1719C83.0652 13.2209 83.2468 13.2421 83.4219 13.25L83.7969 13.2734L84.1719 13.2891C84.4318 13.3009 84.6932 13.3159 84.9531 13.3359L85.3281 13.3672L85.7031 13.3906C85.9505 13.4097 86.1979 13.4275 86.4453 13.4453L86.8203 13.4766L87.1953 13.5H87.2031C87.2168 13.4958 87.2515 13.4817 87.3047 13.4453L88.0547 12.9297C88.4254 12.6741 88.8552 12.4983 89.3281 12.4766L90.0781 12.4453C90.3582 12.4327 90.6418 12.4326 90.9219 12.4453L91.6719 12.4766C92.0101 12.4921 92.3448 12.555 92.6719 12.6562L93.0469 12.7656L93.4219 12.8828C93.5511 12.9228 93.6682 12.9402 93.7812 12.9297L94.1562 12.8906L94.5312 12.8594C94.8226 12.832 95.1145 12.8182 95.4062 12.8281L95.7812 12.8438L96.1562 12.8516C96.5113 12.8638 96.8645 12.9377 97.2031 13.0547L97.5781 13.1797L97.9531 13.3125C98.0426 13.3431 98.1175 13.3417 98.1875 13.3281L98.9375 13.1875C99.1903 13.1383 99.4425 13.0853 99.6953 13.0391L100.07 12.9766L100.445 12.9062C100.665 12.8661 100.888 12.8115 101.109 12.75L101.859 12.5469C102.259 12.4362 102.671 12.4166 103.078 12.5L103.828 12.6562C104.088 12.7094 104.35 12.7665 104.609 12.8281L104.984 12.9141L105.359 13.0078C105.483 13.0368 105.601 13.0414 105.719 13.0234L106.094 12.9609L106.469 12.9062C106.841 12.8483 107.218 12.8573 107.586 12.9375L107.961 13.0234L108.336 13.1016C108.559 13.1503 108.786 13.1896 109.008 13.2188L109.383 13.2734L109.758 13.3203C110 13.3522 110.242 13.3795 110.484 13.4062L110.859 13.4453L111.234 13.4922C111.453 13.5164 111.672 13.5275 111.891 13.5312L112.641 13.5469C112.692 13.5478 112.772 13.5343 112.891 13.4688L113.266 13.2578L113.641 13.0547C113.984 12.8649 114.365 12.7679 114.758 12.7969L115.148 12.8672L115.898 13.0859H115.922C115.928 13.084 115.939 13.0767 115.953 13.0703L116.328 12.8984L116.703 12.7188L117.125 12.5781C117.409 12.5218 117.695 12.5422 117.969 12.625L118.375 12.7969L118.75 13.0156L119.086 13.2031L119.383 13.0859L119.758 12.9375C120.214 12.7577 120.698 12.7353 121.172 12.8828L121.922 13.1172C122.084 13.1677 122.242 13.1856 122.391 13.1875L123.141 13.2031C123.441 13.2071 123.741 13.2319 124.039 13.2812L124.789 13.4062C124.86 13.4178 124.935 13.4102 125.031 13.375L125.406 13.2422L125.781 13.1016C126.16 12.9629 126.556 12.9096 126.961 12.9453L127.711 13.0078C127.931 13.0275 128.155 13.039 128.375 13.0391H129.125C129.349 13.0391 129.573 13.0332 129.797 13.0156L130.547 12.9531C130.838 12.9302 131.13 12.9236 131.422 12.9375L131.797 12.9609L132.172 12.9766C132.38 12.9865 132.589 12.9845 132.797 12.9688L133.547 12.9062C133.783 12.8883 134.022 12.8707 134.258 12.8438L134.633 12.7969L135.008 12.7578C135.308 12.7235 135.613 12.7142 135.914 12.7266L136.289 12.7422L136.664 12.75C136.973 12.7627 137.281 12.809 137.586 12.875L138.336 13.0312C138.416 13.0486 138.495 13.051 138.586 13.0234L138.961 12.9062L139.336 12.7969L139.727 12.7188C140.11 12.6833 140.484 12.7688 140.828 12.9453L141.203 13.1328L141.578 13.3281C141.726 13.404 141.855 13.4364 141.961 13.4453L142.711 13.5078H142.719C142.733 13.5034 142.763 13.4869 142.812 13.4531L143.188 13.2031L143.562 12.9453C144.056 12.6104 144.664 12.5021 145.266 12.7578L145.641 12.9141L146.016 13.0781C146.13 13.1266 146.22 13.1385 146.297 13.1328L147.047 13.0703C147.384 13.0443 147.721 13.064 148.055 13.125L148.805 13.2656C148.827 13.2698 148.868 13.2716 148.945 13.2344L149.695 12.875L150.133 12.7266C150.576 12.6416 151.017 12.7398 151.406 12.9844L151.781 13.2188L152.008 13.3594L152.227 13.2266L152.602 13C152.977 12.7713 153.403 12.6242 153.859 12.6172H154.234L154.609 12.6094C155.054 12.6026 155.472 12.7229 155.852 12.9297L156.227 13.1328L156.547 13.3125L156.859 13.1797L157.234 13.0156C157.716 12.8105 158.231 12.7983 158.727 12.9844L159.477 13.2656C159.517 13.2806 159.533 13.275 159.562 13.2656L159.938 13.1484L160.312 13.0234C160.627 12.9209 160.949 12.8528 161.273 12.8203L162.023 12.7422C162.51 12.6937 162.972 12.8157 163.375 13.0469L163.75 13.2656L163.984 13.4062L164.234 13.25L164.609 13.0234C164.959 12.8118 165.353 12.7005 165.766 12.7344L166.18 12.8125L166.555 12.9375L166.93 13.0547C166.937 13.0571 166.944 13.0545 166.945 13.0547V13.0625L166.953 13.0547C166.958 13.0534 166.97 13.0529 166.984 13.0469L167.359 12.8906L167.734 12.7266C168.099 12.5718 168.485 12.4893 168.883 12.4922H169.258L169.633 12.5C169.865 12.5017 170.096 12.4948 170.328 12.4844L171.078 12.4531C171.541 12.4322 171.979 12.5553 172.367 12.7734L173.117 13.1953C173.274 13.2829 173.409 13.3264 173.523 13.3438L174.273 13.4531C174.479 13.4842 174.686 13.5048 174.891 13.5078L175.266 13.5156H175.641C175.83 13.5183 176.02 13.5078 176.211 13.4766L176.961 13.3516C177.333 13.2906 177.709 13.2984 178.078 13.375L178.828 13.5312C178.843 13.5343 178.869 13.5406 178.938 13.5078L179.312 13.3281L179.688 13.1406C180.139 12.9222 180.64 12.8619 181.141 13L181.516 13.1094L181.891 13.2109C181.916 13.218 181.938 13.2176 181.992 13.1953L182.367 13.0391L182.742 12.8906C183.23 12.6888 183.75 12.6798 184.242 12.875L184.617 13.0234L184.992 13.1797C185.108 13.2258 185.205 13.2334 185.289 13.2266L186.039 13.1641C186.19 13.1513 186.348 13.1107 186.516 13.0469L187.266 12.7656C187.801 12.5618 188.356 12.6104 188.844 12.8672L189.219 13.0625L189.594 13.2656L189.602 13.2734L189.961 13.1641L190.336 13.0469C190.824 12.9 191.317 12.9414 191.773 13.1406L192.523 13.4688V13.4766L192.883 13.3281L193.258 13.1797C193.73 12.9948 194.231 12.9848 194.711 13.1562L195.461 13.4219C195.552 13.4545 195.627 13.458 195.695 13.4453L196.445 13.3047C196.66 13.2646 196.877 13.2122 197.094 13.1484L197.844 12.9297C198.315 12.7916 198.793 12.8217 199.242 13L199.992 13.2969V13.3047L200 13.2969L200.375 13.1484L200.75 12.9922C201.072 12.8624 201.404 12.7798 201.742 12.7344L202.117 12.6797L202.492 12.6328C202.941 12.5725 203.377 12.6407 203.781 12.8203L204.156 12.9922L204.477 13.1406L204.812 12.9766L205.188 12.7891C205.579 12.5978 206.007 12.5038 206.453 12.5391L207.203 12.6016C207.414 12.6182 207.626 12.6178 207.836 12.6094L208.586 12.5781C208.983 12.5624 209.374 12.6373 209.742 12.7812L210.117 12.9219L210.492 13.0703C210.537 13.0875 210.558 13.0867 210.586 13.0781L210.961 12.9609L211.336 12.8516C211.762 12.722 212.201 12.7126 212.633 12.8281L213.383 13.0312C213.561 13.079 213.736 13.1032 213.906 13.1094L214.281 13.125L214.656 13.1328C214.792 13.1375 214.936 13.1232 215.086 13.0781L215.461 12.9609L215.836 12.8516C216.175 12.7491 216.523 12.695 216.875 12.6953H217.625C217.909 12.6956 218.193 12.7125 218.477 12.7422L219.227 12.8203C219.478 12.8467 219.733 12.8704 219.984 12.8984L220.359 12.9453L220.734 12.9844C220.875 13.0001 221.018 12.9921 221.164 12.9609L221.914 12.8047C222.211 12.7411 222.512 12.6978 222.812 12.6797L223.562 12.6328C223.969 12.6085 224.367 12.679 224.742 12.8281L225.117 12.9766L225.492 13.1328C225.541 13.1524 225.566 13.1484 225.594 13.1406L226.344 12.9219C226.667 12.8277 226.996 12.7733 227.328 12.7578L227.703 12.7344L228.078 12.7188C228.552 12.6966 228.993 12.8318 229.383 13.0625L229.758 13.2812L230.039 13.4609L230.312 13.3281L230.688 13.1484C231.151 12.9255 231.665 12.8728 232.172 13.0312L232.922 13.2656C233.104 13.323 233.288 13.3607 233.461 13.375L234.211 13.4375C234.425 13.4551 234.638 13.4581 234.852 13.4531L235.602 13.4375C235.773 13.4335 235.946 13.4052 236.125 13.3594L236.875 13.1719C237.117 13.1098 237.36 13.0444 237.602 12.9766L237.977 12.8672L238.352 12.7656C238.855 12.6242 239.359 12.6855 239.812 12.9062L240.562 13.2656C240.661 13.3134 240.724 13.3172 240.766 13.3125L241.516 13.2344C241.812 13.2012 242.109 13.1857 242.406 13.1953L242.781 13.2109L243.156 13.2188C243.308 13.2237 243.464 13.2053 243.625 13.1641L244.375 12.9766C244.652 12.9053 244.932 12.8426 245.211 12.7969L245.961 12.6719C246.302 12.6161 246.65 12.609 246.992 12.6484L247.367 12.6953L247.742 12.7344C248.083 12.7738 248.418 12.8651 248.742 12.9922L249.117 13.1328L249.453 13.2734L249.805 13.0938L250.18 12.9141C250.632 12.6916 251.136 12.6257 251.641 12.7656L252.016 12.8672L252.391 12.9766C252.667 13.0535 252.944 13.1416 253.219 13.2422L253.594 13.375L253.969 13.5156L253.984 13.5078L254.734 13.1953C255.139 13.0245 255.573 12.9595 256.016 13.0234L256.766 13.1328C256.895 13.1517 257.03 13.1465 257.164 13.1172L257.539 13.0391L257.914 12.9531C258.398 12.8479 258.873 12.9191 259.305 13.125L259.68 13.3047L259.961 13.4453L260.266 13.2734L260.641 13.0625C261.11 12.8013 261.648 12.7212 262.188 12.8984L262.938 13.1484C262.98 13.1625 263.01 13.1637 263.055 13.1484L263.43 13.0156L263.805 12.8906C264.209 12.7538 264.631 12.7198 265.055 12.7969L265.43 12.8672L265.805 12.9297C266.087 12.9812 266.368 13.0526 266.648 13.1328L267.023 13.2344L267.398 13.3438C267.487 13.3691 267.566 13.3707 267.648 13.3516L268.398 13.1797C268.74 13.1002 269.089 13.065 269.438 13.0859L270.188 13.1328C270.379 13.1442 270.574 13.139 270.766 13.1172L271.141 13.0781L271.516 13.0312C271.853 12.9932 272.195 13.0025 272.531 13.0547L272.906 13.1094L273.281 13.1719C273.321 13.1777 273.375 13.172 273.461 13.1328L273.836 12.9688L274.211 12.7969C274.565 12.6356 274.942 12.5724 275.32 12.625L275.703 12.7188L276.078 12.8438L276.453 12.9766C276.687 13.0569 276.924 13.1281 277.156 13.1953L277.906 13.4141C277.975 13.4335 278.033 13.4333 278.102 13.4141L278.477 13.3125L278.852 13.2031C279.058 13.1446 279.272 13.0675 279.484 12.9766L279.859 12.8203L280.234 12.6562C280.621 12.4915 281.036 12.4178 281.461 12.4531L282.211 12.5156C282.641 12.5519 283.039 12.7 283.398 12.9219L283.773 13.1562L284.008 13.3047L284.242 13.1641L284.617 12.9375L285.016 12.7578C285.29 12.6701 285.579 12.6486 285.867 12.7031L286.297 12.8438L287.047 13.1875C287.193 13.2546 287.319 13.2831 287.43 13.2891L288.18 13.3359C288.338 13.3444 288.5 13.3247 288.664 13.2891L289.414 13.1328C289.803 13.0485 290.197 13.0483 290.586 13.1328L290.961 13.2109L291.328 13.2969C291.331 13.2962 291.35 13.292 291.383 13.2734L291.758 13.0547L292.133 12.8438L292.531 12.6719C292.939 12.5487 293.372 12.5745 293.789 12.7656L294.539 13.1094C294.64 13.1559 294.712 13.1543 294.766 13.1484L295.516 13.0703C295.691 13.051 295.87 13.0072 296.055 12.9453L296.805 12.6953C297.163 12.5753 297.537 12.5167 297.914 12.5312L298.664 12.5625C299.074 12.5784 299.465 12.6916 299.828 12.875L300.578 13.25C300.645 13.2837 300.665 13.283 300.672 13.2812L301.422 13.125C301.732 13.0607 302.045 13.0204 302.359 13.0156H302.734L303.109 13.0078C303.393 13.0035 303.677 13.0138 303.961 13.0391L304.336 13.0703L304.711 13.1094C304.997 13.1349 305.286 13.1698 305.57 13.2266L306.32 13.3828C306.349 13.3884 306.386 13.3855 306.461 13.3516L306.836 13.1875L307.211 13.0156C307.563 12.8555 307.935 12.7556 308.32 12.7344L308.695 12.7109L309.07 12.6953C309.448 12.6746 309.82 12.7209 310.18 12.8359L310.555 12.9609L310.93 13.0781C311.039 13.1132 311.134 13.1154 311.227 13.1016L311.977 12.9922C312.397 12.9292 312.814 12.9759 313.211 13.1172L313.961 13.3828C314.034 13.4088 314.086 13.411 314.141 13.3984L314.516 13.3125L314.891 13.2188C315.204 13.144 315.524 13.103 315.844 13.0938L316.219 13.0859L316.594 13.0703C316.777 13.0651 316.968 13.0426 317.156 13L317.906 12.8281C318.194 12.7631 318.483 12.7163 318.773 12.6875L319.148 12.6484L319.523 12.6172C320.007 12.5693 320.465 12.6862 320.867 12.9141L321.242 13.125L321.617 13.3438C321.733 13.4094 321.808 13.4149 321.852 13.4141L322.602 13.3984C322.892 13.3919 323.186 13.4006 323.477 13.4297L324.227 13.5078C324.346 13.5195 324.469 13.5064 324.602 13.4688L324.977 13.3672L325.352 13.2578C325.554 13.2001 325.759 13.1239 325.969 13.0312L326.719 12.7031C327.102 12.5334 327.506 12.4912 327.898 12.5781L328.289 12.7031L329.039 13.0469L329.789 12.7812C330.26 12.6135 330.751 12.6239 331.219 12.7969L331.594 12.9297L331.969 13.0703C332.125 13.1283 332.278 13.1592 332.414 13.1641L332.789 13.1719L333.164 13.1875C333.372 13.1947 333.581 13.1902 333.789 13.1719L334.539 13.1094C334.77 13.089 335.003 13.0566 335.234 13.0234L335.609 12.9688L335.984 12.9219C336.417 12.8601 336.842 12.912 337.242 13.0703L337.617 13.2266L337.992 13.375C338.144 13.4355 338.286 13.4639 338.414 13.4688L338.789 13.4766L339.164 13.4922C339.318 13.4978 339.478 13.4849 339.641 13.4453L340.391 13.2578C340.689 13.185 340.994 13.1342 341.297 13.1094L341.672 13.0781L342.047 13.0547C342.416 13.0248 342.783 13.0582 343.141 13.1562L343.891 13.3594C343.94 13.3728 343.984 13.3735 344.047 13.3516L344.422 13.2188L344.797 13.0938C345.103 12.9868 345.412 12.9064 345.727 12.8594L346.477 12.75C346.757 12.7081 347.039 12.6792 347.32 12.6641L348.07 12.6172C348.304 12.6046 348.539 12.5861 348.773 12.5625L349.148 12.5312L349.523 12.4922C349.846 12.4597 350.17 12.4617 350.492 12.5L350.867 12.5469L351.242 12.5859C351.54 12.6214 351.838 12.6793 352.133 12.7578L352.883 12.9609C352.954 12.98 353.019 12.983 353.094 12.9609L353.469 12.8438L353.844 12.7344L354.25 12.6641C354.651 12.6367 355.039 12.7442 355.383 12.9453L355.758 13.1641L355.945 13.2812L356.172 13.1172L356.547 12.8516C356.929 12.5813 357.38 12.4023 357.883 12.4062H358.258ZM357.828 14.4141C357.803 14.423 357.762 14.4429 357.703 14.4844L356.953 15.0156C356.71 15.1874 356.41 15.3222 356.062 15.3438C355.71 15.3653 355.386 15.2666 355.117 15.1094L354.367 14.6719L354.359 14.6641L354.031 14.7656L353.656 14.875C353.232 14.9997 352.796 15.005 352.367 14.8906L351.992 14.7891L351.617 14.6953C351.412 14.6406 351.209 14.6021 351.008 14.5781L350.258 14.4844C350.081 14.4633 349.903 14.4589 349.727 14.4766L348.977 14.5547C348.711 14.5814 348.445 14.6029 348.18 14.6172L347.805 14.6406L347.43 14.6562C347.212 14.668 346.992 14.6938 346.773 14.7266L346.023 14.8359C345.838 14.8636 345.647 14.9089 345.453 14.9766L344.703 15.2422C344.267 15.3943 343.809 15.4122 343.359 15.2891L342.609 15.0859C342.468 15.0474 342.333 15.0362 342.203 15.0469L341.453 15.1094C341.258 15.1256 341.058 15.1545 340.859 15.2031L340.484 15.2969L340.109 15.3828C339.773 15.4649 339.43 15.5051 339.086 15.4922L338.336 15.4609C337.966 15.4468 337.604 15.3716 337.258 15.2344L336.883 15.0781L336.508 14.9297C336.409 14.8904 336.332 14.889 336.266 14.8984L335.516 15.0078C335.248 15.046 334.979 15.078 334.711 15.1016L333.961 15.1641C333.671 15.1895 333.377 15.1978 333.086 15.1875L332.711 15.1719L332.336 15.1641C331.975 15.1508 331.623 15.0715 331.281 14.9453L330.906 14.8047L330.531 14.6719C330.508 14.6632 330.493 14.6641 330.492 14.6641C330.49 14.6641 330.48 14.6575 330.461 14.6641L330.086 14.8047L329.711 14.9375C329.209 15.1163 328.688 15.0824 328.211 14.8672L327.836 14.6953L327.492 14.5391L327.156 14.6953L326.781 14.8594C326.491 14.988 326.195 15.0952 325.898 15.1797L325.148 15.3984C324.782 15.5026 324.403 15.538 324.023 15.5L323.273 15.4219C323.065 15.4011 322.857 15.3938 322.648 15.3984L321.898 15.4141C321.442 15.4243 321.016 15.2955 320.633 15.0781L319.883 14.6562C319.792 14.6046 319.745 14.6001 319.727 14.6016L318.977 14.6797C318.768 14.7003 318.554 14.7336 318.344 14.7812L317.594 14.9531C317.284 15.0231 316.971 15.0613 316.656 15.0703L316.281 15.0781L315.906 15.0938C315.728 15.0988 315.544 15.1204 315.359 15.1641L314.984 15.2578L314.609 15.3438C314.165 15.4496 313.715 15.4172 313.289 15.2656L312.539 15C312.437 14.9637 312.352 14.9571 312.273 14.9688L311.898 15.0234L311.523 15.0859C311.116 15.1469 310.711 15.1091 310.32 14.9844L309.945 14.8594L309.57 14.7422C309.431 14.6976 309.302 14.6808 309.18 14.6875L308.43 14.7344C308.315 14.7407 308.187 14.7688 308.039 14.8359L307.664 15.0078L307.289 15.1719C306.864 15.3651 306.401 15.4377 305.93 15.3438L305.555 15.2656L305.18 15.1953C304.966 15.1526 304.752 15.1207 304.539 15.1016L304.164 15.0625L303.789 15.0312C303.574 15.012 303.356 15.0046 303.141 15.0078L302.766 15.0156H302.391C302.205 15.0184 302.017 15.039 301.828 15.0781L301.078 15.2344C300.585 15.3367 300.103 15.257 299.672 15.0391L299.297 14.8516L298.922 14.6562C298.786 14.588 298.675 14.566 298.586 14.5625L297.836 14.5312C297.714 14.5266 297.586 14.547 297.445 14.5938L296.695 14.8438C296.381 14.949 296.058 15.019 295.734 15.0547L295.359 15.1016L294.984 15.1406C294.539 15.1897 294.109 15.1042 293.711 14.9219L293.336 14.75L293.047 14.6172L292.742 14.7969L292.367 15.0078C291.932 15.2547 291.434 15.3625 290.914 15.25L290.539 15.1641L290.164 15.0859C290.054 15.062 289.946 15.0621 289.836 15.0859L289.461 15.1641L289.086 15.25C288.751 15.3224 288.411 15.3465 288.07 15.3281L287.695 15.3125L287.32 15.2891C286.932 15.268 286.556 15.1708 286.203 15.0078L285.828 14.8281L285.555 14.6953L285.258 14.8828L284.883 15.1016C284.626 15.254 284.321 15.3556 283.984 15.3516C283.65 15.3468 283.353 15.2408 283.102 15.0859L282.727 14.8594L282.352 14.625C282.213 14.5392 282.107 14.5135 282.039 14.5078L281.289 14.4453C281.216 14.4397 281.127 14.4524 281.016 14.5L280.641 14.6562L280.266 14.8203C279.98 14.9425 279.69 15.0424 279.398 15.125L279.023 15.2344L278.648 15.3359C278.218 15.4577 277.773 15.4599 277.344 15.3359L276.594 15.1172C276.329 15.0405 276.061 14.9582 275.797 14.8672L275.422 14.7344L275.055 14.6094L275.039 14.6172L274.664 14.7891L274.289 14.9531C273.877 15.1407 273.428 15.2197 272.969 15.1484L272.594 15.0859L272.219 15.0312C272.057 15.0064 271.894 15.0053 271.734 15.0234L270.984 15.1016C270.678 15.1361 270.369 15.1513 270.062 15.1328L269.312 15.0859C269.162 15.0771 269.009 15.0883 268.852 15.125L268.102 15.2969C267.684 15.3941 267.263 15.383 266.852 15.2656L266.477 15.1641L266.102 15.0547C265.882 14.992 265.662 14.938 265.445 14.8984L265.07 14.8281L264.695 14.7656C264.619 14.7518 264.541 14.7567 264.445 14.7891L263.695 15.0391C263.241 15.193 262.769 15.1969 262.312 15.0469L261.609 14.8125L261.234 15.0156L260.859 15.2266C260.338 15.5165 259.748 15.5522 259.195 15.2891L258.445 14.9297C258.378 14.8977 258.351 14.903 258.336 14.9062L257.961 14.9922L257.586 15.0703C257.222 15.1496 256.853 15.1628 256.484 15.1094L255.734 15C255.679 14.9919 255.61 14.9992 255.516 15.0391L254.766 15.3516C254.287 15.5538 253.774 15.5714 253.281 15.3906L252.906 15.2578L252.531 15.1172C252.306 15.0347 252.082 14.9606 251.859 14.8984L251.484 14.7969L251.109 14.6875H251.102L250.695 14.8906L250.32 15.0703C249.829 15.3121 249.28 15.3533 248.758 15.1484L248.008 14.8516C247.834 14.7834 247.666 14.7448 247.508 14.7266L247.133 14.6797L246.758 14.6406C246.602 14.6229 246.447 14.6228 246.289 14.6484L245.539 14.7734C245.319 14.8094 245.097 14.8572 244.875 14.9141L244.125 15.1016C243.787 15.1885 243.441 15.2299 243.094 15.2188L242.719 15.2031L242.344 15.1953C242.142 15.1888 241.937 15.196 241.734 15.2188L241.359 15.2578L240.984 15.3047C240.528 15.3554 240.088 15.2651 239.688 15.0703L239.312 14.8828L238.938 14.7031C238.923 14.6959 238.912 14.6894 238.906 14.6875H238.898L238.523 14.7969L238.148 14.8984C237.891 14.9706 237.632 15.0433 237.375 15.1094L236.625 15.2969C236.304 15.3794 235.977 15.4298 235.648 15.4375L234.898 15.4531C234.613 15.4598 234.324 15.4533 234.039 15.4297L233.289 15.3672C232.964 15.34 232.644 15.2709 232.328 15.1719L231.578 14.9375L231.562 14.9453L231.188 15.125L230.812 15.3125C230.245 15.5857 229.638 15.5348 229.117 15.2266L228.742 15.0078L228.367 14.7812C228.258 14.7164 228.197 14.7176 228.172 14.7188L227.422 14.75C227.255 14.7578 227.083 14.7847 226.906 14.8359L226.156 15.0547C225.685 15.1922 225.207 15.1631 224.758 14.9844L224.008 14.6875C223.885 14.6386 223.779 14.6277 223.688 14.6328L223.312 14.6562L222.938 14.6719C222.739 14.6837 222.537 14.7148 222.336 14.7578L221.586 14.9141C221.233 14.9896 220.874 15.0085 220.516 14.9688L219.766 14.8906C219.519 14.8631 219.271 14.8307 219.023 14.8047L218.273 14.7266C218.058 14.7039 217.84 14.6956 217.625 14.6953H216.875C216.728 14.6951 216.574 14.7173 216.414 14.7656L216.039 14.875L215.664 14.9922C215.315 15.0975 214.957 15.145 214.594 15.1328L214.219 15.1172L213.844 15.1094C213.516 15.098 213.187 15.0466 212.867 14.9609L212.117 14.7578C212.05 14.7397 211.987 14.7434 211.914 14.7656L211.539 14.875L211.164 14.9922C210.694 15.135 210.21 15.1142 209.758 14.9375L209.008 14.6406C208.878 14.5906 208.766 14.5741 208.664 14.5781L207.914 14.6094C207.625 14.6209 207.336 14.6166 207.047 14.5938L206.297 14.5312C206.244 14.5271 206.17 14.5335 206.062 14.5859L205.688 14.7734L205.312 14.9531C204.802 15.2024 204.244 15.2184 203.719 14.9844L203.344 14.8203L202.969 14.6484C202.873 14.6059 202.808 14.6026 202.758 14.6094L202.383 14.6641L202.008 14.7109C201.846 14.7327 201.678 14.7799 201.5 14.8516L201.125 15L200.75 15.1562C200.263 15.3528 199.747 15.3502 199.258 15.1562L198.508 14.8594C198.458 14.8396 198.434 14.8433 198.406 14.8516L197.656 15.0703C197.375 15.153 197.089 15.2206 196.805 15.2734L196.055 15.4141C195.624 15.4935 195.197 15.4504 194.789 15.3047L194.039 15.0391L194.023 15.0312H194.016C194.012 15.0319 194.002 15.0352 193.992 15.0391L193.242 15.3359C192.741 15.5322 192.214 15.5177 191.727 15.3047L190.977 14.9766L190.93 14.9609H190.914L190.539 15.0781L190.164 15.1875C189.641 15.345 189.117 15.2739 188.656 15.0312L188.281 14.8359L187.93 14.6484L187.609 14.7734L187.234 14.9219C186.903 15.048 186.559 15.1266 186.211 15.1562L185.461 15.2188C185.046 15.2539 184.641 15.1836 184.258 15.0312L183.508 14.7344L182.758 15.0469C182.312 15.2312 181.833 15.2712 181.359 15.1406L180.984 15.0312L180.609 14.9297H180.594C180.587 14.9316 180.578 14.938 180.562 14.9453L179.812 15.3047C179.383 15.5127 178.907 15.5927 178.422 15.4922L177.672 15.3359C177.542 15.3089 177.416 15.3075 177.289 15.3281L176.914 15.3828L176.539 15.4453C176.232 15.4957 175.919 15.5202 175.609 15.5156L175.234 15.5078H174.859C174.564 15.5034 174.27 15.4739 173.977 15.4297L173.227 15.3203C172.842 15.2624 172.474 15.1292 172.133 14.9375L171.383 14.5156C171.274 14.4551 171.209 14.4439 171.172 14.4453L170.797 14.4688L170.422 14.4844C170.154 14.4965 169.885 14.502 169.617 14.5L169.242 14.4922H168.867C168.766 14.4915 168.65 14.513 168.516 14.5703L168.141 14.7266L167.766 14.8906C167.305 15.0862 166.806 15.1155 166.32 14.9609L165.945 14.8438L165.625 14.7344L165.266 14.9609L164.891 15.1875C164.641 15.339 164.345 15.4474 164.016 15.4531C163.685 15.4585 163.382 15.3582 163.125 15.2109L162.75 15L162.375 14.7812C162.286 14.7307 162.242 14.733 162.227 14.7344L161.477 14.8125C161.302 14.8298 161.121 14.8622 160.938 14.9219L160.188 15.1719C159.718 15.325 159.232 15.3054 158.773 15.1328L158.023 14.8516L158.016 14.8594L157.641 15.0156L157.266 15.1797C156.721 15.4118 156.151 15.3671 155.648 15.0938L154.898 14.6875C154.779 14.6223 154.696 14.6086 154.641 14.6094H154.266L153.891 14.6172C153.847 14.6178 153.772 14.636 153.648 14.7109L152.898 15.1641C152.642 15.32 152.333 15.4249 151.992 15.4219C151.652 15.4183 151.346 15.3071 151.094 15.1484L150.719 14.9141L150.43 14.7266L149.805 15.0391C149.384 15.2405 148.921 15.3136 148.445 15.2266L148.07 15.1641L147.695 15.0938C147.529 15.0634 147.366 15.0501 147.203 15.0625L146.453 15.125C146.03 15.1577 145.619 15.0777 145.234 14.9141L144.859 14.7578L144.609 14.6484L144.312 14.8516L143.938 15.1094C143.538 15.3803 143.061 15.5442 142.539 15.5L141.789 15.4375C141.397 15.4041 141.022 15.2886 140.672 15.1094L139.922 14.7188C139.913 14.7141 139.903 14.7127 139.898 14.7109L139.539 14.8203L139.164 14.9375C138.756 15.0609 138.333 15.0827 137.914 14.9922L137.539 14.9062L137.164 14.8281C136.97 14.786 136.777 14.758 136.586 14.75L135.836 14.7188C135.639 14.7106 135.44 14.7198 135.242 14.7422L134.867 14.7891L134.492 14.8281C134.23 14.8581 133.965 14.8863 133.703 14.9062L133.328 14.9297L132.953 14.9609C132.662 14.9831 132.369 14.9904 132.078 14.9766L131.703 14.9531L131.328 14.9375C131.12 14.9276 130.911 14.9289 130.703 14.9453L129.953 15.0078C129.677 15.0295 129.401 15.0391 129.125 15.0391H128.375C128.096 15.039 127.818 15.0248 127.539 15L126.789 14.9375C126.695 14.9291 126.589 14.9403 126.469 14.9844L126.094 15.1172L125.719 15.2578C125.315 15.4055 124.89 15.446 124.461 15.375L124.086 15.3203L123.711 15.2578C123.51 15.2246 123.308 15.2057 123.109 15.2031L122.359 15.1875C122.009 15.1827 121.665 15.1283 121.328 15.0234L120.578 14.7891C120.552 14.781 120.536 14.7798 120.492 14.7969L119.742 15.0938C119.187 15.3127 118.617 15.2428 118.125 14.9609L117.75 14.75L117.445 14.5703L117.172 14.7109L116.797 14.8828C116.344 15.0944 115.847 15.1494 115.352 15.0078L114.977 14.8984L114.625 14.7891C114.62 14.7911 114.617 14.8004 114.609 14.8047L114.234 15.0156L113.859 15.2188C113.479 15.4291 113.057 15.5543 112.609 15.5469L111.859 15.5312C111.578 15.5264 111.296 15.5076 111.016 15.4766L110.266 15.3984C110.009 15.37 109.749 15.3385 109.492 15.3047L109.117 15.25L108.742 15.2031C108.465 15.1666 108.19 15.1149 107.914 15.0547L107.539 14.9766L107.164 14.8906C107.034 14.8622 106.907 14.8635 106.781 14.8828L106.406 14.9375L106.031 15C105.651 15.0592 105.265 15.0421 104.891 14.9531L104.516 14.8594L104.141 14.7734C103.902 14.7166 103.661 14.666 103.422 14.6172L102.672 14.4609C102.58 14.4426 102.49 14.4412 102.391 14.4688L102.016 14.5781L101.641 14.6797C101.363 14.7566 101.084 14.8239 100.805 14.875L100.43 14.9375L100.055 15.0078C99.8085 15.0528 99.5588 15.1005 99.3125 15.1484L98.9375 15.2188L98.5625 15.2969C98.1343 15.3795 97.7053 15.3442 97.2969 15.2031L96.9219 15.0703L96.5469 14.9453C96.3869 14.8901 96.2376 14.8569 96.0938 14.8516L95.7188 14.8438L95.3438 14.8281C95.1368 14.821 94.9262 14.8243 94.7188 14.8438L94.3438 14.8828L93.9688 14.9141C93.5821 14.9504 93.1985 14.9115 92.8281 14.7969L92.0781 14.5625C91.9062 14.5094 91.7389 14.4839 91.5781 14.4766L91.2031 14.4609L90.8281 14.4375C90.6094 14.4276 90.3906 14.4277 90.1719 14.4375L89.7969 14.4609L89.4219 14.4766C89.3959 14.4777 89.322 14.4837 89.1953 14.5703L88.8203 14.8359L88.4453 15.0938C88.0495 15.3667 87.5758 15.537 87.0547 15.5L86.6797 15.4688L86.3047 15.4453C86.053 15.4272 85.7986 15.4022 85.5469 15.3828L85.1719 15.3594L84.7969 15.3281C84.5578 15.3097 84.3171 15.2921 84.0781 15.2812L83.3281 15.25C83.0045 15.2352 82.6836 15.1865 82.3672 15.1016L81.6172 14.8984C81.5908 14.8913 81.5638 14.8908 81.5078 14.9141L81.1328 15.0703L80.7578 15.2188C80.2448 15.4321 79.702 15.4177 79.2031 15.1875L78.4531 14.8438C78.3476 14.7955 78.2715 14.7847 78.2109 14.7891L77.4609 14.8516C77.0961 14.8816 76.7298 14.8503 76.375 14.7578L76 14.6562L75.625 14.5625C75.4833 14.5254 75.3426 14.5117 75.2109 14.5234L74.8359 14.5547L74.4609 14.5938C74.2736 14.6107 74.0836 14.6423 73.8906 14.6953L73.1406 14.8984C72.8467 14.9792 72.5478 15.0398 72.25 15.0781L71.875 15.125L71.5 15.1797C71.1726 15.2216 70.8436 15.2236 70.5156 15.1875L70.1406 15.1406L69.7656 15.1016C69.6742 15.0915 69.5756 15.1006 69.4609 15.1406L68.7109 15.4062C68.2958 15.553 67.8575 15.591 67.4219 15.5L66.6719 15.3438C66.4682 15.3009 66.2634 15.2706 66.0625 15.2578L65.3125 15.2109C65.0679 15.1954 64.8227 15.1762 64.5781 15.1641L63.8281 15.1328C63.5053 15.1167 63.1831 15.061 62.8672 14.9766L62.4922 14.875L62.1172 14.7812C62.0837 14.7723 62.0508 14.7658 61.9922 14.7891L61.2422 15.0859C60.7137 15.2958 60.1652 15.2577 59.6719 15.0078L59.2969 14.8203L58.9766 14.6562L58.6641 14.7969L58.2891 14.9688C57.7986 15.1909 57.2655 15.2078 56.7578 15.0078L56.3828 14.8672L56.0703 14.7422L55.7422 14.9297L55.3672 15.1406C54.8715 15.4201 54.3021 15.4816 53.75 15.2578L53.375 15.1016L53 14.9531C52.9307 14.925 52.89 14.9287 52.8516 14.9375L52.1016 15.1094C51.7746 15.185 51.4426 15.217 51.1094 15.2109L50.7344 15.2031H50.3594C50.0231 15.1967 49.6864 15.1455 49.3594 15.0547L48.9844 14.9453L48.6094 14.8438C48.4051 14.7868 48.2002 14.7446 48 14.7188L47.25 14.625C47.2447 14.6243 47.2371 14.6227 47.2266 14.625C47.2132 14.6281 47.1808 14.6359 47.1328 14.6641L46.7578 14.8828L46.3828 15.1094C45.8886 15.3998 45.3115 15.4695 44.75 15.2422L44.375 15.0859L44 14.9375C43.8121 14.8611 43.6283 14.8038 43.4531 14.7734L42.7031 14.6484C42.6305 14.6359 42.556 14.6384 42.4609 14.6719L41.7109 14.9375C41.213 15.114 40.6942 15.0842 40.2188 14.875L39.4688 14.5469C39.39 14.5127 39.3429 14.509 39.3047 14.5156L38.5547 14.6562C38.175 14.7248 37.7911 14.7142 37.4141 14.6328L37.0391 14.5547L36.6641 14.4688C36.5558 14.4454 36.4526 14.4524 36.3438 14.4766L35.9688 14.5547L35.5938 14.6406C35.3895 14.6861 35.1782 14.7429 34.9688 14.8203L34.2188 15.1016C33.883 15.2254 33.5334 15.2996 33.1797 15.3203L32.4297 15.3672C31.976 15.393 31.5452 15.2839 31.1562 15.0781L30.7812 14.875L30.4062 14.6797C30.3906 14.6714 30.3806 14.666 30.375 14.6641L30.0078 14.7656L29.6328 14.8672C29.4968 14.9038 29.3648 14.9317 29.25 14.9531C29.1697 14.9681 28.9802 15.0079 28.7812 14.9844L28.7422 14.9766C28.7154 14.9877 28.6837 15.0076 28.6484 15.0234L28.2969 15.1797L27.9453 15.3438C27.5857 15.5056 27.2004 15.5925 26.8047 15.5938H26.0547C25.9644 15.5941 25.8876 15.6169 25.8125 15.6562L25.1562 16C24.8932 16.138 24.6167 16.2543 24.3359 16.3516L23.9922 16.4766L23.6406 16.5938C23.5752 16.6164 23.5207 16.6523 23.4688 16.7109L23.2188 17L22.9688 17.2812C22.7582 17.5224 22.5272 17.7414 22.2734 17.9297L21.9844 18.1406L21.6875 18.3594C21.5199 18.4839 21.3541 18.6152 21.1953 18.7578L20.9219 19.0078L20.6484 19.25C20.479 19.4022 20.316 19.5678 20.1484 19.7344L19.875 20L19.6094 20.2656C19.5696 20.3052 19.5451 20.3443 19.5312 20.4062L19.4453 20.7812L19.3672 21.1562C19.2951 21.4894 19.1794 21.8091 19.0234 22.1094L18.8516 22.4453L18.6875 22.7734C18.5868 22.9672 18.486 23.1664 18.3984 23.375L18.25 23.7266L18.1094 24.0781C18.0224 24.2854 17.9401 24.5031 17.8672 24.7266L17.7422 25.0938L17.625 25.4688C17.6065 25.5254 17.6005 25.5729 17.6172 25.6328L17.8359 26.3984C17.9033 26.6318 17.9818 26.8627 18.0625 27.0938L18.3281 27.8438C18.4755 28.2654 18.4996 28.7089 18.3984 29.1484L18.2266 29.8984C18.2015 30.007 18.204 30.112 18.2266 30.2188L18.3828 30.9688C18.4758 31.4084 18.4405 31.8485 18.2891 32.2656L18.0078 33.0156C17.9843 33.08 17.9881 33.1254 18 33.1719L18.1016 33.5469L18.1953 33.9219C18.2907 34.2876 18.3238 34.6636 18.2812 35.0391L18.2344 35.4141L18.1953 35.7891C18.1644 36.0617 18.12 36.3375 18.0703 36.6094L18 36.9844L17.9375 37.3594C17.9189 37.4636 17.9168 37.5687 17.9453 37.6797L18.0469 38.0547L18.1406 38.4297C18.2585 38.8902 18.2253 39.3535 18.0547 39.7891L17.9062 40.1641L17.7578 40.5234L17.9297 40.8906L18.0938 41.2656C18.2687 41.6551 18.3563 42.0742 18.3203 42.5078L18.2578 43.2578C18.2237 43.6649 18.0938 44.0508 17.8984 44.4062L17.6875 44.7812L17.4844 45.1562C17.4306 45.2538 17.4269 45.3111 17.4297 45.3438L17.4609 45.7266L17.5 46.1016C17.5115 46.2328 17.5431 46.372 17.6094 46.5156L17.9531 47.25C18.1508 47.6776 18.2047 48.14 18.1328 48.6016L18.0078 49.4141C18.0054 49.4295 18.0077 49.4482 18.0078 49.4531L18.0156 49.4609L18.2266 49.7969L18.4453 50.125C18.6133 50.3846 18.7624 50.6545 18.8906 50.9297L19.0469 51.2812L19.2109 51.625C19.2986 51.8132 19.4013 51.9968 19.5156 52.1719L19.7266 52.5L19.9375 52.8203C19.9499 52.8392 19.9726 52.8679 20.0547 52.8984L20.4531 53.0469L20.8438 53.1953C21.2864 53.3593 21.6761 53.6364 21.9453 54.0469L22.1484 54.3672L22.3594 54.6875C22.4741 54.8625 22.6055 55.0365 22.75 55.2031L23.2656 55.7969C23.2917 55.8269 23.3127 55.836 23.3516 55.8438L24.1328 56C24.3464 56.0416 24.5596 56.0672 24.7656 56.0781L25.1484 56.1016L25.5312 56.1172C25.9777 56.1415 26.3939 56.2891 26.7578 56.5391L27.4141 56.9922L27.4375 57.0078L28.2031 56.9141C28.5292 56.8743 28.8549 56.8724 29.1797 56.9062L29.9297 56.9844C30.2549 57.0184 30.5755 57.0896 30.8906 57.1953L31.6406 57.4453C31.7346 57.4769 31.8151 57.4828 31.8906 57.4688L32.6406 57.3281C32.786 57.3008 32.9445 57.2451 33.1172 57.1562L33.4922 56.9609L33.8672 56.7734L34.2734 56.6172C34.546 56.5476 34.8261 56.5395 35.1016 56.6016L35.5078 56.75L36.2578 57.1094C36.3512 57.1545 36.4122 57.1606 36.4531 57.1562L37.2031 57.0625C37.4932 57.0277 37.7872 57.0142 38.0781 57.0156H39.9375L40.3125 57.0078C40.6058 57.0051 40.9029 57.0193 41.1953 57.0547L41.9453 57.1484C41.9793 57.1526 42.0313 57.1482 42.125 57.1016L42.875 56.7266C43.2248 56.5516 43.6071 56.4808 43.9922 56.5234L44.3828 56.6016L44.7578 56.7266L45.1328 56.8438C45.3854 56.9251 45.6381 57.0092 45.8906 57.0938L46.2656 57.2188L46.625 57.3438H46.6406L47.0156 57.1562L47.3906 56.9766C47.7487 56.8029 48.1321 56.6983 48.5312 56.6797L48.9062 56.6562L49.2812 56.6406C49.5545 56.6279 49.8282 56.6258 50.1016 56.6328L50.4766 56.6406L50.8516 56.6562C51.2656 56.6669 51.6578 56.7767 52.0234 56.9609L52.3984 57.1484L52.6562 57.2734L53.3125 56.8906L53.7422 56.7031C54.1814 56.575 54.6449 56.6248 55.0703 56.8672L55.4453 57.0859L55.8203 57.2969C55.9418 57.3663 56.025 57.3821 56.0781 57.3828H56.8281C57.0564 57.384 57.2872 57.3805 57.5156 57.3672L58.2656 57.3203C58.549 57.3037 58.8338 57.3081 59.1172 57.3203L59.8672 57.3516C60.1141 57.3622 60.3625 57.3742 60.6094 57.3828L60.9844 57.3906L61.3594 57.4062C61.4551 57.4096 61.5665 57.3892 61.6953 57.3359L62.0703 57.1797L62.4453 57.0312C62.8515 56.8633 63.2838 56.7993 63.7266 56.8672L64.1016 56.9219L64.4766 56.9844C64.7558 57.0272 65.0348 57.0806 65.3125 57.1484L65.6875 57.2422L66.0625 57.3281C66.2788 57.381 66.4967 57.4243 66.7109 57.4531L67.0859 57.5L67.4609 57.5547C67.6335 57.5777 67.8049 57.5796 67.9766 57.5625L68.3516 57.5234L68.7266 57.4922C68.8889 57.476 69.0581 57.4313 69.2344 57.3672L69.6094 57.2344L69.9844 57.0938C70.2432 56.9996 70.5065 56.9136 70.7656 56.8281L71.5156 56.5781L71.9531 56.4922C72.3854 56.4632 72.794 56.5984 73.1406 56.8359L73.5156 57.0938L73.7812 57.2734L74.0156 57.1719L74.3906 56.9922C74.7145 56.836 75.0516 56.7261 75.3984 56.6641L75.7734 56.5938L76.1484 56.5312C76.6183 56.4475 77.0804 56.5157 77.5 56.7109L77.875 56.8906L78.25 57.0625C78.2642 57.069 78.2757 57.0766 78.2812 57.0781H78.2891L78.2969 57.0703L78.6719 56.9609L79.0469 56.8594C79.5816 56.7035 80.1045 56.7902 80.5625 57.0469L80.9375 57.2578L81.1172 57.3594L81.3516 57.1875L81.7266 56.9062C82.0543 56.6602 82.4489 56.4922 82.8828 56.4922L83.3281 56.5469L83.7031 56.6484L84.0781 56.7422C84.1931 56.7718 84.2988 56.7759 84.4062 56.7578L85.1562 56.6328C85.5165 56.5716 85.8818 56.5722 86.2422 56.6328L86.9922 56.7578C87.261 56.803 87.5287 56.8603 87.7969 56.9219L88.5469 57.0938C88.6055 57.1072 88.6655 57.1048 88.7422 57.0781L89.4922 56.8125C89.8548 56.6849 90.2329 56.6245 90.6172 56.6406L91.3672 56.6719C91.7307 56.6872 92.0868 56.7611 92.4297 56.8906L92.8047 57.0312L93.1641 57.1719H93.1797L93.5547 57.0078L93.9297 56.8516C94.3891 56.6524 94.8867 56.6142 95.375 56.7656L96.125 57C96.2942 57.0521 96.4595 57.0797 96.6172 57.0859L96.9922 57.1016L97.3672 57.1094C97.5878 57.118 97.8106 57.1197 98.0312 57.1094L98.7812 57.0781C98.9655 57.0693 99.1544 57.0379 99.3438 56.9922L99.7188 56.9062L100.094 56.8125L100.477 56.7578C100.854 56.7422 101.216 56.8382 101.547 57.0156L102.297 57.4219C102.386 57.4698 102.43 57.463 102.445 57.4609L102.82 57.4141L103.195 57.3594C103.327 57.3417 103.471 57.2984 103.633 57.2188L104.008 57.0391L104.383 56.8516C104.863 56.6156 105.396 56.5714 105.914 56.7578L106.289 56.8984L106.664 57.0312C106.759 57.0655 106.835 57.0662 106.906 57.0547L107.656 56.9297C107.917 56.8859 108.184 56.8475 108.445 56.8125L108.82 56.7656L109.195 56.7109C109.656 56.6497 110.101 56.7354 110.508 56.9297L111.258 57.2891C111.352 57.3338 111.411 57.333 111.453 57.3281L111.828 57.2891L112.203 57.2422C112.504 57.2057 112.807 57.1925 113.109 57.2031L113.484 57.2109L113.859 57.2266C113.912 57.2284 113.994 57.2178 114.109 57.1562L114.484 56.9609L114.859 56.7578L115.289 56.5938C115.442 56.5586 115.607 56.5431 115.773 56.5547C115.937 56.5664 116.092 56.6035 116.234 56.6562L116.633 56.8594L117.008 57.1172L117.383 57.3672C117.52 57.459 117.613 57.4799 117.664 57.4844L118.414 57.5469C118.45 57.5499 118.51 57.5519 118.609 57.5L118.984 57.2969L119.359 57.1016C119.712 56.9165 120.099 56.8391 120.492 56.8828L120.891 56.9688L121.641 57.2188C121.771 57.2621 121.889 57.274 122 57.2656L122.375 57.2344L122.75 57.2109C123.063 57.1872 123.376 57.1916 123.688 57.2266L124.062 57.2656L124.438 57.3125C124.687 57.3405 124.938 57.3624 125.188 57.3906L125.562 57.4375L125.938 57.4766C125.947 57.4741 125.981 57.4625 126.031 57.4297L126.781 56.9453C127.198 56.6732 127.691 56.519 128.227 56.6016L128.602 56.6641L128.977 56.7188C129.252 56.7617 129.53 56.8173 129.805 56.8828L130.18 56.9766L130.555 57.0625C130.574 57.0672 130.602 57.0746 130.664 57.0469L131.039 56.875L131.414 56.7109L131.859 56.5703C132.153 56.5218 132.445 56.5508 132.719 56.6484L133.117 56.8438L133.492 57.0859L133.805 57.2891L134.086 57.1797L134.461 57.0312C134.776 56.9079 135.102 56.8231 135.43 56.7734L135.805 56.7188L136.18 56.6562C136.563 56.5988 136.946 56.6231 137.32 56.7188L137.695 56.8125L138.07 56.9141C138.217 56.9518 138.363 56.9638 138.5 56.9531L139.25 56.8906C139.479 56.8729 139.708 56.8523 139.938 56.8203L140.688 56.7109C141.017 56.6649 141.349 56.6606 141.68 56.6953L142.43 56.7734C142.708 56.8026 142.989 56.8459 143.266 56.8984L144.016 57.0391C144.106 57.0557 144.196 57.0528 144.297 57.0234L145.047 56.8047C145.423 56.6953 145.813 56.662 146.203 56.7109L146.953 56.8047C147.294 56.8478 147.629 56.9387 147.953 57.0703L148.328 57.2188L148.703 57.375C148.799 57.4136 148.868 57.4149 148.93 57.4062L149.68 57.2969C149.826 57.2756 149.986 57.2349 150.156 57.1562L150.531 56.9844L150.906 56.8047C151.356 56.5972 151.852 56.5445 152.344 56.6797L153.094 56.8828C153.282 56.9343 153.467 56.9715 153.648 56.9844L154.023 57.0078L154.398 57.0391C154.538 57.0487 154.68 57.0301 154.828 56.9922L155.578 56.8047C155.856 56.7339 156.135 56.6779 156.414 56.6328L157.164 56.5078C157.579 56.4409 157.994 56.4779 158.391 56.6094L159.141 56.8594C159.221 56.886 159.286 56.8903 159.352 56.875L159.727 56.7812L160.102 56.6953L160.5 56.6484C160.891 56.6413 161.265 56.7554 161.594 56.9531L161.969 57.1797L162.289 57.375L162.586 57.2656L162.961 57.1172C163.334 56.9717 163.73 56.8999 164.133 56.9219L164.508 56.9453L164.883 56.9609C164.996 56.9668 165.116 56.9523 165.25 56.9062L165.625 56.7812L166 56.6484C166.396 56.5125 166.81 56.4745 167.227 56.5391L167.602 56.5938L167.977 56.6562C168.337 56.7126 168.691 56.8277 169.023 56.9922L169.742 57.3516L170.078 57.2188L170.453 57.0703C170.812 56.9277 171.192 56.8504 171.578 56.8516H172.328C172.588 56.8524 172.85 56.859 173.109 56.8672L173.484 56.8828L173.859 56.8906C174.133 56.8993 174.407 56.9168 174.68 56.9453L175.43 57.0234C175.596 57.0408 175.762 57.0402 175.93 57.0156L176.68 56.9062C177.058 56.8506 177.44 56.8712 177.812 56.9609L178.188 57.0469L178.562 57.1406C178.747 57.1849 178.931 57.2053 179.109 57.2109L179.484 57.2266L179.859 57.2344C179.959 57.2372 180.073 57.2245 180.203 57.1719L180.578 57.0156L180.953 56.8672C181.353 56.706 181.777 56.6434 182.211 56.7031L182.586 56.7578L182.961 56.8047C183.086 56.822 183.213 56.82 183.344 56.7891L183.719 56.6953L184.094 56.6094C184.412 56.5339 184.738 56.4896 185.062 56.4844H185.438L185.812 56.4766C186.101 56.472 186.392 56.4865 186.68 56.5156L187.055 56.5469L187.43 56.5859C187.833 56.6272 188.211 56.7638 188.562 56.9609L189.312 57.3828C189.415 57.4405 189.477 57.439 189.508 57.4375L190.258 57.3906C190.491 57.3756 190.727 57.3544 190.961 57.3281L191.336 57.2891L191.711 57.2422C191.907 57.2201 192.112 57.1883 192.312 57.1328L192.688 57.0234L193.062 56.9219C193.379 56.8347 193.699 56.7818 194.023 56.7656L194.398 56.75L194.773 56.7266C195.016 56.7146 195.265 56.7046 195.508 56.6875L195.883 56.6562L196.258 56.6328C196.766 56.5977 197.229 56.7552 197.625 57.0156L198 57.2656L198.18 57.3828L198.383 57.25L198.758 56.9844C199.126 56.7286 199.553 56.5565 200.023 56.5312L200.773 56.4844C201.185 56.4626 201.584 56.5452 201.961 56.7031L202.711 57.0156C202.761 57.0368 202.783 57.0373 202.805 57.0312L203.18 56.9219L203.555 56.8203C203.938 56.713 204.332 56.6817 204.727 56.7422L205.102 56.8047L205.477 56.8594C205.784 56.9068 206.09 56.9849 206.391 57.0859L207.141 57.3359C207.249 57.3725 207.349 57.3798 207.438 57.3672L208.188 57.2578C208.365 57.2321 208.547 57.185 208.734 57.1172L209.484 56.8516C209.904 56.6999 210.348 56.6613 210.789 56.7578L211.164 56.8438L211.539 56.9219C211.736 56.9651 211.932 56.9979 212.125 57.0078L212.875 57.0391C213.115 57.0513 213.361 57.065 213.602 57.0703L214.352 57.0859C214.693 57.0938 215.029 57.1511 215.359 57.25L215.734 57.3594L216.109 57.4766C216.127 57.4817 216.138 57.4767 216.141 57.4766C216.145 57.4763 216.159 57.4729 216.188 57.4609L216.938 57.1484C217.4 56.9535 217.897 56.9289 218.383 57.0859L218.758 57.2031L219.133 57.3281C219.305 57.3838 219.472 57.4118 219.633 57.4219L220.383 57.4688C220.517 57.4769 220.659 57.4631 220.805 57.4219L221.18 57.3125L221.555 57.2109C221.989 57.0883 222.436 57.0885 222.867 57.2188L223.242 57.3359L223.578 57.4297L224.328 57.0078C224.733 56.7757 225.191 56.6519 225.68 56.7031L226.43 56.7812C226.801 56.8202 227.159 56.9256 227.5 57.0859L227.875 57.2656L228.102 57.3672L228.383 57.1797L228.758 56.9219C229.068 56.7094 229.43 56.5713 229.82 56.5469L230.227 56.5625L230.602 56.6172L230.977 56.6797C231.289 56.7274 231.602 56.8005 231.906 56.9062L232.656 57.1719C232.79 57.2177 232.911 57.2325 233.023 57.2266L233.398 57.2031L233.773 57.1875C234.068 57.1721 234.362 57.1716 234.656 57.1953L236.156 57.3203L236.531 57.3438L236.906 57.375C237.091 57.3891 237.276 57.3886 237.461 57.3672L237.836 57.3203L238.211 57.2812C238.569 57.24 238.928 57.2548 239.281 57.3281L240.031 57.4844C240.108 57.5 240.184 57.4963 240.273 57.4688L241.023 57.2344C241.4 57.1166 241.794 57.0739 242.188 57.1172L242.562 57.1562L242.938 57.2031C243.154 57.2269 243.37 57.2396 243.586 57.2422H243.961L244.336 57.25C244.551 57.2525 244.769 57.239 244.984 57.2188L245.359 57.1875L245.734 57.1484C245.924 57.1304 246.117 57.0998 246.312 57.0469L247.062 56.8438C247.519 56.7196 247.983 56.7437 248.422 56.9062L249.172 57.1875C249.331 57.2467 249.485 57.2748 249.625 57.2812L250.375 57.3125C250.54 57.3199 250.706 57.3078 250.875 57.2734L251.25 57.1953L251.625 57.125C252.006 57.0475 252.392 57.0473 252.773 57.125L253.148 57.1953L253.523 57.2734C253.744 57.3186 253.968 57.3583 254.188 57.3828L254.938 57.4609C254.966 57.4641 255.015 57.4634 255.109 57.4141L255.859 57.0234C256.346 56.7693 256.897 56.7216 257.43 56.9219L258.18 57.2031C258.205 57.2124 258.222 57.2108 258.227 57.2109C258.232 57.2107 258.241 57.2084 258.258 57.2031L258.633 57.0781L259.008 56.9609C259.48 56.8045 259.969 56.8168 260.43 56.9922L261.18 57.2734C261.254 57.3019 261.31 57.308 261.359 57.2969L262.109 57.125C262.555 57.0253 263 57.0622 263.422 57.2188L264.172 57.5C264.188 57.506 264.199 57.5074 264.203 57.5078C264.204 57.5078 264.215 57.5066 264.234 57.5L264.609 57.3594L264.984 57.2266C265.314 57.1079 265.655 57.0335 266 57.0078L266.375 56.9844L266.75 56.9531C266.919 56.9406 267.095 56.9072 267.273 56.8516L268.023 56.6172C268.516 56.4631 269.023 56.4983 269.484 56.7031L269.859 56.875L270.234 57.0391C270.437 57.1288 270.634 57.1993 270.828 57.25L271.203 57.3516L271.523 57.4297H271.531L271.906 57.1875L272.281 56.9375L272.688 56.7344C272.97 56.6344 273.27 56.6054 273.57 56.6641L274.023 56.8203L274.773 57.1953L274.828 57.2188L274.836 57.2109L275.211 57.125L275.586 57.0312C275.835 56.9708 276.087 56.9131 276.336 56.8516L277.086 56.6641C277.514 56.5581 277.947 56.5745 278.367 56.7031L278.742 56.8125L279.117 56.9297C279.283 56.9806 279.447 57.0044 279.602 57.0078L280.352 57.0234C280.531 57.0272 280.715 57.0179 280.898 56.9844L281.648 56.8438C281.937 56.791 282.226 56.7518 282.516 56.7344L282.891 56.7109L283.266 56.6953C283.551 56.6781 283.839 56.6742 284.125 56.6875L284.875 56.7188C285.291 56.7385 285.684 56.8613 286.047 57.0547L286.422 57.2578L286.797 57.4531C286.876 57.4955 286.907 57.4856 286.914 57.4844L287.664 57.3594C287.797 57.3367 287.945 57.2896 288.109 57.2031L288.859 56.8125L289.258 56.6562C289.526 56.5832 289.803 56.5699 290.078 56.625L290.484 56.7578L290.859 56.9297L291.234 57.0938C291.417 57.1763 291.593 57.235 291.758 57.2656L292.508 57.4062C292.724 57.4465 292.941 57.4739 293.156 57.4922L293.906 57.5547C293.907 57.5548 293.916 57.5585 293.93 57.5547C293.945 57.5502 293.979 57.534 294.031 57.5L294.781 57.0156C295.135 56.7853 295.527 56.6225 295.953 56.5703L296.703 56.4766C296.989 56.4418 297.276 56.4253 297.562 56.4219L297.938 56.4141H298.312C298.612 56.4106 298.913 56.4282 299.211 56.4688L299.586 56.5156L299.961 56.5703C300.226 56.6064 300.493 56.6464 300.758 56.6953L301.508 56.8359C301.63 56.8583 301.751 56.8537 301.875 56.8281L302.625 56.6719C302.99 56.5967 303.359 56.5921 303.727 56.6484L304.477 56.7578C304.678 56.7887 304.879 56.8111 305.078 56.8125H305.828C306.212 56.8149 306.588 56.8963 306.945 57.0391L307.695 57.3359C307.804 57.3794 307.894 57.3911 307.969 57.3828L308.344 57.3438L308.719 57.2969C308.955 57.2708 309.193 57.2451 309.43 57.2109L310.18 57.1016C310.431 57.0652 310.686 57.0263 310.938 56.9922L311.312 56.9453L311.688 56.8906C311.918 56.8594 312.152 56.8188 312.383 56.7734L313.133 56.6328C313.643 56.5326 314.133 56.6289 314.562 56.8672L315.312 57.2891C315.427 57.3524 315.501 57.3607 315.547 57.3594L315.922 57.3516L316.297 57.3359C316.415 57.3323 316.549 57.3109 316.695 57.25L317.445 56.9375L317.852 56.8125C318.129 56.7657 318.406 56.7875 318.672 56.8672L319.055 57.0312L319.805 57.4375C319.844 57.4591 319.87 57.466 319.883 57.4688C319.891 57.4703 319.899 57.4698 319.906 57.4688L320.656 57.3438C320.783 57.3223 320.93 57.2767 321.094 57.1875L321.469 56.9766L321.844 56.7734C322.258 56.5467 322.727 56.4372 323.219 56.5078L323.969 56.6172C324.319 56.6675 324.657 56.7741 324.984 56.9219L325.359 57.0938L325.734 57.2578C325.792 57.2838 325.818 57.2854 325.836 57.2812L326.586 57.0938C327.034 56.9843 327.486 57.0169 327.914 57.1719L328.289 57.3047L328.539 57.3906L328.859 57.1562L329.234 56.8828L329.625 56.6562C329.77 56.595 329.93 56.5485 330.102 56.5312C330.448 56.4967 330.771 56.579 331.047 56.7266L331.797 57.1328C331.813 57.1414 331.828 57.1454 331.836 57.1484L331.844 57.1562L332.219 57.0625L332.594 56.9766C332.943 56.8946 333.3 56.8695 333.656 56.8984L334.406 56.9609C334.664 56.9819 334.922 57.0042 335.18 57.0312L335.93 57.1094C336.01 57.1178 336.099 57.1061 336.211 57.0625L336.586 56.9219L336.961 56.7734C337.318 56.6338 337.695 56.5548 338.078 56.5547H338.828C339.104 56.5547 339.38 56.5706 339.656 56.5938L340.406 56.6562C340.622 56.6744 340.84 56.6834 341.055 56.6797L341.805 56.6641C342.085 56.6591 342.368 56.6665 342.648 56.6875L343.023 56.7188L343.398 56.7422C343.807 56.7729 344.197 56.8998 344.555 57.0938L344.93 57.2969L345.25 57.4688L345.562 57.3438L345.938 57.1875C346.289 57.0393 346.659 56.9517 347.039 56.9375L347.789 56.9062C348.008 56.8981 348.226 56.8798 348.445 56.8516L349.195 56.7578C349.442 56.726 349.691 56.6901 349.938 56.6562L350.312 56.6094L350.688 56.5547C350.98 56.5144 351.276 56.4932 351.57 56.4922H352.32C352.704 56.491 353.08 56.5643 353.438 56.7031L353.812 56.8516L354.188 56.9922C354.296 57.0343 354.383 57.048 354.461 57.0391L354.836 56.9922L355.211 56.9531C355.479 56.9222 355.747 56.8987 356.016 56.8828L356.766 56.8359C357.028 56.8204 357.292 56.8097 357.555 56.8047L358.305 56.7891C358.727 56.7811 359.133 56.8817 359.508 57.0625L359.883 57.25L360.258 57.4297C360.293 57.4468 360.316 57.4448 360.32 57.4453C360.323 57.4456 360.327 57.4475 360.336 57.4453L360.711 57.3516L361.086 57.2656C361.495 57.1653 361.912 57.1621 362.32 57.2656L362.695 57.3672L363.07 57.4609C363.255 57.508 363.439 57.5307 363.617 57.5391L363.992 57.5625L364.367 57.5781C364.513 57.5848 364.665 57.5636 364.82 57.5234L365.57 57.3359C365.772 57.2835 365.98 57.2112 366.188 57.125L366.938 56.8125C367.388 56.6251 367.874 56.5892 368.352 56.7266L368.727 56.8359L369.102 56.9375C369.173 56.9579 369.234 56.9574 369.305 56.9375L369.68 56.8359L370.055 56.7266L370.469 56.6641C370.882 56.644 371.277 56.7667 371.617 56.9844L371.992 57.2188L372.156 57.3203L372.352 57.1797L372.727 56.8984L373.094 56.6719C373.355 56.5495 373.643 56.488 373.945 56.5078L374.406 56.6016L375.156 56.8672C375.252 56.9009 375.333 56.9034 375.406 56.8906L375.781 56.8281L376.156 56.7578C376.559 56.688 376.961 56.7151 377.352 56.8281L378.102 57.0469C378.313 57.1083 378.526 57.1533 378.734 57.1875L379.484 57.3125C379.627 57.3359 379.771 57.3359 379.914 57.3125L380.664 57.1875C380.938 57.1426 381.217 57.11 381.492 57.0859L382.242 57.0234C382.412 57.0084 382.586 56.9718 382.766 56.9141L383.141 56.7891L383.516 56.6719L383.945 56.5859C384.228 56.5651 384.503 56.6091 384.758 56.7109L385.117 56.9062L385.867 57.3906C386.002 57.4783 386.095 57.4961 386.148 57.5L386.523 57.5312L386.883 57.5469C386.893 57.5436 386.93 57.5401 386.984 57.5L387.359 57.2266L387.734 56.9453C388.152 56.6386 388.673 56.4526 389.25 56.5547L389.625 56.625L390 56.6875C390.181 56.7197 390.361 56.7324 390.539 56.7266L390.914 56.7188L391.289 56.7031C391.645 56.6911 391.999 56.7395 392.344 56.8359L392.719 56.9375L393.094 57.0469C393.298 57.1042 393.503 57.1462 393.703 57.1719L394.453 57.2656C394.609 57.2855 394.765 57.2824 394.922 57.2578L395.297 57.1953L395.672 57.1406C395.886 57.107 396.104 57.0577 396.32 57L396.695 56.9062L397.07 56.8047C397.521 56.685 397.979 56.7038 398.414 56.8594L398.789 57L399.164 57.1328C399.283 57.1751 399.389 57.1809 399.484 57.1719L399.859 57.1406L400.234 57.1016C400.423 57.0835 400.618 57.0537 400.812 57L401.188 56.8906L401.562 56.7891C401.845 56.711 402.129 56.6481 402.414 56.6016L403.164 56.4766C403.563 56.4114 403.964 56.4361 404.352 56.5469L405.102 56.7656C405.229 56.8017 405.342 56.8094 405.445 56.7969L405.812 56.75L406.18 56.7109C406.438 56.6797 406.699 56.653 406.961 56.6328L407.328 56.6016L407.703 56.5703C407.919 56.5536 408.139 56.5304 408.359 56.4922L408.734 56.4219L409.109 56.3594C409.317 56.3235 409.527 56.2753 409.734 56.2109L410.109 56.0938L410.477 55.9766H410.492V55.9688C410.496 55.9656 410.507 55.9552 410.523 55.9297L410.75 55.5781L410.969 55.2344C411.16 54.9328 411.388 54.6611 411.648 54.4297L411.922 54.1797L412.195 53.9375C412.417 53.7406 412.659 53.5631 412.914 53.3984L413.242 53.1875L413.562 52.9766C413.599 52.9527 413.617 52.9311 413.633 52.8906L413.766 52.5312L413.906 52.1719C414.041 51.8206 414.234 51.4993 414.484 51.2188L414.742 50.9375L414.992 50.6562V49.8516C414.989 49.4123 415.093 48.9903 415.32 48.6094L415.523 48.2734L415.719 47.9453C415.785 47.8332 415.824 47.72 415.844 47.6016L415.906 47.2266L415.969 46.8594C416.014 46.5903 416.069 46.3179 416.133 46.0469L416.227 45.6719L416.312 45.2969C416.333 45.212 416.329 45.1282 416.305 45.0391L416.102 44.2891C416.012 43.9652 415.955 43.6373 415.945 43.3047L415.93 42.5547C415.922 42.2714 415.925 41.9861 415.945 41.7031L415.977 41.3281L416 40.9531C416.013 40.7772 416.01 40.5995 415.984 40.4219L415.93 40.0469L415.867 39.6719C415.803 39.2344 415.868 38.8016 416.031 38.3984L416.18 38.0234L416.328 37.6719L416.172 37.2969L416.008 36.9219C415.876 36.614 415.777 36.2968 415.711 35.9766L415.555 35.2266C415.458 34.753 415.524 34.2863 415.719 33.8594L416.062 33.1094C416.116 32.9923 416.128 32.9023 416.125 32.8281L416.109 32.4531L416.086 32.0781C416.076 31.8803 416.049 31.6774 416.008 31.4766L415.852 30.7266C415.755 30.2576 415.819 29.7933 416.008 29.3672L416.172 28.9922L416.289 28.7266L416.102 28.4297L415.867 28.0547C415.595 27.6208 415.466 27.1076 415.586 26.5625L415.664 26.1875L415.75 25.8125C415.801 25.5839 415.846 25.3511 415.883 25.1172L415.945 24.7344L416 24.3516C416.025 24.188 416.027 24.0224 416.008 23.8594L415.969 23.4844L415.922 23.1016C415.903 22.9447 415.86 22.7928 415.797 22.6484L415.641 22.2891L415.492 21.9375C415.377 21.6732 415.27 21.4017 415.18 21.125L415.055 20.7578L414.938 20.3828C414.899 20.2668 414.838 20.1691 414.758 20.0781L414.5 19.7812L414.242 19.4922C414.133 19.3694 414.009 19.2611 413.867 19.1719L413.531 18.9688L413.203 18.7578C412.908 18.5725 412.645 18.3493 412.414 18.0938L412.156 17.8203L411.906 17.5391C411.844 17.4714 411.772 17.4193 411.68 17.3828L411.328 17.2422L410.977 17.1094C410.513 16.926 410.163 16.5947 409.914 16.1953L409.68 15.8203L409.5 15.5312L409.227 15.5234L408.828 15.5078C408.484 15.4967 408.145 15.451 407.82 15.3594L407.453 15.2578L407.094 15.1484C407.039 15.1333 406.976 15.1323 406.891 15.1562L406.516 15.2656L406.133 15.3672C405.77 15.4689 405.398 15.5092 405.023 15.4766L404.656 15.4453L404.281 15.4141C403.861 15.3771 403.466 15.2361 403.109 15.0234L402.359 14.5703C402.234 14.4961 402.147 14.4781 402.094 14.4766L401.344 14.4609C401.12 14.4545 400.896 14.4507 400.672 14.4609L400.297 14.4844L399.922 14.5C399.743 14.5082 399.56 14.5304 399.375 14.5781L399 14.6797L398.625 14.7734C398.357 14.8426 398.089 14.9075 397.82 14.9609L397.445 15.0312L397.07 15.1094C396.76 15.1712 396.447 15.2007 396.133 15.2031L395.758 15.2109H395.383C394.959 15.2141 394.553 15.1071 394.18 14.9219L393.523 14.5938L393.234 14.7656L392.859 14.9688C392.371 15.2412 391.813 15.3119 391.266 15.1016L390.891 14.9531L390.516 14.8125C390.402 14.769 390.31 14.7572 390.227 14.7656L389.477 14.8438C389.297 14.862 389.11 14.9018 388.922 14.9609L388.172 15.1953C387.647 15.3594 387.121 15.2921 386.656 15.0469L386.281 14.8438L385.906 14.6484C385.869 14.6288 385.847 14.6255 385.844 14.625H385.836L385.461 14.7031L385.086 14.7891C384.839 14.8429 384.59 14.8972 384.344 14.9531L383.594 15.125C383.177 15.2191 382.753 15.2048 382.344 15.0859L381.594 14.8672C381.458 14.8281 381.333 14.8184 381.211 14.8281L380.461 14.8906C380.305 14.9035 380.14 14.9383 379.969 15L379.219 15.2656C378.714 15.4483 378.189 15.4217 377.711 15.2031L377.336 15.0312L376.961 14.8516C376.947 14.8451 376.934 14.8449 376.93 14.8438H376.922L376.172 15.0781C375.842 15.1813 375.506 15.2451 375.164 15.2578L374.789 15.2734L374.414 15.2812C374.136 15.2913 373.856 15.2945 373.578 15.2812L373.203 15.2578L372.828 15.2422C372.623 15.2324 372.417 15.2409 372.211 15.2578L371.461 15.3203C371.126 15.3481 370.785 15.3306 370.453 15.2734L370.078 15.2109L369.703 15.1406C369.386 15.0859 369.073 15.001 368.766 14.8828L368.391 14.7344L368.016 14.5938C367.918 14.556 367.842 14.5522 367.773 14.5625L367.023 14.6719C366.795 14.7065 366.565 14.7471 366.336 14.7969L365.961 14.8828L365.586 14.9609C365.143 15.0568 364.701 15.0206 364.281 14.8672L363.906 14.7344L363.531 14.5938C363.398 14.5454 363.281 14.5342 363.172 14.5391L362.422 14.5703C362.333 14.5744 362.223 14.6015 362.086 14.6719L361.711 14.8594L361.336 15.0547C360.752 15.3551 360.124 15.3028 359.594 14.9688L358.844 14.5C358.722 14.4233 358.649 14.4143 358.617 14.4141L358.242 14.4062H357.867C357.864 14.4062 357.851 14.4061 357.828 14.4141Z" fill="#1E1E1E"/>
</g>
<defs>
<filter id="filter0_d_826_29926" x="0.429443" y="0.405426" width="434.904" height="79.1726" filterUnits="userSpaceOnUse" color-interpolation-filters="sRGB">
<feFlood flood-opacity="0" result="BackgroundImageFix"/>
<feColorMatrix in="SourceAlpha" type="matrix" values="0 0 0 0 0 0 0 0 0 0 0 0 0 0 0 0 0 0 127 0" result="hardAlpha"/>
<feOffset dx="1" dy="4"/>
<feGaussianBlur stdDeviation="8"/>
<feComposite in2="hardAlpha" operator="out"/>
<feColorMatrix type="matrix" values="0 0 0 0 0 0 0 0 0 0 0 0 0 0 0 0 0 0 0.08 0"/>
<feBlend mode="normal" in2="BackgroundImageFix" result="effect1_dropShadow_826_29926"/>
<feBlend mode="normal" in="SourceGraphic" in2="effect1_dropShadow_826_29926" result="shape"/>
</filter>
</defs>
</svg>
