<svg width="174" height="116" viewBox="0 0 174 116" fill="none" xmlns="http://www.w3.org/2000/svg">
<path d="M171.605 58.1789C171.639 66.7004 168.591 75.1067 162.709 82.713C155.735 91.8277 145.013 99.4942 131.746 104.854C118.478 110.213 103.188 113.054 87.5879 113.058C74.5419 113.08 61.6724 111.089 50.0275 107.247H9.77521L12.4671 82.713C6.58524 75.1067 3.53719 66.7004 3.5712 58.1789C3.57724 47.9892 7.92635 38.0018 16.1314 29.3354C24.3364 20.6691 36.0734 13.666 50.0275 9.11058C61.6724 5.26861 74.5419 3.27765 87.5879 3.29987H92.5301C113.132 4.04229 132.592 9.7224 147.182 19.2526C161.772 28.7828 170.468 41.4934 171.605 54.9507V58.1789Z" fill="white"/>
<path d="M171.48 59.5915L169.595 59.4253L171.48 59.5915ZM171.418 60.2979L173.303 60.4641L171.418 60.2979ZM171.458 61.735L173.332 61.473L171.458 61.735ZM171.662 63.1965L169.787 63.4585L171.662 63.1965ZM171.717 64.6569L169.828 64.5357L171.717 64.6569ZM171.623 66.1161L173.512 66.2373L171.623 66.1161ZM169.528 68.4834L170.71 69.9617L169.528 68.4834ZM168.74 69.7303L166.868 69.45L168.74 69.7303ZM168.53 71.1323L170.402 71.4126L168.53 71.1323ZM168.451 72.624L170.343 72.562L168.451 72.624ZM168.503 74.2051L166.611 74.267L168.503 74.2051ZM168.221 75.6526L169.935 76.4561L168.221 75.6526ZM167.605 76.9663L165.891 76.1628L167.605 76.9663ZM166.521 77.9817L165.727 76.2634L166.521 77.9817ZM164.968 78.6988L165.762 80.4171L164.968 78.6988ZM164.118 79.8688L166.003 80.0404L164.118 79.8688ZM163.97 81.4918L165.855 81.6634L163.97 81.4918ZM163.313 82.7529L164.467 84.2526L163.313 82.7529ZM162.729 83.2026L161.574 81.7028L162.729 83.2026ZM162.145 83.6522L163.299 85.1519L162.145 83.6522ZM161.066 84.6105L162.423 85.9297L161.066 84.6105ZM160.077 85.6279L158.72 84.3087L160.077 85.6279ZM159.115 86.6692L157.693 85.4205L159.115 86.6692ZM158.18 87.7344L159.602 88.9832L158.18 87.7344ZM157.219 88.7772L155.859 87.4607L157.219 88.7772ZM156.725 89.2874L158.084 90.604L156.725 89.2874ZM156.231 89.7976L154.871 88.4811L156.231 89.7976ZM155.285 90.8752L153.804 89.696L155.285 90.8752ZM154.381 92.01L155.861 93.1893L154.381 92.01ZM153.116 92.6913L152.853 90.8169L153.116 92.6913ZM151.49 92.9191L151.753 94.7935L151.49 92.9191ZM150.366 93.806L148.611 93.0988L150.366 93.806ZM149.744 95.3519L151.499 96.0591L149.744 95.3519ZM148.669 96.263L149.006 98.1255L148.669 96.263ZM147.142 96.5394L146.805 94.6769L147.142 96.5394ZM145.747 96.995L146.598 98.6859L145.747 96.995ZM145.116 97.3124L144.266 95.6215L145.116 97.3124ZM144.485 97.6298L143.635 95.9389L144.485 97.6298ZM143.482 98.7261L141.774 97.9101L143.482 98.7261ZM143.11 99.505L144.818 100.321L143.11 99.505ZM141.633 101.21L141.261 99.3538L141.633 101.21ZM140.901 101.356L140.529 99.5006L140.901 101.356ZM140.169 101.503L140.541 103.359L140.169 101.503ZM138.741 101.844L138.232 100.021L138.741 101.844ZM138.045 102.038L138.554 103.861L138.045 102.038ZM137.35 102.232L137.858 104.055L137.35 102.232ZM136.057 102.827L135.002 101.256L136.057 102.827ZM134.862 103.63L135.917 105.201L134.862 103.63ZM133.528 104.105L133.718 105.988L133.528 104.105ZM132.792 104.18L132.982 106.063L132.792 104.18ZM132.055 104.254L131.865 102.371L132.055 104.254ZM130.647 104.546L131.231 106.346L130.647 104.546ZM129.976 104.763L129.392 102.963L129.976 104.763ZM129.305 104.981L129.888 106.782L129.305 104.981ZM128.03 105.614L126.957 104.055L128.03 105.614ZM127.428 106.029L126.354 104.47L127.428 106.029ZM126.825 106.444L127.898 108.003L126.825 106.444ZM122.959 108.324L123.516 110.133L122.959 108.324ZM121.597 108.743L122.154 110.552L121.597 108.743ZM120.254 109.234L120.994 110.976L120.254 109.234ZM119.591 109.516L120.331 111.258L119.591 109.516ZM118.927 109.798L119.668 111.54L118.927 109.798ZM117.505 109.966L117.224 111.838L117.505 109.966ZM115.987 109.738L116.268 107.866L115.987 109.738ZM114.609 110.133L113.406 108.672L114.609 110.133ZM113.991 110.642L112.788 109.181L113.991 110.642ZM113.372 111.151L112.169 109.69L113.372 111.151ZM112.039 111.73L111.855 109.847L112.039 111.73ZM110.609 111.87L110.793 113.754L110.609 111.87ZM109.116 111.592L109.891 109.865L109.116 111.592ZM107.562 110.895L106.787 112.622L107.562 110.895ZM106.113 110.839L105.357 109.103L106.113 110.839ZM105.442 111.131L106.198 112.866L105.442 111.131ZM104.771 111.424L104.015 109.689L104.771 111.424ZM103.43 112.112L104.393 113.741L103.43 112.112ZM102.091 112.903L101.128 111.273L102.091 112.903ZM100.701 113.265L100.788 111.374L100.701 113.265ZM99.2593 113.199L99.1722 115.089L99.2593 113.199ZM97.8108 112.954L97.2823 114.771L97.8108 112.954ZM97.083 112.742L97.6115 110.925L97.083 112.742ZM96.3552 112.531L95.8267 114.348L96.3552 112.531ZM94.9152 112.205L95.2134 110.336L94.9152 112.205ZM94.2028 112.092L94.5011 110.223L94.2028 112.092ZM93.4905 111.978L93.1923 113.847L93.4905 111.978ZM92.0826 112.301L91.0769 110.697L92.0826 112.301ZM91.387 112.737L90.3812 111.134L91.387 112.737ZM90.6914 113.173L91.6972 114.777L90.6914 113.173ZM89.2833 113.457L88.8865 115.308L89.2833 113.457ZM87.8582 113.152L88.2549 111.301L87.8582 113.152ZM86.4374 112.943L86.5865 111.056L86.4374 112.943ZM85.7292 112.887L85.5801 114.774L85.7292 112.887ZM85.0209 112.831L84.8719 114.718L85.0209 112.831ZM83.6013 112.824L83.7306 114.712L83.6013 112.824ZM82.1786 112.921L82.0493 111.033L82.1786 112.921ZM80.7598 112.908L80.5948 114.793L80.7598 112.908ZM80.0524 112.846L79.8874 114.732L80.0524 112.846ZM79.3449 112.784L79.5099 110.899L79.3449 112.784ZM77.9272 112.697L77.8608 114.589L77.9272 112.697ZM77.217 112.672L77.2834 110.781L77.217 112.672ZM76.5067 112.647L76.5732 110.756L76.5067 112.647ZM75.1124 112.355L74.4238 114.118L75.1124 112.355ZM74.4282 112.088L75.1168 110.325L74.4282 112.088ZM73.7441 111.821L74.4327 110.058L73.7441 111.821ZM72.3504 111.532L72.2923 113.424L72.3504 111.532ZM70.9313 111.488L70.9895 109.596L70.9313 111.488ZM69.5454 111.219L68.896 112.997L69.5454 111.219ZM68.869 110.972L69.5184 109.194L68.869 110.972ZM68.1926 110.725L68.8421 108.947L68.1926 110.725ZM66.7375 110.813L67.4853 112.552L66.7375 110.813ZM65.1801 111.483L65.9279 113.222L65.1801 111.483ZM63.796 111.226L65.1184 109.872L63.796 111.226ZM63.1905 110.635L64.5129 109.281L63.1905 110.635ZM62.5851 110.044L61.2627 111.398L62.5851 110.044ZM61.2292 109.567L61.5144 111.438L61.2292 109.567ZM60.4786 109.682L60.1934 107.81L60.4786 109.682ZM59.7281 109.796L59.4429 107.925L59.7281 109.796ZM58.3607 109.464L57.2514 110.998L58.3607 109.464ZM57.7437 109.018L56.6345 110.552L57.7437 109.018ZM57.1268 108.572L58.236 107.038L57.1268 108.572ZM55.7956 108.063L55.6299 109.948L55.7956 108.063ZM54.3669 107.937L54.5325 106.052L54.3669 107.937ZM52.9558 107.733L52.5794 109.588L52.9558 107.733ZM51.5623 107.451L51.9387 105.596L51.5623 107.451ZM50.1506 107.349L50.0444 105.46L50.1506 107.349ZM47.2958 107.658L46.8109 105.828L47.2958 107.658ZM45.8763 108.034L46.3612 109.864L45.8763 108.034ZM44.4567 108.143L44.2474 110.025L44.4567 108.143ZM43.0371 107.985L43.2464 106.104L43.0371 107.985ZM41.6176 107.521L40.7147 109.185L41.6176 107.521ZM40.9078 107.136L40.0049 108.799L40.9078 107.136ZM40.198 106.751L41.1009 105.087L40.198 106.751ZM38.7785 106.484L38.4667 104.617L38.7785 106.484ZM37.3589 106.721L37.0471 104.854L37.3589 106.721ZM35.9394 106.847L35.959 108.74L35.9394 106.847ZM35.2296 106.854L35.2492 108.747L35.2296 106.854ZM34.5198 106.862L34.5001 104.969L34.5198 106.862ZM33.1002 107.238L32.2264 105.56L33.1002 107.238ZM32.3905 107.608L33.2643 109.287L32.3905 107.608ZM31.6807 107.977L30.8069 106.298L31.6807 107.977ZM28.8416 107.478L29.5567 105.725L28.8416 107.478ZM27.422 107.377L27.9095 109.206L27.422 107.377ZM26.0024 107.756L25.5149 105.927L26.0024 107.756ZM24.5829 107.977L24.6695 109.868L24.5829 107.977ZM23.1633 108.042L23.0767 106.152L23.1633 108.042ZM21.7438 107.979L21.9978 106.103L21.7438 107.979ZM21.034 107.883L20.78 109.758L21.034 107.883ZM18.9046 107.698L18.9244 109.59L18.9046 107.698ZM17.4851 107.713L17.4653 105.82L17.4851 107.713ZM15.3558 107.429L14.9762 109.284L15.3558 107.429ZM14.646 107.284L15.0256 105.43L14.646 107.284ZM13.2264 106.887L12.5943 108.671L13.2264 106.887ZM11.8069 106.384L11.1747 108.168L11.8069 106.384ZM11.0817 106.064L12.9285 105.65L11.0817 106.064ZM11.051 105.928L12.8978 105.513L11.051 105.928ZM10.6219 105.1L12.2839 104.194L10.6219 105.1ZM9.79426 103.581L11.4563 102.675L9.79426 103.581ZM9.70666 102.143L11.4124 102.963L9.70666 102.143ZM10.3591 100.787L8.65333 99.9662L10.3591 100.787ZM10.7728 99.4039L8.89453 99.1704L10.7728 99.4039ZM10.9479 97.995L9.06966 97.7616L10.9479 97.995ZM11.2104 96.5958L9.37496 96.1337L11.2104 96.5958ZM11.5603 95.2061L13.3958 95.6681L11.5603 95.2061ZM11.8741 93.8124L13.7305 94.1814L11.8741 93.8124ZM12.013 93.1136L10.1566 92.7446L12.013 93.1136ZM12.1519 92.4148L10.2955 92.0458L12.1519 92.4148ZM11.985 90.9684L10.2332 91.685L11.985 90.9684ZM11.3735 89.4733L13.1253 88.7567L11.3735 89.4733ZM11.2067 88.0269L13.0631 88.3963L11.2067 88.0269ZM11.3458 87.3281L13.2021 87.6975L11.3458 87.3281ZM11.4848 86.6293L9.62849 86.2599L11.4848 86.6293ZM11.6481 85.2192L9.7564 85.1549L11.6481 85.2192ZM11.6964 83.7964L9.80474 83.7321L11.6964 83.7964ZM11.3372 82.6621L9.93494 83.9334L11.3372 82.6621ZM10.5704 81.8164L11.9727 80.5451L10.5704 81.8164ZM10.2289 80.5175L8.33829 80.4272L10.2289 80.5175ZM10.3126 78.7655L12.2031 78.8558L10.3126 78.7655ZM9.57291 77.518L8.76027 79.2275L9.57291 77.518ZM8.79142 77.1465L7.97878 78.8559L8.79142 77.1465ZM8.00993 76.775L7.1973 78.4844L8.00993 76.775ZM7.3756 75.5441L9.24119 75.8635L7.3756 75.5441ZM7.06393 72.5041L8.0532 70.8904L7.06393 72.5041ZM5.5577 71.5807L4.56843 73.1943L5.5577 71.5807ZM4.87458 70.3427L6.75968 70.5127L4.87458 70.3427ZM4.94458 69.5665L3.05949 69.3965L4.94458 69.5665ZM5.01458 68.7902L3.12949 68.6202L5.01458 68.7902ZM4.88169 64.4607L3.08342 65.0513L4.88169 64.4607ZM4.66135 63.7897L2.86308 64.3802L4.66135 63.7897ZM4.441 63.1187L6.23928 62.5282L4.441 63.1187ZM3.94519 61.7568L2.18703 62.4577L3.94519 61.7568ZM3.39426 60.3749L5.15243 59.674L3.39426 60.3749ZM2.97666 58.9597L4.83397 58.5952L2.97666 58.9597ZM2.69238 57.5113L0.835064 57.8758L2.69238 57.5113ZM2.82855 56.0851L1.06907 55.3875L2.82855 56.0851ZM3.10687 55.3832L1.34739 54.6855L3.10687 55.3832ZM3.38519 54.6812L5.14468 55.3789L3.38519 54.6812ZM4.25256 48.978L2.37952 49.2504L4.25256 48.978ZM4.3167 47.5119L2.47932 47.0575L4.3167 47.5119ZM4.66601 46.0996L6.50339 46.554L4.66601 46.0996ZM5.08552 44.7074L6.8681 45.3437L5.08552 44.7074ZM5.57522 43.3355L3.79263 42.6992L5.57522 43.3355ZM6.556 42.2126L5.58959 40.5851L6.556 42.2126ZM9.13584 40.3127L7.5357 39.3017L9.13584 40.3127ZM9.8799 39.135L11.48 40.146L9.8799 39.135ZM10.7167 37.1782L8.92452 36.5694L10.7167 37.1782ZM10.949 36.4942L12.7412 37.1031L10.949 36.4942ZM11.5045 35.1673L9.81327 34.3174L11.5045 35.1673ZM11.8276 34.5243L10.1364 33.6744L11.8276 34.5243ZM12.1507 33.8813L13.8419 34.7311L12.1507 33.8813ZM13.4324 31.2411L11.7261 30.4221L13.4324 31.2411ZM16.2305 29.9536L15.77 28.1177L16.2305 29.9536ZM17.3743 29.0666L19.0891 29.8677L17.3743 29.0666ZM18.0094 27.7071L16.2945 26.906L18.0094 27.7071ZM18.7212 26.3976L20.3254 27.402L18.7212 26.3976ZM20.5457 24.1605L19.6435 22.4966L20.5457 24.1605ZM21.8294 23.4644L20.9273 21.8005L21.8294 23.4644ZM23.1766 22.8733L22.5597 21.0839L23.1766 22.8733ZM24.5873 22.3869L25.2042 24.1763L24.5873 22.3869ZM25.9208 21.8169L26.7945 23.4959L25.9208 21.8169ZM27.177 21.1632L26.3033 19.4841L27.177 21.1632ZM28.2973 20.3012L29.6904 21.5826L28.2973 20.3012ZM29.2818 19.231L27.8888 17.9496L29.2818 19.231ZM30.3534 18.2844L31.4494 19.8276L30.3534 18.2844ZM30.9329 17.8729L29.8369 16.3297L30.9329 17.8729ZM31.5123 17.4614L30.4164 15.9182L31.5123 17.4614ZM32.747 16.7718L33.4865 18.5141L32.747 16.7718ZM33.4022 16.4937L32.6627 14.7514L33.4022 16.4937ZM34.0575 16.2156L33.318 14.4733L34.0575 16.2156ZM35.23 15.3873L36.6089 16.684L35.23 15.3873ZM36.2647 14.2871L34.8858 12.9904L36.2647 14.2871ZM37.4518 13.4829L38.1231 15.2526L37.4518 13.4829ZM38.7914 12.9748L38.1201 11.205L38.7914 12.9748ZM40.0731 12.3357L41.081 13.9378L40.0731 12.3357ZM41.2969 11.5658L40.289 9.96373L41.2969 11.5658ZM42.7208 11.2962L42.4545 13.1701L42.7208 11.2962ZM43.5327 11.4115L43.7989 9.5376L43.5327 11.4115ZM44.3447 11.5269L44.6109 9.65295L44.3447 11.5269ZM45.7808 11.2945L44.8597 9.64103L45.7808 11.2945ZM46.4049 10.9468L47.326 12.6003L46.4049 10.9468ZM47.0291 10.5991L47.9502 12.2526L47.0291 10.5991ZM48.2238 9.71942L46.9331 8.33505L48.2238 9.71942ZM49.365 8.65542L48.0743 7.27105L49.365 8.65542ZM50.679 8.11032L50.7124 10.0028L50.679 8.11032ZM52.1658 8.08412L52.1325 6.19167L52.1658 8.08412ZM54.9772 7.55213L54.5166 5.71629L54.9772 7.55213ZM56.3255 7.08482L55.5536 5.35665L56.3255 7.08482ZM57.6434 6.49612L58.4154 8.22429L57.6434 6.49612ZM59.0094 6.09747L58.7331 4.22499L59.0094 6.09747ZM59.7164 5.99315L59.4401 4.12068L59.7164 5.99315ZM60.4234 5.88884L60.6996 7.76131L60.4234 5.88884ZM61.8154 5.57919L61.2719 3.76615L61.8154 5.57919ZM63.1854 5.1685L63.7289 6.98153L63.1854 5.1685ZM64.5555 4.73781L63.9642 2.93982L64.5555 4.73781ZM65.9258 4.28711L65.3345 2.48912L65.9258 4.28711ZM67.3406 4.10993L67.2159 5.99856L67.3406 4.10993ZM68.0702 4.1581L68.1949 2.26946L68.0702 4.1581ZM68.7998 4.20626L68.6752 6.0949L68.7998 4.20626ZM70.2166 4.0094L70.8523 5.79219L70.2166 4.0094ZM70.9038 3.76437L70.2681 1.98158L70.9038 3.76437ZM71.5909 3.51934L72.2266 5.30214L71.5909 3.51934ZM74.4626 3.57653L74.722 1.70164L74.4626 3.57653ZM75.8929 3.53203L76.2763 5.38553L75.8929 3.53203ZM76.595 3.38678L76.2115 1.53328L76.595 3.38678ZM77.2971 3.24154L76.9137 1.38804L77.2971 3.24154ZM78.7241 3.31383L78.1801 5.12671L78.7241 3.31383ZM79.4491 3.53137L79.9931 1.71849L79.4491 3.53137ZM80.174 3.7489L79.63 5.56178L80.174 3.7489ZM81.6041 3.89696L81.4186 2.01334L81.6041 3.89696ZM84.4257 3.39464L85.1532 5.14202L84.4257 3.39464ZM88.6768 3.2565L89.2998 1.46921L88.6768 3.2565ZM90.0977 3.68038L89.6421 5.51747L90.0977 3.68038ZM91.5173 4.03245L91.9729 2.19536L91.5173 4.03245ZM92.9349 4.03585L93.3833 5.8747L92.9349 4.03585ZM93.6427 3.86321L93.1943 2.02437L93.6427 3.86321ZM94.3506 3.69058L93.9021 1.85173L94.3506 3.69058ZM95.7877 3.28871L96.3553 5.09435L95.7877 3.28871ZM97.2462 2.83024L97.8138 4.63587L97.2462 2.83024ZM100.031 3.60461L99.201 5.30551L100.031 3.60461ZM101.437 3.89525L101.322 2.00601L101.437 3.89525ZM102.157 3.85135L102.042 1.96211L102.157 3.85135ZM102.877 3.80744L102.992 5.69668L102.877 3.80744ZM107.173 3.92951L107.6 2.08555L107.173 3.92951ZM107.87 4.09091L107.443 5.93488L107.87 4.09091ZM108.567 4.25232L108.994 2.40835L108.567 4.25232ZM109.892 4.91836L111.078 3.44282L109.892 4.91836ZM111.149 5.92763L109.963 7.40317L111.149 5.92763ZM112.572 6.09374L111.831 4.35208L112.572 6.09374ZM114.164 5.41669L114.905 7.15835L114.164 5.41669ZM116.193 6.06067L117.372 4.58034L116.193 6.06067ZM116.809 6.55192L115.63 8.03225L116.809 6.55192ZM118.187 6.93975L118.442 8.81529L118.187 6.93975ZM119.711 6.73291L119.456 4.85737L119.711 6.73291ZM121.019 7.29539L119.557 8.49649L121.019 7.29539ZM121.566 7.9613L123.029 6.76021L121.566 7.9613ZM122.113 8.6272L120.65 9.8283L122.113 8.6272ZM123.344 9.45889L123.79 7.61928L123.344 9.45889ZM124.029 9.62466L123.584 11.4643L124.029 9.62466ZM124.714 9.79044L125.159 7.95083L124.714 9.79044ZM126.12 10.0311L125.924 11.9137L126.12 10.0311ZM126.841 10.1059L127.036 8.22331L126.841 10.1059ZM127.562 10.1808L127.366 12.0634L127.562 10.1808ZM128.911 10.5919L129.804 8.92299L128.911 10.5919ZM130.169 11.2644L129.276 12.9334L130.169 11.2644ZM131.533 11.6718L131.351 13.5558L131.533 11.6718ZM133.005 11.8139L132.823 13.6979L133.005 11.8139ZM134.458 12.0279L134.828 10.1716L134.458 12.0279ZM135.894 12.3136L135.524 14.1699L135.894 12.3136ZM137.256 12.7694L136.429 14.472L137.256 12.7694ZM138.544 13.3951L139.371 11.6925L138.544 13.3951ZM139.766 14.1473L140.912 12.6415L139.766 14.1473ZM140.919 15.026L139.773 16.5318L140.919 15.026ZM141.974 16.0615L143.451 14.8788L141.974 16.0615ZM142.928 17.2539L141.45 18.4366L142.928 17.2539ZM144.157 17.9764L143.843 19.843L144.157 17.9764ZM145.66 18.229L145.973 16.3625L145.66 18.229ZM147.003 18.7521L148.057 17.1799L147.003 18.7521ZM148.187 19.5457L147.133 21.1179L148.187 19.5457ZM149.29 20.4502L147.955 21.7925L149.29 20.4502ZM149.8 20.9579L148.466 22.3003L149.8 20.9579ZM150.311 21.4657L151.646 20.1234L150.311 21.4657ZM151.311 22.4943L149.932 23.7906L151.311 22.4943ZM151.801 23.0151L150.422 24.3114L151.801 23.0151ZM152.291 23.536L153.67 22.2397L152.291 23.536ZM153.279 24.5546L154.616 23.2153L153.279 24.5546ZM154.276 25.5502L152.938 26.8895L154.276 25.5502ZM155.492 26.3133L156.148 24.5381L155.492 26.3133ZM156.209 26.5787L155.553 28.3539L156.209 26.5787ZM156.927 26.844L156.27 28.6193L156.927 26.844ZM158.019 27.736L156.395 28.7078L158.019 27.736ZM158.769 28.9893L160.393 28.0175L158.769 28.9893ZM159.778 30.003L158.792 31.6186L159.778 30.003ZM161.046 30.7771L160.06 32.3927L161.046 30.7771ZM162.212 31.6605L160.92 33.0438L162.212 31.6605ZM163.275 32.6531L164.567 31.2698L163.275 32.6531ZM163.945 33.9266L162.082 34.2589L163.945 33.9266ZM164.084 34.7037L162.22 35.036L164.084 34.7037ZM164.222 35.4809L166.086 35.1486L164.222 35.4809ZM165.061 36.6633L164.112 38.3012L165.061 36.6633ZM166.46 37.4737L165.511 39.1116L166.46 37.4737ZM167.472 38.5356L165.762 39.3478L167.472 38.5356ZM167.784 39.1923L169.493 38.3801L167.784 39.1923ZM168.096 39.849L166.386 40.6612L168.096 39.849ZM168.587 41.2165L166.752 41.6806L168.587 41.2165ZM168.947 42.6381L170.782 42.174L168.947 42.6381ZM169.531 43.9683L167.946 45.003L169.531 43.9683ZM170.34 45.2069L171.925 44.1722L170.34 45.2069ZM170.627 46.6084L172.499 46.888L170.627 46.6084ZM170.51 47.3907L168.638 47.1111L170.51 47.3907ZM170.394 48.1729L168.522 47.8933L170.394 48.1729ZM170.74 49.5873L172.267 48.4692L170.74 49.5873ZM171.202 50.2194L169.675 51.3375L171.202 50.2194ZM171.665 50.8516L170.138 51.9696L171.665 50.8516ZM171.897 52.2378L170.087 51.6841L171.897 52.2378ZM171.436 53.7459L169.626 53.1922L171.436 53.7459ZM171.213 55.2005L169.321 55.2225L171.213 55.2005ZM171.221 55.9011L169.329 55.9231L171.221 55.9011ZM171.23 56.6017L173.122 56.5797L171.23 56.6017ZM171.542 58.8852L173.428 59.0515L171.542 58.8852ZM171.48 59.5915L169.595 59.4253L169.532 60.1316L171.418 60.2979L173.303 60.4641L173.365 59.7578L171.48 59.5915ZM171.418 60.2979L169.532 60.1316C169.478 60.7509 169.496 61.3736 169.583 61.9969L171.458 61.735L173.332 61.473C173.283 61.122 173.275 60.7867 173.303 60.4641L171.418 60.2979ZM171.458 61.735L169.583 61.9969L169.685 62.7277L171.56 62.4658L173.434 62.2038L173.332 61.473L171.458 61.735ZM171.56 62.4658L169.685 62.7277L169.787 63.4585L171.662 63.1965L173.536 62.9346L173.434 62.2038L171.56 62.4658ZM171.662 63.1965L169.787 63.4585C169.838 63.82 169.851 64.1784 169.828 64.5357L171.717 64.6569L173.606 64.7782C173.645 64.1627 173.622 63.5475 173.536 62.9346L171.662 63.1965ZM171.717 64.6569L169.828 64.5357L169.781 65.2652L171.67 65.3865L173.559 65.5077L173.606 64.7782L171.717 64.6569ZM171.67 65.3865L169.781 65.2652L169.735 65.9948L171.623 66.1161L173.512 66.2373L173.559 65.5077L171.67 65.3865ZM171.623 66.1161L169.735 65.9948C169.736 65.976 169.74 65.9512 169.748 65.9237C169.756 65.8963 169.766 65.8745 169.775 65.8599C169.792 65.8303 169.788 65.8524 169.712 65.9132L170.894 67.3916L172.076 68.8699C172.858 68.2441 173.44 67.359 173.512 66.2373L171.623 66.1161ZM170.894 67.3916L169.712 65.9132L169.029 66.4591L170.211 67.9375L171.393 69.4158L172.076 68.8699L170.894 67.3916ZM170.211 67.9375L169.029 66.4591L168.346 67.005L169.528 68.4834L170.71 69.9617L171.393 69.4158L170.211 67.9375ZM169.528 68.4834L168.346 67.005C167.609 67.5941 167.025 68.4065 166.868 69.45L168.74 69.7303L170.612 70.0106C170.61 70.0256 170.606 70.0417 170.6 70.0566C170.598 70.0636 170.595 70.0692 170.593 70.0733C170.591 70.0773 170.59 70.0792 170.59 70.079C170.59 70.0787 170.617 70.036 170.71 69.9617L169.528 68.4834ZM168.74 69.7303L166.868 69.45L166.764 70.1511L168.635 70.4313L170.507 70.7116L170.612 70.0106L168.74 69.7303ZM168.635 70.4313L166.764 70.1511L166.659 70.8521L168.53 71.1323L170.402 71.4126L170.507 70.7116L168.635 70.4313ZM168.53 71.1323L166.659 70.8521C166.57 71.4448 166.539 72.0573 166.56 72.6859L168.451 72.624L170.343 72.562C170.329 72.1365 170.351 71.7546 170.402 71.4126L168.53 71.1323ZM168.451 72.624L166.56 72.6859L166.585 73.4764L168.477 73.4145L170.369 73.3526L170.343 72.562L168.451 72.624ZM168.477 73.4145L166.585 73.4764L166.611 74.267L168.503 74.2051L170.395 74.1432L170.369 73.3526L168.477 73.4145ZM168.503 74.2051L166.611 74.267C166.62 74.5231 166.575 74.7054 166.507 74.8491L168.221 75.6526L169.935 76.4561C170.278 75.7239 170.421 74.9413 170.395 74.1432L168.503 74.2051ZM168.221 75.6526L166.507 74.8491L166.199 75.5059L167.913 76.3094L169.627 77.1129L169.935 76.4561L168.221 75.6526ZM167.913 76.3094L166.199 75.5059L165.891 76.1628L167.605 76.9663L169.319 77.7698L169.627 77.1129L167.913 76.3094ZM167.605 76.9663L165.891 76.1628C165.891 76.1631 165.892 76.1617 165.893 76.1601C165.894 76.1587 165.893 76.161 165.886 76.1671C165.873 76.1789 165.829 76.2161 165.727 76.2634L166.521 77.9817L167.314 79.7C168.161 79.309 168.891 78.6812 169.319 77.7698L167.605 76.9663ZM166.521 77.9817L165.727 76.2634L164.951 76.622L165.745 78.3403L166.538 80.0585L167.314 79.7L166.521 77.9817ZM165.745 78.3403L164.951 76.622L164.175 76.9805L164.968 78.6988L165.762 80.4171L166.538 80.0585L165.745 78.3403ZM164.968 78.6988L164.175 76.9805C163.08 77.4859 162.347 78.4429 162.233 79.6972L164.118 79.8688L166.003 80.0404C166.001 80.0657 165.982 80.1684 165.899 80.2831C165.819 80.3938 165.743 80.4258 165.762 80.4171L164.968 78.6988ZM164.118 79.8688L162.233 79.6972L162.159 80.5087L164.044 80.6803L165.929 80.8519L166.003 80.0404L164.118 79.8688ZM164.044 80.6803L162.159 80.5087L162.085 81.3202L163.97 81.4918L165.855 81.6634L165.929 80.8519L164.044 80.6803ZM163.97 81.4918L162.085 81.3202C162.08 81.3803 162.071 81.3756 162.091 81.3374C162.1 81.3195 162.113 81.3008 162.127 81.2837C162.141 81.2667 162.153 81.2568 162.158 81.2532L163.313 82.7529L164.467 84.2526C165.321 83.5953 165.764 82.6679 165.855 81.6634L163.97 81.4918ZM163.313 82.7529L162.158 81.2532L161.574 81.7028L162.729 83.2026L163.883 84.7023L164.467 84.2526L163.313 82.7529ZM162.729 83.2026L161.574 81.7028L160.99 82.1525L162.145 83.6522L163.299 85.1519L163.883 84.7023L162.729 83.2026ZM162.145 83.6522L160.99 82.1525C160.532 82.5053 160.104 82.8848 159.709 83.2914L161.066 84.6105L162.423 85.9297C162.687 85.658 162.979 85.3986 163.299 85.1519L162.145 83.6522ZM161.066 84.6105L159.709 83.2914L159.214 83.8L160.572 85.1192L161.929 86.4384L162.423 85.9297L161.066 84.6105ZM160.572 85.1192L159.214 83.8L158.72 84.3087L160.077 85.6279L161.435 86.9471L161.929 86.4384L160.572 85.1192ZM160.077 85.6279L158.72 84.3087C158.368 84.6708 158.026 85.0414 157.693 85.4205L159.115 86.6692L160.538 87.918C160.828 87.5869 161.127 87.2633 161.435 86.9471L160.077 85.6279ZM159.115 86.6692L157.693 85.4205L157.225 85.9531L158.648 87.2018L160.07 88.4506L160.538 87.918L159.115 86.6692ZM158.648 87.2018L157.225 85.9531L156.758 86.4857L158.18 87.7344L159.602 88.9832L160.07 88.4506L158.648 87.2018ZM158.18 87.7344L156.758 86.4857C156.466 86.8176 156.167 87.1426 155.859 87.4607L157.219 88.7772L158.578 90.0938C158.929 89.7316 159.27 89.3614 159.602 88.9832L158.18 87.7344ZM157.219 88.7772L155.859 87.4607L155.365 87.9709L156.725 89.2874L158.084 90.604L158.578 90.0938L157.219 88.7772ZM156.725 89.2874L155.365 87.9709L154.871 88.4811L156.231 89.7976L157.591 91.1142L158.084 90.604L156.725 89.2874ZM156.231 89.7976L154.871 88.4811C154.498 88.866 154.143 89.2711 153.804 89.696L155.285 90.8752L156.765 92.0545C157.029 91.7229 157.305 91.4096 157.591 91.1142L156.231 89.7976ZM155.285 90.8752L153.804 89.696L153.352 90.2634L154.833 91.4426L156.313 92.6219L156.765 92.0545L155.285 90.8752ZM154.833 91.4426L153.352 90.2634L152.9 90.8308L154.381 92.01L155.861 93.1893L156.313 92.6219L154.833 91.4426ZM154.381 92.01L152.9 90.8308C152.902 90.8286 152.908 90.8222 152.917 90.8143C152.927 90.8063 152.935 90.8008 152.941 90.7977C152.947 90.7948 152.945 90.7965 152.932 90.8005C152.919 90.8045 152.894 90.8112 152.853 90.8169L153.116 92.6913L153.379 94.5658C154.332 94.4321 155.218 93.9973 155.861 93.1893L154.381 92.01ZM153.116 92.6913L152.853 90.8169L152.041 90.9308L152.303 92.8052L152.566 94.6796L153.379 94.5658L153.116 92.6913ZM152.303 92.8052L152.041 90.9308L151.228 91.0447L151.49 92.9191L151.753 94.7935L152.566 94.6796L152.303 92.8052ZM151.49 92.9191L151.228 91.0447C150.003 91.2163 149.066 91.9672 148.611 93.0988L150.366 93.806L152.122 94.5132C152.123 94.5109 152.087 94.5959 151.975 94.6838C151.863 94.7727 151.765 94.7919 151.753 94.7935L151.49 92.9191ZM150.366 93.806L148.611 93.0988L148.299 93.8717L150.055 94.5789L151.811 95.2861L152.122 94.5132L150.366 93.806ZM150.055 94.5789L148.299 93.8717L147.988 94.6447L149.744 95.3519L151.499 96.0591L151.811 95.2861L150.055 94.5789ZM149.744 95.3519L147.988 94.6447C147.978 94.6692 148.001 94.6025 148.095 94.5223C148.195 94.4378 148.293 94.4075 148.332 94.4005L148.669 96.263L149.006 98.1255C150.21 97.9076 151.07 97.124 151.499 96.0591L149.744 95.3519ZM148.669 96.263L148.332 94.4005L147.568 94.5387L147.905 96.4012L148.242 98.2637L149.006 98.1255L148.669 96.263ZM147.905 96.4012L147.568 94.5387L146.805 94.6769L147.142 96.5394L147.479 98.4019L148.242 98.2637L147.905 96.4012ZM147.142 96.5394L146.805 94.6769C146.135 94.7982 145.494 95.0034 144.897 95.3041L145.747 96.995L146.598 98.6859C146.841 98.5634 147.131 98.4649 147.479 98.4019L147.142 96.5394ZM145.747 96.995L144.897 95.3041L144.266 95.6215L145.116 97.3124L145.967 99.0033L146.598 98.6859L145.747 96.995ZM145.116 97.3124L144.266 95.6215L143.635 95.9389L144.485 97.6298L145.336 99.3207L145.967 99.0033L145.116 97.3124ZM144.485 97.6298L143.635 95.9389C142.762 96.3779 142.162 97.0986 141.774 97.9101L143.482 98.7261L145.19 99.5421C145.246 99.4242 145.293 99.3651 145.315 99.3403C145.335 99.3184 145.341 99.3178 145.336 99.3207L144.485 97.6298ZM143.482 98.7261L141.774 97.9101L141.402 98.6891L143.11 99.505L144.818 100.321L145.19 99.5421L143.482 98.7261ZM143.11 99.505L141.402 98.6891L141.03 99.468L142.738 100.284L144.446 101.1L144.818 100.321L143.11 99.505ZM142.738 100.284L141.03 99.468C141 99.531 140.999 99.5049 141.06 99.4543C141.089 99.4296 141.125 99.4059 141.165 99.3868C141.205 99.3679 141.239 99.3583 141.261 99.3538L141.633 101.21L142.005 103.065C143.174 102.831 143.986 102.061 144.446 101.1L142.738 100.284ZM141.633 101.21L141.261 99.3538L140.529 99.5006L140.901 101.356L141.273 103.212L142.005 103.065L141.633 101.21ZM140.901 101.356L140.529 99.5006L139.797 99.6474L140.169 101.503L140.541 103.359L141.273 103.212L140.901 101.356ZM140.169 101.503L139.797 99.6474C139.264 99.7541 138.743 99.8785 138.232 100.021L138.741 101.844L139.25 103.667C139.667 103.551 140.097 103.448 140.541 103.359L140.169 101.503ZM138.741 101.844L138.232 100.021L137.537 100.215L138.045 102.038L138.554 103.861L139.25 103.667L138.741 101.844ZM138.045 102.038L137.537 100.215L136.841 100.409L137.35 102.232L137.858 104.055L138.554 103.861L138.045 102.038ZM137.35 102.232L136.841 100.409C136.184 100.593 135.568 100.876 135.002 101.256L136.057 102.827L137.112 104.399C137.342 104.244 137.588 104.131 137.858 104.055L137.35 102.232ZM136.057 102.827L135.002 101.256L134.404 101.657L135.459 103.229L136.515 104.8L137.112 104.399L136.057 102.827ZM135.459 103.229L134.404 101.657L133.807 102.058L134.862 103.63L135.917 105.201L136.515 104.8L135.459 103.229ZM134.862 103.63L133.807 102.058C133.675 102.147 133.529 102.203 133.338 102.222L133.528 104.105L133.718 105.988C134.51 105.908 135.253 105.647 135.917 105.201L134.862 103.63ZM133.528 104.105L133.338 102.222L132.601 102.296L132.792 104.18L132.982 106.063L133.718 105.988L133.528 104.105ZM132.792 104.18L132.601 102.296L131.865 102.371L132.055 104.254L132.245 106.137L132.982 106.063L132.792 104.18ZM132.055 104.254L131.865 102.371C131.247 102.433 130.645 102.557 130.064 102.745L130.647 104.546L131.231 106.346C131.544 106.245 131.881 106.174 132.245 106.137L132.055 104.254ZM130.647 104.546L130.064 102.745L129.392 102.963L129.976 104.763L130.56 106.564L131.231 106.346L130.647 104.546ZM129.976 104.763L129.392 102.963L128.721 103.181L129.305 104.981L129.888 106.782L130.56 106.564L129.976 104.763ZM129.305 104.981L128.721 103.181C128.093 103.384 127.504 103.678 126.957 104.055L128.03 105.614L129.104 107.173C129.361 106.996 129.621 106.868 129.888 106.782L129.305 104.981ZM128.03 105.614L126.957 104.055L126.354 104.47L127.428 106.029L128.501 107.588L129.104 107.173L128.03 105.614ZM127.428 106.029L126.354 104.47L125.751 104.885L126.825 106.444L127.898 108.003L128.501 107.588L127.428 106.029ZM126.825 106.444L125.751 104.885C125.426 105.109 125.092 105.304 124.749 105.471L125.576 107.173L126.404 108.876C126.921 108.624 127.42 108.333 127.898 108.003L126.825 106.444ZM125.576 107.173L124.749 105.471L124.103 105.785L124.931 107.487L125.758 109.189L126.404 108.876L125.576 107.173ZM124.931 107.487L124.103 105.785L123.458 106.099L124.285 107.801L125.113 109.503L125.758 109.189L124.931 107.487ZM124.285 107.801L123.458 106.099C123.114 106.266 122.763 106.404 122.402 106.515L122.959 108.324L123.516 110.133C124.063 109.965 124.596 109.754 125.113 109.503L124.285 107.801ZM122.959 108.324L122.402 106.515L121.722 106.724L122.278 108.533L122.835 110.343L123.516 110.133L122.959 108.324ZM122.278 108.533L121.722 106.724L121.041 106.934L121.597 108.743L122.154 110.552L122.835 110.343L122.278 108.533ZM121.597 108.743L121.041 106.934C120.524 107.093 120.014 107.279 119.513 107.493L120.254 109.234L120.994 110.976C121.377 110.813 121.763 110.672 122.154 110.552L121.597 108.743ZM120.254 109.234L119.513 107.493L118.85 107.774L119.591 109.516L120.331 111.258L120.994 110.976L120.254 109.234ZM119.591 109.516L118.85 107.774L118.187 108.056L118.927 109.798L119.668 111.54L120.331 111.258L119.591 109.516ZM118.927 109.798L118.187 108.056C118.088 108.098 117.97 108.122 117.787 108.094L117.505 109.966L117.224 111.838C118.052 111.962 118.883 111.874 119.668 111.54L118.927 109.798ZM117.505 109.966L117.787 108.094L117.028 107.98L116.746 109.852L116.465 111.724L117.224 111.838L117.505 109.966ZM116.746 109.852L117.028 107.98L116.268 107.866L115.987 109.738L115.705 111.609L116.465 111.724L116.746 109.852ZM115.987 109.738L116.268 107.866C115.206 107.706 114.212 108.008 113.406 108.672L114.609 110.133L115.812 111.594C115.829 111.581 115.834 111.579 115.828 111.582C115.821 111.586 115.806 111.593 115.785 111.599C115.763 111.605 115.742 111.608 115.725 111.609C115.708 111.61 115.7 111.609 115.705 111.609L115.987 109.738ZM114.609 110.133L113.406 108.672L112.788 109.181L113.991 110.642L115.194 112.103L115.812 111.594L114.609 110.133ZM113.991 110.642L112.788 109.181L112.169 109.69L113.372 111.151L114.576 112.612L115.194 112.103L113.991 110.642ZM113.372 111.151L112.169 109.69C112.013 109.819 111.915 109.841 111.855 109.847L112.039 111.73L112.223 113.614C113.116 113.527 113.908 113.162 114.576 112.612L113.372 111.151ZM112.039 111.73L111.855 109.847L111.14 109.917L111.324 111.8L111.508 113.684L112.223 113.614L112.039 111.73ZM111.324 111.8L111.14 109.917L110.424 109.986L110.609 111.87L110.793 113.754L111.508 113.684L111.324 111.8ZM110.609 111.87L110.424 109.986C110.331 109.995 110.164 109.987 109.891 109.865L109.116 111.592L108.342 113.319C109.104 113.661 109.932 113.838 110.793 113.754L110.609 111.87ZM109.116 111.592L109.891 109.865L109.114 109.516L108.339 111.243L107.565 112.97L108.342 113.319L109.116 111.592ZM108.339 111.243L109.114 109.516L108.336 109.168L107.562 110.895L106.787 112.622L107.565 112.97L108.339 111.243ZM107.562 110.895L108.336 109.168C107.419 108.756 106.375 108.66 105.357 109.103L106.113 110.839L106.87 112.574C106.856 112.58 106.835 112.587 106.808 112.592C106.782 112.597 106.757 112.598 106.738 112.598C106.699 112.596 106.711 112.588 106.787 112.622L107.562 110.895ZM106.113 110.839L105.357 109.103L104.686 109.396L105.442 111.131L106.198 112.866L106.87 112.574L106.113 110.839ZM105.442 111.131L104.686 109.396L104.015 109.689L104.771 111.424L105.527 113.159L106.198 112.866L105.442 111.131ZM104.771 111.424L104.015 109.689C103.492 109.916 102.976 110.182 102.467 110.482L103.43 112.112L104.393 113.741C104.776 113.515 105.155 113.321 105.527 113.159L104.771 111.424ZM103.43 112.112L102.467 110.482L101.798 110.878L102.761 112.507L103.723 114.137L104.393 113.741L103.43 112.112ZM102.761 112.507L101.798 110.878L101.128 111.273L102.091 112.903L103.054 114.532L103.723 114.137L102.761 112.507ZM102.091 112.903L101.128 111.273C100.973 111.365 100.872 111.378 100.788 111.374L100.701 113.265L100.614 115.156C101.491 115.196 102.316 114.968 103.054 114.532L102.091 112.903ZM100.701 113.265L100.788 111.374L100.067 111.341L99.98 113.232L99.893 115.123L100.614 115.156L100.701 113.265ZM99.98 113.232L100.067 111.341L99.3463 111.308L99.2593 113.199L99.1722 115.089L99.893 115.123L99.98 113.232ZM99.2593 113.199L99.3463 111.308C99.0227 111.293 98.6879 111.238 98.3393 111.136L97.8108 112.954L97.2823 114.771C97.9039 114.952 98.5349 115.06 99.1722 115.089L99.2593 113.199ZM97.8108 112.954L98.3393 111.136L97.6115 110.925L97.083 112.742L96.5545 114.56L97.2823 114.771L97.8108 112.954ZM97.083 112.742L97.6115 110.925L96.8837 110.713L96.3552 112.531L95.8267 114.348L96.5545 114.56L97.083 112.742ZM96.3552 112.531L96.8837 110.713C96.3267 110.551 95.7698 110.425 95.2134 110.336L94.9152 112.205L94.6169 114.074C95.0102 114.137 95.4134 114.228 95.8267 114.348L96.3552 112.531ZM94.9152 112.205L95.2134 110.336L94.5011 110.223L94.2028 112.092L93.9046 113.961L94.6169 114.074L94.9152 112.205ZM94.2028 112.092L94.5011 110.223L93.7888 110.109L93.4905 111.978L93.1923 113.847L93.9046 113.961L94.2028 112.092ZM93.4905 111.978L93.7888 110.109C92.7988 109.951 91.8715 110.199 91.0769 110.697L92.0826 112.301L93.0884 113.904C93.1651 113.856 93.2032 113.847 93.2052 113.847C93.2069 113.846 93.2044 113.847 93.1991 113.847C93.1939 113.847 93.1911 113.847 93.1923 113.847L93.4905 111.978ZM92.0826 112.301L91.0769 110.697L90.3812 111.134L91.387 112.737L92.3928 114.34L93.0884 113.904L92.0826 112.301ZM91.387 112.737L90.3812 111.134L89.6856 111.57L90.6914 113.173L91.6972 114.777L92.3928 114.34L91.387 112.737ZM90.6914 113.173L89.6856 111.57C89.6523 111.591 89.6304 111.601 89.6199 111.605C89.6098 111.61 89.6095 111.609 89.6179 111.607C89.6265 111.605 89.6389 111.604 89.6531 111.604C89.6671 111.604 89.6767 111.606 89.68 111.606L89.2833 113.457L88.8865 115.308C89.906 115.526 90.8735 115.293 91.6972 114.777L90.6914 113.173ZM89.2833 113.457L89.68 111.606L88.9675 111.454L88.5707 113.304L88.174 115.155L88.8865 115.308L89.2833 113.457ZM88.5707 113.304L88.9675 111.454L88.2549 111.301L87.8582 113.152L87.4615 115.002L88.174 115.155L88.5707 113.304ZM87.8582 113.152L88.2549 111.301C87.7003 111.182 87.144 111.1 86.5865 111.056L86.4374 112.943L86.2884 114.83C86.6752 114.86 87.0661 114.917 87.4615 115.002L87.8582 113.152ZM86.4374 112.943L86.5865 111.056L85.8783 111L85.7292 112.887L85.5801 114.774L86.2884 114.83L86.4374 112.943ZM85.7292 112.887L85.8783 111L85.17 110.944L85.0209 112.831L84.8719 114.718L85.5801 114.774L85.7292 112.887ZM85.0209 112.831L85.17 110.944C84.6049 110.899 84.0386 110.897 83.4721 110.935L83.6013 112.824L83.7306 114.712C84.1125 114.686 84.4927 114.688 84.8719 114.718L85.0209 112.831ZM83.6013 112.824L83.4721 110.935L82.7607 110.984L82.89 112.872L83.0193 114.761L83.7306 114.712L83.6013 112.824ZM82.89 112.872L82.7607 110.984L82.0493 111.033L82.1786 112.921L82.3079 114.809L83.0193 114.761L82.89 112.872ZM82.1786 112.921L82.0493 111.033C81.6727 111.059 81.2982 111.055 80.9248 111.022L80.7598 112.908L80.5948 114.793C81.1647 114.843 81.7361 114.849 82.3079 114.809L82.1786 112.921ZM80.7598 112.908L80.9248 111.022L80.2174 110.96L80.0524 112.846L79.8874 114.732L80.5948 114.793L80.7598 112.908ZM80.0524 112.846L80.2174 110.96L79.5099 110.899L79.3449 112.784L79.1799 114.67L79.8874 114.732L80.0524 112.846ZM79.3449 112.784L79.5099 110.899C79.0054 110.854 78.5 110.823 77.9936 110.806L77.9272 112.697L77.8608 114.589C78.3014 114.604 78.7411 114.631 79.1799 114.67L79.3449 112.784ZM77.9272 112.697L77.9936 110.806L77.2834 110.781L77.217 112.672L77.1506 114.564L77.8608 114.589L77.9272 112.697ZM77.217 112.672L77.2834 110.781L76.5732 110.756L76.5067 112.647L76.4403 114.539L77.1506 114.564L77.217 112.672ZM76.5067 112.647L76.5732 110.756C76.3199 110.747 76.0651 110.695 75.8009 110.592L75.1124 112.355L74.4238 114.118C75.0718 114.371 75.7466 114.515 76.4403 114.539L76.5067 112.647ZM75.1124 112.355L75.8009 110.592L75.1168 110.325L74.4282 112.088L73.7397 113.851L74.4238 114.118L75.1124 112.355ZM74.4282 112.088L75.1168 110.325L74.4327 110.058L73.7441 111.821L73.0555 113.584L73.7397 113.851L74.4282 112.088ZM73.7441 111.821L74.4327 110.058C73.7824 109.804 73.105 109.661 72.4085 109.64L72.3504 111.532L72.2923 113.424C72.5419 113.431 72.7936 113.482 73.0555 113.584L73.7441 111.821ZM72.3504 111.532L72.4085 109.64L71.699 109.618L71.6409 111.51L71.5827 113.402L72.2923 113.424L72.3504 111.532ZM71.6409 111.51L71.699 109.618L70.9895 109.596L70.9313 111.488L70.8732 113.38L71.5827 113.402L71.6409 111.51ZM70.9313 111.488L70.9895 109.596C70.7213 109.588 70.4588 109.538 70.1948 109.442L69.5454 111.219L68.896 112.997C69.5339 113.23 70.1953 113.359 70.8732 113.38L70.9313 111.488ZM69.5454 111.219L70.1948 109.442L69.5184 109.194L68.869 110.972L68.2196 112.75L68.896 112.997L69.5454 111.219ZM68.869 110.972L69.5184 109.194L68.8421 108.947L68.1926 110.725L67.5432 112.503L68.2196 112.75L68.869 110.972ZM68.1926 110.725L68.8421 108.947C67.8584 108.588 66.8687 108.696 65.9898 109.074L66.7375 110.813L67.4853 112.552C67.5761 112.513 67.6129 112.512 67.6047 112.513C67.6009 112.513 67.591 112.513 67.577 112.511C67.563 112.509 67.5511 112.506 67.5432 112.503L68.1926 110.725ZM66.7375 110.813L65.9898 109.074L65.2111 109.409L65.9588 111.148L66.7066 112.887L67.4853 112.552L66.7375 110.813ZM65.9588 111.148L65.2111 109.409L64.4324 109.744L65.1801 111.483L65.9279 113.222L66.7066 112.887L65.9588 111.148ZM65.1801 111.483L64.4324 109.744C64.4455 109.738 64.5823 109.687 64.7894 109.725C64.9968 109.764 65.1068 109.861 65.1184 109.872L63.796 111.226L62.4736 112.581C62.8887 112.986 63.4313 113.323 64.1 113.447C64.7685 113.571 65.3956 113.451 65.9279 113.222L65.1801 111.483ZM63.796 111.226L65.1184 109.872L64.5129 109.281L63.1905 110.635L61.8681 111.989L62.4736 112.581L63.796 111.226ZM63.1905 110.635L64.5129 109.281L63.9075 108.69L62.5851 110.044L61.2627 111.398L61.8681 111.989L63.1905 110.635ZM62.5851 110.044L63.9075 108.69C63.1348 107.935 62.1049 107.519 60.9439 107.696L61.2292 109.567L61.5144 111.438C61.4996 111.441 61.4708 111.443 61.4316 111.44C61.392 111.436 61.352 111.428 61.3155 111.415C61.2392 111.388 61.2235 111.36 61.2627 111.398L62.5851 110.044ZM61.2292 109.567L60.9439 107.696L60.1934 107.81L60.4786 109.682L60.7639 111.553L61.5144 111.438L61.2292 109.567ZM60.4786 109.682L60.1934 107.81L59.4429 107.925L59.7281 109.796L60.0133 111.667L60.7639 111.553L60.4786 109.682ZM59.7281 109.796L59.4429 107.925C59.4279 107.927 59.4239 107.926 59.4291 107.927C59.4346 107.927 59.4447 107.928 59.4573 107.931C59.4698 107.934 59.479 107.938 59.4834 107.94C59.4876 107.942 59.483 107.94 59.4699 107.931L58.3607 109.464L57.2514 110.998C58.0639 111.585 59.0203 111.818 60.0133 111.667L59.7281 109.796ZM58.3607 109.464L59.4699 107.931L58.853 107.484L57.7437 109.018L56.6345 110.552L57.2514 110.998L58.3607 109.464ZM57.7437 109.018L58.853 107.484L58.236 107.038L57.1268 108.572L56.0176 110.105L56.6345 110.552L57.7437 109.018ZM57.1268 108.572L58.236 107.038C57.5656 106.553 56.7992 106.251 55.9612 106.177L55.7956 108.063L55.6299 109.948C55.7444 109.958 55.8655 109.995 56.0176 110.105L57.1268 108.572ZM55.7956 108.063L55.9612 106.177L55.2468 106.115L55.0812 108L54.9156 109.886L55.6299 109.948L55.7956 108.063ZM55.0812 108L55.2468 106.115L54.5325 106.052L54.3669 107.937L54.2013 109.823L54.9156 109.886L55.0812 108ZM54.3669 107.937L54.5325 106.052C54.1264 106.016 53.7264 105.958 53.3322 105.878L52.9558 107.733L52.5794 109.588C53.1142 109.697 53.6549 109.775 54.2013 109.823L54.3669 107.937ZM52.9558 107.733L53.3322 105.878L52.6354 105.737L52.2591 107.592L51.8827 109.447L52.5794 109.588L52.9558 107.733ZM52.2591 107.592L52.6354 105.737L51.9387 105.596L51.5623 107.451L51.186 109.305L51.8827 109.447L52.2591 107.592ZM51.5623 107.451L51.9387 105.596C51.3143 105.469 50.6816 105.424 50.0444 105.46L50.1506 107.349L50.2567 109.239C50.5729 109.221 50.8813 109.244 51.186 109.305L51.5623 107.451ZM50.1506 107.349L50.0444 105.46L49.3294 105.5L49.4356 107.389L49.5417 109.279L50.2567 109.239L50.1506 107.349ZM49.4356 107.389L49.3294 105.5L48.6144 105.54L48.7206 107.43L48.8267 109.319L49.5417 109.279L49.4356 107.389ZM48.7206 107.43L48.6144 105.54C48.0066 105.574 47.4048 105.671 46.8109 105.828L47.2958 107.658L47.7808 109.488C48.1332 109.394 48.4813 109.339 48.8267 109.319L48.7206 107.43ZM47.2958 107.658L46.8109 105.828L46.1011 106.017L46.586 107.846L47.071 109.676L47.7808 109.488L47.2958 107.658ZM46.586 107.846L46.1011 106.017L45.3913 106.205L45.8763 108.034L46.3612 109.864L47.071 109.676L46.586 107.846ZM45.8763 108.034L45.3913 106.205C45.1379 106.272 44.9 106.288 44.666 106.262L44.4567 108.143L44.2474 110.025C44.9598 110.104 45.6683 110.047 46.3612 109.864L45.8763 108.034ZM44.4567 108.143L44.666 106.262L43.9562 106.183L43.7469 108.064L43.5376 109.946L44.2474 110.025L44.4567 108.143ZM43.7469 108.064L43.9562 106.183L43.2464 106.104L43.0371 107.985L42.8278 109.867L43.5376 109.946L43.7469 108.064ZM43.0371 107.985L43.2464 106.104C43.0461 106.082 42.8067 106.013 42.5205 105.858L41.6176 107.521L40.7147 109.185C41.3748 109.543 42.0818 109.784 42.8278 109.867L43.0371 107.985ZM41.6176 107.521L42.5205 105.858L41.8107 105.472L40.9078 107.136L40.0049 108.799L40.7147 109.185L41.6176 107.521ZM40.9078 107.136L41.8107 105.472L41.1009 105.087L40.198 106.751L39.2951 108.414L40.0049 108.799L40.9078 107.136ZM40.198 106.751L41.1009 105.087C40.3047 104.655 39.4068 104.46 38.4667 104.617L38.7785 106.484L39.0903 108.351C39.0965 108.35 39.145 108.333 39.2951 108.414L40.198 106.751ZM38.7785 106.484L38.4667 104.617L37.7569 104.736L38.0687 106.603L38.3805 108.469L39.0903 108.351L38.7785 106.484ZM38.0687 106.603L37.7569 104.736L37.0471 104.854L37.3589 106.721L37.6707 108.588L38.3805 108.469L38.0687 106.603ZM37.3589 106.721L37.0471 104.854C36.6692 104.917 36.2936 104.95 35.9197 104.954L35.9394 106.847L35.959 108.74C36.5314 108.734 37.1023 108.683 37.6707 108.588L37.3589 106.721ZM35.9394 106.847L35.9197 104.954L35.2099 104.962L35.2296 106.854L35.2492 108.747L35.959 108.74L35.9394 106.847ZM35.2296 106.854L35.2099 104.962L34.5001 104.969L34.5198 106.862L34.5394 108.754L35.2492 108.747L35.2296 106.854ZM34.5198 106.862L34.5001 104.969C33.6934 104.977 32.9297 105.194 32.2264 105.56L33.1002 107.238L33.974 108.917C34.2172 108.791 34.3998 108.756 34.5394 108.754L34.5198 106.862ZM33.1002 107.238L32.2264 105.56L31.5167 105.929L32.3905 107.608L33.2643 109.287L33.974 108.917L33.1002 107.238ZM32.3905 107.608L31.5167 105.929L30.8069 106.298L31.6807 107.977L32.5545 109.656L33.2643 109.287L32.3905 107.608ZM31.6807 107.977L30.8069 106.298C30.7784 106.313 30.8016 106.296 30.8648 106.292C30.8937 106.291 30.9211 106.292 30.944 106.297C30.9665 106.3 30.9778 106.305 30.9763 106.305L30.2611 108.057L29.5459 109.809C30.5591 110.223 31.6128 110.146 32.5545 109.656L31.6807 107.977ZM30.2611 108.057L30.9763 106.305L30.2665 106.015L29.5513 107.767L28.8362 109.52L29.5459 109.809L30.2611 108.057ZM29.5513 107.767L30.2665 106.015L29.5567 105.725L28.8416 107.478L28.1264 109.23L28.8362 109.52L29.5513 107.767ZM28.8416 107.478L29.5567 105.725C28.7195 105.384 27.8244 105.311 26.9345 105.548L27.422 107.377L27.9095 109.206C27.9659 109.191 28.0172 109.186 28.1264 109.23L28.8416 107.478ZM27.422 107.377L26.9345 105.548L26.2247 105.738L26.7122 107.566L27.1997 109.395L27.9095 109.206L27.422 107.377ZM26.7122 107.566L26.2247 105.738L25.5149 105.927L26.0024 107.756L26.49 109.584L27.1997 109.395L26.7122 107.566ZM26.0024 107.756L25.5149 105.927C25.1683 106.019 24.8295 106.071 24.4963 106.087L24.5829 107.977L24.6695 109.868C25.2827 109.84 25.8902 109.744 26.49 109.584L26.0024 107.756ZM24.5829 107.977L24.4963 106.087L23.7865 106.119L23.8731 108.01L23.9597 109.901L24.6695 109.868L24.5829 107.977ZM23.8731 108.01L23.7865 106.119L23.0767 106.152L23.1633 108.042L23.2499 109.933L23.9597 109.901L23.8731 108.01ZM23.1633 108.042L23.0767 106.152C22.7182 106.168 22.359 106.152 21.9978 106.103L21.7438 107.979L21.4897 109.854C22.0749 109.934 22.6621 109.96 23.2499 109.933L23.1633 108.042ZM21.7438 107.979L21.9978 106.103L21.288 106.007L21.034 107.883L20.78 109.758L21.4897 109.854L21.7438 107.979ZM21.034 107.883L21.288 106.007L20.5782 105.911L20.3242 107.786L20.0702 109.662L20.78 109.758L21.034 107.883ZM20.3242 107.786L20.5782 105.911C20.0151 105.835 19.4504 105.799 18.8849 105.805L18.9046 107.698L18.9244 109.59C19.3052 109.586 19.6869 109.61 20.0702 109.662L20.3242 107.786ZM18.9046 107.698L18.8849 105.805L18.1751 105.813L18.1949 107.705L18.2146 109.598L18.9244 109.59L18.9046 107.698ZM18.1949 107.705L18.1751 105.813L17.4653 105.82L17.4851 107.713L17.5049 109.605L18.2146 109.598L18.1949 107.705ZM17.4851 107.713L17.4653 105.82C17.129 105.823 16.7897 105.791 16.4451 105.72L16.0655 107.575L15.6859 109.429C16.2878 109.552 16.8948 109.612 17.5049 109.605L17.4851 107.713ZM16.0655 107.575L16.4451 105.72L15.7354 105.575L15.3558 107.429L14.9762 109.284L15.6859 109.429L16.0655 107.575ZM15.3558 107.429L15.7354 105.575L15.0256 105.43L14.646 107.284L14.2664 109.138L14.9762 109.284L15.3558 107.429ZM14.646 107.284L15.0256 105.43C14.6414 105.351 14.2525 105.243 13.8586 105.103L13.2264 106.887L12.5943 108.671C13.1467 108.867 13.7042 109.023 14.2664 109.138L14.646 107.284ZM13.2264 106.887L13.8586 105.103L13.1488 104.852L12.5166 106.636L11.8845 108.42L12.5943 108.671L13.2264 106.887ZM12.5166 106.636L13.1488 104.852L12.439 104.6L11.8069 106.384L11.1747 108.168L11.8845 108.42L12.5166 106.636ZM11.8069 106.384L12.439 104.6C12.215 104.521 12.0896 104.471 12.0347 104.447C12.0001 104.432 12.0402 104.447 12.1118 104.49C12.1436 104.509 12.2425 104.57 12.3578 104.673C12.417 104.726 12.5129 104.819 12.611 104.952C12.7041 105.079 12.8533 105.315 12.9285 105.65L11.0817 106.064L9.2349 106.479C9.37275 107.093 9.76845 107.436 9.83501 107.496C9.96737 107.614 10.0905 107.692 10.1538 107.73C10.2884 107.811 10.4205 107.872 10.5067 107.91C10.6935 107.993 10.9255 108.08 11.1747 108.168L11.8069 106.384ZM11.0817 106.064L12.9285 105.65L12.9132 105.582L11.0664 105.996L9.21955 106.41L9.2349 106.479L11.0817 106.064ZM11.0664 105.996L12.9132 105.582L12.8978 105.513L11.051 105.928L9.20419 106.342L9.21955 106.41L11.0664 105.996ZM11.051 105.928L12.8978 105.513C12.8559 105.326 12.7911 105.179 12.7855 105.165C12.7641 105.115 12.7428 105.069 12.727 105.036C12.6945 104.968 12.6559 104.891 12.6164 104.815C12.5359 104.66 12.4238 104.451 12.2839 104.194L10.6219 105.1L8.95982 106.005C9.09581 106.255 9.19318 106.437 9.25566 106.557C9.2877 106.619 9.30404 106.652 9.30987 106.665C9.31325 106.672 9.30696 106.659 9.29644 106.634C9.29114 106.621 9.28008 106.595 9.26706 106.558C9.2575 106.532 9.22867 106.451 9.20419 106.342L11.051 105.928ZM10.6219 105.1L12.2839 104.194L11.8701 103.435L10.2081 104.34L8.54602 105.246L8.95982 106.005L10.6219 105.1ZM10.2081 104.34L11.8701 103.435L11.4563 102.675L9.79426 103.581L8.13222 104.486L8.54602 105.246L10.2081 104.34ZM9.79426 103.581L11.4563 102.675C11.4249 102.617 11.4494 102.639 11.4547 102.727C11.4573 102.769 11.4544 102.816 11.445 102.862C11.4357 102.908 11.4223 102.943 11.4124 102.963L9.70666 102.143L8.00093 101.323C7.47734 102.411 7.61487 103.537 8.13222 104.486L9.79426 103.581ZM9.70666 102.143L11.4124 102.963L11.7386 102.285L10.0329 101.465L8.32713 100.644L8.00093 101.323L9.70666 102.143ZM10.0329 101.465L11.7386 102.285L12.0648 101.607L10.3591 100.787L8.65333 99.9662L8.32713 100.644L10.0329 101.465ZM10.3591 100.787L12.0648 101.607C12.3658 100.981 12.5659 100.323 12.6511 99.6374L10.7728 99.4039L8.89453 99.1704C8.86296 99.4244 8.78721 99.6878 8.65333 99.9662L10.3591 100.787ZM10.7728 99.4039L12.6511 99.6374L12.7387 98.9329L10.8604 98.6995L8.98209 98.466L8.89453 99.1704L10.7728 99.4039ZM10.8604 98.6995L12.7387 98.9329L12.8262 98.2285L10.9479 97.995L9.06966 97.7616L8.98209 98.466L10.8604 98.6995ZM10.9479 97.995L12.8262 98.2285C12.8749 97.8366 12.9481 97.4465 13.0459 97.0578L11.2104 96.5958L9.37496 96.1337C9.23958 96.6715 9.13769 97.2142 9.06966 97.7616L10.9479 97.995ZM11.2104 96.5958L13.0459 97.0578L13.2208 96.363L11.3854 95.9009L9.54989 95.4388L9.37496 96.1337L11.2104 96.5958ZM11.3854 95.9009L13.2208 96.363L13.3958 95.6681L11.5603 95.2061L9.72481 94.744L9.54989 95.4388L11.3854 95.9009ZM11.5603 95.2061L13.3958 95.6681C13.5201 95.1742 13.6317 94.6787 13.7305 94.1814L11.8741 93.8124L10.0177 93.4434C9.93133 93.8779 9.83371 94.3114 9.72481 94.744L11.5603 95.2061ZM11.8741 93.8124L13.7305 94.1814L13.8694 93.4826L12.013 93.1136L10.1566 92.7446L10.0177 93.4434L11.8741 93.8124ZM12.013 93.1136L13.8694 93.4826L14.0083 92.7838L12.1519 92.4148L10.2955 92.0458L10.1566 92.7446L12.013 93.1136ZM12.1519 92.4148L14.0083 92.7838C14.1827 91.9065 14.062 91.0466 13.7369 90.2519L11.985 90.9684L10.2332 91.685C10.3158 91.887 10.3063 91.9914 10.2955 92.0458L12.1519 92.4148ZM11.985 90.9684L13.7369 90.2519L13.4311 89.5043L11.6792 90.2208L9.92739 90.9374L10.2332 91.685L11.985 90.9684ZM11.6792 90.2208L13.4311 89.5043L13.1253 88.7567L11.3735 89.4733L9.6216 90.1898L9.92739 90.9374L11.6792 90.2208ZM11.3735 89.4733L13.1253 88.7567C13.0427 88.5548 13.0523 88.4505 13.0631 88.3963L11.2067 88.0269L9.35038 87.6575C9.17577 88.5349 9.29647 89.395 9.6216 90.1898L11.3735 89.4733ZM11.2067 88.0269L13.0631 88.3963L13.2021 87.6975L11.3458 87.3281L9.48943 86.9587L9.35038 87.6575L11.2067 88.0269ZM11.3458 87.3281L13.2021 87.6975L13.3412 86.9987L11.4848 86.6293L9.62849 86.2599L9.48943 86.9587L11.3458 87.3281ZM11.4848 86.6293L13.3412 86.9987C13.4539 86.4324 13.5201 85.8603 13.5397 85.2834L11.6481 85.2192L9.7564 85.1549C9.74378 85.5266 9.70119 85.8946 9.62849 86.2599L11.4848 86.6293ZM11.6481 85.2192L13.5397 85.2834L13.5639 84.572L11.6722 84.5078L9.78057 84.4435L9.7564 85.1549L11.6481 85.2192ZM11.6722 84.5078L13.5639 84.572L13.588 83.8606L11.6964 83.7964L9.80474 83.7321L9.78057 84.4435L11.6722 84.5078ZM11.6964 83.7964L13.588 83.8606C13.6165 83.0224 13.4026 82.1223 12.7394 81.3908L11.3372 82.6621L9.93494 83.9334C9.87216 83.8642 9.83301 83.7878 9.81425 83.7286C9.79771 83.6763 9.80688 83.6692 9.80474 83.7321L11.6964 83.7964ZM11.3372 82.6621L12.7394 81.3908L12.356 80.968L10.9538 82.2393L9.55156 83.5106L9.93494 83.9334L11.3372 82.6621ZM10.9538 82.2393L12.356 80.968L11.9727 80.5451L10.5704 81.8164L9.16818 83.0877L9.55156 83.5106L10.9538 82.2393ZM10.5704 81.8164L11.9727 80.5451C12.025 80.6028 12.062 80.6597 12.0868 80.7077C12.111 80.7546 12.1209 80.7877 12.1239 80.7989C12.1267 80.8096 12.1234 80.801 12.1206 80.7678C12.1178 80.7346 12.1159 80.6823 12.1195 80.6078L10.2289 80.5175L8.33829 80.4272C8.29904 81.2491 8.43302 82.2768 9.16818 83.0877L10.5704 81.8164ZM10.2289 80.5175L12.1195 80.6078L12.1613 79.7318L10.2707 79.6415L8.38013 79.5512L8.33829 80.4272L10.2289 80.5175ZM10.2707 79.6415L12.1613 79.7318L12.2031 78.8558L10.3126 78.7655L8.42197 78.6752L8.38013 79.5512L10.2707 79.6415ZM10.3126 78.7655L12.2031 78.8558C12.231 78.2722 12.1252 77.6383 11.7767 77.0504C11.427 76.4606 10.9189 76.0622 10.3855 75.8086L9.57291 77.518L8.76027 79.2275C8.74786 79.2215 8.62358 79.1549 8.52047 78.981C8.41847 78.8089 8.42199 78.6749 8.42197 78.6752L10.3126 78.7655ZM9.57291 77.518L10.3855 75.8086L9.60406 75.4371L8.79142 77.1465L7.97878 78.8559L8.76027 79.2275L9.57291 77.518ZM8.79142 77.1465L9.60406 75.4371L8.82257 75.0656L8.00993 76.775L7.1973 78.4844L7.97878 78.8559L8.79142 77.1465ZM8.00993 76.775L8.82257 75.0656C8.84135 75.0745 9.01577 75.1674 9.14309 75.4145C9.2696 75.66 9.24326 75.8515 9.24119 75.8635L7.3756 75.5441L5.51 75.2247C5.40984 75.8096 5.44017 76.4927 5.77813 77.1486C6.11689 77.8059 6.65752 78.2278 7.1973 78.4844L8.00993 76.775ZM7.3756 75.5441L9.24119 75.8635L9.38835 75.0041L7.52275 74.6847L5.65715 74.3652L5.51 75.2247L7.3756 75.5441ZM7.52275 74.6847L9.38835 75.0041L9.5355 74.1447L7.6699 73.8252L5.8043 73.5058L5.65715 74.3652L7.52275 74.6847ZM7.6699 73.8252L9.5355 74.1447C9.63579 73.5589 9.6018 72.9071 9.31239 72.2761C9.0239 71.6472 8.55456 71.1978 8.0532 70.8904L7.06393 72.5041L6.07467 74.1177C6.07539 74.1182 5.95808 74.0429 5.87158 73.8543C5.78416 73.6637 5.80211 73.5186 5.8043 73.5058L7.6699 73.8252ZM7.06393 72.5041L8.0532 70.8904L7.30008 70.4287L6.31082 72.0424L5.32155 73.656L6.07467 74.1177L7.06393 72.5041ZM6.31082 72.0424L7.30008 70.4287L6.54696 69.967L5.5577 71.5807L4.56843 73.1943L5.32155 73.656L6.31082 72.0424ZM5.5577 71.5807L6.54696 69.967C6.50654 69.9422 6.58815 69.982 6.66755 70.1259C6.75471 70.2838 6.76664 70.4355 6.75968 70.5127L4.87458 70.3427L2.98949 70.1727C2.93586 70.7674 3.03831 71.3842 3.35318 71.9548C3.66027 72.5113 4.10678 72.9113 4.56843 73.1943L5.5577 71.5807ZM4.87458 70.3427L6.75968 70.5127L6.82968 69.7365L4.94458 69.5665L3.05949 69.3965L2.98949 70.1727L4.87458 70.3427ZM4.94458 69.5665L6.82968 69.7365L6.89968 68.9602L5.01458 68.7902L3.12949 68.6202L3.05949 69.3965L4.94458 69.5665ZM5.01458 68.7902L6.89968 68.9602C6.95072 68.3942 6.9784 67.8423 6.98166 67.3049L5.08895 67.2934L3.19624 67.282C3.19367 67.7053 3.17178 68.1512 3.12949 68.6202L5.01458 68.7902ZM5.08895 67.2934L6.98166 67.3049L6.98602 66.5843L5.09331 66.5729L3.2006 66.5614L3.19624 67.282L5.08895 67.2934ZM5.09331 66.5729L6.98602 66.5843L6.99038 65.8638L5.09767 65.8523L3.20496 65.8408L3.2006 66.5614L5.09331 66.5729ZM5.09767 65.8523L6.99038 65.8638C6.9945 65.1832 6.89194 64.5158 6.67996 63.8702L4.88169 64.4607L3.08342 65.0513C3.16523 65.3004 3.20666 65.5607 3.20496 65.8408L5.09767 65.8523ZM4.88169 64.4607L6.67996 63.8702L6.45962 63.1992L4.66135 63.7897L2.86308 64.3802L3.08342 65.0513L4.88169 64.4607ZM4.66135 63.7897L6.45962 63.1992L6.23928 62.5282L4.441 63.1187L2.64273 63.7092L2.86308 64.3802L4.66135 63.7897ZM4.441 63.1187L6.23928 62.5282C6.07953 62.0417 5.90075 61.5509 5.70336 61.0558L3.94519 61.7568L2.18703 62.4577C2.35693 62.8839 2.50869 63.301 2.64273 63.7092L4.441 63.1187ZM3.94519 61.7568L5.70336 61.0558L5.42789 60.3649L3.66973 61.0658L1.91156 61.7668L2.18703 62.4577L3.94519 61.7568ZM3.66973 61.0658L5.42789 60.3649L5.15243 59.674L3.39426 60.3749L1.6361 61.0759L1.91156 61.7668L3.66973 61.0658ZM3.39426 60.3749L5.15243 59.674C5.01183 59.3213 4.90598 58.9622 4.83397 58.5952L2.97666 58.9597L1.11934 59.3243C1.23685 59.923 1.4094 60.5073 1.6361 61.0759L3.39426 60.3749ZM2.97666 58.9597L4.83397 58.5952L4.69183 57.871L2.83452 58.2355L0.977204 58.6L1.11934 59.3243L2.97666 58.9597ZM2.83452 58.2355L4.69183 57.871L4.54969 57.1468L2.69238 57.5113L0.835064 57.8758L0.977204 58.6L2.83452 58.2355ZM2.69238 57.5113L4.54969 57.1468C4.52651 57.0287 4.53298 56.9216 4.58804 56.7827L2.82855 56.0851L1.06907 55.3875C0.753035 56.1845 0.668723 57.0283 0.835064 57.8758L2.69238 57.5113ZM2.82855 56.0851L4.58804 56.7827L4.86636 56.0808L3.10687 55.3832L1.34739 54.6855L1.06907 55.3875L2.82855 56.0851ZM3.10687 55.3832L4.86636 56.0808L5.14468 55.3789L3.38519 54.6812L1.62571 53.9836L1.34739 54.6855L3.10687 55.3832ZM3.38519 54.6812L5.14468 55.3789C5.34155 54.8823 5.5223 54.3911 5.68661 53.9053L3.89366 53.2989L2.10071 52.6924C1.95816 53.1138 1.79993 53.5442 1.62571 53.9836L3.38519 54.6812ZM3.89366 53.2989L5.68661 53.9053L5.91676 53.2249L4.12381 52.6185L2.33085 52.012L2.10071 52.6924L3.89366 53.2989ZM4.12381 52.6185L5.91676 53.2249L6.14691 52.5445L4.35395 51.9381L2.561 51.3316L2.33085 52.012L4.12381 52.6185ZM4.35395 51.9381L6.14691 52.5445C6.40245 51.789 6.46019 51.0062 6.34662 50.2254L4.47358 50.4978L2.60054 50.7702C2.63433 51.0025 2.61231 51.1799 2.561 51.3316L4.35395 51.9381ZM4.47358 50.4978L6.34662 50.2254L6.23611 49.4655L4.36307 49.7379L2.49003 50.0103L2.60054 50.7702L4.47358 50.4978ZM4.36307 49.7379L6.23611 49.4655L6.1256 48.7056L4.25256 48.978L2.37952 49.2504L2.49003 50.0103L4.36307 49.7379ZM4.25256 48.978L6.1256 48.7056C6.08517 48.4276 6.09966 48.1864 6.15408 47.9663L4.3167 47.5119L2.47932 47.0575C2.30086 47.779 2.27259 48.5151 2.37952 49.2504L4.25256 48.978ZM4.3167 47.5119L6.15408 47.9663L6.32874 47.2602L4.49135 46.8057L2.65397 46.3513L2.47932 47.0575L4.3167 47.5119ZM4.49135 46.8057L6.32874 47.2602L6.50339 46.554L4.66601 46.0996L2.82863 45.6451L2.65397 46.3513L4.49135 46.8057ZM4.66601 46.0996L6.50339 46.554C6.6046 46.1448 6.72614 45.7415 6.8681 45.3437L5.08552 44.7074L3.30293 44.0712C3.11843 44.588 2.9603 45.1128 2.82863 45.6451L4.66601 46.0996ZM5.08552 44.7074L6.8681 45.3437L7.11295 44.6578L5.33037 44.0215L3.54778 43.3852L3.30293 44.0712L5.08552 44.7074ZM5.33037 44.0215L7.11295 44.6578L7.3578 43.9718L5.57522 43.3355L3.79263 42.6992L3.54778 43.3852L5.33037 44.0215ZM5.57522 43.3355L7.3578 43.9718C7.35858 43.9697 7.35885 43.9693 7.35892 43.9692C7.35905 43.969 7.36137 43.965 7.36842 43.9569C7.38214 43.9412 7.42438 43.8982 7.52241 43.84L6.556 42.2126L5.58959 40.5851C4.78937 41.0603 4.12925 41.7562 3.79263 42.6992L5.57522 43.3355ZM6.556 42.2126L7.52241 43.84L8.25835 43.403L7.29194 41.7756L6.32552 40.1481L5.58959 40.5851L6.556 42.2126ZM7.29194 41.7756L8.25835 43.403L8.99428 42.966L8.02787 41.3385L7.06146 39.7111L6.32552 40.1481L7.29194 41.7756ZM8.02787 41.3385L8.99428 42.966C9.68401 42.5564 10.2959 42.0202 10.736 41.3236L9.13584 40.3127L7.5357 39.3017C7.47972 39.3903 7.35298 39.538 7.06146 39.7111L8.02787 41.3385ZM9.13584 40.3127L10.736 41.3236L11.108 40.7348L9.50787 39.7238L7.90773 38.7129L7.5357 39.3017L9.13584 40.3127ZM9.50787 39.7238L11.108 40.7348L11.48 40.146L9.8799 39.135L8.27976 38.124L7.90773 38.7129L9.50787 39.7238ZM9.8799 39.135L11.48 40.146C11.8106 39.6228 12.0754 39.0629 12.2764 38.471L10.4843 37.8622L8.69215 37.2533C8.5834 37.5734 8.44526 37.8621 8.27976 38.124L9.8799 39.135ZM10.4843 37.8622L12.2764 38.471L12.5088 37.7871L10.7167 37.1782L8.92452 36.5694L8.69215 37.2533L10.4843 37.8622ZM10.7167 37.1782L12.5088 37.7871L12.7412 37.1031L10.949 36.4942L9.15688 35.8854L8.92452 36.5694L10.7167 37.1782ZM10.949 36.4942L12.7412 37.1031C12.8681 36.7293 13.0196 36.3675 13.1957 36.0171L11.5045 35.1673L9.81327 34.3174C9.55857 34.8243 9.33974 35.3472 9.15688 35.8854L10.949 36.4942ZM11.5045 35.1673L13.1957 36.0171L13.5188 35.3741L11.8276 34.5243L10.1364 33.6744L9.81327 34.3174L11.5045 35.1673ZM11.8276 34.5243L13.5188 35.3741L13.8419 34.7311L12.1507 33.8813L10.4595 33.0314L10.1364 33.6744L11.8276 34.5243ZM12.1507 33.8813L13.8419 34.7311C14.0626 34.2919 14.2819 33.8454 14.4997 33.3916L12.7933 32.5725L11.087 31.7535C10.8788 32.1873 10.6696 32.6132 10.4595 33.0314L12.1507 33.8813ZM12.7933 32.5725L14.4997 33.3916L14.8192 32.7259L13.1129 31.9068L11.4065 31.0878L11.087 31.7535L12.7933 32.5725ZM13.1129 31.9068L14.8192 32.7259L15.1388 32.0602L13.4324 31.2411L11.7261 30.4221L11.4065 31.0878L13.1129 31.9068ZM13.4324 31.2411L15.1388 32.0602C15.131 32.0765 15.1169 32.1007 15.0949 32.128C15.0727 32.1553 15.0485 32.1782 15.0257 32.1955C14.9788 32.2313 14.9674 32.2219 15.0387 32.204L14.5781 30.3681L14.1176 28.5323C13.1146 28.7839 12.2215 29.39 11.7261 30.4221L13.4324 31.2411ZM14.5781 30.3681L15.0387 32.204L15.8649 31.9967L15.4043 30.1609L14.9438 28.325L14.1176 28.5323L14.5781 30.3681ZM15.4043 30.1609L15.8649 31.9967L16.6911 31.7894L16.2305 29.9536L15.77 28.1177L14.9438 28.325L15.4043 30.1609ZM16.2305 29.9536L16.6911 31.7894C17.7102 31.5338 18.6018 30.9108 19.0891 29.8677L17.3743 29.0666L15.6594 28.2654C15.6658 28.2519 15.6785 28.2289 15.6998 28.2019C15.7214 28.1747 15.7457 28.1511 15.7696 28.1325C15.8194 28.0939 15.8356 28.1013 15.77 28.1177L16.2305 29.9536ZM17.3743 29.0666L19.0891 29.8677L19.4067 29.1879L17.6918 28.3868L15.977 27.5857L15.6594 28.2654L17.3743 29.0666ZM17.6918 28.3868L19.4067 29.1879L19.7242 28.5082L18.0094 27.7071L16.2945 26.906L15.977 27.5857L17.6918 28.3868ZM18.0094 27.7071L19.7242 28.5082C19.9036 28.1243 20.104 27.7557 20.3254 27.402L18.7212 26.3976L17.1169 25.3933C16.8127 25.8791 16.5386 26.3835 16.2945 26.906L18.0094 27.7071ZM18.7212 26.3976L20.3254 27.402L20.7197 26.7723L19.1154 25.7679L17.5111 24.7635L17.1169 25.3933L18.7212 26.3976ZM19.1154 25.7679L20.7197 26.7723L21.1139 26.1426L19.5096 25.1382L17.9053 24.1338L17.5111 24.7635L19.1154 25.7679ZM19.5096 25.1382L21.1139 26.1426C21.2067 25.9944 21.3122 25.8979 21.4479 25.8244L20.5457 24.1605L19.6435 22.4966C18.9234 22.887 18.3382 23.4424 17.9053 24.1338L19.5096 25.1382ZM20.5457 24.1605L21.4479 25.8244L22.0897 25.4764L21.1876 23.8125L20.2854 22.1486L19.6435 22.4966L20.5457 24.1605ZM21.1876 23.8125L22.0897 25.4764L22.7316 25.1284L21.8294 23.4644L20.9273 21.8005L20.2854 22.1486L21.1876 23.8125ZM21.8294 23.4644L22.7316 25.1284C23.066 24.947 23.4195 24.7916 23.7935 24.6626L23.1766 22.8733L22.5597 21.0839C21.9933 21.2792 21.4486 21.5179 20.9273 21.8005L21.8294 23.4644ZM23.1766 22.8733L23.7935 24.6626L24.4989 24.4195L23.882 22.6301L23.265 20.8407L22.5597 21.0839L23.1766 22.8733ZM23.882 22.6301L24.4989 24.4195L25.2042 24.1763L24.5873 22.3869L23.9704 20.5975L23.265 20.8407L23.882 22.6301ZM24.5873 22.3869L25.2042 24.1763C25.758 23.9854 26.2887 23.7591 26.7945 23.4959L25.9208 21.8169L25.0471 20.1378C24.7154 20.3105 24.3571 20.4642 23.9704 20.5975L24.5873 22.3869ZM25.9208 21.8169L26.7945 23.4959L27.4226 23.169L26.5489 21.49L25.6752 19.811L25.0471 20.1378L25.9208 21.8169ZM26.5489 21.49L27.4226 23.169L28.0507 22.8422L27.177 21.1632L26.3033 19.4841L25.6752 19.811L26.5489 21.49ZM27.177 21.1632L28.0507 22.8422C28.6696 22.5202 29.2175 22.0966 29.6904 21.5826L28.2973 20.3012L26.9043 19.0198C26.7208 19.2193 26.5219 19.3704 26.3033 19.4841L27.177 21.1632ZM28.2973 20.3012L29.6904 21.5826L30.1826 21.0475L28.7896 19.7661L27.3965 18.4847L26.9043 19.0198L28.2973 20.3012ZM28.7896 19.7661L30.1826 21.0475L30.6748 20.5124L29.2818 19.231L27.8888 17.9496L27.3965 18.4847L28.7896 19.7661ZM29.2818 19.231L30.6748 20.5124C30.9154 20.2508 31.1735 20.0235 31.4494 19.8276L30.3534 18.2844L29.2575 16.7412C28.7609 17.0939 28.3045 17.4977 27.8888 17.9496L29.2818 19.231ZM30.3534 18.2844L31.4494 19.8276L32.0288 19.4161L30.9329 17.8729L29.8369 16.3297L29.2575 16.7412L30.3534 18.2844ZM30.9329 17.8729L32.0288 19.4161L32.6082 19.0046L31.5123 17.4614L30.4164 15.9182L29.8369 16.3297L30.9329 17.8729ZM31.5123 17.4614L32.6082 19.0046C32.883 18.8094 33.1751 18.6463 33.4865 18.5141L32.747 16.7718L32.0075 15.0295C31.4452 15.2681 30.9141 15.5647 30.4164 15.9182L31.5123 17.4614ZM32.747 16.7718L33.4865 18.5141L34.1417 18.236L33.4022 16.4937L32.6627 14.7514L32.0075 15.0295L32.747 16.7718ZM33.4022 16.4937L34.1417 18.236L34.797 17.9579L34.0575 16.2156L33.318 14.4733L32.6627 14.7514L33.4022 16.4937ZM34.0575 16.2156L34.797 17.9579C35.4901 17.6637 36.0952 17.2302 36.6089 16.684L35.23 15.3873L33.8512 14.0907C33.675 14.278 33.4985 14.3966 33.318 14.4733L34.0575 16.2156ZM35.23 15.3873L36.6089 16.684L37.1262 16.1338L35.7474 14.8372L34.3685 13.5406L33.8512 14.0907L35.23 15.3873ZM35.7474 14.8372L37.1262 16.1338L37.6435 15.5837L36.2647 14.2871L34.8858 12.9904L34.3685 13.5406L35.7474 14.8372ZM36.2647 14.2871L37.6435 15.5837C37.8025 15.4147 37.9598 15.3145 38.1231 15.2526L37.4518 13.4829L36.7805 11.7132C36.0507 11.99 35.4167 12.4259 34.8858 12.9904L36.2647 14.2871ZM37.4518 13.4829L38.1231 15.2526L38.7929 14.9985L38.1216 13.2288L37.4503 11.4591L36.7805 11.7132L37.4518 13.4829ZM38.1216 13.2288L38.7929 14.9985L39.4626 14.7445L38.7914 12.9748L38.1201 11.205L37.4503 11.4591L38.1216 13.2288ZM38.7914 12.9748L39.4626 14.7445C40.0277 14.5301 40.5676 14.2607 41.081 13.9378L40.0731 12.3357L39.0652 10.7337C38.7626 10.924 38.4481 11.0807 38.1201 11.205L38.7914 12.9748ZM40.0731 12.3357L41.081 13.9378L41.6929 13.5528L40.685 11.9508L39.6771 10.3487L39.0652 10.7337L40.0731 12.3357ZM40.685 11.9508L41.6929 13.5528L42.3048 13.1679L41.2969 11.5658L40.289 9.96373L39.6771 10.3487L40.685 11.9508ZM41.2969 11.5658L42.3048 13.1679C42.3083 13.1657 42.3087 13.1658 42.3071 13.1664C42.3055 13.167 42.3061 13.1665 42.311 13.1656C42.3194 13.164 42.3627 13.1571 42.4545 13.1701L42.7208 11.2962L42.987 9.42225C42.0655 9.29135 41.1269 9.43657 40.289 9.96373L41.2969 11.5658ZM42.7208 11.2962L42.4545 13.1701L43.2665 13.2855L43.5327 11.4115L43.7989 9.5376L42.987 9.42225L42.7208 11.2962ZM43.5327 11.4115L43.2665 13.2855L44.0784 13.4008L44.3447 11.5269L44.6109 9.65295L43.7989 9.5376L43.5327 11.4115ZM44.3447 11.5269L44.0784 13.4008C44.9658 13.5269 45.8727 13.41 46.7019 12.948L45.7808 11.2945L44.8597 9.64103C44.8567 9.6427 44.8061 9.68068 44.6109 9.65295L44.3447 11.5269ZM45.7808 11.2945L46.7019 12.948L47.326 12.6003L46.4049 10.9468L45.4838 9.29333L44.8597 9.64103L45.7808 11.2945ZM46.4049 10.9468L47.326 12.6003L47.9502 12.2526L47.0291 10.5991L46.108 8.94563L45.4838 9.29333L46.4049 10.9468ZM47.0291 10.5991L47.9502 12.2526C48.5115 11.9399 49.0324 11.5533 49.5146 11.1038L48.2238 9.71942L46.9331 8.33505C46.6544 8.59488 46.3788 8.79474 46.108 8.94563L47.0291 10.5991ZM48.2238 9.71942L49.5146 11.1038L50.0852 10.5718L48.7944 9.18742L47.5037 7.80305L46.9331 8.33505L48.2238 9.71942ZM48.7944 9.18742L50.0852 10.5718L50.6558 10.0398L49.365 8.65542L48.0743 7.27105L47.5037 7.80305L48.7944 9.18742ZM49.365 8.65542L50.6558 10.0398C50.6772 10.0199 50.6917 10.0095 50.6986 10.0049C50.7054 10.0005 50.707 10.0002 50.7041 10.0014C50.7011 10.0027 50.6979 10.0035 50.6964 10.0039C50.695 10.0041 50.6997 10.003 50.7124 10.0028L50.679 8.11032L50.6457 6.21787C49.6579 6.23528 48.7782 6.61473 48.0743 7.27105L49.365 8.65542ZM50.679 8.11032L50.7124 10.0028L51.4557 9.98967L51.4224 8.09722L51.3891 6.20477L50.6457 6.21787L50.679 8.11032ZM51.4224 8.09722L51.4557 9.98967L52.1991 9.97658L52.1658 8.08412L52.1325 6.19167L51.3891 6.20477L51.4224 8.09722ZM52.1658 8.08412L52.1991 9.97658C52.8322 9.96542 53.4535 9.88587 54.0592 9.7339L53.5985 7.89806L53.1379 6.06222C52.8244 6.14087 52.4906 6.18536 52.1325 6.19167L52.1658 8.08412ZM53.5985 7.89806L54.0592 9.7339L54.7485 9.56093L54.2879 7.72509L53.8272 5.88926L53.1379 6.06222L53.5985 7.89806ZM54.2879 7.72509L54.7485 9.56093L55.4379 9.38796L54.9772 7.55213L54.5166 5.71629L53.8272 5.88926L54.2879 7.72509ZM54.9772 7.55213L55.4379 9.38796C56.0058 9.24547 56.5593 9.05339 57.0975 8.81299L56.3255 7.08482L55.5536 5.35665C55.2132 5.5087 54.8678 5.62817 54.5166 5.71629L54.9772 7.55213ZM56.3255 7.08482L57.0975 8.81299L57.7564 8.51864L56.9845 6.79047L56.2125 5.0623L55.5536 5.35665L56.3255 7.08482ZM56.9845 6.79047L57.7564 8.51864L58.4154 8.22429L57.6434 6.49612L56.8715 4.76795L56.2125 5.0623L56.9845 6.79047ZM57.6434 6.49612L58.4154 8.22429C58.6984 8.09788 58.9871 8.01399 59.2856 7.96994L59.0094 6.09747L58.7331 4.22499C58.089 4.32002 57.4671 4.50191 56.8715 4.76795L57.6434 6.49612ZM59.0094 6.09747L59.2856 7.96994L59.9926 7.86563L59.7164 5.99315L59.4401 4.12068L58.7331 4.22499L59.0094 6.09747ZM59.7164 5.99315L59.9926 7.86563L60.6996 7.76131L60.4234 5.88884L60.1471 4.01637L59.4401 4.12068L59.7164 5.99315ZM60.4234 5.88884L60.6996 7.76131C61.2614 7.67843 61.8147 7.55534 62.3589 7.39222L61.8154 5.57919L61.2719 3.76615C60.9027 3.87683 60.528 3.96017 60.1471 4.01637L60.4234 5.88884ZM61.8154 5.57919L62.3589 7.39222L63.0439 7.18688L62.5004 5.37384L61.9569 3.56081L61.2719 3.76615L61.8154 5.57919ZM62.5004 5.37384L63.0439 7.18688L63.7289 6.98153L63.1854 5.1685L62.6419 3.35547L61.9569 3.56081L62.5004 5.37384ZM63.1854 5.1685L63.7289 6.98153C64.2017 6.8398 64.6744 6.69121 65.1469 6.5358L64.5555 4.73781L63.9642 2.93982C63.5231 3.08487 63.0824 3.22341 62.6419 3.35547L63.1854 5.1685ZM64.5555 4.73781L65.1469 6.5358L65.832 6.31045L65.2407 4.51246L64.6493 2.71447L63.9642 2.93982L64.5555 4.73781ZM65.2407 4.51246L65.832 6.31045L66.5172 6.0851L65.9258 4.28711L65.3345 2.48912L64.6493 2.71447L65.2407 4.51246ZM65.9258 4.28711L66.5172 6.0851C66.7401 6.0118 66.9684 5.98222 67.2159 5.99856L67.3406 4.10993L67.4653 2.2213C66.74 2.17342 66.0252 2.26196 65.3345 2.48912L65.9258 4.28711ZM67.3406 4.10993L67.2159 5.99856L67.9455 6.04673L68.0702 4.1581L68.1949 2.26946L67.4653 2.2213L67.3406 4.10993ZM68.0702 4.1581L67.9455 6.04673L68.6752 6.0949L68.7998 4.20626L68.9245 2.31763L68.1949 2.26946L68.0702 4.1581ZM68.7998 4.20626L68.6752 6.0949C69.419 6.144 70.1501 6.0426 70.8523 5.79219L70.2166 4.0094L69.5809 2.2266C69.3669 2.3029 69.1535 2.33274 68.9245 2.31763L68.7998 4.20626ZM70.2166 4.0094L70.8523 5.79219L71.5395 5.54717L70.9038 3.76437L70.2681 1.98158L69.5809 2.2266L70.2166 4.0094ZM70.9038 3.76437L71.5395 5.54717L72.2266 5.30214L71.5909 3.51934L70.9552 1.73655L70.2681 1.98158L70.9038 3.76437ZM71.5909 3.51934L72.2266 5.30214C72.3959 5.2418 72.5605 5.22415 72.7469 5.24994L73.0063 3.37505L73.2656 1.50017C72.4812 1.39164 71.7022 1.47018 70.9552 1.73655L71.5909 3.51934ZM73.0063 3.37505L72.7469 5.24994L73.475 5.35068L73.7344 3.47579L73.9938 1.60091L73.2656 1.50017L73.0063 3.37505ZM73.7344 3.47579L73.475 5.35068L74.2032 5.45142L74.4626 3.57653L74.722 1.70164L73.9938 1.60091L73.7344 3.47579ZM74.4626 3.57653L74.2032 5.45142C74.8971 5.54741 75.5914 5.52721 76.2763 5.38553L75.8929 3.53203L75.5094 1.67853C75.2582 1.7305 74.999 1.73997 74.722 1.70164L74.4626 3.57653ZM75.8929 3.53203L76.2763 5.38553L76.9784 5.24028L76.595 3.38678L76.2115 1.53328L75.5094 1.67853L75.8929 3.53203ZM76.595 3.38678L76.9784 5.24028L77.6805 5.09504L77.2971 3.24154L76.9137 1.38804L76.2115 1.53328L76.595 3.38678ZM77.2971 3.24154L77.6805 5.09504C77.8237 5.06543 77.9805 5.06681 78.1801 5.12671L78.7241 3.31383L79.2681 1.50095C78.5012 1.2708 77.7067 1.22399 76.9137 1.38804L77.2971 3.24154ZM78.7241 3.31383L78.1801 5.12671L78.905 5.34425L79.4491 3.53137L79.9931 1.71849L79.2681 1.50095L78.7241 3.31383ZM79.4491 3.53137L78.905 5.34425L79.63 5.56178L80.174 3.7489L80.718 1.93602L79.9931 1.71849L79.4491 3.53137ZM80.174 3.7489L79.63 5.56178C80.3332 5.77282 81.0577 5.8527 81.7897 5.78059L81.6041 3.89696L81.4186 2.01334C81.2102 2.03386 80.9813 2.01503 80.718 1.93602L80.174 3.7489ZM81.6041 3.89696L81.7897 5.78059L82.4949 5.71111L82.3093 3.82749L82.1238 1.94386L81.4186 2.01334L81.6041 3.89696ZM82.3093 3.82749L82.4949 5.71111L83.2001 5.64163L83.0146 3.75801L82.829 1.87438L82.1238 1.94386L82.3093 3.82749ZM83.0146 3.75801L83.2001 5.64163C83.8708 5.57556 84.5233 5.40424 85.1532 5.14202L84.4257 3.39464L83.6983 1.64727C83.3869 1.77689 83.0986 1.84782 82.829 1.87438L83.0146 3.75801ZM84.4257 3.39464L85.1532 5.14202L85.8591 4.84813L85.1317 3.10076L84.4043 1.35338L83.6983 1.64727L84.4257 3.39464ZM85.1317 3.10076L85.8591 4.84813L86.5651 4.55424L85.8376 2.80687L85.1102 1.05949L84.4043 1.35338L85.1317 3.10076ZM85.8376 2.80687L86.5651 4.55424C86.5868 4.54519 86.5998 4.54184 86.6048 4.54074C86.6094 4.53969 86.6095 4.54006 86.6064 4.54016C86.6032 4.54026 86.6017 4.53993 86.6034 4.5402C86.6053 4.54051 86.6145 4.5421 86.6317 4.54811L87.2547 2.76082L87.8776 0.973527C86.9564 0.652443 86.0034 0.687659 85.1102 1.05949L85.8376 2.80687ZM87.2547 2.76082L86.6317 4.54811L87.3428 4.79595L87.9658 3.00866L88.5887 1.22137L87.8776 0.973527L87.2547 2.76082ZM87.9658 3.00866L87.3428 4.79595L88.0539 5.04379L88.6768 3.2565L89.2998 1.46921L88.5887 1.22137L87.9658 3.00866ZM88.6768 3.2565L88.0539 5.04379C88.5813 5.22762 89.1107 5.38568 89.6421 5.51747L90.0977 3.68038L90.5533 1.84329C90.1383 1.74036 89.7205 1.61584 89.2998 1.46921L88.6768 3.2565ZM90.0977 3.68038L89.6421 5.51747L90.3518 5.6935L90.8075 3.85641L91.2631 2.01933L90.5533 1.84329L90.0977 3.68038ZM90.8075 3.85641L90.3518 5.6935L91.0616 5.86954L91.5173 4.03245L91.9729 2.19536L91.2631 2.01933L90.8075 3.85641ZM91.5173 4.03245L91.0616 5.86954C91.8305 6.06022 92.6132 6.06252 93.3833 5.8747L92.9349 4.03585L92.4864 2.197C92.3127 2.23936 92.1504 2.23939 91.9729 2.19536L91.5173 4.03245ZM92.9349 4.03585L93.3833 5.8747L94.0912 5.70206L93.6427 3.86321L93.1943 2.02437L92.4864 2.197L92.9349 4.03585ZM93.6427 3.86321L94.0912 5.70206L94.799 5.52942L94.3506 3.69058L93.9021 1.85173L93.1943 2.02437L93.6427 3.86321ZM94.3506 3.69058L94.799 5.52942C95.3129 5.4041 95.8317 5.25893 96.3553 5.09435L95.7877 3.28871L95.2201 1.48307C94.7713 1.62413 94.332 1.74688 93.9021 1.85173L94.3506 3.69058ZM95.7877 3.28871L96.3553 5.09435L97.0845 4.86511L96.5169 3.05947L95.9493 1.25383L95.2201 1.48307L95.7877 3.28871ZM96.5169 3.05947L97.0845 4.86511L97.8138 4.63587L97.2462 2.83024L96.6786 1.0246L95.9493 1.25383L96.5169 3.05947ZM97.2462 2.83024L97.8138 4.63587C97.8317 4.63024 97.8397 4.62937 97.839 4.62946C97.8388 4.62948 97.8372 4.62967 97.8343 4.62974C97.8313 4.62982 97.8278 4.62976 97.8239 4.62947C97.8201 4.62918 97.8165 4.62871 97.8135 4.62819C97.8105 4.62766 97.8087 4.62719 97.8083 4.62707C97.8071 4.62675 97.8143 4.62857 97.8304 4.63643L98.6607 2.93554L99.4911 1.23465C98.5976 0.798498 97.6257 0.726881 96.6786 1.0246L97.2462 2.83024ZM98.6607 2.93554L97.8304 4.63643L98.5157 4.97097L99.346 3.27008L100.176 1.56918L99.4911 1.23465L98.6607 2.93554ZM99.346 3.27008L98.5157 4.97097L99.201 5.30551L100.031 3.60461L100.862 1.90372L100.176 1.56918L99.346 3.27008ZM100.031 3.60461L99.201 5.30551C99.9341 5.6634 100.727 5.83478 101.552 5.78448L101.437 3.89525L101.322 2.00601C101.186 2.01425 101.042 1.99187 100.862 1.90372L100.031 3.60461ZM101.437 3.89525L101.552 5.78448L102.272 5.74058L102.157 3.85135L102.042 1.96211L101.322 2.00601L101.437 3.89525ZM102.157 3.85135L102.272 5.74058L102.992 5.69668L102.877 3.80744L102.762 1.91821L102.042 1.96211L102.157 3.85135ZM102.877 3.80744L102.992 5.69668C103.433 5.6698 103.874 5.65673 104.314 5.65742L104.317 3.76468L104.32 1.87194C103.8 1.87112 103.281 1.88655 102.762 1.91821L102.877 3.80744ZM104.317 3.76468L104.314 5.65742L105.033 5.65857L105.036 3.76582L105.039 1.87308L104.32 1.87194L104.317 3.76468ZM105.036 3.76582L105.033 5.65857L105.753 5.65971L105.756 3.76697L105.759 1.87422L105.039 1.87308L105.036 3.76582ZM105.756 3.76697L105.753 5.65971C106.091 5.66024 106.421 5.69825 106.746 5.77347L107.173 3.92951L107.6 2.08555C106.995 1.94557 106.381 1.87521 105.759 1.87422L105.756 3.76697ZM107.173 3.92951L106.746 5.77347L107.443 5.93488L107.87 4.09091L108.297 2.24695L107.6 2.08555L107.173 3.92951ZM107.87 4.09091L107.443 5.93488L108.14 6.09628L108.567 4.25232L108.994 2.40835L108.297 2.24695L107.87 4.09091ZM108.567 4.25232L108.14 6.09628C108.294 6.132 108.482 6.21314 108.707 6.39389L109.892 4.91836L111.078 3.44282C110.465 2.95072 109.769 2.58784 108.994 2.40835L108.567 4.25232ZM109.892 4.91836L108.707 6.39389L109.335 6.89853L110.52 5.42299L111.706 3.94746L111.078 3.44282L109.892 4.91836ZM110.52 5.42299L109.335 6.89853L109.963 7.40317L111.149 5.92763L112.334 4.45209L111.706 3.94746L110.52 5.42299ZM111.149 5.92763L109.963 7.40317C110.415 7.7659 110.966 8.02755 111.599 8.10147C112.225 8.17442 112.808 8.05048 113.313 7.8354L112.572 6.09374L111.831 4.35208C111.806 4.36269 111.887 4.3239 112.038 4.34148C112.197 4.36003 112.301 4.42579 112.334 4.45209L111.149 5.92763ZM112.572 6.09374L113.313 7.8354L114.109 7.49688L113.368 5.75521L112.627 4.01355L111.831 4.35208L112.572 6.09374ZM113.368 5.75521L114.109 7.49688L114.905 7.15835L114.164 5.41669L113.423 3.67502L112.627 4.01355L113.368 5.75521ZM114.164 5.41669L114.905 7.15835C114.937 7.14479 114.86 7.18352 114.711 7.16738C114.551 7.15008 114.44 7.0842 114.397 7.04974L115.576 5.56941L116.755 4.08909C116.301 3.72712 115.749 3.47203 115.118 3.40383C114.498 3.33678 113.921 3.4629 113.423 3.67502L114.164 5.41669ZM115.576 5.56941L114.397 7.04974L115.013 7.541L116.193 6.06067L117.372 4.58034L116.755 4.08909L115.576 5.56941ZM116.193 6.06067L115.013 7.541L115.63 8.03225L116.809 6.55192L117.989 5.0716L117.372 4.58034L116.193 6.06067ZM116.809 6.55192L115.63 8.03225C116.433 8.67242 117.408 8.95572 118.442 8.81529L118.187 6.93975L117.933 5.06422C117.922 5.06566 117.923 5.06458 117.933 5.06523C117.944 5.06589 117.959 5.06802 117.975 5.07252C117.991 5.07699 118.001 5.08199 118.006 5.08437C118.01 5.08656 118.004 5.08402 117.989 5.0716L116.809 6.55192ZM118.187 6.93975L118.442 8.81529L119.204 8.71187L118.949 6.83633L118.695 4.9608L117.933 5.06422L118.187 6.93975ZM118.949 6.83633L119.204 8.71187L119.966 8.60845L119.711 6.73291L119.456 4.85737L118.695 4.9608L118.949 6.83633ZM119.711 6.73291L119.966 8.60845C119.942 8.6116 119.899 8.61443 119.843 8.60728C119.785 8.60001 119.726 8.58412 119.671 8.56071C119.559 8.51238 119.526 8.45981 119.557 8.49649L121.019 7.29539L122.482 6.0943C121.761 5.21586 120.703 4.68807 119.456 4.85737L119.711 6.73291ZM121.019 7.29539L119.557 8.49649L120.103 9.16239L121.566 7.9613L123.029 6.76021L122.482 6.0943L121.019 7.29539ZM121.566 7.9613L120.103 9.16239L120.65 9.8283L122.113 8.6272L123.576 7.42611L123.029 6.76021L121.566 7.9613ZM122.113 8.6272L120.65 9.8283C121.216 10.5175 121.961 11.0713 122.899 11.2985L123.344 9.45889L123.79 7.61928C123.789 7.61914 123.788 7.61872 123.783 7.6169C123.779 7.61501 123.769 7.61016 123.754 7.59951C123.722 7.57805 123.66 7.52874 123.576 7.42611L122.113 8.6272ZM123.344 9.45889L122.899 11.2985L123.584 11.4643L124.029 9.62466L124.475 7.78506L123.79 7.61928L123.344 9.45889ZM124.029 9.62466L123.584 11.4643L124.269 11.63L124.714 9.79044L125.159 7.95083L124.475 7.78506L124.029 9.62466ZM124.714 9.79044L124.269 11.63C124.81 11.761 125.362 11.8553 125.924 11.9137L126.12 10.0311L126.315 8.14845C125.916 8.10703 125.531 8.04088 125.159 7.95083L124.714 9.79044ZM126.12 10.0311L125.924 11.9137L126.645 11.9886L126.841 10.1059L127.036 8.22331L126.315 8.14845L126.12 10.0311ZM126.841 10.1059L126.645 11.9886L127.366 12.0634L127.562 10.1808L127.757 8.29817L127.036 8.22331L126.841 10.1059ZM127.562 10.1808L127.366 12.0634C127.607 12.0884 127.82 12.1544 128.019 12.2609L128.911 10.5919L129.804 8.92299C129.165 8.58106 128.478 8.37299 127.757 8.29817L127.562 10.1808ZM128.911 10.5919L128.019 12.2609L128.647 12.5971L129.54 10.9282L130.433 9.25925L129.804 8.92299L128.911 10.5919ZM129.54 10.9282L128.647 12.5971L129.276 12.9334L130.169 11.2644L131.061 9.59551L130.433 9.25925L129.54 10.9282ZM130.169 11.2644L129.276 12.9334C129.923 13.2799 130.621 13.4853 131.351 13.5558L131.533 11.6718L131.715 9.78781C131.464 9.76355 131.252 9.69738 131.061 9.59551L130.169 11.2644ZM131.533 11.6718L131.351 13.5558L132.087 13.6268L132.269 11.7429L132.451 9.85889L131.715 9.78781L131.533 11.6718ZM132.269 11.7429L132.087 13.6268L132.823 13.6979L133.005 11.8139L133.187 9.92997L132.451 9.85889L132.269 11.7429ZM133.005 11.8139L132.823 13.6979C133.251 13.7393 133.673 13.8014 134.089 13.8842L134.458 12.0279L134.828 10.1716C134.287 10.0639 133.74 9.98338 133.187 9.92997L133.005 11.8139ZM134.458 12.0279L134.089 13.8842L134.806 14.0271L135.176 12.1708L135.546 10.3144L134.828 10.1716L134.458 12.0279ZM135.176 12.1708L134.806 14.0271L135.524 14.1699L135.894 12.3136L136.263 10.4573L135.546 10.3144L135.176 12.1708ZM135.894 12.3136L135.524 14.1699C135.848 14.2344 136.148 14.3355 136.429 14.472L137.256 12.7694L138.082 11.0667C137.505 10.7861 136.897 10.5834 136.263 10.4573L135.894 12.3136ZM137.256 12.7694L136.429 14.472L137.073 14.7849L137.9 13.0822L138.727 11.3796L138.082 11.0667L137.256 12.7694ZM137.9 13.0822L137.073 14.7849L137.718 15.0977L138.544 13.3951L139.371 11.6925L138.727 11.3796L137.9 13.0822ZM138.544 13.3951L137.718 15.0977C138.033 15.2508 138.333 15.4354 138.619 15.6531L139.766 14.1473L140.912 12.6415C140.429 12.2735 139.915 11.9566 139.371 11.6925L138.544 13.3951ZM139.766 14.1473L138.619 15.6531L139.196 16.0925L140.343 14.5867L141.489 13.0808L140.912 12.6415L139.766 14.1473ZM140.343 14.5867L139.196 16.0925L139.773 16.5318L140.919 15.026L142.066 13.5202L141.489 13.0808L140.343 14.5867ZM140.919 15.026L139.773 16.5318C140.028 16.7261 140.269 16.9612 140.496 17.2443L141.974 16.0615L143.451 14.8788C143.042 14.3669 142.58 13.9117 142.066 13.5202L140.919 15.026ZM141.974 16.0615L140.496 17.2443L140.973 17.8405L142.451 16.6577L143.928 15.475L143.451 14.8788L141.974 16.0615ZM142.451 16.6577L140.973 17.8405L141.45 18.4366L142.928 17.2539L144.406 16.0711L143.928 15.475L142.451 16.6577ZM142.928 17.2539L141.45 18.4366C142.058 19.1965 142.882 19.6815 143.843 19.843L144.157 17.9764L144.47 16.1098C144.449 16.1063 144.438 16.1026 144.434 16.1013C144.431 16.1 144.431 16.0998 144.433 16.101C144.435 16.1023 144.435 16.1025 144.432 16.0997C144.428 16.0968 144.419 16.0883 144.406 16.0711L142.928 17.2539ZM144.157 17.9764L143.843 19.843L144.594 19.9693L144.908 18.1027L145.222 16.2361L144.47 16.1098L144.157 17.9764ZM144.908 18.1027L144.594 19.9693L145.346 20.0956L145.66 18.229L145.973 16.3625L145.222 16.2361L144.908 18.1027ZM145.66 18.229L145.346 20.0956C145.601 20.1384 145.793 20.2195 145.949 20.3243L147.003 18.7521L148.057 17.1799C147.424 16.7557 146.721 16.488 145.973 16.3625L145.66 18.229ZM147.003 18.7521L145.949 20.3243L146.541 20.7211L147.595 19.1489L148.649 17.5767L148.057 17.1799L147.003 18.7521ZM147.595 19.1489L146.541 20.7211L147.133 21.1179L148.187 19.5457L149.241 17.9735L148.649 17.5767L147.595 19.1489ZM148.187 19.5457L147.133 21.1179C147.426 21.3142 147.7 21.5385 147.955 21.7925L149.29 20.4502L150.624 19.1079C150.199 18.6849 149.737 18.3062 149.241 17.9735L148.187 19.5457ZM149.29 20.4502L147.955 21.7925L148.466 22.3003L149.8 20.9579L151.135 19.6156L150.624 19.1079L149.29 20.4502ZM149.8 20.9579L148.466 22.3003L148.977 22.808L150.311 21.4657L151.646 20.1234L151.135 19.6156L149.8 20.9579ZM150.311 21.4657L148.977 22.808C149.302 23.1315 149.621 23.4591 149.932 23.7906L151.311 22.4943L152.691 21.198C152.349 20.8351 152.001 20.4769 151.646 20.1234L150.311 21.4657ZM151.311 22.4943L149.932 23.7906L150.422 24.3114L151.801 23.0151L153.18 21.7188L152.691 21.198L151.311 22.4943ZM151.801 23.0151L150.422 24.3114L150.911 24.8323L152.291 23.536L153.67 22.2397L153.18 21.7188L151.801 23.0151ZM152.291 23.536L150.911 24.8323C151.251 25.1939 151.595 25.5478 151.941 25.894L153.279 24.5546L154.616 23.2153C154.298 22.8978 153.983 22.5726 153.67 22.2397L152.291 23.536ZM153.279 24.5546L151.941 25.894L152.44 26.3917L153.777 25.0524L155.115 23.713L154.616 23.2153L153.279 24.5546ZM153.777 25.0524L152.44 26.3917L152.938 26.8895L154.276 25.5502L155.613 24.2108L155.115 23.713L153.777 25.0524ZM154.276 25.5502L152.938 26.8895C153.48 27.4301 154.123 27.8253 154.835 28.0886L155.492 26.3133L156.148 24.5381C155.903 24.4475 155.736 24.3339 155.613 24.2108L154.276 25.5502ZM155.492 26.3133L154.835 28.0886L155.553 28.3539L156.209 26.5787L156.866 24.8034L156.148 24.5381L155.492 26.3133ZM156.209 26.5787L155.553 28.3539L156.27 28.6193L156.927 26.844L157.583 25.0688L156.866 24.8034L156.209 26.5787ZM156.927 26.844L156.27 28.6193C156.33 28.6414 156.355 28.6601 156.362 28.6658C156.368 28.6708 156.379 28.6804 156.395 28.7078L158.019 27.736L159.644 26.7643C159.161 25.9576 158.446 25.3877 157.583 25.0688L156.927 26.844ZM158.019 27.736L156.395 28.7078L156.77 29.3344L158.394 28.3627L160.019 27.3909L159.644 26.7643L158.019 27.736ZM158.394 28.3627L156.77 29.3344L157.145 29.9611L158.769 28.9893L160.393 28.0175L160.019 27.3909L158.394 28.3627ZM158.769 28.9893L157.145 29.9611C157.555 30.6467 158.112 31.2037 158.792 31.6186L159.778 30.003L160.764 28.3874C160.599 28.2862 160.483 28.1674 160.393 28.0175L158.769 28.9893ZM159.778 30.003L158.792 31.6186L159.426 32.0056L160.412 30.39L161.398 28.7745L160.764 28.3874L159.778 30.003ZM160.412 30.39L159.426 32.0056L160.06 32.3927L161.046 30.7771L162.033 29.1615L161.398 28.7745L160.412 30.39ZM161.046 30.7771L160.06 32.3927C160.376 32.5853 160.662 32.8024 160.92 33.0438L162.212 31.6605L163.504 30.2771C163.054 29.8568 162.562 29.485 162.033 29.1615L161.046 30.7771ZM162.212 31.6605L160.92 33.0438L161.452 33.5401L162.744 32.1568L164.035 30.7734L163.504 30.2771L162.212 31.6605ZM162.744 32.1568L161.452 33.5401L161.983 34.0364L163.275 32.6531L164.567 31.2698L164.035 30.7734L162.744 32.1568ZM163.275 32.6531L161.983 34.0364C162.012 34.0637 162.055 34.1071 162.082 34.2589L163.945 33.9266L165.808 33.5943C165.651 32.7098 165.246 31.9043 164.567 31.2698L163.275 32.6531ZM163.945 33.9266L162.082 34.2589L162.22 35.036L164.084 34.7037L165.947 34.3714L165.808 33.5943L163.945 33.9266ZM164.084 34.7037L162.22 35.036L162.359 35.8132L164.222 35.4809L166.086 35.1486L165.947 34.3714L164.084 34.7037ZM164.222 35.4809L162.359 35.8132C162.552 36.8951 163.177 37.7595 164.112 38.3012L165.061 36.6633L166.009 35.0254C165.995 35.0169 165.995 35.0154 166.005 35.0239C166.015 35.0328 166.03 35.0483 166.045 35.0703C166.061 35.0925 166.072 35.1141 166.079 35.1318C166.086 35.149 166.087 35.1561 166.086 35.1486L164.222 35.4809ZM165.061 36.6633L164.112 38.3012L164.812 38.7064L165.76 37.0685L166.709 35.4306L166.009 35.0254L165.061 36.6633ZM165.76 37.0685L164.812 38.7064L165.511 39.1116L166.46 37.4737L167.409 35.8358L166.709 35.4306L165.76 37.0685ZM166.46 37.4737L165.511 39.1116C165.685 39.2123 165.737 39.2942 165.762 39.3478L167.472 38.5356L169.181 37.7234C168.791 36.9014 168.168 36.2755 167.409 35.8358L166.46 37.4737ZM167.472 38.5356L165.762 39.3478L166.074 40.0045L167.784 39.1923L169.493 38.3801L169.181 37.7234L167.472 38.5356ZM167.784 39.1923L166.074 40.0045L166.386 40.6612L168.096 39.849L169.805 39.0368L169.493 38.3801L167.784 39.1923ZM168.096 39.849L166.386 40.6612C166.54 40.9864 166.663 41.3255 166.752 41.6806L168.587 41.2165L170.422 40.7524C170.272 40.1597 170.067 39.5872 169.805 39.0368L168.096 39.849ZM168.587 41.2165L166.752 41.6806L166.932 42.3914L168.767 41.9273L170.602 41.4632L170.422 40.7524L168.587 41.2165ZM168.767 41.9273L166.932 42.3914L167.112 43.1022L168.947 42.6381L170.782 42.174L170.602 41.4632L168.767 41.9273ZM168.947 42.6381L167.112 43.1022C167.284 43.7806 167.563 44.4166 167.946 45.003L169.531 43.9683L171.116 42.9335C170.96 42.6942 170.85 42.4434 170.782 42.174L168.947 42.6381ZM169.531 43.9683L167.946 45.003L168.351 45.6223L169.935 44.5876L171.52 43.5528L171.116 42.9335L169.531 43.9683ZM169.935 44.5876L168.351 45.6223L168.755 46.2416L170.34 45.2069L171.925 44.1722L171.52 43.5528L169.935 44.5876ZM170.34 45.2069L168.755 46.2416C168.761 46.2505 168.762 46.254 168.761 46.2525C168.761 46.2509 168.76 46.2487 168.76 46.2473C168.759 46.2461 168.76 46.2503 168.761 46.2619C168.761 46.2738 168.76 46.2956 168.755 46.3289L170.627 46.6084L172.499 46.888C172.64 45.9426 172.466 45.0015 171.925 44.1722L170.34 45.2069ZM170.627 46.6084L168.755 46.3289L168.638 47.1111L170.51 47.3907L172.382 47.6702L172.499 46.888L170.627 46.6084ZM170.51 47.3907L168.638 47.1111L168.522 47.8933L170.394 48.1729L172.266 48.4525L172.382 47.6702L170.51 47.3907ZM170.394 48.1729L168.522 47.8933C168.371 48.9026 168.606 49.8773 169.212 50.7053L170.74 49.5873L172.267 48.4692C172.256 48.4546 172.253 48.4482 172.254 48.4502C172.255 48.451 172.256 48.4531 172.257 48.4565C172.258 48.4598 172.259 48.4637 172.26 48.4679C172.261 48.4721 172.262 48.4758 172.262 48.4788C172.263 48.4818 172.263 48.4834 172.263 48.4833C172.263 48.4832 172.263 48.4808 172.263 48.4759C172.263 48.471 172.264 48.4633 172.266 48.4525L170.394 48.1729ZM170.74 49.5873L169.212 50.7053L169.675 51.3375L171.202 50.2194L172.73 49.1014L172.267 48.4692L170.74 49.5873ZM171.202 50.2194L169.675 51.3375L170.138 51.9696L171.665 50.8516L173.192 49.7335L172.73 49.1014L171.202 50.2194ZM171.665 50.8516L170.138 51.9696C170.138 51.9697 170.103 51.9191 170.088 51.8267C170.072 51.7348 170.089 51.6786 170.087 51.6841L171.897 52.2378L173.707 52.7915C174.034 51.7226 173.856 50.6402 173.192 49.7335L171.665 50.8516ZM171.897 52.2378L170.087 51.6841L169.857 52.4381L171.666 52.9918L173.476 53.5456L173.707 52.7915L171.897 52.2378ZM171.666 52.9918L169.857 52.4381L169.626 53.1922L171.436 53.7459L173.246 54.2996L173.476 53.5456L171.666 52.9918ZM171.436 53.7459L169.626 53.1922C169.422 53.8583 169.313 54.5377 169.321 55.2225L171.213 55.2005L173.106 55.1785C173.103 54.9293 173.142 54.6389 173.246 54.2996L171.436 53.7459ZM171.213 55.2005L169.321 55.2225L169.329 55.9231L171.221 55.9011L173.114 55.8791L173.106 55.1785L171.213 55.2005ZM171.221 55.9011L169.329 55.9231L169.337 56.6237L171.23 56.6017L173.122 56.5797L173.114 55.8791L171.221 55.9011ZM171.23 56.6017L169.337 56.6237C169.34 56.8906 169.351 57.1501 169.377 57.3862C169.398 57.5836 169.444 57.9192 169.583 58.2523L171.329 57.5214L173.075 56.7905C173.101 56.8509 173.116 56.8995 173.125 56.9302C173.134 56.9618 173.139 56.9843 173.142 56.9951C173.146 57.0148 173.144 57.0118 173.14 56.9776C173.133 56.9071 173.124 56.7798 173.122 56.5797L171.23 56.6017ZM171.329 57.5214L169.583 58.2523L169.675 58.4714L171.421 57.7406L173.167 57.0097L173.075 56.7905L171.329 57.5214ZM171.421 57.7406L169.675 58.4714L169.767 58.6906L171.513 57.9597L173.259 57.2288L173.167 57.0097L171.421 57.7406ZM171.513 57.9597L169.767 58.6906C169.733 58.6099 169.713 58.5424 169.701 58.4964C169.689 58.4495 169.682 58.4133 169.679 58.3917C169.676 58.3696 169.674 58.3557 169.674 58.352C169.674 58.3481 169.674 58.3507 169.674 58.3608C169.675 58.3822 169.675 58.4225 169.673 58.4855C169.67 58.5477 169.665 58.6249 169.657 58.7189L171.542 58.8852L173.428 59.0515C173.452 58.7758 173.466 58.4987 173.458 58.2405C173.451 58.0319 173.428 57.6323 173.259 57.2288L171.513 57.9597ZM171.542 58.8852L169.657 58.7189L169.595 59.4253L171.48 59.5915L173.365 59.7578L173.428 59.0515L171.542 58.8852Z" fill="#474B4E"/>
</svg>
