<svg width="32" height="32" viewBox="0 0 32 32" fill="none" xmlns="http://www.w3.org/2000/svg">
<path d="M15.2247 24.4535C14.9814 24.2452 14.6178 23.9655 14.1354 23.7012C13.6963 23.4607 13.3453 23.3348 12.7761 23.1334C11.6769 22.7447 11.4993 22.7922 10.9595 22.5251C10.6281 22.3615 10.2002 22.1 9.7499 21.6637L9.6604 21.563C9.6604 21.563 10.0604 23.5152 10.8742 27.4993C12.3789 26.5218 13.8837 25.5443 15.3884 24.5668C15.3338 24.5291 15.2779 24.4913 15.2233 24.4535H15.2247Z" fill="white"/>
<path d="M15.2247 24.4534C14.9814 24.2451 14.6178 23.9654 14.1354 23.7011C13.6963 23.4605 13.3453 23.3347 12.7761 23.1333C11.6769 22.7445 11.4993 22.7921 10.9595 22.525C10.6281 22.3614 10.2002 22.0999 9.7499 21.6636L9.6604 21.5629C9.6604 21.5629 10.9749 17.2529 11.7035 14.5805C12.1818 12.8227 12.7691 10.4468 13.3103 7.52966L13.3802 7.65552C14.2361 8.14637 15.3912 8.70015 16.8189 9.10988C18.4803 9.58675 19.9472 9.70562 21.0282 9.70981L21.1569 9.69443C20.4157 11.4746 19.6801 13.2884 18.9516 15.1343C17.686 18.3381 16.5001 21.486 15.3912 24.5695" fill="#FF7C7D"/>
<path d="M12.9621 26.1429C12.2671 26.5946 11.5707 27.0463 10.8757 27.498C10.6813 26.5457 10.4855 25.5933 10.2911 24.641L10.2729 24.5487C10.6729 24.7725 11.0728 24.9962 11.4742 25.2227C11.9609 25.4968 12.4447 25.7709 12.9272 26.045C12.9384 26.0772 12.9509 26.1094 12.9621 26.1415V26.1429Z" fill="#292A2C"/>
<path d="M13.3802 7.6528C14.2361 8.14365 15.3912 8.69743 16.819 9.10716C18.4803 9.58403 19.9472 9.70289 21.0282 9.70709L21.1555 9.69171C21.4701 8.93656 21.754 8.25972 22.0001 7.67937C20.7136 7.6542 19.0159 7.48779 17.1084 6.92142C15.731 6.51168 14.5773 5.99287 13.6627 5.50342C13.5466 6.17326 13.4292 6.84311 13.3131 7.51156C13.3355 7.55911 13.3579 7.60525 13.3802 7.6528Z" fill="#FFCB4F"/>
<path d="M20.6827 7.60664C19.6773 7.51574 18.4564 7.32136 17.1098 6.92141C15.9868 6.58858 15.0233 6.18444 14.229 5.79428L14.2989 5.61947L14.7898 4.50073C15.3505 4.60841 16.1644 4.78461 17.1349 5.06989C17.7614 5.25448 18.0327 5.35937 18.6382 5.53697C19.227 5.70897 20.0549 5.92433 21.0785 6.10892C20.9638 6.51866 20.8492 6.927 20.7345 7.33674C20.7163 7.42624 20.6995 7.51714 20.6813 7.60664H20.6827Z" fill="#AFDEF7"/>
<path d="M9.66033 21.5616C9.66033 21.5616 10.0603 23.5138 10.8742 27.4979C12.3789 26.5204 13.8836 25.5429 15.3883 24.5654C16.4986 21.4819 17.6831 18.3354 18.9487 15.1302C19.9542 12.5837 20.9722 10.1001 21.9987 7.67803C20.7121 7.65286 19.0144 7.48644 17.107 6.92008C15.7295 6.51034 14.5758 5.99152 13.6612 5.50208C13.0333 9.35614 12.2866 12.4285 11.702 14.5765C10.9735 17.2503 9.65894 21.5602 9.65894 21.5588L9.66033 21.5616Z" stroke="#474B4E" stroke-width="0.559371" stroke-linecap="round" stroke-linejoin="round"/>
<path d="M14.299 5.61947L14.7898 4.50073C15.3506 4.60841 16.1645 4.78461 17.135 5.06989C17.7615 5.25448 18.0328 5.35937 18.6383 5.53697C19.227 5.70897 20.0549 5.92433 21.0785 6.10892C20.9639 6.51866 20.8492 6.927 20.7345 7.33674" stroke="#474B4E" stroke-width="0.559371" stroke-linecap="round" stroke-linejoin="round"/>
<path d="M13.3802 7.65283C14.2361 8.14368 15.3912 8.69746 16.819 9.1072C18.4803 9.58406 19.9473 9.70293 21.0282 9.70712" stroke="#474B4E" stroke-width="0.559371" stroke-linecap="round" stroke-linejoin="round"/>
<path d="M9.75122 21.6636C10.2015 22.0999 10.6294 22.3614 10.9609 22.525C11.5021 22.7921 11.6783 22.7446 12.7774 23.1333C13.3466 23.3347 13.6976 23.4606 14.1367 23.7011C14.6177 23.9654 14.9827 24.2451 15.2261 24.4534" stroke="#474B4E" stroke-width="0.559371" stroke-linecap="round" stroke-linejoin="round"/>
<path d="M10.2729 24.55C10.6729 24.7738 11.0728 24.9975 11.4742 25.2241C11.9609 25.4982 12.4447 25.7723 12.9272 26.0464" stroke="#474B4E" stroke-width="0.559371" stroke-linecap="round" stroke-linejoin="round"/>
<path d="M10.7706 22.2524C11.3831 20.1059 11.9929 17.9607 12.6012 15.8141C13.299 13.3515 13.9968 10.8874 14.6904 8.422" stroke="#474B4E" stroke-width="0.559371" stroke-linecap="round" stroke-linejoin="round"/>
<path d="M12.2712 22.8872C13.1606 20.5196 14.0319 18.022 14.8667 15.3972C15.5492 13.2478 16.1631 11.1544 16.714 9.12524" stroke="#474B4E" stroke-width="0.559371" stroke-linecap="round" stroke-linejoin="round"/>
<path d="M13.7186 23.2635C14.5633 21.4399 15.152 19.9338 15.5212 18.9395C16.2889 16.8698 16.5407 15.8308 17.3951 13.4465C18.009 11.732 18.5572 10.3728 18.8984 9.55188" stroke="#474B4E" stroke-width="0.559371" stroke-linecap="round" stroke-linejoin="round"/>
<path d="M13.8641 7.79535C14.0278 7.55202 14.204 7.25416 14.362 6.89756C14.4906 6.60808 14.5843 6.33819 14.6528 6.09766" stroke="#474B4E" stroke-width="0.559371" stroke-linecap="round" stroke-linejoin="round"/>
<path d="M14.8835 8.3198C15.0388 8.04711 15.1954 7.75344 15.3478 7.43879C15.4975 7.13254 15.6289 6.83747 15.7464 6.55359" stroke="#474B4E" stroke-width="0.559371" stroke-linecap="round" stroke-linejoin="round"/>
<path d="M16.3015 8.81911C16.4162 8.54502 16.5281 8.26114 16.6385 7.96607C16.7672 7.62486 16.8833 7.29203 16.9895 6.96899" stroke="#474B4E" stroke-width="0.559371" stroke-linecap="round" stroke-linejoin="round"/>
<path d="M17.5643 9.1295C17.7028 8.80506 17.8384 8.46524 17.9699 8.11004C18.0664 7.85133 18.1559 7.59682 18.2384 7.3479" stroke="#474B4E" stroke-width="0.559371" stroke-linecap="round" stroke-linejoin="round"/>
<path d="M18.9963 9.43017C19.0914 9.09734 19.1851 8.76032 19.2788 8.4219C19.3571 8.13662 19.434 7.85274 19.511 7.57166" stroke="#474B4E" stroke-width="0.559371" stroke-linecap="round" stroke-linejoin="round"/>
<path d="M20.2941 9.57846C20.3836 9.25542 20.4661 8.90441 20.536 8.52684C20.5877 8.24995 20.6283 7.98285 20.6591 7.72974" stroke="#474B4E" stroke-width="0.559371" stroke-linecap="round" stroke-linejoin="round"/>
</svg>
