<svg xmlns="http://www.w3.org/2000/svg" width="339" height="64" viewBox="0 0 339 64" fill="none">
  <path d="M86.4609 0.4375L87.2109 0.5C87.5438 0.528548 87.874 0.603363 88.1953 0.710938L88.9453 0.960938C89.0532 0.996643 89.1461 1.00481 89.2344 0.992188L89.9844 0.882812C90.2181 0.84939 90.4534 0.810643 90.6875 0.765625L91.4375 0.625L91.8438 0.585938C92.2382 0.596099 92.6027 0.735721 92.9219 0.945312L93.2969 1.1875L93.6719 1.4375C93.7023 1.45749 93.7225 1.47184 93.7344 1.47656H93.7422L94.1094 1.42188L94.4844 1.36719C94.8249 1.31856 95.167 1.31334 95.5078 1.35938L95.8828 1.41406L96.2578 1.46094C96.2769 1.46353 96.3185 1.46778 96.4062 1.42188L97.1562 1.03125C97.5432 0.827389 97.9717 0.713288 98.4219 0.734375L99.1719 0.765625C99.4366 0.778023 99.7042 0.796235 99.9688 0.820312L100.344 0.859375L100.719 0.890625C101.047 0.920701 101.37 0.989351 101.688 1.09375L102.062 1.21875L102.344 1.32031L102.695 1.07812L103.07 0.828125C103.505 0.537817 104.031 0.395826 104.594 0.523438L105.344 0.695312C105.495 0.72979 105.645 0.738614 105.789 0.726562L106.539 0.664062C106.798 0.642146 107.062 0.616647 107.32 0.601562L107.695 0.585938L108.07 0.5625C108.59 0.533091 109.061 0.709453 109.453 0.984375L109.82 1.24219L110.195 1.50781V1.51562L110.883 1.34375C111.086 1.29376 111.299 1.22408 111.508 1.14062L112.258 0.84375C112.616 0.701254 112.99 0.625242 113.375 0.625H113.75L114.125 0.617188C114.563 0.617028 114.976 0.741061 115.352 0.945312L115.727 1.14844L116.102 1.35938C116.17 1.3964 116.201 1.39206 116.211 1.39062L116.961 1.26562C117.256 1.21771 117.555 1.19418 117.852 1.1875L118.602 1.17188C118.806 1.16732 119.013 1.15009 119.219 1.11719L119.969 0.992188C120.412 0.921666 120.85 0.981249 121.258 1.14844L122.008 1.46094C122.067 1.48452 122.101 1.48377 122.133 1.47656L122.883 1.28906C123.152 1.22304 123.425 1.1662 123.695 1.11719L124.445 0.976562C124.733 0.924317 125.023 0.892162 125.312 0.875L126.062 0.828125C126.257 0.816681 126.458 0.793999 126.656 0.75L127.406 0.578125C127.943 0.458877 128.455 0.580286 128.891 0.84375L129.266 1.07812L129.641 1.30469C129.66 1.31659 129.677 1.32387 129.688 1.32812H129.695L130.07 1.26562L130.445 1.19531C130.853 1.1197 131.26 1.14101 131.656 1.25781L132.406 1.47656C132.533 1.51418 132.652 1.52758 132.766 1.51562L133.141 1.47656L133.516 1.42969C133.743 1.40511 133.975 1.37627 134.203 1.33594L134.578 1.26562L134.953 1.20312C135.322 1.13822 135.695 1.14152 136.062 1.21094L136.812 1.35156C137.039 1.39431 137.266 1.42598 137.492 1.45312L138.242 1.54688C138.336 1.55814 138.439 1.54708 138.555 1.50781L139.305 1.25781C139.541 1.17741 139.779 1.08417 140.016 0.992188L140.391 0.851562L140.766 0.703125C141.123 0.564529 141.499 0.490109 141.883 0.492188H142.258L142.633 0.5C143.109 0.503111 143.544 0.658707 143.922 0.90625L144.297 1.15625L144.555 1.32031L144.781 1.20312L145.156 1C145.495 0.820573 145.867 0.73288 146.25 0.757812L146.633 0.820312L147.383 1.02344C147.445 1.03981 147.501 1.037 147.57 1.01562L147.945 0.898438L148.32 0.773438C148.739 0.640824 149.179 0.624003 149.609 0.726562L149.984 0.820312L150.359 0.90625C150.47 0.932259 150.573 0.934676 150.68 0.914062L151.055 0.84375L151.43 0.765625C151.876 0.677916 152.325 0.727949 152.742 0.890625L153.117 1.03906L153.469 1.17969L153.836 1.00781L154.211 0.835938C154.555 0.679013 154.915 0.578818 155.289 0.546875L156.039 0.484375C156.42 0.452006 156.798 0.490828 157.164 0.601562L157.539 0.71875L157.914 0.828125C157.99 0.85115 158.055 0.854055 158.125 0.835938L158.5 0.742188L158.875 0.640625C159.295 0.5316 159.723 0.539991 160.141 0.65625L160.891 0.859375C161.073 0.910326 161.255 0.942821 161.43 0.953125L162.18 1C162.444 1.01527 162.712 1.03483 162.977 1.0625L163.727 1.14062C163.857 1.15429 163.993 1.14439 164.133 1.10938L164.883 0.921875C165.352 0.80424 165.821 0.848977 166.258 1.03125L167.008 1.34375C167.106 1.385 167.181 1.39076 167.242 1.38281L167.617 1.33594L167.992 1.28125C168.159 1.25916 168.335 1.21852 168.516 1.14844L168.891 1L169.266 0.859375C169.62 0.721995 169.988 0.643745 170.367 0.640625L170.742 0.632812H171.117C171.454 0.630075 171.788 0.675153 172.117 0.757812L172.867 0.945312C173.044 0.989775 173.221 1.01331 173.391 1.01562H173.766L174.141 1.02344C174.509 1.02869 174.871 1.09973 175.219 1.22656L175.594 1.35938L175.969 1.5C176.055 1.53129 176.124 1.53569 176.188 1.52344L176.562 1.44531L176.938 1.375C177.257 1.31332 177.583 1.2879 177.906 1.29688L178.656 1.3125C178.925 1.32001 179.193 1.33582 179.461 1.35938L179.836 1.39844L180.211 1.42969C180.345 1.44147 180.482 1.42683 180.625 1.39062L181.375 1.20312C181.738 1.1106 182.112 1.08446 182.484 1.125L183.234 1.20312C183.339 1.21441 183.448 1.20304 183.57 1.16406L184.32 0.929688C184.739 0.796103 185.179 0.772943 185.609 0.875L185.984 0.96875L186.359 1.05469C186.462 1.07854 186.563 1.07697 186.664 1.05469L187.039 0.976562L187.414 0.890625C187.821 0.801849 188.231 0.814512 188.633 0.921875L189.008 1.02344L189.383 1.11719C189.449 1.13476 189.507 1.13844 189.578 1.11719L190.328 0.882812C190.669 0.778272 191.021 0.725828 191.375 0.726562H192.125C192.485 0.727619 192.843 0.793617 193.188 0.90625L193.562 1.02344L193.938 1.14844C194.063 1.18923 194.175 1.20478 194.281 1.19531L194.656 1.15625L195.031 1.125C195.2 1.10953 195.375 1.06853 195.555 1.00781L196.305 0.757812C196.661 0.637389 197.031 0.574414 197.406 0.585938L197.781 0.601562L198.156 0.609375C198.375 0.616074 198.594 0.615173 198.812 0.601562L199.562 0.554688C199.861 0.536132 200.163 0.537896 200.461 0.5625L201.211 0.625C201.482 0.647487 201.753 0.685153 202.023 0.726562L202.773 0.835938C202.909 0.856733 203.049 0.854893 203.188 0.828125L203.938 0.6875C204.454 0.587905 204.947 0.698678 205.375 0.945312L205.75 1.15625L206.125 1.375C206.243 1.44276 206.32 1.45299 206.367 1.45312H207.117C207.129 1.45306 207.192 1.44969 207.312 1.36719L208.062 0.851562C208.368 0.643193 208.719 0.500236 209.102 0.46875L209.5 0.476562L210.25 0.570312C210.516 0.60324 210.782 0.640597 211.047 0.6875L211.422 0.757812L211.797 0.820312C212.036 0.862589 212.277 0.903113 212.516 0.9375L213.266 1.04688C213.372 1.06225 213.483 1.0568 213.602 1.02344L214.352 0.804688C214.727 0.698499 215.113 0.669858 215.5 0.71875L216.25 0.8125C216.584 0.854747 216.914 0.940042 217.234 1.0625L217.609 1.20312L217.922 1.33594L218.273 1.14062L218.648 0.9375C219.018 0.73634 219.423 0.612378 219.852 0.601562L220.602 0.585938C221.035 0.575299 221.449 0.675254 221.828 0.867188L222.203 1.0625L222.469 1.20312L222.758 1.03906L223.133 0.820312L223.555 0.640625C223.848 0.56017 224.152 0.560059 224.445 0.640625L224.875 0.820312L225.25 1.03906L225.625 1.25C225.633 1.25431 225.636 1.26336 225.641 1.26562L225.992 1.16406L226.367 1.0625C226.789 0.949397 227.22 0.95469 227.641 1.07031L228.016 1.17188L228.344 1.26562L228.352 1.25781L228.727 1.03125L229.102 0.796875C229.425 0.598701 229.792 0.477883 230.18 0.476562L230.578 0.523438L230.953 0.59375L231.328 0.671875C231.667 0.741651 231.995 0.86031 232.312 1.01562L233.047 1.38281L233.391 1.24219L233.766 1.09375C234.131 0.95307 234.514 0.88621 234.906 0.898438L235.281 0.90625L235.656 0.921875C235.962 0.93142 236.267 0.963195 236.57 1.02344L236.945 1.10156L237.32 1.17188C237.348 1.17746 237.386 1.18255 237.461 1.14844L238.211 0.804688L238.672 0.671875C239.128 0.602134 239.57 0.729859 239.945 0.992188L240.32 1.25L240.695 1.51562L240.773 1.5625L241.141 1.51562L241.516 1.47656C241.78 1.44716 242.048 1.42366 242.312 1.40625L243.062 1.35938C243.296 1.34398 243.532 1.32327 243.766 1.29688L244.141 1.25L244.516 1.21094C244.877 1.17041 245.238 1.18643 245.594 1.26562L245.969 1.35156L246.289 1.42969C246.295 1.42633 246.303 1.4206 246.312 1.41406L246.688 1.15625L247.062 0.90625C247.457 0.640519 247.926 0.476083 248.438 0.507812L249.188 0.554688C249.597 0.580137 249.985 0.700391 250.344 0.890625L250.719 1.09375L251.094 1.28906C251.237 1.36498 251.357 1.39117 251.453 1.39844L252.203 1.46094C252.374 1.47366 252.546 1.46485 252.719 1.4375L253.094 1.375L253.469 1.32031C253.624 1.29575 253.793 1.24306 253.969 1.16406L254.344 1L254.719 0.828125L255.102 0.703125C255.495 0.616334 255.898 0.657276 256.281 0.828125L256.656 0.992188L257.031 1.16406C257.205 1.24172 257.37 1.28889 257.523 1.3125L258.273 1.42188C258.482 1.4536 258.691 1.47145 258.898 1.47656L259.273 1.49219L259.648 1.5C259.837 1.50461 260.028 1.49144 260.219 1.46094L260.969 1.33594C261.123 1.31099 261.287 1.26555 261.461 1.1875L261.836 1.01562L262.211 0.851562C262.55 0.698964 262.907 0.599347 263.273 0.5625L264.023 0.484375C264.575 0.429262 265.07 0.618358 265.469 0.914062L266.219 1.47656C266.259 1.50682 266.287 1.51942 266.297 1.52344L266.641 1.48438L267.016 1.4375C267.337 1.40218 267.663 1.40325 267.984 1.4375L268.734 1.51562C268.74 1.51591 268.746 1.5184 268.758 1.51562C268.774 1.51168 268.809 1.49936 268.859 1.46875L269.609 1.01562C269.988 0.786755 270.414 0.647742 270.875 0.648438H271.625C271.929 0.649263 272.237 0.67666 272.539 0.726562L273.289 0.851562C273.47 0.88132 273.65 0.890432 273.828 0.882812L274.578 0.851562C274.917 0.836685 275.261 0.86421 275.594 0.9375L275.969 1.01562L276.344 1.10156C276.495 1.1344 276.644 1.14583 276.789 1.13281L277.164 1.09375L277.539 1.0625C277.895 1.03088 278.252 1.05991 278.602 1.14062L279.352 1.3125C279.479 1.34174 279.604 1.34693 279.727 1.32812L280.102 1.26562L280.477 1.21094C280.822 1.15811 281.17 1.15397 281.516 1.20312L282.266 1.3125C282.367 1.32685 282.47 1.31621 282.586 1.28125L282.961 1.17188L283.336 1.05469C283.823 0.907662 284.317 0.949691 284.773 1.14844L285.523 1.47656C285.552 1.48921 285.567 1.49197 285.57 1.49219C285.572 1.49229 285.578 1.48886 285.594 1.48438L286.344 1.26562C286.633 1.18057 286.925 1.11658 287.219 1.07031L287.594 1.00781L287.969 0.953125C288.17 0.92148 288.373 0.868102 288.578 0.804688L288.953 0.6875L289.328 0.578125C289.807 0.430091 290.301 0.453159 290.758 0.640625L291.508 0.953125C291.703 1.03293 291.893 1.09358 292.078 1.13281L292.828 1.28906C292.935 1.31148 293.04 1.31328 293.148 1.28906L293.898 1.11719C294.21 1.04581 294.527 1.00191 294.844 0.992188L295.219 0.976562L295.594 0.96875C295.992 0.95657 296.382 1.03206 296.75 1.17969L297.125 1.32812L297.484 1.47656L297.859 1.32031L298.234 1.15625C298.72 0.949287 299.238 0.940562 299.734 1.13281L300.109 1.27344L300.406 1.39844L300.75 1.19531L301.125 0.984375C301.518 0.757598 301.964 0.627983 302.438 0.65625L303.188 0.703125C303.36 0.713181 303.536 0.701479 303.711 0.671875L304.461 0.546875C304.956 0.463754 305.431 0.562192 305.852 0.789062L306.602 1.19531C306.759 1.28031 306.897 1.3271 307.016 1.34375L307.391 1.39062L307.766 1.44531C307.828 1.45392 307.902 1.44599 308 1.40625L308.375 1.25781L308.75 1.10156C309.081 0.967072 309.423 0.879402 309.773 0.84375L310.523 0.765625C310.822 0.735264 311.122 0.72735 311.422 0.742188L311.797 0.765625L312.172 0.78125C312.418 0.793556 312.667 0.802616 312.914 0.8125L313.297 0.828125L313.672 0.84375C314.108 0.861397 314.517 0.998436 314.883 1.21875L315.234 1.42969L315.531 1.61719L315.883 1.49219L316.273 1.34375C316.679 1.19584 317.111 1.14756 317.547 1.21875L318.297 1.34375C318.695 1.4094 319.066 1.55617 319.398 1.78125L319.727 2.00781L320.055 2.22656C320.182 2.31261 320.303 2.3688 320.422 2.39844L320.789 2.48438L321.148 2.57812C321.378 2.6348 321.615 2.68434 321.852 2.73438L322.219 2.8125L322.594 2.89062C322.919 2.95941 323.233 3.06686 323.531 3.21094L323.875 3.375L324.211 3.53906C324.477 3.66782 324.738 3.81315 324.984 3.97656L325.609 4.39844C325.713 4.46703 325.839 4.51852 325.992 4.55469L326.773 4.74219C327.161 4.83354 327.524 4.99479 327.844 5.23438L328.148 5.46875L328.461 5.69531C328.836 5.9773 329.091 6.35706 329.25 6.78125L329.406 7.1875L329.555 7.59375C329.613 7.7502 329.679 7.84418 329.734 7.89844L330 8.15625L330.258 8.41406C330.362 8.51608 330.488 8.61247 330.641 8.69531L330.992 8.88281L331.336 9.07031C331.718 9.27636 332.039 9.57043 332.266 9.94531L332.461 10.2656L332.656 10.5938C332.747 10.7435 332.854 10.8821 332.977 11.0078L333.242 11.2812L333.508 11.5469C333.719 11.7626 333.916 11.9984 334.094 12.2422L334.312 12.5469L334.539 12.8516C334.752 13.1439 334.914 13.4675 335.023 13.8125L335.141 14.1797L335.25 14.5391C335.301 14.7 335.372 14.8541 335.461 14.9922L335.672 15.3125L335.875 15.625C336.004 15.8261 336.139 16.0314 336.281 16.2344L336.508 16.5547L336.727 16.875C337.097 17.4038 337.112 18.0085 336.93 18.5391L336.773 18.9844L336.625 19.4219C336.6 19.4937 336.595 19.5415 336.594 19.5625V19.5703L336.711 19.9219L336.82 20.2734C336.872 20.4268 336.952 20.5839 337.055 20.75L337.266 21.0938L337.477 21.4297C337.759 21.8868 337.836 22.4097 337.703 22.9297L337.602 23.3203L337.508 23.6797L337.727 24.0391L337.953 24.3984C338.163 24.7391 338.312 25.1123 338.375 25.5078L338.43 25.8828L338.492 26.2656C338.552 26.6415 338.543 27.0192 338.461 27.3906L338.289 28.1406C338.238 28.3711 338.193 28.6062 338.156 28.8359L338.102 29.2109L338.039 29.5859C337.999 29.8385 337.958 30.0912 337.914 30.3438L337.844 30.7188L337.781 31.0938C337.749 31.2823 337.739 31.4704 337.742 31.6562L337.75 32.0312V32.4062C337.753 32.5407 337.781 32.6827 337.836 32.8359L338.102 33.5859C338.233 33.9527 338.294 34.3368 338.273 34.7266L338.258 35.1016L338.234 35.4766C338.22 35.753 338.193 36.0288 338.156 36.3047L338.062 37.0547C338.041 37.2171 338.034 37.3821 338.055 37.5469L338.109 37.9297L338.156 38.3047C338.203 38.6684 338.187 39.0321 338.109 39.3906L338.031 39.7656L337.953 40.1328C337.921 40.2806 337.908 40.4362 337.922 40.5938L337.961 40.9766L337.992 41.3594C338.042 41.9033 337.865 42.3976 337.539 42.7969L337.266 43.1328L337 43.4375L337.062 43.8047L337.117 44.2031C337.176 44.5951 337.165 44.9906 337.062 45.375L336.961 45.7422L336.867 46.1094C336.807 46.3343 336.752 46.5633 336.703 46.7969L336.625 47.1797L336.539 47.5547C336.427 48.0862 336.121 48.5055 335.703 48.7969L335.344 49.0469L334.984 49.2891C334.945 49.3163 334.928 49.3362 334.922 49.3438V49.3594L334.812 49.7266L334.711 50.0938C334.622 50.4063 334.497 50.7071 334.344 50.9922L334.172 51.3203L333.992 51.6562C333.787 52.0388 333.487 52.3421 333.125 52.5703L332.789 52.7891L332.453 53L332.445 53.0078L332.438 53.0234L332.336 53.4141L332.227 53.8125C332.108 54.2525 331.878 54.6472 331.523 54.9531L331.234 55.2031L330.945 55.4453C330.706 55.6511 330.446 55.8339 330.172 55.9922L329.844 56.1875L329.516 56.375C329.351 56.4698 329.203 56.5782 329.07 56.6953L328.789 56.9375L328.516 57.1875C328.319 57.3617 328.112 57.5306 327.906 57.6953L327.617 57.9219L327.328 58.1562C327.205 58.2547 327.083 58.3796 326.969 58.5312L326.727 58.8516L326.492 59.1719C326.134 59.6468 325.609 59.8817 325.039 59.8906L324.195 59.9062C324.03 59.9088 323.917 59.9406 323.836 59.9766L323.5 60.125L323.164 60.2812C322.921 60.3909 322.671 60.4925 322.422 60.5859L322.078 60.7109L321.734 60.8438C321.607 60.8919 321.476 60.9603 321.344 61.0625L321.031 61.3047L320.727 61.5469C320.501 61.7218 320.264 61.8862 320.023 62.0469L319.688 62.2734L319.359 62.4922C318.859 62.8254 318.281 62.8733 317.742 62.6953L316.93 62.4297C316.818 62.3927 316.763 62.4004 316.742 62.4062L316.023 62.6094C315.698 62.7021 315.362 62.7548 315.023 62.7578H314.648L314.273 62.7656C314.192 62.7666 314.09 62.7806 313.961 62.8438L313.586 63.0312L313.219 63.2109C312.658 63.4867 312.056 63.4495 311.531 63.1484L311.156 62.9375L310.883 62.7812L310.258 63.1328C309.806 63.3797 309.29 63.4628 308.766 63.3203L308.016 63.1172C307.936 63.0953 307.86 63.0962 307.781 63.1172L307.406 63.2109L307.031 63.3125C306.704 63.3995 306.367 63.4502 306.031 63.4531H305.281C305.016 63.4554 304.75 63.4561 304.484 63.4453L303.734 63.4141C303.419 63.4012 303.107 63.3546 302.797 63.2812L302.047 63.1094C301.835 63.0592 301.624 63.0161 301.414 62.9922L301.039 62.9531L300.664 62.9062C300.467 62.8838 300.266 62.8813 300.07 62.8906L299.32 62.9219C299.026 62.9358 298.732 62.9331 298.438 62.9062L298.062 62.875L297.688 62.8359C297.39 62.8087 297.091 62.7647 296.797 62.6953L296.422 62.6016L296.117 62.5312L295.742 62.8125L295.367 63.0859C294.928 63.4072 294.373 63.5786 293.773 63.4219L293.398 63.3203L293.023 63.2266C292.782 63.1632 292.538 63.1041 292.297 63.0469L291.922 62.9531L291.547 62.8672C291.325 62.8147 291.103 62.7667 290.883 62.7344L290.133 62.625C289.9 62.5908 289.663 62.569 289.43 62.5469L288.68 62.4688C288.669 62.4678 288.627 62.4706 288.539 62.5234L288.164 62.75L287.789 62.9688C287.445 63.1744 287.075 63.322 286.68 63.3828L286.305 63.4453L285.93 63.5C285.377 63.5846 284.868 63.4203 284.453 63.1328L284.078 62.8672L283.773 62.6562L283.523 62.7578L283.148 62.9141C282.757 63.0715 282.34 63.1343 281.914 63.0859L281.539 63.0391L281.164 63C280.869 62.9663 280.573 62.9105 280.281 62.8359L279.906 62.7422L279.531 62.6406C279.426 62.6138 279.326 62.6132 279.227 62.6328L278.477 62.7891C278.288 62.8271 278.089 62.8829 277.891 62.9609L277.141 63.2578C276.758 63.408 276.351 63.4727 275.938 63.4375L275.188 63.375C275.016 63.3607 274.845 63.3658 274.672 63.3906L273.922 63.5C273.603 63.546 273.281 63.553 272.961 63.5312L272.211 63.4844C271.83 63.4582 271.458 63.3544 271.109 63.1953L270.359 62.8516C270.181 62.7703 270.012 62.7163 269.852 62.6875L269.477 62.625L269.102 62.5547C269.077 62.5502 269.038 62.5499 268.961 62.5859L268.211 62.9453C267.828 63.1283 267.409 63.2246 266.977 63.2031L266.602 63.1797L266.227 63.1641C265.953 63.1505 265.679 63.1272 265.406 63.0938L264.656 63C264.373 62.9653 264.087 62.9151 263.805 62.8516L263.43 62.7734L263.055 62.6875H263.047C263.043 62.6881 263.021 62.6921 262.984 62.7109L262.609 62.8984L262.234 63.0938C261.789 63.3248 261.291 63.41 260.781 63.2812L260.406 63.1875L260.031 63.0859C259.807 63.0292 259.583 62.9837 259.359 62.9453L258.609 62.8203C258.437 62.7906 258.264 62.7778 258.094 62.7891L257.719 62.8125L257.344 62.8438C256.983 62.8678 256.624 62.8262 256.273 62.7344L255.898 62.6406L255.523 62.5391C255.38 62.5015 255.243 62.4888 255.109 62.5L254.359 62.5625C254.042 62.589 253.723 62.5846 253.406 62.5469L253.031 62.5L252.656 62.4609C252.538 62.447 252.418 62.457 252.289 62.4922L251.539 62.6953C251.155 62.7999 250.761 62.8216 250.367 62.7578L249.617 62.6328C249.506 62.6147 249.392 62.618 249.273 62.6484L248.898 62.75L248.523 62.8438C248.221 62.9211 247.916 62.9745 247.609 63L246.859 63.0625C246.475 63.0944 246.094 63.045 245.727 62.9297L244.977 62.6953C244.861 62.659 244.756 62.6508 244.656 62.6641L244.281 62.7188L243.906 62.7656C243.543 62.8137 243.179 62.8022 242.82 62.7266L242.445 62.6406L242.102 62.5625C242.094 62.5662 242.085 62.5766 242.07 62.5859L241.695 62.8281L241.32 63.0781C240.82 63.4019 240.214 63.4913 239.625 63.2344L238.875 62.9062C238.748 62.8509 238.645 62.8338 238.555 62.8359L237.805 62.8516C237.703 62.8543 237.584 62.8818 237.445 62.9453L236.695 63.2891C236.328 63.4577 235.931 63.5545 235.523 63.5547H233.656L233.281 63.5625C232.989 63.5642 232.697 63.5429 232.406 63.5078L232.031 63.4609L231.656 63.4219C231.435 63.3952 231.213 63.3744 230.992 63.3672L230.617 63.3594L230.242 63.3438C229.979 63.3351 229.716 63.3166 229.453 63.2969L229.078 63.2734L228.703 63.2422C228.506 63.2274 228.306 63.2332 228.109 63.25L227.359 63.3125C226.959 63.3464 226.564 63.2905 226.188 63.1562L225.438 62.8906C225.419 62.8843 225.411 62.883 225.406 62.8828C225.404 62.8828 225.391 62.8821 225.367 62.8906L224.992 63.0234L224.617 63.1641C224.159 63.3302 223.676 63.3337 223.211 63.1797L222.461 62.9297C222.362 62.8971 222.277 62.8922 222.195 62.9062L221.82 62.9766L221.445 63.0391C221.093 63.0998 220.737 63.1057 220.383 63.0547L219.633 62.9453C219.51 62.9277 219.387 62.9312 219.258 62.9609L218.883 63.0547L218.508 63.1406C218.252 63.2005 217.99 63.2573 217.734 63.3125L217.359 63.3906L216.984 63.4766C216.486 63.5833 216.003 63.4963 215.57 63.2734L215.195 63.0781L214.906 62.9219L214.617 63.0859L214.242 63.2812C213.863 63.482 213.448 63.5945 213.008 63.5859H212.633L212.258 63.5781C211.87 63.5703 211.49 63.4796 211.133 63.3281L210.758 63.1719L210.383 63.0078C210.191 62.9266 210.001 62.8733 209.82 62.8359L209.07 62.6797H209.055C209.047 62.6808 209.023 62.6838 208.984 62.7031L208.609 62.8906L208.234 63.0859C207.695 63.3617 207.098 63.3572 206.562 63.0781L205.812 62.6875C205.681 62.6194 205.579 62.5956 205.5 62.5938L204.75 62.5781C204.604 62.5749 204.454 62.5965 204.297 62.6406L203.922 62.7422L203.547 62.8516C203.098 62.9776 202.641 62.9552 202.203 62.8047L201.828 62.6797L201.492 62.5547L201.133 62.7656L200.758 62.9688C200.417 63.1565 200.054 63.2868 199.672 63.3438L199.297 63.3984L198.922 63.4609C198.583 63.5114 198.239 63.5117 197.898 63.4688L197.148 63.375C196.886 63.3418 196.622 63.3019 196.359 63.2578L195.609 63.1328C195.368 63.0922 195.124 63.058 194.883 63.0234L194.133 62.9141C194.001 62.8954 193.87 62.9008 193.734 62.9297L192.984 63.0859C192.734 63.1393 192.485 63.197 192.234 63.25L191.484 63.4062C190.969 63.5153 190.472 63.4138 190.039 63.1719L189.664 62.9609L189.32 62.7656L189.016 62.8906L188.641 63.0391C188.126 63.2392 187.591 63.2074 187.102 62.9766L186.727 62.7969L186.453 62.6641L186.156 62.8438L185.781 63.0625C185.523 63.2143 185.22 63.3185 184.883 63.3125C184.546 63.3064 184.243 63.1961 183.992 63.0391L183.617 62.8047L183.398 62.6641L183.188 62.8047L182.812 63.0469C182.553 63.2115 182.238 63.3272 181.883 63.3203C181.53 63.3129 181.219 63.1847 180.969 63.0156L180.594 62.7578L180.219 62.5078C180.099 62.4266 180.036 62.4219 180.023 62.4219H179.273C179.06 62.4215 178.847 62.4309 178.633 62.4531L177.883 62.5312C177.564 62.5646 177.241 62.5642 176.922 62.5312L176.172 62.4531C175.989 62.4343 175.807 62.4354 175.625 62.4531L175.25 62.4922L174.875 62.5234C174.569 62.5534 174.259 62.5607 173.953 62.5391L173.578 62.5156L173.203 62.4844C172.992 62.4695 172.781 62.4677 172.57 62.4766L171.82 62.5078C171.785 62.5093 171.707 62.5243 171.578 62.6094L171.203 62.8594L170.828 63.1016C170.459 63.3459 170.038 63.5146 169.578 63.5391L169.203 63.5547L168.828 63.5781C168.556 63.5926 168.28 63.5981 168.008 63.5938L167.258 63.5781C166.974 63.5735 166.69 63.5583 166.406 63.5234L165.656 63.4297C165.38 63.3957 165.103 63.3452 164.828 63.2891L164.453 63.2188L164.078 63.1406C164.004 63.1255 163.926 63.1266 163.836 63.1562L163.086 63.4062C162.696 63.5339 162.291 63.5679 161.883 63.5078L161.133 63.3984C160.954 63.3718 160.771 63.3628 160.594 63.375L160.219 63.4062L159.844 63.4297C159.57 63.4485 159.297 63.454 159.023 63.4531H158.273C157.989 63.4522 157.705 63.4365 157.422 63.4062L156.672 63.3281C156.267 63.2849 155.883 63.1452 155.531 62.9453L154.781 62.5234C154.763 62.5131 154.751 62.5033 154.742 62.5H154.734L153.984 62.6562C153.639 62.7301 153.289 62.7583 152.938 62.7266L152.562 62.6875L152.188 62.6562C152.029 62.6418 151.865 62.65 151.703 62.6797L151.328 62.7422L150.953 62.8125C150.658 62.8664 150.36 62.9025 150.062 62.9141L149.312 62.9453C148.94 62.9595 148.574 62.9042 148.219 62.7891L147.539 62.5625L147.18 62.7891L146.805 63.0234C146.331 63.3201 145.767 63.427 145.195 63.2266L144.445 62.9609C144.209 62.8776 143.97 62.7997 143.734 62.7266L143.359 62.6094L143.078 62.5234L142.742 62.7734L142.367 63.0547C142.117 63.2378 141.796 63.3754 141.422 63.3828C141.044 63.3898 140.712 63.2589 140.453 63.0781L140.078 62.8203L139.703 62.5547L139.617 62.5078L139.258 62.5469L138.883 62.5859C138.794 62.5952 138.676 62.6274 138.531 62.7109L137.781 63.1484C137.34 63.4045 136.827 63.5078 136.297 63.3828L135.547 63.2109C135.374 63.1702 135.205 63.1471 135.039 63.1484L134.664 63.1562H134.289C134.011 63.1589 133.731 63.1538 133.453 63.1328L132.703 63.0703C132.355 63.0439 132.011 62.9736 131.68 62.8516L130.93 62.5703C130.867 62.5473 130.826 62.5507 130.781 62.5625L130.406 62.6562L130.031 62.7578C129.678 62.8512 129.317 62.8862 128.953 62.8594L128.578 62.8359L128.203 62.8047C128.17 62.8023 128.11 62.8044 128.008 62.8594L127.633 63.0703L127.258 63.2734C126.803 63.521 126.283 63.6007 125.758 63.4531L125.383 63.3516L125.008 63.2422C124.773 63.1758 124.531 63.1169 124.297 63.0625L123.547 62.8906C123.349 62.8449 123.155 62.8102 122.961 62.7969L122.211 62.75C121.933 62.7311 121.652 62.6996 121.375 62.6562L121 62.5938L120.625 62.5391C120.55 62.5272 120.466 62.5278 120.367 62.5625L119.992 62.6953L119.617 62.8359C119.183 62.9915 118.724 63.0091 118.273 62.8906L117.898 62.7969L117.523 62.6953C117.329 62.644 117.135 62.6101 116.945 62.5938L116.195 62.5312C116.081 62.5215 115.959 62.5372 115.828 62.5781L115.078 62.8125C114.764 62.9111 114.44 62.9778 114.117 63.0078L113.367 63.0703C113.065 63.0983 112.763 63.1064 112.461 63.0859L112.086 63.0625L111.711 63.0312C111.467 63.0146 111.22 63.0042 110.977 62.9922L110.602 62.9688L110.227 62.9531C109.958 62.9399 109.69 62.9195 109.422 62.8906L108.672 62.8125C108.425 62.7859 108.176 62.7582 107.93 62.7344L107.555 62.6953L107.18 62.6641C107.129 62.6591 107.057 62.6616 106.953 62.7109L106.203 63.0703C105.638 63.3384 105.035 63.2897 104.516 62.9844L103.766 62.5469C103.74 62.5318 103.725 62.5254 103.719 62.5234L103.359 62.6016L102.984 62.6797C102.833 62.7119 102.669 62.7738 102.492 62.8672L101.742 63.2578C101.361 63.459 100.943 63.574 100.5 63.5625L100.125 63.5547L99.75 63.5391C99.3572 63.5288 98.9756 63.4405 98.6172 63.2812L98.2422 63.1172L97.8672 62.9453C97.7001 62.8714 97.5427 62.8307 97.3984 62.8125L96.6484 62.7188C96.5821 62.7107 96.5071 62.7168 96.4062 62.7578L96.0312 62.9062L95.6562 63.0625C95.2975 63.2091 94.919 63.287 94.5312 63.2891L94.1562 63.2969H93.7812C93.3939 63.2989 93.0161 63.2208 92.6562 63.0781L91.9062 62.7812L91.5391 62.9375L91.1641 63.0938C90.6103 63.3243 90.0309 63.2665 89.5312 62.9844L89.1562 62.7734L88.8047 62.5703L88.4922 62.6953L88.1172 62.8281C87.8123 62.938 87.5011 63.0197 87.1875 63.0703L86.8125 63.1328L86.4375 63.1875C86.0862 63.2441 85.7269 63.2478 85.375 63.1953L84.625 63.0859C84.4527 63.0605 84.2799 63.0556 84.1094 63.0703L83.3594 63.1328C83.1264 63.1529 82.8895 63.1795 82.6562 63.2109L82.2812 63.2578L81.9062 63.3125C81.6113 63.3521 81.3119 63.3693 81.0156 63.3672H80.6406L80.2656 63.3594C79.944 63.3568 79.6212 63.3208 79.3047 63.25L78.9297 63.1641L78.5547 63.0859C78.3079 63.0307 78.0593 62.9752 77.8125 62.9219L77.4375 62.8359L77.0625 62.7578C76.8307 62.7077 76.5985 62.6621 76.3672 62.625L75.9922 62.5703L75.6172 62.5078C75.5297 62.4938 75.4402 62.4982 75.3359 62.5312L74.9609 62.6562L74.5859 62.7734C74.2901 62.8687 73.9887 62.9437 73.6875 62.9922L73.3125 63.0469L72.9375 63.1094C72.5079 63.1784 72.0823 63.1266 71.6797 62.9766L71.3047 62.8359L70.9297 62.7031C70.8364 62.6683 70.7618 62.6605 70.6953 62.6719L70.3203 62.7344L69.9453 62.8047C69.54 62.8742 69.1348 62.843 68.7422 62.7266L67.9922 62.5078C67.8548 62.4671 67.7247 62.4513 67.6016 62.4609L66.8516 62.5234C66.6149 62.5419 66.3775 62.5586 66.1406 62.5859L65.3906 62.6797C65.2634 62.6945 65.12 62.7277 64.9609 62.8047L64.5859 62.9922L64.2109 63.1719C63.6104 63.4621 62.9835 63.3764 62.4688 63.0312L61.8125 62.5938L61.5781 62.7031L61.2031 62.8828C60.7273 63.1073 60.2046 63.1472 59.6953 62.9688L58.9453 62.7031C58.7877 62.6478 58.6401 62.6212 58.5 62.6172L58.125 62.6094L57.75 62.5938C57.6684 62.5915 57.5686 62.6082 57.4453 62.6641L56.6953 63.0078C56.1551 63.2551 55.5774 63.2314 55.0625 62.9609L54.6875 62.7656L54.3125 62.5625C54.1971 62.5017 54.1157 62.498 54.0625 62.5L53.6875 62.5078L53.3125 62.5234C53.0916 62.5318 52.87 62.5507 52.6484 62.5781L51.8984 62.6719C51.6162 62.7067 51.3299 62.7275 51.0469 62.7344L50.2969 62.75C49.9719 62.7576 49.6486 62.7295 49.3281 62.6641L48.9531 62.5859L48.6172 62.5156C48.6093 62.5198 48.6001 62.5295 48.5859 62.5391L47.8359 63.0391C47.4598 63.292 47.0248 63.4594 46.5469 63.4688L45.7969 63.4844C45.3379 63.4929 44.9062 63.3623 44.5234 63.1406L43.7734 62.7031C43.7557 62.693 43.7413 62.6901 43.7344 62.6875L43.7266 62.6797L43.375 62.7734L43 62.8594C42.7125 62.9257 42.4227 62.9689 42.1328 63L41.7578 63.0469L41.3828 63.0859C41.157 63.1101 40.9296 63.1387 40.7031 63.1797L39.9531 63.3203C39.5699 63.3894 39.1841 63.3755 38.8047 63.2891L38.0547 63.1172C37.8354 63.0672 37.6162 63.0283 37.3984 63L36.6484 62.9062C36.3759 62.8708 36.1 62.8198 35.8281 62.7656L35.4531 62.6953L35.0781 62.6172C35.0614 62.614 35.0292 62.6152 34.9609 62.6484L34.2109 63.0078C33.6709 63.27 33.0882 63.2594 32.5625 62.9844L31.8125 62.5938C31.7314 62.5513 31.6955 62.5523 31.6797 62.5547L31.3047 62.6094L30.9297 62.6719C30.6125 62.7206 30.2881 62.7359 29.9688 62.7188L29.5938 62.6953L29.2188 62.6797C29.1217 62.675 29.015 62.6868 28.8906 62.7344L28.5156 62.8828L28.1406 63.0234C27.6614 63.2088 27.153 63.2138 26.6719 63.0312L25.9219 62.75C25.8107 62.7078 25.7209 62.6941 25.6406 62.7031L25.2656 62.75L24.8906 62.7891C24.6492 62.8163 24.4041 62.85 24.1562 62.8828L23.7734 62.9297L23.3906 62.9844C22.9916 63.0371 22.5948 62.9982 22.2109 62.875L21.8438 62.7578L21.4844 62.6406C21.3647 62.6021 21.2354 62.5859 21.0938 62.5938L20.6953 62.6172L20.3047 62.6406C19.8532 62.6668 19.4178 62.5677 19.0234 62.3438L18.6797 62.1484L18.3438 61.9531C18.0447 61.7825 17.7675 61.5764 17.5156 61.3359L17.2188 61.0547L16.9453 60.7891L16.5469 60.8047L16.1328 60.8203C15.5805 60.8441 15.0614 60.6502 14.6719 60.2344L14.3984 59.9453L14.1328 59.6562C14.0534 59.5716 13.973 59.5224 13.8906 59.4922L13.5391 59.3672L13.1797 59.2344C12.8373 59.1085 12.522 58.9292 12.2422 58.6953L11.9531 58.4531L11.6719 58.2109C11.633 58.1784 11.5623 58.1405 11.4297 58.1172L11.0078 58.0391L10.5938 57.9688C10.1403 57.8889 9.71809 57.6911 9.375 57.3594L9.09375 57.0938L8.82031 56.8281C8.61629 56.6307 8.42046 56.4248 8.23438 56.2109L7.73438 55.6328C7.57549 55.4503 7.41493 55.2697 7.25 55.0938L6.98438 54.8125L6.72656 54.5391C6.3896 54.1797 6.20838 53.7384 6.14844 53.2734L6.09375 52.8438L6.03906 52.4062C6.03713 52.3916 6.03293 52.3815 6.03125 52.375L5.74219 52.1484L5.4375 51.9062C5.23753 51.7477 5.0316 51.5865 4.82031 51.4219L4.5 51.1719L4.17188 50.9219C3.72847 50.5758 3.47947 50.0867 3.44531 49.5312L3.39844 48.7031C3.38837 48.5363 3.35211 48.4018 3.30469 48.2969L3.14844 47.9609L2.99219 47.6172C2.93924 47.501 2.8612 47.3774 2.74219 47.25L2.46094 46.9453L2.17969 46.6484C1.80592 46.2493 1.61837 45.7396 1.65625 45.1875L1.67969 44.7891L1.71094 44.3828C1.71714 44.2925 1.69629 44.2251 1.66406 44.1641L1.30469 43.4766C1.14528 43.1747 1.01852 42.8531 0.9375 42.5234L0.851562 42.1484L0.757812 41.7812C0.678587 41.4589 0.636627 41.1288 0.632812 40.7969L0.625 40.4062V40.0234C0.621309 39.661 0.674376 39.3016 0.78125 38.9531L1.01562 38.1875C1.02028 38.1714 1.02336 38.1618 1.02344 38.1562C1.02322 38.1517 1.01833 38.1354 1.00781 38.1094L0.851562 37.7344L0.703125 37.3594C0.528431 36.9343 0.472619 36.4743 0.570312 36.0156L0.65625 35.6406L0.734375 35.2656C0.770556 35.0946 0.786932 34.9236 0.78125 34.7578L0.75 34.0078C0.73998 33.7106 0.755706 33.4136 0.789062 33.1172L0.828125 32.7422L0.875 32.3672C0.894031 32.1987 0.889317 32.0284 0.867188 31.8594L0.820312 31.4844L0.765625 31.1094C0.72464 30.7983 0.717126 30.4843 0.734375 30.1719L0.757812 29.7969L0.773438 29.4219C0.792983 29.0681 0.869936 28.7192 0.992188 28.3828L1.125 28.0078L1.26562 27.6328C1.31929 27.4843 1.34191 27.3473 1.34375 27.2188L1.35156 26.8438V26.4688C1.35224 26.4091 1.3409 26.3163 1.27344 26.1875L0.867188 25.4219C0.608006 24.9298 0.554491 24.3658 0.78125 23.8203L0.929688 23.4531L1.08594 23.0859C1.19431 22.8254 1.30857 22.57 1.42969 22.3203L1.60156 21.9688L1.75 21.6641L1.74219 21.6562L1.41406 20.8125C1.30668 20.542 1.24383 20.2252 1.29688 19.8906C1.35116 19.5525 1.5127 19.2663 1.71875 19.0391L2.28125 18.4141C2.34196 18.3471 2.34844 18.3074 2.35156 18.2812L2.39844 17.8984L2.4375 17.5156C2.47969 17.14 2.58993 16.78 2.76562 16.4453L2.94531 16.1094L3.11719 15.7734C3.22421 15.5697 3.32767 15.365 3.42188 15.1562L3.73438 14.4688C3.90138 14.0984 4.14547 13.7772 4.45312 13.5156L4.75 13.2656L5.05469 13.0078C5.13531 12.9393 5.18082 12.8654 5.21094 12.7891L5.49219 12.0859C5.64219 11.7062 5.8747 11.3735 6.17969 11.1016L6.74219 10.6016L6.78125 10.4844L6.9375 9.625C7.03109 9.11243 7.29558 8.64434 7.75781 8.32812L8.39844 7.89062C8.68493 7.69497 8.99791 7.53947 9.32812 7.42188L9.70312 7.28906L10 7.17188L10.125 6.78906L10.2656 6.35938C10.4201 5.87854 10.7171 5.44425 11.1953 5.17188L11.5312 4.98438L11.8672 4.78906C12.2062 4.59658 12.5745 4.47594 12.9609 4.42188L13.7734 4.3125C13.9727 4.28466 14.1478 4.2392 14.2969 4.17969L14.9844 3.89844C15.0588 3.86872 15.1443 3.81799 15.2344 3.71875L15.5078 3.41406L15.7891 3.10938C16.0865 2.77978 16.4547 2.53266 16.8906 2.40625L17.2578 2.30469L17.6172 2.19531C17.9012 2.11295 18.192 2.04512 18.4844 2L18.8672 1.94531L19.2422 1.89062C19.358 1.87256 19.4736 1.82935 19.5938 1.75781L19.9375 1.55469L20.2812 1.34375C20.677 1.10796 21.1226 0.995051 21.5859 1.02344L21.9688 1.05469L22.3594 1.07812C22.495 1.08643 22.6234 1.06379 22.75 1.02344L23.125 0.90625L23.4922 0.789062C23.9369 0.646947 24.3943 0.648064 24.8359 0.78125L25.6016 1.01562C25.6363 1.02613 25.6676 1.03909 25.6953 1.04688C25.7127 1.0412 25.7329 1.03174 25.7578 1.02344C25.8291 0.999672 25.9308 0.964305 26.0547 0.921875L26.8047 0.671875C27.1523 0.553075 27.5094 0.484118 27.875 0.484375H28.625C28.965 0.484724 29.3019 0.536 29.6328 0.625L30.3828 0.828125C30.599 0.886356 30.8175 0.927424 31.0312 0.960938L31.4062 1.02344L31.7812 1.07812C31.8615 1.09055 31.9457 1.08925 32.0469 1.05469L32.4219 0.921875L32.7969 0.796875C33.1622 0.670774 33.5433 0.610712 33.9297 0.632812L34.6797 0.679688C35.0054 0.698737 35.3309 0.752962 35.6484 0.84375L36.0234 0.953125L36.3984 1.05469C36.6349 1.12237 36.8734 1.18532 37.1094 1.24219L37.4844 1.33594L37.8594 1.42188C38.0046 1.45686 38.1439 1.4734 38.2812 1.46094L38.6562 1.42188L39.0312 1.39062C39.3212 1.36384 39.6158 1.35105 39.9062 1.35938L40.2812 1.375L40.6562 1.38281C40.7499 1.38513 40.8566 1.36657 40.9844 1.3125L41.3594 1.15625L41.7344 0.992188C42.1432 0.819095 42.5834 0.757621 43.0312 0.828125L43.4062 0.890625L43.7812 0.945312C44.0312 0.984653 44.2813 1.02259 44.5312 1.0625L45.2812 1.1875C45.5567 1.2315 45.835 1.28597 46.1094 1.35156L46.4844 1.4375L46.8125 1.52344L46.8281 1.50781L47.2031 1.26562L47.5781 1.01562L47.9531 0.820312C48.2192 0.716454 48.5041 0.676177 48.7969 0.710938L49.2422 0.820312L49.6172 0.96875L49.9922 1.10938C50.1226 1.1604 50.2338 1.18319 50.3359 1.17969L51.0859 1.14844C51.2732 1.14149 51.4647 1.12088 51.6562 1.07812L52.4062 0.90625C52.6741 0.84637 52.9425 0.793943 53.2109 0.75L53.5859 0.6875L53.9609 0.632812C54.3991 0.561179 54.8354 0.613853 55.2422 0.773438L55.6172 0.921875L55.9922 1.0625C56.1316 1.11708 56.2539 1.14078 56.3672 1.14062H57.1172C57.3119 1.13969 57.514 1.11942 57.7109 1.08594L58.4609 0.960938C58.7968 0.904118 59.1382 0.888503 59.4766 0.921875L60.2266 1C60.5031 1.02738 60.7791 1.06597 61.0547 1.11719L61.8047 1.25781C61.887 1.27315 61.9725 1.26547 62.0703 1.23438L62.8203 1C63.334 0.836279 63.8541 0.886455 64.3203 1.11719L65.0703 1.49219C65.1797 1.54601 65.2562 1.55769 65.3125 1.55469L66.0625 1.50781C66.2934 1.4939 66.5267 1.47236 66.7578 1.44531L67.1328 1.39844L67.5078 1.35938C67.6123 1.34714 67.7397 1.30973 67.8906 1.22656L68.2656 1.01562L68.6406 0.8125C69.0231 0.601144 69.4474 0.480653 69.8984 0.492188L70.6484 0.507812C71.0267 0.518074 71.3984 0.599475 71.75 0.742188L72.125 0.898438L72.5 1.04688C72.5624 1.07226 72.5995 1.07093 72.6328 1.0625L73.3828 0.875C73.7235 0.789115 74.0725 0.750184 74.4219 0.765625L75.1719 0.796875C75.4115 0.807444 75.651 0.815751 75.8906 0.820312L76.6406 0.835938C76.9079 0.840994 77.1782 0.855926 77.4453 0.875L77.8203 0.898438L78.1953 0.929688C78.3687 0.942076 78.5434 0.933053 78.7188 0.90625L79.0938 0.84375L79.4688 0.789062C79.7507 0.745528 80.0374 0.718783 80.3203 0.703125L81.0703 0.65625C81.4838 0.633482 81.8878 0.716242 82.2656 0.875L82.6406 1.03125L82.9453 1.16406L83.2734 0.976562L83.6484 0.773438C84.0161 0.572935 84.4172 0.450269 84.8438 0.4375L85.2188 0.421875L85.5938 0.414062C85.882 0.405699 86.173 0.41282 86.4609 0.4375ZM85.2812 2.42188L84.9062 2.4375C84.8348 2.43957 84.7325 2.45967 84.6016 2.53125L83.8516 2.9375C83.3504 3.21093 82.7806 3.26078 82.2344 3.03125L81.4844 2.71875C81.3632 2.66812 81.2655 2.6515 81.1797 2.65625L80.8047 2.67969L80.4297 2.69531C80.214 2.70727 79.998 2.73228 79.7812 2.76562L79.4062 2.82031L79.0312 2.88281C78.7082 2.93269 78.3798 2.94504 78.0547 2.92188L77.6797 2.89844L77.3047 2.86719C77.0732 2.85064 76.8408 2.84037 76.6094 2.83594L75.8594 2.82031C75.601 2.81542 75.3365 2.8083 75.0781 2.79688L74.3281 2.76562C74.1793 2.75931 74.0247 2.77268 73.8672 2.8125L73.1172 3C72.6522 3.11715 72.1862 3.08303 71.75 2.90625L71 2.59375C70.8539 2.5343 70.7214 2.51151 70.6016 2.50781L70.2266 2.5L69.8516 2.48438C69.804 2.48308 69.7258 2.49815 69.6094 2.5625L69.2344 2.76562L68.8594 2.97656C68.5113 3.16888 68.137 3.2974 67.7422 3.34375L67.3672 3.39062L66.9922 3.42969C66.7245 3.46103 66.4555 3.4838 66.1875 3.5L65.4375 3.54688C64.9944 3.57358 64.5677 3.47329 64.1797 3.28125L63.8047 3.10156L63.4141 2.90625L63.0547 3.02344L62.6797 3.14062C62.2785 3.26849 61.8619 3.29586 61.4453 3.21875L61.0703 3.14844L60.6953 3.08594C60.4731 3.04456 60.2446 3.00619 60.0234 2.98438L59.6484 2.95312L59.2734 2.91406C59.114 2.89863 58.951 2.90216 58.7891 2.92969L58.0391 3.05469C57.738 3.10571 57.4362 3.13901 57.1328 3.14062H56.3828C55.9971 3.14247 55.6168 3.07052 55.2578 2.92969L54.5078 2.63281C54.417 2.59749 54.3498 2.59208 54.2891 2.60156L53.5391 2.72656C53.3085 2.76425 53.0749 2.80771 52.8438 2.85938L52.0938 3.03125C51.7864 3.09995 51.4757 3.13676 51.1641 3.14844L50.4141 3.17969C50.017 3.19441 49.6262 3.12093 49.2578 2.97656L48.8828 2.82812L48.6094 2.71875L48.2969 2.92969L47.9219 3.17969C47.4831 3.46792 46.953 3.61101 46.3906 3.47656L46.0156 3.38281L45.6406 3.29688C45.4157 3.24313 45.1926 3.19202 44.9688 3.15625L44.5938 3.10156L44.2188 3.03906C43.9695 2.99925 43.718 2.96111 43.4688 2.92188L43.0938 2.85938L42.7188 2.80469C42.6671 2.79664 42.6059 2.79779 42.5156 2.83594L42.1406 2.99219L41.7656 3.15625C41.3949 3.31326 40.9992 3.39444 40.5938 3.38281L40.2188 3.36719L39.8438 3.35938C39.6355 3.35351 39.4275 3.3636 39.2188 3.38281L38.4688 3.44531C38.1068 3.47874 37.7447 3.4525 37.3906 3.36719L37.0156 3.28125L36.6406 3.1875C36.3771 3.124 36.1146 3.05186 35.8516 2.97656L35.4766 2.875L35.1016 2.76562C34.9208 2.71388 34.743 2.68225 34.5703 2.67188L34.1953 2.64844L33.8203 2.63281C33.7081 2.62625 33.5864 2.64157 33.4531 2.6875L33.0781 2.8125L32.7031 2.94531C32.3058 3.08244 31.8876 3.12036 31.4688 3.05469L31.0938 3L30.7188 2.9375C30.4338 2.89277 30.1497 2.83383 29.8672 2.75781L29.1172 2.55469C28.949 2.50938 28.7841 2.48463 28.625 2.48438H27.875C27.7418 2.48424 27.5967 2.51064 27.4453 2.5625L27.0703 2.6875L26.6953 2.82031C26.462 2.90022 26.2847 2.9608 26.2031 2.98438L26.125 3.00781L26.0469 3.02344C25.8542 3.07852 25.6869 3.06698 25.6328 3.0625C25.5539 3.05592 25.4806 3.04323 25.4219 3.03125C25.302 3.00668 25.163 2.97186 25.0234 2.92969L24.2578 2.69531C24.1904 2.67513 24.1474 2.6807 24.1016 2.69531L23.7344 2.8125L23.3594 2.92969C22.9965 3.04558 22.6225 3.09318 22.2422 3.07031L21.4609 3.02344C21.4073 3.02015 21.3628 3.02781 21.3047 3.0625L20.9609 3.26562L20.625 3.46875C20.2924 3.66774 19.9301 3.80789 19.5469 3.86719L19.1641 3.92188L18.7891 3.97656C18.5825 4.00845 18.3802 4.05913 18.1797 4.11719L17.8125 4.21875L17.4453 4.32812C17.3955 4.34282 17.3404 4.37166 17.2734 4.44531L17 4.75L16.7188 5.05469C16.4437 5.35943 16.1129 5.6036 15.7266 5.75781L15.3828 5.89844L15.0391 6.03125C14.7274 6.15564 14.3962 6.2411 14.0547 6.28906L13.6484 6.35156L13.2422 6.40625C13.0882 6.42777 12.9571 6.47112 12.8516 6.53125L12.1953 6.90625C12.1897 6.91613 12.1824 6.93628 12.1719 6.96875L12.0312 7.39844L11.8906 7.83594C11.7158 8.37689 11.3423 8.83092 10.7578 9.03906L10.375 9.17188L10 9.30469C9.82429 9.36726 9.66285 9.4515 9.52344 9.54688L9.20312 9.76562L8.90625 9.96094C8.90476 9.9666 8.90792 9.97522 8.90625 9.98438L8.75 10.8438C8.66429 11.3137 8.44981 11.7554 8.07031 12.0938L7.50781 12.5938C7.43704 12.6569 7.38732 12.7299 7.35156 12.8203L7.07031 13.5234C6.91478 13.9176 6.67167 14.2589 6.35156 14.5312L6.04688 14.7891L5.75 15.0391C5.65659 15.1185 5.5939 15.2021 5.55469 15.2891L5.39844 15.6328L5.25 15.9766C5.13909 16.2225 5.01644 16.4635 4.89062 16.7031L4.71094 17.0391L4.53906 17.375C4.48087 17.4857 4.4447 17.6085 4.42969 17.7422L4.38281 18.1172L4.34375 18.5C4.28949 18.9831 4.08062 19.41 3.76562 19.7578L3.47656 20.0703L3.32812 20.2266L3.4375 20.4922L3.60156 20.9141C3.7979 21.4085 3.82638 21.9645 3.57031 22.4922L3.39844 22.8438L3.23438 23.1953C3.12992 23.4106 3.02399 23.6325 2.92969 23.8594L2.78125 24.2266L2.64844 24.5156L2.83594 24.875L3.03906 25.25C3.23837 25.6282 3.35585 26.0458 3.35156 26.4844V26.8594L3.34375 27.2344C3.33953 27.6041 3.26751 27.9712 3.14062 28.3203L3.00781 28.6953L2.86719 29.0703C2.80846 29.2326 2.78154 29.3861 2.77344 29.5312L2.75 29.9062L2.73438 30.2812C2.72406 30.4679 2.72541 30.6558 2.75 30.8438L2.80469 31.2188L2.85156 31.5938C2.89496 31.9231 2.8964 32.256 2.85938 32.5859L2.82031 32.9609L2.77344 33.3359C2.75066 33.5376 2.74312 33.7445 2.75 33.9453L2.78125 34.6953C2.7924 35.0275 2.75715 35.3605 2.6875 35.6875L2.53125 36.4375C2.52298 36.4776 2.5181 36.5222 2.54688 36.5938L2.85938 37.3438C3.04875 37.8045 3.07673 38.3017 2.92969 38.7812L2.8125 39.1562L2.69531 39.5391C2.64615 39.6994 2.62338 39.8588 2.625 40.0078V40.3906L2.63281 40.7734C2.63483 40.9524 2.65263 41.1311 2.69531 41.3047L2.78906 41.6719L2.88281 42.0469C2.92401 42.2145 2.98561 42.3787 3.07031 42.5391L3.25 42.8828L3.4375 43.2344C3.64811 43.6342 3.73331 44.0689 3.70312 44.5156L3.67969 44.9219L3.64844 45.2969L3.91406 45.5781L4.20312 45.8828C4.45744 46.1548 4.66844 46.461 4.82031 46.7969L4.96875 47.1328L5.125 47.4766C5.28296 47.8259 5.36744 48.2019 5.39062 48.5859L5.41406 48.9922L5.42969 49.3594L5.72656 49.5938L6.04688 49.8438C6.26333 50.0124 6.47424 50.1809 6.67969 50.3438L7.28906 50.8281C7.72056 51.171 7.95001 51.644 8.01562 52.1562L8.07812 52.5859L8.13281 53.0156C8.14686 53.1253 8.17725 53.1609 8.1875 53.1719L8.44531 53.4453L8.70312 53.7266C8.88544 53.921 9.06673 54.1187 9.24219 54.3203L9.74219 54.8984C9.89063 55.069 10.0479 55.2329 10.2109 55.3906L10.4844 55.6562L10.7656 55.9219C10.7899 55.9452 10.8314 55.9813 10.9375 56L11.3594 56.0703L11.7812 56.1484C12.2077 56.2241 12.6106 56.3932 12.9531 56.6797L13.2422 56.9141L13.5234 57.1562C13.6255 57.2416 13.7457 57.3119 13.875 57.3594L14.2266 57.4844L14.5781 57.6172C14.9683 57.7604 15.3118 57.9882 15.5938 58.2891L15.8594 58.5781L16.0859 58.8203L16.4609 58.8047L16.8672 58.7891C17.2719 58.7717 17.659 58.8693 17.9922 59.0781L18.3125 59.3281L18.6016 59.6094L18.8984 59.8906C19.0369 60.0226 19.1843 60.1323 19.3359 60.2188L19.6719 60.4062L20.0078 60.6016C20.0634 60.6333 20.1172 60.6445 20.1875 60.6406L20.5781 60.6172L20.9766 60.6016C21.3572 60.5796 21.731 60.6254 22.0938 60.7422L22.4609 60.8516L22.8203 60.9688C22.918 61.0002 23.0165 61.0139 23.125 61L23.5078 60.9453L23.8906 60.8984C24.152 60.8638 24.4163 60.8335 24.6719 60.8047L25.0391 60.7578L25.4141 60.7188C25.8317 60.6716 26.2443 60.7275 26.6328 60.875L27.0078 61.0156L27.3828 61.1641H27.4141L28.1641 60.8672C28.536 60.7233 28.9277 60.6584 29.3281 60.6797L29.7031 60.7031L30.0781 60.7188C30.2588 60.7284 30.4422 60.7234 30.625 60.6953L31 60.6328L31.375 60.5781C31.8599 60.5038 32.3262 60.6026 32.7422 60.8203L33.1172 61.0156L33.4141 61.1719L33.7109 61.0312L34.0859 60.8438C34.5126 60.6363 34.986 60.5608 35.4688 60.6562L35.8438 60.7344L36.2188 60.8047C36.4469 60.8502 36.6788 60.8923 36.9062 60.9219L37.6562 61.0156C37.9379 61.0523 38.2199 61.108 38.5 61.1719L38.875 61.2578L39.25 61.3359C39.3696 61.3632 39.4857 61.3725 39.6016 61.3516L40.3516 61.2109C40.6238 61.1618 40.8989 61.123 41.1719 61.0938L41.9219 61.0156C42.1306 60.9932 42.3436 60.955 42.5547 60.9062L43.3047 60.7344C43.8316 60.6136 44.3351 60.7233 44.7734 60.9766L45.1484 61.1875L45.5234 61.4062C45.6406 61.4741 45.7168 61.4851 45.7578 61.4844L46.5078 61.4688C46.5292 61.4683 46.596 61.4653 46.7188 61.3828L47.0938 61.125L47.4688 60.875C47.8977 60.5869 48.4172 60.4402 48.9766 60.5547L49.3516 60.625L49.7266 60.7031C49.9035 60.7393 50.0776 60.754 50.25 60.75L51 60.7344C51.2168 60.7291 51.4387 60.7144 51.6562 60.6875L52.4062 60.5938C52.6834 60.5596 52.9645 60.5339 53.2422 60.5234L53.6172 60.5156L53.9922 60.5C54.4376 60.4839 54.8587 60.5949 55.2422 60.7969L55.6172 60.9922L55.9375 61.1562L56.2344 61.0234L56.6094 60.8516C56.9844 60.6799 57.3871 60.5822 57.8047 60.5938L58.1797 60.6094L58.5547 60.6172C58.9139 60.6272 59.2678 60.6926 59.6094 60.8125L59.9844 60.9453L60.3438 61.0703H60.3516L60.7266 60.8984L61.1016 60.7188L61.5547 60.5781C61.8547 60.5265 62.1519 60.553 62.4297 60.6562L62.8359 60.8672L63.2109 61.1172L63.4844 61.2969L63.7188 61.1875L64.0938 61.0078C64.4336 60.8435 64.7924 60.7304 65.1641 60.6875L65.5391 60.6484L65.9141 60.6016C66.1745 60.5715 66.4348 60.5438 66.6953 60.5234L67.0703 60.5L67.4453 60.4688C67.8222 60.4394 68.1999 60.4784 68.5625 60.5859L68.9375 60.6953L69.3125 60.8125C69.4187 60.8436 69.5156 60.8442 69.6094 60.8281L70.3594 60.7031C70.7921 60.6292 71.219 60.6766 71.625 60.8281L72.375 61.1094C72.4718 61.1455 72.5475 61.144 72.6172 61.1328L72.9922 61.0781L73.3672 61.0156C73.5652 60.9838 73.7654 60.9326 73.9688 60.8672L74.3438 60.75L74.7188 60.625C75.113 60.4981 75.526 60.4652 75.9375 60.5312L76.6875 60.6562C76.9533 60.699 77.2191 60.7474 77.4844 60.8047L77.8594 60.8828L78.2344 60.9688C78.486 61.0232 78.7406 61.0765 78.9922 61.1328L79.3672 61.2188L79.7422 61.2969C79.9238 61.3375 80.1048 61.358 80.2812 61.3594L80.6562 61.3672H81.0312C81.2331 61.3686 81.4375 61.3555 81.6406 61.3281L82.0156 61.2812L82.3906 61.2266C82.6555 61.1908 82.9224 61.1635 83.1875 61.1406L83.9375 61.0781C84.2654 61.0499 84.5957 61.0608 84.9219 61.1094L85.6719 61.2188C85.8198 61.2408 85.9687 61.2426 86.1172 61.2188L86.8672 61.0938C87.0529 61.0638 87.2431 61.0154 87.4375 60.9453L87.8125 60.8125L88.1875 60.6719L88.6016 60.5781C89.0084 60.5291 89.407 60.6184 89.7656 60.8203L90.1406 61.0312L90.4688 61.2109L90.7656 61.0938L91.1406 60.9375C91.6294 60.734 92.1543 60.7259 92.6484 60.9219L93.3984 61.2188C93.5374 61.2735 93.6616 61.2975 93.7734 61.2969H94.1484L94.5234 61.2891C94.635 61.2881 94.7583 61.2682 94.8984 61.2109L95.2734 61.0547L95.6484 60.9062C96.0451 60.7442 96.4665 60.6803 96.8984 60.7344L97.6484 60.8281C98.0022 60.8728 98.349 60.9706 98.6797 61.1172L99.0547 61.2891L99.4297 61.4531C99.5712 61.516 99.6976 61.5441 99.8047 61.5469L100.555 61.5625C100.612 61.5636 100.696 61.5538 100.812 61.4922L101.188 61.2891L101.562 61.0938C101.885 60.9242 102.222 60.8007 102.57 60.7266L102.945 60.6406L103.32 60.5625L103.711 60.5234C104.094 60.5205 104.457 60.6297 104.781 60.8203L105.156 61.0391L105.445 61.2109L105.719 61.0859L106.094 60.9062C106.49 60.7171 106.926 60.6284 107.375 60.6719L107.75 60.7031L108.125 60.7422C108.378 60.7667 108.63 60.7931 108.883 60.8203L109.633 60.8984C109.864 60.9233 110.098 60.9417 110.328 60.9531L110.703 60.9766L111.078 60.9922C111.333 61.0048 111.589 61.0216 111.844 61.0391L112.594 61.0859C112.79 61.0994 112.991 61.1042 113.188 61.0859L113.562 61.0469L113.938 61.0156C114.113 60.9991 114.292 60.9563 114.477 60.8984L115.227 60.6641C115.594 60.5487 115.975 60.5065 116.359 60.5391L117.109 60.6016C117.418 60.6279 117.727 60.6855 118.031 60.7656L118.406 60.8594L118.781 60.9609C118.83 60.9736 118.874 60.9756 118.938 60.9531L119.312 60.8125L119.688 60.6797C120.087 60.5367 120.506 60.4963 120.93 60.5625L121.305 60.6172L121.68 60.6797C121.901 60.7144 122.123 60.735 122.344 60.75L122.719 60.7734L123.094 60.8047C123.397 60.8254 123.7 60.8681 124 60.9375L124.75 61.1094C125.015 61.1709 125.282 61.2455 125.547 61.3203L125.922 61.4219L126.273 61.5234C126.278 61.5214 126.287 61.5209 126.297 61.5156L127.047 61.1094C127.442 60.8941 127.885 60.778 128.352 60.8125L128.727 60.8359L129.102 60.8672C129.237 60.877 129.378 60.8666 129.523 60.8281L130.273 60.625C130.727 60.5057 131.189 60.5348 131.625 60.6953L132 60.8359L132.375 60.9688C132.543 61.0304 132.7 61.0666 132.852 61.0781L133.227 61.1094L133.602 61.1328C133.823 61.1496 134.044 61.1583 134.266 61.1562H134.641L135.016 61.1484C135.348 61.1452 135.682 61.1888 136.008 61.2656L136.383 61.3516L136.742 61.4297C136.749 61.4267 136.761 61.4287 136.773 61.4219L137.523 60.9844C137.877 60.779 138.262 60.6364 138.672 60.5938L139.422 60.5156C139.958 60.4601 140.448 60.6331 140.852 60.9141L141.227 61.1797L141.383 61.2891L141.562 61.1641L141.938 60.8906L142.297 60.6719C142.677 60.4952 143.114 60.4374 143.57 60.5781L144.32 60.8125C144.583 60.8937 144.847 60.9781 145.109 61.0703L145.484 61.2031L145.773 61.3047L146.117 61.0938L146.492 60.8594C146.842 60.6394 147.245 60.5209 147.664 60.5547L148.086 60.6406L148.461 60.7656L148.836 60.8828C148.978 60.9291 149.109 60.9498 149.234 60.9453L149.984 60.9141C150.186 60.9062 150.39 60.8809 150.594 60.8438L150.969 60.7812L151.344 60.7109C151.682 60.649 152.026 60.633 152.367 60.6641L152.742 60.6953L153.117 60.7344C153.265 60.7477 153.417 60.7358 153.57 60.7031L153.945 60.625L154.32 60.5391L154.703 60.5C155.083 60.4945 155.448 60.5964 155.773 60.7812L156.148 61L156.523 61.2109C156.67 61.2935 156.788 61.3258 156.883 61.3359L157.633 61.4141C157.849 61.4371 158.066 61.4524 158.281 61.4531H159.031C159.257 61.4538 159.485 61.453 159.711 61.4375L160.086 61.4062L160.461 61.3828C160.782 61.3609 161.103 61.3745 161.422 61.4219L162.172 61.5312C162.261 61.5445 162.353 61.5352 162.461 61.5L162.836 61.3828L163.211 61.2578C163.621 61.1229 164.05 61.0926 164.477 61.1797L165.227 61.3359C165.451 61.3818 165.675 61.4178 165.898 61.4453L166.648 61.5391C166.862 61.5654 167.076 61.5746 167.289 61.5781L168.039 61.5938C168.266 61.5973 168.499 61.5902 168.727 61.5781L169.102 61.5625L169.477 61.5391C169.517 61.5363 169.599 61.5217 169.727 61.4375L170.477 60.9375C170.847 60.6927 171.271 60.5275 171.734 60.5078L172.484 60.4766C172.771 60.4644 173.057 60.472 173.344 60.4922L173.719 60.5156L174.094 60.5469C174.288 60.5606 174.485 60.5581 174.68 60.5391L175.43 60.4609C175.746 60.43 176.067 60.436 176.383 60.4688L177.133 60.5469C177.313 60.5652 177.492 60.5579 177.672 60.5391L178.422 60.4609C178.707 60.4312 178.996 60.4213 179.281 60.4219H180.031C180.518 60.4235 180.957 60.5943 181.336 60.8516L181.711 61.1016L181.914 61.2422L182.117 61.1172L182.492 60.8828L182.906 60.6797C183.058 60.6308 183.225 60.6025 183.398 60.6016C183.57 60.6009 183.732 60.6328 183.883 60.6797L184.305 60.875L184.68 61.1094L184.906 61.25L185.141 61.1172L185.516 60.8984C186.034 60.5925 186.637 60.5446 187.203 60.8125L187.578 60.9922L187.93 61.1562L188.289 61.0234L188.664 60.8828L189.078 60.7734C189.352 60.734 189.624 60.7545 189.883 60.8359L190.266 61L191.016 61.4219L191.07 61.4453L192.945 61.0547L193.32 60.9688C193.683 60.8918 194.055 60.8771 194.422 60.9297L195.172 61.0391C195.429 61.0759 195.689 61.1209 195.945 61.1641L196.695 61.2891C196.93 61.3284 197.164 61.361 197.398 61.3906L198.148 61.4844C198.307 61.5043 198.466 61.5 198.625 61.4766L199.375 61.3672C199.493 61.3495 199.638 61.3065 199.797 61.2188L200.172 61.0156L200.547 60.8047C201.021 60.5442 201.563 60.471 202.102 60.6562L202.477 60.7891L202.852 60.9141C202.913 60.9352 202.957 60.936 203.008 60.9219L203.383 60.8203L203.758 60.7109C204.098 60.6156 204.446 60.5701 204.797 60.5781L205.547 60.5938C205.967 60.6038 206.367 60.7232 206.734 60.9141L207.109 61.1094L207.398 61.2578L207.695 61.1172L208.07 60.9219C208.501 60.7019 208.982 60.6169 209.477 60.7188L210.227 60.875C210.544 60.9408 210.858 61.0421 211.164 61.1719L211.914 61.4844C212.057 61.545 212.185 61.5759 212.297 61.5781L213.047 61.5938C213.105 61.5948 213.187 61.5775 213.305 61.5156L213.68 61.3203L214.055 61.1172C214.458 60.9035 214.898 60.8494 215.32 60.9531L215.734 61.1094L216.109 61.3047L216.547 61.5234H216.562L216.938 61.4375L217.312 61.3594C217.556 61.3067 217.803 61.2524 218.047 61.1953L218.422 61.1016L218.797 61.0156C219.166 60.9291 219.546 60.9147 219.922 60.9688L220.672 61.0781C220.816 61.0986 220.963 61.0955 221.109 61.0703L221.484 61L221.859 60.9375C222.276 60.8661 222.695 60.8992 223.094 61.0312L223.844 61.2812C223.877 61.2919 223.897 61.2958 223.938 61.2812L224.312 61.1406L224.688 61.0078C225.154 60.8391 225.642 60.8341 226.109 61L226.484 61.1406L226.859 61.2734C226.981 61.3168 227.089 61.3282 227.188 61.3203L227.938 61.2578C228.241 61.2319 228.548 61.2272 228.852 61.25L229.227 61.2812L229.602 61.3047C229.837 61.3224 230.077 61.336 230.312 61.3438L230.688 61.3594L231.062 61.3672C231.341 61.3764 231.621 61.3962 231.898 61.4297L232.648 61.5234C232.856 61.5484 233.067 61.5638 233.273 61.5625L233.648 61.5547H235.523C235.616 61.5546 235.727 61.5296 235.859 61.4688L236.609 61.125C236.969 60.9599 237.352 60.8621 237.75 60.8516L238.5 60.8359C238.909 60.8251 239.308 60.9081 239.68 61.0703L240.055 61.2344L240.312 61.3438L240.609 61.1562L240.984 60.9141C241.309 60.7038 241.679 60.5653 242.078 60.5625L242.484 60.6094L243.234 60.7656C243.373 60.7948 243.506 60.7987 243.641 60.7812L244.016 60.7344L244.391 60.6797C244.791 60.6264 245.194 60.6687 245.578 60.7891L246.328 61.0234C246.459 61.0642 246.581 61.0798 246.695 61.0703L247.445 61.0078C247.637 60.9918 247.834 60.9566 248.031 60.9062L248.406 60.8125L248.781 60.7109C249.161 60.6142 249.55 60.5932 249.938 60.6562L250.688 60.7812C250.793 60.7984 250.901 60.797 251.016 60.7656L251.766 60.5625C252.136 60.4618 252.517 60.4311 252.898 60.4766L253.273 60.5156L253.648 60.5625C253.83 60.5839 254.014 60.5855 254.195 60.5703L254.945 60.5078C255.311 60.4775 255.676 60.5086 256.031 60.6016L256.781 60.8047C256.929 60.8432 257.073 60.853 257.211 60.8438L257.961 60.7969C258.29 60.775 258.619 60.7877 258.945 60.8438L259.32 60.9141L259.695 60.9766C259.971 61.024 260.249 61.0789 260.523 61.1484L260.898 61.2422L261.266 61.3359C261.266 61.336 261.282 61.3362 261.312 61.3203L262.062 60.9297C262.5 60.7026 262.996 60.6208 263.5 60.7344L264.25 60.9062C264.467 60.9549 264.684 60.9893 264.898 61.0156L265.648 61.1094C265.874 61.137 266.103 61.1529 266.328 61.1641L266.703 61.1875L267.078 61.2031C267.145 61.206 267.229 61.195 267.344 61.1406L268.094 60.7812C268.515 60.5803 268.978 60.5007 269.453 60.5859L270.203 60.7266C270.541 60.7873 270.868 60.8937 271.188 61.0391L271.562 61.2031L271.938 61.375C272.088 61.4438 272.225 61.4761 272.344 61.4844L272.719 61.5156L273.094 61.5391C273.273 61.5513 273.452 61.5417 273.633 61.5156L274.383 61.4062C274.707 61.3594 275.033 61.3551 275.359 61.3828L276.109 61.4453C276.194 61.4525 276.291 61.4433 276.406 61.3984L277.156 61.1016C277.458 60.9826 277.768 60.8907 278.078 60.8281L278.828 60.6719C279.227 60.5917 279.63 60.6028 280.023 60.7031L280.398 60.8047L280.773 60.8984C280.98 60.9513 281.187 60.9924 281.391 61.0156L282.141 61.0938C282.213 61.102 282.3 61.0977 282.406 61.0547L282.781 60.9062L283.156 60.75L283.602 60.6328C283.901 60.597 284.192 60.6478 284.461 60.7578L284.844 60.9688L285.594 61.4844C285.617 61.5007 285.637 61.5104 285.648 61.5156L286 61.4688L286.375 61.4062C286.479 61.3902 286.61 61.3508 286.766 61.2578L287.516 60.8047C287.916 60.5657 288.375 60.4384 288.867 60.4844L289.242 60.5156L289.617 60.5547C289.884 60.58 290.155 60.6093 290.422 60.6484L291.172 60.7578C291.451 60.7987 291.73 60.8562 292.008 60.9219L292.758 61.0938C293.015 61.1548 293.274 61.2215 293.531 61.2891L293.906 61.3906L294.195 61.4609L294.562 61.1953L294.938 60.9219C295.262 60.6846 295.647 60.521 296.07 60.5156L296.508 60.5703L297.258 60.7422C297.463 60.7906 297.665 60.8252 297.867 60.8438L298.242 60.8828L298.617 60.9141C298.82 60.9327 299.024 60.9393 299.227 60.9297L299.602 60.9062L299.977 60.8906C300.281 60.8761 300.587 60.8873 300.891 60.9219L301.266 60.9609L301.641 61.0078C301.93 61.0409 302.22 61.0883 302.508 61.1562L302.883 61.25L303.258 61.3359C303.447 61.3806 303.636 61.4066 303.82 61.4141L304.57 61.4453C304.802 61.4547 305.034 61.4551 305.266 61.4531H306.016C306.178 61.4517 306.345 61.4279 306.516 61.3828L307.266 61.1797C307.687 61.0676 308.119 61.0727 308.539 61.1875L308.914 61.2891L309.273 61.3828C309.279 61.3805 309.288 61.38 309.297 61.375L310.047 60.9688L310.477 60.7969C310.912 60.6862 311.363 60.7491 311.773 60.9844L312.148 61.2031L312.438 61.3672L312.703 61.2344L313.078 61.0547C313.446 60.8741 313.843 60.7692 314.258 60.7656L314.633 60.7578H315.008C315.164 60.7563 315.316 60.7308 315.469 60.6875L315.836 60.5859L316.195 60.4844C316.656 60.3533 317.121 60.388 317.555 60.5312L317.961 60.6641L318.32 60.7734L318.578 60.6094L318.914 60.3828C319.116 60.248 319.313 60.1061 319.5 59.9609L319.812 59.7266L320.117 59.4844C320.398 59.2668 320.71 59.0923 321.039 58.9688L321.383 58.8359L321.719 58.7109C321.927 58.6327 322.141 58.5449 322.344 58.4531L322.672 58.3047L323.008 58.1562C323.373 57.9912 323.766 57.9125 324.164 57.9062L324.586 57.8984L324.938 57.8906L325.133 57.6484L325.375 57.3281C325.582 57.0537 325.815 56.8043 326.078 56.5938L326.367 56.3594L326.656 56.1328C326.836 55.9887 327.015 55.8397 327.188 55.6875L327.469 55.4375L327.742 55.1953C327.979 54.9862 328.239 54.8003 328.516 54.6406L328.844 54.4531L329.18 54.2578C329.346 54.1618 329.498 54.052 329.641 53.9297L329.93 53.6797L330.219 53.4375C330.245 53.4148 330.274 53.3791 330.297 53.2969L330.398 52.8984L330.508 52.5C330.643 52.0012 330.94 51.5839 331.383 51.3047L331.719 51.0938L332.062 50.8828C332.15 50.8275 332.195 50.769 332.227 50.7109L332.406 50.375L332.586 50.0469C332.67 49.89 332.739 49.7233 332.789 49.5469L332.992 48.8125C333.133 48.3155 333.444 47.9266 333.844 47.6484L334.203 47.3984L334.555 47.1562C334.572 47.1443 334.581 47.1302 334.586 47.125L334.664 46.7656L334.742 46.3906C334.799 46.1224 334.86 45.8542 334.93 45.5938L335.031 45.2266L335.125 44.8594C335.152 44.7569 335.162 44.6404 335.141 44.5L335.086 44.1016L335.023 43.7031C334.939 43.141 335.097 42.6124 335.445 42.1875L335.992 41.5312V41.5156L335.969 41.1562L335.93 40.7734C335.897 40.4177 335.917 40.0594 335.992 39.7109L336.078 39.3438L336.156 38.9688C336.185 38.8321 336.19 38.6929 336.172 38.5547L336.078 37.8047C336.035 37.4674 336.033 37.1257 336.078 36.7891L336.125 36.4141L336.18 36.0391C336.209 35.8174 336.231 35.596 336.242 35.375L336.258 35L336.281 34.625C336.287 34.5147 336.266 34.3911 336.219 34.2578L335.953 33.5078C335.831 33.1636 335.765 32.8084 335.758 32.4453L335.742 31.6953C335.736 31.3821 335.759 31.0683 335.812 30.7578L335.938 30.0078C335.98 29.7618 336.023 29.5116 336.062 29.2656L336.125 28.8906L336.18 28.5156C336.223 28.2455 336.276 27.9725 336.336 27.7031L336.508 26.9531C336.535 26.8271 336.536 26.7036 336.516 26.5781L336.453 26.2031L336.398 25.8203C336.381 25.7131 336.336 25.5924 336.25 25.4531L336.031 25.0938L335.805 24.7266C335.525 24.272 335.426 23.7475 335.562 23.2109L335.664 22.8203L335.758 22.4531L335.562 22.1406L335.352 21.8047C335.175 21.5188 335.034 21.2171 334.93 20.9062L334.812 20.5547L334.695 20.2109C334.53 19.7183 334.581 19.2193 334.734 18.7734L334.883 18.3281L335.023 17.9219L334.867 17.7031L334.641 17.3828C334.484 17.1587 334.331 16.9351 334.188 16.7109L333.781 16.0703C333.596 15.7825 333.447 15.4753 333.344 15.1484L333.234 14.7812L333.117 14.4141C333.072 14.2724 333.006 14.1469 332.922 14.0312L332.695 13.7188L332.477 13.4141C332.356 13.249 332.221 13.0918 332.078 12.9453L331.812 12.6797L331.547 12.4062C331.316 12.1704 331.116 11.9072 330.945 11.625L330.75 11.3047L330.555 10.9766C330.52 10.9191 330.471 10.8716 330.391 10.8281L330.039 10.6406L329.695 10.4531C329.388 10.2871 329.106 10.0856 328.859 9.84375L328.594 9.57812L328.328 9.32031C328.034 9.03007 327.823 8.679 327.68 8.29688L327.531 7.89062L327.375 7.48438C327.332 7.37037 327.29 7.32136 327.258 7.29688L326.953 7.07031L326.641 6.83594C326.554 6.77095 326.451 6.71874 326.32 6.6875L325.922 6.59375L325.531 6.5C325.165 6.41329 324.821 6.26961 324.508 6.0625L324.188 5.85938L323.875 5.64844C323.704 5.53548 323.528 5.43289 323.344 5.34375L323 5.17969L322.664 5.01562C322.512 4.94197 322.35 4.88752 322.18 4.85156L321.805 4.77344L321.438 4.69531C321.178 4.64055 320.916 4.57803 320.664 4.51562L320.305 4.42969L319.945 4.33594C319.583 4.24627 319.24 4.09273 318.93 3.88281L318.602 3.66406L318.273 3.4375C318.169 3.36766 318.068 3.32879 317.969 3.3125L317.602 3.25L317.227 3.1875C317.165 3.17741 317.081 3.18285 316.961 3.22656L316.57 3.36719L316.172 3.51562C315.628 3.71364 315.062 3.65968 314.562 3.35938L314.203 3.14844L313.852 2.92969C313.744 2.86499 313.66 2.84687 313.594 2.84375L313.211 2.82812L312.836 2.8125C312.583 2.80237 312.33 2.79386 312.078 2.78125L311.703 2.75781L311.328 2.74219C311.129 2.73221 310.926 2.73754 310.727 2.75781L309.977 2.83594C309.828 2.851 309.668 2.88459 309.5 2.95312L309.125 3.10938L308.75 3.25781C308.348 3.42131 307.921 3.49111 307.484 3.42969L306.734 3.32031C306.354 3.26658 305.99 3.13713 305.648 2.95312L304.898 2.54688C304.822 2.50607 304.793 2.51496 304.789 2.51562L304.039 2.64062C303.716 2.69508 303.388 2.71475 303.062 2.69531L302.688 2.67188L302.312 2.65625C302.285 2.65503 302.227 2.65223 302.125 2.71094L301.375 3.14844C300.886 3.4305 300.321 3.4965 299.766 3.28125L299.391 3.14062L299.016 2.99219L298.266 3.32031C297.775 3.52916 297.248 3.53563 296.75 3.33594L296.375 3.1875L296 3.03125C295.87 2.97951 295.757 2.96575 295.656 2.96875L295.281 2.97656L294.906 2.99219C294.724 2.99777 294.539 3.01981 294.352 3.0625L293.602 3.23438C293.212 3.32373 292.813 3.32435 292.422 3.24219L291.672 3.08594C291.359 3.0201 291.045 2.92895 290.742 2.80469L289.992 2.49219C289.972 2.48428 289.959 2.48517 289.953 2.48438C289.95 2.48423 289.939 2.4794 289.922 2.48438L289.172 2.71875C288.878 2.80947 288.58 2.87482 288.281 2.92188L287.531 3.04688C287.325 3.07935 287.116 3.12589 286.906 3.1875L286.156 3.40625C285.67 3.54864 285.18 3.50238 284.727 3.30469L284.352 3.14844L283.977 2.98438L283.93 2.96875C283.928 2.96898 283.922 2.96637 283.914 2.96875L283.539 3.08594L283.164 3.19531C282.78 3.31153 282.383 3.3458 281.984 3.28906L281.609 3.24219L281.234 3.1875C281.082 3.1658 280.927 3.16392 280.773 3.1875L280.398 3.24219L280.023 3.30469C279.647 3.36207 279.269 3.3434 278.898 3.25781L278.148 3.08594C278 3.05178 277.853 3.04195 277.711 3.05469L277.336 3.08594L276.961 3.125C276.608 3.1563 276.253 3.131 275.906 3.05469L275.531 2.96875L275.156 2.89062C274.991 2.85466 274.831 2.83704 274.672 2.84375L274.297 2.85938L273.922 2.88281C273.602 2.89686 273.278 2.87273 272.961 2.82031L272.211 2.69531C272.015 2.66297 271.819 2.64911 271.625 2.64844H270.875C270.837 2.64834 270.761 2.65403 270.641 2.72656L269.891 3.17969C269.485 3.42461 269.017 3.56119 268.516 3.50781L267.766 3.42969C267.588 3.411 267.412 3.41018 267.234 3.42969L266.484 3.50781C265.927 3.56903 265.433 3.37673 265.031 3.07812L264.656 2.80469L264.281 2.52344C264.244 2.49574 264.216 2.48227 264.203 2.47656L263.852 2.50781L263.477 2.54688C263.344 2.56008 263.198 2.60049 263.039 2.67188L262.664 2.84375L262.289 3.00781C261.965 3.15366 261.625 3.25739 261.281 3.3125L260.531 3.4375C260.223 3.48678 259.912 3.50754 259.602 3.5L259.227 3.49219L258.852 3.47656C258.559 3.46941 258.267 3.44265 257.977 3.39844L257.227 3.28906C256.881 3.23645 256.544 3.12935 256.219 2.98438L255.844 2.82031L255.5 2.66406L255.156 2.82031L254.781 2.99219C254.458 3.13708 254.125 3.24263 253.781 3.29688L253.406 3.35156L253.031 3.41406C252.705 3.46554 252.375 3.47794 252.047 3.45312L251.672 3.42188L251.297 3.39844C250.894 3.36757 250.512 3.24284 250.156 3.05469L249.781 2.85938L249.406 2.65625C249.266 2.58247 249.153 2.56029 249.062 2.55469L248.312 2.50781C248.311 2.50773 248.302 2.50387 248.289 2.50781C248.271 2.51359 248.238 2.52911 248.188 2.5625L247.812 2.82031L247.438 3.07031C247.004 3.3627 246.472 3.51664 245.906 3.39062L245.156 3.21875C245.013 3.18696 244.872 3.17979 244.734 3.19531L244.359 3.24219L243.984 3.28125C243.72 3.31109 243.452 3.33415 243.188 3.35156L242.438 3.39844C242.204 3.41387 241.969 3.4349 241.734 3.46094L241.359 3.50781L240.984 3.54688C240.446 3.60642 239.959 3.43753 239.555 3.15625L239.18 2.89062L238.891 2.6875L238.664 2.79688L238.289 2.96875C237.864 3.16237 237.401 3.23436 236.93 3.14062L236.18 2.98438C235.983 2.94528 235.787 2.92791 235.594 2.92188L235.219 2.90625L234.844 2.89844C234.737 2.8951 234.619 2.90911 234.484 2.96094L234.109 3.10938L233.734 3.25C233.214 3.45082 232.676 3.41822 232.188 3.17969L231.812 3L231.438 2.8125C231.256 2.72387 231.083 2.6659 230.922 2.63281L230.547 2.55469L230.188 2.47656C230.179 2.48013 230.168 2.49584 230.148 2.50781L229.398 2.96094C228.947 3.23803 228.412 3.35514 227.859 3.20312L227.109 3C227.031 2.97849 226.96 2.97906 226.883 3L226.508 3.10156L226.133 3.19531C225.598 3.33914 225.076 3.24249 224.625 2.98438L224.25 2.77344L223.992 2.625L223.742 2.77344L223.367 2.98438C222.835 3.28754 222.231 3.31455 221.672 3.03125L220.922 2.65625C220.802 2.59535 220.714 2.57648 220.648 2.57812L220.273 2.59375L219.898 2.60156C219.828 2.60363 219.731 2.625 219.602 2.69531L218.852 3.10156C218.364 3.36703 217.808 3.42613 217.266 3.21875L216.891 3.07812L216.516 2.92969C216.337 2.8614 216.165 2.81777 216 2.79688L215.25 2.70312C215.138 2.68892 215.023 2.69912 214.898 2.73438L214.523 2.83594L214.148 2.94531C213.768 3.05306 213.377 3.07968 212.984 3.02344L212.234 2.91406C211.974 2.87663 211.713 2.83503 211.453 2.78906L211.078 2.72656L210.703 2.65625C210.47 2.615 210.233 2.58349 210 2.55469L209.625 2.50781L209.266 2.46094C209.256 2.46427 209.229 2.47956 209.188 2.50781L208.812 2.75781L208.438 3.01562C208.059 3.27463 207.62 3.44993 207.133 3.45312H206.383C205.93 3.45559 205.504 3.32786 205.125 3.10938L204.75 2.89062L204.375 2.67969L204.312 2.64844L203.938 2.71875L203.562 2.79688C203.203 2.86622 202.839 2.86768 202.477 2.8125L201.727 2.70312C201.499 2.66833 201.266 2.63591 201.039 2.61719L200.289 2.55469C200.088 2.5383 199.888 2.54222 199.688 2.55469L198.938 2.60156C198.657 2.61904 198.375 2.618 198.094 2.60938L197.719 2.60156L197.344 2.58594C197.22 2.58221 197.088 2.60041 196.945 2.64844L196.57 2.78125L196.195 2.90625C195.876 3.01417 195.55 3.08661 195.219 3.11719L194.469 3.17969C194.076 3.21575 193.686 3.16903 193.312 3.04688L192.938 2.92969L192.562 2.80469C192.408 2.75437 192.264 2.72728 192.125 2.72656H191.375C191.231 2.72614 191.079 2.749 190.922 2.79688L190.172 3.03125C189.745 3.16231 189.3 3.1703 188.867 3.05469L188.117 2.85156C188.02 2.82556 187.928 2.82354 187.836 2.84375L187.461 2.92969L187.086 3.00781C186.69 3.09446 186.285 3.09355 185.891 3L185.516 2.91406L185.141 2.82031C185.073 2.80482 185.009 2.81064 184.93 2.83594L184.18 3.07031C183.803 3.19049 183.41 3.23832 183.016 3.19531L182.641 3.14844L182.266 3.10938C182.139 3.09569 182.011 3.10631 181.875 3.14062L181.125 3.32812C180.769 3.41877 180.404 3.45377 180.039 3.42188L179.664 3.39062L179.289 3.35156C179.059 3.33131 178.824 3.31887 178.594 3.3125L177.844 3.29688C177.669 3.29229 177.491 3.30141 177.312 3.33594L176.938 3.41406L176.562 3.48438C176.127 3.56811 175.693 3.52499 175.281 3.375L174.906 3.24219L174.531 3.10156C174.381 3.04685 174.24 3.02521 174.109 3.02344L173.734 3.01562H173.359C173.031 3.011 172.705 2.96349 172.383 2.88281L171.633 2.69531C171.463 2.65257 171.295 2.63147 171.133 2.63281H170.758L170.383 2.64062C170.262 2.64167 170.13 2.66236 169.984 2.71875L169.609 2.86719L169.234 3.00781C168.916 3.13148 168.591 3.22131 168.258 3.26562L167.883 3.3125L167.508 3.36719C167.07 3.42535 166.642 3.35457 166.242 3.1875L165.492 2.875C165.431 2.84921 165.397 2.85199 165.367 2.85938L164.617 3.04688C164.258 3.13709 163.892 3.17101 163.523 3.13281L163.148 3.08594L162.773 3.04688C162.54 3.02241 162.304 3.00569 162.07 2.99219L161.695 2.96875L161.32 2.95312C160.997 2.9345 160.675 2.87688 160.359 2.78906L159.984 2.6875L159.609 2.57812C159.529 2.55557 159.453 2.55777 159.375 2.57812L159 2.67188L158.625 2.77344C158.195 2.88477 157.759 2.87052 157.336 2.74219L156.961 2.63281L156.586 2.51562C156.453 2.47518 156.329 2.46667 156.211 2.47656L155.461 2.53906C155.336 2.54969 155.195 2.58521 155.039 2.65625L154.289 3C153.8 3.22265 153.266 3.24505 152.758 3.04688L152.008 2.75C151.929 2.71974 151.872 2.71684 151.82 2.72656L151.445 2.80469L151.07 2.875C150.678 2.95197 150.279 2.94411 149.891 2.85156L149.516 2.76562L149.141 2.67188C149.073 2.6561 149.008 2.65558 148.93 2.67969L148.555 2.80469L148.18 2.92188C147.751 3.05754 147.304 3.06946 146.867 2.95312L146.117 2.75C146.111 2.75236 146.104 2.76006 146.094 2.76562L145.719 2.96875L145.344 3.16406C145.077 3.30537 144.77 3.38792 144.438 3.36719C144.109 3.3466 143.82 3.22892 143.578 3.07031L143.203 2.82812L142.828 2.57812C142.708 2.49932 142.639 2.50012 142.617 2.5L142.242 2.49219H141.867C141.752 2.49187 141.625 2.51575 141.484 2.57031L141.109 2.71094L140.734 2.85938C140.472 2.96121 140.208 3.05896 139.945 3.14844L139.57 3.27344L139.195 3.40625C138.812 3.5363 138.412 3.57946 138.008 3.53125L137.633 3.48438L137.258 3.44531C136.985 3.41266 136.709 3.3638 136.438 3.3125L135.688 3.17188C135.557 3.14751 135.427 3.1489 135.297 3.17188L134.922 3.24219L134.547 3.30469C134.276 3.35248 134.006 3.39253 133.734 3.42188L132.984 3.5C132.599 3.54163 132.215 3.50781 131.844 3.39844L131.469 3.28906L131.094 3.17188C130.991 3.14161 130.895 3.13933 130.805 3.15625L130.055 3.29688C129.53 3.39395 129.034 3.2725 128.609 3.01562L128.234 2.78125L127.859 2.55469C127.84 2.54293 127.82 2.54191 127.812 2.53906V2.53125L127.469 2.61719L127.094 2.70312C126.794 2.76976 126.491 2.81011 126.188 2.82812L125.438 2.875C125.229 2.88726 125.015 2.90718 124.805 2.94531L124.055 3.08594C123.826 3.12746 123.597 3.17813 123.367 3.23438L122.992 3.32031L122.617 3.41406C122.151 3.52846 121.678 3.48334 121.242 3.30469L120.867 3.15625L120.492 3C120.402 2.96338 120.337 2.95985 120.281 2.96875L119.906 3.03125L119.531 3.08594C119.238 3.13283 118.944 3.16523 118.648 3.17188L117.898 3.1875C117.696 3.19201 117.493 3.20923 117.289 3.24219L116.539 3.36719C116.043 3.44784 115.568 3.33782 115.148 3.10938L114.398 2.70312C114.275 2.63573 114.186 2.61715 114.125 2.61719L113.75 2.625H113.375C113.261 2.62515 113.133 2.64679 112.992 2.70312L112.242 3C111.953 3.11511 111.662 3.20859 111.367 3.28125L110.617 3.46875C110.034 3.61222 109.485 3.45569 109.047 3.14844L108.297 2.61719C108.245 2.58131 108.211 2.56782 108.195 2.5625C108.186 2.55961 108.18 2.55463 108.18 2.55469L107.43 2.60156C107.19 2.61556 106.951 2.63596 106.711 2.65625L105.961 2.71875C105.607 2.74873 105.253 2.71953 104.906 2.64062L104.531 2.55469L104.195 2.47656L104.18 2.49219L103.43 2.99219C102.965 3.30318 102.399 3.43524 101.812 3.24219L101.062 2.99219C100.881 2.93262 100.702 2.89835 100.531 2.88281L100.156 2.85156L99.7812 2.8125C99.5469 2.79122 99.3123 2.7766 99.0781 2.76562L98.3281 2.73438C98.2786 2.73206 98.2056 2.73834 98.0938 2.79688L97.7188 2.99219L97.3438 3.19531C96.9331 3.41169 96.4724 3.51007 95.9922 3.44531L95.6172 3.39062L95.2422 3.34375C95.0838 3.32229 94.9243 3.32107 94.7656 3.34375L94.0156 3.45312C93.483 3.52901 92.9913 3.37988 92.5781 3.10938L92.2031 2.85938L91.8281 2.61719C91.8061 2.60274 91.7898 2.58964 91.7812 2.58594L91.4375 2.65625L91.0625 2.72656C90.7972 2.77758 90.5314 2.8292 90.2656 2.86719L89.8906 2.91406L89.5156 2.96875C89.1048 3.02737 88.6955 2.99021 88.3047 2.85938L87.5547 2.60938C87.3766 2.54987 87.2057 2.51429 87.0391 2.5L86.6641 2.46094L86.2891 2.42969C86.078 2.41162 85.867 2.40803 85.6562 2.41406L85.2812 2.42188Z" fill="#4E4E4E"/>
</svg>