<svg width="186" height="150" viewBox="0 0 186 150" fill="none" xmlns="http://www.w3.org/2000/svg">
<g clip-path="url(#clip0_40000258_4846)">
<g clip-path="url(#clip1_40000258_4846)">
<path d="M51.895 47.53C46.985 51.49 42.075 55.45 37.16 59.41C36.435 75.52 35.715 91.63 34.99 107.735C35.885 110.65 37.46 113.95 40.245 116.825C50.78 127.685 68.875 122.41 69.65 122.17C69.705 123.03 69.995 125.84 72.235 128.14C74.955 130.94 79.125 130.775 81.145 130.725C108.26 130.05 108.415 132.985 115.63 129.39C116.835 128.79 133.345 120.29 135.325 106.31C135.95 101.9 134.995 97.865 137.285 90.985C138.775 86.51 140.87 83.125 142.455 80.915C142.515 72.685 142.575 64.46 142.635 56.23C139.385 51.41 132.59 42.77 120.89 36.535C103.665 27.36 87.14 29.445 81.595 30.395C75.27 34.645 68.94 38.89 62.615 43.14C59.04 44.605 55.465 46.07 51.89 47.535L51.895 47.53Z" fill="white"/>
<path d="M51.895 47.53C46.985 51.49 42.075 55.45 37.16 59.41C36.435 75.52 35.715 91.63 34.99 107.735C35.885 110.65 37.46 113.95 40.245 116.825C50.78 127.685 68.875 122.41 69.65 122.17C69.705 123.03 69.995 125.84 72.235 128.14C74.955 130.94 79.125 130.775 81.145 130.725C108.26 130.05 108.415 132.985 115.63 129.39C116.835 128.79 133.345 120.29 135.325 106.31C135.95 101.9 134.995 97.865 137.285 90.985C138.775 86.51 140.87 83.125 142.455 80.915C142.515 72.685 142.575 64.46 142.635 56.23C139.385 51.41 132.59 42.77 120.89 36.535C103.665 27.36 87.14 29.445 81.595 30.395C75.27 34.645 68.94 38.89 62.615 43.14" stroke="#474B4E" stroke-width="5" stroke-linecap="round" stroke-linejoin="round"/>
<path d="M34.455 82.985C33.215 81.865 31.57 80.12 30.155 77.645C28.375 74.53 27.745 71.62 27.5 69.785" stroke="#474B4E" stroke-width="5" stroke-linecap="round" stroke-linejoin="round"/>
<path d="M136.42 97.29C138.56 96.88 141.525 96.08 144.76 94.405C147.9 92.78 150.21 90.885 151.76 89.405" stroke="#474B4E" stroke-width="5" stroke-linecap="round" stroke-linejoin="round"/>
<path d="M118.01 129.65C118.37 130.115 120.54 132.825 124.39 133.18C128.69 133.58 131.515 130.715 131.865 130.35" stroke="#474B4E" stroke-width="5" stroke-linecap="round" stroke-linejoin="round"/>
<path d="M27.5 123.93C28.335 124.39 30.615 125.505 33.555 125.105C38.17 124.48 40.51 120.65 40.815 120.13" stroke="#474B4E" stroke-width="5" stroke-linecap="round" stroke-linejoin="round"/>
<path d="M65.87 65.8C67.065 67.415 68.7 69.93 69.97 73.285C71.26 76.695 71.16 78.2951 71.75 79.5251C73.15 82.4151 79.02 84.54 98.485 81.305C100.425 79.75 102.365 78.195 104.305 76.64" stroke="#474B4E" stroke-width="4" stroke-linecap="round" stroke-linejoin="round"/>
<path d="M51.3 68.7C52.9016 68.7 54.2 67.4016 54.2 65.8C54.2 64.1984 52.9016 62.9 51.3 62.9C49.6984 62.9 48.4 64.1984 48.4 65.8C48.4 67.4016 49.6984 68.7 51.3 68.7Z" fill="#474B4E"/>
<path d="M119.02 84.56C120.622 84.56 121.92 83.2616 121.92 81.66C121.92 80.0584 120.622 78.76 119.02 78.76C117.418 78.76 116.12 80.0584 116.12 81.66C116.12 83.2616 117.418 84.56 119.02 84.56Z" fill="#474B4E"/>
</g>
</g>
<defs>
<clipPath id="clip0_40000258_4846">
<rect width="186" height="150" fill="white"/>
</clipPath>
<clipPath id="clip1_40000258_4846">
<rect width="129.26" height="108.715" fill="white" transform="translate(25 27)"/>
</clipPath>
</defs>
</svg>
