<svg width="186" height="150" viewBox="0 0 186 150" fill="none" xmlns="http://www.w3.org/2000/svg">
<g clip-path="url(#clip0_40000258_4845)">
<g clip-path="url(#clip1_40000258_4845)">
<path d="M52.65 47.53C47.74 51.49 42.83 55.45 37.915 59.41C37.19 75.52 36.47 91.63 35.745 107.735C36.64 110.65 38.215 113.95 41 116.825C51.535 127.685 69.63 122.41 70.405 122.17C70.46 123.03 70.75 125.84 72.99 128.14C75.71 130.94 79.88 130.775 81.9 130.725C109.015 130.05 109.17 132.985 116.385 129.39C117.59 128.79 134.1 120.29 136.08 106.31C136.705 101.9 135.75 97.865 138.04 90.985C139.53 86.51 141.625 83.125 143.21 80.915C143.27 72.685 143.33 64.46 143.39 56.23C140.14 51.41 133.345 42.77 121.645 36.535C104.42 27.36 87.895 29.445 82.35 30.395C76.025 34.645 69.695 38.89 63.37 43.14C59.795 44.605 56.22 46.07 52.645 47.535L52.65 47.53Z" fill="white"/>
<path d="M52.65 47.5301C47.74 51.4901 42.83 55.4501 37.915 59.4101C37.19 75.5201 36.47 91.6301 35.745 107.735C36.64 110.65 38.215 113.95 41 116.825C51.535 127.685 69.63 122.41 70.405 122.17C70.46 123.03 70.75 125.84 72.99 128.14C75.71 130.94 79.88 130.775 81.9 130.725C109.015 130.05 109.17 132.985 116.385 129.39C117.59 128.79 134.1 120.29 136.08 106.31C136.705 101.9 135.75 97.8651 138.04 90.9851C139.53 86.5101 141.625 83.1251 143.21 80.9151C143.27 72.6851 143.33 64.4601 143.39 56.2301C140.14 51.4101 133.345 42.7701 121.645 36.5351C104.42 27.3601 87.895 29.4451 82.35 30.3951C76.025 34.6451 69.695 38.8901 63.37 43.1401" stroke="#474B4E" stroke-width="5" stroke-linecap="round" stroke-linejoin="round"/>
<path d="M22.5 89.1452C23.725 88.0102 25.61 86.5302 28.205 85.3452C31.47 83.8552 34.42 83.4902 36.275 83.4052" stroke="#474B4E" stroke-width="5" stroke-linecap="round" stroke-linejoin="round"/>
<path d="M152.775 104.62C151.095 103.235 148.585 101.465 145.23 100.045C141.975 98.6701 139.045 98.0951 136.915 97.8451" stroke="#474B4E" stroke-width="5" stroke-linecap="round" stroke-linejoin="round"/>
<path d="M120.92 143.205C120.445 141.345 119.85 139.34 119.095 137.235C118.155 134.615 117.13 132.265 116.11 130.195" stroke="#474B4E" stroke-width="5" stroke-linecap="round" stroke-linejoin="round"/>
<path d="M42.715 134.455C43.7 132.64 44.78 130.765 45.965 128.84C47.32 126.645 48.68 124.595 50.02 122.69" stroke="#474B4E" stroke-width="5" stroke-linecap="round" stroke-linejoin="round"/>
<path d="M66.625 65.8002C67.82 67.4152 69.455 69.9302 70.725 73.2852C72.015 76.6952 71.915 78.2952 72.505 79.5252C73.905 82.4152 79.775 84.5402 99.24 81.3052C101.18 79.7502 103.12 78.1952 105.06 76.6402" stroke="#474B4E" stroke-width="4" stroke-linecap="round" stroke-linejoin="round"/>
<path d="M52.055 68.7001C53.6567 68.7001 54.955 67.4018 54.955 65.8001C54.955 64.1985 53.6567 62.9001 52.055 62.9001C50.4534 62.9001 49.155 64.1985 49.155 65.8001C49.155 67.4018 50.4534 68.7001 52.055 68.7001Z" fill="#474B4E"/>
<path d="M119.775 84.5601C121.377 84.5601 122.675 83.2618 122.675 81.6601C122.675 80.0585 121.377 78.7601 119.775 78.7601C118.173 78.7601 116.875 80.0585 116.875 81.6601C116.875 83.2618 118.173 84.5601 119.775 84.5601Z" fill="#474B4E"/>
</g>
</g>
<defs>
<clipPath id="clip0_40000258_4845">
<rect width="186" height="150" fill="white"/>
</clipPath>
<clipPath id="clip1_40000258_4845">
<rect width="135.275" height="118.705" fill="white" transform="translate(20 27)"/>
</clipPath>
</defs>
</svg>
