<svg width="121" height="119" viewBox="0 0 121 119" fill="none" xmlns="http://www.w3.org/2000/svg">
<g clip-path="url(#clip0_18_54176)">
<path d="M19.4 20.53L4.665 32.41C3.94 48.52 3.22 64.63 2.495 80.735C3.39 83.65 4.965 86.95 7.75 89.825C18.285 100.685 36.38 95.41 37.155 95.17C37.21 96.03 37.5 98.84 39.74 101.14C42.46 103.94 46.63 103.775 48.65 103.725C75.765 103.05 75.92 105.985 83.135 102.39C84.34 101.79 100.85 93.29 102.83 79.31C103.455 74.9 102.5 70.865 104.79 63.985C106.28 59.51 108.375 56.125 109.96 53.915C110.02 45.685 110.08 37.46 110.14 29.23C106.89 24.41 100.095 15.77 88.395 9.53502C71.175 0.360018 54.65 2.44502 49.105 3.39502C42.78 7.64502 36.45 11.89 30.125 16.14" stroke="#474B4E" stroke-width="5" stroke-linecap="round" stroke-linejoin="round"/>
<path d="M118.46 62.5452C116.425 63.3202 113.645 64.6302 110.755 66.8452C107.95 68.9952 106.005 71.2652 104.735 72.9902" stroke="#474B4E" stroke-width="5" stroke-linecap="round" stroke-linejoin="round"/>
<path d="M87.6749 116.205C87.1999 114.345 86.6049 112.34 85.8499 110.235C84.9099 107.615 83.8849 105.265 82.8649 103.195" stroke="#474B4E" stroke-width="5" stroke-linecap="round" stroke-linejoin="round"/>
<path d="M9.46484 107.455C10.4498 105.64 11.5298 103.765 12.7148 101.84C14.0698 99.6452 15.4298 97.5952 16.7698 95.6902" stroke="#474B4E" stroke-width="5" stroke-linecap="round" stroke-linejoin="round"/>
<path d="M33.3749 38.8002C34.5699 40.4152 36.2049 42.9302 37.4749 46.2852C38.7649 49.6952 38.6649 51.2952 39.2549 52.5252C40.6549 55.4152 46.5249 57.5402 65.9899 54.3052C67.9299 52.7502 69.8699 51.1952 71.8099 49.6402" stroke="#474B4E" stroke-width="4" stroke-linecap="round" stroke-linejoin="round"/>
<path d="M18.8049 41.7001C20.4065 41.7001 21.7049 40.4018 21.7049 38.8001C21.7049 37.1985 20.4065 35.9001 18.8049 35.9001C17.2033 35.9001 15.9049 37.1985 15.9049 38.8001C15.9049 40.4018 17.2033 41.7001 18.8049 41.7001Z" fill="#474B4E"/>
<path d="M86.5299 57.5601C88.1315 57.5601 89.4299 56.2618 89.4299 54.6601C89.4299 53.0585 88.1315 51.7601 86.5299 51.7601C84.9283 51.7601 83.6299 53.0585 83.6299 54.6601C83.6299 56.2618 84.9283 57.5601 86.5299 57.5601Z" fill="#474B4E"/>
<path d="M109.43 53.6401C106.57 55.5251 96.8299 61.9251 87.8199 67.3201C86.8699 67.8901 85.2249 68.8501 82.9499 69.0501C78.3499 69.4551 74.5749 66.4551 70.8849 63.2201C66.5649 59.4351 60.9449 54.0901 54.7699 46.9551C53.2749 46.1051 51.0899 45.0751 48.2999 44.4301C45.6149 43.8101 43.2849 43.7551 41.5999 43.8401C38.6449 45.5351 31.1649 49.7051 25.3949 51.5501C24.7399 51.7601 23.6849 52.0751 22.3699 51.9001C18.8149 51.4351 16.5849 47.8301 15.3249 45.7401C9.81488 36.5751 5.41988 28.6401 2.99988 24.2101C8.63488 25.5651 14.9349 27.4201 21.6799 30.0101C29.3399 32.9501 35.9699 36.2201 41.5499 39.3601C43.3349 39.3901 45.5549 39.5851 48.0449 40.1601C50.3099 40.6851 52.2249 41.3951 53.7499 42.0751C65.5999 43.0151 75.6499 44.0151 83.3699 44.8501C101.06 46.7651 110.165 48.2101 110.54 51.3301C110.645 52.2151 110.03 53.0351 109.425 53.6301L109.43 53.6401Z" fill="#A5D19C" stroke="#474B4E" stroke-width="2.735" stroke-linecap="round" stroke-linejoin="round"/>
<path d="M100.54 52.1302C100.92 53.6752 96.1648 56.3302 86.6548 61.6402C84.4148 62.8902 81.1698 64.6452 77.6798 63.7252C76.7448 63.4802 76.0748 63.1152 75.2398 62.6152C70.6048 59.8452 66.2898 56.1602 61.2848 50.1502C58.8948 47.2802 58.5198 46.4902 58.7998 45.9052C59.3898 44.6752 62.5148 45.1802 69.3148 46.2252C76.3098 47.3002 83.2798 48.5302 90.2748 49.6252C98.1448 50.8552 100.23 50.8852 100.535 52.1252L100.54 52.1302Z" fill="#474B4E"/>
<path d="M37.6599 41.9301C37.2399 44.8351 31.5599 46.4301 26.1699 47.9351C24.5849 48.3801 23.3599 48.5951 21.9749 48.2451C19.3449 47.5851 17.8549 45.3351 16.3299 42.8751C14.3999 39.7701 12.0199 35.7001 9.47986 30.7151C9.52986 30.0951 9.71486 29.1701 10.3949 28.7651C11.1099 28.3401 12.0399 28.6901 12.4599 28.8551C29.5499 35.5651 38.0999 38.9151 37.6649 41.9251L37.6599 41.9301Z" fill="#474B4E"/>
<path d="M13.3999 43.6351C11.9699 44.4951 10.0199 45.8901 8.15486 48.0451C5.80986 50.7601 4.63486 53.4951 4.03986 55.2501" stroke="#474B4E" stroke-width="5" stroke-linecap="round" stroke-linejoin="round"/>
<path d="M81.8749 48.2701L82.3449 63.5851C83.9899 63.1151 85.4699 62.3101 86.6599 61.6451C87.1849 61.3551 87.6899 61.0701 88.1849 60.7951L87.8299 49.2401C85.8449 48.9201 83.8599 48.6001 81.8749 48.2701Z" fill="#F0F0F0"/>
<path d="M90.2798 49.6302C90.1598 49.6102 90.0398 49.5902 89.9198 49.5702L90.2248 59.6402C90.8098 59.3102 91.3748 58.9902 91.9148 58.6852L91.6448 49.8402C91.2098 49.7752 90.7548 49.7052 90.2798 49.6302Z" fill="#F0F0F0"/>
<path d="M20.0397 31.8501L20.5247 47.6751C20.9697 47.9251 21.4497 48.1201 21.9747 48.2551C23.3597 48.6001 24.5847 48.3851 26.1697 47.9451C26.5097 47.8501 26.8497 47.7551 27.1847 47.6601L26.7847 34.6101C24.8047 33.7701 22.5547 32.8551 20.0397 31.8551V31.8501Z" fill="#E8E8E8"/>
<path d="M28.4948 35.3401L28.8547 47.1701C29.3647 47.0201 29.8748 46.8651 30.3698 46.7101L30.0448 36.0301C29.5548 35.8051 29.0348 35.5751 28.4948 35.3401Z" fill="#E8E8E8"/>
</g>
<defs>
<clipPath id="clip0_18_54176">
<rect width="120.96" height="118.705" fill="white"/>
</clipPath>
</defs>
</svg>
