<svg width="145" height="150" viewBox="0 0 145 150" fill="none" xmlns="http://www.w3.org/2000/svg">
<g clip-path="url(#clip0_18_54108)">
<path d="M32.65 51.6749L17.915 63.5549C17.19 79.6649 16.47 95.7749 15.745 111.88C16.64 114.795 18.215 118.095 21 120.97C31.535 131.83 49.63 126.555 50.405 126.315C50.46 127.175 50.75 129.985 52.99 132.285C55.71 135.085 59.88 134.92 61.9 134.87C89.015 134.195 89.17 137.13 96.385 133.535C97.59 132.935 114.1 124.435 116.08 110.455C116.705 106.045 115.75 102.01 118.04 95.1299C119.53 90.6549 121.625 87.2699 123.21 85.0599C123.27 76.8299 123.33 68.6049 123.39 60.3749C120.14 55.5549 113.345 46.9149 101.645 40.6799C84.42 31.4999 67.895 33.5799 62.35 34.5299C56.025 38.7799 49.695 43.0249 43.37 47.2749C39.795 48.7399 36.22 50.2049 32.645 51.6699L32.65 51.6749Z" fill="white"/>
<path d="M32.65 51.6749L17.915 63.5549C17.19 79.6649 16.47 95.7749 15.745 111.88C16.64 114.795 18.215 118.095 21 120.97C31.535 131.83 49.63 126.555 50.405 126.315C50.46 127.175 50.75 129.985 52.99 132.285C55.71 135.085 59.88 134.92 61.9 134.87C89.015 134.195 89.17 137.13 96.385 133.535C97.59 132.935 114.1 124.435 116.08 110.455C116.705 106.045 115.75 102.01 118.04 95.1299C119.53 90.6549 121.625 87.2699 123.21 85.0599C123.27 76.8299 123.33 68.6049 123.39 60.3749C120.14 55.5549 113.345 46.9149 101.645 40.6799C84.42 31.4999 67.895 33.5799 62.35 34.5299C56.025 38.7799 49.695 43.0249 43.37 47.2749" stroke="#474B4E" stroke-width="5" stroke-linecap="round" stroke-linejoin="round"/>
<path d="M2.5 93.2899C3.725 92.1549 5.61 90.6749 8.205 89.4899C11.47 87.9999 14.42 87.6349 16.275 87.5499" stroke="#474B4E" stroke-width="5" stroke-linecap="round" stroke-linejoin="round"/>
<path d="M132.775 108.765C131.095 107.38 128.585 105.61 125.23 104.19C121.975 102.815 119.045 102.24 116.915 101.99" stroke="#474B4E" stroke-width="5" stroke-linecap="round" stroke-linejoin="round"/>
<path d="M100.92 147.35C100.445 145.49 99.85 143.485 99.095 141.38C98.155 138.76 97.13 136.41 96.11 134.34" stroke="#474B4E" stroke-width="5" stroke-linecap="round" stroke-linejoin="round"/>
<path d="M22.715 138.6C23.7 136.785 24.78 134.91 25.965 132.985C27.32 130.79 28.68 128.74 30.02 126.835" stroke="#474B4E" stroke-width="5" stroke-linecap="round" stroke-linejoin="round"/>
<path d="M46.625 69.9399C47.82 71.5549 49.455 74.0699 50.725 77.4249C52.015 80.8349 51.915 82.4349 52.505 83.6649C53.905 86.5549 59.775 88.6799 79.24 85.4449C81.18 83.8899 83.12 82.3349 85.06 80.7799" stroke="#474B4E" stroke-width="4" stroke-linecap="round" stroke-linejoin="round"/>
<path d="M32.055 72.8399C33.6567 72.8399 34.955 71.5415 34.955 69.9399C34.955 68.3383 33.6567 67.0399 32.055 67.0399C30.4534 67.0399 29.155 68.3383 29.155 69.9399C29.155 71.5415 30.4534 72.8399 32.055 72.8399Z" fill="#474B4E"/>
<path d="M99.775 88.7049C101.377 88.7049 102.675 87.4065 102.675 85.8049C102.675 84.2033 101.377 82.9049 99.775 82.9049C98.1734 82.9049 96.875 84.2033 96.875 85.8049C96.875 87.4065 98.1734 88.7049 99.775 88.7049Z" fill="#474B4E"/>
<path d="M119.575 60.67C114.48 60.91 103.9 60.71 92.4349 54.945C83.4299 50.42 77.6999 44.38 74.6349 40.615L73.4399 39.83C74.6549 36.81 76.5049 32 78.4299 25.94C81.2399 17.095 81.7199 13.455 83.5049 13.15C84.9899 12.895 87.9099 14.87 93.6599 29.955C102.955 18.215 111.79 11.555 115.06 13.545C118.145 15.42 116.585 25.165 112.21 36.51C121.2 34.195 131.41 32.305 133.06 35.53C133.715 36.815 132.79 38.47 131.79 40.265C128.185 46.725 124.79 52.84 121.045 59.53C120.55 59.91 120.06 60.29 119.565 60.67H119.575Z" fill="#F8D016"/>
<path d="M73.45 39.83C74.665 36.81 76.515 32 78.44 25.94C81.25 17.095 81.73 13.455 83.515 13.15C85 12.895 87.92 14.87 93.67 29.955C102.965 18.215 111.8 11.555 115.07 13.545C118.155 15.42 116.595 25.165 112.22 36.51C121.21 34.195 131.42 32.305 133.07 35.53C133.725 36.815 132.8 38.47 131.8 40.265C128.195 46.725 124.8 52.84 121.055 59.53" stroke="#474B4E" stroke-width="4.08" stroke-linecap="round" stroke-linejoin="round"/>
<path d="M74.6399 40.6201C77.6999 44.3851 83.4349 50.4251 92.4399 54.9501C103.9 60.7101 114.485 60.9151 119.58 60.6751" stroke="#474B4E" stroke-width="4.08" stroke-linecap="round" stroke-linejoin="round"/>
<path d="M84.0949 0.0900221C82.6099 -0.294978 81.0499 0.600022 80.3749 1.90002C79.6049 3.38502 79.9799 5.41502 81.3849 6.31002C83.0349 7.36002 85.5399 6.47502 86.2749 4.57502C86.9649 2.78502 85.9199 0.565022 84.0999 0.0900221H84.0949Z" fill="#474B4E"/>
<path d="M119.855 0.794967C117.9 0.444967 115.99 2.46497 115.94 4.47997C115.905 5.89497 116.78 7.50997 118.215 7.89497C120.105 8.40997 122.295 6.59997 122.455 4.50997C122.58 2.88497 121.475 1.07997 119.86 0.794967H119.855Z" fill="#474B4E"/>
<path d="M142.9 26.31C141.24 24.935 138.23 24.9 137.26 26.41C136.31 27.89 137.445 30.68 139.47 31.505C141.09 32.165 143.55 31.68 144.24 30.085C144.845 28.695 143.825 27.08 142.9 26.31Z" fill="#474B4E"/>
</g>
<defs>
<clipPath id="clip0_18_54108">
<rect width="144.42" height="149.85" fill="white"/>
</clipPath>
</defs>
</svg>
