<svg width="168" height="127" viewBox="0 0 168 127" fill="none" xmlns="http://www.w3.org/2000/svg">
<g clip-path="url(#clip0_40000235_10807)">
<path d="M59.41 39.905C56.445 45.475 53.485 51.045 50.52 56.615C56.175 71.715 61.83 86.815 67.49 101.915C69.455 104.245 72.2 106.66 75.89 108.21C89.845 114.065 104.415 102.115 105.035 101.59C105.425 102.36 106.79 104.83 109.755 106.07C113.355 107.575 117.125 105.79 118.965 104.95C143.645 93.69 144.935 96.33 150.16 90.19C151.035 89.165 162.885 74.865 159.22 61.235C158.065 56.935 155.605 53.595 155.01 46.37C154.625 41.67 155.225 37.73 155.815 35.08C152.64 27.49 149.465 19.9 146.295 12.305C141.415 9.14505 131.775 3.86505 118.57 2.72505C99.125 1.04005 84.74 9.44005 80.01 12.49C75.855 18.88 71.705 25.27 67.55 31.66C64.835 34.41 62.125 37.16 59.41 39.91V39.905Z" fill="white"/>
<path d="M149.67 90.675C151.03 91.145 153.65 91.85 156.925 91.42C160.815 90.91 163.48 89.075 164.63 88.175" stroke="#474B4E" stroke-width="5" stroke-linecap="round" stroke-linejoin="round"/>
<path d="M59.41 39.905C56.445 45.475 53.485 51.045 50.52 56.615C56.175 71.715 61.83 86.815 67.49 101.915C69.455 104.245 72.2 106.66 75.89 108.21C89.845 114.065 104.415 102.115 105.035 101.59C105.425 102.36 106.79 104.83 109.755 106.07C113.355 107.575 117.125 105.79 118.965 104.95C143.645 93.69 144.935 96.33 150.16 90.19C151.035 89.165 162.885 74.865 159.22 61.235C158.065 56.935 155.605 53.595 155.01 46.37C154.625 41.67 155.225 37.73 155.815 35.08C152.64 27.49 149.465 19.9 146.295 12.305C141.415 9.14505 131.775 3.86505 118.57 2.72505C99.125 1.04005 84.74 9.44005 80.01 12.49C75.855 18.88 71.705 25.27 67.55 31.66" stroke="#474B4E" stroke-width="5" stroke-linecap="round" stroke-linejoin="round"/>
<path d="M59.8697 82.2897C58.2069 82.1422 55.8401 81.7442 53.2208 80.6215C49.9244 79.2069 47.6711 77.2621 46.3644 75.9465" stroke="#474B4E" stroke-width="5" stroke-linecap="round" stroke-linejoin="round"/>
<path d="M73.8162 71.8479C75.7261 72.8931 78.5262 74.1563 82.0871 74.9161C85.5458 75.6517 88.5301 75.6623 90.6709 75.5045" stroke="#474B4E" stroke-width="5" stroke-linecap="round" stroke-linejoin="round"/>
<path d="M84.38 123.755C84.575 121.7 84.835 119.55 85.17 117.315C85.555 114.765 86 112.345 86.485 110.07" stroke="#474B4E" stroke-width="5" stroke-linecap="round" stroke-linejoin="round"/>
<path d="M91.595 41.6801C93.17 42.9251 95.405 44.9301 97.505 47.8351C99.64 50.7901 99.96 52.3601 100.855 53.3901C102.96 55.8151 109.18 56.3351 127.125 48.1351C128.595 46.1301 130.06 44.1201 131.53 42.1151" stroke="#474B4E" stroke-width="4" stroke-linecap="round" stroke-linejoin="round"/>
<path d="M78.53 48.3801C80.1316 48.3801 81.43 47.0817 81.43 45.4801C81.43 43.8785 80.1316 42.5801 78.53 42.5801C76.9284 42.5801 75.63 43.8785 75.63 45.4801C75.63 47.0817 76.9284 48.3801 78.53 48.3801Z" fill="#474B4E"/>
<path d="M144.045 46.0251C145.647 46.0251 146.945 44.7267 146.945 43.1251C146.945 41.5235 145.647 40.2251 144.045 40.2251C142.443 40.2251 141.145 41.5235 141.145 43.1251C141.145 44.7267 142.443 46.0251 144.045 46.0251Z" fill="#474B4E"/>
<path d="M36.535 34.1901C35.045 33.5151 31.785 32.2851 27.645 32.7651C23.775 33.2151 21.16 34.9251 19.47 36.0601C17.47 37.4001 13.93 39.7751 12.095 44.3701C10.055 49.4801 11.39 54.1351 11.995 56.2651C13.425 61.2601 16.315 64.3551 17.88 65.9951C21.035 69.3001 24.275 70.9551 25.555 71.5551C27.905 72.6601 27.97 72.2401 34.725 74.0901C40.91 75.7851 42.16 76.4951 45.635 76.7501C48.105 76.9301 49.8 77.0551 51.905 76.4051C53.155 76.0201 55.925 74.9351 59.84 69.9601C62.215 66.9401 63.55 64.3451 66.025 59.0251C69.815 50.8851 71.71 46.8101 71.945 45.4301C72.235 43.7551 73.855 34.3401 67.835 26.8051C66.58 25.2351 62.865 20.5801 56.675 19.9401C50.435 19.2951 45.645 23.1401 44.54 24.0251C42.655 25.5401 41.185 27.3901 40.205 28.6201C38.505 30.7551 37.32 32.7251 36.53 34.1901H36.535Z" fill="#FF818B" stroke="#474B4E" stroke-width="4" stroke-linecap="round" stroke-linejoin="round"/>
</g>
<defs>
<clipPath id="clip0_40000235_10807">
<rect width="167.13" height="126.255" fill="white"/>
</clipPath>
</defs>
</svg>
