<svg width="350" height="164" viewBox="0 0 350 164" fill="none" xmlns="http://www.w3.org/2000/svg">
<g clip-path="url(#clip0_40000374_11770)">
<g clip-path="url(#clip1_40000374_11770)">
<path fill-rule="evenodd" clip-rule="evenodd" d="M94.2754 35.7456C83.9636 38.0329 77.4584 48.2464 79.7456 58.5583C82.0329 68.8701 92.2464 75.3753 102.558 73.0881C112.87 70.8008 119.375 60.5873 117.088 50.2754C114.801 39.9636 104.587 33.4584 94.2754 35.7456ZM75.5965 59.4786C72.8009 46.8752 80.7518 34.392 93.3551 31.5965C105.958 28.801 118.442 36.7518 121.237 49.3551C124.033 61.9585 116.082 74.4417 103.479 77.2372C90.8752 80.0327 78.392 72.0819 75.5965 59.4786Z" fill="#666666"/>
<path fill-rule="evenodd" clip-rule="evenodd" d="M104.402 45.0204C105.392 45.6508 105.683 46.9644 105.052 47.9543L95.3659 63.1627C94.7354 64.1526 93.4219 64.4439 92.432 63.8135C91.4421 63.183 91.1508 61.8694 91.7812 60.8796L101.468 45.6711C102.098 44.6813 103.412 44.3899 104.402 45.0204Z" fill="#AB070D"/>
<path fill-rule="evenodd" clip-rule="evenodd" d="M89.0203 48.4321C89.6508 47.4422 90.9643 47.1509 91.9542 47.7813L107.163 57.4679C108.152 58.0983 108.444 59.4119 107.813 60.4018C107.183 61.3916 105.869 61.683 104.879 61.0525L89.6711 51.366C88.6812 50.7355 88.3898 49.422 89.0203 48.4321Z" fill="#AB070D"/>
<path d="M103.777 76.2748L106.592 88.9663" stroke="#666666" stroke-width="6" stroke-linecap="round"/>
</g>
<path d="M134.4 61.53C129.49 65.49 124.58 69.45 119.665 73.41C118.94 89.52 118.22 105.63 117.495 121.735C118.39 124.65 119.965 127.95 122.75 130.825C133.285 141.685 151.38 136.41 152.155 136.17C152.21 137.03 152.5 139.84 154.74 142.14C157.46 144.94 161.63 144.775 163.65 144.725C190.765 144.05 190.92 146.985 198.135 143.39C199.34 142.79 215.85 134.29 217.83 120.31C218.455 115.9 217.5 111.865 219.79 104.985C221.28 100.51 223.375 97.125 224.96 94.915C225.02 86.685 225.08 78.46 225.14 70.23C221.89 65.41 215.095 56.77 203.395 50.535C186.175 41.36 169.65 43.445 164.105 44.395C157.78 48.645 151.45 52.89 145.125 57.14C141.55 58.605 137.975 60.07 134.4 61.535V61.53Z" fill="white"/>
<path d="M134.4 61.53C129.49 65.49 124.58 69.45 119.665 73.41C118.94 89.52 118.22 105.63 117.495 121.735C118.39 124.65 119.965 127.95 122.75 130.825C133.285 141.685 151.38 136.41 152.155 136.17C152.21 137.03 152.5 139.84 154.74 142.14C157.46 144.94 161.63 144.775 163.65 144.725C190.765 144.05 190.92 146.985 198.135 143.39C199.34 142.79 215.85 134.29 217.83 120.31C218.455 115.9 217.5 111.865 219.79 104.985C221.28 100.51 223.375 97.125 224.96 94.915C225.02 86.685 225.08 78.46 225.14 70.23C221.89 65.41 215.095 56.77 203.395 50.535C186.175 41.36 169.65 43.445 164.105 44.395C157.78 48.645 151.45 52.89 145.125 57.14" stroke="#474B4E" stroke-width="5" stroke-linecap="round" stroke-linejoin="round"/>
<path d="M221.35 129.675C221.615 127.51 221.76 124.445 221.15 120.855C220.56 117.37 219.465 114.59 218.53 112.66" stroke="#474B4E" stroke-width="5" stroke-linecap="round" stroke-linejoin="round"/>
<path d="M202.675 157.205C202.2 155.345 201.605 153.34 200.85 151.235C199.91 148.615 198.885 146.265 197.865 144.195" stroke="#474B4E" stroke-width="5" stroke-linecap="round" stroke-linejoin="round"/>
<path d="M124.465 148.455C125.45 146.64 126.53 144.765 127.715 142.84C129.07 140.645 130.43 138.595 131.77 136.69" stroke="#474B4E" stroke-width="5" stroke-linecap="round" stroke-linejoin="round"/>
<path d="M156.98 90.64C157.88 90.455 159.165 90.1 160.405 89.37C161.67 88.63 161.9 88.085 162.42 87.855C163.65 87.315 167.04 88.275 176.48 94.775C177.205 95.82 177.93 96.87 178.65 97.915" stroke="#474B4E" stroke-width="4" stroke-linecap="round" stroke-linejoin="round"/>
<path d="M133.805 82.7C135.407 82.7 136.705 81.4016 136.705 79.8C136.705 78.1984 135.407 76.9 133.805 76.9C132.203 76.9 130.905 78.1984 130.905 79.8C130.905 81.4016 132.203 82.7 133.805 82.7Z" fill="#474B4E"/>
<path d="M201.53 98.56C203.132 98.56 204.43 97.2616 204.43 95.66C204.43 94.0584 203.132 92.76 201.53 92.76C199.928 92.76 198.63 94.0584 198.63 95.66C198.63 97.2616 199.928 98.56 201.53 98.56Z" fill="#474B4E"/>
<path d="M106.957 89C107.44 90.5961 108.32 92.8308 109.96 95.1628C112.024 98.0969 114.389 99.9074 115.947 100.908" stroke="#474B4E" stroke-width="5" stroke-linecap="round" stroke-linejoin="round"/>
<path d="M202 98.9647C202 98.9647 202.668 98.8313 203.096 98.7458C203.525 98.6603 204.675 98.6585 204.675 98.6585" stroke="#92C8F4" stroke-width="3" stroke-linecap="round"/>
<path d="M131.105 81.2702C131.105 81.2702 131.749 81.4915 132.162 81.6332C132.575 81.775 133.57 82.3529 133.57 82.3529" stroke="#92C8F4" stroke-width="3" stroke-linecap="round"/>
<path d="M203 100C204.805 102.32 205.715 104.46 206.195 105.925C206.57 107.06 207.43 109.765 207.26 113.275" stroke="#92C8F4" stroke-width="5" stroke-linecap="round" stroke-linejoin="round"/>
</g>
<defs>
<clipPath id="clip0_40000374_11770">
<rect width="157" height="131" fill="white" transform="translate(71 29)"/>
</clipPath>
<clipPath id="clip1_40000374_11770">
<rect width="51" height="65" fill="white" transform="translate(68 35.0438) rotate(-12.5062)"/>
</clipPath>
</defs>
</svg>
