<svg width="135" height="118" viewBox="0 0 135 118" fill="none" xmlns="http://www.w3.org/2000/svg">
<g clip-path="url(#clip0_18_54141)">
<path d="M32.495 20.53L17.76 32.41C17.035 48.52 16.315 64.63 15.59 80.735C16.485 83.65 18.06 86.95 20.845 89.825C31.38 100.685 49.475 95.41 50.25 95.17C50.305 96.03 50.595 98.84 52.835 101.14C55.555 103.94 59.725 103.775 61.745 103.725C88.86 103.05 89.015 105.985 96.23 102.39C97.435 101.79 113.945 93.2899 115.925 79.31C116.55 74.8999 115.595 70.865 117.885 63.985C119.375 59.51 121.47 56.125 123.055 53.915C123.115 45.685 123.175 37.46 123.235 29.23C119.985 24.41 113.19 15.77 101.49 9.53496C84.265 0.359957 67.74 2.44496 62.195 3.39496C55.87 7.64496 49.54 11.89 43.215 16.14C39.64 17.605 36.065 19.07 32.49 20.535L32.495 20.53Z" fill="white"/>
<path d="M68.285 58.035C70.27 62.895 72.675 66.01 74.345 67.835C75.355 68.94 76.16 69.645 77.285 69.795C80.375 70.21 83.095 66.05 83.79 64.985C84.975 63.175 87.355 59.53 85.93 56.7C84.24 53.345 78.3 53.305 74.79 54.205C71.545 55.035 69.37 56.93 68.285 58.035Z" fill="#EFBBB9" stroke="#474B4E" stroke-width="3" stroke-miterlimit="10"/>
<path d="M30.43 32.77C28.165 33.825 27.425 36.11 27.28 36.565C26.24 39.78 27.67 43.955 30.97 45.62C31.22 45.745 34.36 47.27 36.85 45.745C40.32 43.615 40.5 36.78 37.115 33.87C35.535 32.51 32.8 31.675 30.43 32.775V32.77Z" fill="white" stroke="#474B4E" stroke-width="1.5" stroke-linecap="round" stroke-linejoin="round"/>
<path d="M97.495 49.845C96.16 50.37 95.485 51.465 95.24 51.875C93.515 54.745 93.94 60.27 97.495 61.855C99.4 62.705 101.92 62.295 103.435 60.845C106.37 58.04 104.785 52.065 101.655 50.27C101.41 50.13 99.475 49.06 97.495 49.84V49.845Z" fill="white" stroke="#474B4E" stroke-width="1.5" stroke-linecap="round" stroke-linejoin="round"/>
<path d="M32.495 20.53L17.76 32.41C17.035 48.52 16.315 64.63 15.59 80.735C16.485 83.65 18.06 86.95 20.845 89.825C31.38 100.685 49.475 95.41 50.25 95.17C50.305 96.03 50.595 98.84 52.835 101.14C55.555 103.94 59.725 103.775 61.745 103.725C88.86 103.05 89.015 105.985 96.23 102.39C97.435 101.79 113.945 93.29 115.925 79.31C116.55 74.9 115.595 70.865 117.885 63.985C119.375 59.51 121.47 56.125 123.055 53.915C123.115 45.685 123.175 37.46 123.235 29.23C119.985 24.41 113.19 15.77 101.49 9.53502C84.265 0.360018 67.74 2.44502 62.195 3.39502C55.87 7.64502 49.54 11.89 43.215 16.14" stroke="#474B4E" stroke-width="5" stroke-linecap="round" stroke-linejoin="round"/>
<path d="M2.5 51.25C3.665 52.445 5.475 54.02 8 55.335C11.185 56.99 14.115 57.505 15.96 57.68" stroke="#474B4E" stroke-width="5" stroke-linecap="round" stroke-linejoin="round"/>
<path d="M131.705 79.25C130.365 77.535 128.295 75.265 125.325 73.155C122.445 71.11 119.705 69.92 117.68 69.215" stroke="#474B4E" stroke-width="5" stroke-linecap="round" stroke-linejoin="round"/>
<path d="M93.8101 104.465C94.9101 106.04 96.1751 107.7 97.6251 109.405C99.4301 111.525 101.22 113.36 102.905 114.935" stroke="#474B4E" stroke-width="5" stroke-linecap="round" stroke-linejoin="round"/>
<path d="M22.5601 107.455C23.5451 105.64 24.6251 103.765 25.8101 101.84C27.1651 99.6451 28.5251 97.5951 29.8651 95.6901" stroke="#474B4E" stroke-width="5" stroke-linecap="round" stroke-linejoin="round"/>
<path d="M44.73 48.19C46.465 49.2 48.96 50.87 51.45 53.45C53.98 56.075 54.515 57.585 55.55 58.48C57.975 60.585 64.21 60.22 80.82 49.575C81.99 47.38 83.16 45.19 84.33 42.995" stroke="#474B4E" stroke-width="4" stroke-linecap="round" stroke-linejoin="round"/>
<path d="M33.265 43.9801C34.8666 43.9801 36.165 42.6817 36.165 41.0801C36.165 39.4784 34.8666 38.1801 33.265 38.1801C31.6634 38.1801 30.365 39.4784 30.365 41.0801C30.365 42.6817 31.6634 43.9801 33.265 43.9801Z" fill="#474B4E"/>
<path d="M99.62 57.56C101.222 57.56 102.52 56.2616 102.52 54.66C102.52 53.0584 101.222 51.76 99.62 51.76C98.0183 51.76 96.72 53.0584 96.72 54.66C96.72 56.2616 98.0183 57.56 99.62 57.56Z" fill="#474B4E"/>
<path d="M82.96 64.155C81.745 62.925 79.975 61.38 77.57 60.01C74.8 58.43 72.225 57.675 70.395 57.29" stroke="#474B4E" stroke-width="2" stroke-linecap="round" stroke-linejoin="round"/>
</g>
<defs>
<clipPath id="clip0_18_54141">
<rect width="134.205" height="117.435" fill="white"/>
</clipPath>
</defs>
</svg>
