<svg width="113" height="119" viewBox="0 0 113 119" fill="none" xmlns="http://www.w3.org/2000/svg">
<g clip-path="url(#clip0_40000234_10624)">
<path d="M19.4 20.53C14.49 24.49 9.58 28.45 4.665 32.41C3.94 48.52 3.22 64.63 2.495 80.735C3.39 83.65 4.965 86.95 7.75 89.825C18.285 100.685 36.38 95.41 37.155 95.17C37.21 96.03 37.5 98.84 39.74 101.14C42.46 103.94 46.63 103.775 48.65 103.725C75.765 103.05 75.92 105.985 83.135 102.39C84.34 101.79 100.85 93.29 102.83 79.31C103.455 74.9 102.5 70.865 104.79 63.985C106.28 59.51 108.375 56.125 109.96 53.915C110.02 45.685 110.08 37.46 110.14 29.23C106.89 24.41 100.095 15.77 88.395 9.53502C71.175 0.360018 54.65 2.44502 49.105 3.39502C42.78 7.64502 36.45 11.89 30.125 16.14C26.55 17.605 22.975 19.07 19.4 20.535V20.53Z" fill="white"/>
<path d="M19.4 20.53C14.49 24.49 9.58 28.45 4.665 32.41C3.94 48.52 3.22 64.63 2.495 80.735C3.39 83.65 4.965 86.95 7.75 89.825C18.285 100.685 36.38 95.41 37.155 95.17C37.21 96.03 37.5 98.84 39.74 101.14C42.46 103.94 46.63 103.775 48.65 103.725C75.765 103.05 75.92 105.985 83.135 102.39C84.34 101.79 100.85 93.29 102.83 79.31C103.455 74.9 102.5 70.865 104.79 63.985C106.28 59.51 108.375 56.125 109.96 53.915C110.02 45.685 110.08 37.46 110.14 29.23C106.89 24.41 100.095 15.77 88.395 9.53502C71.175 0.360018 54.65 2.44502 49.105 3.39502C42.78 7.64502 36.45 11.89 30.125 16.14" stroke="#474B4E" stroke-width="5" stroke-linecap="round" stroke-linejoin="round"/>
<path d="M106.35 88.6752C106.615 86.5102 106.76 83.4452 106.15 79.8552C105.56 76.3702 104.465 73.5902 103.53 71.6602" stroke="#474B4E" stroke-width="5" stroke-linecap="round" stroke-linejoin="round"/>
<path d="M87.675 116.205C87.2 114.345 86.605 112.34 85.85 110.235C84.91 107.615 83.885 105.265 82.865 103.195" stroke="#474B4E" stroke-width="5" stroke-linecap="round" stroke-linejoin="round"/>
<path d="M9.46497 107.455C10.45 105.64 11.53 103.765 12.715 101.84C14.07 99.6451 15.43 97.5951 16.77 95.6901" stroke="#474B4E" stroke-width="5" stroke-linecap="round" stroke-linejoin="round"/>
<path d="M41.98 49.64C42.88 49.455 44.165 49.1 45.405 48.37C46.67 47.63 46.9 47.085 47.42 46.855C48.65 46.315 52.04 47.275 61.48 53.775C62.205 54.82 62.93 55.87 63.65 56.915" stroke="#474B4E" stroke-width="4" stroke-linecap="round" stroke-linejoin="round"/>
<path d="M18.805 41.7C20.4066 41.7 21.705 40.4016 21.705 38.8C21.705 37.1984 20.4066 35.9 18.805 35.9C17.2033 35.9 15.905 37.1984 15.905 38.8C15.905 40.4016 17.2033 41.7 18.805 41.7Z" fill="#474B4E"/>
<path d="M86.53 57.56C88.1316 57.56 89.43 56.2616 89.43 54.66C89.43 53.0584 88.1316 51.76 86.53 51.76C84.9284 51.76 83.63 53.0584 83.63 54.66C83.63 56.2616 84.9284 57.56 86.53 57.56Z" fill="#474B4E"/>
<path d="M17.74 42.6851C16.535 43.4601 14.495 45.0201 13.265 47.6901C12.295 49.7901 12.25 51.6601 12.2 53.8701C12.095 58.3401 13.205 58.8101 12.84 62.2851C12.485 65.6751 11.39 65.6151 11.35 68.5701C11.305 71.9951 12.77 72.2951 12.63 75.6001C12.51 78.3351 11.475 78.8801 11.31 81.8851C11.19 84.0651 11.625 85.8601 11.99 86.9951" stroke="#92C8F4" stroke-width="5" stroke-linecap="round" stroke-linejoin="round"/>
<path d="M88.34 57.5601C90.145 59.8801 91.055 62.0201 91.535 63.4851C91.91 64.6201 92.77 67.3251 92.6 70.8351C92.435 74.1851 91.42 76.3851 92.615 77.4351C93.29 78.0301 93.935 77.6001 94.515 78.1801C95.56 79.2251 94.21 81.3651 93.45 84.9951C92.715 88.5001 92.92 91.5251 93.13 94.5801C93.24 96.1901 93.415 97.5101 93.555 98.4151" stroke="#92C8F4" stroke-width="5" stroke-linecap="round" stroke-linejoin="round"/>
<path d="M10.7 54.87C9.45999 55.985 7.80999 57.73 6.39499 60.205C4.61499 63.32 3.97999 66.23 3.73499 68.065" stroke="#474B4E" stroke-width="5" stroke-linecap="round" stroke-linejoin="round"/>
</g>
<defs>
<clipPath id="clip0_40000234_10624">
<rect width="112.645" height="118.705" fill="white"/>
</clipPath>
</defs>
</svg>
