<svg width="113" height="120" viewBox="0 0 113 120" fill="none" xmlns="http://www.w3.org/2000/svg">
<g clip-path="url(#clip0_18_54158)">
<path d="M15.16 27.5049L2.5 41.5749C4.34 57.5949 6.185 73.6149 8.025 89.6349C9.37 92.3699 11.45 95.3799 14.66 97.7749C26.785 106.83 43.815 98.7499 44.54 98.3899C44.73 99.2299 45.465 101.955 48.04 103.875C51.17 106.205 55.26 105.385 57.25 105.015C83.915 100.05 84.535 102.925 91.085 98.2249C92.18 97.4399 107.135 86.4299 106.865 72.3149C106.78 67.8649 105.2 64.0299 106.37 56.8699C107.13 52.2199 108.665 48.5399 109.875 46.1099C108.63 37.9749 107.38 29.8449 106.135 21.7099C102.165 17.4699 94.08 10.0149 81.545 5.71493C63.08 -0.615071 47.095 4.05993 41.77 5.87993C36.195 11.0749 30.625 16.2749 25.05 21.4699C21.755 23.4849 18.455 25.4999 15.16 27.5099V27.5049Z" fill="white"/>
<path d="M4.54504 59.375C5.70504 69.46 6.86504 79.545 8.02504 89.63C9.37004 92.365 11.45 95.375 14.66 97.77C26.785 106.825 43.815 98.745 44.54 98.385C44.73 99.225 45.465 101.95 48.04 103.87C51.17 106.2 55.26 105.38 57.25 105.01C83.915 100.045 84.535 102.92 91.085 98.22C104.225 88.8 106.655 73.795 106.865 72.31C107.655 66.84 107.06 62.2 106.4 59.09C89.625 64.82 72.85 70.545 56.075 76.275C39.845 70.84 23.31 65.85 7.08004 60.415C6.13004 60.22 5.49504 59.575 4.54504 59.38V59.375Z" fill="#393C3D"/>
<path d="M63.93 75.77C63.435 78.025 62.225 81.995 59.005 85.735C57.455 87.535 55.84 88.815 54.49 89.715C53.11 88.785 51.08 87.185 49.32 84.665C47.07 81.44 44.975 76.305 46.53 74.895C47.585 73.935 49.075 75.775 53.985 75.845C57.075 75.89 58.78 75.915 60.64 74.895C61.54 74.4 62.545 73.625 63.255 74.005C63.79 74.295 63.915 75.115 63.935 75.77H63.93Z" fill="white"/>
<path d="M52.895 88.5199C53.475 88.9999 54.02 89.3999 54.49 89.7149C55.265 89.1999 56.125 88.5549 57.01 87.7599C56.77 85.9699 56.54 84.5449 56.47 84.1299C57.285 83.2899 58.87 81.4199 59.5 78.5749C59.78 77.3149 59.795 76.1949 59.73 75.3099C58.18 75.8999 56.565 75.8799 53.98 75.8449C52.925 75.8299 52.04 75.7299 51.27 75.5999L50.23 75.7049C50.085 76.9049 49.97 79.3849 51.275 81.9649C51.775 82.9549 52.37 83.7299 52.9 84.3099C52.96 85.2499 53.005 86.6549 52.9 88.3499C52.9 88.4099 52.89 88.4649 52.885 88.5249L52.895 88.5199Z" fill="#474B4E"/>
<path d="M5.24499 59.45C12.695 61.2 20.65 63.365 29 66.055C38.42 69.095 47.055 72.385 54.865 75.72C51.655 78.295 48.45 80.8699 45.24 83.445C31.905 75.45 18.575 67.45 5.23999 59.455L5.24499 59.45Z" fill="#5A5E60"/>
<path d="M54.865 75.72C57.885 78.315 60.905 80.91 63.925 83.5L105.135 59.45C103.08 59.925 101.015 60.42 98.935 60.945C83.04 64.9599 68.35 70.0349 54.865 75.7149V75.72Z" fill="#5A5E60"/>
<path d="M15.16 27.5049C10.94 32.1949 6.72 36.8849 2.5 41.5749C4.34 57.5949 6.185 73.6149 8.025 89.6349C9.37 92.3699 11.45 95.3799 14.66 97.7749C26.785 106.83 43.815 98.7499 44.54 98.3899C44.73 99.2299 45.465 101.955 48.04 103.875C51.17 106.205 55.26 105.385 57.25 105.015C83.915 100.05 84.535 102.925 91.085 98.2249C92.18 97.4399 107.135 86.4299 106.87 72.3149C106.785 67.8649 105.205 64.0299 106.375 56.8699C107.135 52.2199 108.67 48.5399 109.88 46.1099C108.635 37.9749 107.385 29.8449 106.14 21.7099C102.17 17.4699 94.085 10.0149 81.55 5.71493C63.085 -0.615071 47.1 4.05993 41.775 5.87993C36.2 11.0749 30.63 16.2749 25.055 21.4699" stroke="#474B4E" stroke-width="5" stroke-linecap="round" stroke-linejoin="round"/>
<path d="M13.985 74.7799C12.6 73.8449 10.725 72.3499 8.97999 70.0999C6.77999 67.2649 5.75 64.4749 5.245 62.6899" stroke="#474B4E" stroke-width="5" stroke-linecap="round" stroke-linejoin="round"/>
<path d="M92.76 78.24C94.69 77.225 97.29 75.595 99.895 73.05C102.425 70.58 104.085 68.1 105.14 66.23" stroke="#474B4E" stroke-width="5" stroke-linecap="round" stroke-linejoin="round"/>
<path d="M71.15 117.18C71.745 115.355 72.32 113.345 72.815 111.16C73.43 108.445 73.825 105.91 74.075 103.62" stroke="#474B4E" stroke-width="5" stroke-linecap="round" stroke-linejoin="round"/>
<path d="M23.45 116.045C23.55 113.985 23.71 111.825 23.94 109.575C24.205 107.01 24.5399 104.57 24.9249 102.275" stroke="#474B4E" stroke-width="5" stroke-linecap="round" stroke-linejoin="round"/>
<path d="M40.45 54.59C41.3 55.42 42.4899 56.74 43.5499 58.58C44.6249 60.45 44.7149 61.395 45.1749 62.06C46.2649 63.62 49.895 64.305 60.965 60.59C61.955 59.5 62.94 58.41 63.93 57.32" stroke="#474B4E" stroke-width="4" stroke-linecap="round" stroke-linejoin="round"/>
<path d="M27.8251 48.535C29.4267 48.535 30.725 47.2366 30.725 45.635C30.725 44.0334 29.4267 42.735 27.8251 42.735C26.2234 42.735 24.925 44.0334 24.925 45.635C24.925 47.2366 26.2234 48.535 27.8251 48.535Z" fill="#474B4E"/>
<path d="M79.01 53.455C80.6116 53.455 81.91 52.1567 81.91 50.555C81.91 48.9534 80.6116 47.655 79.01 47.655C77.4084 47.655 76.11 48.9534 76.11 50.555C76.11 52.1567 77.4084 53.455 79.01 53.455Z" fill="#474B4E"/>
</g>
<defs>
<clipPath id="clip0_18_54158">
<rect width="112.375" height="119.68" fill="white"/>
</clipPath>
</defs>
</svg>
