<svg width="136" height="119" viewBox="0 0 136 119" fill="none" xmlns="http://www.w3.org/2000/svg">
<g clip-path="url(#clip0_40000238_1330)">
<path d="M32.65 20.5299C27.74 24.4899 22.83 28.4499 17.915 32.4099C17.19 48.5199 16.47 64.6299 15.745 80.7349C16.64 83.6499 18.215 86.9499 21 89.8249C31.535 100.685 49.63 95.4099 50.405 95.1699C50.46 96.0299 50.75 98.8399 52.99 101.14C55.71 103.94 59.88 103.775 61.9 103.725C89.015 103.05 89.17 105.985 96.385 102.39C97.59 101.79 114.1 93.2899 116.08 79.3099C116.705 74.8999 115.75 70.8649 118.04 63.9849C119.53 59.5099 121.625 56.1249 123.21 53.9149C123.27 45.6849 123.33 37.4599 123.39 29.2299C120.14 24.4099 113.345 15.7699 101.645 9.5349C84.42 0.359896 67.895 2.4449 62.35 3.3949C56.025 7.6449 49.695 11.8899 43.37 16.1399C39.795 17.6049 36.22 19.0699 32.645 20.5349L32.65 20.5299Z" fill="white"/>
<path d="M32.65 20.5299C27.74 24.4899 22.83 28.4499 17.915 32.4099C17.19 48.5199 16.47 64.6299 15.745 80.7349C16.64 83.6499 18.215 86.9499 21 89.8249C31.535 100.685 49.63 95.4099 50.405 95.1699C50.46 96.0299 50.75 98.8399 52.99 101.14C55.71 103.94 59.88 103.775 61.9 103.725C89.015 103.05 89.17 105.985 96.385 102.39C97.59 101.79 114.1 93.2899 116.08 79.3099C116.705 74.8999 115.75 70.8649 118.04 63.9849C119.53 59.5099 121.625 56.1249 123.21 53.9149C123.27 45.6849 123.33 37.4599 123.39 29.2299C120.14 24.4099 113.345 15.7699 101.645 9.5349C84.42 0.359896 67.895 2.4449 62.35 3.3949C56.025 7.6449 49.695 11.8899 43.37 16.1399" stroke="#474B4E" stroke-width="5" stroke-linecap="round" stroke-linejoin="round"/>
<path d="M2.5 62.145C3.725 61.01 5.61 59.53 8.205 58.345C11.47 56.855 14.42 56.49 16.275 56.405" stroke="#474B4E" stroke-width="5" stroke-linecap="round" stroke-linejoin="round"/>
<path d="M132.775 77.62C131.095 76.235 128.585 74.465 125.23 73.045C121.975 71.67 119.045 71.095 116.915 70.845" stroke="#474B4E" stroke-width="5" stroke-linecap="round" stroke-linejoin="round"/>
<path d="M100.92 116.205C100.445 114.345 99.85 112.34 99.095 110.235C98.155 107.615 97.13 105.265 96.11 103.195" stroke="#474B4E" stroke-width="5" stroke-linecap="round" stroke-linejoin="round"/>
<path d="M22.715 107.455C23.7 105.64 24.78 103.765 25.965 101.84C27.32 99.6449 28.68 97.5949 30.02 95.6899" stroke="#474B4E" stroke-width="5" stroke-linecap="round" stroke-linejoin="round"/>
<path d="M46.625 38.8C47.82 40.415 49.455 42.93 50.725 46.285C52.015 49.695 51.915 51.2951 52.505 52.5251C53.905 55.4151 59.775 57.54 79.24 54.305C81.18 52.75 83.12 51.195 85.06 49.64" stroke="#474B4E" stroke-width="4" stroke-linecap="round" stroke-linejoin="round"/>
<path d="M32.055 41.6999C33.6567 41.6999 34.955 40.4015 34.955 38.7999C34.955 37.1983 33.6567 35.8999 32.055 35.8999C30.4534 35.8999 29.155 37.1983 29.155 38.7999C29.155 40.4015 30.4534 41.6999 32.055 41.6999Z" fill="#474B4E"/>
<path d="M99.775 57.56C101.377 57.56 102.675 56.2616 102.675 54.66C102.675 53.0584 101.377 51.76 99.775 51.76C98.1734 51.76 96.875 53.0584 96.875 54.66C96.875 56.2616 98.1734 57.56 99.775 57.56Z" fill="#474B4E"/>
</g>
<defs>
<clipPath id="clip0_40000238_1330">
<rect width="135.275" height="118.705" fill="white"/>
</clipPath>
</defs>
</svg>
