<svg width="245" height="234" viewBox="0 0 245 234" fill="none" xmlns="http://www.w3.org/2000/svg">
<g clip-path="url(#clip0_39_15162)">
<path d="M69.8275 10.98C70.4515 10.7027 70.9888 10.772 71.4395 11.188C71.7515 11.4653 72.0115 11.604 72.2195 11.604C72.7741 11.604 73.0515 12.0027 73.0515 12.8C73.0515 13.216 73.1035 13.5627 73.2075 13.84C73.4155 14.3253 73.3461 14.9147 72.9995 15.608C72.8955 15.7813 72.8261 16.596 72.7915 18.052C72.7568 19.508 72.6875 20.444 72.5835 20.86C72.4448 21.3107 72.3928 22.316 72.4275 23.876C72.4275 25.4707 72.3928 26.4587 72.3235 26.84C72.3235 26.9787 72.2888 27.256 72.2195 27.672C72.1501 28.088 72.0981 28.3827 72.0635 28.556C71.8901 29.6307 71.6128 30.168 71.2315 30.168C71.0581 30.168 70.8155 30.324 70.5035 30.636C70.2608 30.8787 70.0875 31 69.9835 31C69.8795 31 69.6715 30.9133 69.3595 30.74C68.7355 30.3933 68.4235 30.012 68.4235 29.596C68.4235 29.3187 68.3368 28.92 68.1635 28.4C67.9555 27.88 67.8688 27.308 67.9035 26.684C67.9035 25.9907 67.8861 25.5747 67.8515 25.436C67.8168 25.2627 67.7128 25.124 67.5395 25.02C67.1581 24.8467 66.4821 24.864 65.5115 25.072C64.4368 25.3147 63.7608 25.176 63.4835 24.656C62.9635 23.616 62.4955 23.1827 62.0795 23.356C61.6981 23.4947 61.1955 24.3093 60.5715 25.8C60.1901 26.736 59.8261 27.3773 59.4795 27.724C59.1675 28.036 58.7515 28.1573 58.2315 28.088C57.7461 28.0533 57.1915 28.14 56.5675 28.348C55.0768 28.8333 53.9155 29.128 53.0835 29.232C52.2861 29.3013 51.6275 29.1973 51.1075 28.92C50.5528 28.6427 50.1195 28.556 49.8075 28.66C49.4261 28.7987 48.7848 28.7813 47.8835 28.608C47.0168 28.4347 46.4448 28.2267 46.1675 27.984C45.9595 27.8107 45.5608 27.5333 44.9715 27.152C43.5501 26.1813 42.7355 24.552 42.5275 22.264C42.4581 21.3627 42.3888 20.6347 42.3195 20.08C42.2848 19.664 42.3368 19.2827 42.4755 18.936C42.7181 18.3813 42.7181 17.1507 42.4755 15.244C42.3715 14.3427 42.5448 13.476 42.9955 12.644C43.4808 11.7773 43.9835 11.4307 44.5035 11.604C45.6821 11.9853 46.3581 12.28 46.5315 12.488C46.7395 12.696 46.8608 13.268 46.8955 14.204C46.9648 15.348 47.1208 16.024 47.3635 16.232C47.6061 16.44 48.2128 16.4053 49.1835 16.128C50.1541 15.8507 51.9741 15.66 54.6435 15.556C56.3075 15.4867 57.1915 15.4173 57.2955 15.348C57.5035 15.1053 57.7115 14.724 57.9195 14.204C58.1621 13.6493 58.2488 13.2853 58.1795 13.112C58.0408 12.4533 58.2488 11.9333 58.8035 11.552C59.3581 11.1707 59.9475 11.136 60.5715 11.448C60.9181 11.656 61.2128 11.76 61.4555 11.76C61.9061 11.76 62.2875 12.0547 62.5995 12.644C62.9461 13.1987 63.1195 13.8573 63.1195 14.62C63.1195 15.2093 63.1888 15.5387 63.3275 15.608C63.5008 15.6773 63.9168 15.5387 64.5755 15.192C65.2688 14.8453 66.0141 14.6373 66.8115 14.568C67.6781 14.4987 68.2501 14.3427 68.5275 14.1C68.8395 13.8227 68.9781 13.32 68.9435 12.592C68.9088 11.7947 69.2035 11.2573 69.8275 10.98ZM64.0555 18.364C63.5008 17.532 63.1195 17.6013 62.9115 18.572C62.7728 19.1267 62.6341 20.1493 62.4955 21.64L62.4435 22.732L63.0155 22.68C64.1595 22.5067 64.9741 22.264 65.4595 21.952C65.8755 21.6747 66.3088 21.484 66.7595 21.38C67.1755 21.2413 67.4528 21.12 67.5915 21.016C67.7301 20.8773 67.9035 20.5827 68.1115 20.132C68.4235 19.4733 68.4235 19.04 68.1115 18.832C67.8341 18.624 67.2275 18.624 66.2915 18.832C65.5288 19.0053 65.0261 19.0747 64.7835 19.04C64.5755 19.0053 64.3328 18.78 64.0555 18.364ZM57.2435 19.716C55.8568 19.5427 54.9555 19.5427 54.5395 19.716C54.1928 19.82 53.7248 19.9067 53.1355 19.976C52.5808 20.0107 51.9915 20.1147 51.3675 20.288C50.8128 20.4613 50.3448 20.5307 49.9635 20.496C48.8541 20.3573 48.2128 20.288 48.0395 20.288C47.9008 20.288 47.7795 20.392 47.6755 20.6C47.5715 20.8773 47.6928 21.7093 48.0395 23.096C48.2475 23.8933 48.5595 24.4307 48.9755 24.708C49.3915 24.9507 50.1541 25.0893 51.2635 25.124C52.2341 25.1587 53.1355 25.0373 53.9675 24.76C54.7995 24.5173 55.5795 24.344 56.3075 24.24C56.9315 24.136 57.3301 24.0147 57.5035 23.876C57.7115 23.7373 57.8501 23.4427 57.9195 22.992C57.9888 22.6453 58.0581 22.2987 58.1275 21.952C58.4395 20.5653 58.1448 19.82 57.2435 19.716ZM48.8195 34.172C49.2008 34.1027 49.6341 34.172 50.1195 34.38C50.6395 34.5533 51.0208 34.7787 51.2635 35.056C51.4368 35.264 51.5061 35.784 51.4715 36.616C51.4715 38.5573 52.1821 39.9093 53.6035 40.672C55.0248 41.4 57.4168 41.66 60.7795 41.452C64.5235 41.244 66.8635 41.244 67.7995 41.452C68.4235 41.556 68.9261 41.5907 69.3075 41.556C69.9661 41.4867 70.3821 41.7813 70.5555 42.44C70.5901 42.6827 70.7288 42.9427 70.9715 43.22C71.3181 43.636 71.3875 44.0693 71.1795 44.52C70.9715 44.9707 70.5728 45.196 69.9835 45.196C69.6715 45.196 69.2728 45.2827 68.7875 45.456C68.4408 45.5947 68.1981 45.664 68.0595 45.664C67.9208 45.6987 67.6088 45.6467 67.1235 45.508C66.4995 45.3693 65.8235 45.352 65.0955 45.456C64.3675 45.56 63.5875 45.56 62.7555 45.456C61.8888 45.3867 61.1088 45.404 60.4155 45.508C59.7568 45.612 59.0808 45.612 58.3875 45.508C57.6595 45.3693 57.1048 45.3693 56.7235 45.508C56.3421 45.6467 56.0648 45.716 55.8915 45.716C55.7181 45.716 55.3715 45.6293 54.8515 45.456C54.2621 45.248 53.8288 45.196 53.5515 45.3C52.9275 45.508 52.2168 45.2827 51.4195 44.624C51.0728 44.312 50.6048 44.0173 50.0155 43.74C49.5301 43.4973 49.2008 43.2893 49.0275 43.116C48.8541 42.9427 48.6808 42.648 48.5075 42.232C48.3688 41.92 48.1261 41.4867 47.7795 40.932C47.5368 40.5507 47.3981 40.2733 47.3635 40.1C47.3288 39.9267 47.3288 39.632 47.3635 39.216C47.3981 38.592 47.3461 38.0893 47.2075 37.708C46.9995 37.1187 47.0861 36.408 47.4675 35.576C47.8488 34.744 48.2995 34.276 48.8195 34.172ZM86.6966 10.252C87.2859 10.0787 87.9966 10.0093 88.8286 10.044C89.6606 10.0787 90.2846 10.1827 90.7006 10.356C91.1166 10.564 91.5499 10.6507 92.0006 10.616C92.4166 10.616 92.8672 10.7373 93.3526 10.98C93.8379 11.2227 94.2366 11.344 94.5486 11.344C94.9646 11.344 95.4152 11.552 95.9006 11.968C96.4206 12.3493 96.7326 12.7307 96.8366 13.112C97.0099 14.0827 97.1832 14.6027 97.3566 14.672C97.5299 14.7067 98.1019 14.464 99.0726 13.944C99.5579 13.6667 100.078 13.528 100.633 13.528C101.465 13.528 102.019 13.424 102.297 13.216C102.609 12.9733 102.817 12.5053 102.921 11.812C103.025 11.188 103.389 10.772 104.013 10.564C104.671 10.3213 105.191 10.4253 105.573 10.876C105.677 11.0147 105.867 11.1187 106.145 11.188C106.457 11.292 106.665 11.448 106.769 11.656C106.873 11.8987 106.925 12.4533 106.925 13.32C106.925 14.152 106.873 14.6893 106.769 14.932C106.665 15.1747 106.613 15.92 106.613 17.168C106.578 18.3813 106.509 19.1787 106.405 19.56C106.266 19.9413 106.249 20.3747 106.353 20.86C106.422 21.3107 106.439 22.1947 106.405 23.512C106.37 24.8293 106.301 25.7653 106.197 26.32C106.058 26.84 105.954 27.3253 105.885 27.776C105.85 28.0533 105.729 28.3133 105.521 28.556C105.347 28.7987 105.157 28.92 104.949 28.92C104.879 28.92 104.723 29.024 104.481 29.232C104.03 29.544 103.527 29.596 102.973 29.388C102.453 29.1453 102.193 28.7467 102.193 28.192C102.193 27.8107 102.071 27.2907 101.829 26.632C101.586 25.9387 101.482 25.4187 101.517 25.072C101.551 24.6213 101.534 24.344 101.465 24.24C101.43 24.1013 101.274 23.9973 100.997 23.928C100.65 23.8587 100.165 23.876 99.5406 23.98C98.8819 24.1187 98.4139 24.188 98.1366 24.188C97.8939 24.1533 97.5992 24.0493 97.2526 23.876C96.6979 23.5987 96.2992 23.512 96.0566 23.616C95.8486 23.72 95.6752 24.084 95.5366 24.708C95.3979 25.3667 95.0166 25.852 94.3926 26.164C94.0806 26.3373 93.8206 26.5107 93.6126 26.684C93.3352 26.892 92.8326 26.892 92.1046 26.684C91.8619 26.6147 91.2899 26.7187 90.3886 26.996C88.9326 27.4813 87.8406 27.7587 87.1126 27.828C86.4192 27.8973 85.8472 27.7933 85.3966 27.516C84.8419 27.1693 84.1486 27.0827 83.3166 27.256C83.0046 27.3253 82.6752 27.2907 82.3286 27.152C82.0166 26.9787 81.6699 26.9267 81.2886 26.996C80.9419 27.0307 80.4219 26.7187 79.7286 26.06C79.0699 25.4013 78.5672 24.708 78.2206 23.98C77.9086 23.4253 77.6486 22.524 77.4406 21.276C77.2326 19.9933 77.1806 19.1267 77.2846 18.676C77.3539 18.3293 77.3886 17.9133 77.3886 17.428C77.3886 16.908 77.4406 16.5093 77.5446 16.232C77.6486 15.9893 77.7006 15.6427 77.7006 15.192C77.6659 14.464 77.8739 13.8053 78.3246 13.216C78.5326 12.9733 78.7406 12.6093 78.9486 12.124C79.2259 11.4653 79.6072 10.9973 80.0926 10.72C80.2659 10.616 80.6992 10.5293 81.3926 10.46C82.1206 10.3907 82.7446 10.3733 83.2646 10.408C84.8246 10.4773 85.9686 10.4253 86.6966 10.252ZM90.4926 14.464C89.5912 14.152 88.7939 14.1 88.1006 14.308C87.8579 14.3773 87.4072 14.4293 86.7486 14.464C86.1246 14.464 85.6046 14.5507 85.1886 14.724C84.7379 14.8973 84.2352 14.984 83.6806 14.984C83.1606 14.984 82.7966 15.036 82.5886 15.14C82.3806 15.2093 82.2246 15.4 82.1206 15.712C81.8432 16.4053 81.7046 17.7747 81.7046 19.82C81.7046 20.5827 81.9299 21.38 82.3806 22.212C82.8659 23.0093 83.3686 23.46 83.8886 23.564C85.3792 23.876 86.4712 23.8933 87.1646 23.616C87.7886 23.3387 88.8806 23.148 90.4406 23.044C91.1686 22.9747 91.6712 22.6973 91.9486 22.212C92.2606 21.692 92.4166 20.8427 92.4166 19.664C92.4166 18.9013 92.4859 18.364 92.6246 18.052C92.7632 17.74 92.8152 17.1853 92.7806 16.388C92.7806 15.556 92.7112 15.088 92.5726 14.984C92.4686 14.9147 92.2086 14.8453 91.7926 14.776C91.5152 14.7413 91.0819 14.6373 90.4926 14.464ZM102.141 18.26C102.106 17.7747 101.569 17.6707 100.529 17.948C99.8699 18.1213 99.4366 18.208 99.2286 18.208C99.0206 18.208 98.7779 18.156 98.5006 18.052C98.0152 17.844 97.7032 17.8093 97.5646 17.948C97.4259 18.0867 97.2526 18.5547 97.0446 19.352C96.8366 20.1147 96.7326 20.6173 96.7326 20.86C96.7672 21.1027 96.9232 21.224 97.2006 21.224C98.2059 21.224 99.0032 20.9813 99.5926 20.496C99.9046 20.288 100.286 20.1147 100.737 19.976C101.811 19.7333 102.279 19.1613 102.141 18.26ZM90.0766 30.428C90.7699 30.2547 91.7406 30.1853 92.9886 30.22C95.2419 30.2893 96.7672 30.3933 97.5646 30.532C98.3619 30.636 98.9859 30.844 99.4366 31.156C99.7486 31.364 100.251 31.572 100.945 31.78C101.707 31.988 102.401 32.4213 103.025 33.08C103.683 33.704 104.099 34.38 104.273 35.108C104.446 35.6973 104.585 36.148 104.689 36.46C105.139 37.3613 105.33 38.28 105.261 39.216C105.226 40.1173 104.949 40.88 104.429 41.504C104.047 41.9547 103.805 42.388 103.701 42.804C103.597 43.22 103.389 43.5667 103.077 43.844C102.765 44.1213 102.435 44.26 102.089 44.26C101.881 44.26 101.447 44.416 100.789 44.728C99.7139 45.2827 98.8646 45.6467 98.2406 45.82C97.6512 45.9933 96.8886 46.08 95.9526 46.08C94.8779 46.1147 94.0979 46.184 93.6126 46.288C93.1966 46.392 92.7459 46.3747 92.2606 46.236C91.8446 46.0627 91.3592 45.976 90.8046 45.976C90.3539 45.9413 89.8339 45.7853 89.2446 45.508C88.6552 45.2653 88.1526 44.9707 87.7366 44.624C87.2859 44.2427 86.8699 43.9307 86.4886 43.688C85.9686 43.376 85.5526 42.9427 85.2406 42.388C84.9632 41.868 84.6339 41.3307 84.2526 40.776C83.8712 40.2213 83.6286 39.8053 83.5246 39.528C83.4206 39.216 83.3686 38.7653 83.3686 38.176C83.3686 37.968 83.3512 37.6733 83.3166 37.292C83.3166 36.876 83.3166 36.6333 83.3166 36.564C83.3166 36.1827 83.4552 35.784 83.7326 35.368C84.0099 34.952 84.2006 34.5533 84.3046 34.172C84.7552 32.4387 86.6792 31.1907 90.0766 30.428ZM98.2406 34.692C97.6512 34.38 96.2992 34.3107 94.1846 34.484C92.1046 34.6227 90.5446 34.9173 89.5046 35.368C89.2272 35.472 89.0366 35.5933 88.9326 35.732C88.8286 35.8707 88.6552 36.1827 88.4126 36.668C88.3086 36.98 88.1526 37.292 87.9446 37.604C87.7366 37.8813 87.7019 38.1933 87.8406 38.54C88.0139 38.852 88.4992 39.4587 89.2966 40.36C89.9899 41.1573 90.4406 41.6253 90.6486 41.764C90.8566 41.868 91.2552 41.92 91.8446 41.92C92.4686 41.92 93.1099 42.0413 93.7686 42.284C94.3232 42.492 94.8606 42.5787 95.3806 42.544C95.9006 42.5093 96.6459 42.3187 97.6166 41.972C98.2752 41.764 98.9339 41.4173 99.5926 40.932C100.286 40.412 100.667 39.996 100.737 39.684C100.875 38.9213 100.91 38.4013 100.841 38.124C100.806 37.812 100.598 37.4827 100.217 37.136C99.9046 36.8587 99.7486 36.5987 99.7486 36.356C99.7139 35.7667 99.2112 35.212 98.2406 34.692ZM116.805 12.02C117.152 11.8813 117.759 11.812 118.625 11.812C119.492 11.7773 120.081 11.8467 120.393 12.02C120.705 12.1587 121.104 12.2627 121.589 12.332C122.075 12.4013 122.525 12.5747 122.941 12.852C123.392 13.0947 123.825 13.268 124.241 13.372C124.553 13.4067 124.865 13.5453 125.177 13.788C125.524 13.996 125.697 14.1867 125.697 14.36C125.697 14.464 125.888 14.776 126.269 15.296C126.685 15.816 127.067 16.2667 127.413 16.648C127.725 16.9947 127.916 17.272 127.985 17.48C128.055 17.6533 128.107 18.1907 128.141 19.092C128.211 20.2707 128.193 21.12 128.089 21.64C127.985 22.264 128.037 22.6453 128.245 22.784C128.453 22.888 129.025 22.8707 129.961 22.732C130.447 22.6973 130.811 22.5413 131.053 22.264C131.539 21.744 132.111 21.484 132.769 21.484C133.22 21.484 133.619 21.1373 133.965 20.444C134.243 19.924 134.243 19.5773 133.965 19.404C133.688 19.2307 133.168 19.2307 132.405 19.404C131.4 19.6467 130.759 19.7333 130.481 19.664C130.204 19.56 129.788 19.144 129.233 18.416C128.748 17.7573 128.54 17.168 128.609 16.648C128.679 16.0933 129.025 15.7293 129.649 15.556C129.961 15.4867 130.273 15.3307 130.585 15.088C130.897 14.88 131.469 14.776 132.301 14.776C133.168 14.776 133.757 14.6547 134.069 14.412C134.416 14.1693 134.589 13.7533 134.589 13.164C134.589 12.6093 134.884 12.228 135.473 12.02C136.063 11.812 136.6 11.8813 137.085 12.228C137.397 12.436 137.692 12.5747 137.969 12.644C138.316 12.7133 138.541 12.8867 138.645 13.164C138.784 13.4413 138.836 13.996 138.801 14.828V18.26C138.801 19.5427 138.715 20.4613 138.541 21.016C138.333 21.536 138.281 22.004 138.385 22.42C138.524 23.0787 138.524 24.552 138.385 26.84C138.281 29.128 138.125 30.4453 137.917 30.792C137.813 30.9653 137.501 31.208 136.981 31.52C136.496 31.7973 136.149 31.936 135.941 31.936C135.525 31.936 135.127 31.78 134.745 31.468C134.399 31.1213 134.225 30.7573 134.225 30.376C134.225 29.9947 134.156 29.648 134.017 29.336C133.913 29.024 133.844 28.3307 133.809 27.256L133.757 25.644L132.925 25.592C132.371 25.5573 131.712 25.6267 130.949 25.8C130.187 25.9733 129.667 26.0253 129.389 25.956C129.147 25.8867 128.956 25.6613 128.817 25.28C128.54 24.552 128.055 24.292 127.361 24.5C126.703 24.708 126.304 25.2453 126.165 26.112C126.027 26.9093 125.593 27.4293 124.865 27.672C124.449 27.776 124.12 27.9493 123.877 28.192C123.669 28.4347 123.323 28.6773 122.837 28.92C121.347 29.5787 120.289 29.9947 119.665 30.168C119.041 30.3413 118.556 30.324 118.209 30.116C118.001 30.012 117.637 29.96 117.117 29.96C116.043 29.9253 115.055 29.4573 114.153 28.556C113.807 28.2093 113.425 27.8627 113.009 27.516C112.559 27.1347 112.108 26.372 111.657 25.228C111.207 24.0493 110.981 23.0267 110.981 22.16C110.981 21.328 110.947 20.7387 110.877 20.392C110.704 19.6293 110.981 18.52 111.709 17.064C112.437 15.608 113.131 14.724 113.789 14.412C114.101 14.2733 114.604 13.8747 115.297 13.216C115.956 12.592 116.459 12.1933 116.805 12.02ZM119.405 16.336C118.261 15.92 117.36 16.1973 116.701 17.168C116.008 18.1733 115.661 18.7973 115.661 19.04C115.661 19.248 115.592 19.612 115.453 20.132C115.141 21.172 115.245 22.264 115.765 23.408C116.043 23.9973 116.181 24.3787 116.181 24.552C116.181 24.76 116.285 24.968 116.493 25.176C116.701 25.3493 116.892 25.436 117.065 25.436C117.308 25.436 117.689 25.54 118.209 25.748C118.695 25.9907 119.093 26.0947 119.405 26.06C119.717 26.0253 120.133 25.8347 120.653 25.488C121.173 25.176 121.555 25.0027 121.797 24.968C122.213 24.8293 122.508 24.4653 122.681 23.876C122.82 23.5293 123.045 23.1827 123.357 22.836C123.669 22.4893 123.843 21.8827 123.877 21.016C123.912 20.1493 123.791 19.456 123.513 18.936C123.305 18.52 123.167 18.1213 123.097 17.74C122.993 16.908 122.213 16.492 120.757 16.492C120.064 16.492 119.613 16.44 119.405 16.336ZM115.297 34.38C115.713 34.2067 116.268 34.2413 116.961 34.484C117.585 34.7267 117.949 34.9347 118.053 35.108C118.157 35.2813 118.209 35.7493 118.209 36.512C118.175 37.864 118.452 38.8693 119.041 39.528C119.665 40.152 120.775 40.6027 122.369 40.88C124.207 41.1573 125.247 41.296 125.489 41.296C125.489 41.296 125.576 41.296 125.749 41.296C125.923 41.2613 126.165 41.2267 126.477 41.192C126.824 41.1573 127.119 41.14 127.361 41.14C128.436 41.036 129.805 40.984 131.469 40.984C133.133 40.984 134.295 41.0187 134.953 41.088C135.508 41.1573 135.872 41.2613 136.045 41.4C136.253 41.504 136.409 41.712 136.513 42.024C136.617 42.3707 136.756 42.6827 136.929 42.96C137.172 43.3413 137.224 43.7053 137.085 44.052C136.981 44.3987 136.739 44.624 136.357 44.728C136.184 44.728 135.733 44.8147 135.005 44.988C134.312 45.1613 133.671 45.1613 133.081 44.988C132.492 44.8147 131.972 44.78 131.521 44.884C131.071 45.0227 130.291 45.092 129.181 45.092C128.904 45.0573 128.592 45.04 128.245 45.04C127.899 45.04 127.535 45.04 127.153 45.04C126.772 45.0747 126.529 45.092 126.425 45.092C125.871 45.092 125.264 45.0747 124.605 45.04C124.085 45.04 123.496 45.0747 122.837 45.144C122.144 45.2133 121.641 45.1613 121.329 44.988C121.052 44.8493 120.653 44.78 120.133 44.78C119.128 44.78 118.4 44.572 117.949 44.156C117.811 44.0173 117.464 43.8267 116.909 43.584C116.112 43.2027 115.419 42.5267 114.829 41.556C114.24 40.5853 113.945 39.632 113.945 38.696C113.945 38.0027 113.911 37.4653 113.841 37.084C113.772 36.668 113.893 36.148 114.205 35.524C114.517 34.9 114.881 34.5187 115.297 34.38ZM155.588 11.968C155.9 11.864 156.836 11.812 158.396 11.812C159.99 11.812 160.857 11.864 160.996 11.968C161.1 12.0027 161.585 12.072 162.452 12.176C163.318 12.2453 163.96 12.4013 164.376 12.644C164.757 12.8867 165.052 12.9733 165.26 12.904C165.433 12.8693 165.658 12.9387 165.936 13.112C166.248 13.2507 166.473 13.4413 166.612 13.684C166.75 13.9267 167.045 14.2733 167.496 14.724C167.946 15.1747 168.206 15.5907 168.276 15.972C168.345 16.388 168.518 16.8907 168.796 17.48C169.004 17.9653 169.125 18.364 169.16 18.676C169.194 18.988 169.212 19.8547 169.212 21.276C169.177 23.0787 169.073 24.292 168.9 24.916C168.761 25.54 168.466 25.852 168.016 25.852C167.842 25.852 167.461 25.9733 166.872 26.216C166.386 26.4587 166.04 26.58 165.832 26.58C165.624 26.5453 165.364 26.4067 165.052 26.164C164.809 25.9213 164.688 25.644 164.688 25.332C164.688 25.02 164.584 24.6733 164.376 24.292C164.237 23.98 164.168 23.772 164.168 23.668C164.168 23.5293 164.22 23.252 164.324 22.836C164.636 21.8307 164.688 20.6347 164.48 19.248C164.272 17.8613 163.908 17.012 163.388 16.7C162.868 16.3533 161.862 16.0587 160.372 15.816C158.916 15.5733 158.118 15.5733 157.98 15.816C157.876 15.9547 156.316 16.1973 153.3 16.544C152.121 16.6827 151.289 16.7173 150.804 16.648C150.353 16.6133 149.677 16.7173 148.776 16.96C146.418 17.584 145.257 17.272 145.292 16.024C145.292 15.6773 145.24 15.348 145.136 15.036C145.032 14.6893 145.153 14.2907 145.5 13.84C145.846 13.3547 146.228 13.0773 146.644 13.008C146.99 12.9387 147.372 12.8 147.788 12.592C148.238 12.384 148.88 12.2973 149.712 12.332C152.728 12.3667 154.686 12.2453 155.588 11.968ZM145.656 28.92C146.453 28.8507 147.146 28.8507 147.736 28.92C148.29 28.9547 149.001 28.9893 149.868 29.024C151.878 29.0587 153.386 29.1973 154.392 29.44C154.877 29.544 155.31 29.5267 155.692 29.388C155.969 29.284 156.818 29.2493 158.24 29.284C159.661 29.3187 160.701 29.388 161.36 29.492C161.81 29.5613 162.885 29.5613 164.584 29.492C166.49 29.3533 168.137 29.3187 169.524 29.388C170.321 29.388 170.789 29.44 170.928 29.544C171.066 29.6133 171.361 30.0293 171.812 30.792C172.193 31.3467 172.297 31.884 172.124 32.404C171.985 32.8893 171.604 33.2187 170.98 33.392C170.564 33.496 170.096 33.652 169.576 33.86C169.09 34.0333 168.605 34.0853 168.12 34.016C165.936 33.808 163.873 33.6867 161.932 33.652C159.99 33.6173 158.933 33.6867 158.76 33.86C158.621 33.9987 158.5 35.6973 158.396 38.956C158.292 42.18 158.17 43.9133 158.032 44.156C157.893 44.3293 157.616 44.52 157.2 44.728C156.784 44.936 156.437 45.04 156.16 45.04C155.952 45.04 155.57 44.8493 155.016 44.468C154.461 44.0867 154.114 43.792 153.976 43.584C153.906 43.4453 153.906 42.3187 153.976 40.204C154.045 38.0893 154.166 36.3213 154.34 34.9C154.409 34.172 154.114 33.704 153.456 33.496C152.797 33.288 151.601 33.3053 149.868 33.548C148.862 33.652 148.1 33.652 147.58 33.548C147.025 33.444 146.522 33.444 146.072 33.548C145.378 33.6867 144.824 33.6867 144.408 33.548C144.026 33.3747 143.645 32.9933 143.264 32.404C142.848 31.8147 142.657 31.3293 142.692 30.948C142.726 30.532 142.952 30.1507 143.368 29.804C143.853 29.4227 144.182 29.1973 144.356 29.128C144.564 29.0587 144.997 28.9893 145.656 28.92ZM187.316 14.204C187.906 13.892 188.426 13.8747 188.876 14.152C189.119 14.3253 189.448 14.464 189.864 14.568C190.28 14.672 190.575 14.9147 190.748 15.296C190.922 15.6773 190.991 15.972 190.956 16.18C190.922 16.3533 190.731 16.8213 190.384 17.584C190.038 18.3467 189.847 18.8493 189.812 19.092C189.778 19.3347 189.882 19.56 190.124 19.768C190.922 20.496 192.828 21.3627 195.844 22.368C196.711 22.6453 197.352 22.888 197.768 23.096C198.08 23.2693 198.514 23.46 199.068 23.668C199.9 23.98 200.282 24.6733 200.212 25.748C200.143 26.8227 199.658 27.7413 198.756 28.504C198.236 28.9547 197.768 29.1627 197.352 29.128C196.971 29.0587 196.451 28.7293 195.792 28.14C195.411 27.7933 194.856 27.4987 194.128 27.256C193.366 27.0133 192.742 26.7187 192.256 26.372C191.736 26.06 191.182 25.7307 190.592 25.384C190.003 25.072 189.57 24.7427 189.292 24.396C189.05 24.084 188.443 23.7027 187.472 23.252C186.606 22.836 185.982 22.6453 185.6 22.68C185.254 22.7147 184.786 23.044 184.196 23.668C183.711 24.1533 183.139 24.6907 182.48 25.28C181.787 25.8693 181.094 26.5973 180.4 27.464C178.424 29.7173 177.194 30.74 176.708 30.532C176.5 30.4627 176.102 30.1333 175.512 29.544C174.923 28.9547 174.594 28.5733 174.524 28.4C174.42 28.0533 174.542 27.568 174.888 26.944C175.27 26.32 175.651 25.9213 176.032 25.748C176.31 25.644 177.28 24.76 178.944 23.096C180.608 21.3973 181.648 20.2707 182.064 19.716C182.515 19.1267 183.035 18.52 183.624 17.896C184.248 17.272 184.699 16.856 184.976 16.648C185.288 16.4747 185.583 16.2493 185.86 15.972C186.138 15.6947 186.276 15.4867 186.276 15.348C186.276 15.2093 186.38 15.0187 186.588 14.776C186.831 14.4987 187.074 14.308 187.316 14.204ZM185.548 32.3C186.519 31.26 187.403 31.2773 188.2 32.352C188.928 33.3573 189.24 34.848 189.136 36.824C189.102 37.656 189.119 38.176 189.188 38.384C189.292 38.592 189.552 38.696 189.968 38.696C191.563 38.7307 193.504 38.644 195.792 38.436C198.288 38.228 199.952 38.1413 200.784 38.176C201.651 38.2107 202.154 38.4013 202.292 38.748C202.674 39.6147 202.76 40.36 202.552 40.984C202.379 41.608 201.98 41.92 201.356 41.92C201.148 41.92 200.68 42.024 199.952 42.232C199.467 42.3707 199.12 42.44 198.912 42.44C198.704 42.44 198.323 42.388 197.768 42.284C197.214 42.18 196.676 42.1453 196.156 42.18C195.671 42.18 194.232 42.2667 191.84 42.44C191.008 42.5093 190.402 42.4747 190.02 42.336C189.674 42.232 189.344 42.232 189.032 42.336C188.374 42.5787 186.675 42.7347 183.936 42.804C181.232 42.8733 179.256 42.8213 178.008 42.648C177.142 42.544 176.466 42.492 175.98 42.492C175.322 42.492 174.784 42.3187 174.368 41.972C173.987 41.6253 173.796 41.1747 173.796 40.62C173.796 40.3427 173.97 39.9787 174.316 39.528C174.663 39.0773 174.975 38.8173 175.252 38.748C176.188 38.5747 177.211 38.5573 178.32 38.696C179.152 38.8 180.262 38.8173 181.648 38.748C183.07 38.644 183.832 38.5227 183.936 38.384C183.971 38.3147 184.023 37.8987 184.092 37.136C184.196 36.096 184.422 34.8827 184.768 33.496C184.872 33.1493 185.132 32.7507 185.548 32.3Z" fill="#4E4E4E"/>
</g>
<path d="M143.983 112.103L131.708 121.999C131.104 135.42 130.504 148.841 129.9 162.257C130.646 164.685 131.958 167.435 134.278 169.83C143.054 178.877 158.128 174.482 158.774 174.282C158.82 174.999 159.061 177.34 160.927 179.256C163.193 181.588 166.667 181.451 168.35 181.409C190.938 180.847 191.068 183.292 197.078 180.297C198.082 179.797 211.836 172.716 213.485 161.07C214.006 157.396 213.21 154.035 215.118 148.303C216.359 144.575 218.105 141.755 219.425 139.914C219.475 133.058 219.525 126.206 219.575 119.35C216.867 115.335 211.207 108.137 201.46 102.943C187.111 95.2957 173.344 97.0285 168.725 97.8199C163.456 101.36 158.183 104.897 152.913 108.437C149.935 109.658 146.957 110.878 143.979 112.099L143.983 112.103Z" fill="white"/>
<path d="M17.2496 199.562C30.9243 200.928 41.096 198.941 47.8354 196.887C60.1606 193.139 65.1797 187.903 73.3729 190.056C77.7173 191.198 77.9589 193.105 89.705 203.123C104.863 216.052 108.566 216.381 110.786 216.189C116.646 215.677 122.794 210.595 123.552 204.61C124.406 197.87 118.083 192.772 114.347 189.765C105.596 182.709 92.8207 179.939 90.9879 182.934C89.8008 184.879 92.8082 189.915 95.3365 189.861C97.1484 189.823 99.0645 187.157 98.9062 185.012C98.6521 181.534 92.8707 178.51 84.5526 177.194" stroke="#CBCBCB" stroke-width="2.49918" stroke-linecap="round" stroke-linejoin="round"/>
<path d="M143.983 112.103L131.708 121.999C131.104 135.42 130.504 148.841 129.9 162.257C130.646 164.685 131.958 167.435 134.278 169.83C143.054 178.877 158.128 174.482 158.774 174.282C158.82 174.999 159.061 177.34 160.927 179.256C163.193 181.588 166.667 181.451 168.35 181.409C190.938 180.847 191.068 183.292 197.078 180.297C198.082 179.797 211.836 172.716 213.485 161.07C214.006 157.396 213.21 154.035 215.118 148.303C216.359 144.575 218.105 141.755 219.425 139.914C219.475 133.058 219.525 126.206 219.575 119.35C216.867 115.335 211.207 108.137 201.46 102.943C187.111 95.2957 173.344 97.0285 168.725 97.8199C163.456 101.36 158.183 104.897 152.913 108.437" stroke="#474B4E" stroke-width="4.1653" stroke-linecap="round" stroke-linejoin="round"/>
<path d="M118.866 146.771C119.887 145.825 121.457 144.592 123.619 143.605C126.339 142.364 128.796 142.06 130.342 141.989" stroke="#474B4E" stroke-width="4.1653" stroke-linecap="round" stroke-linejoin="round"/>
<path d="M227.397 159.662C225.998 158.508 223.907 157.034 221.112 155.851C218.4 154.705 215.959 154.226 214.185 154.018" stroke="#474B4E" stroke-width="4.1653" stroke-linecap="round" stroke-linejoin="round"/>
<path d="M200.856 191.806C200.46 190.256 199.965 188.586 199.336 186.833C198.553 184.65 197.699 182.692 196.849 180.968" stroke="#474B4E" stroke-width="4.1653" stroke-linecap="round" stroke-linejoin="round"/>
<path d="M135.707 184.517C136.527 183.005 137.427 181.443 138.414 179.839C139.543 178.011 140.676 176.303 141.792 174.716" stroke="#474B4E" stroke-width="4.1653" stroke-linecap="round" stroke-linejoin="round"/>
<path d="M155.625 127.323C156.621 128.668 157.983 130.763 159.041 133.558C160.115 136.399 160.032 137.732 160.523 138.757C161.69 141.164 166.58 142.934 182.795 140.239C184.411 138.944 186.028 137.649 187.644 136.353" stroke="#474B4E" stroke-width="3.33224" stroke-linecap="round" stroke-linejoin="round"/>
<path d="M143.487 129.738C144.822 129.738 145.903 128.657 145.903 127.323C145.903 125.988 144.822 124.907 143.487 124.907C142.153 124.907 141.072 125.988 141.072 127.323C141.072 128.657 142.153 129.738 143.487 129.738Z" fill="#474B4E"/>
<path d="M199.906 142.951C201.241 142.951 202.322 141.869 202.322 140.535C202.322 139.201 201.241 138.119 199.906 138.119C198.572 138.119 197.49 139.201 197.49 140.535C197.49 141.869 198.572 142.951 199.906 142.951Z" fill="#474B4E"/>
<path d="M108.603 171.95C107.878 171.329 106.795 170.496 105.358 169.709C104.05 168.993 103.005 168.618 101.31 168.018C98.0357 166.86 97.5067 167.002 95.8989 166.206C94.9117 165.719 93.6371 164.94 92.2959 163.64L92.0293 163.34C92.0293 163.34 93.2206 169.155 95.6448 181.022C100.127 178.11 104.609 175.199 109.09 172.287C108.928 172.175 108.761 172.062 108.599 171.95H108.603Z" fill="white"/>
<path d="M108.603 171.95C107.878 171.329 106.795 170.496 105.358 169.709C104.05 168.992 103.005 168.617 101.31 168.018C98.0357 166.86 97.5067 167.001 95.8989 166.206C94.9117 165.718 93.6371 164.94 92.2959 163.64L92.0293 163.34C92.0293 163.34 95.9447 150.503 98.1148 142.543C99.5393 137.307 101.289 130.23 102.901 121.541L103.109 121.916C105.658 123.378 109.099 125.028 113.351 126.248C118.3 127.668 122.669 128.022 125.889 128.035L126.272 127.989C124.065 133.292 121.874 138.694 119.704 144.192C115.934 153.735 112.402 163.111 109.099 172.295" fill="#FF7C7D"/>
<path d="M101.864 176.982C99.7934 178.327 97.719 179.673 95.6489 181.018C95.0699 178.181 94.4868 175.345 93.9078 172.508L93.8536 172.233C95.0449 172.9 96.2362 173.566 97.4316 174.241C98.8812 175.057 100.322 175.874 101.759 176.69C101.793 176.786 101.83 176.882 101.864 176.978V176.982Z" fill="#292A2C"/>
<path d="M103.109 121.908C105.658 123.37 109.099 125.019 113.351 126.24C118.3 127.66 122.669 128.014 125.889 128.027L126.268 127.981C127.205 125.732 128.051 123.716 128.784 121.987C124.952 121.912 119.895 121.416 114.214 119.729C110.111 118.509 106.674 116.964 103.95 115.506C103.605 117.501 103.255 119.496 102.909 121.487C102.976 121.629 103.042 121.766 103.109 121.908Z" fill="#FFCB4F"/>
<path d="M124.86 121.77C121.865 121.5 118.229 120.921 114.218 119.729C110.873 118.738 108.003 117.534 105.637 116.372L105.845 115.852L107.307 112.519C108.978 112.84 111.402 113.365 114.293 114.215C116.159 114.764 116.967 115.077 118.77 115.606C120.524 116.118 122.99 116.76 126.039 117.309C125.697 118.53 125.356 119.746 125.014 120.967C124.96 121.233 124.91 121.504 124.856 121.77H124.86Z" fill="#AFDEF7"/>
<path d="M92.0292 163.336C92.0292 163.336 93.2205 169.151 95.6447 181.018C100.127 178.106 104.608 175.195 109.09 172.283C112.398 163.099 115.926 153.727 119.695 144.18C122.69 136.595 125.722 129.197 128.78 121.983C124.948 121.908 119.891 121.412 114.209 119.725C110.107 118.505 106.67 116.96 103.946 115.502C102.076 126.981 99.8516 136.132 98.1105 142.53C95.9404 150.494 92.025 163.332 92.025 163.328L92.0292 163.336Z" stroke="#474B4E" stroke-width="1.66612" stroke-linecap="round" stroke-linejoin="round"/>
<path d="M105.845 115.852L107.307 112.519C108.978 112.84 111.402 113.365 114.293 114.215C116.159 114.764 116.967 115.077 118.77 115.606C120.524 116.118 122.99 116.76 126.039 117.309C125.697 118.53 125.356 119.746 125.014 120.967" stroke="#474B4E" stroke-width="1.66612" stroke-linecap="round" stroke-linejoin="round"/>
<path d="M103.109 121.908C105.658 123.37 109.099 125.019 113.351 126.24C118.3 127.66 122.669 128.014 125.889 128.027" stroke="#474B4E" stroke-width="1.66612" stroke-linecap="round" stroke-linejoin="round"/>
<path d="M92.3 163.64C93.6413 164.94 94.9159 165.719 95.903 166.206C97.515 167.002 98.0398 166.86 101.314 168.018C103.009 168.618 104.055 168.993 105.362 169.709C106.795 170.496 107.882 171.329 108.607 171.95" stroke="#474B4E" stroke-width="1.66612" stroke-linecap="round" stroke-linejoin="round"/>
<path d="M93.8536 172.237C95.0449 172.904 96.2362 173.57 97.4316 174.245C98.8812 175.061 100.322 175.878 101.759 176.694" stroke="#474B4E" stroke-width="1.66612" stroke-linecap="round" stroke-linejoin="round"/>
<path d="M95.3364 165.394C97.1608 159 98.9769 152.61 100.789 146.217C102.867 138.881 104.946 131.542 107.012 124.199" stroke="#474B4E" stroke-width="1.66612" stroke-linecap="round" stroke-linejoin="round"/>
<path d="M99.8058 167.285C102.455 160.233 105.05 152.794 107.537 144.975C109.569 138.573 111.398 132.338 113.039 126.294" stroke="#474B4E" stroke-width="1.66612" stroke-linecap="round" stroke-linejoin="round"/>
<path d="M104.117 168.405C106.633 162.974 108.386 158.488 109.486 155.526C111.773 149.361 112.523 146.267 115.068 139.165C116.896 134.058 118.529 130.009 119.545 127.564" stroke="#474B4E" stroke-width="1.66612" stroke-linecap="round" stroke-linejoin="round"/>
<path d="M104.55 122.333C105.037 121.608 105.562 120.721 106.033 119.658C106.416 118.796 106.695 117.992 106.899 117.276" stroke="#474B4E" stroke-width="1.66612" stroke-linecap="round" stroke-linejoin="round"/>
<path d="M107.587 123.895C108.049 123.082 108.516 122.208 108.97 121.27C109.415 120.358 109.807 119.479 110.157 118.634" stroke="#474B4E" stroke-width="1.66612" stroke-linecap="round" stroke-linejoin="round"/>
<path d="M111.81 125.382C112.152 124.565 112.485 123.72 112.814 122.841C113.197 121.825 113.543 120.833 113.86 119.871" stroke="#474B4E" stroke-width="1.66612" stroke-linecap="round" stroke-linejoin="round"/>
<path d="M115.572 126.307C115.984 125.34 116.388 124.328 116.779 123.27C117.067 122.5 117.333 121.741 117.579 121" stroke="#474B4E" stroke-width="1.66612" stroke-linecap="round" stroke-linejoin="round"/>
<path d="M119.837 127.202C120.12 126.211 120.399 125.207 120.678 124.199C120.911 123.349 121.141 122.503 121.37 121.666" stroke="#474B4E" stroke-width="1.66612" stroke-linecap="round" stroke-linejoin="round"/>
<path d="M123.702 127.643C123.969 126.681 124.214 125.636 124.423 124.511C124.577 123.686 124.698 122.891 124.789 122.137" stroke="#474B4E" stroke-width="1.66612" stroke-linecap="round" stroke-linejoin="round"/>
<defs>
<clipPath id="clip0_39_15162">
<rect width="245" height="60" fill="white"/>
</clipPath>
</defs>
</svg>
