<svg width="130" height="109" viewBox="0 0 130 109" fill="none" xmlns="http://www.w3.org/2000/svg">
<g clip-path="url(#clip0_40000234_10639)">
<path d="M26.895 20.53C21.985 24.49 17.075 28.45 12.16 32.41C11.435 48.52 10.715 64.63 9.98999 80.735C10.885 83.65 12.46 86.95 15.245 89.825C25.78 100.685 43.875 95.41 44.65 95.17C44.705 96.03 44.995 98.84 47.235 101.14C49.955 103.94 54.125 103.775 56.145 103.725C83.26 103.05 83.415 105.985 90.63 102.39C91.835 101.79 108.345 93.29 110.325 79.31C110.95 74.9 109.995 70.865 112.285 63.985C113.775 59.51 115.87 56.125 117.455 53.915C117.515 45.685 117.575 37.46 117.635 29.23C114.385 24.41 107.59 15.77 95.89 9.53502C78.665 0.360018 62.14 2.44502 56.595 3.39502C50.27 7.64502 43.94 11.89 37.615 16.14C34.04 17.605 30.465 19.07 26.89 20.535L26.895 20.53Z" fill="white"/>
<path d="M26.895 20.53C21.985 24.49 17.075 28.45 12.16 32.41C11.435 48.52 10.715 64.63 9.98999 80.735C10.885 83.65 12.46 86.95 15.245 89.825C25.78 100.685 43.875 95.41 44.65 95.17C44.705 96.03 44.995 98.84 47.235 101.14C49.955 103.94 54.125 103.775 56.145 103.725C83.26 103.05 83.415 105.985 90.63 102.39C91.835 101.79 108.345 93.29 110.325 79.31C110.95 74.9 109.995 70.865 112.285 63.985C113.775 59.51 115.87 56.125 117.455 53.915C117.515 45.685 117.575 37.46 117.635 29.23C114.385 24.41 107.59 15.77 95.89 9.53502C78.665 0.360018 62.14 2.44502 56.595 3.39502C50.27 7.64502 43.94 11.89 37.615 16.14" stroke="#474B4E" stroke-width="5" stroke-linecap="round" stroke-linejoin="round"/>
<path d="M9.455 55.985C8.215 54.865 6.57 53.12 5.155 50.645C3.375 47.53 2.745 44.62 2.5 42.785" stroke="#474B4E" stroke-width="5" stroke-linecap="round" stroke-linejoin="round"/>
<path d="M111.42 70.29C113.56 69.88 116.525 69.08 119.76 67.405C122.9 65.78 125.21 63.885 126.76 62.405" stroke="#474B4E" stroke-width="5" stroke-linecap="round" stroke-linejoin="round"/>
<path d="M93.01 102.65C93.37 103.115 95.54 105.825 99.39 106.18C103.69 106.58 106.515 103.715 106.865 103.35" stroke="#474B4E" stroke-width="5" stroke-linecap="round" stroke-linejoin="round"/>
<path d="M2.5 96.9301C3.335 97.3901 5.615 98.5051 8.555 98.1051C13.17 97.4801 15.51 93.6501 15.815 93.1301" stroke="#474B4E" stroke-width="5" stroke-linecap="round" stroke-linejoin="round"/>
<path d="M40.87 38.8C42.065 40.415 43.7 42.93 44.97 46.285C46.26 49.695 46.16 51.2951 46.75 52.5251C48.15 55.4151 54.02 57.54 73.485 54.305C75.425 52.75 77.365 51.195 79.305 49.64" stroke="#474B4E" stroke-width="4" stroke-linecap="round" stroke-linejoin="round"/>
<path d="M26.3 41.7C27.9016 41.7 29.2 40.4016 29.2 38.8C29.2 37.1984 27.9016 35.9 26.3 35.9C24.6984 35.9 23.4 37.1984 23.4 38.8C23.4 40.4016 24.6984 41.7 26.3 41.7Z" fill="#474B4E"/>
<path d="M94.02 57.56C95.6216 57.56 96.92 56.2616 96.92 54.66C96.92 53.0584 95.6216 51.76 94.02 51.76C92.4184 51.76 91.12 53.0584 91.12 54.66C91.12 56.2616 92.4184 57.56 94.02 57.56Z" fill="#474B4E"/>
</g>
<defs>
<clipPath id="clip0_40000234_10639">
<rect width="129.26" height="108.715" fill="white"/>
</clipPath>
</defs>
</svg>
