<svg width="278" height="35" viewBox="0 0 278 35" fill="none" xmlns="http://www.w3.org/2000/svg">
<g clip-path="url(#clip0_40000042_41331)">
<rect y="24" width="260" height="8" rx="4" fill="#F0F0F0"/>
<rect y="24" width="260" height="8" rx="4" fill="#4E4E4E"/>
</g>
<path d="M261.225 24.4535C260.981 24.2452 260.618 23.9655 260.135 23.7012C259.696 23.4607 259.345 23.3348 258.776 23.1334C257.677 22.7447 257.499 22.7922 256.96 22.5251C256.628 22.3615 256.2 22.1 255.75 21.6637L255.66 21.563C255.66 21.563 256.06 23.5152 256.874 27.4993C258.379 26.5218 259.884 25.5443 261.388 24.5668C261.334 24.5291 261.278 24.4913 261.223 24.4535H261.225Z" fill="white"/>
<path d="M261.225 24.4534C260.981 24.2451 260.618 23.9654 260.135 23.7011C259.696 23.4605 259.345 23.3347 258.776 23.1333C257.677 22.7445 257.499 22.7921 256.96 22.525C256.628 22.3614 256.2 22.0999 255.75 21.6636L255.66 21.5629C255.66 21.5629 256.975 17.2529 257.704 14.5805C258.182 12.8227 258.769 10.4468 259.31 7.52966L259.38 7.65552C260.236 8.14637 261.391 8.70015 262.819 9.10988C264.48 9.58675 265.947 9.70562 267.028 9.70981L267.157 9.69443C266.416 11.4746 265.68 13.2884 264.952 15.1343C263.686 18.3381 262.5 21.486 261.391 24.5695" fill="#FF7C7D"/>
<path d="M258.962 26.1429C258.267 26.5946 257.571 27.0463 256.876 27.498C256.681 26.5457 256.486 25.5933 256.291 24.641L256.273 24.5487C256.673 24.7725 257.073 24.9962 257.474 25.2227C257.961 25.4968 258.445 25.7709 258.927 26.045C258.938 26.0772 258.951 26.1094 258.962 26.1415V26.1429Z" fill="#292A2C"/>
<path d="M259.38 7.6528C260.236 8.14365 261.391 8.69743 262.819 9.10716C264.48 9.58403 265.947 9.70289 267.028 9.70709L267.155 9.69171C267.47 8.93656 267.754 8.25972 268 7.67937C266.714 7.6542 265.016 7.48779 263.108 6.92142C261.731 6.51168 260.577 5.99287 259.663 5.50342C259.547 6.17326 259.429 6.84311 259.313 7.51156C259.335 7.55911 259.358 7.60525 259.38 7.6528Z" fill="#FFCB4F"/>
<path d="M266.683 7.60664C265.677 7.51574 264.456 7.32136 263.11 6.92141C261.987 6.58858 261.023 6.18444 260.229 5.79428L260.299 5.61947L260.79 4.50073C261.351 4.60841 262.164 4.78461 263.135 5.06989C263.761 5.25448 264.033 5.35937 264.638 5.53697C265.227 5.70897 266.055 5.92433 267.078 6.10892C266.964 6.51866 266.849 6.927 266.734 7.33674C266.716 7.42624 266.7 7.51714 266.681 7.60664H266.683Z" fill="#AFDEF7"/>
<path d="M255.66 21.5616C255.66 21.5616 256.06 23.5138 256.874 27.4979C258.379 26.5204 259.884 25.5429 261.388 24.5654C262.499 21.4819 263.683 18.3354 264.949 15.1302C265.954 12.5837 266.972 10.1001 267.999 7.67803C266.712 7.65286 265.014 7.48644 263.107 6.92008C261.73 6.51034 260.576 5.99152 259.661 5.50208C259.033 9.35614 258.287 12.4285 257.702 14.5765C256.973 17.2503 255.659 21.5602 255.659 21.5588L255.66 21.5616Z" stroke="#474B4E" stroke-width="0.559371" stroke-linecap="round" stroke-linejoin="round"/>
<path d="M260.299 5.61947L260.79 4.50073C261.351 4.60841 262.164 4.78461 263.135 5.06989C263.761 5.25448 264.033 5.35937 264.638 5.53697C265.227 5.70897 266.055 5.92433 267.079 6.10892C266.964 6.51866 266.849 6.927 266.735 7.33674" stroke="#474B4E" stroke-width="0.559371" stroke-linecap="round" stroke-linejoin="round"/>
<path d="M259.38 7.65283C260.236 8.14368 261.391 8.69746 262.819 9.1072C264.48 9.58406 265.947 9.70293 267.028 9.70712" stroke="#474B4E" stroke-width="0.559371" stroke-linecap="round" stroke-linejoin="round"/>
<path d="M255.751 21.6636C256.202 22.0999 256.629 22.3614 256.961 22.525C257.502 22.7921 257.678 22.7446 258.777 23.1333C259.347 23.3347 259.698 23.4606 260.137 23.7011C260.618 23.9654 260.983 24.2451 261.226 24.4534" stroke="#474B4E" stroke-width="0.559371" stroke-linecap="round" stroke-linejoin="round"/>
<path d="M256.273 24.55C256.673 24.7738 257.073 24.9975 257.474 25.2241C257.961 25.4982 258.445 25.7723 258.927 26.0464" stroke="#474B4E" stroke-width="0.559371" stroke-linecap="round" stroke-linejoin="round"/>
<path d="M256.771 22.2524C257.383 20.1059 257.993 17.9607 258.601 15.8141C259.299 13.3515 259.997 10.8874 260.69 8.422" stroke="#474B4E" stroke-width="0.559371" stroke-linecap="round" stroke-linejoin="round"/>
<path d="M258.271 22.8872C259.161 20.5196 260.032 18.022 260.867 15.3972C261.549 13.2478 262.163 11.1544 262.714 9.12524" stroke="#474B4E" stroke-width="0.559371" stroke-linecap="round" stroke-linejoin="round"/>
<path d="M259.719 23.2635C260.563 21.4399 261.152 19.9338 261.521 18.9395C262.289 16.8698 262.541 15.8308 263.395 13.4465C264.009 11.732 264.557 10.3728 264.898 9.55188" stroke="#474B4E" stroke-width="0.559371" stroke-linecap="round" stroke-linejoin="round"/>
<path d="M259.864 7.79535C260.028 7.55202 260.204 7.25416 260.362 6.89756C260.491 6.60808 260.584 6.33819 260.653 6.09766" stroke="#474B4E" stroke-width="0.559371" stroke-linecap="round" stroke-linejoin="round"/>
<path d="M260.884 8.3198C261.039 8.04711 261.195 7.75344 261.348 7.43879C261.497 7.13254 261.629 6.83747 261.746 6.55359" stroke="#474B4E" stroke-width="0.559371" stroke-linecap="round" stroke-linejoin="round"/>
<path d="M262.302 8.81911C262.416 8.54502 262.528 8.26114 262.639 7.96607C262.767 7.62486 262.883 7.29203 262.99 6.96899" stroke="#474B4E" stroke-width="0.559371" stroke-linecap="round" stroke-linejoin="round"/>
<path d="M263.564 9.1295C263.703 8.80506 263.838 8.46524 263.97 8.11004C264.066 7.85133 264.156 7.59682 264.238 7.3479" stroke="#474B4E" stroke-width="0.559371" stroke-linecap="round" stroke-linejoin="round"/>
<path d="M264.996 9.43017C265.091 9.09734 265.185 8.76032 265.279 8.4219C265.357 8.13662 265.434 7.85274 265.511 7.57166" stroke="#474B4E" stroke-width="0.559371" stroke-linecap="round" stroke-linejoin="round"/>
<path d="M266.294 9.57846C266.384 9.25542 266.466 8.90441 266.536 8.52684C266.588 8.24995 266.628 7.98285 266.659 7.72974" stroke="#474B4E" stroke-width="0.559371" stroke-linecap="round" stroke-linejoin="round"/>
<defs>
<clipPath id="clip0_40000042_41331">
<rect y="24" width="260" height="8" rx="4" fill="white"/>
</clipPath>
</defs>
</svg>
