<svg width="268" height="35" viewBox="0 0 268 35" fill="none" xmlns="http://www.w3.org/2000/svg">
<rect y="24" width="260" height="8" rx="4" fill="#F0F0F0"/>
<rect y="24" width="52" height="8" rx="4" fill="#4E4E4E"/>
<path d="M53.2247 24.4535C52.9814 24.2451 52.6178 23.9654 52.1354 23.7011C51.6963 23.4606 51.3453 23.3347 50.7761 23.1334C49.6769 22.7446 49.4993 22.7921 48.9595 22.525C48.6281 22.3614 48.2002 22.0999 47.7499 21.6636L47.6604 21.5629C47.6604 21.5629 48.0604 23.5151 48.8742 27.4992C50.3789 26.5217 51.8837 25.5442 53.3884 24.5667C53.3338 24.529 53.2779 24.4912 53.2233 24.4535H53.2247Z" fill="white"/>
<path d="M53.2247 24.4534C52.9814 24.2451 52.6178 23.9654 52.1354 23.7011C51.6963 23.4605 51.3453 23.3347 50.7761 23.1333C49.6769 22.7445 49.4993 22.7921 48.9595 22.525C48.6281 22.3614 48.2002 22.0999 47.7499 21.6636L47.6604 21.5629C47.6604 21.5629 48.9749 17.2529 49.7035 14.5805C50.1818 12.8227 50.7691 10.4468 51.3103 7.52966L51.3802 7.65552C52.2361 8.14637 53.3912 8.70015 54.8189 9.10988C56.4803 9.58675 57.9472 9.70562 59.0282 9.70981L59.1569 9.69443C58.4157 11.4746 57.6801 13.2884 56.9516 15.1343C55.686 18.3381 54.5001 21.486 53.3912 24.5695" fill="#FF7C7D"/>
<path d="M50.9621 26.1429C50.2671 26.5945 49.5707 27.0462 48.8757 27.4979C48.6813 26.5456 48.4855 25.5933 48.2911 24.6409L48.2729 24.5486C48.6729 24.7724 49.0728 24.9961 49.4742 25.2227C49.9609 25.4968 50.4447 25.7709 50.9272 26.045C50.9384 26.0771 50.9509 26.1093 50.9621 26.1415V26.1429Z" fill="#292A2C"/>
<path d="M51.3802 7.65286C52.2361 8.14371 53.3912 8.69749 54.819 9.10723C56.4803 9.58409 57.9472 9.70296 59.0282 9.70715L59.1555 9.69177C59.4701 8.93662 59.754 8.25978 60.0001 7.67943C58.7136 7.65426 57.0159 7.48785 55.1084 6.92148C53.731 6.51174 52.5773 5.99293 51.6627 5.50348C51.5466 6.17333 51.4292 6.84317 51.3131 7.51162C51.3355 7.55917 51.3579 7.60531 51.3802 7.65286Z" fill="#FFCB4F"/>
<path d="M58.6827 7.60664C57.6773 7.51574 56.4564 7.32136 55.1098 6.92141C53.9868 6.58858 53.0233 6.18444 52.229 5.79428L52.2989 5.61947L52.7898 4.50073C53.3505 4.60841 54.1644 4.78461 55.1349 5.06989C55.7614 5.25448 56.0327 5.35937 56.6382 5.53697C57.227 5.70897 58.0549 5.92433 59.0785 6.10892C58.9638 6.51866 58.8492 6.927 58.7345 7.33674C58.7163 7.42624 58.6995 7.51714 58.6813 7.60664H58.6827Z" fill="#AFDEF7"/>
<path d="M47.6603 21.5616C47.6603 21.5616 48.0603 23.5138 48.8742 27.4979C50.3789 26.5204 51.8836 25.5429 53.3883 24.5654C54.4986 21.4819 55.6831 18.3354 56.9487 15.1302C57.9542 12.5837 58.9722 10.1001 59.9987 7.67803C58.7121 7.65286 57.0144 7.48644 55.107 6.92008C53.7295 6.51034 52.5758 5.99152 51.6612 5.50208C51.0333 9.35614 50.2866 12.4285 49.702 14.5765C48.9735 17.2503 47.6589 21.5602 47.6589 21.5588L47.6603 21.5616Z" stroke="#474B4E" stroke-width="0.559371" stroke-linecap="round" stroke-linejoin="round"/>
<path d="M52.299 5.61947L52.7898 4.50073C53.3506 4.60841 54.1645 4.78461 55.135 5.06989C55.7615 5.25448 56.0328 5.35937 56.6383 5.53697C57.227 5.70897 58.0549 5.92433 59.0785 6.10892C58.9639 6.51866 58.8492 6.927 58.7345 7.33674" stroke="#474B4E" stroke-width="0.559371" stroke-linecap="round" stroke-linejoin="round"/>
<path d="M51.3802 7.65283C52.2361 8.14368 53.3912 8.69746 54.819 9.1072C56.4803 9.58406 57.9473 9.70293 59.0282 9.70712" stroke="#474B4E" stroke-width="0.559371" stroke-linecap="round" stroke-linejoin="round"/>
<path d="M47.7512 21.6635C48.2015 22.0998 48.6294 22.3613 48.9609 22.5249C49.5021 22.792 49.6783 22.7445 50.7774 23.1333C51.3466 23.3346 51.6976 23.4605 52.1367 23.701C52.6177 23.9653 52.9827 24.245 53.2261 24.4534" stroke="#474B4E" stroke-width="0.559371" stroke-linecap="round" stroke-linejoin="round"/>
<path d="M48.2729 24.55C48.6729 24.7738 49.0728 24.9975 49.4742 25.2241C49.9609 25.4982 50.4447 25.7723 50.9272 26.0464" stroke="#474B4E" stroke-width="0.559371" stroke-linecap="round" stroke-linejoin="round"/>
<path d="M48.7706 22.2524C49.3831 20.1058 49.9929 17.9606 50.6012 15.814C51.299 13.3514 51.9968 10.8874 52.6904 8.42194" stroke="#474B4E" stroke-width="0.559371" stroke-linecap="round" stroke-linejoin="round"/>
<path d="M50.2712 22.8871C51.1606 20.5196 52.0319 18.022 52.8667 15.3971C53.5492 13.2477 54.1631 11.1543 54.714 9.12518" stroke="#474B4E" stroke-width="0.559371" stroke-linecap="round" stroke-linejoin="round"/>
<path d="M51.7186 23.2635C52.5633 21.44 53.152 19.9339 53.5212 18.9396C54.2889 16.8699 54.5407 15.8309 55.3951 13.4466C56.009 11.7321 56.5572 10.3728 56.8984 9.55194" stroke="#474B4E" stroke-width="0.559371" stroke-linecap="round" stroke-linejoin="round"/>
<path d="M51.8641 7.79541C52.0278 7.55208 52.204 7.25422 52.362 6.89762C52.4906 6.60814 52.5843 6.33825 52.6528 6.09772" stroke="#474B4E" stroke-width="0.559371" stroke-linecap="round" stroke-linejoin="round"/>
<path d="M52.8835 8.3198C53.0388 8.04711 53.1954 7.75344 53.3478 7.43879C53.4975 7.13254 53.6289 6.83747 53.7464 6.55359" stroke="#474B4E" stroke-width="0.559371" stroke-linecap="round" stroke-linejoin="round"/>
<path d="M54.3015 8.81905C54.4162 8.54496 54.5281 8.26108 54.6385 7.96601C54.7672 7.62479 54.8833 7.29197 54.9895 6.96893" stroke="#474B4E" stroke-width="0.559371" stroke-linecap="round" stroke-linejoin="round"/>
<path d="M55.5643 9.12956C55.7028 8.80512 55.8384 8.46531 55.9699 8.1101C56.0664 7.8514 56.1559 7.59688 56.2384 7.34796" stroke="#474B4E" stroke-width="0.559371" stroke-linecap="round" stroke-linejoin="round"/>
<path d="M56.9963 9.4301C57.0914 9.09728 57.1851 8.76026 57.2788 8.42184C57.3571 8.13656 57.434 7.85268 57.511 7.57159" stroke="#474B4E" stroke-width="0.559371" stroke-linecap="round" stroke-linejoin="round"/>
<path d="M58.2941 9.57846C58.3836 9.25542 58.4661 8.90441 58.536 8.52684C58.5877 8.24995 58.6283 7.98285 58.6591 7.72974" stroke="#474B4E" stroke-width="0.559371" stroke-linecap="round" stroke-linejoin="round"/>
</svg>
