<svg width="268" height="35" viewBox="0 0 268 35" fill="none" xmlns="http://www.w3.org/2000/svg">
<rect y="24" width="260" height="8" rx="4" fill="#F0F0F0"/>
<rect y="24" width="208" height="8" rx="4" fill="#4E4E4E"/>
<path d="M209.225 24.4535C208.981 24.2451 208.618 23.9654 208.135 23.7011C207.696 23.4606 207.345 23.3347 206.776 23.1334C205.677 22.7446 205.499 22.7921 204.96 22.525C204.628 22.3614 204.2 22.0999 203.75 21.6636L203.66 21.5629C203.66 21.5629 204.06 23.5151 204.874 27.4992C206.379 26.5217 207.884 25.5442 209.388 24.5667C209.334 24.529 209.278 24.4912 209.223 24.4535H209.225Z" fill="white"/>
<path d="M209.225 24.4534C208.981 24.2451 208.618 23.9654 208.135 23.7011C207.696 23.4605 207.345 23.3347 206.776 23.1333C205.677 22.7445 205.499 22.7921 204.96 22.525C204.628 22.3614 204.2 22.0999 203.75 21.6636L203.66 21.5629C203.66 21.5629 204.975 17.2529 205.704 14.5805C206.182 12.8227 206.769 10.4468 207.31 7.52966L207.38 7.65552C208.236 8.14637 209.391 8.70015 210.819 9.10988C212.48 9.58675 213.947 9.70562 215.028 9.70981L215.157 9.69443C214.416 11.4746 213.68 13.2884 212.952 15.1343C211.686 18.3381 210.5 21.486 209.391 24.5695" fill="#FF7C7D"/>
<path d="M206.962 26.1429C206.267 26.5945 205.571 27.0462 204.876 27.4979C204.681 26.5456 204.486 25.5933 204.291 24.6409L204.273 24.5486C204.673 24.7724 205.073 24.9961 205.474 25.2227C205.961 25.4968 206.445 25.7709 206.927 26.045C206.938 26.0771 206.951 26.1093 206.962 26.1415V26.1429Z" fill="#292A2C"/>
<path d="M207.38 7.65286C208.236 8.14371 209.391 8.69749 210.819 9.10723C212.48 9.58409 213.947 9.70296 215.028 9.70715L215.155 9.69177C215.47 8.93662 215.754 8.25978 216 7.67943C214.714 7.65426 213.016 7.48785 211.108 6.92148C209.731 6.51174 208.577 5.99293 207.663 5.50348C207.547 6.17333 207.429 6.84317 207.313 7.51162C207.335 7.55917 207.358 7.60531 207.38 7.65286Z" fill="#FFCB4F"/>
<path d="M214.683 7.60664C213.677 7.51574 212.456 7.32136 211.11 6.92141C209.987 6.58858 209.023 6.18444 208.229 5.79428L208.299 5.61947L208.79 4.50073C209.351 4.60841 210.164 4.78461 211.135 5.06989C211.761 5.25448 212.033 5.35937 212.638 5.53697C213.227 5.70897 214.055 5.92433 215.078 6.10892C214.964 6.51866 214.849 6.927 214.734 7.33674C214.716 7.42624 214.7 7.51714 214.681 7.60664H214.683Z" fill="#AFDEF7"/>
<path d="M203.66 21.5616C203.66 21.5616 204.06 23.5138 204.874 27.4979C206.379 26.5204 207.884 25.5429 209.388 24.5654C210.499 21.4819 211.683 18.3354 212.949 15.1302C213.954 12.5837 214.972 10.1001 215.999 7.67803C214.712 7.65286 213.014 7.48644 211.107 6.92008C209.73 6.51034 208.576 5.99152 207.661 5.50208C207.033 9.35614 206.287 12.4285 205.702 14.5765C204.973 17.2503 203.659 21.5602 203.659 21.5588L203.66 21.5616Z" stroke="#474B4E" stroke-width="0.559371" stroke-linecap="round" stroke-linejoin="round"/>
<path d="M208.299 5.61947L208.79 4.50073C209.351 4.60841 210.164 4.78461 211.135 5.06989C211.761 5.25448 212.033 5.35937 212.638 5.53697C213.227 5.70897 214.055 5.92433 215.079 6.10892C214.964 6.51866 214.849 6.927 214.735 7.33674" stroke="#474B4E" stroke-width="0.559371" stroke-linecap="round" stroke-linejoin="round"/>
<path d="M207.38 7.65283C208.236 8.14368 209.391 8.69746 210.819 9.1072C212.48 9.58406 213.947 9.70293 215.028 9.70712" stroke="#474B4E" stroke-width="0.559371" stroke-linecap="round" stroke-linejoin="round"/>
<path d="M203.751 21.6635C204.202 22.0998 204.629 22.3613 204.961 22.5249C205.502 22.792 205.678 22.7445 206.777 23.1333C207.347 23.3346 207.698 23.4605 208.137 23.701C208.618 23.9653 208.983 24.245 209.226 24.4534" stroke="#474B4E" stroke-width="0.559371" stroke-linecap="round" stroke-linejoin="round"/>
<path d="M204.273 24.55C204.673 24.7738 205.073 24.9975 205.474 25.2241C205.961 25.4982 206.445 25.7723 206.927 26.0464" stroke="#474B4E" stroke-width="0.559371" stroke-linecap="round" stroke-linejoin="round"/>
<path d="M204.771 22.2524C205.383 20.1058 205.993 17.9606 206.601 15.814C207.299 13.3514 207.997 10.8874 208.69 8.42194" stroke="#474B4E" stroke-width="0.559371" stroke-linecap="round" stroke-linejoin="round"/>
<path d="M206.271 22.8871C207.161 20.5196 208.032 18.022 208.867 15.3971C209.549 13.2477 210.163 11.1543 210.714 9.12518" stroke="#474B4E" stroke-width="0.559371" stroke-linecap="round" stroke-linejoin="round"/>
<path d="M207.719 23.2635C208.563 21.44 209.152 19.9339 209.521 18.9396C210.289 16.8699 210.541 15.8309 211.395 13.4466C212.009 11.7321 212.557 10.3728 212.898 9.55194" stroke="#474B4E" stroke-width="0.559371" stroke-linecap="round" stroke-linejoin="round"/>
<path d="M207.864 7.79541C208.028 7.55208 208.204 7.25422 208.362 6.89762C208.491 6.60814 208.584 6.33825 208.653 6.09772" stroke="#474B4E" stroke-width="0.559371" stroke-linecap="round" stroke-linejoin="round"/>
<path d="M208.884 8.3198C209.039 8.04711 209.195 7.75344 209.348 7.43879C209.497 7.13254 209.629 6.83747 209.746 6.55359" stroke="#474B4E" stroke-width="0.559371" stroke-linecap="round" stroke-linejoin="round"/>
<path d="M210.302 8.81905C210.416 8.54496 210.528 8.26108 210.639 7.96601C210.767 7.62479 210.883 7.29197 210.99 6.96893" stroke="#474B4E" stroke-width="0.559371" stroke-linecap="round" stroke-linejoin="round"/>
<path d="M211.564 9.12956C211.703 8.80512 211.838 8.46531 211.97 8.1101C212.066 7.8514 212.156 7.59688 212.238 7.34796" stroke="#474B4E" stroke-width="0.559371" stroke-linecap="round" stroke-linejoin="round"/>
<path d="M212.996 9.4301C213.091 9.09728 213.185 8.76026 213.279 8.42184C213.357 8.13656 213.434 7.85268 213.511 7.57159" stroke="#474B4E" stroke-width="0.559371" stroke-linecap="round" stroke-linejoin="round"/>
<path d="M214.294 9.57846C214.384 9.25542 214.466 8.90441 214.536 8.52684C214.588 8.24995 214.628 7.98285 214.659 7.72974" stroke="#474B4E" stroke-width="0.559371" stroke-linecap="round" stroke-linejoin="round"/>
</svg>
