<svg width="286" height="35" viewBox="0 0 286 35" fill="none" xmlns="http://www.w3.org/2000/svg">
<path d="M4 23C1.79086 23 0 24.7909 0 27C0 29.2091 1.79086 31 4 31V23ZM4.1 27L4.41788 23.0127L4.25919 23H4.1V27ZM47.5 26.0493L47.1681 22.0631L47.5 26.0493ZM59.5 28.2009L59.3875 32.1994L59.5 28.2009ZM68.5 27.0693L69.5772 30.9215L68.5 27.0693ZM104.5 28.6631L103.922 32.6211L104.5 28.6631ZM113.5 25.875L111.626 29.4089L113.5 25.875ZM131.5 27.1815L132.885 23.4289L131.5 27.1815ZM134.5 28.2886L135.885 24.536L134.5 28.2886ZM140.5 28.6925L140.367 24.6947L140.5 28.6925ZM143.5 27.8431L141.618 24.3133L143.5 27.8431ZM146.5 26.244L148.382 29.7739L146.5 26.244ZM149.5 25.9684L150.819 22.192L149.5 25.9684ZM152.5 27.0161L151.181 30.7924L152.5 27.0161ZM155.5 27.9049L154.554 31.7915L155.5 27.9049ZM158.5 28.6347L159.446 24.748L158.5 28.6347ZM161.5 28.7207L162.231 32.6533L161.5 28.7207ZM164.5 28.1628L163.769 24.2302L164.5 28.1628ZM167.5 27.4132L166.302 23.5967L167.5 27.4132ZM170.5 26.4718L171.698 30.2883L170.5 26.4718ZM173.5 26.3677L174.45 22.4821L173.5 26.3677ZM176.5 27.1009L175.55 30.9865L176.5 27.1009ZM179.5 27.2182L178.844 23.2723L179.5 27.2182ZM182.5 26.7197L183.156 30.6656L182.5 26.7197ZM185.5 26.7067L186.122 22.7554L185.5 26.7067ZM188.5 27.1791L187.878 31.1304L188.5 27.1791ZM191.5 26.9624L190.344 23.1332L191.5 26.9624ZM194.5 26.0565L195.656 29.8858L194.5 26.0565ZM197.5 26.1298L198.824 22.3553L197.5 26.1298ZM200.5 27.1821L199.176 30.9566L200.5 27.1821ZM203.5 27.2968L202.442 23.4393L203.5 27.2968ZM206.5 26.4739L207.558 30.3314L206.5 26.4739ZM209.5 25.8624L210.029 29.8273L209.5 25.8624ZM212.5 25.4623L211.971 21.4974L212.5 25.4623ZM215.5 25.2379L215.435 21.2384L215.5 25.2379ZM221.5 26.0708L223.568 22.647L221.5 26.0708ZM224.5 27.883L222.432 31.3069L224.5 27.883ZM227.5 28.1089L225.848 24.466L227.5 28.1089ZM230.5 26.7485L232.152 30.3914L230.5 26.7485ZM233.5 26.5279L234.672 22.7034L233.5 26.5279ZM236.5 27.4472L235.328 31.2716L236.5 27.4472ZM239.5 27.6019L238.703 23.6821L239.5 27.6019ZM242.5 26.992L243.297 30.9118L242.5 26.992ZM248.5 26.9056L248.306 30.9008L248.5 26.9056ZM251.5 26.5037L250.293 22.6901L251.5 26.5037ZM254.5 25.5544L255.707 29.368L254.5 25.5544ZM257.5 26.0973L259.746 22.7872L257.5 26.0973ZM260.5 28.1327L262.746 24.8226L260.5 28.1327ZM262.5 28.6127L265.429 31.3369L262.5 28.6127ZM263 28.0752L265.929 30.7994L266 30.7228L266.067 30.6427L263 28.0752ZM263.9 27V23H262.032L260.833 24.4325L263.9 27ZM264 31C266.209 31 268 29.2091 268 27C268 24.7909 266.209 23 264 23V31ZM4 27V31H4.1V27V23H4V27ZM4.1 27L3.78212 30.9873L6.73212 31.2225L7.05 27.2352L7.36788 23.2478L4.41788 23.0127L4.1 27ZM7.05 27.2352L6.73212 31.2225C8.72408 31.3813 10.3368 31.4702 11.5022 31.4696L11.5 27.4696L11.4978 23.4696C10.6632 23.47 9.30926 23.4026 7.36788 23.2478L7.05 27.2352ZM11.5 27.4696L11.5022 31.4696L13.0022 31.4687L13 27.4687L12.9978 23.4687L11.4978 23.4696L11.5 27.4696ZM13 27.4687L13.0022 31.4687L14.5022 31.4679L14.5 27.4679L14.4978 23.4679L12.9978 23.4687L13 27.4687ZM14.5 27.4679L14.5022 31.4679C15.3866 31.4675 16.2714 31.5053 17.1571 31.5815L17.5 27.5962L17.8429 23.6109C16.7286 23.515 15.6134 23.4673 14.4978 23.4679L14.5 27.4679ZM17.5 27.5962L17.1571 31.5815L18.6571 31.7105L19 27.7252L19.3429 23.74L17.8429 23.6109L17.5 27.5962ZM19 27.7252L18.6571 31.7105L20.1571 31.8396L20.5 27.8543L20.8429 23.869L19.3429 23.74L19 27.7252ZM20.5 27.8543L20.1571 31.8396C21.4446 31.9504 22.7326 31.9218 24.0161 31.7548L23.5 27.7882L22.9839 23.8216C22.2674 23.9149 21.5554 23.9303 20.8429 23.869L20.5 27.8543ZM23.5 27.7882L24.0161 31.7548L25.5161 31.5596L25 27.593L24.4839 23.6265L22.9839 23.8216L23.5 27.7882ZM25 27.593L25.5161 31.5596L27.0161 31.3644L26.5 27.3979L25.9839 23.4313L24.4839 23.6265L25 27.593ZM26.5 27.3979L27.0161 31.3644C27.9222 31.2465 28.8273 31.1614 29.7316 31.109L29.5 27.1157L29.2684 23.1224C28.1727 23.186 27.0778 23.289 25.9839 23.4313L26.5 27.3979ZM29.5 27.1157L29.7316 31.109L31.2316 31.022L31 27.0287L30.7684 23.0354L29.2684 23.1224L29.5 27.1157ZM31 27.0287L31.2316 31.022L32.7316 30.935L32.5 26.9417L32.2684 22.9485L30.7684 23.0354L31 27.0287ZM32.5 26.9417L32.7316 30.935C33.7581 30.8755 34.7846 30.8057 35.8111 30.7257L35.5 26.7378L35.1889 22.7499C34.2154 22.8258 33.2419 22.892 32.2684 22.9485L32.5 26.9417ZM35.5 26.7378L35.8111 30.7257L37.3111 30.6087L37 26.6208L36.6889 22.6329L35.1889 22.7499L35.5 26.7378ZM37 26.6208L37.3111 30.6087L38.8111 30.4917L38.5 26.5038L38.1889 22.5159L36.6889 22.6329L37 26.6208ZM38.5 26.5038L38.8111 30.4917C39.7548 30.418 40.6983 30.3645 41.6416 30.3311L41.5 26.3336L41.3584 22.3361C40.3017 22.3736 39.2452 22.4335 38.1889 22.5159L38.5 26.5038ZM41.5 26.3336L41.6416 30.3311L43.1416 30.278L43 26.2805L42.8584 22.283L41.3584 22.3361L41.5 26.3336ZM43 26.2805L43.1416 30.278L44.6416 30.2248L44.5 26.2273L44.3584 22.2298L42.8584 22.283L43 26.2805ZM44.5 26.2273L44.6416 30.2248C45.7053 30.1871 46.7688 30.124 47.8319 30.0355L47.5 26.0493L47.1681 22.0631C46.2312 22.1411 45.2947 22.1967 44.3584 22.2298L44.5 26.2273ZM47.5 26.0493L47.8319 30.0355L49.3319 29.9106L49 25.9244L48.6681 21.9382L47.1681 22.0631L47.5 26.0493ZM49 25.9244L49.3319 29.9106L50.8319 29.7857L50.5 25.7995L50.1681 21.8133L48.6681 21.9382L49 25.9244ZM50.5 25.7995L50.8319 29.7857C51.1478 29.7594 51.5112 29.8015 51.9698 29.9914L53.5 26.2956L55.0302 22.5998C53.4888 21.9617 51.8522 21.673 50.1681 21.8133L50.5 25.7995ZM53.5 26.2956L51.9698 29.9914L53.4698 30.6124L55 26.9166L56.5302 23.2209L55.0302 22.5998L53.5 26.2956ZM55 26.9166L53.4698 30.6124L54.9698 31.2334L56.5 27.5377L58.0302 23.8419L56.5302 23.2209L55 26.9166ZM56.5 27.5377L54.9698 31.2334C56.383 31.8185 57.8619 32.1564 59.3875 32.1994L59.5 28.2009L59.6125 24.2025C59.1381 24.1892 58.617 24.0849 58.0302 23.8419L56.5 27.5377ZM59.5 28.2009L59.3875 32.1994L60.8875 32.2416L61 28.2431L61.1125 24.2447L59.6125 24.2025L59.5 28.2009ZM61 28.2431L60.8875 32.2416L62.3875 32.2838L62.5 28.2854L62.6125 24.2869L61.1125 24.2447L61 28.2431ZM62.5 28.2854L62.3875 32.2838C63.8042 32.3236 65.205 32.1441 66.5772 31.7604L65.5 27.9081L64.4228 24.0559C63.795 24.2315 63.1958 24.3034 62.6125 24.2869L62.5 28.2854ZM65.5 27.9081L66.5772 31.7604L68.0772 31.3409L67 27.4887L65.9228 23.6365L64.4228 24.0559L65.5 27.9081ZM67 27.4887L68.0772 31.3409L69.5772 30.9215L68.5 27.0693L67.4228 23.217L65.9228 23.6365L67 27.4887ZM68.5 27.0693L69.5772 30.9215C70.1522 30.7607 70.6936 30.7082 71.2205 30.7451L71.5 26.7549L71.7795 22.7647C70.3064 22.6615 68.8478 22.8186 67.4228 23.217L68.5 27.0693ZM71.5 26.7549L71.2205 30.7451L72.7205 30.8502L73 26.86L73.2795 22.8697L71.7795 22.7647L71.5 26.7549ZM73 26.86L72.7205 30.8502L74.2205 30.9553L74.5 26.965L74.7795 22.9748L73.2795 22.8697L73 26.86ZM74.5 26.965L74.2205 30.9553C75.6471 31.0552 77.0642 30.9275 78.4572 30.5842L77.5 26.7004L76.5428 22.8166C75.9358 22.9663 75.3529 23.015 74.7795 22.9748L74.5 26.965ZM77.5 26.7004L78.4572 30.5842L79.9572 30.2145L79 26.3307L78.0428 22.447L76.5428 22.8166L77.5 26.7004ZM79 26.3307L79.9572 30.2145L81.4572 29.8448L80.5 25.961L79.5428 22.0773L78.0428 22.447L79 26.3307ZM80.5 25.961L81.4572 29.8448C82.016 29.7071 82.5478 29.673 83.0734 29.7294L83.5 25.7522L83.9266 21.775C82.4522 21.6169 80.984 21.722 79.5428 22.0773L80.5 25.961ZM83.5 25.7522L83.0734 29.7294L84.5734 29.8903L85 25.9131L85.4266 21.9359L83.9266 21.775L83.5 25.7522ZM85 25.9131L84.5734 29.8903L86.0734 30.0512L86.5 26.074L86.9266 22.0968L85.4266 21.9359L85 25.9131ZM86.5 26.074L86.0734 30.0512C86.93 30.143 87.7898 30.282 88.6535 30.4691L89.5 26.5596L90.3465 22.6502C89.2102 22.4042 88.0701 22.2194 86.9266 22.0968L86.5 26.074ZM89.5 26.5596L88.6535 30.4691L90.1535 30.7938L91 26.8844L91.8465 22.975L90.3465 22.6502L89.5 26.5596ZM91 26.8844L90.1535 30.7938L91.6535 31.1186L92.5 27.2092L93.3465 23.2998L91.8465 22.975L91 26.8844ZM92.5 27.2092L91.6535 31.1186C92.8258 31.3724 94.0038 31.5466 95.1866 31.6396L95.5 27.6519L95.8134 23.6642C94.9962 23.5999 94.1742 23.479 93.3465 23.2998L92.5 27.2092ZM95.5 27.6519L95.1866 31.6396L96.6866 31.7575L97 27.7698L97.3134 23.7821L95.8134 23.6642L95.5 27.6519ZM97 27.7698L96.6866 31.7575L98.1866 31.8754L98.5 27.8876L98.8134 23.8999L97.3134 23.7821L97 27.7698ZM98.5 27.8876L98.1866 31.8754C99.0973 31.9469 100.009 32.0493 100.922 32.1827L101.5 28.2247L102.078 24.2668C100.991 24.1079 99.9027 23.9856 98.8134 23.8999L98.5 27.8876ZM101.5 28.2247L100.922 32.1827L102.422 32.4019L103 28.4439L103.578 24.486L102.078 24.2668L101.5 28.2247ZM103 28.4439L102.422 32.4019L103.922 32.6211L104.5 28.6631L105.078 24.7051L103.578 24.486L103 28.4439ZM104.5 28.6631L103.922 32.6211C106.026 32.9287 107.979 32.3635 109.641 31.3102L107.5 27.9316L105.359 24.553C105.172 24.6713 105.071 24.6991 105.052 24.7037C105.042 24.7062 105.044 24.7049 105.055 24.7044C105.066 24.7038 105.075 24.7046 105.078 24.7051L104.5 28.6631ZM107.5 27.9316L109.641 31.3102L111.141 30.3595L109 26.9809L106.859 23.6024L105.359 24.553L107.5 27.9316ZM109 26.9809L111.141 30.3595L112.641 29.4089L110.5 26.0303L108.359 22.6517L106.859 23.6024L109 26.9809ZM110.5 26.0303L112.641 29.4089C112.666 29.3929 112.509 29.4951 112.207 29.5108C111.894 29.527 111.68 29.4375 111.626 29.4089L113.5 25.875L115.374 22.3411C113.034 21.1005 110.503 21.2924 108.359 22.6517L110.5 26.0303ZM113.5 25.875L111.626 29.4089L113.126 30.2043L115 26.6704L116.874 23.1365L115.374 22.3411L113.5 25.875ZM115 26.6704L113.126 30.2043L114.626 30.9997L116.5 27.4658L118.374 23.9319L116.874 23.1365L115 26.6704ZM116.5 27.4658L114.626 30.9997C116.752 32.1272 119.118 32.175 121.291 31.0868L119.5 27.5101L117.709 23.9335C117.706 23.9352 117.739 23.9184 117.806 23.9021C117.874 23.8854 117.961 23.8736 118.059 23.875C118.272 23.8782 118.389 23.9398 118.374 23.9319L116.5 27.4658ZM119.5 27.5101L121.291 31.0868L122.791 30.3358L121 26.7591L119.209 23.1824L117.709 23.9335L119.5 27.5101ZM121 26.7591L122.791 30.3358L124.291 29.5847L122.5 26.008L120.709 22.4313L119.209 23.1824L121 26.7591ZM122.5 26.008L124.291 29.5847C124.44 29.51 124.519 29.4966 124.539 29.4938C124.555 29.4918 124.57 29.4903 124.609 29.4992L125.5 25.5997L126.391 21.7002C124.403 21.2459 122.458 21.5554 120.709 22.4313L122.5 26.008ZM125.5 25.5997L124.609 29.4992L126.109 29.8419L127 25.9425L127.891 22.043L126.391 21.7002L125.5 25.5997ZM127 25.9425L126.109 29.8419L127.609 30.1847L128.5 26.2852L129.391 22.3858L127.891 22.043L127 25.9425ZM128.5 26.2852L127.609 30.1847C128.435 30.3735 129.27 30.6224 130.115 30.9342L131.5 27.1815L132.885 23.4289C131.73 23.0027 130.565 22.654 129.391 22.3858L128.5 26.2852ZM131.5 27.1815L130.115 30.9342L131.615 31.4877L133 27.7351L134.385 23.9825L132.885 23.4289L131.5 27.1815ZM133 27.7351L131.615 31.4877L133.115 32.0413L134.5 28.2886L135.885 24.536L134.385 23.9825L133 27.7351ZM134.5 28.2886L133.115 32.0413C134.568 32.5775 136.083 32.8416 137.633 32.7901L137.5 28.7923L137.367 24.7945C136.917 24.8095 136.432 24.7378 135.885 24.536L134.5 28.2886ZM137.5 28.7923L137.633 32.7901L139.133 32.7402L139 28.7424L138.867 24.7446L137.367 24.7945L137.5 28.7923ZM139 28.7424L139.133 32.7402L140.633 32.6903L140.5 28.6925L140.367 24.6947L138.867 24.7446L139 28.7424ZM140.5 28.6925L140.633 32.6903C142.32 32.6342 143.914 32.1552 145.382 31.373L143.5 27.8431L141.618 24.3133C141.086 24.5971 140.68 24.6844 140.367 24.6947L140.5 28.6925ZM143.5 27.8431L145.382 31.373L146.882 30.5734L145 27.0436L143.118 23.5137L141.618 24.3133L143.5 27.8431ZM145 27.0436L146.882 30.5734L148.382 29.7739L146.5 26.244L144.618 22.7142L143.118 23.5137L145 27.0436ZM146.5 26.244L148.382 29.7739C148.429 29.7485 148.449 29.7429 148.443 29.7449C148.436 29.7473 148.409 29.7547 148.366 29.7586C148.323 29.7625 148.279 29.7615 148.24 29.7564C148.201 29.7514 148.18 29.7443 148.181 29.7447L149.5 25.9684L150.819 22.192C148.685 21.4467 146.527 21.697 144.618 22.7142L146.5 26.244ZM149.5 25.9684L148.181 29.7447L149.681 30.2685L151 26.4922L152.319 22.7159L150.819 22.192L149.5 25.9684ZM151 26.4922L149.681 30.2685L151.181 30.7924L152.5 27.0161L153.819 23.2397L152.319 22.7159L151 26.4922ZM152.5 27.0161L151.181 30.7924C152.3 31.1832 153.425 31.5166 154.554 31.7915L155.5 27.9049L156.446 24.0182C155.575 23.8065 154.7 23.5474 153.819 23.2397L152.5 27.0161ZM155.5 27.9049L154.554 31.7915L156.054 32.1564L157 28.2698L157.946 24.3831L156.446 24.0182L155.5 27.9049ZM157 28.2698L156.054 32.1564L157.554 32.5213L158.5 28.6347L159.446 24.748L157.946 24.3831L157 28.2698ZM158.5 28.6347L157.554 32.5213C159.097 32.8966 160.669 32.9438 162.231 32.6533L161.5 28.7207L160.769 24.7881C160.331 24.8694 159.903 24.8593 159.446 24.748L158.5 28.6347ZM161.5 28.7207L162.231 32.6533L163.731 32.3743L163 28.4417L162.269 24.5092L160.769 24.7881L161.5 28.7207ZM163 28.4417L163.731 32.3743L165.231 32.0954L164.5 28.1628L163.769 24.2302L162.269 24.5092L163 28.4417ZM164.5 28.1628L165.231 32.0954C166.394 31.8793 167.549 31.59 168.698 31.2297L167.5 27.4132L166.302 23.5967C165.451 23.8639 164.606 24.0745 163.769 24.2302L164.5 28.1628ZM167.5 27.4132L168.698 31.2297L170.198 30.759L169 26.9425L167.802 23.126L166.302 23.5967L167.5 27.4132ZM169 26.9425L170.198 30.759L171.698 30.2883L170.5 26.4718L169.302 22.6553L167.802 23.126L169 26.9425ZM170.5 26.4718L171.698 30.2883C172.015 30.1888 172.272 30.1854 172.55 30.2534L173.5 26.3677L174.45 22.4821C172.728 22.0612 170.985 22.1273 169.302 22.6553L170.5 26.4718ZM173.5 26.3677L172.55 30.2534L174.05 30.6199L175 26.7343L175.95 22.8486L174.45 22.4821L173.5 26.3677ZM175 26.7343L174.05 30.6199L175.55 30.9865L176.5 27.1009L177.45 23.2152L175.95 22.8486L175 26.7343ZM176.5 27.1009L175.55 30.9865C177.068 31.3573 178.614 31.4203 180.156 31.1641L179.5 27.2182L178.844 23.2723C178.386 23.3484 177.932 23.3332 177.45 23.2152L176.5 27.1009ZM179.5 27.2182L180.156 31.1641L181.656 30.9149L181 26.969L180.344 23.0231L178.844 23.2723L179.5 27.2182ZM181 26.969L181.656 30.9149L183.156 30.6656L182.5 26.7197L181.844 22.7738L180.344 23.0231L181 26.969ZM182.5 26.7197L183.156 30.6656C183.733 30.5697 184.302 30.5673 184.878 30.658L185.5 26.7067L186.122 22.7554C184.698 22.5311 183.267 22.5375 181.844 22.7738L182.5 26.7197ZM185.5 26.7067L184.878 30.658L186.378 30.8942L187 26.9429L187.622 22.9916L186.122 22.7554L185.5 26.7067ZM187 26.9429L186.378 30.8942L187.878 31.1304L188.5 27.1791L189.122 23.2278L187.622 22.9916L187 26.9429ZM188.5 27.1791L187.878 31.1304C189.491 31.3845 191.099 31.2618 192.656 30.7916L191.5 26.9624L190.344 23.1332C189.901 23.2669 189.509 23.2886 189.122 23.2278L188.5 27.1791ZM191.5 26.9624L192.656 30.7916L194.156 30.3387L193 26.5095L191.844 22.6802L190.344 23.1332L191.5 26.9624ZM193 26.5095L194.156 30.3387L195.656 29.8858L194.5 26.0565L193.344 22.2273L191.844 22.6802L193 26.5095ZM194.5 26.0565L195.656 29.8858C195.832 29.8327 195.964 29.8298 196.176 29.9043L197.5 26.1298L198.824 22.3553C197.036 21.7282 195.168 21.6764 193.344 22.2273L194.5 26.0565ZM197.5 26.1298L196.176 29.9043L197.676 30.4305L199 26.656L200.324 22.8814L198.824 22.3553L197.5 26.1298ZM199 26.656L197.676 30.4305L199.176 30.9566L200.5 27.1821L201.824 23.4076L200.324 22.8814L199 26.656ZM200.5 27.1821L199.176 30.9566C200.925 31.5702 202.756 31.6487 204.558 31.1543L203.5 27.2968L202.442 23.4393C202.244 23.4936 202.075 23.4956 201.824 23.4076L200.5 27.1821ZM203.5 27.2968L204.558 31.1543L206.058 30.7428L205 26.8854L203.942 23.0279L202.442 23.4393L203.5 27.2968ZM205 26.8854L206.058 30.7428L207.558 30.3314L206.5 26.4739L205.442 22.6164L203.942 23.0279L205 26.8854ZM206.5 26.4739L207.558 30.3314C208.389 30.1034 209.212 29.9361 210.029 29.8273L209.5 25.8624L208.971 21.8975C207.788 22.0553 206.611 22.2957 205.442 22.6164L206.5 26.4739ZM209.5 25.8624L210.029 29.8273L211.529 29.6273L211 25.6624L210.471 21.6974L208.971 21.8975L209.5 25.8624ZM211 25.6624L211.529 29.6273L213.029 29.4272L212.5 25.4623L211.971 21.4974L210.471 21.6974L211 25.6624ZM212.5 25.4623L213.029 29.4272C213.876 29.3142 214.721 29.2511 215.565 29.2374L215.5 25.2379L215.435 21.2384C214.279 21.2573 213.124 21.3438 211.971 21.4974L212.5 25.4623ZM215.5 25.2379L215.565 29.2374L217.065 29.213L217 25.2135L216.935 21.214L215.435 21.2384L215.5 25.2379ZM217 25.2135L217.065 29.213L218.565 29.1886L218.5 25.1891L218.435 21.1896L216.935 21.214L217 25.2135ZM218.5 25.1891L218.565 29.1886C218.695 29.1865 218.965 29.2125 219.432 29.4946L221.5 26.0708L223.568 22.647C222.035 21.721 220.305 21.1592 218.435 21.1896L218.5 25.1891ZM221.5 26.0708L219.432 29.4946L220.932 30.4007L223 26.9769L225.068 23.5531L223.568 22.647L221.5 26.0708ZM223 26.9769L220.932 30.4007L222.432 31.3069L224.5 27.883L226.568 24.4592L225.068 23.5531L223 26.9769ZM224.5 27.883L222.432 31.3069C224.475 32.5408 226.863 32.7897 229.152 31.7518L227.5 28.1089L225.848 24.466C225.9 24.4424 226.069 24.3864 226.3 24.4039C226.521 24.4205 226.62 24.4905 226.568 24.4592L224.5 27.883ZM227.5 28.1089L229.152 31.7518L230.652 31.0716L229 27.4287L227.348 23.7858L225.848 24.466L227.5 28.1089ZM229 27.4287L230.652 31.0716L232.152 30.3914L230.5 26.7485L228.848 23.1055L227.348 23.7858L229 27.4287ZM230.5 26.7485L232.152 30.3914C232.21 30.365 232.249 30.3529 232.269 30.3476C232.289 30.3424 232.296 30.3422 232.293 30.3424C232.29 30.3427 232.287 30.3424 232.287 30.3425C232.288 30.3425 232.301 30.3439 232.328 30.3523L233.5 26.5279L234.672 22.7034C232.69 22.0962 230.687 22.2714 228.848 23.1055L230.5 26.7485ZM233.5 26.5279L232.328 30.3523L233.828 30.812L235 26.9875L236.172 23.1631L234.672 22.7034L233.5 26.5279ZM235 26.9875L233.828 30.812L235.328 31.2716L236.5 27.4472L237.672 23.6227L236.172 23.1631L235 26.9875ZM236.5 27.4472L235.328 31.2716C236.95 31.7685 238.626 31.8614 240.297 31.5217L239.5 27.6019L238.703 23.6821C238.374 23.749 238.05 23.7387 237.672 23.6227L236.5 27.4472ZM239.5 27.6019L240.297 31.5217L241.797 31.2167L241 27.2969L240.203 23.3771L238.703 23.6821L239.5 27.6019ZM241 27.2969L241.797 31.2167L243.297 30.9118L242.5 26.992L241.703 23.0722L240.203 23.3771L241 27.2969ZM242.5 26.992L243.297 30.9118C243.977 30.7735 244.645 30.723 245.306 30.7552L245.5 26.7599L245.694 22.7646C244.355 22.6996 243.023 22.8039 241.703 23.0722L242.5 26.992ZM245.5 26.7599L245.306 30.7552L246.806 30.828L247 26.8327L247.194 22.8374L245.694 22.7646L245.5 26.7599ZM247 26.8327L246.806 30.828L248.306 30.9008L248.5 26.9056L248.694 22.9103L247.194 22.8374L247 26.8327ZM248.5 26.9056L248.306 30.9008C249.802 30.9735 251.276 30.7701 252.707 30.3173L251.5 26.5037L250.293 22.6901C249.724 22.8703 249.198 22.9347 248.694 22.9103L248.5 26.9056ZM251.5 26.5037L252.707 30.3173L254.207 29.8427L253 26.029L251.793 22.2154L250.293 22.6901L251.5 26.5037ZM253 26.029L254.207 29.8427L255.707 29.368L254.5 25.5544L253.293 21.7408L251.793 22.2154L253 26.029ZM254.5 25.5544L255.707 29.368C255.667 29.3806 255.603 29.3956 255.52 29.4012C255.437 29.4068 255.357 29.4014 255.288 29.3888C255.145 29.3629 255.13 29.3232 255.254 29.4075L257.5 26.0973L259.746 22.7872C257.906 21.5394 255.647 20.9959 253.293 21.7408L254.5 25.5544ZM257.5 26.0973L255.254 29.4075L256.754 30.4251L259 27.115L261.246 23.8049L259.746 22.7872L257.5 26.0973ZM259 27.115L256.754 30.4251L258.254 31.4428L260.5 28.1327L262.746 24.8226L261.246 23.8049L259 27.115ZM260.5 28.1327L258.254 31.4428C258.897 31.8786 259.786 32.4037 260.816 32.651C261.922 32.9164 263.905 32.9753 265.429 31.3369L262.5 28.6127L259.571 25.8885C260.085 25.3354 260.746 24.9924 261.409 24.8608C262.01 24.7415 262.472 24.8213 262.684 24.872C263.047 24.9593 263.103 25.0652 262.746 24.8226L260.5 28.1327ZM262.5 28.6127L265.429 31.3369L265.929 30.7994L263 28.0752L260.071 25.351L259.571 25.8885L262.5 28.6127ZM263 28.0752L266.067 30.6427L266.967 29.5675L263.9 27L260.833 24.4325L259.933 25.5076L263 28.0752ZM263.9 27V31H264V27V23H263.9V27Z" fill="#F0F0F0"/>
<path d="M4 23C1.79086 23 0 24.7909 0 27C0 29.2091 1.79086 31 4 31V23ZM4.1 27L4.41788 23.0127L4.25919 23H4.1V27ZM47.5 26.0493L47.1681 22.0631L47.5 26.0493ZM59.5 28.2009L59.3875 32.1994L59.5 28.2009ZM68.5 27.0693L69.5772 30.9215L68.5 27.0693ZM104.5 28.6631L103.922 32.6211L104.5 28.6631ZM113.5 25.875L111.626 29.4089L113.5 25.875ZM131.5 27.1815L132.885 23.4289L131.5 27.1815ZM134.5 28.2886L135.885 24.536L134.5 28.2886ZM140.5 28.6925L140.367 24.6947L140.5 28.6925ZM143.5 27.8431L141.618 24.3133L143.5 27.8431ZM146.5 26.244L148.382 29.7739L146.5 26.244ZM149.5 25.9684L150.819 22.192L149.5 25.9684ZM152.5 27.0161L151.181 30.7924L152.5 27.0161ZM155.5 27.9049L154.554 31.7915L155.5 27.9049ZM158.5 28.6347L159.446 24.748L158.5 28.6347ZM161.5 28.7207L162.231 32.6533L161.5 28.7207ZM164.5 28.1628L163.769 24.2302L164.5 28.1628ZM167.5 27.4132L166.302 23.5967L167.5 27.4132ZM170.5 26.4718L171.698 30.2883L170.5 26.4718ZM173.5 26.3677L174.45 22.4821L173.5 26.3677ZM176.5 27.1009L175.55 30.9865L176.5 27.1009ZM179.5 27.2182L178.844 23.2723L179.5 27.2182ZM182.5 26.7197L183.156 30.6656L182.5 26.7197ZM185.5 26.7067L186.122 22.7554L185.5 26.7067ZM188.5 27.1791L187.878 31.1304L188.5 27.1791ZM191.5 26.9624L190.344 23.1332L191.5 26.9624ZM194.5 26.0565L195.656 29.8858L194.5 26.0565ZM197.5 26.1298L198.824 22.3553L197.5 26.1298ZM200.5 27.1821L199.176 30.9566L200.5 27.1821ZM203.5 27.2968L202.442 23.4393L203.5 27.2968ZM206.5 26.4739L207.558 30.3314L206.5 26.4739ZM209.5 25.8624L210.029 29.8273L209.5 25.8624ZM212.5 25.4623L211.971 21.4974L212.5 25.4623ZM215.5 25.2379L215.435 21.2384L215.5 25.2379ZM221.5 26.0708L223.568 22.647L221.5 26.0708ZM224.5 27.883L222.432 31.3069L224.5 27.883ZM227.5 28.1089L225.848 24.466L227.5 28.1089ZM230.5 26.7485L232.152 30.3914L230.5 26.7485ZM233.5 26.5279L234.672 22.7034L233.5 26.5279ZM236.5 27.4472L235.328 31.2716L236.5 27.4472ZM239.5 27.6019L238.703 23.6821L239.5 27.6019ZM242.5 26.992L243.297 30.9118L242.5 26.992ZM248.5 26.9056L248.306 30.9008L248.5 26.9056ZM251.5 26.5037L250.293 22.6901L251.5 26.5037ZM254.5 25.5544L255.707 29.368L254.5 25.5544ZM257.5 26.0973L259.746 22.7872L257.5 26.0973ZM260.5 28.1327L262.746 24.8226L260.5 28.1327ZM262.5 28.6127L265.429 31.3369L262.5 28.6127ZM263 28.0752L265.929 30.7994L266 30.7228L266.067 30.6427L263 28.0752ZM263.9 27V23H262.032L260.833 24.4325L263.9 27ZM264 31C266.209 31 268 29.2091 268 27C268 24.7909 266.209 23 264 23V31ZM4 27V31H4.1V27V23H4V27ZM4.1 27L3.78212 30.9873L6.73212 31.2225L7.05 27.2352L7.36788 23.2478L4.41788 23.0127L4.1 27ZM7.05 27.2352L6.73212 31.2225C8.72408 31.3813 10.3368 31.4702 11.5022 31.4696L11.5 27.4696L11.4978 23.4696C10.6632 23.47 9.30926 23.4026 7.36788 23.2478L7.05 27.2352ZM11.5 27.4696L11.5022 31.4696L13.0022 31.4687L13 27.4687L12.9978 23.4687L11.4978 23.4696L11.5 27.4696ZM13 27.4687L13.0022 31.4687L14.5022 31.4679L14.5 27.4679L14.4978 23.4679L12.9978 23.4687L13 27.4687ZM14.5 27.4679L14.5022 31.4679C15.3866 31.4675 16.2714 31.5053 17.1571 31.5815L17.5 27.5962L17.8429 23.6109C16.7286 23.515 15.6134 23.4673 14.4978 23.4679L14.5 27.4679ZM17.5 27.5962L17.1571 31.5815L18.6571 31.7105L19 27.7252L19.3429 23.74L17.8429 23.6109L17.5 27.5962ZM19 27.7252L18.6571 31.7105L20.1571 31.8396L20.5 27.8543L20.8429 23.869L19.3429 23.74L19 27.7252ZM20.5 27.8543L20.1571 31.8396C21.4446 31.9504 22.7326 31.9218 24.0161 31.7548L23.5 27.7882L22.9839 23.8216C22.2674 23.9149 21.5554 23.9303 20.8429 23.869L20.5 27.8543ZM23.5 27.7882L24.0161 31.7548L25.5161 31.5596L25 27.593L24.4839 23.6265L22.9839 23.8216L23.5 27.7882ZM25 27.593L25.5161 31.5596L27.0161 31.3644L26.5 27.3979L25.9839 23.4313L24.4839 23.6265L25 27.593ZM26.5 27.3979L27.0161 31.3644C27.9222 31.2465 28.8273 31.1614 29.7316 31.109L29.5 27.1157L29.2684 23.1224C28.1727 23.186 27.0778 23.289 25.9839 23.4313L26.5 27.3979ZM29.5 27.1157L29.7316 31.109L31.2316 31.022L31 27.0287L30.7684 23.0354L29.2684 23.1224L29.5 27.1157ZM31 27.0287L31.2316 31.022L32.7316 30.935L32.5 26.9417L32.2684 22.9485L30.7684 23.0354L31 27.0287ZM32.5 26.9417L32.7316 30.935C33.7581 30.8755 34.7846 30.8057 35.8111 30.7257L35.5 26.7378L35.1889 22.7499C34.2154 22.8258 33.2419 22.892 32.2684 22.9485L32.5 26.9417ZM35.5 26.7378L35.8111 30.7257L37.3111 30.6087L37 26.6208L36.6889 22.6329L35.1889 22.7499L35.5 26.7378ZM37 26.6208L37.3111 30.6087L38.8111 30.4917L38.5 26.5038L38.1889 22.5159L36.6889 22.6329L37 26.6208ZM38.5 26.5038L38.8111 30.4917C39.7548 30.418 40.6983 30.3645 41.6416 30.3311L41.5 26.3336L41.3584 22.3361C40.3017 22.3736 39.2452 22.4335 38.1889 22.5159L38.5 26.5038ZM41.5 26.3336L41.6416 30.3311L43.1416 30.278L43 26.2805L42.8584 22.283L41.3584 22.3361L41.5 26.3336ZM43 26.2805L43.1416 30.278L44.6416 30.2248L44.5 26.2273L44.3584 22.2298L42.8584 22.283L43 26.2805ZM44.5 26.2273L44.6416 30.2248C45.7053 30.1871 46.7688 30.124 47.8319 30.0355L47.5 26.0493L47.1681 22.0631C46.2312 22.1411 45.2947 22.1967 44.3584 22.2298L44.5 26.2273ZM47.5 26.0493L47.8319 30.0355L49.3319 29.9106L49 25.9244L48.6681 21.9382L47.1681 22.0631L47.5 26.0493ZM49 25.9244L49.3319 29.9106L50.8319 29.7857L50.5 25.7995L50.1681 21.8133L48.6681 21.9382L49 25.9244ZM50.5 25.7995L50.8319 29.7857C51.1478 29.7594 51.5112 29.8015 51.9698 29.9914L53.5 26.2956L55.0302 22.5998C53.4888 21.9617 51.8522 21.673 50.1681 21.8133L50.5 25.7995ZM53.5 26.2956L51.9698 29.9914L53.4698 30.6124L55 26.9166L56.5302 23.2209L55.0302 22.5998L53.5 26.2956ZM55 26.9166L53.4698 30.6124L54.9698 31.2334L56.5 27.5377L58.0302 23.8419L56.5302 23.2209L55 26.9166ZM56.5 27.5377L54.9698 31.2334C56.383 31.8185 57.8619 32.1564 59.3875 32.1994L59.5 28.2009L59.6125 24.2025C59.1381 24.1892 58.617 24.0849 58.0302 23.8419L56.5 27.5377ZM59.5 28.2009L59.3875 32.1994L60.8875 32.2416L61 28.2431L61.1125 24.2447L59.6125 24.2025L59.5 28.2009ZM61 28.2431L60.8875 32.2416L62.3875 32.2838L62.5 28.2854L62.6125 24.2869L61.1125 24.2447L61 28.2431ZM62.5 28.2854L62.3875 32.2838C63.8042 32.3236 65.205 32.1441 66.5772 31.7604L65.5 27.9081L64.4228 24.0559C63.795 24.2315 63.1958 24.3034 62.6125 24.2869L62.5 28.2854ZM65.5 27.9081L66.5772 31.7604L68.0772 31.3409L67 27.4887L65.9228 23.6365L64.4228 24.0559L65.5 27.9081ZM67 27.4887L68.0772 31.3409L69.5772 30.9215L68.5 27.0693L67.4228 23.217L65.9228 23.6365L67 27.4887ZM68.5 27.0693L69.5772 30.9215C70.1522 30.7607 70.6936 30.7082 71.2205 30.7451L71.5 26.7549L71.7795 22.7647C70.3064 22.6615 68.8478 22.8186 67.4228 23.217L68.5 27.0693ZM71.5 26.7549L71.2205 30.7451L72.7205 30.8502L73 26.86L73.2795 22.8697L71.7795 22.7647L71.5 26.7549ZM73 26.86L72.7205 30.8502L74.2205 30.9553L74.5 26.965L74.7795 22.9748L73.2795 22.8697L73 26.86ZM74.5 26.965L74.2205 30.9553C75.6471 31.0552 77.0642 30.9275 78.4572 30.5842L77.5 26.7004L76.5428 22.8166C75.9358 22.9663 75.3529 23.015 74.7795 22.9748L74.5 26.965ZM77.5 26.7004L78.4572 30.5842L79.9572 30.2145L79 26.3307L78.0428 22.447L76.5428 22.8166L77.5 26.7004ZM79 26.3307L79.9572 30.2145L81.4572 29.8448L80.5 25.961L79.5428 22.0773L78.0428 22.447L79 26.3307ZM80.5 25.961L81.4572 29.8448C82.016 29.7071 82.5478 29.673 83.0734 29.7294L83.5 25.7522L83.9266 21.775C82.4522 21.6169 80.984 21.722 79.5428 22.0773L80.5 25.961ZM83.5 25.7522L83.0734 29.7294L84.5734 29.8903L85 25.9131L85.4266 21.9359L83.9266 21.775L83.5 25.7522ZM85 25.9131L84.5734 29.8903L86.0734 30.0512L86.5 26.074L86.9266 22.0968L85.4266 21.9359L85 25.9131ZM86.5 26.074L86.0734 30.0512C86.93 30.143 87.7898 30.282 88.6535 30.4691L89.5 26.5596L90.3465 22.6502C89.2102 22.4042 88.0701 22.2194 86.9266 22.0968L86.5 26.074ZM89.5 26.5596L88.6535 30.4691L90.1535 30.7938L91 26.8844L91.8465 22.975L90.3465 22.6502L89.5 26.5596ZM91 26.8844L90.1535 30.7938L91.6535 31.1186L92.5 27.2092L93.3465 23.2998L91.8465 22.975L91 26.8844ZM92.5 27.2092L91.6535 31.1186C92.8258 31.3724 94.0038 31.5466 95.1866 31.6396L95.5 27.6519L95.8134 23.6642C94.9962 23.5999 94.1742 23.479 93.3465 23.2998L92.5 27.2092ZM95.5 27.6519L95.1866 31.6396L96.6866 31.7575L97 27.7698L97.3134 23.7821L95.8134 23.6642L95.5 27.6519ZM97 27.7698L96.6866 31.7575L98.1866 31.8754L98.5 27.8876L98.8134 23.8999L97.3134 23.7821L97 27.7698ZM98.5 27.8876L98.1866 31.8754C99.0973 31.9469 100.009 32.0493 100.922 32.1827L101.5 28.2247L102.078 24.2668C100.991 24.1079 99.9027 23.9856 98.8134 23.8999L98.5 27.8876ZM101.5 28.2247L100.922 32.1827L102.422 32.4019L103 28.4439L103.578 24.486L102.078 24.2668L101.5 28.2247ZM103 28.4439L102.422 32.4019L103.922 32.6211L104.5 28.6631L105.078 24.7051L103.578 24.486L103 28.4439ZM104.5 28.6631L103.922 32.6211C106.026 32.9287 107.979 32.3635 109.641 31.3102L107.5 27.9316L105.359 24.553C105.172 24.6713 105.071 24.6991 105.052 24.7037C105.042 24.7062 105.044 24.7049 105.055 24.7044C105.066 24.7038 105.075 24.7046 105.078 24.7051L104.5 28.6631ZM107.5 27.9316L109.641 31.3102L111.141 30.3595L109 26.9809L106.859 23.6024L105.359 24.553L107.5 27.9316ZM109 26.9809L111.141 30.3595L112.641 29.4089L110.5 26.0303L108.359 22.6517L106.859 23.6024L109 26.9809ZM110.5 26.0303L112.641 29.4089C112.666 29.3929 112.509 29.4951 112.207 29.5108C111.894 29.527 111.68 29.4375 111.626 29.4089L113.5 25.875L115.374 22.3411C113.034 21.1005 110.503 21.2924 108.359 22.6517L110.5 26.0303ZM113.5 25.875L111.626 29.4089L113.126 30.2043L115 26.6704L116.874 23.1365L115.374 22.3411L113.5 25.875ZM115 26.6704L113.126 30.2043L114.626 30.9997L116.5 27.4658L118.374 23.9319L116.874 23.1365L115 26.6704ZM116.5 27.4658L114.626 30.9997C116.752 32.1272 119.118 32.175 121.291 31.0868L119.5 27.5101L117.709 23.9335C117.706 23.9352 117.739 23.9184 117.806 23.9021C117.874 23.8854 117.961 23.8736 118.059 23.875C118.272 23.8782 118.389 23.9398 118.374 23.9319L116.5 27.4658ZM119.5 27.5101L121.291 31.0868L122.791 30.3358L121 26.7591L119.209 23.1824L117.709 23.9335L119.5 27.5101ZM121 26.7591L122.791 30.3358L124.291 29.5847L122.5 26.008L120.709 22.4313L119.209 23.1824L121 26.7591ZM122.5 26.008L124.291 29.5847C124.44 29.51 124.519 29.4966 124.539 29.4938C124.555 29.4918 124.57 29.4903 124.609 29.4992L125.5 25.5997L126.391 21.7002C124.403 21.2459 122.458 21.5554 120.709 22.4313L122.5 26.008ZM125.5 25.5997L124.609 29.4992L126.109 29.8419L127 25.9425L127.891 22.043L126.391 21.7002L125.5 25.5997ZM127 25.9425L126.109 29.8419L127.609 30.1847L128.5 26.2852L129.391 22.3858L127.891 22.043L127 25.9425ZM128.5 26.2852L127.609 30.1847C128.435 30.3735 129.27 30.6224 130.115 30.9342L131.5 27.1815L132.885 23.4289C131.73 23.0027 130.565 22.654 129.391 22.3858L128.5 26.2852ZM131.5 27.1815L130.115 30.9342L131.615 31.4877L133 27.7351L134.385 23.9825L132.885 23.4289L131.5 27.1815ZM133 27.7351L131.615 31.4877L133.115 32.0413L134.5 28.2886L135.885 24.536L134.385 23.9825L133 27.7351ZM134.5 28.2886L133.115 32.0413C134.568 32.5775 136.083 32.8416 137.633 32.7901L137.5 28.7923L137.367 24.7945C136.917 24.8095 136.432 24.7378 135.885 24.536L134.5 28.2886ZM137.5 28.7923L137.633 32.7901L139.133 32.7402L139 28.7424L138.867 24.7446L137.367 24.7945L137.5 28.7923ZM139 28.7424L139.133 32.7402L140.633 32.6903L140.5 28.6925L140.367 24.6947L138.867 24.7446L139 28.7424ZM140.5 28.6925L140.633 32.6903C142.32 32.6342 143.914 32.1552 145.382 31.373L143.5 27.8431L141.618 24.3133C141.086 24.5971 140.68 24.6844 140.367 24.6947L140.5 28.6925ZM143.5 27.8431L145.382 31.373L146.882 30.5734L145 27.0436L143.118 23.5137L141.618 24.3133L143.5 27.8431ZM145 27.0436L146.882 30.5734L148.382 29.7739L146.5 26.244L144.618 22.7142L143.118 23.5137L145 27.0436ZM146.5 26.244L148.382 29.7739C148.429 29.7485 148.449 29.7429 148.443 29.7449C148.436 29.7473 148.409 29.7547 148.366 29.7586C148.323 29.7625 148.279 29.7615 148.24 29.7564C148.201 29.7514 148.18 29.7443 148.181 29.7447L149.5 25.9684L150.819 22.192C148.685 21.4467 146.527 21.697 144.618 22.7142L146.5 26.244ZM149.5 25.9684L148.181 29.7447L149.681 30.2685L151 26.4922L152.319 22.7159L150.819 22.192L149.5 25.9684ZM151 26.4922L149.681 30.2685L151.181 30.7924L152.5 27.0161L153.819 23.2397L152.319 22.7159L151 26.4922ZM152.5 27.0161L151.181 30.7924C152.3 31.1832 153.425 31.5166 154.554 31.7915L155.5 27.9049L156.446 24.0182C155.575 23.8065 154.7 23.5474 153.819 23.2397L152.5 27.0161ZM155.5 27.9049L154.554 31.7915L156.054 32.1564L157 28.2698L157.946 24.3831L156.446 24.0182L155.5 27.9049ZM157 28.2698L156.054 32.1564L157.554 32.5213L158.5 28.6347L159.446 24.748L157.946 24.3831L157 28.2698ZM158.5 28.6347L157.554 32.5213C159.097 32.8966 160.669 32.9438 162.231 32.6533L161.5 28.7207L160.769 24.7881C160.331 24.8694 159.903 24.8593 159.446 24.748L158.5 28.6347ZM161.5 28.7207L162.231 32.6533L163.731 32.3743L163 28.4417L162.269 24.5092L160.769 24.7881L161.5 28.7207ZM163 28.4417L163.731 32.3743L165.231 32.0954L164.5 28.1628L163.769 24.2302L162.269 24.5092L163 28.4417ZM164.5 28.1628L165.231 32.0954C166.394 31.8793 167.549 31.59 168.698 31.2297L167.5 27.4132L166.302 23.5967C165.451 23.8639 164.606 24.0745 163.769 24.2302L164.5 28.1628ZM167.5 27.4132L168.698 31.2297L170.198 30.759L169 26.9425L167.802 23.126L166.302 23.5967L167.5 27.4132ZM169 26.9425L170.198 30.759L171.698 30.2883L170.5 26.4718L169.302 22.6553L167.802 23.126L169 26.9425ZM170.5 26.4718L171.698 30.2883C172.015 30.1888 172.272 30.1854 172.55 30.2534L173.5 26.3677L174.45 22.4821C172.728 22.0612 170.985 22.1273 169.302 22.6553L170.5 26.4718ZM173.5 26.3677L172.55 30.2534L174.05 30.6199L175 26.7343L175.95 22.8486L174.45 22.4821L173.5 26.3677ZM175 26.7343L174.05 30.6199L175.55 30.9865L176.5 27.1009L177.45 23.2152L175.95 22.8486L175 26.7343ZM176.5 27.1009L175.55 30.9865C177.068 31.3573 178.614 31.4203 180.156 31.1641L179.5 27.2182L178.844 23.2723C178.386 23.3484 177.932 23.3332 177.45 23.2152L176.5 27.1009ZM179.5 27.2182L180.156 31.1641L181.656 30.9149L181 26.969L180.344 23.0231L178.844 23.2723L179.5 27.2182ZM181 26.969L181.656 30.9149L183.156 30.6656L182.5 26.7197L181.844 22.7738L180.344 23.0231L181 26.969ZM182.5 26.7197L183.156 30.6656C183.733 30.5697 184.302 30.5673 184.878 30.658L185.5 26.7067L186.122 22.7554C184.698 22.5311 183.267 22.5375 181.844 22.7738L182.5 26.7197ZM185.5 26.7067L184.878 30.658L186.378 30.8942L187 26.9429L187.622 22.9916L186.122 22.7554L185.5 26.7067ZM187 26.9429L186.378 30.8942L187.878 31.1304L188.5 27.1791L189.122 23.2278L187.622 22.9916L187 26.9429ZM188.5 27.1791L187.878 31.1304C189.491 31.3845 191.099 31.2618 192.656 30.7916L191.5 26.9624L190.344 23.1332C189.901 23.2669 189.509 23.2886 189.122 23.2278L188.5 27.1791ZM191.5 26.9624L192.656 30.7916L194.156 30.3387L193 26.5095L191.844 22.6802L190.344 23.1332L191.5 26.9624ZM193 26.5095L194.156 30.3387L195.656 29.8858L194.5 26.0565L193.344 22.2273L191.844 22.6802L193 26.5095ZM194.5 26.0565L195.656 29.8858C195.832 29.8327 195.964 29.8298 196.176 29.9043L197.5 26.1298L198.824 22.3553C197.036 21.7282 195.168 21.6764 193.344 22.2273L194.5 26.0565ZM197.5 26.1298L196.176 29.9043L197.676 30.4305L199 26.656L200.324 22.8814L198.824 22.3553L197.5 26.1298ZM199 26.656L197.676 30.4305L199.176 30.9566L200.5 27.1821L201.824 23.4076L200.324 22.8814L199 26.656ZM200.5 27.1821L199.176 30.9566C200.925 31.5702 202.756 31.6487 204.558 31.1543L203.5 27.2968L202.442 23.4393C202.244 23.4936 202.075 23.4956 201.824 23.4076L200.5 27.1821ZM203.5 27.2968L204.558 31.1543L206.058 30.7428L205 26.8854L203.942 23.0279L202.442 23.4393L203.5 27.2968ZM205 26.8854L206.058 30.7428L207.558 30.3314L206.5 26.4739L205.442 22.6164L203.942 23.0279L205 26.8854ZM206.5 26.4739L207.558 30.3314C208.389 30.1034 209.212 29.9361 210.029 29.8273L209.5 25.8624L208.971 21.8975C207.788 22.0553 206.611 22.2957 205.442 22.6164L206.5 26.4739ZM209.5 25.8624L210.029 29.8273L211.529 29.6273L211 25.6624L210.471 21.6974L208.971 21.8975L209.5 25.8624ZM211 25.6624L211.529 29.6273L213.029 29.4272L212.5 25.4623L211.971 21.4974L210.471 21.6974L211 25.6624ZM212.5 25.4623L213.029 29.4272C213.876 29.3142 214.721 29.2511 215.565 29.2374L215.5 25.2379L215.435 21.2384C214.279 21.2573 213.124 21.3438 211.971 21.4974L212.5 25.4623ZM215.5 25.2379L215.565 29.2374L217.065 29.213L217 25.2135L216.935 21.214L215.435 21.2384L215.5 25.2379ZM217 25.2135L217.065 29.213L218.565 29.1886L218.5 25.1891L218.435 21.1896L216.935 21.214L217 25.2135ZM218.5 25.1891L218.565 29.1886C218.695 29.1865 218.965 29.2125 219.432 29.4946L221.5 26.0708L223.568 22.647C222.035 21.721 220.305 21.1592 218.435 21.1896L218.5 25.1891ZM221.5 26.0708L219.432 29.4946L220.932 30.4007L223 26.9769L225.068 23.5531L223.568 22.647L221.5 26.0708ZM223 26.9769L220.932 30.4007L222.432 31.3069L224.5 27.883L226.568 24.4592L225.068 23.5531L223 26.9769ZM224.5 27.883L222.432 31.3069C224.475 32.5408 226.863 32.7897 229.152 31.7518L227.5 28.1089L225.848 24.466C225.9 24.4424 226.069 24.3864 226.3 24.4039C226.521 24.4205 226.62 24.4905 226.568 24.4592L224.5 27.883ZM227.5 28.1089L229.152 31.7518L230.652 31.0716L229 27.4287L227.348 23.7858L225.848 24.466L227.5 28.1089ZM229 27.4287L230.652 31.0716L232.152 30.3914L230.5 26.7485L228.848 23.1055L227.348 23.7858L229 27.4287ZM230.5 26.7485L232.152 30.3914C232.21 30.365 232.249 30.3529 232.269 30.3476C232.289 30.3424 232.296 30.3422 232.293 30.3424C232.29 30.3427 232.287 30.3424 232.287 30.3425C232.288 30.3425 232.301 30.3439 232.328 30.3523L233.5 26.5279L234.672 22.7034C232.69 22.0962 230.687 22.2714 228.848 23.1055L230.5 26.7485ZM233.5 26.5279L232.328 30.3523L233.828 30.812L235 26.9875L236.172 23.1631L234.672 22.7034L233.5 26.5279ZM235 26.9875L233.828 30.812L235.328 31.2716L236.5 27.4472L237.672 23.6227L236.172 23.1631L235 26.9875ZM236.5 27.4472L235.328 31.2716C236.95 31.7685 238.626 31.8614 240.297 31.5217L239.5 27.6019L238.703 23.6821C238.374 23.749 238.05 23.7387 237.672 23.6227L236.5 27.4472ZM239.5 27.6019L240.297 31.5217L241.797 31.2167L241 27.2969L240.203 23.3771L238.703 23.6821L239.5 27.6019ZM241 27.2969L241.797 31.2167L243.297 30.9118L242.5 26.992L241.703 23.0722L240.203 23.3771L241 27.2969ZM242.5 26.992L243.297 30.9118C243.977 30.7735 244.645 30.723 245.306 30.7552L245.5 26.7599L245.694 22.7646C244.355 22.6996 243.023 22.8039 241.703 23.0722L242.5 26.992ZM245.5 26.7599L245.306 30.7552L246.806 30.828L247 26.8327L247.194 22.8374L245.694 22.7646L245.5 26.7599ZM247 26.8327L246.806 30.828L248.306 30.9008L248.5 26.9056L248.694 22.9103L247.194 22.8374L247 26.8327ZM248.5 26.9056L248.306 30.9008C249.802 30.9735 251.276 30.7701 252.707 30.3173L251.5 26.5037L250.293 22.6901C249.724 22.8703 249.198 22.9347 248.694 22.9103L248.5 26.9056ZM251.5 26.5037L252.707 30.3173L254.207 29.8427L253 26.029L251.793 22.2154L250.293 22.6901L251.5 26.5037ZM253 26.029L254.207 29.8427L255.707 29.368L254.5 25.5544L253.293 21.7408L251.793 22.2154L253 26.029ZM254.5 25.5544L255.707 29.368C255.667 29.3806 255.603 29.3956 255.52 29.4012C255.437 29.4068 255.357 29.4014 255.288 29.3888C255.145 29.3629 255.13 29.3232 255.254 29.4075L257.5 26.0973L259.746 22.7872C257.906 21.5394 255.647 20.9959 253.293 21.7408L254.5 25.5544ZM257.5 26.0973L255.254 29.4075L256.754 30.4251L259 27.115L261.246 23.8049L259.746 22.7872L257.5 26.0973ZM259 27.115L256.754 30.4251L258.254 31.4428L260.5 28.1327L262.746 24.8226L261.246 23.8049L259 27.115ZM260.5 28.1327L258.254 31.4428C258.897 31.8786 259.786 32.4037 260.816 32.651C261.922 32.9164 263.905 32.9753 265.429 31.3369L262.5 28.6127L259.571 25.8885C260.085 25.3354 260.746 24.9924 261.409 24.8608C262.01 24.7415 262.472 24.8213 262.684 24.872C263.047 24.9593 263.103 25.0652 262.746 24.8226L260.5 28.1327ZM262.5 28.6127L265.429 31.3369L265.929 30.7994L263 28.0752L260.071 25.351L259.571 25.8885L262.5 28.6127ZM263 28.0752L266.067 30.6427L266.967 29.5675L263.9 27L260.833 24.4325L259.933 25.5076L263 28.0752ZM263.9 27V31H264V27V23H263.9V27Z" fill="#4E4E4E"/>
<path d="M269.225 24.4535C268.981 24.2452 268.618 23.9655 268.135 23.7012C267.696 23.4607 267.345 23.3348 266.776 23.1334C265.677 22.7447 265.499 22.7922 264.96 22.5251C264.628 22.3615 264.2 22.1 263.75 21.6637L263.66 21.563C263.66 21.563 264.06 23.5152 264.874 27.4993C266.379 26.5218 267.884 25.5443 269.388 24.5668C269.334 24.5291 269.278 24.4913 269.223 24.4535H269.225Z" fill="white"/>
<path d="M269.225 24.4534C268.981 24.2451 268.618 23.9654 268.135 23.7011C267.696 23.4605 267.345 23.3347 266.776 23.1333C265.677 22.7445 265.499 22.7921 264.96 22.525C264.628 22.3614 264.2 22.0999 263.75 21.6636L263.66 21.5629C263.66 21.5629 264.975 17.2529 265.704 14.5805C266.182 12.8227 266.769 10.4468 267.31 7.52966L267.38 7.65552C268.236 8.14637 269.391 8.70015 270.819 9.10988C272.48 9.58675 273.947 9.70562 275.028 9.70981L275.157 9.69443C274.416 11.4746 273.68 13.2884 272.952 15.1343C271.686 18.3381 270.5 21.486 269.391 24.5695" fill="#FF7C7D"/>
<path d="M266.962 26.1429C266.267 26.5946 265.571 27.0463 264.876 27.498C264.681 26.5457 264.486 25.5933 264.291 24.641L264.273 24.5487C264.673 24.7725 265.073 24.9962 265.474 25.2227C265.961 25.4968 266.445 25.7709 266.927 26.045C266.938 26.0772 266.951 26.1094 266.962 26.1415V26.1429Z" fill="#292A2C"/>
<path d="M267.38 7.6528C268.236 8.14365 269.391 8.69743 270.819 9.10716C272.48 9.58403 273.947 9.70289 275.028 9.70709L275.155 9.69171C275.47 8.93656 275.754 8.25972 276 7.67937C274.714 7.6542 273.016 7.48779 271.108 6.92142C269.731 6.51168 268.577 5.99287 267.663 5.50342C267.547 6.17326 267.429 6.84311 267.313 7.51156C267.335 7.55911 267.358 7.60525 267.38 7.6528Z" fill="#FFCB4F"/>
<path d="M274.683 7.60664C273.677 7.51574 272.456 7.32136 271.11 6.92141C269.987 6.58858 269.023 6.18444 268.229 5.79428L268.299 5.61947L268.79 4.50073C269.351 4.60841 270.164 4.78461 271.135 5.06989C271.761 5.25448 272.033 5.35937 272.638 5.53697C273.227 5.70897 274.055 5.92433 275.078 6.10892C274.964 6.51866 274.849 6.927 274.734 7.33674C274.716 7.42624 274.7 7.51714 274.681 7.60664H274.683Z" fill="#AFDEF7"/>
<path d="M263.66 21.5616C263.66 21.5616 264.06 23.5138 264.874 27.4979C266.379 26.5204 267.884 25.5429 269.388 24.5654C270.499 21.4819 271.683 18.3354 272.949 15.1302C273.954 12.5837 274.972 10.1001 275.999 7.67803C274.712 7.65286 273.014 7.48644 271.107 6.92008C269.73 6.51034 268.576 5.99152 267.661 5.50208C267.033 9.35614 266.287 12.4285 265.702 14.5765C264.973 17.2503 263.659 21.5602 263.659 21.5588L263.66 21.5616Z" stroke="#474B4E" stroke-width="0.559371" stroke-linecap="round" stroke-linejoin="round"/>
<path d="M268.299 5.61947L268.79 4.50073C269.351 4.60841 270.164 4.78461 271.135 5.06989C271.761 5.25448 272.033 5.35937 272.638 5.53697C273.227 5.70897 274.055 5.92433 275.079 6.10892C274.964 6.51866 274.849 6.927 274.735 7.33674" stroke="#474B4E" stroke-width="0.559371" stroke-linecap="round" stroke-linejoin="round"/>
<path d="M267.38 7.65283C268.236 8.14368 269.391 8.69746 270.819 9.1072C272.48 9.58406 273.947 9.70293 275.028 9.70712" stroke="#474B4E" stroke-width="0.559371" stroke-linecap="round" stroke-linejoin="round"/>
<path d="M263.751 21.6636C264.202 22.0999 264.629 22.3614 264.961 22.525C265.502 22.7921 265.678 22.7446 266.777 23.1333C267.347 23.3347 267.698 23.4606 268.137 23.7011C268.618 23.9654 268.983 24.2451 269.226 24.4534" stroke="#474B4E" stroke-width="0.559371" stroke-linecap="round" stroke-linejoin="round"/>
<path d="M264.273 24.55C264.673 24.7738 265.073 24.9975 265.474 25.2241C265.961 25.4982 266.445 25.7723 266.927 26.0464" stroke="#474B4E" stroke-width="0.559371" stroke-linecap="round" stroke-linejoin="round"/>
<path d="M264.771 22.2524C265.383 20.1059 265.993 17.9607 266.601 15.8141C267.299 13.3515 267.997 10.8874 268.69 8.422" stroke="#474B4E" stroke-width="0.559371" stroke-linecap="round" stroke-linejoin="round"/>
<path d="M266.271 22.8872C267.161 20.5196 268.032 18.022 268.867 15.3972C269.549 13.2478 270.163 11.1544 270.714 9.12524" stroke="#474B4E" stroke-width="0.559371" stroke-linecap="round" stroke-linejoin="round"/>
<path d="M267.719 23.2635C268.563 21.4399 269.152 19.9338 269.521 18.9395C270.289 16.8698 270.541 15.8308 271.395 13.4465C272.009 11.732 272.557 10.3728 272.898 9.55188" stroke="#474B4E" stroke-width="0.559371" stroke-linecap="round" stroke-linejoin="round"/>
<path d="M267.864 7.79535C268.028 7.55202 268.204 7.25416 268.362 6.89756C268.491 6.60808 268.584 6.33819 268.653 6.09766" stroke="#474B4E" stroke-width="0.559371" stroke-linecap="round" stroke-linejoin="round"/>
<path d="M268.884 8.3198C269.039 8.04711 269.195 7.75344 269.348 7.43879C269.497 7.13254 269.629 6.83747 269.746 6.55359" stroke="#474B4E" stroke-width="0.559371" stroke-linecap="round" stroke-linejoin="round"/>
<path d="M270.302 8.81911C270.416 8.54502 270.528 8.26114 270.639 7.96607C270.767 7.62486 270.883 7.29203 270.99 6.96899" stroke="#474B4E" stroke-width="0.559371" stroke-linecap="round" stroke-linejoin="round"/>
<path d="M271.564 9.1295C271.703 8.80506 271.838 8.46524 271.97 8.11004C272.066 7.85133 272.156 7.59682 272.238 7.3479" stroke="#474B4E" stroke-width="0.559371" stroke-linecap="round" stroke-linejoin="round"/>
<path d="M272.996 9.43017C273.091 9.09734 273.185 8.76032 273.279 8.4219C273.357 8.13662 273.434 7.85274 273.511 7.57166" stroke="#474B4E" stroke-width="0.559371" stroke-linecap="round" stroke-linejoin="round"/>
<path d="M274.294 9.57846C274.384 9.25542 274.466 8.90441 274.536 8.52684C274.588 8.24995 274.628 7.98285 274.659 7.72974" stroke="#474B4E" stroke-width="0.559371" stroke-linecap="round" stroke-linejoin="round"/>
</svg>
