<svg width="268" height="35" viewBox="0 0 268 35" fill="none" xmlns="http://www.w3.org/2000/svg">
<rect y="24" width="260" height="8" rx="4" fill="#F0F0F0"/>
<rect y="24" width="156" height="8" rx="4" fill="#4E4E4E"/>
<path d="M157.225 24.4535C156.981 24.2451 156.618 23.9654 156.135 23.7011C155.696 23.4606 155.345 23.3347 154.776 23.1334C153.677 22.7446 153.499 22.7921 152.96 22.525C152.628 22.3614 152.2 22.0999 151.75 21.6636L151.66 21.5629C151.66 21.5629 152.06 23.5151 152.874 27.4992C154.379 26.5217 155.884 25.5442 157.388 24.5667C157.334 24.529 157.278 24.4912 157.223 24.4535H157.225Z" fill="white"/>
<path d="M157.225 24.4534C156.981 24.2451 156.618 23.9654 156.135 23.7011C155.696 23.4605 155.345 23.3347 154.776 23.1333C153.677 22.7445 153.499 22.7921 152.96 22.525C152.628 22.3614 152.2 22.0999 151.75 21.6636L151.66 21.5629C151.66 21.5629 152.975 17.2529 153.704 14.5805C154.182 12.8227 154.769 10.4468 155.31 7.52966L155.38 7.65552C156.236 8.14637 157.391 8.70015 158.819 9.10988C160.48 9.58675 161.947 9.70562 163.028 9.70981L163.157 9.69443C162.416 11.4746 161.68 13.2884 160.952 15.1343C159.686 18.3381 158.5 21.486 157.391 24.5695" fill="#FF7C7D"/>
<path d="M154.962 26.1429C154.267 26.5945 153.571 27.0462 152.876 27.4979C152.681 26.5456 152.486 25.5933 152.291 24.6409L152.273 24.5486C152.673 24.7724 153.073 24.9961 153.474 25.2227C153.961 25.4968 154.445 25.7709 154.927 26.045C154.938 26.0771 154.951 26.1093 154.962 26.1415V26.1429Z" fill="#292A2C"/>
<path d="M155.38 7.65286C156.236 8.14371 157.391 8.69749 158.819 9.10723C160.48 9.58409 161.947 9.70296 163.028 9.70715L163.155 9.69177C163.47 8.93662 163.754 8.25978 164 7.67943C162.714 7.65426 161.016 7.48785 159.108 6.92148C157.731 6.51174 156.577 5.99293 155.663 5.50348C155.547 6.17333 155.429 6.84317 155.313 7.51162C155.335 7.55917 155.358 7.60531 155.38 7.65286Z" fill="#FFCB4F"/>
<path d="M162.683 7.60664C161.677 7.51574 160.456 7.32136 159.11 6.92141C157.987 6.58858 157.023 6.18444 156.229 5.79428L156.299 5.61947L156.79 4.50073C157.351 4.60841 158.164 4.78461 159.135 5.06989C159.761 5.25448 160.033 5.35937 160.638 5.53697C161.227 5.70897 162.055 5.92433 163.078 6.10892C162.964 6.51866 162.849 6.927 162.734 7.33674C162.716 7.42624 162.7 7.51714 162.681 7.60664H162.683Z" fill="#AFDEF7"/>
<path d="M151.66 21.5616C151.66 21.5616 152.06 23.5138 152.874 27.4979C154.379 26.5204 155.884 25.5429 157.388 24.5654C158.499 21.4819 159.683 18.3354 160.949 15.1302C161.954 12.5837 162.972 10.1001 163.999 7.67803C162.712 7.65286 161.014 7.48644 159.107 6.92008C157.73 6.51034 156.576 5.99152 155.661 5.50208C155.033 9.35614 154.287 12.4285 153.702 14.5765C152.973 17.2503 151.659 21.5602 151.659 21.5588L151.66 21.5616Z" stroke="#474B4E" stroke-width="0.559371" stroke-linecap="round" stroke-linejoin="round"/>
<path d="M156.299 5.61947L156.79 4.50073C157.351 4.60841 158.164 4.78461 159.135 5.06989C159.761 5.25448 160.033 5.35937 160.638 5.53697C161.227 5.70897 162.055 5.92433 163.079 6.10892C162.964 6.51866 162.849 6.927 162.735 7.33674" stroke="#474B4E" stroke-width="0.559371" stroke-linecap="round" stroke-linejoin="round"/>
<path d="M155.38 7.65283C156.236 8.14368 157.391 8.69746 158.819 9.1072C160.48 9.58406 161.947 9.70293 163.028 9.70712" stroke="#474B4E" stroke-width="0.559371" stroke-linecap="round" stroke-linejoin="round"/>
<path d="M151.751 21.6635C152.202 22.0998 152.629 22.3613 152.961 22.5249C153.502 22.792 153.678 22.7445 154.777 23.1333C155.347 23.3346 155.698 23.4605 156.137 23.701C156.618 23.9653 156.983 24.245 157.226 24.4534" stroke="#474B4E" stroke-width="0.559371" stroke-linecap="round" stroke-linejoin="round"/>
<path d="M152.273 24.55C152.673 24.7738 153.073 24.9975 153.474 25.2241C153.961 25.4982 154.445 25.7723 154.927 26.0464" stroke="#474B4E" stroke-width="0.559371" stroke-linecap="round" stroke-linejoin="round"/>
<path d="M152.771 22.2524C153.383 20.1058 153.993 17.9606 154.601 15.814C155.299 13.3514 155.997 10.8874 156.69 8.42194" stroke="#474B4E" stroke-width="0.559371" stroke-linecap="round" stroke-linejoin="round"/>
<path d="M154.271 22.8871C155.161 20.5196 156.032 18.022 156.867 15.3971C157.549 13.2477 158.163 11.1543 158.714 9.12518" stroke="#474B4E" stroke-width="0.559371" stroke-linecap="round" stroke-linejoin="round"/>
<path d="M155.719 23.2635C156.563 21.44 157.152 19.9339 157.521 18.9396C158.289 16.8699 158.541 15.8309 159.395 13.4466C160.009 11.7321 160.557 10.3728 160.898 9.55194" stroke="#474B4E" stroke-width="0.559371" stroke-linecap="round" stroke-linejoin="round"/>
<path d="M155.864 7.79541C156.028 7.55208 156.204 7.25422 156.362 6.89762C156.491 6.60814 156.584 6.33825 156.653 6.09772" stroke="#474B4E" stroke-width="0.559371" stroke-linecap="round" stroke-linejoin="round"/>
<path d="M156.884 8.3198C157.039 8.04711 157.195 7.75344 157.348 7.43879C157.497 7.13254 157.629 6.83747 157.746 6.55359" stroke="#474B4E" stroke-width="0.559371" stroke-linecap="round" stroke-linejoin="round"/>
<path d="M158.302 8.81905C158.416 8.54496 158.528 8.26108 158.639 7.96601C158.767 7.62479 158.883 7.29197 158.99 6.96893" stroke="#474B4E" stroke-width="0.559371" stroke-linecap="round" stroke-linejoin="round"/>
<path d="M159.564 9.12956C159.703 8.80512 159.838 8.46531 159.97 8.1101C160.066 7.8514 160.156 7.59688 160.238 7.34796" stroke="#474B4E" stroke-width="0.559371" stroke-linecap="round" stroke-linejoin="round"/>
<path d="M160.996 9.4301C161.091 9.09728 161.185 8.76026 161.279 8.42184C161.357 8.13656 161.434 7.85268 161.511 7.57159" stroke="#474B4E" stroke-width="0.559371" stroke-linecap="round" stroke-linejoin="round"/>
<path d="M162.294 9.57846C162.384 9.25542 162.466 8.90441 162.536 8.52684C162.588 8.24995 162.628 7.98285 162.659 7.72974" stroke="#474B4E" stroke-width="0.559371" stroke-linecap="round" stroke-linejoin="round"/>
</svg>
