<svg width="268" height="35" viewBox="0 0 268 35" fill="none" xmlns="http://www.w3.org/2000/svg">
<rect y="24" width="260" height="8" rx="4" fill="#F0F0F0"/>
<rect y="24" width="104" height="8" rx="4" fill="#4E4E4E"/>
<path d="M105.225 24.4535C104.981 24.2451 104.618 23.9654 104.135 23.7011C103.696 23.4606 103.345 23.3347 102.776 23.1334C101.677 22.7446 101.499 22.7921 100.96 22.525C100.628 22.3614 100.2 22.0999 99.7499 21.6636L99.6604 21.5629C99.6604 21.5629 100.06 23.5151 100.874 27.4992C102.379 26.5217 103.884 25.5442 105.388 24.5667C105.334 24.529 105.278 24.4912 105.223 24.4535H105.225Z" fill="white"/>
<path d="M105.225 24.4534C104.981 24.2451 104.618 23.9654 104.135 23.7011C103.696 23.4605 103.345 23.3347 102.776 23.1333C101.677 22.7445 101.499 22.7921 100.96 22.525C100.628 22.3614 100.2 22.0999 99.7499 21.6636L99.6604 21.5629C99.6604 21.5629 100.975 17.2529 101.704 14.5805C102.182 12.8227 102.769 10.4468 103.31 7.52966L103.38 7.65552C104.236 8.14637 105.391 8.70015 106.819 9.10988C108.48 9.58675 109.947 9.70562 111.028 9.70981L111.157 9.69443C110.416 11.4746 109.68 13.2884 108.952 15.1343C107.686 18.3381 106.5 21.486 105.391 24.5695" fill="#FF7C7D"/>
<path d="M102.962 26.1429C102.267 26.5945 101.571 27.0462 100.876 27.4979C100.681 26.5456 100.486 25.5933 100.291 24.6409L100.273 24.5486C100.673 24.7724 101.073 24.9961 101.474 25.2227C101.961 25.4968 102.445 25.7709 102.927 26.045C102.938 26.0771 102.951 26.1093 102.962 26.1415V26.1429Z" fill="#292A2C"/>
<path d="M103.38 7.65286C104.236 8.14371 105.391 8.69749 106.819 9.10723C108.48 9.58409 109.947 9.70296 111.028 9.70715L111.155 9.69177C111.47 8.93662 111.754 8.25978 112 7.67943C110.714 7.65426 109.016 7.48785 107.108 6.92148C105.731 6.51174 104.577 5.99293 103.663 5.50348C103.547 6.17333 103.429 6.84317 103.313 7.51162C103.335 7.55917 103.358 7.60531 103.38 7.65286Z" fill="#FFCB4F"/>
<path d="M110.683 7.60664C109.677 7.51574 108.456 7.32136 107.11 6.92141C105.987 6.58858 105.023 6.18444 104.229 5.79428L104.299 5.61947L104.79 4.50073C105.351 4.60841 106.164 4.78461 107.135 5.06989C107.761 5.25448 108.033 5.35937 108.638 5.53697C109.227 5.70897 110.055 5.92433 111.078 6.10892C110.964 6.51866 110.849 6.927 110.734 7.33674C110.716 7.42624 110.7 7.51714 110.681 7.60664H110.683Z" fill="#AFDEF7"/>
<path d="M99.6603 21.5616C99.6603 21.5616 100.06 23.5138 100.874 27.4979C102.379 26.5204 103.884 25.5429 105.388 24.5654C106.499 21.4819 107.683 18.3354 108.949 15.1302C109.954 12.5837 110.972 10.1001 111.999 7.67803C110.712 7.65286 109.014 7.48644 107.107 6.92008C105.73 6.51034 104.576 5.99152 103.661 5.50208C103.033 9.35614 102.287 12.4285 101.702 14.5765C100.973 17.2503 99.6589 21.5602 99.6589 21.5588L99.6603 21.5616Z" stroke="#474B4E" stroke-width="0.559371" stroke-linecap="round" stroke-linejoin="round"/>
<path d="M104.299 5.61947L104.79 4.50073C105.351 4.60841 106.164 4.78461 107.135 5.06989C107.761 5.25448 108.033 5.35937 108.638 5.53697C109.227 5.70897 110.055 5.92433 111.079 6.10892C110.964 6.51866 110.849 6.927 110.735 7.33674" stroke="#474B4E" stroke-width="0.559371" stroke-linecap="round" stroke-linejoin="round"/>
<path d="M103.38 7.65283C104.236 8.14368 105.391 8.69746 106.819 9.1072C108.48 9.58406 109.947 9.70293 111.028 9.70712" stroke="#474B4E" stroke-width="0.559371" stroke-linecap="round" stroke-linejoin="round"/>
<path d="M99.7512 21.6635C100.202 22.0998 100.629 22.3613 100.961 22.5249C101.502 22.792 101.678 22.7445 102.777 23.1333C103.347 23.3346 103.698 23.4605 104.137 23.701C104.618 23.9653 104.983 24.245 105.226 24.4534" stroke="#474B4E" stroke-width="0.559371" stroke-linecap="round" stroke-linejoin="round"/>
<path d="M100.273 24.55C100.673 24.7738 101.073 24.9975 101.474 25.2241C101.961 25.4982 102.445 25.7723 102.927 26.0464" stroke="#474B4E" stroke-width="0.559371" stroke-linecap="round" stroke-linejoin="round"/>
<path d="M100.771 22.2524C101.383 20.1058 101.993 17.9606 102.601 15.814C103.299 13.3514 103.997 10.8874 104.69 8.42194" stroke="#474B4E" stroke-width="0.559371" stroke-linecap="round" stroke-linejoin="round"/>
<path d="M102.271 22.8871C103.161 20.5196 104.032 18.022 104.867 15.3971C105.549 13.2477 106.163 11.1543 106.714 9.12518" stroke="#474B4E" stroke-width="0.559371" stroke-linecap="round" stroke-linejoin="round"/>
<path d="M103.719 23.2635C104.563 21.44 105.152 19.9339 105.521 18.9396C106.289 16.8699 106.541 15.8309 107.395 13.4466C108.009 11.7321 108.557 10.3728 108.898 9.55194" stroke="#474B4E" stroke-width="0.559371" stroke-linecap="round" stroke-linejoin="round"/>
<path d="M103.864 7.79541C104.028 7.55208 104.204 7.25422 104.362 6.89762C104.491 6.60814 104.584 6.33825 104.653 6.09772" stroke="#474B4E" stroke-width="0.559371" stroke-linecap="round" stroke-linejoin="round"/>
<path d="M104.884 8.3198C105.039 8.04711 105.195 7.75344 105.348 7.43879C105.497 7.13254 105.629 6.83747 105.746 6.55359" stroke="#474B4E" stroke-width="0.559371" stroke-linecap="round" stroke-linejoin="round"/>
<path d="M106.302 8.81905C106.416 8.54496 106.528 8.26108 106.639 7.96601C106.767 7.62479 106.883 7.29197 106.99 6.96893" stroke="#474B4E" stroke-width="0.559371" stroke-linecap="round" stroke-linejoin="round"/>
<path d="M107.564 9.12956C107.703 8.80512 107.838 8.46531 107.97 8.1101C108.066 7.8514 108.156 7.59688 108.238 7.34796" stroke="#474B4E" stroke-width="0.559371" stroke-linecap="round" stroke-linejoin="round"/>
<path d="M108.996 9.4301C109.091 9.09728 109.185 8.76026 109.279 8.42184C109.357 8.13656 109.434 7.85268 109.511 7.57159" stroke="#474B4E" stroke-width="0.559371" stroke-linecap="round" stroke-linejoin="round"/>
<path d="M110.294 9.57846C110.384 9.25542 110.466 8.90441 110.536 8.52684C110.588 8.24995 110.628 7.98285 110.659 7.72974" stroke="#474B4E" stroke-width="0.559371" stroke-linecap="round" stroke-linejoin="round"/>
</svg>
