<svg width="156" height="52" viewBox="0 0 156 52" fill="none" xmlns="http://www.w3.org/2000/svg">
<path d="M1.5 14C1.5 7.37258 6.87258 2 13.5 2H142.5C149.127 2 154.5 7.37258 154.5 14V38C154.5 44.6274 149.127 50 142.5 50H13.5C6.87258 50 1.5 44.6274 1.5 38V14Z" fill="#1E1E1E"/>
<path d="M105.451 0.822266C105.802 0.813318 106.129 0.919093 106.418 1.0918L106.699 1.25586L106.98 1.42578C107.066 1.47658 107.117 1.48425 107.145 1.48438H107.426L107.707 1.47852C107.845 1.47687 107.988 1.46105 108.129 1.43164L108.691 1.31445C108.869 1.27741 109.047 1.23554 109.225 1.19141L109.787 1.05078C110.087 0.976352 110.394 0.976668 110.695 1.04492L111.258 1.17383C111.482 1.2247 111.706 1.2887 111.926 1.37305L112.207 1.48438L112.488 1.58984C112.531 1.60618 112.555 1.60912 112.582 1.60156L112.863 1.51953L113.145 1.44336C113.376 1.37899 113.611 1.33868 113.848 1.32031L114.41 1.27344C114.657 1.25439 114.904 1.26384 115.148 1.30273L115.711 1.39648C115.771 1.40604 115.834 1.39912 115.91 1.37305L116.191 1.27344L116.473 1.17969C116.856 1.04726 117.248 1.08003 117.604 1.25L118.166 1.51953C118.279 1.57332 118.378 1.59443 118.465 1.60156L119.027 1.64844C119.034 1.64899 119.069 1.65271 119.145 1.60742L119.707 1.26758C119.992 1.09588 120.316 0.990424 120.662 0.992188H120.943L121.225 0.998047C121.456 0.999349 121.687 1.01986 121.916 1.0625L123.041 1.27344L123.322 1.32031L123.604 1.37305C123.615 1.3752 123.64 1.37832 123.697 1.34961L124.26 1.06836L124.6 0.951172C124.938 0.885673 125.274 0.969563 125.566 1.16211L125.848 1.34375L126.129 1.53125C126.138 1.5375 126.147 1.54586 126.152 1.54883L126.41 1.49023L126.691 1.43164C126.975 1.37223 127.262 1.36598 127.547 1.41992L127.828 1.47852L128.109 1.53125C128.175 1.54348 128.24 1.53616 128.314 1.51367L128.877 1.34961C129.155 1.26589 129.443 1.23206 129.732 1.26172L130.295 1.32031C130.43 1.33415 130.564 1.33514 130.699 1.32031L130.98 1.29102L131.262 1.25586C131.566 1.22245 131.866 1.26133 132.152 1.36133L132.434 1.46094L132.68 1.55469L132.955 1.40234L133.236 1.25C133.543 1.08365 133.877 1.03851 134.197 1.12109L134.514 1.25L134.795 1.40234L135.023 1.52539L135.246 1.41992L135.527 1.29102C135.753 1.18635 135.985 1.10567 136.219 1.04492L136.5 0.96875L136.781 0.898438C137.113 0.812394 137.449 0.824349 137.771 0.933594L138.053 1.0332L138.334 1.12695C138.492 1.18087 138.653 1.22426 138.809 1.25586L139.09 1.31445L139.371 1.36719C139.471 1.38719 139.567 1.39409 139.664 1.37891L139.945 1.33203L140.227 1.29102C140.403 1.26329 140.583 1.2273 140.76 1.19141L141.041 1.13867L141.322 1.08008C141.574 1.02915 141.828 1.00915 142.084 1.02734L142.371 1.05078L142.652 1.06836C142.873 1.08427 143.091 1.11772 143.309 1.16211L143.59 1.2207L143.871 1.27344C143.987 1.29715 144.107 1.30619 144.234 1.29688L144.527 1.27344L144.826 1.25586C145.207 1.22793 145.562 1.33726 145.863 1.56055L146.109 1.73633L146.35 1.91797C146.387 1.94536 146.42 1.9586 146.461 1.95898H147.059L147.369 2C147.568 2.04559 147.749 2.13247 147.908 2.25781L148.131 2.46875L148.324 2.70898L148.523 2.94336C148.548 2.97225 148.561 2.97453 148.582 2.97852L148.875 3.03711L149.174 3.0957C149.561 3.16994 149.887 3.37857 150.111 3.70508L150.451 4.19727C150.547 4.3368 150.644 4.46499 150.744 4.57812L150.926 4.7832L151.113 4.99414C151.139 5.02191 151.188 5.06071 151.283 5.09375L151.582 5.19922L151.887 5.29883C152.211 5.41126 152.47 5.62643 152.625 5.91992L152.742 6.24219L152.812 6.54102L152.883 6.8457C152.915 6.97986 152.961 7.08844 153.012 7.17383L153.152 7.4082L153.293 7.64844C153.341 7.72875 153.412 7.81027 153.51 7.89453L153.744 8.09375L153.973 8.29297C154.297 8.57105 154.474 8.95437 154.465 9.38281L154.453 9.6875L154.447 9.99219C154.447 10.012 154.452 10.0237 154.453 10.0273C154.455 10.0321 154.46 10.0428 154.471 10.0566L154.658 10.2969L154.852 10.5312L155.01 10.7891C155.144 11.0576 155.188 11.358 155.133 11.668L155.08 11.9609L155.027 12.2598C155.007 12.3753 155.011 12.4763 155.027 12.5645L155.074 12.8398L155.127 13.1152C155.179 13.3982 155.175 13.6838 155.115 13.9648L155.057 14.2461L154.992 14.5273C154.969 14.6383 154.963 14.7481 154.975 14.8555L155.033 15.418C155.051 15.5928 155.077 15.7703 155.104 15.9453L155.186 16.5078C155.228 16.786 155.222 17.065 155.162 17.3398L155.033 17.9023C155.029 17.9194 155.027 17.9449 155.051 17.9961L155.309 18.5586C155.493 18.9644 155.471 19.3976 155.268 19.7832L155.121 20.0645L154.969 20.3457C154.936 20.4093 154.938 20.4414 154.939 20.457L154.975 20.7383L155.016 21.0195C155.044 21.2373 155.055 21.4573 155.057 21.6758V21.957L155.062 22.2383C155.064 22.4545 155.051 22.673 155.027 22.8887L154.969 23.4512C154.953 23.5973 154.949 23.745 154.957 23.8906L154.969 24.1719L154.986 24.4531C154.999 24.6718 154.996 24.8907 154.98 25.1094L154.963 25.3906L154.939 25.6719C154.926 25.8652 154.912 26.0587 154.893 26.252L154.863 26.5332L154.84 26.7852C154.844 26.7937 154.852 26.8147 154.875 26.8438L155.098 27.125L155.314 27.4062C155.579 27.7429 155.72 28.184 155.566 28.6602L155.479 28.9414L155.385 29.2227C155.354 29.3176 155.348 29.4052 155.355 29.4863L155.402 30.0488C155.418 30.2236 155.442 30.4012 155.467 30.5762L155.502 30.8574L155.543 31.1387C155.582 31.4175 155.57 31.6961 155.508 31.9707L155.379 32.5332C155.351 32.6544 155.344 32.7743 155.35 32.8906L155.373 33.4531C155.384 33.6666 155.385 33.8842 155.373 34.0977L155.361 34.3789L155.344 34.6602C155.334 34.8314 155.33 35.0046 155.332 35.1758L155.338 35.457V35.7383C155.34 36.0039 155.304 36.2675 155.227 36.5234L155.139 36.8047L155.057 37.0859C155.048 37.1161 155.043 37.1402 155.057 37.1797L155.162 37.4609L155.262 37.748C155.342 37.9755 155.403 38.2086 155.443 38.4453L155.496 38.7383L155.543 39.0312C155.599 39.3625 155.564 39.6922 155.438 40.0039L155.326 40.2793L155.215 40.5488C155.156 40.6931 155.111 40.8392 155.08 40.9824L155.021 41.2637L154.963 41.5391C154.89 41.8731 154.722 42.1667 154.488 42.4062L154.271 42.623L154.061 42.8457C153.976 42.9329 153.921 43.0127 153.891 43.0859L153.785 43.3438L153.68 43.5957C153.624 43.7276 153.578 43.8701 153.539 44.0234L153.463 44.3105L153.393 44.5918C153.328 44.8483 153.228 45.0916 153.094 45.3184L152.801 45.8105C152.656 46.0533 152.471 46.2676 152.25 46.4434L152.021 46.6191L151.799 46.8008C151.667 46.9059 151.542 47.0155 151.424 47.1289L151.219 47.3223L151.014 47.5215C150.862 47.6673 150.704 47.8065 150.539 47.9375L150.094 48.2891C149.928 48.4206 149.756 48.5437 149.578 48.6582L149.338 48.8105L149.104 48.9629C148.912 49.0861 148.709 49.1942 148.5 49.2852L148.242 49.4023L147.979 49.5137C147.771 49.6035 147.558 49.6793 147.34 49.7363L147.07 49.8066L146.795 49.877C146.584 49.932 146.371 49.9718 146.156 50L145.881 50.041L145.6 50.0762C145.57 50.0804 145.524 50.0953 145.453 50.1523L145.201 50.3516L144.955 50.5508C144.709 50.7493 144.428 50.896 144.117 50.9668L143.83 51.0312L143.549 51.0957C143.285 51.1558 143.015 51.1713 142.746 51.1484L142.172 51.1016C141.844 51.0734 141.542 50.9575 141.27 50.7852L140.988 50.6094L140.725 50.4395L140.508 50.5215L140.227 50.6211C139.89 50.7377 139.537 50.7455 139.195 50.6387L138.914 50.5449L138.633 50.457C138.608 50.4493 138.591 50.4501 138.557 50.4629L137.994 50.6738C137.718 50.7773 137.429 50.8288 137.133 50.8145L136.852 50.7969L136.57 50.7852C136.379 50.7759 136.188 50.7624 135.996 50.75L135.434 50.7148C135.347 50.7092 135.253 50.7226 135.152 50.7559L134.871 50.8496L134.59 50.9375C134.255 51.0479 133.907 51.0553 133.57 50.9492L133.289 50.8555L133.008 50.7676C132.968 50.7549 132.936 50.7556 132.896 50.7676L132.334 50.9434C132.081 51.0229 131.818 51.0686 131.555 51.0723L131.273 51.0781H130.992C130.809 51.0807 130.625 51.0844 130.441 51.0898L130.16 51.1016L129.879 51.1074C129.686 51.1132 129.492 51.1177 129.299 51.1191H129.018L128.736 51.125C128.381 51.1274 128.055 51.0128 127.77 50.832L127.488 50.6504L127.23 50.4863L127.02 50.5684L126.738 50.668C126.447 50.773 126.14 50.8113 125.83 50.7734L125.549 50.7441L125.268 50.709C125.226 50.7039 125.172 50.7053 125.098 50.7383L124.535 50.9844C124.11 51.1724 123.668 51.1277 123.287 50.9023L123.006 50.7383L122.742 50.5859L122.52 50.668L122.238 50.7734C121.938 50.8832 121.62 50.917 121.301 50.8672L121.02 50.8262L120.738 50.7793C120.58 50.7547 120.421 50.7394 120.264 50.7324L119.701 50.709C119.512 50.7008 119.322 50.6952 119.133 50.6855L118.852 50.668L118.57 50.6562C118.492 50.6522 118.404 50.6612 118.307 50.6973L117.744 50.9082C117.492 51.0018 117.231 51.0566 116.965 51.0723L116.402 51.1074C116.087 51.1258 115.78 51.0626 115.494 50.9375L114.932 50.6914C114.782 50.6257 114.634 50.5736 114.492 50.5391L114.211 50.4746L113.93 50.4043C113.839 50.3824 113.752 50.3782 113.666 50.3926L113.104 50.4863C112.958 50.5108 112.809 50.547 112.658 50.5977L112.377 50.6973L112.096 50.791C111.81 50.8869 111.512 50.9236 111.211 50.8906L110.93 50.8555L110.648 50.8262C110.471 50.8068 110.292 50.7918 110.115 50.7793L109.834 50.7617L109.553 50.7383C109.383 50.7264 109.213 50.7213 109.043 50.7207H108.48C108.28 50.72 108.078 50.709 107.877 50.6973L107.596 50.6855L107.314 50.668C107.249 50.6641 107.172 50.6711 107.08 50.709L106.518 50.9434C106.248 51.0547 105.966 51.1177 105.674 51.1191H105.111C104.765 51.1207 104.442 51.0156 104.156 50.8438L103.594 50.5039L103.582 50.498L103.33 50.5684L103.049 50.6387C102.796 50.7048 102.535 50.739 102.275 50.7324L101.994 50.7266L101.713 50.7148C101.525 50.7101 101.338 50.7085 101.15 50.7031L100.869 50.6914L100.588 50.6855C100.449 50.6816 100.307 50.6919 100.166 50.7148L99.6035 50.8086C99.2489 50.8664 98.9022 50.8017 98.5898 50.6504L98.3086 50.5156L98.0742 50.3984L97.8398 50.5156L97.5586 50.6504C97.2911 50.7803 97.0069 50.8634 96.709 50.8789L96.4277 50.8906L96.1465 50.9082C95.8434 50.9238 95.5476 50.8672 95.2676 50.7559L94.7051 50.5332C94.6966 50.5298 94.6906 50.528 94.6875 50.5273H94.6699L94.1074 50.7266C93.7602 50.8485 93.3947 50.8531 93.0469 50.7324L92.4844 50.5332C92.3936 50.502 92.3125 50.4969 92.2383 50.5039L91.957 50.5273L91.6758 50.5566C91.4754 50.5756 91.2728 50.5897 91.0723 50.5977L90.791 50.6094L90.5098 50.6152C90.2686 50.6247 90.0279 50.6104 89.7891 50.5684L89.5078 50.5215L89.2266 50.4688C89.1695 50.4588 89.1106 50.4624 89.0391 50.4863L88.7578 50.5859L88.4766 50.6797C88.1565 50.7888 87.8172 50.8029 87.4863 50.7207L87.2051 50.6504L86.9238 50.5859C86.7514 50.5432 86.58 50.5005 86.4082 50.4688L86.127 50.4219L85.8457 50.3691C85.8221 50.3648 85.7879 50.3596 85.7285 50.3867L85.166 50.6445C84.8825 50.7738 84.5796 50.845 84.2637 50.832L83.7012 50.8086C83.5631 50.8029 83.4247 50.8107 83.2852 50.832L82.7227 50.9141C82.4078 50.9624 82.0946 50.9308 81.7969 50.8262L81.5156 50.7266L81.2402 50.627L81.2344 50.6328L80.6719 50.8906C80.378 51.0261 80.0579 51.0947 79.7285 51.0664L79.4473 51.043L79.166 51.0137C78.8666 50.9877 78.5811 50.8963 78.3164 50.7559L78.0352 50.6094L77.7832 50.4688L77.543 50.5684L77.2617 50.6855C77.0373 50.7763 76.8071 50.8464 76.5762 50.8965L76.2949 50.9609L76.0137 51.0195C75.7722 51.0718 75.5266 51.0994 75.2812 51.0957L74.7188 51.084C74.4976 51.0805 74.2766 51.0649 74.0566 51.0312L73.7754 50.9844L73.4941 50.9434C73.2524 50.9063 73.0128 50.8438 72.7793 50.7559L72.498 50.6504L72.2168 50.5391H72.2109C72.2098 50.5393 72.2066 50.542 72.1992 50.5449L71.6367 50.7676C71.3587 50.8786 71.0646 50.9329 70.7637 50.9199L70.2012 50.8965C69.9847 50.8868 69.7662 50.8612 69.5508 50.8262L69.2695 50.7793L68.9883 50.7383C68.8416 50.7144 68.6939 50.7024 68.5488 50.7031H67.9863C67.8376 50.7039 67.6854 50.7201 67.5352 50.7441L67.2539 50.7852L66.9727 50.832C66.786 50.8619 66.5968 50.8901 66.4102 50.9199L65.8477 51.0137C65.5054 51.0678 65.1717 51.011 64.8633 50.873L64.582 50.75L64.3008 50.6211C64.217 50.5837 64.153 50.5761 64.1016 50.5801L63.5391 50.627C63.3654 50.6403 63.1915 50.6568 63.0176 50.6797L62.7363 50.7148L62.4551 50.7559C62.249 50.7829 62.0404 50.803 61.834 50.8145L61.5527 50.8262L61.2715 50.8438C60.9493 50.8613 60.6388 50.79 60.3516 50.6562L60.0703 50.5273L59.9121 50.4512L59.7129 50.6094L59.4316 50.8203C59.1318 51.0457 58.7604 51.1917 58.3418 51.1484L57.7793 51.0898C57.6042 51.0718 57.4269 51.0582 57.252 51.0488L56.9707 51.0371L56.6895 51.0195C56.3604 51.0015 56.0556 50.8931 55.7812 50.7266L55.5 50.5566L55.2188 50.3809C55.1304 50.3272 55.0759 50.3223 55.0488 50.3223H54.7676L54.4863 50.3281C54.3148 50.3289 54.1423 50.3345 53.9707 50.3457L53.4082 50.3809C53.3282 50.3861 53.2307 50.4094 53.1211 50.4629L52.8398 50.5977L52.5586 50.7383C52.3195 50.8548 52.0693 50.939 51.8145 50.9902L51.252 51.1074C50.9572 51.1662 50.6591 51.1547 50.3672 51.084L50.0859 51.0195L49.8047 50.9492C49.7057 50.9253 49.6111 50.9199 49.5176 50.9316L49.2363 50.9668L48.9551 51.0078C48.7043 51.0401 48.45 51.0401 48.1992 51.0078L47.918 50.9668L47.6367 50.9316C47.4456 50.907 47.2535 50.8834 47.0625 50.8555L46.5 50.7734C46.3729 50.7549 46.2452 50.749 46.1191 50.7617L45.5566 50.8203C45.2277 50.8533 44.9091 50.7941 44.6133 50.6621L44.332 50.5332L44.0508 50.4102C43.9978 50.3866 43.9719 50.3881 43.9512 50.3926L43.6699 50.4512L43.3887 50.5156C43.1753 50.5613 42.9588 50.5931 42.7441 50.6152L42.1816 50.6738C42.0486 50.6877 41.9111 50.717 41.7715 50.7617L41.4902 50.8496L41.209 50.9434C40.8551 51.0561 40.4911 51.0412 40.1484 50.9082L39.5859 50.6855C39.5102 50.6561 39.4509 50.6548 39.3984 50.6621L39.1172 50.6973L38.8359 50.7383C38.595 50.772 38.3514 50.7807 38.1094 50.7617L37.5469 50.7148C37.3906 50.7027 37.2342 50.7021 37.0781 50.709L36.5156 50.7324C36.3325 50.7405 36.148 50.7504 35.9648 50.7617L35.4023 50.7969C35.2838 50.8043 35.1615 50.8304 35.0332 50.873L34.4707 51.0605C34.0689 51.1946 33.6641 51.1418 33.3105 50.9492L33.0293 50.791L32.748 50.6387L32.4902 50.7207L32.209 50.8145C31.866 50.924 31.5109 50.9206 31.1719 50.8027L30.6094 50.6035H30.5977H30.5918C30.5889 50.6041 30.5827 50.6061 30.5742 50.6094L30.0117 50.832C29.5882 51.0004 29.1558 50.9402 28.7871 50.7207L28.5059 50.5566L28.2246 50.3867C28.1422 50.3376 28.0962 50.339 28.0781 50.3398L27.5156 50.3633C27.4135 50.368 27.3048 50.3893 27.1875 50.4336L26.9062 50.5391L26.625 50.6504C26.3206 50.7658 25.9955 50.7983 25.6699 50.7441L25.1074 50.6504C24.9084 50.6173 24.7085 50.5821 24.5098 50.5391L24.2285 50.4746L23.9473 50.416C23.7976 50.3836 23.6492 50.3659 23.502 50.3574L22.9395 50.3223C22.8035 50.3145 22.6666 50.3196 22.5293 50.3398L21.9668 50.4219C21.7395 50.4554 21.5099 50.4724 21.2812 50.4688L21 50.4629H20.7188C20.5235 50.4597 20.328 50.4489 20.1328 50.4395L19.5703 50.416C19.5112 50.4132 19.4379 50.4226 19.3477 50.4629L19.0664 50.5859L18.7852 50.7148C18.4737 50.8535 18.1341 50.9035 17.7891 50.8438L17.2266 50.75C17.1141 50.7307 17.0037 50.7236 16.8926 50.7383L16.6113 50.7793L16.3301 50.8145C16.1608 50.8368 15.9903 50.8672 15.8203 50.9023L15.2578 51.0195C14.9893 51.0749 14.7149 51.0849 14.4434 51.0488L14.1621 51.0078L13.8809 50.9727C13.7533 50.9559 13.6223 50.9531 13.4883 50.9668L12.9141 51.0254C12.6269 51.0548 12.342 51.0285 12.0645 50.9492L11.7832 50.873L11.5078 50.791C11.2902 50.7288 11.0755 50.6523 10.8691 50.5625L10.6055 50.4453L10.3418 50.334C10.1853 50.2659 10.0285 50.2048 9.87305 50.1523L9.60938 50.0645L9.33984 49.9707C9.20976 49.927 9.06712 49.898 8.91797 49.877L8.63086 49.8359L8.33789 49.7949C8.07522 49.7576 7.82274 49.6819 7.58203 49.5723L7.31836 49.4551L7.05469 49.332C6.75336 49.1943 6.50505 48.984 6.31641 48.7168L6.14062 48.4648L5.96484 48.2188C5.85424 48.0619 5.74454 47.9138 5.63672 47.7734L5.4668 47.5449L5.29102 47.3223C5.25768 47.2794 5.21473 47.2418 5.14453 47.2109L4.86914 47.0879L4.59961 46.9707C4.31099 46.8447 4.05807 46.6585 3.86133 46.4082L3.68555 46.1855L3.51562 45.9629C3.39496 45.8091 3.2743 45.6514 3.1582 45.4941L2.98828 45.2656L2.82422 45.043C2.65999 44.8205 2.53383 44.57 2.45508 44.3047L2.37891 44.0352L2.29688 43.7598C2.27434 43.6839 2.23367 43.6109 2.17383 43.543L1.98047 43.3262L1.78711 43.1035C1.55681 42.8421 1.41381 42.5269 1.37695 42.1777L1.31836 41.6035C1.31426 41.5645 1.29868 41.516 1.24805 41.4512L1.05469 41.2051L0.861328 40.9531C0.569684 40.58 0.504038 40.1256 0.662109 39.6875L0.767578 39.3887L0.878906 39.084C0.884311 39.0688 0.884216 39.0591 0.884766 39.0547V39.0488L0.767578 38.7676L0.650391 38.4922C0.530364 38.2031 0.482281 37.8936 0.509766 37.5781L0.556641 37.0156C0.576734 36.7859 0.615233 36.5563 0.673828 36.3301L0.75 36.0488L0.820312 35.7676C0.842998 35.6793 0.844975 35.5979 0.832031 35.5156L0.791016 35.2344L0.744141 34.9531C0.702789 34.6953 0.699397 34.4327 0.732422 34.1738L0.802734 33.6113C0.822615 33.4552 0.831944 33.2979 0.832031 33.1426V32.5801C0.832171 32.3808 0.839392 32.1816 0.849609 31.9824L0.861328 31.7012L0.878906 31.4199C0.889542 31.213 0.910336 31.0053 0.9375 30.7988L1.00781 30.2363V30.2305C1.00593 30.2233 1.00017 30.2005 0.978516 30.166L0.626953 29.6035C0.407371 29.2531 0.322805 28.8347 0.462891 28.4082L0.650391 27.8457C0.700893 27.6915 0.740559 27.5393 0.767578 27.3887L0.814453 27.1074L0.867188 26.8262C0.889288 26.7028 0.895217 26.578 0.884766 26.457L0.861328 26.1758L0.832031 25.8945C0.821627 25.7766 0.796293 25.6541 0.75 25.5254L0.550781 24.9629C0.457927 24.7053 0.399686 24.4379 0.392578 24.166L0.380859 23.6035C0.376314 23.4227 0.37199 23.2394 0.363281 23.0586L0.345703 22.7773L0.333984 22.4961C0.322018 22.2483 0.339924 21.9968 0.386719 21.752L0.492188 21.1895C0.51595 21.0645 0.523395 20.9423 0.515625 20.8203L0.480469 20.2578C0.465399 20.0259 0.471254 19.7919 0.498047 19.5605L0.533203 19.2793L0.5625 18.998C0.595171 18.7178 0.683509 18.4452 0.808594 18.1895L0.943359 17.9082L1.03125 17.7383L0.884766 17.5449L0.685547 17.2637C0.552471 17.0754 0.450704 16.8406 0.445312 16.5664C0.440381 16.2904 0.531624 16.0461 0.662109 15.8516L0.849609 15.5703L0.978516 15.3828L0.890625 15.2246L0.732422 14.9434C0.577376 14.6585 0.490201 14.3433 0.492188 14.0117V13.7246L0.498047 13.4375C0.499368 13.2549 0.496776 13.0679 0.492188 12.8809L0.486328 12.5879L0.474609 12.3008C0.465264 11.9198 0.596072 11.5724 0.820312 11.2812L1.20703 10.7773L1.21875 10.7598C1.21882 10.759 1.21921 10.7542 1.21875 10.748L1.18945 10.4375L1.16602 10.1328C1.12163 9.63393 1.34808 9.21909 1.72852 8.95508L2.00391 8.76172L2.2793 8.57422L2.28516 8.5625L2.33203 8.30469L2.38477 8.01172C2.43362 7.71217 2.543 7.42939 2.71875 7.17969L2.87695 6.95117L3.04102 6.72266C3.11082 6.62348 3.17184 6.50833 3.22266 6.37695L3.33398 6.0957L3.43945 5.81445C3.57377 5.46544 3.81514 5.18799 4.14258 5.00586L4.66992 4.71289C4.75864 4.66332 4.83066 4.60187 4.88672 4.53125L5.0625 4.30859L5.24414 4.08008C5.39512 3.88989 5.56237 3.7148 5.74805 3.55859L5.9707 3.37109L6.19336 3.18945C6.41714 3.00129 6.67055 2.86143 6.94922 2.77344L7.23047 2.68555L7.50586 2.59766C7.5925 2.57035 7.67615 2.52244 7.75195 2.45703L7.97461 2.26367L8.20312 2.07031L8.46094 1.88867C8.64031 1.79239 8.83519 1.74254 9.03516 1.73047L9.33984 1.74219L9.65625 1.7832L9.97266 1.83008C10.1457 1.85394 10.3026 1.86388 10.4414 1.85938L11.0039 1.83594C11.038 1.83442 11.0848 1.8267 11.1504 1.7832L11.666 1.44336L11.9473 1.29688C12.2389 1.18624 12.555 1.18114 12.8672 1.29102L13.1543 1.39062V1.39648C13.1667 1.38966 13.1769 1.37911 13.1895 1.37305C13.3577 1.29218 13.5138 1.28976 13.582 1.29102C13.7318 1.2939 13.8806 1.33107 13.9863 1.36133L14.2676 1.4375L14.5488 1.51953C14.6261 1.54164 14.6961 1.54398 14.7656 1.53125L15.3281 1.42578C15.4982 1.39389 15.6729 1.35902 15.8438 1.31445L16.125 1.23828L16.4062 1.16797C16.6476 1.1051 16.8916 1.06763 17.1387 1.0625L17.7012 1.05078C18.0051 1.04473 18.303 1.10696 18.5801 1.22656L19.1426 1.47266C19.1511 1.47622 19.1577 1.47793 19.1602 1.47852L19.166 1.47266L19.7285 1.28516C19.9781 1.20141 20.2357 1.15627 20.4961 1.14453L20.7773 1.12695L21.0586 1.11523C21.263 1.10618 21.4694 1.10435 21.6738 1.10938L21.9551 1.11523L22.2363 1.12695C22.3717 1.13029 22.5087 1.11691 22.6465 1.0918L22.9277 1.03906L23.209 0.992188C23.5074 0.937786 23.8072 0.949381 24.0996 1.02734L24.3809 1.10352L24.6621 1.17383C24.7975 1.20993 24.9307 1.23341 25.0605 1.23828L25.3418 1.25L25.623 1.25586C25.8403 1.26405 26.0573 1.28577 26.2734 1.32031L26.8359 1.41406C26.9475 1.43193 27.0588 1.43012 27.1699 1.41406L27.7324 1.33203C27.8713 1.31167 28.0151 1.27657 28.1602 1.22656L28.4414 1.13281L28.7227 1.0332C28.9985 0.937993 29.2863 0.897406 29.5781 0.916016L30.1406 0.951172C30.318 0.962581 30.4965 0.970316 30.6738 0.974609L31.2363 0.986328C31.4393 0.991235 31.6429 1.00403 31.8457 1.02148L32.4082 1.06836C32.5541 1.08091 32.7018 1.0861 32.8477 1.07422L33.4102 1.02734C33.7609 0.999226 34.0916 1.08268 34.3887 1.24414L34.9512 1.54883C34.9645 1.55606 34.9743 1.5642 34.9805 1.56641H34.9863L35.5488 1.4375C35.6943 1.40379 35.8426 1.35322 35.9941 1.29102L36.2754 1.17969L36.5566 1.0625C36.9358 0.906651 37.3389 0.915227 37.7109 1.08008L38.2734 1.32617C38.3215 1.34741 38.3438 1.3479 38.3613 1.34375L38.6426 1.27344L38.9238 1.20898C39.2143 1.14075 39.5098 1.133 39.8027 1.19141L40.084 1.25L40.3652 1.30273C40.3862 1.30692 40.4147 1.31066 40.4707 1.28516L41.0332 1.02734L41.3848 0.927734C41.6176 0.894202 41.8447 0.927331 42.0527 1.01562L42.3516 1.18555L42.6328 1.39648L42.9023 1.60156L43.125 1.54297L43.4062 1.4668C43.6429 1.40555 43.8854 1.37161 44.127 1.36133L44.6895 1.33789C44.8652 1.33037 45.041 1.3178 45.2168 1.30273L45.7793 1.25586C45.9607 1.24031 46.1428 1.22296 46.3242 1.20312L46.6055 1.16797L46.8867 1.13867C47.097 1.11567 47.3088 1.10116 47.5195 1.09766H47.8008L48.082 1.0918C48.4052 1.08655 48.7134 1.16557 48.9961 1.30859L49.2773 1.44922L49.4238 1.52539L49.8926 1.17383C50.0679 1.04257 50.2874 0.932507 50.543 0.904297C50.6727 0.890027 50.7989 0.897127 50.918 0.921875L51.2578 1.04492L51.5391 1.19727L51.8203 1.34375C51.9441 1.40901 52.0557 1.44481 52.1543 1.46094L52.4355 1.50781L52.6992 1.55469C52.7057 1.5523 52.7223 1.5469 52.7461 1.53125L53.3086 1.15625C53.5882 0.972796 53.9077 0.850259 54.2578 0.839844L54.8203 0.828125C55.2211 0.816669 55.5754 0.970375 55.8633 1.19141L56.1445 1.40234L56.3672 1.57812L56.5371 1.50781L56.8184 1.39648C57.1619 1.26013 57.5282 1.24166 57.8848 1.35547L58.166 1.44922L58.4297 1.53125L58.7109 1.37891L58.9922 1.23242L59.3027 1.10938C59.5135 1.05505 59.7298 1.05685 59.9414 1.10938L60.252 1.22656L60.8145 1.51953C60.9153 1.57162 60.9963 1.58694 61.0605 1.58984L61.623 1.61328C61.6266 1.61343 61.6371 1.6122 61.6523 1.60742C61.669 1.60203 61.6994 1.59347 61.7402 1.56641L62.0215 1.37305L62.3027 1.18555C62.5778 1.00242 62.8913 0.878188 63.2344 0.857422L63.5156 0.845703L63.7969 0.828125C64.1327 0.808307 64.4547 0.884721 64.7461 1.0332L65.0273 1.17969L65.3086 1.32031L65.3145 1.32617V1.33203L65.5957 1.24414L65.877 1.15625C66.187 1.06188 66.5088 1.04795 66.8262 1.12109L67.3887 1.25C67.4856 1.27222 67.5772 1.27502 67.6699 1.26172L68.2324 1.17969C68.4949 1.14126 68.7614 1.14381 69.0234 1.18555L69.5859 1.2793C69.6782 1.29405 69.7714 1.28911 69.8672 1.26758L70.4297 1.13867C70.7652 1.06341 71.1022 1.09597 71.4199 1.21484L71.7012 1.32031L71.9824 1.41992C72.1153 1.46962 72.2411 1.50576 72.3633 1.51953L72.9258 1.57812C73.0849 1.59593 73.2477 1.60799 73.4062 1.60742L73.6875 1.60156H73.9688C74.0659 1.60091 74.1677 1.58238 74.2793 1.54297L74.5605 1.44922L74.8418 1.34961C75.0474 1.27685 75.2559 1.21142 75.4629 1.15625L76.0254 1.00391C76.3308 0.922538 76.6431 0.919725 76.9512 0.992188L77.2324 1.05664L77.5137 1.12695C77.6148 1.15087 77.7165 1.15111 77.8125 1.13867L78.375 1.06836C78.7465 1.02081 79.0986 1.10903 79.4062 1.28516L79.6875 1.44336L79.9688 1.60742C79.9766 1.61182 79.9817 1.6171 79.9863 1.61914L80.2617 1.55469L80.543 1.48438C80.7063 1.44434 80.8701 1.39449 81.0352 1.33789L81.3164 1.24414L81.5977 1.14453C81.9341 1.02901 82.2878 1.02107 82.6289 1.12695L83.1914 1.30273C83.2825 1.33102 83.3646 1.33554 83.4434 1.32617L83.7246 1.29688L84.0059 1.26172C84.1866 1.24022 84.37 1.21775 84.5508 1.19141L85.1133 1.10938C85.4301 1.06364 85.742 1.09969 86.0391 1.20898L86.3203 1.31445L86.5723 1.4082L86.8418 1.26758L87.123 1.12109C87.4449 0.954683 87.806 0.888544 88.1777 0.962891L88.459 1.02148L88.7402 1.07422C88.8155 1.08935 88.8894 1.08858 88.9688 1.06836L89.5312 0.927734C89.8341 0.850114 90.1462 0.8459 90.4512 0.916016L91.0137 1.04492C91.1117 1.06721 91.2069 1.07014 91.3008 1.05664L91.8633 0.974609C92.269 0.916649 92.6432 1.03521 92.9531 1.24414L93.2344 1.43164L93.4805 1.60156L93.6855 1.52539L93.9668 1.42578C94.1555 1.35829 94.3464 1.29261 94.5352 1.22656L95.0977 1.02734C95.4299 0.911588 95.7775 0.903799 96.1172 1.00391L96.6797 1.16797C96.8785 1.22677 97.079 1.29226 97.2773 1.36133L97.8398 1.56055C97.8751 1.57279 97.8972 1.56998 97.9277 1.56055L98.209 1.47266L98.4902 1.37891C98.7991 1.28097 99.1208 1.26887 99.4395 1.33789L100.002 1.45508C100.064 1.46861 100.126 1.46965 100.195 1.44922L100.758 1.28516C100.943 1.23057 101.129 1.17139 101.314 1.11523L101.596 1.0332L101.877 0.945312C102.198 0.848421 102.531 0.845391 102.855 0.933594L103.418 1.08594C103.479 1.10227 103.534 1.10147 103.594 1.08594L103.875 1.01562L104.156 0.939453C104.396 0.877493 104.643 0.846514 104.889 0.839844L105.17 0.828125L105.451 0.822266ZM65.3262 1.33203C65.3239 1.33124 65.32 1.32878 65.3145 1.32617L65.3262 1.33203ZM2.33203 33.1426C2.33191 33.3619 2.3189 33.5861 2.29102 33.8047L2.2207 34.3672C2.20622 34.4824 2.20795 34.5966 2.22656 34.7129L2.26758 34.9941L2.31445 35.2754C2.3611 35.5663 2.34684 35.8578 2.27344 36.1426L2.19727 36.4238L2.12695 36.7051C2.08877 36.8525 2.06347 37.0006 2.05078 37.1445L2.00391 37.707C1.99874 37.7663 2.00527 37.8366 2.03906 37.918L2.15625 38.1934L2.26758 38.4746C2.42058 38.844 2.42203 39.23 2.29102 39.5938L2.17969 39.8984L2.09766 40.1094L2.23828 40.2793L2.43164 40.5254C2.6393 40.791 2.7704 41.1017 2.80664 41.4453L2.8418 41.7324L2.87109 42.0195C2.87462 42.053 2.88305 42.0803 2.91211 42.1133L3.10547 42.3301L3.29883 42.5527C3.4985 42.7794 3.64622 43.0416 3.73242 43.332L3.89648 43.8828C3.92646 43.9828 3.9725 44.0727 4.03125 44.1523L4.19531 44.375L4.36523 44.6035C4.47262 44.749 4.58174 44.8948 4.69336 45.0371L4.86914 45.2598L5.03906 45.4824C5.07441 45.5274 5.12303 45.5672 5.19727 45.5996L5.47266 45.7168L5.74219 45.834C6.0332 45.961 6.28455 46.1538 6.48047 46.4082L6.65625 46.6309L6.82617 46.8594C6.94769 47.0176 7.07336 47.1844 7.19531 47.3574L7.37109 47.6035L7.54102 47.8496C7.58426 47.911 7.62923 47.9451 7.67578 47.9668L7.93945 48.0898L8.20312 48.207C8.31112 48.2563 8.42569 48.2891 8.54883 48.3066L8.8418 48.3477L9.12891 48.3887C9.36598 48.4222 9.59785 48.4778 9.82031 48.5527L10.084 48.6406L10.3535 48.7285C10.5503 48.7949 10.7452 48.8725 10.9395 48.957L11.2031 49.0742L11.4668 49.1855C11.6122 49.2488 11.7631 49.3054 11.918 49.3496L12.1992 49.4258L12.4746 49.5078C12.5696 49.535 12.6652 49.5411 12.7617 49.5312L13.3359 49.4727C13.5847 49.4472 13.8336 49.4517 14.0801 49.4844L14.3613 49.5254L14.6426 49.5605C14.745 49.5742 14.8477 49.5704 14.9531 49.5488L15.5156 49.4316C15.7198 49.3894 15.926 49.3533 16.1309 49.3262L16.6934 49.2559C16.9563 49.2211 17.2228 49.2224 17.4844 49.2676L17.7656 49.3203L18.0469 49.3672C18.0757 49.3722 18.113 49.3718 18.1758 49.3438L18.457 49.2207L18.7383 49.0918C19.0221 48.9649 19.3258 48.9012 19.6406 48.916L19.9219 48.9277L20.2031 48.9453C20.382 48.954 20.5633 48.96 20.7422 48.9629H21.0234L21.3047 48.9688C21.4511 48.9711 21.6023 48.9612 21.75 48.9395L22.3125 48.8574C22.5491 48.8227 22.7893 48.8145 23.0273 48.8281L23.3086 48.8398L23.5898 48.8574C23.8157 48.8705 24.0402 48.9028 24.2637 48.9512L24.5449 49.0098L24.8262 49.0742C25.0015 49.1122 25.1785 49.1447 25.3535 49.1738L25.916 49.2676C25.9654 49.2758 26.0212 49.2709 26.0918 49.2441L26.6543 49.0332C26.9101 48.9362 27.1742 48.8759 27.4453 48.8633L28.0078 48.8398C28.3647 48.8235 28.6996 48.9233 28.9922 49.0977L29.2734 49.2676L29.5195 49.4082L29.7363 49.3262L30.0176 49.2148C30.3688 49.0752 30.7414 49.0609 31.1016 49.1855L31.6641 49.3848C31.699 49.3969 31.721 49.3946 31.752 49.3848L32.0332 49.2969L32.3145 49.2031C32.7152 49.0745 33.118 49.1347 33.4688 49.3262L33.75 49.4785L34.0195 49.625L34.2773 49.543L34.5586 49.4492C34.8035 49.3676 35.054 49.3187 35.3086 49.3027L35.8711 49.2676C36.0629 49.2557 36.2593 49.2468 36.4512 49.2383L36.7324 49.2207L37.0137 49.209C37.2305 49.1995 37.4474 49.2038 37.6641 49.2207L38.2266 49.2676C38.3595 49.278 38.4968 49.2746 38.6309 49.2559L39.1934 49.1738C39.5149 49.1294 39.8325 49.1748 40.1309 49.291L40.4121 49.3965L40.6934 49.5078C40.7132 49.5154 40.7251 49.5194 40.7285 49.5195C40.7324 49.5195 40.7397 49.5174 40.752 49.5137L41.0332 49.4199L41.3145 49.332C41.549 49.257 41.7882 49.2046 42.0293 49.1797L42.5918 49.1211C42.7512 49.1047 42.9115 49.0793 43.0723 49.0449L43.6348 48.9277C43.9881 48.8521 44.3391 48.8963 44.6602 49.0391L44.9414 49.168L45.2227 49.291C45.3004 49.3257 45.3588 49.3304 45.4043 49.3262L45.6855 49.2969L45.9668 49.2734C46.2157 49.2484 46.4689 49.249 46.7168 49.2852L47.2793 49.3672C47.4623 49.3939 47.6471 49.4197 47.8301 49.4434L48.1113 49.4844L48.3926 49.5195C48.5156 49.5352 48.6387 49.5354 48.7617 49.5195L49.043 49.4844L49.3242 49.4434C49.6033 49.4075 49.8827 49.4243 50.1562 49.4902L50.7188 49.6309C50.8006 49.6507 50.88 49.6525 50.959 49.6367L51.5215 49.5195C51.6404 49.4956 51.7677 49.4562 51.9023 49.3906L52.1836 49.25L52.4648 49.1152C52.7303 48.9857 53.0136 48.9061 53.3086 48.8867L53.5898 48.8633L53.8711 48.8457C54.0735 48.8324 54.278 48.829 54.4805 48.8281L54.7617 48.8223H55.043C55.3905 48.8211 55.7131 48.9302 55.998 49.1035L56.5605 49.4434C56.6593 49.5033 56.7271 49.517 56.7715 49.5195L57.334 49.5547C57.5332 49.5654 57.7326 49.581 57.9316 49.6016L58.2129 49.6309L58.4707 49.6543C58.478 49.6513 58.4976 49.643 58.5293 49.6191L59.0918 49.1973C59.2627 49.0686 59.4735 48.963 59.7188 48.9277C59.8452 48.9096 59.969 48.9142 60.0879 48.9336L60.4219 49.0391L60.9844 49.2969C61.0711 49.3373 61.1374 49.3465 61.1895 49.3438L61.4707 49.332L61.752 49.3145C61.9205 49.3051 62.0928 49.2898 62.2617 49.2676L62.543 49.2324L62.8242 49.1914C63.0232 49.1653 63.2227 49.1482 63.4219 49.1328L63.9844 49.0859C64.3071 49.0611 64.6198 49.1263 64.9102 49.2559L65.1914 49.3789L65.4727 49.5078C65.5382 49.5371 65.5816 49.5363 65.6133 49.5312L65.8945 49.4844L66.1758 49.4434L67.0195 49.3027L67.3008 49.2617C67.5256 49.2258 67.7542 49.2044 67.9805 49.2031H68.543C68.7718 49.202 69.0013 49.2189 69.2285 49.2559L69.791 49.3496C69.9495 49.3754 70.1082 49.3895 70.2656 49.3965L70.8281 49.4199C70.9012 49.4231 70.984 49.4114 71.0801 49.373L71.6426 49.1504C72.0016 49.0073 72.3808 49.0022 72.7441 49.1387L73.3066 49.3496C73.4481 49.4029 73.5895 49.4405 73.7227 49.4609L74.0039 49.502L74.2852 49.5488C74.438 49.5721 74.5905 49.5816 74.7422 49.584L75.3047 49.5957C75.4333 49.5977 75.5647 49.5834 75.6973 49.5547L75.9785 49.4902L76.2598 49.4316C76.4027 49.4006 76.5499 49.3572 76.6992 49.2969L76.9805 49.1797L77.2617 49.0684C77.6654 48.9049 78.0852 48.9361 78.457 49.1328L78.7383 49.2852L79.0195 49.4316C79.1287 49.4896 79.2203 49.513 79.2949 49.5195L79.5762 49.543L79.8574 49.5723C79.903 49.5762 79.9638 49.5686 80.0449 49.5312L80.6074 49.2734C80.9642 49.1092 81.3535 49.0815 81.7324 49.2148L82.2949 49.4141C82.371 49.4405 82.4349 49.4407 82.4941 49.4316L83.0566 49.3496C83.2912 49.3137 83.5295 49.2989 83.7656 49.3086L84.3281 49.332C84.3859 49.334 84.4555 49.3202 84.5449 49.2793L84.8262 49.1504L85.1074 49.0273C85.4222 48.8834 85.7647 48.8285 86.1152 48.8926L86.6777 48.998C86.8802 49.0354 87.0852 49.0768 87.2871 49.127L87.8496 49.2676C87.8936 49.2785 87.9356 49.2803 87.9902 49.2617L88.2715 49.1621L88.5527 49.0684C88.854 48.9657 89.1681 48.937 89.4844 48.9922L89.7656 49.0391L90.0469 49.0918C90.1821 49.1156 90.3183 49.1263 90.4512 49.1211L91.0137 49.0977C91.1871 49.0908 91.3616 49.0789 91.5352 49.0625L91.8164 49.0332L92.0977 49.0098C92.3973 48.9814 92.6936 49.0173 92.9766 49.1152L93.5391 49.3145C93.5662 49.3239 93.5816 49.3242 93.6094 49.3145L94.1719 49.1152C94.5327 48.9887 94.9091 48.9985 95.2617 49.1387L95.8242 49.3613C95.9182 49.3984 95.9989 49.4119 96.0703 49.4082L96.3516 49.3906L96.6328 49.3789C96.7085 49.3747 96.797 49.3537 96.9023 49.3027L97.1836 49.168L97.4648 49.0273C97.8587 48.836 98.2893 48.8365 98.6836 49.0273L98.9648 49.1621L99.2461 49.3027C99.3082 49.3326 99.343 49.3295 99.3633 49.3262L99.9258 49.2324C100.159 49.1945 100.394 49.1789 100.629 49.1855L100.91 49.1914L101.191 49.2031C101.377 49.2084 101.563 49.2102 101.748 49.2148L102.029 49.2266L102.311 49.2324C102.425 49.2353 102.546 49.2232 102.668 49.1914L102.949 49.1152L103.23 49.0449C103.639 48.9382 104.031 49.0189 104.367 49.2207L104.93 49.5605C105.019 49.6146 105.077 49.6193 105.105 49.6191H105.668C105.749 49.6185 105.84 49.6029 105.943 49.5605L106.506 49.3262C106.789 49.2089 107.093 49.1499 107.402 49.168L107.965 49.2031C108.138 49.2132 108.313 49.2201 108.486 49.2207H109.049C109.252 49.2215 109.455 49.2299 109.658 49.2441L109.939 49.2617L110.221 49.2852C110.418 49.299 110.616 49.3163 110.812 49.3379L111.375 49.3965C111.448 49.4045 111.527 49.3968 111.615 49.3672L112.178 49.1797C112.401 49.1045 112.629 49.0479 112.857 49.0098L113.42 48.916C113.708 48.8678 113.998 48.8769 114.281 48.9453L114.562 49.0156L114.844 49.0801C115.076 49.1365 115.31 49.2156 115.535 49.3145L116.098 49.5605C116.186 49.5994 116.256 49.6108 116.314 49.6074L116.596 49.5898L116.877 49.5781C116.985 49.5717 117.101 49.5472 117.223 49.502L117.785 49.291C118.061 49.1887 118.351 49.1412 118.646 49.1562L118.928 49.168L119.209 49.1855C119.394 49.195 119.58 49.2009 119.766 49.209L120.047 49.2207L120.328 49.2383C120.543 49.2477 120.758 49.2635 120.973 49.2969L121.254 49.3438L121.535 49.3848C121.59 49.3933 121.649 49.3941 121.723 49.3672L122.285 49.1562C122.704 49.0026 123.126 49.0667 123.486 49.2793L123.768 49.4492L123.996 49.5781L124.207 49.4902L124.488 49.3672C124.789 49.2342 125.116 49.1796 125.449 49.2207L125.73 49.25L126.012 49.2852C126.076 49.293 126.146 49.2916 126.229 49.2617L126.51 49.1562L126.791 49.0566L127.113 48.9805C127.326 48.9586 127.534 48.989 127.729 49.0625L128.01 49.209L128.291 49.3848L128.572 49.5664C128.657 49.62 128.705 49.6249 128.725 49.625L129.006 49.6191H129.287C129.468 49.6178 129.651 49.6128 129.832 49.6074L130.113 49.6016L130.395 49.5898C130.585 49.5842 130.778 49.5808 130.969 49.5781H131.25L131.531 49.5723C131.643 49.5707 131.761 49.5518 131.883 49.5137L132.445 49.3379C132.78 49.2331 133.125 49.2323 133.459 49.3379L134.021 49.5137C134.058 49.5252 134.083 49.5264 134.121 49.5137L134.402 49.4199L134.684 49.332C134.958 49.2415 135.245 49.202 135.533 49.2207L136.096 49.2559C136.277 49.2676 136.459 49.2763 136.641 49.2852L136.922 49.3027L137.203 49.3145C137.282 49.3183 137.369 49.3041 137.467 49.2676L138.029 49.0566C138.37 48.929 138.734 48.9176 139.084 49.0273L139.646 49.2031C139.677 49.2125 139.699 49.2152 139.734 49.2031L140.297 49.0039C140.619 48.8918 140.94 48.9116 141.229 49.0215L141.51 49.1621L141.791 49.3379L142.072 49.5195C142.173 49.5831 142.248 49.6029 142.301 49.6074L142.875 49.6543C142.987 49.6637 143.099 49.6571 143.215 49.6309L143.502 49.5664L143.783 49.502C143.852 49.4864 143.928 49.4523 144.012 49.3848L144.264 49.1855L144.51 48.9863C144.767 48.779 145.067 48.6326 145.406 48.5879L145.682 48.5527L145.963 48.5176C146.114 48.4976 146.264 48.4629 146.414 48.4238L146.689 48.3535L146.959 48.2832C147.102 48.2457 147.244 48.1961 147.381 48.1367L147.645 48.0254L147.902 47.9141C148.037 47.8553 148.165 47.7828 148.289 47.7031L148.529 47.5508L148.764 47.3984C148.901 47.3101 149.034 47.2128 149.162 47.1113L149.607 46.7598C149.735 46.658 149.859 46.5507 149.977 46.4375L150.182 46.2441L150.381 46.0449C150.534 45.8981 150.699 45.7627 150.867 45.6289L151.09 45.4473L151.318 45.2656C151.397 45.203 151.462 45.1328 151.512 45.0488L151.805 44.5566C151.865 44.4558 151.909 44.3429 151.939 44.2227L152.08 43.6602C152.136 43.4378 152.211 43.221 152.297 43.0156L152.402 42.7578L152.508 42.5059C152.619 42.2404 152.787 42.0032 152.988 41.7969L153.199 41.5801L153.416 41.3574C153.468 41.3041 153.484 41.2611 153.492 41.2227L153.557 40.9414L153.615 40.666C153.665 40.4365 153.737 40.2073 153.826 39.9863L153.938 39.7109L154.049 39.4414C154.07 39.3889 154.076 39.3402 154.066 39.2832L154.014 38.9902L153.967 38.6973C153.941 38.5455 153.902 38.3941 153.85 38.2461L153.744 37.9648L153.645 37.6836C153.525 37.3482 153.518 36.9961 153.621 36.6523L153.785 36.0898C153.821 35.9714 153.839 35.8587 153.838 35.75V35.4688L153.832 35.1875C153.83 34.9844 153.833 34.7812 153.844 34.5781L153.879 34.0156C153.888 33.8541 153.887 33.6908 153.879 33.5293L153.861 33.248L153.85 32.9668C153.837 32.7095 153.862 32.4515 153.92 32.1992L154.049 31.6367C154.071 31.5385 154.074 31.4438 154.061 31.3496L153.979 30.7871C153.95 30.5871 153.926 30.3839 153.908 30.1836L153.861 29.6211C153.835 29.3285 153.87 29.0384 153.961 28.7598L154.049 28.4785L154.107 28.2969L153.914 28.0508L153.691 27.7695C153.458 27.4723 153.304 27.0946 153.346 26.668L153.375 26.3867L153.398 26.1055C153.416 25.9257 153.433 25.7461 153.445 25.5664L153.469 25.2852L153.486 25.0039C153.497 24.8483 153.495 24.6907 153.486 24.5352L153.475 24.2539L153.457 23.9727C153.444 23.744 153.45 23.5152 153.475 23.2871L153.533 22.7246C153.55 22.5661 153.563 22.408 153.562 22.25L153.557 21.9688V21.6875C153.556 21.5313 153.548 21.3698 153.527 21.2129L153.486 20.9316L153.451 20.6504C153.405 20.2916 153.483 19.9492 153.645 19.6426L153.791 19.3613L153.914 19.1211L153.814 18.8984L153.686 18.6172C153.538 18.2934 153.49 17.938 153.568 17.5801L153.697 17.0176C153.718 16.9201 153.718 16.8247 153.703 16.7305L153.621 16.168C153.591 15.9689 153.56 15.7696 153.539 15.5703L153.51 15.2891L153.486 15.0078C153.459 14.7408 153.471 14.4739 153.527 14.2109L153.645 13.6484C153.664 13.5557 153.666 13.4684 153.65 13.3848L153.604 13.1094L153.551 12.834C153.5 12.556 153.501 12.275 153.551 11.9961L153.604 11.6973L153.65 11.4336L153.48 11.2227L153.293 10.9824C153.06 10.6867 152.939 10.334 152.947 9.95703L152.953 9.65234L152.959 9.40039L152.766 9.23633L152.537 9.03711C152.327 8.85691 152.144 8.64588 152.004 8.41016L151.863 8.17578L151.723 7.93555C151.586 7.70554 151.487 7.45593 151.424 7.19141L151.354 6.88672L151.307 6.6875L151.096 6.61719L150.791 6.51172C150.487 6.40659 150.209 6.23282 149.988 5.98438L149.807 5.7793L149.619 5.57422C149.474 5.41097 149.337 5.2344 149.209 5.04688L149.045 4.80078L148.881 4.56055L148.594 4.51367L148.301 4.45508C147.929 4.38419 147.615 4.1907 147.375 3.9043L147.176 3.66992L146.994 3.45898H146.443C146.083 3.45547 145.748 3.33885 145.459 3.125L145.213 2.94336L144.973 2.76172L144.949 2.75H144.938L144.645 2.77344L144.352 2.79102C144.09 2.81066 143.828 2.79628 143.572 2.74414L143.291 2.68555L143.01 2.63281C142.856 2.6013 142.702 2.57967 142.547 2.56836L142.26 2.54492L141.979 2.52734C141.859 2.51871 141.737 2.52611 141.615 2.55078L141.334 2.60352L141.053 2.66211C140.856 2.70211 140.658 2.73654 140.461 2.76758L139.898 2.86133C139.622 2.9048 139.341 2.89374 139.066 2.83789L138.785 2.78516L138.504 2.72656C138.285 2.68193 138.069 2.61827 137.854 2.54492L137.291 2.35742C137.239 2.33971 137.199 2.34058 137.156 2.35156L136.594 2.49219C136.453 2.52868 136.309 2.58157 136.16 2.65039L135.879 2.78516L135.598 2.91406C135.188 3.10418 134.749 3.08269 134.361 2.87305L134.08 2.7207L133.875 2.60938L133.67 2.7207L133.389 2.87305C133.031 3.06688 132.625 3.11331 132.223 2.97266L131.941 2.87891L131.66 2.7793C131.573 2.74869 131.496 2.74226 131.426 2.75L130.863 2.80859C130.623 2.835 130.383 2.83909 130.143 2.81445L129.58 2.75586C129.495 2.74711 129.407 2.7562 129.311 2.78516L129.029 2.86719L128.748 2.95508C128.448 3.04525 128.137 3.06053 127.828 3.00195L127.266 2.89648C127.176 2.87963 127.087 2.87738 126.996 2.89648L126.715 2.96094L126.434 3.01953C126.019 3.10619 125.631 2.99698 125.309 2.78516L125.027 2.59766L124.822 2.45703L124.646 2.55078L124.365 2.69141C124.048 2.84984 123.697 2.91592 123.334 2.84961L122.771 2.74414C122.584 2.70992 122.396 2.67948 122.209 2.64453L121.646 2.53906C121.502 2.51216 121.355 2.49877 121.213 2.49805L120.932 2.49219H120.65C120.622 2.49238 120.567 2.49868 120.48 2.55078L119.918 2.89062C119.619 3.07038 119.278 3.17175 118.91 3.14258L118.348 3.0957C118.06 3.07267 117.782 2.99746 117.521 2.87305L116.959 2.60352L116.953 2.59766L116.684 2.69141L116.402 2.79102C116.104 2.89412 115.791 2.92308 115.477 2.87305L115.195 2.83203L114.914 2.78516C114.784 2.76451 114.655 2.75776 114.527 2.76758L113.965 2.81445C113.827 2.82508 113.685 2.85105 113.543 2.89062L112.98 3.04297C112.633 3.13926 112.281 3.11794 111.949 2.99023L111.668 2.88477L111.387 2.77344C111.232 2.71405 111.08 2.667 110.93 2.63281L110.367 2.50391C110.295 2.48746 110.224 2.49154 110.15 2.50977L109.588 2.65039C109.391 2.69915 109.193 2.74415 108.996 2.78516L108.434 2.90234C108.201 2.95076 107.966 2.97552 107.73 2.97852L107.449 2.98438H107.168C106.82 2.98852 106.494 2.88636 106.207 2.71484L105.645 2.375C105.56 2.32476 105.509 2.32165 105.486 2.32227L105.205 2.32812L104.924 2.33984C104.796 2.34354 104.665 2.35815 104.531 2.39258L104.25 2.46875L103.969 2.53906C103.655 2.62016 103.332 2.61829 103.02 2.5332L102.457 2.38086C102.407 2.36768 102.364 2.36482 102.311 2.38086L102.029 2.46875L101.748 2.55078C101.559 2.60807 101.369 2.66501 101.18 2.7207L100.898 2.80273L100.617 2.89062C100.312 2.98003 99.9973 2.99311 99.6855 2.92578L99.4043 2.86133L99.123 2.80273C99.067 2.79059 99.013 2.79375 98.9473 2.81445L98.3848 2.99023C98.0413 3.09913 97.6865 3.0907 97.3477 2.97266L97.0664 2.87891L96.7852 2.7793C96.6094 2.71806 96.4331 2.66125 96.2578 2.60938L95.9766 2.52734L95.6953 2.43945C95.6612 2.42938 95.6314 2.43077 95.5898 2.44531L95.0273 2.64453C94.8422 2.70934 94.6559 2.77167 94.4707 2.83789L94.1895 2.94336L93.9082 3.04297C93.4637 3.20154 93.0261 3.10601 92.6719 2.86719L92.3906 2.67969L92.1094 2.48633C92.0839 2.46944 92.0691 2.4594 92.0625 2.45703H92.0566L91.793 2.49805L91.5117 2.53906C91.2316 2.57922 90.9497 2.56732 90.6738 2.50391L90.1113 2.375C90.0423 2.35942 89.9775 2.3627 89.9062 2.38086L89.3438 2.52148C89.0486 2.59714 88.7465 2.60493 88.4473 2.54492L88.166 2.49219L87.8848 2.43359C87.8777 2.43217 87.8723 2.4328 87.8672 2.43359C87.8611 2.43456 87.8448 2.44134 87.8145 2.45703L87.5332 2.59766L87.252 2.74414C86.8898 2.93138 86.4826 2.97181 86.0859 2.82617L85.5234 2.61523C85.4467 2.58694 85.381 2.58352 85.3242 2.5918L84.7617 2.67383C84.5686 2.70195 84.3748 2.72702 84.1816 2.75L83.6191 2.82031C83.3234 2.85535 83.0296 2.82626 82.7461 2.73828L82.1836 2.5625C82.1506 2.55224 82.1268 2.5502 82.0898 2.5625L81.8086 2.66211L81.5273 2.75586C81.3189 2.8274 81.1047 2.89196 80.8945 2.94336L80.6133 3.00781L80.332 3.07812C79.9357 3.17445 79.5509 3.09837 79.2188 2.9082L78.9375 2.75L78.6562 2.58594C78.5912 2.54912 78.565 2.55631 78.5625 2.55664L78 2.62695C77.7228 2.66257 77.4459 2.64993 77.1738 2.58594L76.8926 2.51562L76.6113 2.45117C76.5452 2.43553 76.4809 2.43871 76.4121 2.45703L76.1309 2.52734L75.8496 2.60352C75.6823 2.64809 75.5144 2.70204 75.3457 2.76172L74.7832 2.96094C74.5211 3.05371 74.2456 3.10057 73.9688 3.10156H73.6875L73.4062 3.10742C73.1912 3.10809 72.9762 3.09622 72.7617 3.07227L72.4805 3.03711L72.1992 3.00781C71.9468 2.97955 71.6969 2.91662 71.4551 2.82617L70.8926 2.61523C70.8364 2.59448 70.7966 2.5948 70.7578 2.60352L70.1953 2.73242C69.9166 2.79501 69.6337 2.80086 69.3516 2.75586L69.0703 2.71484L68.7891 2.66797C68.6774 2.65011 68.5663 2.65192 68.4551 2.66797L67.8926 2.75C67.6114 2.79117 67.3258 2.77867 67.0488 2.71484L66.4863 2.58594C66.43 2.5731 66.3743 2.57228 66.3105 2.5918L66.0293 2.67969L65.748 2.76172C65.3608 2.87967 64.975 2.8327 64.6289 2.65625L64.3477 2.51562L64.0664 2.36914C63.9851 2.32764 63.9292 2.32043 63.8906 2.32227L63.3281 2.35742C63.2979 2.35921 63.233 2.3683 63.1348 2.43359L62.5723 2.80859C62.2804 3.00326 61.9396 3.12837 61.5645 3.11328L61.002 3.08984C60.6918 3.07704 60.3956 2.99096 60.123 2.84961L59.8418 2.70312L59.625 2.5918L59.4141 2.70898L59.1328 2.85547C58.7824 3.04149 58.3863 3.0934 57.9902 2.9668L57.709 2.87891L57.4277 2.78516C57.4137 2.78073 57.4064 2.78507 57.4043 2.78516C57.4011 2.78533 57.3885 2.78331 57.3691 2.79102L56.8066 3.01367C56.328 3.20403 55.8663 3.08076 55.5117 2.80859L55.2305 2.5918L54.9492 2.38086C54.9071 2.34855 54.8799 2.33311 54.8672 2.32812L54.3047 2.33984C54.2816 2.3405 54.2231 2.34815 54.1289 2.41016L53.8477 2.59766L53.5664 2.7793C53.252 2.98607 52.8767 3.10355 52.4707 3.03711L51.9082 2.94336C51.6326 2.89806 51.3676 2.80604 51.1172 2.67383L50.6953 2.44531L50.5137 2.58594L50.2324 2.79688C50.0586 2.92696 49.8396 3.02997 49.5879 3.06055C49.3314 3.09116 49.0889 3.03788 48.8789 2.93164L48.5977 2.79102L48.3164 2.64453C48.2254 2.59881 48.1567 2.59094 48.1055 2.5918L47.8242 2.59766H47.543C47.379 2.60041 47.2152 2.61485 47.0508 2.63281L46.4883 2.69141C46.2951 2.71253 46.1015 2.73343 45.9082 2.75L45.3457 2.79688C45.1475 2.81386 44.9463 2.82359 44.748 2.83203L44.4668 2.84961L44.1855 2.86133C44.0533 2.86715 43.9183 2.8844 43.7812 2.91992L43.5 2.99609L43.2188 3.06641C42.7683 3.18291 42.3519 3.05047 42.0234 2.80859L41.7422 2.60352L41.5254 2.44531L41.373 2.52148L41.0918 2.65039C40.7728 2.79571 40.4263 2.84416 40.0723 2.77344L39.791 2.7207L39.5098 2.66211C39.4286 2.64591 39.3472 2.64825 39.2637 2.66797L38.9824 2.73242L38.7012 2.80273C38.3446 2.88629 37.9901 2.84174 37.6641 2.69727L37.3828 2.57422L37.1133 2.45703L36.8496 2.5625L36.5684 2.67969C36.3456 2.77126 36.1175 2.84343 35.8887 2.89648L35.3262 3.02539C34.9401 3.11481 34.566 3.04645 34.2363 2.86719L33.6738 2.5625C33.5967 2.52054 33.5504 2.5196 33.5273 2.52148L32.9648 2.56836C32.7365 2.58683 32.5076 2.58215 32.2793 2.5625L31.7168 2.51562C31.5448 2.50083 31.373 2.49049 31.2012 2.48633L30.6387 2.47461C30.4415 2.46984 30.244 2.45798 30.0469 2.44531L29.4844 2.41016C29.402 2.40485 29.3131 2.41743 29.2148 2.45117L28.9336 2.55078L28.6523 2.64453C28.4236 2.72347 28.1899 2.77983 27.9551 2.81445L27.3926 2.89648C27.1301 2.93497 26.8636 2.93827 26.6016 2.89648L26.0391 2.80273C25.8812 2.77745 25.7213 2.76174 25.5645 2.75586L25.2832 2.74414L25.002 2.73828C24.7572 2.72902 24.5146 2.69072 24.2754 2.62695L23.7129 2.47461C23.6308 2.45278 23.5547 2.44909 23.4785 2.46289L22.916 2.56836C22.6792 2.61153 22.4404 2.63279 22.2012 2.62695L21.9199 2.61523L21.6387 2.60938C21.4691 2.60519 21.2985 2.60776 21.1289 2.61523L20.5664 2.63867C20.4529 2.6437 20.3332 2.66746 20.209 2.70898L19.6465 2.89648C19.2775 3.02026 18.8961 3.00116 18.5449 2.84961L17.9824 2.60352C17.8866 2.56247 17.8062 2.54977 17.7363 2.55078L17.1738 2.5625C17.0471 2.56502 16.9137 2.58069 16.7812 2.61523L16.5 2.69141L16.2188 2.76172C16.0157 2.81464 15.8132 2.86408 15.6094 2.90234L15.0469 3.00781C14.7424 3.06489 14.4354 3.04577 14.1387 2.96094L13.8574 2.88477L13.8516 2.87891C13.8134 2.90223 13.7811 2.92889 13.7461 2.94336C13.5671 3.01648 13.3999 3.00762 13.3359 3.00195C13.189 2.98854 13.0422 2.94525 12.9375 2.9082L12.6562 2.80273L12.4336 2.72656L12.2344 2.86133L11.9766 3.03125C11.7012 3.2139 11.3903 3.32475 11.0508 3.33594L10.7695 3.34766L10.4883 3.35352C10.2542 3.36109 10.0138 3.34648 9.76758 3.3125L9.45117 3.27148L9.15234 3.22461L8.95898 3.40039L8.73047 3.59375C8.50388 3.78928 8.24276 3.93727 7.95703 4.02734L7.68164 4.11523L7.40039 4.20312C7.30753 4.23248 7.23076 4.27859 7.16016 4.33789L6.9375 4.51953L6.71484 4.70703C6.6059 4.79863 6.50487 4.8998 6.41602 5.01172L6.24023 5.24023L6.05859 5.46875C5.87618 5.69807 5.65243 5.88323 5.39648 6.02539L4.86914 6.31836C4.85649 6.3257 4.85198 6.32959 4.85156 6.33008C4.85056 6.33124 4.84604 6.3374 4.83984 6.35352L4.73438 6.63477L4.62305 6.91016C4.53062 7.15039 4.41128 7.37704 4.26562 7.58398L4.10742 7.8125L3.94336 8.04688C3.90421 8.10294 3.87514 8.16773 3.86133 8.25195L3.81445 8.54492L3.76758 8.83203C3.69895 9.25498 3.46016 9.58562 3.13477 9.81055L2.85938 9.99805L2.66602 10.127L2.68359 10.3086L2.71289 10.6133C2.74827 11.0109 2.63059 11.38 2.39062 11.6914L2.20312 11.9434L2.00977 12.1953C1.97921 12.2349 1.97428 12.251 1.97461 12.2598L1.98633 12.5527L1.99219 12.8457C1.99716 13.0483 1.99949 13.2504 1.99805 13.4492L1.99219 13.7363V14.0176C1.99183 14.0663 2.00273 14.1339 2.05078 14.2227L2.35547 14.7852C2.46425 14.985 2.52916 15.2184 2.51367 15.4707C2.49773 15.7213 2.40711 15.9453 2.28516 16.127L2.09766 16.4082L2.00977 16.5371L2.30859 16.959C2.4321 17.1336 2.52752 17.3477 2.55469 17.5918C2.58189 17.8413 2.53293 18.082 2.43164 18.2891L2.29102 18.5703L2.15625 18.8516C2.0985 18.9699 2.06777 19.0738 2.05664 19.168L1.98633 19.7305C1.9697 19.8732 1.97125 20.0161 1.98047 20.1582L2.01562 20.7207C2.03194 20.9718 2.01597 21.2226 1.96875 21.4707L1.91602 21.752L1.85742 22.0332C1.8326 22.1631 1.82793 22.293 1.83398 22.4199L1.85742 22.9824C1.86674 23.1754 1.876 23.3695 1.88086 23.5625L1.89258 24.125C1.89515 24.2271 1.91509 24.3366 1.95703 24.4531L2.0625 24.7344L2.16211 25.0156C2.25018 25.26 2.30982 25.5103 2.33203 25.7656L2.37891 26.3281C2.40085 26.5821 2.38882 26.8382 2.34375 27.0898L2.29102 27.3711L2.24414 27.6523C2.20427 27.8749 2.14606 28.0955 2.07422 28.3145L1.98047 28.5957L1.9043 28.8184L2.07422 29.0879L2.25 29.3691C2.44373 29.678 2.54723 30.0407 2.49609 30.4297L2.46094 30.7109L2.41992 30.9922C2.3978 31.1601 2.38165 31.3286 2.37305 31.4961L2.34961 32.0586C2.34068 32.2325 2.33217 32.4062 2.33203 32.5801V33.1426Z" fill="#1E1E1E"/>
</svg>
