<svg width="115" height="44" viewBox="0 0 115 44" fill="none" xmlns="http://www.w3.org/2000/svg">
<path d="M1.5 22C1.5 10.9543 10.4543 2 21.5 2H93.5C104.546 2 113.5 10.9543 113.5 22V22C113.5 33.0457 104.546 42 93.5 42H21.5C10.4543 42 1.5 33.0457 1.5 22V22Z" fill="#1E1E1E"/>
<path d="M71.3262 2.35742C71.2958 2.35921 71.2318 2.3676 71.1328 2.43359L70.5703 2.80859C70.278 3.0035 69.9383 3.1288 69.5625 3.11328L69 3.08984C68.6899 3.07699 68.3936 2.99096 68.1211 2.84961L67.8398 2.70312L67.623 2.5918L67.4121 2.70898L67.1309 2.85547C66.7808 3.04083 66.3838 3.09322 65.9883 2.9668L65.707 2.87891L65.4258 2.78516C65.4129 2.78129 65.4043 2.78508 65.4023 2.78516C65.3979 2.78563 65.3884 2.785 65.373 2.79102L64.8105 3.01367C64.3314 3.20481 63.8646 3.08102 63.5098 2.80859L63.2285 2.5918L62.9473 2.38086C62.9034 2.34727 62.877 2.33253 62.8652 2.32812L62.3027 2.33984C62.2798 2.3405 62.2258 2.34936 62.1328 2.41016L61.8516 2.59766L61.5703 2.7793C61.2565 2.9858 60.8799 3.10276 60.4746 3.03711L59.9121 2.94336C59.637 2.89835 59.3711 2.80547 59.1211 2.67383L58.8398 2.52148L58.6934 2.44531L58.5117 2.58594L58.2305 2.79688C58.0572 2.92629 57.8423 3.02982 57.5918 3.06055C57.3353 3.0917 57.093 3.03751 56.8828 2.93164L56.6016 2.79102L56.3203 2.64453C56.2282 2.59796 56.1551 2.59094 56.1035 2.5918L55.8223 2.59766H55.541C55.3776 2.60046 55.2126 2.6149 55.0488 2.63281L54.4863 2.69141C54.2935 2.71248 54.0991 2.73347 53.9062 2.75L53.3438 2.79688C53.1466 2.81376 52.9492 2.82361 52.752 2.83203L52.4707 2.84961L52.1895 2.86133C52.0564 2.86699 51.9173 2.88416 51.7793 2.91992L51.498 2.99609L51.2168 3.06641C50.767 3.18208 50.3495 3.05014 50.0215 2.80859L49.7402 2.60352L49.5234 2.44531L49.3711 2.52148L49.0898 2.65039C48.7712 2.79518 48.4238 2.84405 48.0703 2.77344L47.7891 2.7207L47.5078 2.66211C47.4279 2.64639 47.3499 2.64877 47.2676 2.66797L46.9863 2.73242L46.7051 2.80273C46.3477 2.88708 45.9889 2.84208 45.6621 2.69727L45.3809 2.57422L45.1113 2.45703L44.8477 2.5625L44.5664 2.67969C44.3433 2.77138 44.1158 2.84342 43.8867 2.89648L43.3242 3.02539C42.9382 3.11462 42.5639 3.04654 42.2344 2.86719L41.6719 2.5625C41.5967 2.52167 41.5546 2.5198 41.5312 2.52148L40.9688 2.56836C40.7396 2.58703 40.5065 2.58222 40.2773 2.5625L39.7148 2.51562C39.5434 2.50091 39.3705 2.49047 39.1992 2.48633L38.6367 2.47461C38.4396 2.46983 38.2419 2.45799 38.0449 2.44531L37.4824 2.41016C37.3999 2.40495 37.3114 2.41718 37.2129 2.45117L36.9316 2.55078L36.6504 2.64453C36.4211 2.72365 36.1886 2.77987 35.9531 2.81445L35.3906 2.89648C35.1275 2.93505 34.8622 2.93854 34.5996 2.89648L34.0371 2.80273C33.8803 2.77766 33.7241 2.7618 33.5684 2.75586L33.2871 2.74414L33.0059 2.73828C32.7607 2.72909 32.513 2.69083 32.2734 2.62695L31.7109 2.47461C31.6293 2.45316 31.5525 2.44905 31.4766 2.46289L30.9141 2.56836C30.6775 2.61137 30.4382 2.63285 30.1992 2.62695L29.918 2.61523L29.6367 2.60938C29.4668 2.60521 29.2969 2.6077 29.127 2.61523L28.5645 2.63867C28.4505 2.64372 28.3318 2.66714 28.207 2.70898L27.6445 2.89648C27.2765 3.01998 26.8993 3.00021 26.5488 2.84961L25.9863 2.60352C25.8888 2.5614 25.8052 2.54947 25.7344 2.55078L25.1719 2.5625C25.0459 2.56501 24.9167 2.5811 24.7852 2.61523L24.5039 2.69141L24.2227 2.76172C24.0186 2.81494 23.8123 2.86393 23.6074 2.90234L23.0449 3.00781C22.7402 3.06495 22.4337 3.04598 22.1367 2.96094L21.8555 2.88477L21.6445 2.82031L21.6387 2.82617C21.5599 2.84643 21.4716 2.85771 21.3984 2.86719L21.2051 2.89648L21.0059 2.91992C20.7062 2.9587 20.4117 2.88869 20.1621 2.79688L19.875 2.69141L19.582 2.58594C19.5284 2.56657 19.502 2.56861 19.4824 2.57422L19.207 2.65625L18.9316 2.73242C18.7615 2.78129 18.5931 2.83854 18.4277 2.89648L17.8887 3.08398C17.6868 3.15475 17.4788 3.2151 17.2734 3.26562L17.0039 3.33594L16.7285 3.40039C16.5207 3.45145 16.3101 3.49505 16.0957 3.52344L15.8086 3.55859L15.5273 3.59375C15.3816 3.61306 15.2382 3.64387 15.0996 3.6875L14.5605 3.86328C14.5031 3.88144 14.4414 3.91198 14.3789 3.97461L14.168 4.18555L13.957 4.40234C13.6941 4.66581 13.3618 4.82704 12.9902 4.86523L12.3926 4.92383C12.2576 4.93751 12.1316 4.96769 12.0176 5.01172L11.748 5.11719L11.4844 5.2168C11.3498 5.26877 11.2184 5.33448 11.0977 5.41016L10.6172 5.71484C10.5175 5.77735 10.424 5.85167 10.3418 5.94336L10.1484 6.16602L9.95508 6.38281C9.86604 6.48268 9.78413 6.59486 9.71484 6.72266L9.56836 6.98633L9.42773 7.25C9.22753 7.61927 8.90081 7.86199 8.50781 7.96484L8.19727 8.04688L7.89258 8.12305C7.7871 8.15045 7.71759 8.19301 7.66992 8.23438L7.23633 8.60938C7.21006 8.63233 7.18146 8.66605 7.16016 8.73828L6.98438 9.33594C6.87744 9.69912 6.65875 10.0054 6.33398 10.2148L6.08203 10.373L5.83008 10.5371C5.77424 10.5735 5.7453 10.6118 5.72461 10.6543L5.60156 10.9121L5.47266 11.1699C5.37462 11.3714 5.26218 11.565 5.13867 11.75L4.98633 11.9844L4.82812 12.2188C4.80392 12.255 4.78046 12.3057 4.77539 12.3887L4.75781 12.6934L4.74023 13.0039C4.72023 13.3354 4.6162 13.6521 4.41797 13.9297L4.25977 14.1582L4.0957 14.3867C3.98626 14.54 3.87429 14.6986 3.76172 14.8555L3.42188 15.3242C3.40592 15.347 3.39836 15.3672 3.39844 15.4062V15.7051L3.4043 15.998C3.40698 16.3026 3.34176 16.5999 3.21094 16.877L3.09375 17.1348L2.9707 17.3867C2.91962 17.495 2.88494 17.6062 2.86523 17.7207L2.81836 17.9961L2.77148 18.2773C2.74524 18.4324 2.72764 18.5891 2.71875 18.7461L2.70117 19.0273L2.68945 19.3027C2.6733 19.5881 2.59783 19.8634 2.47852 20.123L2.23242 20.6621L2.22656 20.668C2.22666 20.6688 2.2305 20.6732 2.23242 20.6797L2.32031 20.9668L2.4082 21.248C2.51656 21.5998 2.50262 21.9614 2.37305 22.3027L2.26172 22.584L2.15625 22.8711C2.12584 22.9522 2.11985 23.0182 2.12695 23.0762L2.19727 23.6387C2.20508 23.7005 2.22918 23.7704 2.28516 23.8555L2.45508 24.1191L2.625 24.377C2.85744 24.7305 2.9198 25.1409 2.80664 25.5488L2.64258 26.1465C2.62861 26.1973 2.63469 26.212 2.63672 26.2168L2.74805 26.4746L2.85938 26.7383C2.94636 26.9432 3.02355 27.1525 3.08203 27.3652L3.15234 27.6348L3.22852 27.9102C3.27394 28.0753 3.32557 28.2399 3.38086 28.4023L3.46875 28.666L3.5625 28.9355C3.59472 29.0293 3.64172 29.1197 3.70898 29.2051L3.89062 29.4277L4.06641 29.6562C4.31731 29.9747 4.41057 30.3517 4.38281 30.7285L4.35352 31.0566L4.33008 31.3848C4.32375 31.4691 4.33837 31.5083 4.34766 31.5254L4.49414 31.7773L4.64062 32.0234C4.67712 32.0858 4.72776 32.1482 4.81055 32.2051L5.0625 32.375L5.31445 32.5508C5.55567 32.7165 5.76365 32.9204 5.92383 33.166L6.07617 33.4004L6.23438 33.6406C6.32071 33.7731 6.41527 33.8993 6.51562 34.0215L6.69141 34.2383L6.87305 34.4551C6.99348 34.6017 7.1111 34.7519 7.23047 34.9004L7.40625 35.123L7.58203 35.3398C7.69673 35.4826 7.81533 35.6256 7.93359 35.7676L8.11523 35.9902L8.29688 36.207C8.33618 36.2542 8.38683 36.294 8.46094 36.3242L9.01172 36.5469C9.21655 36.6304 9.41484 36.7222 9.60352 36.8223L9.84961 36.9512L10.1016 37.0859C10.3453 37.2156 10.5618 37.3841 10.7461 37.5898L10.9336 37.8066L11.127 38.0176C11.2745 38.1824 11.4148 38.3614 11.5488 38.5508L11.7246 38.8027L11.9062 39.0547C11.9548 39.1229 12.0026 39.1574 12.0469 39.1777L12.3047 39.2949L12.5684 39.418C12.6567 39.4581 12.7576 39.4852 12.873 39.4941L13.4707 39.541C13.7509 39.5627 14.0242 39.6249 14.2793 39.7402L14.5371 39.8574L14.7891 39.9746C14.944 40.0448 15.1041 40.1077 15.2637 40.168L15.791 40.3672C15.979 40.4382 16.1672 40.5136 16.3535 40.5957L16.6172 40.7129L16.875 40.8301C16.9135 40.847 16.9576 40.8513 17.0215 40.8418L17.3145 40.8008L17.6133 40.7539L17.9238 40.7422C18.2283 40.7635 18.5074 40.8849 18.7441 41.0762L19.002 41.2812L19.1836 41.4336L19.3887 41.3691L19.6816 41.2754C19.9811 41.1756 20.2968 41.1428 20.6133 41.1934L20.8887 41.2344L21.1699 41.2812C21.2245 41.29 21.2877 41.285 21.3633 41.2578L21.9258 41.0586L22.248 40.9824C22.461 40.9607 22.669 40.9906 22.8633 41.0645L23.1445 41.2051L23.4258 41.3867L23.707 41.5625C23.7941 41.6176 23.8407 41.6211 23.8594 41.6211H24.4219C24.6033 41.6197 24.7854 41.6148 24.9668 41.6094L25.248 41.5977L25.5293 41.5918C25.7202 41.5861 25.9126 41.5828 26.1035 41.5801L26.3848 41.5742H26.666C26.7775 41.5726 26.896 41.5538 27.0176 41.5156L27.5801 41.3398C27.9142 41.2351 28.26 41.2343 28.5938 41.3398L29.1562 41.5156C29.1921 41.5267 29.2179 41.5282 29.2559 41.5156L29.8184 41.3281C30.0915 41.2381 30.3748 41.1984 30.6621 41.2168L30.9434 41.2344L31.2246 41.2578C31.4075 41.2697 31.5925 41.2782 31.7754 41.2871L32.0566 41.2988L32.3379 41.3164C32.4165 41.3202 32.5036 41.3061 32.6016 41.2695L33.1641 41.0586C33.5043 40.9312 33.8632 40.92 34.2129 41.0293L34.7754 41.2051C34.8077 41.2152 34.832 41.2121 34.8691 41.1992L35.1504 41.1055L35.4316 41.0059C35.7548 40.8936 36.0741 40.9131 36.3633 41.0234L36.6445 41.1641L37.207 41.5156C37.3128 41.5825 37.3895 41.6042 37.4414 41.6094L38.0039 41.668C38.1325 41.6806 38.2613 41.6796 38.3906 41.6621L38.6719 41.6211L38.9531 41.5859C39.0416 41.574 39.1454 41.5437 39.2637 41.4805L39.8262 41.1758C40.1373 41.0097 40.486 40.9335 40.8516 40.9883L41.4141 41.0703C41.5938 41.0972 41.7735 41.1248 41.9531 41.1465L42.2344 41.1816L42.5156 41.2109C42.6885 41.2318 42.8645 41.2473 43.0371 41.2578L43.5996 41.293C43.7696 41.3033 43.9395 41.3117 44.1094 41.3105L44.3906 41.3047H44.6719C44.8571 41.3034 45.0433 41.3013 45.2285 41.2988L45.5098 41.293H45.791C45.9778 41.2905 46.1667 41.2839 46.3535 41.2812H46.6348L46.916 41.2754C47.151 41.272 47.3863 41.293 47.6191 41.334L47.9004 41.3809L48.1816 41.4336C48.3027 41.4549 48.426 41.457 48.5449 41.4453L48.8262 41.416L49.1074 41.3926C49.2439 41.379 49.3818 41.3468 49.5234 41.3047L50.0859 41.1406C50.3291 41.068 50.5794 41.0235 50.8301 41.0117L51.1113 41L51.3926 40.9824C51.7078 40.9677 52.0109 41.037 52.2949 41.1641L52.5762 41.2871L52.8574 41.416C52.9488 41.4569 53.0256 41.4655 53.0859 41.4629L53.6484 41.4395C53.9046 41.4286 54.1592 41.4515 54.4102 41.5098L54.9727 41.6387C55.0439 41.6552 55.111 41.6567 55.1836 41.6387L55.7461 41.498C55.9082 41.4577 56.0739 41.4107 56.2383 41.3516L56.5195 41.252L56.8008 41.1465C57.136 41.0263 57.4883 41.0139 57.832 41.1172L58.1133 41.2051L58.3945 41.2871C58.5128 41.3226 58.6258 41.3409 58.7344 41.3398L59.0156 41.334H59.2969C59.5 41.3321 59.7032 41.3347 59.9062 41.3457L60.1875 41.3633L60.4688 41.375C60.6303 41.3838 60.7936 41.3831 60.9551 41.375L61.5176 41.3516C61.7748 41.3389 62.0329 41.3584 62.2852 41.416L62.8477 41.5449C62.9464 41.5672 63.0402 41.57 63.1348 41.5566L63.416 41.5215L63.6973 41.4805C63.8973 41.4521 64.1005 41.4282 64.3008 41.4102L64.582 41.3867L64.8633 41.3574C65.1556 41.3314 65.4461 41.3665 65.7246 41.457L66.1816 41.6094L66.4336 41.416L66.7148 41.1934C67.0122 40.9601 67.3894 40.7999 67.8164 40.8418L68.3789 40.9004C68.5586 40.918 68.7383 40.9345 68.918 40.9473L69.1992 40.9648L69.4805 40.9883C69.6361 40.9994 69.7937 40.9971 69.9492 40.9883L70.2305 40.9707L70.5117 40.959C70.7403 40.946 70.9692 40.9518 71.1973 40.9766L71.7598 41.0352C71.9183 41.0524 72.0764 41.0594 72.2344 41.0586H72.7969C72.9522 41.0577 73.1095 41.0437 73.2656 41.0234L73.8281 40.9531C74.188 40.9061 74.5344 40.9841 74.8418 41.1465L75.123 41.293L75.3633 41.416L75.5859 41.3164L75.8672 41.1875C76.191 41.0401 76.5463 40.9915 76.9043 41.0703L77.1855 41.1348L77.4668 41.1934C77.5645 41.2146 77.6595 41.2195 77.7539 41.2051L78.0352 41.1641L78.3164 41.1172C78.5152 41.0868 78.715 41.0616 78.9141 41.041L79.4766 40.9824C79.7454 40.9547 80.0149 40.9706 80.2793 41.0293L80.8418 41.1582C80.9531 41.1827 81.0632 41.1862 81.1699 41.1758L81.4512 41.1465L81.7324 41.123C82.0402 41.0934 82.3418 41.1386 82.6289 41.2461L82.9102 41.3516L83.1914 41.4512H83.2031L83.7656 41.2168C84.1359 41.0625 84.5307 41.0581 84.9023 41.2109L85.1836 41.3281L85.4531 41.4395L85.7285 41.3281L86.0098 41.2051C86.286 41.088 86.581 41.0291 86.8828 41.0352L87.4453 41.0469C87.7409 41.0531 88.0256 41.1203 88.2949 41.2402L88.5762 41.3633L88.7988 41.4629L89.0391 41.3398L89.3203 41.1875C89.6236 41.0236 89.9644 40.9376 90.3223 40.9766L90.6035 41.0117L90.8848 41.041C91.1292 41.0677 91.369 41.1243 91.6055 41.2051L92.168 41.3926C92.1842 41.3981 92.1952 41.3985 92.1973 41.3984C92.2004 41.3983 92.2094 41.399 92.2266 41.3926L92.7891 41.1816C93.1622 41.0413 93.5528 41.0522 93.9141 41.2051L94.1953 41.3281L94.459 41.4336L94.7109 41.3281L94.9863 41.2051C95.3232 41.0525 95.6835 41.0174 96.041 41.1055L96.3398 41.1816L96.6328 41.252C96.6561 41.2576 96.6698 41.2582 96.6738 41.2578C96.6779 41.2573 96.6861 41.2571 96.6973 41.252L97.2246 41.0059C97.4713 40.8914 97.7347 40.8154 98.0039 40.7832L98.5664 40.7129C98.726 40.6938 98.8847 40.6681 99.041 40.6309L99.3164 40.5664L99.5977 40.4961C99.7018 40.471 99.8013 40.4323 99.8965 40.373L100.389 40.0684C100.549 39.9687 100.708 39.8695 100.863 39.7695L101.098 39.6113L101.338 39.459C101.561 39.3158 101.803 39.2074 102.059 39.1367L102.609 38.9844C102.81 38.9289 103.019 38.8815 103.23 38.8379L103.523 38.7793L103.816 38.7148C103.86 38.7059 103.882 38.6929 103.904 38.668L104.303 38.2344C104.392 38.1358 104.473 38.019 104.543 37.8887L104.836 37.3496L105.018 37.0859C105.222 36.8512 105.495 36.698 105.809 36.6348L106.119 36.5703L106.318 36.5234L106.383 36.3359L106.482 36.0371C106.607 35.6642 106.854 35.3498 107.221 35.1641L107.484 35.0352L107.748 34.9004C107.816 34.8659 107.857 34.8232 107.889 34.7773L108.053 34.5488L108.211 34.3145C108.339 34.1267 108.477 33.9468 108.633 33.7812L109.02 33.3711C109.068 33.3197 109.106 33.2586 109.131 33.1777L109.219 32.9023L109.307 32.6211C109.395 32.3366 109.535 32.0765 109.734 31.8535L109.928 31.6426L110.115 31.4316C110.164 31.3768 110.195 31.3162 110.215 31.2441L110.367 30.6934C110.478 30.3005 110.737 30.0077 111.053 29.8086L111.34 29.6328L111.516 29.5156L111.504 29.3457L111.48 29.0293C111.45 28.6897 111.506 28.3495 111.674 28.0391L111.809 27.793L111.943 27.541C112.027 27.3861 112.108 27.2278 112.184 27.0664L112.307 26.8027L112.424 26.5449C112.481 26.4237 112.526 26.2976 112.553 26.1699L112.611 25.8887L112.67 25.6133C112.673 25.598 112.675 25.56 112.641 25.4785L112.512 25.1738L112.389 24.875C112.258 24.5665 112.201 24.2259 112.26 23.8789L112.307 23.6094L112.354 23.334C112.399 23.0677 112.485 22.8102 112.611 22.5664L112.758 22.291L112.887 22.0273L112.799 21.7871L112.693 21.5059C112.589 21.2238 112.547 20.9284 112.57 20.627L112.594 20.3398L112.611 20.0586C112.62 19.9427 112.618 19.83 112.594 19.7188L112.535 19.4434L112.471 19.168C112.445 19.0491 112.406 18.9321 112.348 18.8164L112.09 18.3008C111.934 17.9918 111.878 17.6555 111.92 17.3164L111.955 17.0176L111.99 16.7246C112.008 16.5766 112.014 16.4312 112.002 16.291L111.979 15.998L111.955 15.7109C111.95 15.6489 111.927 15.5997 111.891 15.5469L111.562 15.0664C111.455 14.9106 111.348 14.7535 111.24 14.6035L111.07 14.375L110.906 14.1406C110.776 13.9596 110.658 13.7725 110.555 13.5781L110.426 13.332L110.291 13.0859C110.137 12.7943 110.078 12.4747 110.08 12.1543V11.498C110.081 11.412 110.064 11.3802 110.057 11.3691L109.893 11.1348L109.723 10.9004C109.654 10.8026 109.57 10.7108 109.471 10.6309L109.242 10.4492L109.014 10.2617C108.773 10.0671 108.582 9.82742 108.451 9.54688L108.328 9.27734L108.199 9.01367C108.181 8.97542 108.163 8.94883 108.123 8.92578L107.865 8.7793L107.607 8.62695C107.448 8.53457 107.288 8.4454 107.127 8.36328L106.869 8.23438L106.605 8.09961C106.335 7.96127 106.105 7.76733 105.92 7.52539L105.744 7.30273L105.568 7.07422C105.544 7.04222 105.517 7.02112 105.469 7.00391L104.918 6.80469C104.592 6.69012 104.315 6.48872 104.109 6.21289L103.758 5.74414C103.656 5.60816 103.546 5.47588 103.43 5.35156L103.23 5.13477L103.025 4.91797C103.01 4.90119 102.998 4.89324 102.967 4.88867L102.674 4.84766L102.375 4.80078C102.194 4.7744 102.014 4.75567 101.836 4.74219L101.543 4.71875L101.244 4.69531C100.79 4.6605 100.438 4.41832 100.201 4.08008L100.008 3.80469L99.8086 3.52344C99.8024 3.51475 99.795 3.5104 99.791 3.50586L99.5391 3.45898L99.2578 3.41211C98.9923 3.36705 98.7362 3.28352 98.4961 3.16016L98.2324 3.02539L97.9746 2.89062C97.9204 2.86273 97.8678 2.85254 97.8047 2.85547L97.5059 2.87305L97.2129 2.88477C96.9224 2.89955 96.638 2.85736 96.3633 2.76172L95.8125 2.57422C95.8076 2.57508 95.7947 2.57877 95.7773 2.58594L95.4844 2.70312L95.1914 2.82617C94.8271 2.97666 94.4332 2.98956 94.0547 2.83789L93.7793 2.72656L93.498 2.61523C93.4298 2.58812 93.3769 2.58489 93.3281 2.5918L92.7656 2.67383C92.5716 2.70209 92.3737 2.72692 92.1797 2.75L91.6172 2.82031C91.3219 2.85502 91.0272 2.8262 90.7441 2.73828L90.1816 2.5625C90.1489 2.55255 90.1252 2.5498 90.0879 2.5625L89.8066 2.66211L89.5254 2.75586C89.3173 2.82731 89.1083 2.892 88.8984 2.94336L88.6172 3.00781L88.3359 3.07812C87.9392 3.17517 87.5552 3.09833 87.2227 2.9082L86.9414 2.75L86.6602 2.58594C86.5986 2.55068 86.5719 2.55578 86.5664 2.55664L86.0039 2.62695C85.7253 2.66307 85.4454 2.65049 85.1719 2.58594L84.8906 2.51562L84.6094 2.45117C84.5432 2.43553 84.4789 2.43871 84.4102 2.45703L84.1289 2.52734L83.8477 2.60352C83.6804 2.64812 83.5124 2.70202 83.3438 2.76172L82.7812 2.96094C82.5197 3.05345 82.2489 3.10043 81.9727 3.10156H81.6914L81.4102 3.10742C81.1937 3.1082 80.9757 3.09644 80.7598 3.07227L80.4785 3.03711L80.1973 3.00781C79.945 2.97953 79.6947 2.91656 79.4531 2.82617L78.8906 2.61523C78.8354 2.5951 78.7942 2.59489 78.7559 2.60352L78.1934 2.73242C77.915 2.7947 77.6314 2.8009 77.3496 2.75586L77.0684 2.71484L76.7871 2.66797C76.675 2.65014 76.5647 2.65167 76.4531 2.66797L75.8906 2.75C75.6103 2.79104 75.3288 2.77815 75.0527 2.71484L74.4902 2.58594C74.4338 2.57294 74.3781 2.57248 74.3145 2.5918L74.0332 2.67969L73.752 2.76172C73.3639 2.88046 72.9738 2.83321 72.627 2.65625L72.3457 2.51562L72.0645 2.36914C71.9823 2.32743 71.9272 2.32012 71.8887 2.32227L71.3262 2.35742ZM22.2715 1.4375L22.5527 1.51953C22.6299 1.54133 22.6999 1.54431 22.7695 1.53125L23.332 1.42578C23.5013 1.394 23.6717 1.3588 23.8418 1.31445L24.123 1.23828L24.4043 1.16797C24.6469 1.1047 24.8943 1.06744 25.1426 1.0625L25.7051 1.05078C26.0083 1.04494 26.3017 1.10737 26.5781 1.22656L27.1406 1.47266C27.1493 1.47637 27.1553 1.47777 27.1582 1.47852C27.1583 1.4785 27.1641 1.47461 27.1699 1.47266L27.7324 1.28516C27.9819 1.2017 28.2398 1.15606 28.5 1.14453L28.7812 1.12695L29.0625 1.11523C29.2656 1.10628 29.4688 1.10443 29.6719 1.10938L29.9531 1.11523L30.2344 1.12695C30.3691 1.13028 30.5074 1.11666 30.6445 1.0918L30.9258 1.03906L31.207 0.992188C31.5049 0.937879 31.8057 0.949735 32.0977 1.02734L32.3789 1.10352L32.6602 1.17383C32.7953 1.20986 32.929 1.23337 33.0586 1.23828L33.3398 1.25L33.6211 1.25586C33.8393 1.26404 34.0603 1.28555 34.2773 1.32031L34.8398 1.41406C34.9513 1.43165 35.0628 1.43034 35.1738 1.41406L35.7363 1.33203C35.875 1.3116 36.0192 1.27657 36.1641 1.22656L36.4453 1.13281L36.7266 1.0332C37.0021 0.938429 37.2906 0.897266 37.582 0.916016L38.1445 0.951172C38.3203 0.962449 38.4961 0.970327 38.6719 0.974609L39.2344 0.986328C39.4367 0.99122 39.6415 1.00412 39.8438 1.02148L40.4062 1.06836C40.5521 1.08091 40.6999 1.0861 40.8457 1.07422L41.4082 1.02734C41.7601 0.998724 42.0947 1.08205 42.3926 1.24414L42.9551 1.54883L42.9844 1.56641L43.5469 1.4375C43.6928 1.40371 43.8461 1.35346 43.998 1.29102L44.2793 1.17969L44.5605 1.0625C44.9393 0.907198 45.3374 0.915507 45.709 1.08008L46.2715 1.32617C46.3195 1.34746 46.3418 1.34789 46.3594 1.34375L46.6406 1.27344L46.9219 1.20898C47.2124 1.14048 47.5079 1.13328 47.8008 1.19141L48.082 1.25L48.3633 1.30273C48.3841 1.30689 48.4133 1.31024 48.4688 1.28516L49.0312 1.02734L49.3828 0.927734C49.6176 0.893547 49.8471 0.926063 50.0566 1.01562L50.3496 1.18555L50.6309 1.39648L50.9004 1.60156L51.123 1.54297L51.4043 1.4668C51.6413 1.4054 51.8831 1.37163 52.125 1.36133L52.6875 1.33789C52.8633 1.3304 53.039 1.31777 53.2148 1.30273L53.7773 1.25586C53.9581 1.24036 54.1415 1.22288 54.3223 1.20312L54.6035 1.16797L54.8848 1.13867C55.0947 1.11572 55.3073 1.10119 55.5176 1.09766H55.7988L56.0801 1.0918C56.4033 1.08642 56.7113 1.16562 56.9941 1.30859L57.2754 1.44922L57.4219 1.53125L57.6152 1.38477L57.8965 1.17383L58.1895 0.998047C58.2968 0.952101 58.4145 0.918411 58.541 0.904297C58.6723 0.889806 58.8016 0.896474 58.9219 0.921875L59.2559 1.04492L59.5371 1.19727L59.8184 1.34375C59.9423 1.4092 60.0536 1.44476 60.1523 1.46094L60.4336 1.50781L60.6973 1.55469C60.7025 1.55294 60.7186 1.54797 60.7441 1.53125L61.3066 1.15625C61.5871 0.971954 61.9103 0.849887 62.2617 0.839844L62.8242 0.828125C63.2243 0.817189 63.5738 0.970713 63.8613 1.19141L64.1426 1.40234L64.3652 1.57812L64.5352 1.50781L64.8164 1.39648C65.1599 1.25974 65.5262 1.2421 65.8828 1.35547L66.1641 1.44922L66.4277 1.53125L66.709 1.37891L66.9902 1.23242C67.3939 1.01813 67.8426 1.01552 68.25 1.22656L68.8125 1.51953C68.9149 1.57262 68.9996 1.58717 69.0645 1.58984L69.627 1.61328C69.6311 1.61324 69.6379 1.61134 69.6504 1.60742C69.6665 1.60237 69.6968 1.59379 69.7383 1.56641L70.0195 1.37305L70.3008 1.18555C70.5768 1.00147 70.8936 0.877757 71.2383 0.857422L71.5195 0.845703L71.8008 0.828125C72.1367 0.808517 72.4586 0.884521 72.75 1.0332L73.0312 1.17969L73.3125 1.32031L73.3184 1.32617H73.3125V1.33203L73.5938 1.24414L73.875 1.15625C74.1853 1.06146 74.5065 1.04799 74.8242 1.12109L75.3867 1.25C75.4848 1.2726 75.58 1.27545 75.6738 1.26172L76.2363 1.17969C76.4988 1.14141 76.7653 1.14367 77.0273 1.18555L77.5898 1.2793C77.6807 1.29346 77.771 1.28861 77.8652 1.26758L78.4277 1.13867C78.7636 1.06313 79.0999 1.09589 79.418 1.21484L79.6992 1.32031L79.9805 1.41992C80.1137 1.46976 80.2446 1.50581 80.3672 1.51953L80.9297 1.57812C81.088 1.59576 81.2465 1.60799 81.4043 1.60742L81.6855 1.60156H81.9668C82.0647 1.60113 82.1706 1.58281 82.2832 1.54297L82.5645 1.44922L82.8457 1.34961C83.0504 1.27721 83.2549 1.21122 83.4609 1.15625L84.0234 1.00391C84.3297 0.922332 84.6462 0.919149 84.9551 0.992188L85.2363 1.05664L85.5176 1.12695C85.6181 1.15051 85.7151 1.15104 85.8105 1.13867L86.373 1.06836C86.7453 1.02025 87.0961 1.10873 87.4043 1.28516L87.6855 1.44336L87.9668 1.60742L87.9844 1.61914L88.2598 1.55469L88.541 1.48438C88.7058 1.44407 88.8726 1.39505 89.0391 1.33789L89.3203 1.24414L89.6016 1.14453C89.9371 1.02962 90.2868 1.02177 90.627 1.12695L91.1895 1.30273C91.2801 1.3309 91.3629 1.33538 91.4414 1.32617L91.7227 1.29688L92.0039 1.26172C92.1849 1.2402 92.3678 1.21778 92.5488 1.19141L93.1113 1.10938C93.4362 1.06213 93.754 1.10633 94.0547 1.22656L94.3359 1.33789L94.6055 1.44922L94.6172 1.44336L95.2031 1.19727C95.5507 1.05345 95.9321 1.02705 96.3047 1.15625L96.5801 1.25L96.8555 1.34961C96.9449 1.38066 97.037 1.38986 97.1367 1.38477L97.4297 1.37305L97.7227 1.35547C98.05 1.33853 98.3683 1.41035 98.6602 1.56055L98.918 1.68945L99.1816 1.82422C99.287 1.87842 99.3931 1.91648 99.5039 1.93555L99.791 1.98242L100.072 2.0293C100.494 2.10085 100.817 2.35012 101.039 2.66797L101.232 2.94336L101.414 3.20117L101.654 3.22461L101.947 3.24805C102.161 3.26419 102.377 3.28697 102.592 3.31836L102.891 3.35938L103.184 3.40625C103.548 3.45939 103.874 3.62182 104.127 3.89258L104.525 4.32617C104.678 4.48994 104.825 4.66254 104.959 4.8418L105.135 5.08203L105.311 5.31641C105.34 5.35629 105.374 5.37783 105.416 5.39258L105.691 5.48633L105.967 5.58594C106.285 5.69776 106.557 5.89057 106.764 6.16016L106.934 6.38867L107.109 6.61719C107.156 6.67783 107.215 6.72491 107.291 6.76367L107.549 6.89844L107.807 7.02734C107.992 7.12202 108.181 7.22623 108.363 7.33203L108.615 7.47852L108.873 7.63086C109.175 7.80605 109.41 8.05783 109.559 8.375L109.688 8.64453L109.811 8.9082C109.846 8.98313 109.894 9.04484 109.957 9.0957L110.186 9.2832L110.414 9.46484C110.619 9.63027 110.802 9.81867 110.953 10.0332L111.117 10.2734L111.281 10.5078C111.493 10.8091 111.582 11.1531 111.58 11.5039V12.166C111.58 12.2827 111.602 12.3471 111.621 12.3828L111.879 12.875C111.948 13.0064 112.028 13.1354 112.119 13.2617L112.289 13.4961L112.453 13.7305C112.567 13.889 112.686 14.0469 112.799 14.2109L113.127 14.6914C113.311 14.9587 113.422 15.2641 113.449 15.5879L113.473 15.875L113.496 16.168C113.516 16.4128 113.515 16.6598 113.484 16.9062L113.443 17.1992L113.408 17.498C113.401 17.5544 113.408 17.5922 113.426 17.627L113.555 17.8848L113.689 18.1426C113.803 18.3689 113.888 18.6056 113.941 18.8516L114.059 19.4023C114.114 19.6569 114.132 19.9159 114.111 20.1758L114.088 20.4629L114.064 20.7441C114.059 20.8179 114.067 20.896 114.1 20.9844L114.205 21.2656L114.311 21.541L114.387 21.8398C114.43 22.1372 114.375 22.435 114.234 22.707L114.088 22.9824L113.947 23.2578C113.884 23.3807 113.847 23.4894 113.83 23.5859L113.783 23.8613L113.736 24.1309C113.733 24.1479 113.732 24.1957 113.771 24.2891L113.895 24.5938L114.023 24.8926C114.158 25.2123 114.209 25.5615 114.135 25.918L114.076 26.1992L114.018 26.4746C113.967 26.7187 113.89 26.9572 113.783 27.1836L113.66 27.4414L113.537 27.7051C113.45 27.8901 113.358 28.0716 113.262 28.25L112.992 28.7539C112.979 28.7776 112.962 28.8157 112.969 28.8945L112.998 29.2109L113.027 29.5215C113.048 29.7495 113.016 29.9926 112.898 30.2188C112.782 30.4419 112.608 30.6068 112.424 30.7227L112.137 30.8984L111.855 31.0801C111.826 31.0987 111.812 31.1113 111.809 31.1152L111.738 31.373L111.662 31.6484C111.58 31.9397 111.435 32.2017 111.234 32.4277L111.047 32.6445L110.854 32.8555C110.802 32.9135 110.763 32.9811 110.736 33.0664L110.648 33.3477L110.566 33.623C110.476 33.9129 110.324 34.174 110.115 34.3965L109.922 34.6016L109.729 34.8125C109.627 34.9207 109.531 35.0353 109.447 35.1582L109.131 35.627C108.951 35.891 108.71 36.0933 108.428 36.2363L108.164 36.3711L107.912 36.4941L107.807 36.8105L107.707 37.1152C107.555 37.5717 107.2 37.8814 106.729 37.9766L106.418 38.041L106.131 38.0938L106.008 38.334L105.861 38.6035C105.736 38.8348 105.59 39.0502 105.416 39.2422L105.018 39.6758C104.777 39.9412 104.469 40.1137 104.121 40.1855L103.828 40.25L103.529 40.3086C103.349 40.3457 103.174 40.3857 103.008 40.4316L102.457 40.584C102.345 40.6149 102.241 40.6637 102.146 40.7246L101.912 40.877L101.672 41.0293C101.51 41.1331 101.346 41.2366 101.18 41.3398L100.688 41.6445C100.456 41.7883 100.208 41.892 99.9434 41.9551L99.668 42.0254L99.3926 42.0898C99.1807 42.1404 98.9643 42.1811 98.748 42.207L98.4609 42.2363L98.1797 42.2715C98.0717 42.2844 97.9646 42.3155 97.8574 42.3652L97.3301 42.6113C96.992 42.7683 96.6251 42.7989 96.2695 42.7109L95.9766 42.6348L95.6836 42.5645C95.6492 42.556 95.6287 42.558 95.6016 42.5703L95.332 42.6934L95.0566 42.8164C94.6773 42.9887 94.2731 42.9875 93.8965 42.8281L93.6094 42.7109L93.3281 42.5879L93.3164 42.582V42.5879L92.7539 42.7988C92.4066 42.9291 92.0404 42.9365 91.6875 42.8164L91.4062 42.7168L91.125 42.623C90.9872 42.5759 90.8504 42.5434 90.7207 42.5293L90.1582 42.4707C90.1406 42.4689 90.1051 42.4681 90.0352 42.5059L89.4727 42.8105C89.0899 43.0174 88.6571 43.0452 88.248 42.8633L87.9668 42.7344L87.6855 42.6113C87.5821 42.5652 87.4936 42.5488 87.416 42.5469L86.8535 42.5352C86.7803 42.5337 86.6945 42.5461 86.5957 42.5879L86.3145 42.7051L86.0332 42.8281C85.6624 42.985 85.2641 42.9876 84.8906 42.834L84.6094 42.7168L84.334 42.5996L84.0586 42.7168L83.7773 42.834C83.4171 42.9842 83.0328 42.9955 82.6641 42.8574L82.1016 42.6465C82.0149 42.6142 81.9393 42.6107 81.873 42.6172L81.5918 42.6406L81.3105 42.6699C81.0438 42.6956 80.7759 42.6754 80.5137 42.6172L80.2324 42.5586L79.9512 42.4941C79.8416 42.47 79.7341 42.4657 79.6289 42.4766L79.0664 42.5352C78.8916 42.5533 78.7141 42.5728 78.5391 42.5996L78.2578 42.6465L77.9766 42.6875C77.6982 42.7298 77.4196 42.7185 77.1445 42.6582L76.8633 42.5996L76.582 42.5352C76.565 42.5314 76.5395 42.5294 76.4883 42.5527L75.9258 42.8105C75.5201 42.9947 75.0866 42.9732 74.7012 42.7695L74.4199 42.6172L74.1387 42.4707C74.0745 42.437 74.0431 42.4395 74.0273 42.4414L73.4648 42.5117C73.2472 42.5402 73.027 42.5573 72.8086 42.5586H72.2461C72.0299 42.5598 71.8114 42.5528 71.5957 42.5293L71.3145 42.4941L71.0332 42.4648C70.8871 42.449 70.7393 42.4448 70.5938 42.4531L70.0312 42.4883C69.8125 42.5007 69.5936 42.498 69.375 42.4824L69.0938 42.4648L68.8125 42.4414C68.6192 42.4276 68.4257 42.4135 68.2324 42.3945L67.9512 42.3652L67.6992 42.3359C67.6917 42.3393 67.6719 42.3524 67.6406 42.377L67.3594 42.5938L67.0781 42.8164C66.7411 43.0806 66.295 43.2233 65.8184 43.0684L65.5371 42.9746L65.2559 42.8867C65.1621 42.8565 65.0784 42.8447 64.998 42.8516L64.7168 42.8809L64.4355 42.9043C64.2608 42.92 64.0832 42.9381 63.9082 42.9629L63.3457 43.0449C63.0671 43.0844 62.7881 43.0721 62.5137 43.0098L61.9512 42.8809C61.829 42.853 61.7051 42.8398 61.5879 42.8457L61.3066 42.8633L61.0254 42.875C60.8128 42.8855 60.5993 42.8865 60.3867 42.875L60.1055 42.8574L59.8242 42.8457C59.6528 42.8364 59.4799 42.8324 59.3086 42.834H59.0273L58.7461 42.8398C58.4804 42.8422 58.217 42.7996 57.9609 42.7227L57.6797 42.6406L57.3984 42.5527C57.3687 42.544 57.3431 42.5448 57.3047 42.5586L57.0234 42.6582L56.7422 42.7637C56.5325 42.839 56.3213 42.9042 56.1094 42.957L55.5469 43.0977C55.2448 43.1728 54.9362 43.1741 54.6328 43.1035L54.0703 42.9746C53.9481 42.9462 53.83 42.9346 53.7129 42.9395L53.1504 42.9629C52.8359 42.9765 52.5315 42.9081 52.248 42.7812L51.9668 42.6582L51.6855 42.5293C51.5949 42.4887 51.5223 42.4797 51.4629 42.4824L51.1816 42.4941L50.9004 42.5117C50.7769 42.5175 50.6504 42.5372 50.5195 42.5762L50.2383 42.6582L49.957 42.7461C49.7261 42.815 49.4901 42.8575 49.2539 42.8809L48.6914 42.9395C48.4357 42.9646 48.1774 42.9547 47.9238 42.9102L47.6426 42.8574L47.3613 42.8105C47.2198 42.7856 47.0788 42.7734 46.9395 42.7754L46.6582 42.7812H46.377C46.1896 42.7839 46.0018 42.7905 45.8145 42.793H45.5332L45.252 42.7988C45.063 42.8013 44.8726 42.8034 44.6836 42.8047H44.4023L44.1211 42.8105C43.9167 42.8119 43.7102 42.8054 43.5059 42.793L42.9434 42.7578C42.7422 42.7456 42.5408 42.7293 42.3398 42.7051L41.7773 42.6348C41.5827 42.6113 41.386 42.5819 41.1914 42.5527L40.6289 42.4707C40.6196 42.4693 40.5911 42.4669 40.5293 42.5L40.248 42.6523L39.9668 42.7988C39.7105 42.9358 39.4383 43.0298 39.1523 43.0684L38.8711 43.1094L38.5898 43.1445C38.3451 43.1775 38.097 43.1864 37.8516 43.1621L37.2891 43.1035C36.9682 43.0713 36.6717 42.956 36.4043 42.7871L36.123 42.6055L35.8652 42.4414L35.6426 42.5234L35.3613 42.6172C35.0238 42.7345 34.6725 42.7419 34.3301 42.6348L33.7676 42.459C33.7427 42.4512 33.7257 42.452 33.6914 42.4648L33.1289 42.6758C32.8526 42.7792 32.5633 42.8248 32.2676 42.8105L31.7051 42.7871C31.5139 42.7778 31.322 42.7644 31.1309 42.752L30.5684 42.7168C30.4817 42.7112 30.388 42.7187 30.2871 42.752L29.7246 42.9395C29.3884 43.0503 29.0373 43.0523 28.6992 42.9453L28.1367 42.7695C28.0969 42.7573 28.0653 42.757 28.0254 42.7695L27.4629 42.9453C27.2104 43.0243 26.952 43.0704 26.6895 43.0742H26.4082L26.127 43.0801C25.9436 43.0827 25.7595 43.0864 25.5762 43.0918L25.2949 43.0977L25.0137 43.1094C24.8206 43.1151 24.6267 43.1197 24.4336 43.1211H23.8711C23.5144 43.1237 23.1849 43.0101 22.8984 42.8281L22.6172 42.6523L22.3594 42.4883L22.1484 42.5703L21.8672 42.6699C21.5679 42.7774 21.2534 42.8143 20.9355 42.7637L20.373 42.6699C20.3169 42.6614 20.2473 42.6689 20.1562 42.6992L19.8633 42.793L19.5703 42.8926C19.1154 43.0441 18.6653 42.9448 18.3105 42.6582L18.0586 42.4473L17.8008 42.2422L17.5371 42.2832L17.2441 42.3301C16.9137 42.3793 16.5816 42.3377 16.2715 42.2012L16.0078 42.084L15.75 41.9727C15.5887 41.9016 15.4252 41.8345 15.2637 41.7734L14.7363 41.5742C14.5465 41.5025 14.3584 41.4234 14.1738 41.3398L13.916 41.2227L13.6641 41.1055C13.5795 41.0672 13.4782 41.0446 13.3594 41.0352L13.0547 41.0117L12.7559 40.9883C12.4722 40.9663 12.1994 40.8957 11.9414 40.7773L11.6777 40.6602L11.4199 40.5371C11.118 40.3984 10.8704 40.1881 10.6816 39.9219L10.5059 39.6699L10.3242 39.418C10.2205 39.2715 10.1144 39.1386 10.0078 39.0195L9.82031 38.8027L9.62695 38.5918C9.55846 38.5154 9.4834 38.4555 9.39844 38.4102L9.14648 38.2754L8.90039 38.1465C8.75833 38.0711 8.60437 38.0012 8.44336 37.9355L8.16797 37.8242L7.89844 37.7129C7.60745 37.5943 7.35157 37.411 7.14844 37.168L6.9668 36.9453L6.7793 36.7285C6.65555 36.58 6.53618 36.4269 6.41602 36.2773L6.24023 36.0605L6.05859 35.8379C5.94348 35.6947 5.82898 35.5515 5.71289 35.4102L5.53125 35.1934L5.35547 34.9766C5.21904 34.8105 5.09182 34.6352 4.97461 34.4551L4.66992 33.9863C4.62612 33.919 4.55934 33.852 4.46484 33.7871L4.21289 33.6113L3.96094 33.4414C3.70778 33.2675 3.49545 33.0466 3.33984 32.7793L3.19922 32.5332L3.05273 32.2812C2.87032 31.967 2.80996 31.6195 2.83594 31.2734L2.88281 30.6172C2.88507 30.5856 2.88283 30.5703 2.88281 30.5703L2.71289 30.3594L2.53125 30.1309C2.36141 29.9151 2.23291 29.6755 2.14453 29.416L2.05078 29.1523L1.96289 28.8828C1.89784 28.6917 1.83469 28.4972 1.78125 28.3027L1.71094 28.0332L1.63477 27.7637C1.5942 27.6161 1.54389 27.469 1.48242 27.3242L1.37109 27.0605L1.25977 26.8027C1.11319 26.4574 1.09891 26.0897 1.19531 25.7422L1.2832 25.4434L1.35938 25.1738L1.20117 24.9395L1.03125 24.6816C0.860136 24.4217 0.747439 24.133 0.708984 23.8203L0.638672 23.2578C0.59994 22.9418 0.644407 22.6319 0.755859 22.3379L0.861328 22.0508L0.966797 21.7695C0.979857 21.7352 0.980225 21.7187 0.972656 21.6934L0.884766 21.4062L0.796875 21.125C0.68435 20.7597 0.713328 20.3827 0.873047 20.0352L1.11914 19.4961C1.16443 19.3974 1.18434 19.3065 1.18945 19.2207L1.22461 18.6582C1.23672 18.4459 1.25937 18.235 1.29492 18.0254L1.38867 17.4746C1.43142 17.2232 1.50813 16.9792 1.61719 16.748L1.73438 16.4902L1.85742 16.2383C1.88736 16.1749 1.90508 16.099 1.9043 16.0098L1.89844 15.7168V15.4238C1.89533 15.0717 1.99585 14.7341 2.20312 14.4453L2.54297 13.9766C2.65444 13.8212 2.76276 13.6653 2.87109 13.5137L3.19922 13.0566C3.21864 13.0293 3.24126 12.9908 3.24609 12.916L3.26367 12.6055L3.28125 12.3008C3.30067 11.9756 3.39523 11.6635 3.58008 11.3867L3.89648 10.918C3.98164 10.7904 4.05636 10.6548 4.125 10.5137L4.24805 10.2559L4.37695 9.99805C4.52302 9.69802 4.74434 9.4561 5.02148 9.27734L5.26758 9.11328L5.51953 8.95508L5.53125 8.94336C5.53147 8.94307 5.54219 8.93636 5.54883 8.91406L5.63672 8.61523L5.71875 8.31641C5.81402 7.99212 5.9901 7.69985 6.25195 7.47266L6.68555 7.09766C6.92563 6.88961 7.20823 6.75487 7.51172 6.67578L7.82227 6.59375L8.11523 6.51172L8.25 6.27148L8.39648 6.00781C8.51876 5.78227 8.66136 5.57018 8.83008 5.38086L9.0293 5.16406L9.22266 4.94727C9.39769 4.75126 9.59834 4.58253 9.82031 4.44336L10.3008 4.13867C10.5029 4.01193 10.7163 3.90262 10.9395 3.81641L11.209 3.7168L11.4785 3.61133C11.7226 3.51711 11.9775 3.45632 12.2402 3.42969L12.8379 3.37109C12.8554 3.36918 12.8642 3.36666 12.8672 3.36523C12.8705 3.36366 12.8766 3.3557 12.8906 3.3418L13.1074 3.13086L13.3184 2.91406C13.5404 2.69157 13.8061 2.52323 14.1094 2.42773L14.3789 2.3457L14.6484 2.25781C14.8705 2.18788 15.1025 2.14194 15.334 2.11133L15.6152 2.07031L15.8965 2.03516C16.0578 2.01382 16.2171 1.98507 16.3711 1.94727L16.6465 1.87695L16.916 1.8125C17.0738 1.77368 17.2334 1.72696 17.3906 1.67188L17.6602 1.57227L17.9297 1.47852C18.1226 1.41089 18.3179 1.34783 18.5156 1.29102L18.791 1.21484L19.0723 1.13281C19.4204 1.03346 19.7732 1.05815 20.1035 1.17969L20.3906 1.28516L20.6836 1.39062L20.8125 1.43164L21.0117 1.4082L21.1289 1.39648C21.1866 1.362 21.2276 1.32085 21.2637 1.30859C21.392 1.26522 21.5039 1.26705 21.5332 1.26758C21.6131 1.26922 21.6831 1.28476 21.7148 1.29102C21.7942 1.30665 21.8925 1.33334 21.9902 1.36133L22.2715 1.4375Z" fill="#1E1E1E"/>
</svg>
