<svg width="133" height="52" viewBox="0 0 133 52" fill="none" xmlns="http://www.w3.org/2000/svg">
<path d="M1.5 6C1.5 3.79086 3.29086 2 5.5 2H127.5C129.709 2 131.5 3.79086 131.5 6V46C131.5 48.2091 129.709 50 127.5 50H5.5C3.29086 50 1.5 48.2091 1.5 46V6Z" fill="#1E1E1E"/>
<path d="M97.4473 0.822266C97.7992 0.812705 98.125 0.918961 98.4141 1.0918L98.6953 1.25586L98.9766 1.42578C99.0642 1.47822 99.1191 1.48457 99.1465 1.48438H99.4277L99.709 1.47852C99.847 1.47687 99.9897 1.46105 100.131 1.43164L100.693 1.31445C100.871 1.27747 101.049 1.23545 101.227 1.19141L101.789 1.05078C102.089 0.976547 102.395 0.976356 102.697 1.04492L103.26 1.17383C103.484 1.22472 103.708 1.28866 103.928 1.37305L104.209 1.48438L104.49 1.58984C104.53 1.60505 104.552 1.60836 104.578 1.60156L104.859 1.51953L105.141 1.44336C105.373 1.37869 105.612 1.33868 105.85 1.32031L106.412 1.27344C106.658 1.25449 106.906 1.26377 107.15 1.30273L107.713 1.39648C107.773 1.40577 107.836 1.39921 107.912 1.37305L108.193 1.27344L108.475 1.17969L108.762 1.10938C109.05 1.0703 109.338 1.12244 109.605 1.25L110.168 1.51953C110.281 1.57309 110.38 1.59462 110.467 1.60156L111.029 1.64844C111.037 1.64909 111.073 1.65179 111.146 1.60742L111.709 1.26758C111.993 1.0967 112.313 0.990813 112.658 0.992188H112.939L113.221 0.998047C113.454 0.999232 113.687 1.0195 113.918 1.0625L115.043 1.27344L115.324 1.32031L115.605 1.37305C115.618 1.37519 115.64 1.37603 115.693 1.34961L116.256 1.06836L116.596 0.951172C116.936 0.884268 117.275 0.96831 117.568 1.16211L117.85 1.34375L118.148 1.54297L118.406 1.49023L118.688 1.43164C118.972 1.3718 119.264 1.36585 119.549 1.41992L119.83 1.47852L120.111 1.53125C120.176 1.54308 120.242 1.53594 120.316 1.51367L120.879 1.34961C121.157 1.26592 121.445 1.23196 121.734 1.26172L122.297 1.32031C122.431 1.33401 122.567 1.3351 122.701 1.32031L122.982 1.29102L123.264 1.25586C123.568 1.22275 123.868 1.2611 124.154 1.36133L124.436 1.46094L124.682 1.55469L124.957 1.40234L125.238 1.25L125.549 1.12695C125.764 1.07054 125.984 1.06535 126.199 1.12109L126.516 1.25L126.797 1.40234L127.043 1.53711L127.289 1.43164L127.576 1.31445C127.872 1.1933 128.183 1.14265 128.502 1.16211L128.812 1.17969L129.123 1.20312C129.54 1.22901 129.903 1.41442 130.166 1.73633L130.365 1.97656L130.559 2.22266C130.715 2.41461 130.853 2.61395 130.969 2.82031L131.109 3.06641L131.244 3.3125C131.326 3.45973 131.416 3.60266 131.508 3.74023L131.666 3.97461L131.818 4.20312C131.958 4.41201 132.067 4.64265 132.152 4.88281L132.352 5.43359C132.45 5.71049 132.494 6.00095 132.475 6.29492L132.451 6.57617L132.434 6.85742C132.42 7.05999 132.401 7.26478 132.375 7.4668L132.305 8.0293C132.293 8.1205 132.298 8.2129 132.322 8.31055L132.393 8.5918L132.469 8.87305C132.557 9.21974 132.527 9.57099 132.398 9.89844L132.176 10.4609C132.174 10.4666 132.171 10.4702 132.17 10.4727C132.17 10.4739 132.173 10.4829 132.176 10.4902L132.281 10.7715L132.381 11.0527C132.519 11.4292 132.501 11.8177 132.34 12.1777L132.217 12.459L132.088 12.7402L132.193 13.0156L132.299 13.2969C132.429 13.6441 132.436 14.0104 132.316 14.3633L132.217 14.6445L132.123 14.9258C132.076 15.0635 132.043 15.2003 132.029 15.3301L131.971 15.8926C131.969 15.9101 131.968 15.9456 132.006 16.0156L132.311 16.5781C132.517 16.9609 132.545 17.3937 132.363 17.8027L132.234 18.084L132.111 18.3652C132.065 18.47 132.048 18.5624 132.047 18.6406L132.035 19.2031C132.034 19.2756 132.047 19.3576 132.088 19.4551L132.205 19.7363L132.328 20.0176C132.485 20.3885 132.488 20.7867 132.334 21.1602L132.217 21.4414L132.1 21.7168L132.217 21.9922L132.334 22.2734C132.484 22.6337 132.496 23.018 132.357 23.3867L132.146 23.9492C132.114 24.036 132.111 24.1114 132.117 24.1777L132.141 24.459L132.17 24.7402C132.196 25.007 132.175 25.2749 132.117 25.5371L132.059 25.8184L131.994 26.0996C131.97 26.2093 131.966 26.3167 131.977 26.4219L132.035 26.9844C132.053 27.1593 132.073 27.3366 132.1 27.5117L132.146 27.793L132.188 28.0742C132.23 28.3526 132.218 28.6312 132.158 28.9062L132.1 29.1875L132.035 29.4688C132.031 29.4858 132.029 29.5113 132.053 29.5625L132.311 30.125C132.495 30.5308 132.473 30.9641 132.27 31.3496L132.117 31.6309L131.971 31.9121C131.937 31.9762 131.94 32.0076 131.941 32.0234L132.012 32.5859C132.04 32.8035 132.057 33.0238 132.059 33.2422V33.8047C132.06 34.0209 132.053 34.2394 132.029 34.4551L131.994 34.7363L131.965 35.0176C131.949 35.1637 131.945 35.3114 131.953 35.457L131.988 36.0195C132.001 36.2383 131.998 36.4571 131.982 36.6758L131.965 36.957L131.941 37.2383C131.928 37.4315 131.913 37.6252 131.895 37.8184L131.865 38.0996L131.836 38.3457C131.836 38.3459 131.845 38.3694 131.877 38.4102L132.094 38.6914L132.316 38.9727C132.581 39.3097 132.723 39.7558 132.568 40.2324L132.475 40.5137L132.387 40.7949C132.356 40.8887 132.345 40.9724 132.352 41.0527L132.381 41.334L132.404 41.6152C132.42 41.7899 132.438 41.9677 132.463 42.1426L132.545 42.7051C132.584 42.9837 132.572 43.2627 132.51 43.5371L132.381 44.0996C132.353 44.2218 132.34 44.3457 132.346 44.4629L132.363 44.7441L132.375 45.0254C132.386 45.2437 132.386 45.4626 132.369 45.6816L132.346 45.9688L132.322 46.25C132.304 46.4811 132.268 46.71 132.211 46.9355L132.141 47.2109L132.07 47.4922C131.987 47.821 131.812 48.1085 131.561 48.3359L131.139 48.7227C131.066 48.7886 131 48.8667 130.951 48.9629L130.822 49.2207L130.688 49.4844C130.55 49.7534 130.356 49.988 130.125 50.1816L129.891 50.3809L129.656 50.5742C129.359 50.8232 128.995 50.9525 128.607 50.9434L128.303 50.9375L127.992 50.9258C127.803 50.9213 127.623 50.9237 127.453 50.9316L127.166 50.9492L126.885 50.9609C126.569 50.9757 126.262 50.9128 125.977 50.7852L125.695 50.6562L125.414 50.5332C125.325 50.4935 125.256 50.478 125.197 50.4805L124.916 50.498L124.635 50.5098C124.511 50.5156 124.38 50.5349 124.248 50.5742L123.967 50.6621L123.686 50.7441C123.454 50.813 123.219 50.8615 122.982 50.8848L122.701 50.9082L122.42 50.9375C122.165 50.9624 121.911 50.9525 121.658 50.9082L121.377 50.8613L121.096 50.8086C120.955 50.7838 120.813 50.7716 120.674 50.7734L120.111 50.7852C119.924 50.7879 119.731 50.7885 119.543 50.791L119.262 50.7969H118.98C118.793 50.7993 118.605 50.8014 118.418 50.8027L118.137 50.8086H117.855C117.651 50.81 117.445 50.8034 117.24 50.791L116.678 50.7559C116.475 50.7436 116.271 50.7275 116.068 50.7031L115.506 50.6328C115.313 50.6095 115.119 50.5856 114.926 50.5566L114.645 50.5156L114.363 50.4688C114.355 50.4675 114.327 50.4641 114.264 50.498L113.701 50.8027C113.445 50.9395 113.172 51.0336 112.887 51.0723L112.605 51.1074L112.324 51.1484C112.079 51.1815 111.832 51.1845 111.586 51.1602L111.023 51.1016C110.701 51.0694 110.401 50.9552 110.133 50.7852L109.852 50.6094L109.594 50.4395L109.377 50.5215L109.096 50.6211C108.758 50.7385 108.401 50.7461 108.059 50.6387L107.777 50.5449L107.496 50.457C107.473 50.4503 107.457 50.4514 107.426 50.4629L106.863 50.6738C106.588 50.7771 106.297 50.8284 106.002 50.8145L105.721 50.7969L105.439 50.7852C105.248 50.7759 105.051 50.7624 104.859 50.75L104.297 50.7148C104.211 50.7096 104.121 50.723 104.021 50.7559L103.74 50.8496L103.459 50.9375C103.122 51.0486 102.772 51.0563 102.434 50.9492L102.152 50.8555L101.871 50.7676C101.831 50.755 101.8 50.7549 101.76 50.7676L101.197 50.9434C100.945 51.0226 100.686 51.0683 100.424 51.0723L100.143 51.0781H99.8613C99.6786 51.0807 99.4932 51.0844 99.3105 51.0898L99.0293 51.1016L98.748 51.1074C98.5556 51.1131 98.3605 51.1177 98.168 51.1191H97.8867L97.6055 51.125C97.249 51.1276 96.9191 51.0138 96.6328 50.832L96.3516 50.6504L96.0938 50.4863L95.8828 50.5684L95.6016 50.668C95.3097 50.7732 95.0041 50.8117 94.6934 50.7734L94.4121 50.7441L94.1309 50.709C94.0898 50.704 94.0399 50.7063 93.9668 50.7383L93.4043 50.9844C92.9797 51.1723 92.5367 51.1272 92.1562 50.9023L91.875 50.7383L91.6113 50.5859L91.3887 50.668L91.1074 50.7734C90.8069 50.8837 90.4899 50.9171 90.1699 50.8672L89.8887 50.8262L89.6074 50.7793C89.4473 50.7543 89.2862 50.7393 89.127 50.7324L88.5645 50.709C88.3754 50.7008 88.1851 50.6952 87.9961 50.6855L87.7148 50.668L87.4336 50.6562C87.3548 50.6524 87.2677 50.661 87.1699 50.6973L86.6074 50.9082C86.3552 51.0016 86.094 51.0568 85.8281 51.0723L85.2656 51.1074C84.9498 51.1256 84.6431 51.0629 84.3574 50.9375L83.7949 50.6914C83.6463 50.6262 83.5027 50.5735 83.3613 50.5391L83.0801 50.4746L82.7988 50.4043C82.7086 50.3824 82.6209 50.3784 82.5352 50.3926L81.9727 50.4863C81.8269 50.5107 81.6776 50.5473 81.5273 50.5977L81.2461 50.6973L80.9648 50.791C80.6797 50.887 80.3806 50.9233 80.0801 50.8906L79.7988 50.8555L79.5176 50.8262C79.3402 50.8067 79.1617 50.7918 78.9844 50.7793L78.7031 50.7617L78.4219 50.7383C78.251 50.7263 78.077 50.7213 77.9062 50.7207H77.3438C77.1431 50.72 76.9408 50.709 76.7402 50.6973L76.459 50.6855L76.1777 50.668C76.113 50.6644 76.0389 50.6722 75.9492 50.709L75.3867 50.9434C75.1168 51.055 74.8296 51.1179 74.5371 51.1191H73.9746C73.629 51.1203 73.31 51.0151 73.0254 50.8438L72.4629 50.5039L72.4512 50.498L72.1934 50.5684L71.9121 50.6387C71.6598 50.7046 71.4036 50.7387 71.1445 50.7324L70.8633 50.7266L70.582 50.7148C70.3937 50.7101 70.202 50.7085 70.0137 50.7031L69.7324 50.6914L69.4512 50.6855C69.312 50.6816 69.1702 50.6919 69.0293 50.7148L68.4668 50.8086C68.1132 50.8657 67.7706 50.8012 67.459 50.6504L67.1777 50.5156L66.9434 50.3984L66.709 50.5156L66.4277 50.6504C66.1598 50.7806 65.8707 50.8636 65.5723 50.8789L65.291 50.8906L65.0098 50.9082C64.7074 50.9234 64.4104 50.867 64.1309 50.7559L63.5684 50.5332L63.5508 50.5273C63.5491 50.5276 63.5406 50.5248 63.5332 50.5273L62.9707 50.7266C62.6243 50.8481 62.2631 50.8524 61.916 50.7324L61.3535 50.5332C61.2624 50.5016 61.1819 50.497 61.1074 50.5039L60.8262 50.5273L60.5449 50.5566C60.3442 50.5756 60.1423 50.5897 59.9414 50.5977L59.6602 50.6094L59.3789 50.6152C59.138 50.6248 58.8968 50.6102 58.6582 50.5684L58.377 50.5215L58.0957 50.4688C58.0378 50.4586 57.9753 50.4615 57.9023 50.4863L57.6211 50.5859L57.3398 50.6797C57.0199 50.7887 56.6862 50.8028 56.3555 50.7207L56.0742 50.6504L55.793 50.5859C55.6208 50.5432 55.4489 50.5005 55.2773 50.4688L54.9961 50.4219L54.7148 50.3691C54.6914 50.3648 54.6565 50.36 54.5977 50.3867L54.0352 50.6445C53.7511 50.7744 53.4437 50.8451 53.127 50.832L52.5645 50.8086C52.4267 50.8031 52.2877 50.8107 52.1484 50.832L51.5859 50.9141C51.2709 50.9623 50.958 50.931 50.6602 50.8262L50.3789 50.7266L50.1035 50.627L50.0977 50.6328L49.5352 50.8906C49.2419 51.0256 48.9263 51.0944 48.5977 51.0664L48.3164 51.043L48.0352 51.0137C47.7351 50.9879 47.4507 50.8965 47.1855 50.7559L46.9043 50.6094L46.6523 50.4688L46.4121 50.5684L46.1309 50.6855C45.9061 50.7766 45.6766 50.8462 45.4453 50.8965L45.1641 50.9609L44.8828 51.0195C44.641 51.072 44.3961 51.0993 44.1504 51.0957L43.5879 51.084C43.3658 51.0806 43.1409 51.0651 42.9199 51.0312L42.6387 50.9844L42.3574 50.9434C42.1172 50.9064 41.8805 50.8431 41.6484 50.7559L41.3672 50.6504L41.0859 50.5391H41.0742L41.0625 50.5449L40.5 50.7676C40.2215 50.8786 39.9283 50.9333 39.627 50.9199L39.0645 50.8965C38.8475 50.8868 38.63 50.8613 38.4141 50.8262L38.1328 50.7793L37.8516 50.7383C37.705 50.7145 37.5571 50.7023 37.4121 50.7031H36.8496C36.7017 50.7041 36.5536 50.7203 36.4043 50.7441L36.123 50.7852L35.8418 50.832C35.6545 50.862 35.4666 50.89 35.2793 50.9199L34.7168 51.0137C34.3735 51.0686 34.0358 51.0114 33.7266 50.873L33.4453 50.75L33.1641 50.6211C33.0829 50.5853 33.0212 50.5766 32.9707 50.5801L32.4082 50.627C32.2342 50.6403 32.0551 50.6568 31.8809 50.6797L31.5996 50.7148L31.3184 50.7559C31.1135 50.7827 30.9084 50.8031 30.7031 50.8145L30.4219 50.8262L30.1406 50.8438C29.818 50.8616 29.5083 50.7901 29.2207 50.6562L28.9395 50.5273L28.7812 50.4512L28.582 50.6094L28.3008 50.8203C28.0014 51.0457 27.629 51.191 27.2109 51.1484L26.6484 51.0898C26.4734 51.0718 26.296 51.0582 26.1211 51.0488L25.8398 51.0371L25.5586 51.0195C25.2281 51.0018 24.9199 50.8941 24.6445 50.7266L24.3633 50.5566L24.082 50.3809C23.9938 50.3277 23.9386 50.3221 23.9121 50.3223H23.6309L23.3496 50.3281C23.178 50.3289 23.0057 50.3344 22.834 50.3457L22.2715 50.3809C22.1916 50.3862 22.0994 50.4096 21.9902 50.4629L21.709 50.5977L21.4277 50.7383C21.1881 50.8553 20.9391 50.9388 20.6836 50.9902L20.1211 51.1074C19.8259 51.1667 19.5286 51.1546 19.2363 51.084L18.9551 51.0195L18.6738 50.9492C18.5736 50.9249 18.4755 50.9195 18.3809 50.9316L18.0996 50.9668L17.8184 51.0078C17.5674 51.0401 17.3134 51.0402 17.0625 51.0078L16.7812 50.9668L16.5 50.9316C16.3091 50.907 16.1166 50.8833 15.9258 50.8555L15.3633 50.7734C15.2375 50.7552 15.113 50.7494 14.9883 50.7617L14.4258 50.8203C14.0976 50.8533 13.7776 50.7934 13.4824 50.6621L13.2012 50.5332L12.9199 50.4102C12.869 50.3874 12.8406 50.3885 12.8203 50.3926L12.5391 50.4512L12.2578 50.5156C12.0446 50.5613 11.8279 50.5931 11.6133 50.6152L11.0508 50.6738C10.9174 50.6876 10.7806 50.717 10.6406 50.7617L10.3594 50.8496L10.0781 50.9434C9.72297 51.057 9.3556 51.0421 9.01172 50.9082L8.44922 50.6855C8.37444 50.6567 8.31372 50.6548 8.26172 50.6621L7.98047 50.6973L7.69922 50.7383C7.45962 50.7716 7.21919 50.7805 6.97852 50.7617L6.41602 50.7148C6.25417 50.7022 6.09113 50.6993 5.92969 50.7031L5.36719 50.7148C5.12728 50.7205 4.8887 50.701 4.65234 50.6562L4.37109 50.6035L4.0957 50.5508C3.89912 50.5135 3.69231 50.4712 3.48047 50.4219L2.87109 50.2812C2.65456 50.2306 2.44361 50.1257 2.26758 49.9531C2.09298 49.7818 1.98634 49.5738 1.92773 49.3672L1.83984 49.0566L1.75195 48.7402C1.72351 48.6399 1.67927 48.5796 1.64062 48.541L1.22461 48.125C0.919551 47.8199 0.785721 47.42 0.84375 46.9941L0.925781 46.4082C0.934355 46.3459 0.928097 46.2852 0.902344 46.2207L0.785156 45.9395L0.673828 45.6641C0.500877 45.2391 0.559538 44.8023 0.779297 44.4336L0.943359 44.1523L1.11328 43.8711C1.15997 43.7924 1.16074 43.7496 1.16016 43.7305L1.13672 43.168C1.132 43.065 1.11131 42.9524 1.06641 42.834L0.960938 42.5527L0.849609 42.2715C0.734767 41.9679 0.70201 41.647 0.755859 41.3223L0.849609 40.7598C0.882701 40.5608 0.917925 40.3607 0.960938 40.1621L1.02539 39.8809L1.08398 39.5996C1.11653 39.4495 1.13412 39.2961 1.14258 39.1484L1.17773 38.5859C1.1853 38.4507 1.18032 38.3124 1.16016 38.1758L1.07812 37.6133C1.0449 37.3873 1.02767 37.1609 1.03125 36.9336L1.03711 36.6523V36.3711C1.04025 36.1763 1.05115 35.9799 1.06055 35.7852L1.08398 35.2227C1.08684 35.1635 1.0775 35.0903 1.03711 35L0.914062 34.7188L0.785156 34.4375C0.645773 34.1255 0.596404 33.7873 0.65625 33.4414L0.75 32.8789C0.769432 32.7666 0.776104 32.6558 0.761719 32.5449L0.720703 32.2637L0.685547 31.9824C0.663219 31.8136 0.632665 31.6422 0.597656 31.4727L0.480469 30.9102C0.424913 30.6414 0.415115 30.3675 0.451172 30.0957L0.492188 29.8145L0.527344 29.5332C0.54342 29.4123 0.543901 29.2909 0.527344 29.1699L0.486328 28.8887L0.451172 28.6074C0.415698 28.3477 0.415813 28.0871 0.457031 27.8281L0.550781 27.2656C0.582257 27.0693 0.617597 26.87 0.65625 26.6738L0.708984 26.3926L0.767578 26.1113C0.795865 25.9676 0.806637 25.8248 0.808594 25.6836L0.820312 25.1211C0.821879 25.0074 0.806317 24.8906 0.773438 24.7695L0.697266 24.4883L0.615234 24.207C0.551579 23.9744 0.515552 23.7354 0.498047 23.498L0.451172 22.9355C0.428923 22.631 0.483194 22.3338 0.591797 22.0508L0.802734 21.4883C0.862529 21.3325 0.908779 21.1768 0.943359 21.0254L1.07227 20.4629C1.08033 20.4268 1.08142 20.3887 1.06055 20.334L0.849609 19.7715C0.745684 19.4986 0.693922 19.2145 0.703125 18.9219L0.708984 18.6406L0.720703 18.3594C0.72625 18.1882 0.72615 18.0149 0.720703 17.8438L0.708984 17.5625L0.703125 17.2812C0.695084 17.0294 0.718045 16.7786 0.773438 16.5312L0.837891 16.25L0.896484 15.9688C0.908871 15.9135 0.910932 15.8573 0.890625 15.793L0.714844 15.2305C0.617256 14.9208 0.597364 14.6002 0.667969 14.2812L0.732422 14L0.791016 13.7188C0.793509 13.7075 0.801135 13.6898 0.779297 13.6426L0.509766 13.0801C0.317349 12.6739 0.332995 12.2348 0.539062 11.8438L0.685547 11.5625L0.832031 11.2988L0.738281 11.0469L0.632812 10.7656C0.527645 10.4816 0.483553 10.1848 0.509766 9.88086L0.556641 9.31836C0.576633 9.08885 0.6154 8.85881 0.673828 8.63281L0.75 8.35156L0.820312 8.07031C0.843465 7.98094 0.84538 7.89574 0.832031 7.8125L0.791016 7.53125L0.744141 7.25C0.70263 6.99098 0.697209 6.7303 0.732422 6.4707L0.773438 6.18945L0.808594 5.9082C0.836423 5.70424 0.872226 5.50188 0.914062 5.30469L0.972656 5.04102L1.03125 4.77148C1.08652 4.51097 1.18062 4.26106 1.31836 4.0332L1.45898 3.80469L1.59961 3.57031C1.73991 3.33822 1.91886 3.13364 2.13281 2.9668L2.34375 2.80273L2.56055 2.63867C2.60345 2.60494 2.66143 2.5358 2.73047 2.41016L2.89453 2.11719L3.05273 1.82422L3.25195 1.54883C3.33069 1.46371 3.42363 1.38395 3.5332 1.32031C3.75719 1.19048 4.00088 1.14759 4.23047 1.16211L4.54102 1.18555L4.85156 1.20312C5.0544 1.21595 5.19229 1.22737 5.26172 1.23242L5.36133 1.23828L5.45508 1.24414C5.60997 1.25546 5.81376 1.31135 5.98828 1.36133L6.26953 1.4375L6.55078 1.51953C6.62861 1.54178 6.69745 1.54436 6.76758 1.53125L7.33008 1.42578C7.49931 1.39405 7.66982 1.35874 7.83984 1.31445L8.12109 1.23828L8.40234 1.16797C8.64469 1.10476 8.89257 1.06749 9.14062 1.0625L9.70312 1.05078C10.0062 1.04475 10.2998 1.10766 10.5762 1.22656L11.1387 1.47266C11.146 1.47581 11.153 1.47758 11.1562 1.47852C11.1564 1.4785 11.1621 1.47461 11.168 1.47266L11.7305 1.28516C11.9805 1.20136 12.2373 1.1561 12.498 1.14453L12.7793 1.12695L13.0605 1.11523C13.2652 1.10617 13.4711 1.10432 13.6758 1.10938L13.957 1.11523L14.2383 1.12695C14.3733 1.13021 14.5109 1.11686 14.6484 1.0918L14.9297 1.03906L15.2109 0.992188C15.5089 0.938045 15.8095 0.949487 16.1016 1.02734L16.3828 1.10352L16.6641 1.17383C16.7981 1.20946 16.9281 1.23326 17.0566 1.23828L17.3379 1.25L17.6191 1.25586C17.8373 1.26404 18.0583 1.28555 18.2754 1.32031L18.8379 1.41406C18.9499 1.43192 19.0603 1.43038 19.1719 1.41406L19.7344 1.33203C19.8735 1.31163 20.0167 1.27674 20.1621 1.22656L20.4434 1.13281L20.7246 1.0332C21.0006 0.938004 21.288 0.897226 21.5801 0.916016L22.1426 0.951172C22.3199 0.96257 22.4985 0.970325 22.6758 0.974609L23.2383 0.986328C23.4408 0.991252 23.6453 1.00407 23.8477 1.02148L24.4102 1.06836C24.5548 1.0807 24.6992 1.08589 24.8438 1.07422L25.4062 1.02734C25.7582 0.998678 26.0927 1.08202 26.3906 1.24414L26.9531 1.54883C26.9671 1.55645 26.9764 1.56429 26.9824 1.56641H26.9883L27.5508 1.4375C27.6964 1.40372 27.8445 1.35333 27.9961 1.29102L28.2773 1.17969L28.5586 1.0625C28.9378 0.906651 29.3408 0.915228 29.7129 1.08008L30.2754 1.32617C30.3205 1.34584 30.3405 1.3476 30.3574 1.34375L30.6387 1.27344L30.9199 1.20898C31.2114 1.14021 31.5108 1.13271 31.8047 1.19141L32.0859 1.25L32.3672 1.30273C32.388 1.30679 32.4175 1.31026 32.4727 1.28516L33.0352 1.02734L33.3867 0.927734C33.6195 0.894586 33.8468 0.927062 34.0547 1.01562L34.3535 1.18555L34.6348 1.39648L34.9043 1.60156L35.127 1.54297L35.4082 1.4668C35.6438 1.40595 35.8825 1.37166 36.123 1.36133L36.6855 1.33789C36.8623 1.33037 37.0419 1.31789 37.2188 1.30273L37.7812 1.25586C37.9624 1.24032 38.1449 1.22294 38.3262 1.20312L38.6074 1.16797L38.8887 1.13867C39.0985 1.11578 39.3113 1.10115 39.5215 1.09766H39.8027L40.084 1.0918C40.4056 1.08692 40.7106 1.16651 40.9922 1.30859L41.2734 1.44922L41.4199 1.53125L41.6133 1.38477L41.8945 1.17383L42.1875 0.998047C42.2957 0.95156 42.4172 0.918389 42.5449 0.904297C42.6747 0.890238 42.8009 0.89694 42.9199 0.921875L43.2539 1.04492L43.5352 1.19727L43.8164 1.34375C43.9396 1.40878 44.0522 1.44461 44.1504 1.46094L44.4316 1.50781L44.6953 1.55469C44.6975 1.55408 44.7133 1.54999 44.7422 1.53125L45.3047 1.15625C45.5855 0.971509 45.9079 0.849902 46.2598 0.839844L46.8223 0.828125C47.2231 0.816669 47.5773 0.970375 47.8652 1.19141L48.1465 1.40234L48.3691 1.57812L48.5332 1.50781L48.8145 1.39648C49.1591 1.259 49.529 1.2411 49.8867 1.35547L50.168 1.44922L50.4316 1.53125L50.7129 1.37891L50.9941 1.23242L51.3047 1.10938C51.5136 1.05583 51.7277 1.05793 51.9375 1.10938L52.2539 1.22656L52.8164 1.51953C52.9174 1.57146 52.9983 1.58719 53.0625 1.58984L53.625 1.61328C53.6285 1.61341 53.6348 1.61151 53.6484 1.60742C53.6649 1.60227 53.6993 1.59503 53.7422 1.56641L54.0234 1.37305L54.3047 1.18555C54.5799 1.00257 54.8931 0.877803 55.2363 0.857422L55.5176 0.845703L55.7988 0.828125C56.1351 0.808283 56.4563 0.884359 56.748 1.0332L57.0293 1.17969L57.3105 1.32031L57.3164 1.32617L57.3105 1.33203H57.3281V1.32617L57.5918 1.24414L57.873 1.15625C58.1831 1.0614 58.5048 1.0484 58.8223 1.12109L59.3848 1.25C59.4827 1.27257 59.5782 1.27539 59.6719 1.26172L60.2344 1.17969C60.4973 1.14119 60.7629 1.14359 61.0254 1.18555L61.5879 1.2793C61.6798 1.29386 61.7738 1.28903 61.8691 1.26758L62.4316 1.13867C62.7666 1.06393 63.1047 1.09619 63.4219 1.21484L63.7031 1.32031L63.9844 1.41992C64.117 1.46942 64.2431 1.50586 64.3652 1.51953L64.9277 1.57812C65.0863 1.59586 65.2443 1.60794 65.4023 1.60742L65.6836 1.60156H65.9648C66.063 1.60121 66.1684 1.58291 66.2812 1.54297L66.5625 1.44922L66.8438 1.34961C67.0496 1.27677 67.2576 1.21146 67.4648 1.15625L68.0273 1.00391C68.3328 0.922825 68.645 0.919408 68.9531 0.992188L69.2344 1.05664L69.5156 1.12695C69.6164 1.15078 69.7129 1.15095 69.8086 1.13867L70.3711 1.06836C70.7431 1.02014 71.0943 1.10904 71.4023 1.28516L71.6836 1.44336L71.9648 1.60742L71.9824 1.61914L72.2578 1.55469L72.5391 1.48438C72.7037 1.4441 72.8707 1.395 73.0371 1.33789L73.3184 1.24414L73.5996 1.14453C73.9362 1.02898 74.2897 1.02097 74.6309 1.12695L75.1934 1.30273C75.2837 1.33055 75.367 1.33548 75.4453 1.32617L75.7266 1.29688L76.0078 1.26172C76.1874 1.24033 76.3672 1.21757 76.5469 1.19141L77.1094 1.10938C77.4276 1.06301 77.7427 1.09893 78.041 1.20898L78.3223 1.31445L78.5742 1.4082L78.8438 1.26758L79.125 1.12109C79.447 0.954793 79.8078 0.888163 80.1797 0.962891L80.4609 1.02148L80.7422 1.07422C80.8177 1.08937 80.8911 1.08875 80.9707 1.06836L81.5332 0.927734C81.8355 0.850285 82.1428 0.846269 82.4473 0.916016L83.0098 1.04492C83.1077 1.06743 83.2032 1.06979 83.2969 1.05664L83.8594 0.974609C84.2651 0.916277 84.6392 1.0355 84.9492 1.24414L85.2305 1.43164L85.4766 1.60742L85.6875 1.52539L87.0938 1.02734C87.4272 0.910648 87.7782 0.903078 88.1191 1.00391L88.6816 1.16797C88.8807 1.22685 89.0807 1.29216 89.2793 1.36133L89.8418 1.56055C89.8767 1.57242 89.8987 1.57036 89.9297 1.56055L90.2109 1.47266L90.4922 1.37891C90.8008 1.28122 91.123 1.26893 91.4414 1.33789L92.0039 1.45508C92.0661 1.4684 92.1281 1.46955 92.1973 1.44922L92.7598 1.28516C92.9448 1.23074 93.1314 1.1712 93.3164 1.11523L93.5977 1.0332L93.8789 0.945312C94.1987 0.849064 94.5284 0.845907 94.8516 0.933594L95.4141 1.08594C95.4763 1.10287 95.5348 1.10165 95.5957 1.08594L95.877 1.01562L96.1582 0.939453C96.3974 0.877884 96.6403 0.846576 96.8848 0.839844L97.166 0.828125L97.4473 0.822266ZM97.207 2.32812L96.9258 2.33984C96.7975 2.3434 96.6667 2.35828 96.5332 2.39258L96.252 2.46875L95.9707 2.53906C95.6566 2.62016 95.3343 2.61829 95.0215 2.5332L94.459 2.38086C94.4092 2.36733 94.3655 2.36516 94.3125 2.38086L94.0312 2.46875L93.75 2.55078C93.5612 2.6079 93.3705 2.66517 93.1816 2.7207L92.9004 2.80273L92.6191 2.89062C92.3146 2.98021 91.9991 2.99276 91.6875 2.92578L91.4062 2.86133L91.125 2.80273C91.0687 2.79054 91.0095 2.7935 90.9434 2.81445L90.3809 2.99023C90.0386 3.09829 89.6873 3.08989 89.3496 2.97266L89.0684 2.87891L88.7871 2.7793C88.6107 2.71784 88.4298 2.6614 88.2539 2.60938L87.9727 2.52734L87.6914 2.43945C87.6587 2.43017 87.632 2.43132 87.5918 2.44531L87.0293 2.64453C86.8441 2.70933 86.6578 2.77167 86.4727 2.83789L86.1914 2.94336L85.9102 3.04297C85.4652 3.20208 85.0283 3.1062 84.6738 2.86719L84.3926 2.67969L84.1113 2.48633C84.087 2.47007 84.072 2.45991 84.0645 2.45703L83.7949 2.49805L83.5137 2.53906C83.2332 2.57939 82.9519 2.5674 82.6758 2.50391L82.1133 2.375C82.0433 2.35893 81.9745 2.36236 81.9023 2.38086L81.3398 2.52148C81.0451 2.59671 80.7421 2.60495 80.4434 2.54492L80.1621 2.49219L79.8809 2.43359H79.8691C79.863 2.43456 79.8409 2.44134 79.8105 2.45703L79.5293 2.59766L79.248 2.74414C78.8857 2.93095 78.4788 2.97254 78.082 2.82617L77.5195 2.61523C77.4439 2.5877 77.3824 2.5836 77.3262 2.5918L76.7637 2.67383C76.5704 2.70199 76.377 2.72699 76.1836 2.75L75.6211 2.82031C75.3257 2.85545 75.0313 2.82592 74.748 2.73828L74.1855 2.5625C74.1518 2.552 74.1243 2.54931 74.0859 2.5625L73.8047 2.66211L73.5234 2.75586C73.3154 2.82726 73.1063 2.89204 72.8965 2.94336L72.6152 3.00781L72.334 3.07812C71.937 3.17514 71.5534 3.09867 71.2207 2.9082L70.9395 2.75L70.6582 2.58594C70.592 2.54818 70.567 2.55631 70.5645 2.55664L70.002 2.62695C69.7231 2.66302 69.4436 2.65067 69.1699 2.58594L68.8887 2.51562L68.6074 2.45117C68.5421 2.4359 68.4819 2.43917 68.4141 2.45703L68.1328 2.52734L67.8516 2.60352C67.6838 2.6482 67.511 2.70185 67.3418 2.76172L66.7793 2.96094C66.5179 3.0532 66.2468 3.10057 65.9707 3.10156H65.6895L65.4082 3.10742C65.192 3.10817 64.9735 3.09641 64.7578 3.07227L64.4766 3.03711L64.1953 3.00781C63.9439 2.97945 63.6979 2.91625 63.457 2.82617L62.8945 2.61523C62.8384 2.59423 62.7983 2.59509 62.7598 2.60352L62.1973 2.73242C61.918 2.79523 61.6303 2.80105 61.3477 2.75586L61.0664 2.71484L60.7852 2.66797C60.6736 2.65041 60.5623 2.6517 60.4512 2.66797L59.8887 2.75C59.6082 2.79089 59.327 2.77842 59.0508 2.71484L58.4883 2.58594C58.4316 2.57287 58.3767 2.57217 58.3125 2.5918L58.0312 2.67969L57.75 2.76172C57.3619 2.88042 56.9718 2.83319 56.625 2.65625L56.3438 2.51562L56.0625 2.36914C55.9807 2.32785 55.925 2.32001 55.8867 2.32227L55.3242 2.35742C55.2937 2.35944 55.2329 2.36996 55.1367 2.43359L54.5742 2.80859C54.2819 3.00354 53.9364 3.1288 53.5605 3.11328L52.998 3.08984C52.6893 3.07674 52.3965 2.99015 52.125 2.84961L51.8438 2.70312L51.627 2.5918L51.416 2.70898L51.1348 2.85547C50.7848 3.04127 50.3877 3.09276 49.9922 2.9668L49.7109 2.87891L49.4297 2.78516C49.4177 2.78133 49.4094 2.78518 49.4062 2.78516C49.4039 2.78525 49.3917 2.78279 49.3711 2.79102L48.8086 3.01367C48.3295 3.2048 47.8685 3.081 47.5137 2.80859L47.2324 2.5918L46.9512 2.38086C46.9066 2.34663 46.8749 2.3324 46.8633 2.32812L46.3008 2.33984C46.2768 2.34084 46.2223 2.35009 46.1309 2.41016L45.8496 2.59766L45.5684 2.7793C45.254 2.98612 44.8787 3.10342 44.4727 3.03711L43.9102 2.94336C43.6345 2.89826 43.3696 2.8059 43.1191 2.67383L42.8379 2.52148L42.6914 2.44531L42.5098 2.58594L42.2285 2.79688C42.0552 2.92611 41.8404 3.03012 41.5898 3.06055C41.3329 3.09164 41.0913 3.03796 40.8809 2.93164L40.5996 2.79102L40.3184 2.64453C40.2272 2.5985 40.1588 2.59113 40.1074 2.5918L39.8262 2.59766H39.5449C39.3814 2.60038 39.2167 2.61495 39.0527 2.63281L38.4902 2.69141C38.2977 2.71246 38.1028 2.73347 37.9102 2.75L37.3477 2.79688C37.1495 2.81386 36.9483 2.82359 36.75 2.83203L36.4688 2.84961L36.1875 2.86133C36.0551 2.86702 35.9205 2.88445 35.7832 2.91992L35.502 2.99609L35.2207 3.06641C34.7701 3.18316 34.354 3.05045 34.0254 2.80859L33.7441 2.60352L33.5273 2.44531L33.375 2.52148L33.0938 2.65039C32.7752 2.79548 32.4277 2.84365 32.0742 2.77344L31.793 2.7207L31.5117 2.66211C31.4306 2.64591 31.3492 2.64825 31.2656 2.66797L30.9844 2.73242L30.7031 2.80273C30.3461 2.88684 29.9926 2.84188 29.666 2.69727L29.3848 2.57422L29.1094 2.45117L28.8457 2.5625L28.5645 2.67969C28.3428 2.77071 28.1182 2.8436 27.8906 2.89648L27.3281 3.02539C26.9419 3.11485 26.5622 3.04665 26.2324 2.86719L25.6699 2.5625C25.594 2.52156 25.5522 2.51962 25.5293 2.52148L24.9668 2.56836C24.7383 2.58694 24.5097 2.58207 24.2812 2.5625L23.7188 2.51562C23.5474 2.50088 23.3743 2.49052 23.2031 2.48633L22.6406 2.47461C22.4431 2.46983 22.2405 2.45802 22.043 2.44531L21.4805 2.41016C21.3985 2.40524 21.3086 2.41745 21.2109 2.45117L20.9297 2.55078L20.6484 2.64453C20.4194 2.72344 20.1863 2.77998 19.9512 2.81445L19.3887 2.89648C19.1259 2.93491 18.86 2.93849 18.5977 2.89648L18.0352 2.80273C17.8784 2.77774 17.7221 2.76173 17.5664 2.75586L17.2852 2.74414L17.0039 2.73828C16.7594 2.72911 16.5163 2.69052 16.2773 2.62695L15.7148 2.47461C15.6332 2.45284 15.5562 2.44945 15.4805 2.46289L14.918 2.56836C14.6818 2.61142 14.4417 2.63264 14.2031 2.62695L13.9219 2.61523L13.6406 2.60938C13.4704 2.60517 13.2953 2.60769 13.125 2.61523L12.5625 2.63867C12.4491 2.64387 12.3291 2.66736 12.2051 2.70898L11.6426 2.89648C11.2745 3.01955 10.8973 3.00062 10.5469 2.84961L9.98438 2.60352C9.88665 2.5614 9.80335 2.54937 9.73242 2.55078L9.16992 2.5625C9.0438 2.56511 8.915 2.5809 8.7832 2.61523L8.50195 2.69141L8.2207 2.76172C8.01658 2.81496 7.81039 2.86392 7.60547 2.90234L7.04297 3.00781C6.73881 3.06458 6.4312 3.04582 6.13477 2.96094L5.85352 2.88477L5.57227 2.80273C5.48773 2.77855 5.42442 2.76061 5.37891 2.75C5.35622 2.74474 5.33981 2.73967 5.33203 2.73828C5.33558 2.73871 5.34227 2.73774 5.34961 2.73828L5.25 2.73242L5.15625 2.72656C5.09623 2.72218 4.9635 2.71613 4.75781 2.70312L4.44727 2.67969L4.29492 2.66797L4.20703 2.83789L4.04883 3.13086C3.90431 3.3941 3.71914 3.63637 3.48047 3.82227L3.05859 4.15039C2.99136 4.20274 2.9304 4.26503 2.88281 4.34375L2.60156 4.8125C2.55152 4.89559 2.51666 4.98509 2.49609 5.08203L2.4375 5.35156L2.38477 5.61523C2.35072 5.7757 2.3199 5.9444 2.29688 6.11328L2.25586 6.39453L2.2207 6.66992C2.20532 6.78278 2.20807 6.90033 2.22656 7.01562L2.26758 7.29688L2.31445 7.57812C2.36073 7.869 2.3472 8.16055 2.27344 8.44531L2.19727 8.72656L2.12695 9.00781C2.08863 9.15591 2.06337 9.3027 2.05078 9.44727L2.00391 10.0098C1.9979 10.0795 2.00604 10.1547 2.03906 10.2441L2.14453 10.5254L2.24414 10.8066C2.39239 11.2065 2.35274 11.6156 2.16211 11.9785L2.01562 12.2598L1.88672 12.4941L1.99805 12.7168L2.13281 12.998C2.28642 13.3225 2.33563 13.6783 2.25586 14.041L2.19727 14.3223L2.13281 14.6035C2.12051 14.6591 2.12421 14.7146 2.14453 14.7793L2.32031 15.3418C2.4184 15.6525 2.43308 15.9771 2.36133 16.2969L2.29688 16.5781L2.23828 16.8594C2.20982 16.9865 2.19335 17.1118 2.19727 17.2344L2.2207 17.7969C2.22714 17.9998 2.22142 18.2033 2.21484 18.4062L2.20898 18.6875L2.19727 18.9688C2.1947 19.0497 2.21165 19.1376 2.25 19.2383L2.46094 19.8008C2.5827 20.12 2.61397 20.4588 2.53711 20.7969L2.4082 21.3594C2.35714 21.583 2.28723 21.8082 2.20312 22.0273L1.99219 22.5898C1.95769 22.6801 1.94637 22.7551 1.95117 22.8242L1.96875 23.1055L1.99219 23.3867C2.00232 23.5242 2.02362 23.6664 2.0625 23.8086L2.13867 24.0898L2.2207 24.3711C2.2898 24.6238 2.32392 24.8843 2.32031 25.1445L2.30859 25.707C2.30521 25.9397 2.28363 26.1742 2.23828 26.4043L2.17969 26.6855L2.12695 26.9668C2.09196 27.1446 2.06168 27.3224 2.0332 27.5L1.93945 28.0625C1.9212 28.1764 1.91839 28.2892 1.93359 28.4023L2.01562 28.9648C2.05037 29.2188 2.04941 29.4783 2.01562 29.7324L1.97461 30.0137L1.93945 30.2949C1.92607 30.3972 1.92939 30.5001 1.95117 30.6055L2.06836 31.168C2.11067 31.3727 2.14667 31.5778 2.17383 31.7832L2.24414 32.3457C2.27894 32.6089 2.27773 32.8749 2.23242 33.1367L2.17969 33.418L2.13281 33.6992C2.1282 33.7278 2.12892 33.767 2.15625 33.8281L2.2793 34.1094L2.4082 34.3906C2.53475 34.6746 2.59921 34.978 2.58398 35.293L2.57227 35.5742L2.55469 35.8555C2.54602 36.0348 2.54 36.2152 2.53711 36.3945V36.6758L2.53125 36.957C2.52894 37.103 2.53884 37.2492 2.56055 37.3965L2.64258 37.959C2.6776 38.1963 2.68552 38.4351 2.67188 38.6738L2.66016 38.9551L2.64258 39.2363C2.62955 39.4637 2.59757 39.6911 2.54883 39.916L2.49023 40.1973L2.42578 40.4785C2.38778 40.6539 2.3553 40.8308 2.32617 41.0059L2.23242 41.5684C2.22453 41.617 2.22987 41.6691 2.25586 41.7383L2.4668 42.3008C2.56413 42.5574 2.62425 42.8256 2.63672 43.0977L2.66016 43.6602C2.67639 44.0162 2.57604 44.3466 2.40234 44.6387L2.23242 44.9199L2.08594 45.1602L2.17383 45.377L2.29102 45.6523C2.41506 45.9572 2.45286 46.2802 2.4082 46.6074L2.36719 46.9004L2.33789 47.1172L2.70117 47.4805C2.9408 47.7194 3.10274 48.0108 3.19336 48.3301L3.28125 48.6465L3.33398 48.8516L3.51562 48.8926L3.82031 48.9629C4.01336 49.0079 4.19731 49.0471 4.37109 49.0801L4.65234 49.1328L4.92773 49.1855C5.06162 49.211 5.19793 49.2239 5.33203 49.2207L5.61328 49.209L5.89453 49.2031C6.10692 49.1981 6.32091 49.2041 6.5332 49.2207L7.0957 49.2676C7.228 49.2778 7.36077 49.2745 7.49414 49.2559L8.05664 49.1738C8.37904 49.1287 8.695 49.1746 8.99414 49.291L9.27539 49.3965L9.55664 49.5078C9.57589 49.5153 9.58752 49.5193 9.5918 49.5195C9.59508 49.5196 9.60546 49.5187 9.62109 49.5137L9.90234 49.4199L10.1836 49.332C10.4178 49.2572 10.6577 49.2045 10.8984 49.1797L11.4609 49.1211C11.6203 49.1046 11.7807 49.0793 11.9414 49.0449L12.5039 48.9277C12.8581 48.8519 13.2075 48.8955 13.5293 49.0391L13.8105 49.168L14.0918 49.291C14.1708 49.3262 14.2275 49.3308 14.2734 49.3262L14.5547 49.2969L14.8359 49.2734C15.0842 49.2485 15.3328 49.2492 15.5801 49.2852L16.1426 49.3672C16.3256 49.3939 16.5103 49.4197 16.6934 49.4434L16.9746 49.4844L17.2559 49.5195C17.3789 49.5354 17.502 49.5352 17.625 49.5195L17.9062 49.4844L18.1875 49.4434C18.4679 49.4073 18.7506 49.4236 19.0254 49.4902L19.5879 49.6309C19.6696 49.6505 19.7492 49.6526 19.8281 49.6367L20.3906 49.5195C20.509 49.4954 20.6375 49.456 20.7715 49.3906L21.0527 49.25L21.334 49.1152C21.5983 48.9864 21.8783 48.9063 22.1719 48.8867L22.4531 48.8633L22.7344 48.8457C22.9367 48.8324 23.1413 48.8291 23.3438 48.8281L23.625 48.8223H23.9062C24.2543 48.8207 24.576 48.9301 24.8613 49.1035L25.4238 49.4434C25.5234 49.5039 25.5961 49.5171 25.6406 49.5195L26.2031 49.5547C26.4022 49.5654 26.6019 49.581 26.8008 49.6016L27.082 49.6309L27.334 49.6543C27.3372 49.6532 27.3607 49.6475 27.3984 49.6191L27.9609 49.1973L28.2422 49.0273C28.347 48.9802 28.4647 48.9454 28.5879 48.9277C28.7124 48.9101 28.834 48.9147 28.9512 48.9336L29.291 49.0391L29.8535 49.2969C29.9405 49.3373 30.0065 49.3466 30.0586 49.3438L30.3398 49.332L30.6211 49.3145C30.7888 49.3051 30.9569 49.2897 31.125 49.2676L31.4062 49.2324L31.6875 49.1914C31.8883 49.165 32.09 49.1483 32.291 49.1328L32.8535 49.0859C33.1767 49.0612 33.4886 49.1259 33.7793 49.2559L34.0605 49.3789L34.3418 49.5078C34.4071 49.5369 34.4509 49.5363 34.4824 49.5312L34.7637 49.4844L35.0449 49.4434L35.8887 49.3027L36.1699 49.2617C36.3938 49.2261 36.6184 49.2044 36.8438 49.2031H37.4062C37.6354 49.2019 37.8642 49.2189 38.0918 49.2559L38.6543 49.3496C38.8124 49.3754 38.9718 49.3894 39.1289 49.3965L39.6914 49.4199C39.7644 49.4232 39.8475 49.4112 39.9434 49.373L40.5059 49.1504C40.8658 49.0066 41.2491 49.0014 41.6133 49.1387L42.1758 49.3496C42.3169 49.4028 42.4531 49.4405 42.5859 49.4609L42.8672 49.502L43.1484 49.5488C43.3025 49.5724 43.4585 49.5817 43.6113 49.584L44.1738 49.5957C44.3021 49.5975 44.4342 49.5834 44.5664 49.5547L44.8477 49.4902L45.1289 49.4316C45.2717 49.4005 45.4192 49.3573 45.5684 49.2969L45.8496 49.1797L46.1309 49.0684L46.4355 48.9805C46.6393 48.9472 46.8433 48.9587 47.0391 49.0156L47.3262 49.1328L47.6074 49.2852L47.8887 49.4316C47.9981 49.4896 48.0893 49.5131 48.1641 49.5195L48.4453 49.543L48.7266 49.5723C48.7716 49.5758 48.8289 49.5676 48.9082 49.5312L49.4707 49.2734C49.7376 49.1504 50.0233 49.1039 50.3086 49.1445L50.5957 49.2148L51.1582 49.4141C51.2345 49.4409 51.2981 49.4405 51.3574 49.4316L51.9199 49.3496C52.1547 49.3136 52.3925 49.2989 52.6289 49.3086L53.1914 49.332C53.2497 49.3344 53.3231 49.3209 53.4141 49.2793L53.6953 49.1504L53.9766 49.0273C54.2918 48.8835 54.6334 48.8278 54.9844 48.8926L55.5469 48.998C55.7494 49.0354 55.9543 49.0768 56.1562 49.127L56.7188 49.2676C56.7611 49.2777 56.8011 49.2791 56.8535 49.2617L57.1348 49.1621L57.416 49.0684C57.7181 48.9654 58.0364 48.9364 58.3535 48.9922L58.6348 49.0391L58.916 49.0918C59.0514 49.1156 59.1872 49.1264 59.3203 49.1211L59.8828 49.0977C60.056 49.0907 60.231 49.0789 60.4043 49.0625L60.6855 49.0332L60.9668 49.0098C61.2665 48.9817 61.5628 49.0171 61.8457 49.1152L62.4082 49.3145C62.4331 49.3229 62.4472 49.3231 62.4727 49.3145L63.0352 49.1152C63.3962 48.9885 63.7722 48.9985 64.125 49.1387L64.6875 49.3613C64.7819 49.3989 64.862 49.4117 64.9336 49.4082L65.2148 49.3906L65.4961 49.3789C65.5726 49.375 65.6644 49.3547 65.7715 49.3027L66.0527 49.168L66.334 49.0273L66.6328 48.9219C66.8366 48.8737 67.0442 48.8742 67.248 48.9219L67.5527 49.0273L67.834 49.1621L68.1152 49.3027C68.1748 49.331 68.2065 49.3293 68.2266 49.3262L68.7891 49.2324C69.0222 49.1944 69.2573 49.179 69.4922 49.1855L69.7734 49.1914L70.0547 49.2031C70.2414 49.2084 70.4305 49.2101 70.6172 49.2148L70.8984 49.2266L71.1797 49.2324C71.2937 49.2353 71.4105 49.2227 71.5312 49.1914L71.8125 49.1152L72.0938 49.0449C72.5029 48.9381 72.9003 49.0183 73.2363 49.2207L73.7988 49.5605C73.8868 49.6134 73.9402 49.6191 73.9688 49.6191H74.5312C74.6137 49.6188 74.7075 49.604 74.8125 49.5605L75.375 49.3262C75.6579 49.2092 75.957 49.1502 76.2656 49.168L76.8281 49.2031C77.0016 49.2132 77.1762 49.2201 77.3496 49.2207H77.9121C78.1163 49.2214 78.3232 49.2298 78.5273 49.2441L78.8086 49.2617L79.0898 49.2852C79.2865 49.299 79.4851 49.3164 79.6816 49.3379L80.2441 49.3965C80.3176 49.4043 80.3956 49.3971 80.4844 49.3672L81.0469 49.1797C81.2705 49.1044 81.4984 49.0479 81.7266 49.0098L82.2891 48.916C82.5773 48.8681 82.8666 48.8765 83.1504 48.9453L83.4316 49.0156L83.7129 49.0801C83.945 49.1364 84.1737 49.2159 84.3984 49.3145L84.9609 49.5605C85.049 49.5992 85.1193 49.6105 85.1777 49.6074L85.459 49.5898L85.7402 49.5781C85.8483 49.5718 85.9643 49.547 86.0859 49.502L86.6484 49.291C86.9247 49.1885 87.2144 49.1414 87.5098 49.1562L87.791 49.168L88.0723 49.1855C88.2572 49.195 88.4439 49.2009 88.6289 49.209L88.9102 49.2207L89.1914 49.2383C89.406 49.2476 89.6223 49.2636 89.8359 49.2969L90.1172 49.3438L90.3984 49.3848C90.4535 49.3934 90.5173 49.3945 90.5918 49.3672L91.1543 49.1562L91.4648 49.0801C91.674 49.0548 91.8799 49.0831 92.0742 49.1504L92.3555 49.2793L92.6367 49.4492L92.8652 49.5781L93.0762 49.4902L93.3574 49.3672C93.6574 49.2344 93.9797 49.1801 94.3125 49.2207L94.5938 49.25L94.875 49.2852C94.9386 49.293 95.0098 49.2909 95.0918 49.2617L95.373 49.1562L95.6543 49.0566L95.9766 48.9805C96.1912 48.9579 96.402 48.988 96.5977 49.0625L96.873 49.209L97.1543 49.3848L97.4355 49.5664C97.5241 49.6226 97.5755 49.6251 97.5938 49.625L97.875 49.6191H98.1562C98.3378 49.6178 98.5196 49.6128 98.7012 49.6074L98.9824 49.6016L99.2637 49.5898C99.4549 49.5842 99.6466 49.5808 99.8379 49.5781H100.119L100.4 49.5723C100.511 49.5707 100.625 49.5513 100.746 49.5137L101.309 49.3379C101.642 49.2332 101.989 49.2329 102.322 49.3379L102.885 49.5137C102.921 49.5253 102.952 49.5264 102.99 49.5137L103.271 49.4199L103.553 49.332C103.826 49.2419 104.109 49.202 104.396 49.2207L104.959 49.2559C105.142 49.2678 105.326 49.2762 105.51 49.2852L105.791 49.3027L106.072 49.3145C106.151 49.3182 106.238 49.3044 106.336 49.2676L106.898 49.0566C107.239 48.9296 107.598 48.9179 107.947 49.0273L108.51 49.2031C108.542 49.2132 108.566 49.216 108.604 49.2031L109.166 49.0039L109.488 48.9336C109.699 48.9141 109.905 48.948 110.098 49.0215L110.373 49.1621L110.654 49.3379L110.936 49.5195C111.04 49.586 111.118 49.6078 111.17 49.6133L111.451 49.6367L111.732 49.666C111.862 49.6788 111.995 49.6777 112.125 49.6602L112.406 49.625L112.688 49.584C112.775 49.5719 112.876 49.5406 112.992 49.4785L113.555 49.1738C113.866 49.0071 114.22 48.9315 114.586 48.9863L114.867 49.0273L115.148 49.0742C115.328 49.1011 115.508 49.1229 115.688 49.1445L116.25 49.2148C116.423 49.2357 116.599 49.2512 116.771 49.2617L117.334 49.2969C117.504 49.3071 117.674 49.3098 117.844 49.3086H118.125L118.406 49.3027C118.592 49.3015 118.777 49.2993 118.963 49.2969H119.244L119.525 49.291C119.713 49.2885 119.901 49.2878 120.088 49.2852L120.65 49.2734C120.886 49.2701 121.12 49.2909 121.354 49.332L121.635 49.3789L121.916 49.4316C122.037 49.4529 122.155 49.4549 122.273 49.4434L122.555 49.4199L122.836 49.3906C122.973 49.3771 123.115 49.3511 123.258 49.3086L123.539 49.2207L123.82 49.1387C124.064 49.066 124.314 49.0215 124.564 49.0098L125.127 48.9863C125.442 48.9718 125.745 49.035 126.029 49.1621L126.311 49.2852L126.592 49.4141C126.681 49.4541 126.753 49.4638 126.814 49.4609L127.096 49.4492L127.383 49.4375C127.59 49.4278 127.806 49.4206 128.027 49.4258L128.338 49.4375L128.643 49.4434C128.661 49.4438 128.672 49.4434 128.672 49.4434C128.674 49.4422 128.679 49.4347 128.689 49.4258L128.93 49.2266L129.164 49.0273C129.248 48.9569 129.31 48.8851 129.352 48.8047L129.486 48.541L129.615 48.2773C129.745 48.0236 129.92 47.8005 130.131 47.6094L130.553 47.2227C130.585 47.193 130.607 47.1641 130.617 47.123L130.688 46.8477L130.758 46.5664C130.794 46.4232 130.817 46.2781 130.828 46.1328L130.852 45.8516L130.869 45.5645C130.881 45.4078 130.883 45.2503 130.875 45.0957L130.852 44.5332C130.839 44.276 130.858 44.0178 130.916 43.7656L131.045 43.2031C131.067 43.1044 131.07 43.0106 131.057 42.916L131.021 42.6348L130.98 42.3535C130.952 42.1535 130.928 41.9503 130.91 41.75L130.887 41.4688L130.857 41.1875C130.831 40.8952 130.867 40.6046 130.957 40.3262L131.051 40.0449L131.109 39.8633L130.916 39.6172L130.693 39.3359C130.46 39.0386 130.3 38.6613 130.342 38.2344L130.4 37.6719C130.418 37.4921 130.434 37.3125 130.447 37.1328L130.465 36.8516L130.488 36.5703C130.499 36.4147 130.497 36.2571 130.488 36.1016L130.471 35.8203L130.459 35.5391C130.446 35.3105 130.452 35.0815 130.477 34.8535L130.535 34.291C130.552 34.1325 130.559 33.9744 130.559 33.8164V33.2539C130.558 33.0985 130.544 32.9413 130.523 32.7852L130.453 32.2227C130.406 31.8628 130.484 31.5164 130.646 31.209L130.793 30.9277L130.916 30.6816L130.816 30.4648L130.688 30.1836C130.54 29.8598 130.492 29.5045 130.57 29.1465L130.635 28.8652L130.693 28.584C130.715 28.4864 130.72 28.3912 130.705 28.2969L130.664 28.0156L130.617 27.7344C130.587 27.5356 130.562 27.3357 130.541 27.1367L130.482 26.5742C130.455 26.3054 130.471 26.0358 130.529 25.7715L130.658 25.209C130.683 25.0978 130.686 24.9876 130.676 24.8809L130.646 24.5996L130.623 24.3184C130.593 24.0106 130.639 23.709 130.746 23.4219L130.852 23.1406L130.951 22.8594V22.8477L130.717 22.2852C130.563 21.9149 130.558 21.52 130.711 21.1484L130.828 20.8672L130.939 20.5918L130.828 20.3223L130.705 20.041C130.588 19.7648 130.529 19.4698 130.535 19.168L130.547 18.6055C130.553 18.3099 130.62 18.0252 130.74 17.7559L130.863 17.4746L130.963 17.2461L130.84 17.0117L130.688 16.7305C130.524 16.4272 130.438 16.0864 130.477 15.7285L130.512 15.4473L130.541 15.166C130.568 14.9216 130.624 14.6817 130.705 14.4453L130.893 13.8828C130.898 13.8666 130.898 13.8556 130.898 13.8535C130.898 13.8503 130.899 13.8411 130.893 13.8242L130.682 13.2617C130.54 12.8848 130.555 12.4928 130.717 12.1309L130.975 11.5684L130.869 11.2871L130.77 11.0059C130.637 10.6441 130.641 10.2671 130.781 9.91016L131.004 9.34766C131.022 9.30216 131.022 9.27513 131.016 9.24805L130.939 8.9668L130.869 8.68555C130.799 8.40935 130.781 8.12459 130.816 7.8418L130.887 7.2793C130.909 7.10631 130.928 6.93097 130.939 6.75781L130.975 6.19531C130.98 6.11442 130.972 6.03016 130.939 5.9375L130.84 5.66211L130.74 5.38086C130.694 5.251 130.637 5.13502 130.57 5.03516L130.418 4.80664L130.26 4.57227C130.146 4.40176 130.039 4.22568 129.938 4.04492L129.797 3.79883L129.662 3.55273C129.594 3.43031 129.505 3.30313 129.398 3.17188L129.199 2.92578L129.006 2.69141L128.719 2.67969L128.408 2.66211C128.316 2.65676 128.23 2.66797 128.145 2.70312L127.57 2.9375C127.164 3.10424 126.741 3.07675 126.363 2.87305L126.082 2.7207L125.877 2.60938L125.672 2.7207L125.391 2.87305C125.033 3.06693 124.622 3.11346 124.219 2.97266L123.938 2.87891L123.656 2.7793C123.57 2.74957 123.497 2.74264 123.428 2.75L122.865 2.80859C122.626 2.83493 122.384 2.83888 122.145 2.81445L121.582 2.75586C121.497 2.74716 121.408 2.75664 121.312 2.78516L121.031 2.86719L120.75 2.95508C120.451 3.04516 120.139 3.06034 119.83 3.00195L119.268 2.89648C119.178 2.87948 119.089 2.87736 118.998 2.89648L118.717 2.96094L118.436 3.01953C118.019 3.10715 117.628 2.99849 117.305 2.78516L117.023 2.59766L116.818 2.46289L116.648 2.55078L116.367 2.69141C116.05 2.84963 115.698 2.91537 115.336 2.84961L114.773 2.74414C114.585 2.7097 114.394 2.67971 114.205 2.64453L113.643 2.53906C113.499 2.51223 113.356 2.49877 113.215 2.49805L112.934 2.49219H112.652C112.624 2.49206 112.57 2.49827 112.482 2.55078L111.92 2.89062C111.621 3.07059 111.274 3.17209 110.906 3.14258L110.344 3.0957C110.058 3.07244 109.783 2.99663 109.523 2.87305L108.961 2.60352L108.949 2.59766L108.68 2.69141L108.398 2.79102C108.101 2.89324 107.792 2.92251 107.479 2.87305L107.197 2.83203L106.916 2.78516C106.787 2.76461 106.657 2.75796 106.529 2.76758L105.967 2.81445C105.829 2.82508 105.687 2.85105 105.545 2.89062L104.982 3.04297C104.635 3.13956 104.283 3.11777 103.951 2.99023L103.67 2.88477L103.389 2.77344C103.233 2.71367 103.077 2.6671 102.926 2.63281L102.363 2.50391C102.291 2.48793 102.22 2.49152 102.146 2.50977L101.584 2.65039C101.389 2.69878 101.194 2.74441 100.998 2.78516L100.436 2.90234C100.202 2.95107 99.9635 2.97569 99.7266 2.97852L99.4453 2.98438H99.1641C98.8171 2.98828 98.495 2.88586 98.209 2.71484L97.6465 2.375C97.561 2.32395 97.511 2.32165 97.4883 2.32227L97.207 2.32812Z" fill="#1E1E1E"/>
</svg>
